<svg version="1.1" xmlns="http://www.w3.org/2000/svg" xmlns:xlink="http://www.w3.org/1999/xlink" width="600" height="400"><defs><clipPath id="AksvytTZahVK"><path fill="none" stroke="none" d="M 49.5 28.5 L 570.5 28.5 L 570.5 355.5 L 49.5 355.5 L 49.5 28.5"/></clipPath><clipPath id="vklDelBGeUVq"><path fill="none" stroke="none" d="M 49.5 28.5 L 570.5 28.5 L 570.5 355.5 L 49.5 355.5 L 49.5 28.5"/></clipPath><clipPath id="SWFcEuWEXOZA"><path fill="none" stroke="none" d="M 49.5 28.5 L 570.5 28.5 L 570.5 355.5 L 49.5 355.5 L 49.5 28.5"/></clipPath><clipPath id="rNICvrhscBKM"><path fill="none" stroke="none" d="M 49.5 28.5 L 570.5 28.5 L 570.5 355.5 L 49.5 355.5 L 49.5 28.5"/></clipPath><clipPath id="FZKVrArMZyCc"><path fill="none" stroke="none" d="M 49.5 28.5 L 570.5 28.5 L 570.5 355.5 L 49.5 355.5 L 49.5 28.5"/></clipPath><clipPath id="cGOPPVhwClSX"><path fill="none" stroke="none" d="M 49.5 28.5 L 570.5 28.5 L 570.5 355.5 L 49.5 355.5 L 49.5 28.5"/></clipPath><clipPath id="ymHKwBUxpTwL"><path fill="none" stroke="none" d="M 49.5 28.5 L 570.5 28.5 L 570.5 355.5 L 49.5 355.5 L 49.5 28.5"/></clipPath><clipPath id="rdMmKEPuuTww"><path fill="none" stroke="none" d="M 49.5 28.5 L 570.5 28.5 L 570.5 355.5 L 49.5 355.5 L 49.5 28.5"/></clipPath><clipPath id="AgMEsItIazCE"><path fill="none" stroke="none" d="M 49.5 28.5 L 570.5 28.5 L 570.5 355.5 L 49.5 355.5 L 49.5 28.5"/></clipPath><clipPath id="bDnJLqaHCqOe"><path fill="none" stroke="none" d="M 49.5 28.5 L 570.5 28.5 L 570.5 355.5 L 49.5 355.5 L 49.5 28.5"/></clipPath><clipPath id="IHfdcbgvzwkd"><path fill="none" stroke="none" d="M 49.5 28.5 L 570.5 28.5 L 570.5 355.5 L 49.5 355.5 L 49.5 28.5"/></clipPath><clipPath id="BQKUWRQyfymu"><path fill="none" stroke="none" d="M 49.5 28.5 L 570.5 28.5 L 570.5 355.5 L 49.5 355.5 L 49.5 28.5"/></clipPath><clipPath id="DeCSTaBluhMu"><path fill="none" stroke="none" d="M 49.5 28.5 L 570.5 28.5 L 570.5 355.5 L 49.5 355.5 L 49.5 28.5"/></clipPath><clipPath id="QmKVgwBnbawu"><path fill="none" stroke="none" d="M 49.5 28.5 L 570.5 28.5 L 570.5 355.5 L 49.5 355.5 L 49.5 28.5"/></clipPath><clipPath id="NezwvwSDDdhd"><path fill="none" stroke="none" d="M 49.5 28.5 L 570.5 28.5 L 570.5 355.5 L 49.5 355.5 L 49.5 28.5"/></clipPath><clipPath id="QWJighCZTypE"><path fill="none" stroke="none" d="M 49.5 28.5 L 570.5 28.5 L 570.5 355.5 L 49.5 355.5 L 49.5 28.5"/></clipPath><clipPath id="whRNViULwbgX"><path fill="none" stroke="none" d="M 49.5 28.5 L 570.5 28.5 L 570.5 355.5 L 49.5 355.5 L 49.5 28.5"/></clipPath></defs><path fill="rgb(255,255,255)" stroke="none" paint-order="stroke" d="M 0.5 0.5 L 600.5 0.5 L 600.5 400.5 L 0.5 400.5 L 0.5 0.5" fill-opacity="1"/><rect fill="#FFFFFF" stroke="none" x="49" y="28" width="521" height="327" transform="matrix(1, 0, 0, 1, 0.5, 0.5)"/><path fill="rgb(255,255,255)" stroke="none" paint-order="stroke" d="M 49.5 28.5 L 570.5 28.5 L 570.5 355.5 L 49.5 355.5 L 49.5 28.5" fill-opacity="1"/><path fill="none" stroke="rgb(229,229,229)" paint-order="fill" d="M 49.5 28.5 L 570.5 28.5 L 570.5 355.5 L 49.5 355.5 L 49.5 28.5" stroke-opacity="1" stroke-linejoin="bevel" stroke-miterlimit="10" stroke-dasharray=""/><path fill="none" stroke="none"/><path fill="none" stroke="rgb(0,0,0)" paint-order="fill" d="M 119.83499908447266 69.375 L 134.9830780029297 69.375" stroke-opacity="1" stroke-linejoin="bevel" stroke-miterlimit="10" stroke-width="3" stroke-dasharray="" clip-path="url(#SWFcEuWEXOZA)"/><path fill="none" stroke="none"/><path fill="rgb(128,128,128)" stroke="rgb(0,0,0)" paint-order="fill" d="M 130.60800170898438 69.375 A 4 4 0 1 1 130.60799970898455 69.37100000066667" fill-opacity="0.8" clip-path="url(#rNICvrhscBKM)" stroke-opacity="0.8" stroke-linejoin="bevel" stroke-miterlimit="10" stroke-dasharray=""/><path fill="none" stroke="none"/><path fill="none" stroke="rgb(0,0,0)" paint-order="fill" d="M 416.80499267578125 110.25 L 439.2080078125 110.25" stroke-opacity="1" stroke-linejoin="bevel" stroke-miterlimit="10" stroke-width="3" stroke-dasharray="" clip-path="url(#FZKVrArMZyCc)"/><path fill="none" stroke="none"/><path fill="rgb(128,128,128)" stroke="rgb(0,0,0)" paint-order="fill" d="M 432.2669982910156 110.25 A 4 4 0 1 1 432.2669962910158 110.24600000066667" fill-opacity="0.8" clip-path="url(#cGOPPVhwClSX)" stroke-opacity="0.8" stroke-linejoin="bevel" stroke-miterlimit="10" stroke-dasharray=""/><path fill="none" stroke="none"/><path fill="none" stroke="rgb(0,0,0)" paint-order="fill" d="M 518.3934936523438 151.125 L 537.677001953125 151.125" stroke-opacity="1" stroke-linejoin="bevel" stroke-miterlimit="10" stroke-width="3" stroke-dasharray="" clip-path="url(#ymHKwBUxpTwL)"/><path fill="none" stroke="none"/><path fill="rgb(255,165,0)" stroke="rgb(0,0,0)" paint-order="fill" d="M 531.7780151367188 151.125 A 4 4 0 1 1 531.7780131367189 151.12100000066667" fill-opacity="0.8" clip-path="url(#rdMmKEPuuTww)" stroke-opacity="0.8" stroke-linejoin="bevel" stroke-miterlimit="10" stroke-dasharray=""/><path fill="none" stroke="none"/><path fill="none" stroke="rgb(0,0,0)" paint-order="fill" d="M 306.8739929199219 192 L 322.5039978027344 192" stroke-opacity="1" stroke-linejoin="bevel" stroke-miterlimit="10" stroke-width="3" stroke-dasharray="" clip-path="url(#AgMEsItIazCE)"/><path fill="none" stroke="none"/><path fill="rgb(255,0,0)" stroke="rgb(0,0,0)" paint-order="fill" d="M 317.6470031738281 192 A 4 4 0 1 1 317.6470011738283 191.99600000066667" fill-opacity="0.8" clip-path="url(#bDnJLqaHCqOe)" stroke-opacity="0.8" stroke-linejoin="bevel" stroke-miterlimit="10" stroke-dasharray=""/><path fill="none" stroke="none"/><path fill="none" stroke="rgb(0,0,0)" paint-order="fill" d="M 108.37300109863281 232.875 L 172.2671356201172 232.875" stroke-opacity="1" stroke-linejoin="bevel" stroke-miterlimit="10" stroke-width="3" stroke-dasharray="" clip-path="url(#IHfdcbgvzwkd)"/><path fill="none" stroke="none"/><path fill="rgb(0,255,255)" stroke="rgb(0,0,0)" paint-order="fill" d="M 132.69200134277344 232.875 A 4 4 0 1 1 132.6919993427736 232.87100000066667" fill-opacity="0.8" clip-path="url(#BQKUWRQyfymu)" stroke-opacity="0.8" stroke-linejoin="bevel" stroke-miterlimit="10" stroke-dasharray=""/><path fill="none" stroke="none"/><path fill="none" stroke="rgb(0,0,0)" paint-order="fill" d="M 72.42400360107422 273.75 L 84.6675033569336 273.75" stroke-opacity="1" stroke-linejoin="bevel" stroke-miterlimit="10" stroke-width="3" stroke-dasharray="" clip-path="url(#DeCSTaBluhMu)"/><path fill="none" stroke="none"/><path fill="rgb(0,128,0)" stroke="rgb(0,0,0)" paint-order="fill" d="M 82.6760025024414 273.75 A 4 4 0 1 1 82.67600050244157 273.74600000066664" fill-opacity="0.8" clip-path="url(#QmKVgwBnbawu)" stroke-opacity="0.8" stroke-linejoin="bevel" stroke-miterlimit="10" stroke-dasharray=""/><path fill="none" stroke="none"/><path fill="none" stroke="rgb(0,0,0)" paint-order="fill" d="M 64.60248565673828 314.625 L 106.54949951171875 314.625" stroke-opacity="1" stroke-linejoin="bevel" stroke-miterlimit="10" stroke-width="3" stroke-dasharray="" clip-path="url(#NezwvwSDDdhd)"/><path fill="none" stroke="none"/><path fill="rgb(0,0,0)" stroke="rgb(0,0,0)" paint-order="fill" d="M 89.4489974975586 314.625 A 4 4 0 1 1 89.44899549755876 314.62100000066664" fill-opacity="0.8" clip-path="url(#QWJighCZTypE)" stroke-opacity="0.8" stroke-linejoin="bevel" stroke-miterlimit="10" stroke-dasharray=""/><path fill="none" stroke="rgb(0,0,0)" paint-order="fill" d="M 49.5 355.5 L 570.5 355.5" stroke-opacity="1" stroke-linejoin="bevel" stroke-miterlimit="10" stroke-dasharray=""/><path fill="none" stroke="rgb(0,0,0)" paint-order="fill" d="M 49.5 361.5 L 49.5 353.5 M 153.5 361.5 L 153.5 353.5 M 257.5 361.5 L 257.5 353.5 M 362.5 361.5 L 362.5 353.5 M 466.5 361.5 L 466.5 353.5 M 570.5 361.5 L 570.5 353.5" stroke-opacity="1" stroke-linejoin="bevel" stroke-miterlimit="10" stroke-dasharray=""/><text fill="rgb(68,68,68)" stroke="none" font-family="helvetica" font-size="11px" font-style="normal" font-weight="normal" text-decoration="normal" x="0" y="0" text-anchor="middle" dominant-baseline="hanging" transform="matrix(1, 0, 0, 1, 49.5, 366.5)" fill-opacity="1">0</text><text fill="rgb(68,68,68)" stroke="none" font-family="helvetica" font-size="11px" font-style="normal" font-weight="normal" text-decoration="normal" x="0" y="0" text-anchor="middle" dominant-baseline="hanging" transform="matrix(1, 0, 0, 1, 153.5, 366.5)" fill-opacity="1">0.2</text><text fill="rgb(68,68,68)" stroke="none" font-family="helvetica" font-size="11px" font-style="normal" font-weight="normal" text-decoration="normal" x="0" y="0" text-anchor="middle" dominant-baseline="hanging" transform="matrix(1, 0, 0, 1, 257.5, 366.5)" fill-opacity="1">0.4</text><text fill="rgb(68,68,68)" stroke="none" font-family="helvetica" font-size="11px" font-style="normal" font-weight="normal" text-decoration="normal" x="0" y="0" text-anchor="middle" dominant-baseline="hanging" transform="matrix(1, 0, 0, 1, 362.5, 366.5)" fill-opacity="1">0.6</text><text fill="rgb(68,68,68)" stroke="none" font-family="helvetica" font-size="11px" font-style="normal" font-weight="normal" text-decoration="normal" x="0" y="0" text-anchor="middle" dominant-baseline="hanging" transform="matrix(1, 0, 0, 1, 466.5, 366.5)" fill-opacity="1">0.8</text><text fill="rgb(68,68,68)" stroke="none" font-family="helvetica" font-size="11px" font-style="normal" font-weight="normal" text-decoration="normal" x="0" y="0" text-anchor="middle" dominant-baseline="hanging" transform="matrix(1, 0, 0, 1, 570.5, 366.5)" fill-opacity="1">1</text><text fill="rgb(68,68,68)" stroke="none" font-family="helvetica" font-size="13px" font-style="italic" font-weight="normal" text-decoration="normal" x="0" y="0" text-anchor="middle" dominant-baseline="hanging" transform="matrix(1, 0, 0, 1, 310.5, 384.5)" fill-opacity="1">TRACK_MEAN_SPEED (µm)</text><path fill="none" stroke="rgb(0,0,0)" paint-order="fill" d="M 49.5 355.5 L 49.5 28.5" stroke-opacity="1" stroke-linejoin="bevel" stroke-miterlimit="10" stroke-dasharray=""/><path fill="none" stroke="rgb(0,0,0)" paint-order="fill" d="M 43.5 314.5 L 51.5 314.5 M 43.5 273.5 L 51.5 273.5 M 43.5 232.5 L 51.5 232.5 M 43.5 192.5 L 51.5 192.5 M 43.5 151.5 L 51.5 151.5 M 43.5 110.5 L 51.5 110.5 M 43.5 69.5 L 51.5 69.5" stroke-opacity="1" stroke-linejoin="bevel" stroke-miterlimit="10" stroke-dasharray=""/><text fill="rgb(68,68,68)" stroke="none" font-family="helvetica" font-size="11px" font-style="normal" font-weight="normal" text-decoration="normal" x="0" y="0" text-anchor="end" dominant-baseline="central" transform="matrix(1, 0, 0, 1, 38.5, 314.5)" fill-opacity="1">pilTU-</text><text fill="rgb(68,68,68)" stroke="none" font-family="helvetica" font-size="11px" font-style="normal" font-weight="normal" text-decoration="normal" x="0" y="0" text-anchor="end" dominant-baseline="central" transform="matrix(1, 0, 0, 1, 38.5, 273.5)" fill-opacity="1">pilG-</text><text fill="rgb(68,68,68)" stroke="none" font-family="helvetica" font-size="11px" font-style="normal" font-weight="normal" text-decoration="normal" x="0" y="0" text-anchor="end" dominant-baseline="central" transform="matrix(1, 0, 0, 1, 38.5, 232.5)" fill-opacity="1">cyaB-</text><text fill="rgb(68,68,68)" stroke="none" font-family="helvetica" font-size="11px" font-style="normal" font-weight="normal" text-decoration="normal" x="0" y="0" text-anchor="end" dominant-baseline="central" transform="matrix(1, 0, 0, 1, 38.5, 192.5)" fill-opacity="1">pilH-</text><text fill="rgb(68,68,68)" stroke="none" font-family="helvetica" font-size="11px" font-style="normal" font-weight="normal" text-decoration="normal" x="0" y="0" text-anchor="end" dominant-baseline="central" transform="matrix(1, 0, 0, 1, 38.5, 151.5)" fill-opacity="1">cpdA-</text><text fill="rgb(68,68,68)" stroke="none" font-family="helvetica" font-size="11px" font-style="normal" font-weight="normal" text-decoration="normal" x="0" y="0" text-anchor="end" dominant-baseline="central" transform="matrix(1, 0, 0, 1, 38.5, 110.5)" fill-opacity="1">WT sol</text><text fill="rgb(68,68,68)" stroke="none" font-family="helvetica" font-size="11px" font-style="normal" font-weight="normal" text-decoration="normal" x="0" y="0" text-anchor="end" dominant-baseline="central" transform="matrix(1, 0, 0, 1, 38.5, 69.5)" fill-opacity="1">WT liq</text><path fill="none" stroke="none"/><text fill="rgb(68,68,68)" stroke="none" font-family="helvetica" font-size="13px" font-style="normal" font-weight="bold" text-decoration="normal" x="0" y="0" text-anchor="start" dominant-baseline="text-after-edge" transform="matrix(1, 0, 0, 1, 49.5, 23.5)" fill-opacity="1">Track mean speed on liquid vs. solid grown cells</text></svg>