<svg version="1.1" xmlns="http://www.w3.org/2000/svg" xmlns:xlink="http://www.w3.org/1999/xlink" width="600" height="400"><defs><clipPath id="nCOMHmMTkDyU"><path fill="none" stroke="none" d="M 48.5 28.5 L 570.5 28.5 L 570.5 376.5 L 48.5 376.5 L 48.5 28.5"/></clipPath><clipPath id="lFzFqTxziHdX"><path fill="none" stroke="none" d="M 48.5 28.5 L 570.5 28.5 L 570.5 376.5 L 48.5 376.5 L 48.5 28.5"/></clipPath><clipPath id="yhfJsKTtEGAd"><path fill="none" stroke="none" d="M 48.5 28.5 L 570.5 28.5 L 570.5 376.5 L 48.5 376.5 L 48.5 28.5"/></clipPath><clipPath id="CpUXWDFMdGfi"><path fill="none" stroke="none" d="M 48.5 28.5 L 570.5 28.5 L 570.5 376.5 L 48.5 376.5 L 48.5 28.5"/></clipPath><clipPath id="nohvkpeBNHmL"><path fill="none" stroke="none" d="M 48.5 28.5 L 570.5 28.5 L 570.5 376.5 L 48.5 376.5 L 48.5 28.5"/></clipPath><clipPath id="RTRccZTimlwP"><path fill="none" stroke="none" d="M 48.5 28.5 L 570.5 28.5 L 570.5 376.5 L 48.5 376.5 L 48.5 28.5"/></clipPath><clipPath id="PScGuHCAJgWZ"><path fill="none" stroke="none" d="M 48.5 28.5 L 570.5 28.5 L 570.5 376.5 L 48.5 376.5 L 48.5 28.5"/></clipPath><clipPath id="SJAhlcuNhRES"><path fill="none" stroke="none" d="M 48.5 28.5 L 570.5 28.5 L 570.5 376.5 L 48.5 376.5 L 48.5 28.5"/></clipPath><clipPath id="HTGZHHELRCxG"><path fill="none" stroke="none" d="M 48.5 28.5 L 570.5 28.5 L 570.5 376.5 L 48.5 376.5 L 48.5 28.5"/></clipPath><clipPath id="XTawuSIlehHo"><path fill="none" stroke="none" d="M 48.5 28.5 L 570.5 28.5 L 570.5 376.5 L 48.5 376.5 L 48.5 28.5"/></clipPath><clipPath id="vlxKQssakmpk"><path fill="none" stroke="none" d="M 48.5 28.5 L 570.5 28.5 L 570.5 376.5 L 48.5 376.5 L 48.5 28.5"/></clipPath><clipPath id="TKGNJGTcwrKN"><path fill="none" stroke="none" d="M 48.5 28.5 L 570.5 28.5 L 570.5 376.5 L 48.5 376.5 L 48.5 28.5"/></clipPath><clipPath id="wVHJziomVKUt"><path fill="none" stroke="none" d="M 48.5 28.5 L 570.5 28.5 L 570.5 376.5 L 48.5 376.5 L 48.5 28.5"/></clipPath><clipPath id="aKQhGVvsBZBZ"><path fill="none" stroke="none" d="M 48.5 28.5 L 570.5 28.5 L 570.5 376.5 L 48.5 376.5 L 48.5 28.5"/></clipPath><clipPath id="NIKTvUfuSIfM"><path fill="none" stroke="none" d="M 48.5 28.5 L 570.5 28.5 L 570.5 376.5 L 48.5 376.5 L 48.5 28.5"/></clipPath><clipPath id="gFtXPKTvmCdk"><path fill="none" stroke="none" d="M 48.5 28.5 L 570.5 28.5 L 570.5 376.5 L 48.5 376.5 L 48.5 28.5"/></clipPath><clipPath id="eyJNgSnMqrtX"><path fill="none" stroke="none" d="M 48.5 28.5 L 570.5 28.5 L 570.5 376.5 L 48.5 376.5 L 48.5 28.5"/></clipPath><clipPath id="dEeLcuwuTfdE"><path fill="none" stroke="none" d="M 48.5 28.5 L 570.5 28.5 L 570.5 376.5 L 48.5 376.5 L 48.5 28.5"/></clipPath><clipPath id="spbrtzpkcDeJ"><path fill="none" stroke="none" d="M 48.5 28.5 L 570.5 28.5 L 570.5 376.5 L 48.5 376.5 L 48.5 28.5"/></clipPath><clipPath id="JXJxrvyFmuXg"><path fill="none" stroke="none" d="M 48.5 28.5 L 570.5 28.5 L 570.5 376.5 L 48.5 376.5 L 48.5 28.5"/></clipPath><clipPath id="NclbTsvMFgbi"><path fill="none" stroke="none" d="M 48.5 28.5 L 570.5 28.5 L 570.5 376.5 L 48.5 376.5 L 48.5 28.5"/></clipPath><clipPath id="zrRFfCCWpgZk"><path fill="none" stroke="none" d="M 48.5 28.5 L 570.5 28.5 L 570.5 376.5 L 48.5 376.5 L 48.5 28.5"/></clipPath><clipPath id="JNRHinRgvSXt"><path fill="none" stroke="none" d="M 48.5 28.5 L 570.5 28.5 L 570.5 376.5 L 48.5 376.5 L 48.5 28.5"/></clipPath><clipPath id="yeuagFXKGNyI"><path fill="none" stroke="none" d="M 48.5 28.5 L 570.5 28.5 L 570.5 376.5 L 48.5 376.5 L 48.5 28.5"/></clipPath><clipPath id="QBNTwGCzSGPh"><path fill="none" stroke="none" d="M 48.5 28.5 L 570.5 28.5 L 570.5 376.5 L 48.5 376.5 L 48.5 28.5"/></clipPath><clipPath id="SBoBvbCELHsC"><path fill="none" stroke="none" d="M 48.5 28.5 L 570.5 28.5 L 570.5 376.5 L 48.5 376.5 L 48.5 28.5"/></clipPath><clipPath id="oBfwZOpHBSLX"><path fill="none" stroke="none" d="M 48.5 28.5 L 570.5 28.5 L 570.5 376.5 L 48.5 376.5 L 48.5 28.5"/></clipPath><clipPath id="OwEhGUfiDQUk"><path fill="none" stroke="none" d="M 48.5 28.5 L 570.5 28.5 L 570.5 376.5 L 48.5 376.5 L 48.5 28.5"/></clipPath><clipPath id="wHBqMDVbSMbQ"><path fill="none" stroke="none" d="M 48.5 28.5 L 570.5 28.5 L 570.5 376.5 L 48.5 376.5 L 48.5 28.5"/></clipPath><clipPath id="SiTzdLRAzwui"><path fill="none" stroke="none" d="M 48.5 28.5 L 570.5 28.5 L 570.5 376.5 L 48.5 376.5 L 48.5 28.5"/></clipPath><clipPath id="PFFSRXOIcEmg"><path fill="none" stroke="none" d="M 48.5 28.5 L 570.5 28.5 L 570.5 376.5 L 48.5 376.5 L 48.5 28.5"/></clipPath><clipPath id="xnxNUtVnSzwW"><path fill="none" stroke="none" d="M 48.5 28.5 L 570.5 28.5 L 570.5 376.5 L 48.5 376.5 L 48.5 28.5"/></clipPath><clipPath id="zgFitkRMvsZI"><path fill="none" stroke="none" d="M 48.5 28.5 L 570.5 28.5 L 570.5 376.5 L 48.5 376.5 L 48.5 28.5"/></clipPath><clipPath id="dZSemAVupwOT"><path fill="none" stroke="none" d="M 48.5 28.5 L 570.5 28.5 L 570.5 376.5 L 48.5 376.5 L 48.5 28.5"/></clipPath><clipPath id="kfkexTvJZwoE"><path fill="none" stroke="none" d="M 48.5 28.5 L 570.5 28.5 L 570.5 376.5 L 48.5 376.5 L 48.5 28.5"/></clipPath><clipPath id="rFMUhixWgXZt"><path fill="none" stroke="none" d="M 48.5 28.5 L 570.5 28.5 L 570.5 376.5 L 48.5 376.5 L 48.5 28.5"/></clipPath><clipPath id="zLfIRNTsEJmP"><path fill="none" stroke="none" d="M 48.5 28.5 L 570.5 28.5 L 570.5 376.5 L 48.5 376.5 L 48.5 28.5"/></clipPath><clipPath id="bynTGuRUgGTb"><path fill="none" stroke="none" d="M 48.5 28.5 L 570.5 28.5 L 570.5 376.5 L 48.5 376.5 L 48.5 28.5"/></clipPath><clipPath id="wixfwXCaIWnJ"><path fill="none" stroke="none" d="M 48.5 28.5 L 570.5 28.5 L 570.5 376.5 L 48.5 376.5 L 48.5 28.5"/></clipPath><clipPath id="HxbdkxGCwegM"><path fill="none" stroke="none" d="M 48.5 28.5 L 570.5 28.5 L 570.5 376.5 L 48.5 376.5 L 48.5 28.5"/></clipPath><clipPath id="BFbRzZvOZUWb"><path fill="none" stroke="none" d="M 48.5 28.5 L 570.5 28.5 L 570.5 376.5 L 48.5 376.5 L 48.5 28.5"/></clipPath><clipPath id="dxTdvOKiKxDy"><path fill="none" stroke="none" d="M 48.5 28.5 L 570.5 28.5 L 570.5 376.5 L 48.5 376.5 L 48.5 28.5"/></clipPath><clipPath id="qweiGyxTJozx"><path fill="none" stroke="none" d="M 48.5 28.5 L 570.5 28.5 L 570.5 376.5 L 48.5 376.5 L 48.5 28.5"/></clipPath><clipPath id="RJTXiSCFLbmU"><path fill="none" stroke="none" d="M 48.5 28.5 L 570.5 28.5 L 570.5 376.5 L 48.5 376.5 L 48.5 28.5"/></clipPath><clipPath id="ZglxWuzpWxQC"><path fill="none" stroke="none" d="M 48.5 28.5 L 570.5 28.5 L 570.5 376.5 L 48.5 376.5 L 48.5 28.5"/></clipPath><clipPath id="TJPeFLdFJPhI"><path fill="none" stroke="none" d="M 48.5 28.5 L 570.5 28.5 L 570.5 376.5 L 48.5 376.5 L 48.5 28.5"/></clipPath></defs><path fill="rgb(255,255,255)" stroke="none" paint-order="stroke" d="M 0.5 0.5 L 600.5 0.5 L 600.5 400.5 L 0.5 400.5 L 0.5 0.5" fill-opacity="1"/><rect fill="#FFFFFF" stroke="none" x="48" y="28" width="522" height="348" transform="matrix(1, 0, 0, 1, 0.5, 0.5)"/><path fill="rgb(255,255,255)" stroke="none" paint-order="stroke" d="M 48.5 28.5 L 570.5 28.5 L 570.5 376.5 L 48.5 376.5 L 48.5 28.5" fill-opacity="1"/><path fill="none" stroke="rgb(229,229,229)" paint-order="fill" d="M 48.5 28.5 L 570.5 28.5 L 570.5 376.5 L 48.5 376.5 L 48.5 28.5" stroke-opacity="1" stroke-linejoin="bevel" stroke-miterlimit="10" stroke-dasharray=""/><path fill="none" stroke="none"/><path fill="rgb(255,228,196)" stroke="none" paint-order="stroke" d="M 113.75 342.16400146484375 L 135.1045379638672 342.16400146484375 L 135.1045379638672 376.5 L 113.75 376.5 L 113.75 342.16400146484375" fill-opacity="1" clip-path="url(#yhfJsKTtEGAd)"/><path fill="none" stroke="rgb(255,228,196)" paint-order="fill" d="M 113.75 342.16400146484375 L 135.1045379638672 342.16400146484375 L 135.1045379638672 376.5 L 113.75 376.5 L 113.75 342.16400146484375" stroke-opacity="1" stroke-linejoin="bevel" stroke-miterlimit="10" stroke-dasharray="" clip-path="url(#yhfJsKTtEGAd)"/><path fill="rgb(255,228,196)" stroke="none" paint-order="stroke" d="M 351.02276611328125 207.83599853515625 L 372.37725830078125 207.83599853515625 L 372.37725830078125 376.5 L 351.02276611328125 376.5 L 351.02276611328125 207.83599853515625" fill-opacity="1" clip-path="url(#yhfJsKTtEGAd)"/><path fill="none" stroke="rgb(255,228,196)" paint-order="fill" d="M 351.02276611328125 207.83599853515625 L 372.37725830078125 207.83599853515625 L 372.37725830078125 376.5 L 351.02276611328125 376.5 L 351.02276611328125 207.83599853515625" stroke-opacity="1" stroke-linejoin="bevel" stroke-miterlimit="10" stroke-dasharray="" clip-path="url(#yhfJsKTtEGAd)"/><path fill="none" stroke="none"/><path fill="rgb(169,169,169)" stroke="none" paint-order="stroke" d="M 139.85000610351562 360.49200439453125 L 161.20455932617188 360.49200439453125 L 161.20455932617188 376.5 L 139.85000610351562 376.5 L 139.85000610351562 360.49200439453125" fill-opacity="1" clip-path="url(#CpUXWDFMdGfi)"/><path fill="none" stroke="rgb(169,169,169)" paint-order="fill" d="M 139.85000610351562 360.49200439453125 L 161.20455932617188 360.49200439453125 L 161.20455932617188 376.5 L 139.85000610351562 376.5 L 139.85000610351562 360.49200439453125" stroke-opacity="1" stroke-linejoin="bevel" stroke-miterlimit="10" stroke-dasharray="" clip-path="url(#CpUXWDFMdGfi)"/><path fill="rgb(169,169,169)" stroke="none" paint-order="stroke" d="M 377.12274169921875 370.9320068359375 L 398.477294921875 370.9320068359375 L 398.477294921875 376.5 L 377.12274169921875 376.5 L 377.12274169921875 370.9320068359375" fill-opacity="1" clip-path="url(#CpUXWDFMdGfi)"/><path fill="none" stroke="rgb(169,169,169)" paint-order="fill" d="M 377.12274169921875 370.9320068359375 L 398.477294921875 370.9320068359375 L 398.477294921875 376.5 L 377.12274169921875 376.5 L 377.12274169921875 370.9320068359375" stroke-opacity="1" stroke-linejoin="bevel" stroke-miterlimit="10" stroke-dasharray="" clip-path="url(#CpUXWDFMdGfi)"/><path fill="none" stroke="none"/><path fill="rgb(0,255,0)" stroke="none" paint-order="stroke" d="M 165.9499969482422 363.50799560546875 L 187.30455017089844 363.50799560546875 L 187.30455017089844 376.5 L 165.9499969482422 376.5 L 165.9499969482422 363.50799560546875" fill-opacity="1" clip-path="url(#nohvkpeBNHmL)"/><path fill="none" stroke="rgb(0,255,0)" paint-order="fill" d="M 165.9499969482422 363.50799560546875 L 187.30455017089844 363.50799560546875 L 187.30455017089844 376.5 L 165.9499969482422 376.5 L 165.9499969482422 363.50799560546875" stroke-opacity="1" stroke-linejoin="bevel" stroke-miterlimit="10" stroke-dasharray="" clip-path="url(#nohvkpeBNHmL)"/><path fill="rgb(0,255,0)" stroke="none" paint-order="stroke" d="M 403.2227783203125 356.3160095214844 L 424.5772705078125 356.3160095214844 L 424.5772705078125 376.5 L 403.2227783203125 376.5 L 403.2227783203125 356.3160095214844" fill-opacity="1" clip-path="url(#nohvkpeBNHmL)"/><path fill="none" stroke="rgb(0,255,0)" paint-order="fill" d="M 403.2227783203125 356.3160095214844 L 424.5772705078125 356.3160095214844 L 424.5772705078125 376.5 L 403.2227783203125 376.5 L 403.2227783203125 356.3160095214844" stroke-opacity="1" stroke-linejoin="bevel" stroke-miterlimit="10" stroke-dasharray="" clip-path="url(#nohvkpeBNHmL)"/><path fill="none" stroke="none"/><path fill="rgb(65,105,225)" stroke="none" paint-order="stroke" d="M 194.4227294921875 341.2359924316406 L 215.77728271484375 341.2359924316406 L 215.77728271484375 376.5 L 194.4227294921875 376.5 L 194.4227294921875 341.2359924316406" fill-opacity="1" clip-path="url(#RTRccZTimlwP)"/><path fill="none" stroke="rgb(65,105,225)" paint-order="fill" d="M 194.4227294921875 341.2359924316406 L 215.77728271484375 341.2359924316406 L 215.77728271484375 376.5 L 194.4227294921875 376.5 L 194.4227294921875 341.2359924316406" stroke-opacity="1" stroke-linejoin="bevel" stroke-miterlimit="10" stroke-dasharray="" clip-path="url(#RTRccZTimlwP)"/><path fill="rgb(65,105,225)" stroke="none" paint-order="stroke" d="M 431.6954345703125 324.9960021972656 L 453.04998779296875 324.9960021972656 L 453.04998779296875 376.5 L 431.6954345703125 376.5 L 431.6954345703125 324.9960021972656" fill-opacity="1" clip-path="url(#RTRccZTimlwP)"/><path fill="none" stroke="rgb(65,105,225)" paint-order="fill" d="M 431.6954345703125 324.9960021972656 L 453.04998779296875 324.9960021972656 L 453.04998779296875 376.5 L 431.6954345703125 376.5 L 431.6954345703125 324.9960021972656" stroke-opacity="1" stroke-linejoin="bevel" stroke-miterlimit="10" stroke-dasharray="" clip-path="url(#RTRccZTimlwP)"/><path fill="none" stroke="none"/><path fill="rgb(255,0,0)" stroke="none" paint-order="stroke" d="M 220.52272033691406 258.8760070800781 L 241.8772735595703 258.8760070800781 L 241.8772735595703 376.5 L 220.52272033691406 376.5 L 220.52272033691406 258.8760070800781" fill-opacity="1" clip-path="url(#PScGuHCAJgWZ)"/><path fill="none" stroke="rgb(255,0,0)" paint-order="fill" d="M 220.52272033691406 258.8760070800781 L 241.8772735595703 258.8760070800781 L 241.8772735595703 376.5 L 220.52272033691406 376.5 L 220.52272033691406 258.8760070800781" stroke-opacity="1" stroke-linejoin="bevel" stroke-miterlimit="10" stroke-dasharray="" clip-path="url(#PScGuHCAJgWZ)"/><path fill="rgb(255,0,0)" stroke="none" paint-order="stroke" d="M 457.7954406738281 217.34800720214844 L 479.1499938964844 217.34800720214844 L 479.1499938964844 376.5 L 457.7954406738281 376.5 L 457.7954406738281 217.34800720214844" fill-opacity="1" clip-path="url(#PScGuHCAJgWZ)"/><path fill="none" stroke="rgb(255,0,0)" paint-order="fill" d="M 457.7954406738281 217.34800720214844 L 479.1499938964844 217.34800720214844 L 479.1499938964844 376.5 L 457.7954406738281 376.5 L 457.7954406738281 217.34800720214844" stroke-opacity="1" stroke-linejoin="bevel" stroke-miterlimit="10" stroke-dasharray="" clip-path="url(#PScGuHCAJgWZ)"/><path fill="none" stroke="none"/><path fill="rgb(0,128,0)" stroke="none" paint-order="stroke" d="M 246.62271118164062 163.5240020751953 L 267.9772644042969 163.5240020751953 L 267.9772644042969 376.5 L 246.62271118164062 376.5 L 246.62271118164062 163.5240020751953" fill-opacity="1" clip-path="url(#SJAhlcuNhRES)"/><path fill="none" stroke="rgb(0,128,0)" paint-order="fill" d="M 246.62271118164062 163.5240020751953 L 267.9772644042969 163.5240020751953 L 267.9772644042969 376.5 L 246.62271118164062 376.5 L 246.62271118164062 163.5240020751953" stroke-opacity="1" stroke-linejoin="bevel" stroke-miterlimit="10" stroke-dasharray="" clip-path="url(#SJAhlcuNhRES)"/><path fill="rgb(0,128,0)" stroke="none" paint-order="stroke" d="M 483.89544677734375 136.49600219726562 L 505.25 136.49600219726562 L 505.25 376.5 L 483.89544677734375 376.5 L 483.89544677734375 136.49600219726562" fill-opacity="1" clip-path="url(#SJAhlcuNhRES)"/><path fill="none" stroke="rgb(0,128,0)" paint-order="fill" d="M 483.89544677734375 136.49600219726562 L 505.25 136.49600219726562 L 505.25 376.5 L 483.89544677734375 376.5 L 483.89544677734375 136.49600219726562" stroke-opacity="1" stroke-linejoin="bevel" stroke-miterlimit="10" stroke-dasharray="" clip-path="url(#SJAhlcuNhRES)"/><path fill="none" stroke="none"/><path fill="none" stroke="rgb(0,0,0)" paint-order="fill" d="M 124.4272689819336 345.17999267578125 L 124.4272689819336 338.4346008300781" stroke-opacity="1" stroke-linejoin="bevel" stroke-miterlimit="10" stroke-dasharray="" clip-path="url(#HTGZHHELRCxG)"/><path fill="none" stroke="none"/><path fill="none" stroke="rgb(0,0,0)" paint-order="fill" d="M 119.68181610107422 338.4346008300781 L 129.1727294921875 338.4346008300781" stroke-opacity="1" stroke-linejoin="bevel" stroke-miterlimit="10" stroke-dasharray="" clip-path="url(#XTawuSIlehHo)"/><path fill="none" stroke="none"/><path fill="none" stroke="rgb(0,0,0)" paint-order="fill" d="M 119.68181610107422 345.17999267578125 L 129.1727294921875 345.17999267578125" stroke-opacity="1" stroke-linejoin="bevel" stroke-miterlimit="10" stroke-dasharray="" clip-path="url(#vlxKQssakmpk)"/><path fill="none" stroke="none"/><path fill="none" stroke="rgb(0,0,0)" paint-order="fill" d="M 361.70001220703125 212.94000244140625 L 361.70001220703125 202.96400451660156" stroke-opacity="1" stroke-linejoin="bevel" stroke-miterlimit="10" stroke-dasharray="" clip-path="url(#TKGNJGTcwrKN)"/><path fill="none" stroke="none"/><path fill="none" stroke="rgb(0,0,0)" paint-order="fill" d="M 356.9545593261719 202.96400451660156 L 366.4454650878906 202.96400451660156" stroke-opacity="1" stroke-linejoin="bevel" stroke-miterlimit="10" stroke-dasharray="" clip-path="url(#wVHJziomVKUt)"/><path fill="none" stroke="none"/><path fill="none" stroke="rgb(0,0,0)" paint-order="fill" d="M 356.9545593261719 212.94000244140625 L 366.4454650878906 212.94000244140625" stroke-opacity="1" stroke-linejoin="bevel" stroke-miterlimit="10" stroke-dasharray="" clip-path="url(#aKQhGVvsBZBZ)"/><path fill="none" stroke="none"/><path fill="none" stroke="rgb(0,0,0)" paint-order="fill" d="M 150.52728271484375 369.77490234375 L 150.52728271484375 351.09600830078125" stroke-opacity="1" stroke-linejoin="bevel" stroke-miterlimit="10" stroke-dasharray="" clip-path="url(#NIKTvUfuSIfM)"/><path fill="none" stroke="none"/><path fill="none" stroke="rgb(0,0,0)" paint-order="fill" d="M 145.7818145751953 351.09600830078125 L 155.27272033691406 351.09600830078125" stroke-opacity="1" stroke-linejoin="bevel" stroke-miterlimit="10" stroke-dasharray="" clip-path="url(#gFtXPKTvmCdk)"/><path fill="none" stroke="none"/><path fill="none" stroke="rgb(0,0,0)" paint-order="fill" d="M 145.7818145751953 369.77490234375 L 155.27272033691406 369.77490234375" stroke-opacity="1" stroke-linejoin="bevel" stroke-miterlimit="10" stroke-dasharray="" clip-path="url(#eyJNgSnMqrtX)"/><path fill="none" stroke="none"/><path fill="none" stroke="rgb(0,0,0)" paint-order="fill" d="M 387.8000183105469 374.4119873046875 L 387.8000183105469 368.1422119140625" stroke-opacity="1" stroke-linejoin="bevel" stroke-miterlimit="10" stroke-dasharray="" clip-path="url(#dEeLcuwuTfdE)"/><path fill="none" stroke="none"/><path fill="none" stroke="rgb(0,0,0)" paint-order="fill" d="M 383.0545349121094 368.1422119140625 L 392.54547119140625 368.1422119140625" stroke-opacity="1" stroke-linejoin="bevel" stroke-miterlimit="10" stroke-dasharray="" clip-path="url(#spbrtzpkcDeJ)"/><path fill="none" stroke="none"/><path fill="none" stroke="rgb(0,0,0)" paint-order="fill" d="M 383.0545349121094 374.4119873046875 L 392.54547119140625 374.4119873046875" stroke-opacity="1" stroke-linejoin="bevel" stroke-miterlimit="10" stroke-dasharray="" clip-path="url(#JXJxrvyFmuXg)"/><path fill="none" stroke="none"/><path fill="none" stroke="rgb(0,0,0)" paint-order="fill" d="M 176.6272735595703 366.2919921875 L 176.6272735595703 360.8399963378906" stroke-opacity="1" stroke-linejoin="bevel" stroke-miterlimit="10" stroke-dasharray="" clip-path="url(#NclbTsvMFgbi)"/><path fill="none" stroke="none"/><path fill="none" stroke="rgb(0,0,0)" paint-order="fill" d="M 171.88182067871094 360.8399963378906 L 181.3727264404297 360.8399963378906" stroke-opacity="1" stroke-linejoin="bevel" stroke-miterlimit="10" stroke-dasharray="" clip-path="url(#zrRFfCCWpgZk)"/><path fill="none" stroke="none"/><path fill="none" stroke="rgb(0,0,0)" paint-order="fill" d="M 171.88182067871094 366.2919921875 L 181.3727264404297 366.2919921875" stroke-opacity="1" stroke-linejoin="bevel" stroke-miterlimit="10" stroke-dasharray="" clip-path="url(#JNRHinRgvSXt)"/><path fill="none" stroke="none"/><path fill="none" stroke="rgb(0,0,0)" paint-order="fill" d="M 413.9000244140625 358.1719970703125 L 413.9000244140625 354.6919860839844" stroke-opacity="1" stroke-linejoin="bevel" stroke-miterlimit="10" stroke-dasharray="" clip-path="url(#yeuagFXKGNyI)"/><path fill="none" stroke="none"/><path fill="none" stroke="rgb(0,0,0)" paint-order="fill" d="M 409.154541015625 354.6919860839844 L 418.6454772949219 354.6919860839844" stroke-opacity="1" stroke-linejoin="bevel" stroke-miterlimit="10" stroke-dasharray="" clip-path="url(#QBNTwGCzSGPh)"/><path fill="none" stroke="none"/><path fill="none" stroke="rgb(0,0,0)" paint-order="fill" d="M 409.154541015625 358.1719970703125 L 418.6454772949219 358.1719970703125" stroke-opacity="1" stroke-linejoin="bevel" stroke-miterlimit="10" stroke-dasharray="" clip-path="url(#SBoBvbCELHsC)"/><path fill="none" stroke="none"/><path fill="none" stroke="rgb(0,0,0)" paint-order="fill" d="M 205.10000610351562 350.28399658203125 L 205.10000610351562 321.83209228515625" stroke-opacity="1" stroke-linejoin="bevel" stroke-miterlimit="10" stroke-dasharray="" clip-path="url(#oBfwZOpHBSLX)"/><path fill="none" stroke="none"/><path fill="none" stroke="rgb(0,0,0)" paint-order="fill" d="M 200.35455322265625 321.83209228515625 L 209.84544372558594 321.83209228515625" stroke-opacity="1" stroke-linejoin="bevel" stroke-miterlimit="10" stroke-dasharray="" clip-path="url(#OwEhGUfiDQUk)"/><path fill="none" stroke="none"/><path fill="none" stroke="rgb(0,0,0)" paint-order="fill" d="M 200.35455322265625 350.28399658203125 L 209.84544372558594 350.28399658203125" stroke-opacity="1" stroke-linejoin="bevel" stroke-miterlimit="10" stroke-dasharray="" clip-path="url(#wHBqMDVbSMbQ)"/><path fill="none" stroke="none"/><path fill="none" stroke="rgb(0,0,0)" paint-order="fill" d="M 442.3727111816406 328.0119934082031 L 442.3727111816406 318.73199462890625" stroke-opacity="1" stroke-linejoin="bevel" stroke-miterlimit="10" stroke-dasharray="" clip-path="url(#SiTzdLRAzwui)"/><path fill="none" stroke="none"/><path fill="none" stroke="rgb(0,0,0)" paint-order="fill" d="M 437.62725830078125 318.73199462890625 L 447.1181945800781 318.73199462890625" stroke-opacity="1" stroke-linejoin="bevel" stroke-miterlimit="10" stroke-dasharray="" clip-path="url(#PFFSRXOIcEmg)"/><path fill="none" stroke="none"/><path fill="none" stroke="rgb(0,0,0)" paint-order="fill" d="M 437.62725830078125 328.0119934082031 L 447.1181945800781 328.0119934082031" stroke-opacity="1" stroke-linejoin="bevel" stroke-miterlimit="10" stroke-dasharray="" clip-path="url(#xnxNUtVnSzwW)"/><path fill="none" stroke="none"/><path fill="none" stroke="rgb(0,0,0)" paint-order="fill" d="M 231.1999969482422 261.8919982910156 L 231.1999969482422 254.9320068359375" stroke-opacity="1" stroke-linejoin="bevel" stroke-miterlimit="10" stroke-dasharray="" clip-path="url(#zgFitkRMvsZI)"/><path fill="none" stroke="none"/><path fill="none" stroke="rgb(0,0,0)" paint-order="fill" d="M 226.4545440673828 254.9320068359375 L 235.94544982910156 254.9320068359375" stroke-opacity="1" stroke-linejoin="bevel" stroke-miterlimit="10" stroke-dasharray="" clip-path="url(#dZSemAVupwOT)"/><path fill="none" stroke="none"/><path fill="none" stroke="rgb(0,0,0)" paint-order="fill" d="M 226.4545440673828 261.8919982910156 L 235.94544982910156 261.8919982910156" stroke-opacity="1" stroke-linejoin="bevel" stroke-miterlimit="10" stroke-dasharray="" clip-path="url(#kfkexTvJZwoE)"/><path fill="none" stroke="none"/><path fill="none" stroke="rgb(0,0,0)" paint-order="fill" d="M 468.47271728515625 221.05999755859375 L 468.47271728515625 215.95599365234375" stroke-opacity="1" stroke-linejoin="bevel" stroke-miterlimit="10" stroke-dasharray="" clip-path="url(#rFMUhixWgXZt)"/><path fill="none" stroke="none"/><path fill="none" stroke="rgb(0,0,0)" paint-order="fill" d="M 463.7272644042969 215.95599365234375 L 473.21820068359375 215.95599365234375" stroke-opacity="1" stroke-linejoin="bevel" stroke-miterlimit="10" stroke-dasharray="" clip-path="url(#zLfIRNTsEJmP)"/><path fill="none" stroke="none"/><path fill="none" stroke="rgb(0,0,0)" paint-order="fill" d="M 463.7272644042969 221.05999755859375 L 473.21820068359375 221.05999755859375" stroke-opacity="1" stroke-linejoin="bevel" stroke-miterlimit="10" stroke-dasharray="" clip-path="url(#bynTGuRUgGTb)"/><path fill="none" stroke="none"/><path fill="none" stroke="rgb(0,0,0)" paint-order="fill" d="M 257.29998779296875 167.70289611816406 L 257.29998779296875 159.11599731445312" stroke-opacity="1" stroke-linejoin="bevel" stroke-miterlimit="10" stroke-dasharray="" clip-path="url(#wixfwXCaIWnJ)"/><path fill="none" stroke="none"/><path fill="none" stroke="rgb(0,0,0)" paint-order="fill" d="M 252.55455017089844 159.11599731445312 L 262.04547119140625 159.11599731445312" stroke-opacity="1" stroke-linejoin="bevel" stroke-miterlimit="10" stroke-dasharray="" clip-path="url(#HxbdkxGCwegM)"/><path fill="none" stroke="none"/><path fill="none" stroke="rgb(0,0,0)" paint-order="fill" d="M 252.55455017089844 167.70289611816406 L 262.04547119140625 167.70289611816406" stroke-opacity="1" stroke-linejoin="bevel" stroke-miterlimit="10" stroke-dasharray="" clip-path="url(#BFbRzZvOZUWb)"/><path fill="none" stroke="none"/><path fill="none" stroke="rgb(0,0,0)" paint-order="fill" d="M 494.5727233886719 145.0800018310547 L 494.5727233886719 129.5301971435547" stroke-opacity="1" stroke-linejoin="bevel" stroke-miterlimit="10" stroke-dasharray="" clip-path="url(#dxTdvOKiKxDy)"/><path fill="none" stroke="none"/><path fill="none" stroke="rgb(0,0,0)" paint-order="fill" d="M 489.8272705078125 129.5301971435547 L 499.31817626953125 129.5301971435547" stroke-opacity="1" stroke-linejoin="bevel" stroke-miterlimit="10" stroke-dasharray="" clip-path="url(#qweiGyxTJozx)"/><path fill="none" stroke="none"/><path fill="none" stroke="rgb(0,0,0)" paint-order="fill" d="M 489.8272705078125 145.0800018310547 L 499.31817626953125 145.0800018310547" stroke-opacity="1" stroke-linejoin="bevel" stroke-miterlimit="10" stroke-dasharray="" clip-path="url(#RJTXiSCFLbmU)"/><path fill="none" stroke="rgb(0,0,0)" paint-order="fill" d="M 48.5 376.5 L 570.5 376.5" stroke-opacity="1" stroke-linejoin="bevel" stroke-miterlimit="10" stroke-dasharray=""/><path fill="none" stroke="rgb(0,0,0)" paint-order="fill" d="M 190.5 382.5 L 190.5 374.5 M 428.5 382.5 L 428.5 374.5" stroke-opacity="1" stroke-linejoin="bevel" stroke-miterlimit="10" stroke-dasharray=""/><path fill="none" stroke="rgb(0,0,0)" paint-order="fill" d="" stroke-opacity="1" stroke-linejoin="bevel" stroke-miterlimit="10" stroke-dasharray=""/><text fill="rgb(68,68,68)" stroke="none" font-family="helvetica" font-size="11px" font-style="normal" font-weight="normal" text-decoration="normal" x="0" y="0" text-anchor="middle" dominant-baseline="hanging" transform="matrix(1, 0, 0, 1, 190.5, 387.5)" fill-opacity="1">liquid</text><text fill="rgb(68,68,68)" stroke="none" font-family="helvetica" font-size="11px" font-style="normal" font-weight="normal" text-decoration="normal" x="0" y="0" text-anchor="middle" dominant-baseline="hanging" transform="matrix(1, 0, 0, 1, 428.5, 387.5)" fill-opacity="1">solid</text><path fill="none" stroke="rgb(0,0,0)" paint-order="fill" d="M 48.5 376.5 L 48.5 28.5" stroke-opacity="1" stroke-linejoin="bevel" stroke-miterlimit="10" stroke-dasharray=""/><path fill="none" stroke="rgb(0,0,0)" paint-order="fill" d="M 42.5 376.5 L 50.5 376.5 M 42.5 330.5 L 50.5 330.5 M 42.5 283.5 L 50.5 283.5 M 42.5 237.5 L 50.5 237.5 M 42.5 190.5 L 50.5 190.5 M 42.5 144.5 L 50.5 144.5 M 42.5 98.5 L 50.5 98.5 M 42.5 51.5 L 50.5 51.5" stroke-opacity="1" stroke-linejoin="bevel" stroke-miterlimit="10" stroke-dasharray=""/><path fill="none" stroke="rgb(0,0,0)" paint-order="fill" d="M 44.5 376.5 L 48.5 376.5 M 44.5 367.5 L 48.5 367.5 M 44.5 357.5 L 48.5 357.5 M 44.5 348.5 L 48.5 348.5 M 44.5 339.5 L 48.5 339.5 M 44.5 330.5 L 48.5 330.5 M 44.5 320.5 L 48.5 320.5 M 44.5 311.5 L 48.5 311.5 M 44.5 302.5 L 48.5 302.5 M 44.5 292.5 L 48.5 292.5 M 44.5 283.5 L 48.5 283.5 M 44.5 274.5 L 48.5 274.5 M 44.5 265.5 L 48.5 265.5 M 44.5 255.5 L 48.5 255.5 M 44.5 246.5 L 48.5 246.5 M 44.5 237.5 L 48.5 237.5 M 44.5 228.5 L 48.5 228.5 M 44.5 218.5 L 48.5 218.5 M 44.5 209.5 L 48.5 209.5 M 44.5 200.5 L 48.5 200.5 M 44.5 190.5 L 48.5 190.5 M 44.5 181.5 L 48.5 181.5 M 44.5 172.5 L 48.5 172.5 M 44.5 163.5 L 48.5 163.5 M 44.5 153.5 L 48.5 153.5 M 44.5 144.5 L 48.5 144.5 M 44.5 135.5 L 48.5 135.5 M 44.5 125.5 L 48.5 125.5 M 44.5 116.5 L 48.5 116.5 M 44.5 107.5 L 48.5 107.5 M 44.5 98.5 L 48.5 98.5 M 44.5 88.5 L 48.5 88.5 M 44.5 79.5 L 48.5 79.5 M 44.5 70.5 L 48.5 70.5 M 44.5 60.5 L 48.5 60.5 M 44.5 51.5 L 48.5 51.5 M 44.5 42.5 L 48.5 42.5 M 44.5 33.5 L 48.5 33.5" stroke-opacity="1" stroke-linejoin="bevel" stroke-miterlimit="10" stroke-dasharray=""/><text fill="rgb(68,68,68)" stroke="none" font-family="helvetica" font-size="11px" font-style="normal" font-weight="normal" text-decoration="normal" x="0" y="0" text-anchor="end" dominant-baseline="central" transform="matrix(1, 0, 0, 1, 37.5, 376.5)" fill-opacity="1">0</text><text fill="rgb(68,68,68)" stroke="none" font-family="helvetica" font-size="11px" font-style="normal" font-weight="normal" text-decoration="normal" x="0" y="0" text-anchor="end" dominant-baseline="central" transform="matrix(1, 0, 0, 1, 37.5, 330.5)" fill-opacity="1">0.2</text><text fill="rgb(68,68,68)" stroke="none" font-family="helvetica" font-size="11px" font-style="normal" font-weight="normal" text-decoration="normal" x="0" y="0" text-anchor="end" dominant-baseline="central" transform="matrix(1, 0, 0, 1, 37.5, 283.5)" fill-opacity="1">0.4</text><text fill="rgb(68,68,68)" stroke="none" font-family="helvetica" font-size="11px" font-style="normal" font-weight="normal" text-decoration="normal" x="0" y="0" text-anchor="end" dominant-baseline="central" transform="matrix(1, 0, 0, 1, 37.5, 237.5)" fill-opacity="1">0.6</text><text fill="rgb(68,68,68)" stroke="none" font-family="helvetica" font-size="11px" font-style="normal" font-weight="normal" text-decoration="normal" x="0" y="0" text-anchor="end" dominant-baseline="central" transform="matrix(1, 0, 0, 1, 37.5, 190.5)" fill-opacity="1">0.8</text><text fill="rgb(68,68,68)" stroke="none" font-family="helvetica" font-size="11px" font-style="normal" font-weight="normal" text-decoration="normal" x="0" y="0" text-anchor="end" dominant-baseline="central" transform="matrix(1, 0, 0, 1, 37.5, 144.5)" fill-opacity="1">1</text><text fill="rgb(68,68,68)" stroke="none" font-family="helvetica" font-size="11px" font-style="normal" font-weight="normal" text-decoration="normal" x="0" y="0" text-anchor="end" dominant-baseline="central" transform="matrix(1, 0, 0, 1, 37.5, 98.5)" fill-opacity="1">1.2</text><text fill="rgb(68,68,68)" stroke="none" font-family="helvetica" font-size="11px" font-style="normal" font-weight="normal" text-decoration="normal" x="0" y="0" text-anchor="end" dominant-baseline="central" transform="matrix(1, 0, 0, 1, 37.5, 51.5)" fill-opacity="1">1.4</text><text fill="rgb(68,68,68)" stroke="none" font-family="helvetica" font-size="13px" font-style="italic" font-weight="normal" text-decoration="normal" x="0" y="0" text-anchor="middle" dominant-baseline="alphabetic" transform="matrix(6.123233995736766e-17, -1, 1, 6.123233995736766e-17, 15.5, 202.5)" fill-opacity="1">speed (µm/s)</text><path fill="rgb(255,255,255)" stroke="rgb(229,229,229)" paint-order="fill" d="M 58.5 38.5 L 538.158203125 38.5 L 538.158203125 78.5 L 58.5 78.5 L 58.5 38.5" fill-opacity="0.95" clip-path="url(#ZglxWuzpWxQC)" stroke-opacity="0.5" stroke-linejoin="bevel" stroke-miterlimit="10" stroke-dasharray=""/><text fill="rgb(68,68,68)" stroke="none" font-family="helvetica" font-size="13px" font-style="normal" font-weight="normal" text-decoration="normal" x="93" y="58" text-anchor="start" dominant-baseline="central" transform="matrix(1, 0, 0, 1, 0.5, 0.5)" fill-opacity="1">fliC-</text><path fill="rgb(255,228,196)" stroke="none" paint-order="stroke" d="M 70.5 50.5 L 86.5 50.5 L 86.5 66.5 L 70.5 66.5 L 70.5 50.5" fill-opacity="1" clip-path="url(#ZglxWuzpWxQC)"/><path fill="none" stroke="rgb(255,228,196)" paint-order="fill" d="M 70.5 50.5 L 86.5 50.5 L 86.5 66.5 L 70.5 66.5 L 70.5 50.5" stroke-opacity="1" stroke-linejoin="bevel" stroke-miterlimit="10" stroke-dasharray="" clip-path="url(#ZglxWuzpWxQC)"/><text fill="rgb(68,68,68)" stroke="none" font-family="helvetica" font-size="13px" font-style="normal" font-weight="normal" text-decoration="normal" x="144.10546875" y="58" text-anchor="start" dominant-baseline="central" transform="matrix(1, 0, 0, 1, 0.5, 0.5)" fill-opacity="1">pilTU-fliC-</text><path fill="rgb(169,169,169)" stroke="none" paint-order="stroke" d="M 121.60546875 50.5 L 137.60546875 50.5 L 137.60546875 66.5 L 121.60546875 66.5 L 121.60546875 50.5" fill-opacity="1" clip-path="url(#ZglxWuzpWxQC)"/><path fill="none" stroke="rgb(169,169,169)" paint-order="fill" d="M 121.60546875 50.5 L 137.60546875 50.5 L 137.60546875 66.5 L 121.60546875 66.5 L 121.60546875 50.5" stroke-opacity="1" stroke-linejoin="bevel" stroke-miterlimit="10" stroke-dasharray="" clip-path="url(#ZglxWuzpWxQC)"/><text fill="rgb(68,68,68)" stroke="none" font-family="helvetica" font-size="13px" font-style="normal" font-weight="normal" text-decoration="normal" x="229.87548828125" y="58" text-anchor="start" dominant-baseline="central" transform="matrix(1, 0, 0, 1, 0.5, 0.5)" fill-opacity="1">pilG-fliC-</text><path fill="rgb(0,255,0)" stroke="none" paint-order="stroke" d="M 207.37548828125 50.5 L 223.37548828125 50.5 L 223.37548828125 66.5 L 207.37548828125 66.5 L 207.37548828125 50.5" fill-opacity="1" clip-path="url(#ZglxWuzpWxQC)"/><path fill="none" stroke="rgb(0,255,0)" paint-order="fill" d="M 207.37548828125 50.5 L 223.37548828125 50.5 L 223.37548828125 66.5 L 207.37548828125 66.5 L 207.37548828125 50.5" stroke-opacity="1" stroke-linejoin="bevel" stroke-miterlimit="10" stroke-dasharray="" clip-path="url(#ZglxWuzpWxQC)"/><text fill="rgb(68,68,68)" stroke="none" font-family="helvetica" font-size="13px" font-style="normal" font-weight="normal" text-decoration="normal" x="308.42822265625" y="58" text-anchor="start" dominant-baseline="central" transform="matrix(1, 0, 0, 1, 0.5, 0.5)" fill-opacity="1">cyaB-fliC-</text><path fill="rgb(65,105,225)" stroke="none" paint-order="stroke" d="M 285.92822265625 50.5 L 301.92822265625 50.5 L 301.92822265625 66.5 L 285.92822265625 66.5 L 285.92822265625 50.5" fill-opacity="1" clip-path="url(#ZglxWuzpWxQC)"/><path fill="none" stroke="rgb(65,105,225)" paint-order="fill" d="M 285.92822265625 50.5 L 301.92822265625 50.5 L 301.92822265625 66.5 L 285.92822265625 66.5 L 285.92822265625 50.5" stroke-opacity="1" stroke-linejoin="bevel" stroke-miterlimit="10" stroke-dasharray="" clip-path="url(#ZglxWuzpWxQC)"/><text fill="rgb(68,68,68)" stroke="none" font-family="helvetica" font-size="13px" font-style="normal" font-weight="normal" text-decoration="normal" x="392.763671875" y="58" text-anchor="start" dominant-baseline="central" transform="matrix(1, 0, 0, 1, 0.5, 0.5)" fill-opacity="1">pilH-fliC-</text><path fill="rgb(255,0,0)" stroke="none" paint-order="stroke" d="M 370.263671875 50.5 L 386.263671875 50.5 L 386.263671875 66.5 L 370.263671875 66.5 L 370.263671875 50.5" fill-opacity="1" clip-path="url(#ZglxWuzpWxQC)"/><path fill="none" stroke="rgb(255,0,0)" paint-order="fill" d="M 370.263671875 50.5 L 386.263671875 50.5 L 386.263671875 66.5 L 370.263671875 66.5 L 370.263671875 50.5" stroke-opacity="1" stroke-linejoin="bevel" stroke-miterlimit="10" stroke-dasharray="" clip-path="url(#ZglxWuzpWxQC)"/><text fill="rgb(68,68,68)" stroke="none" font-family="helvetica" font-size="13px" font-style="normal" font-weight="normal" text-decoration="normal" x="470.5927734375" y="58" text-anchor="start" dominant-baseline="central" transform="matrix(1, 0, 0, 1, 0.5, 0.5)" fill-opacity="1">cpdA-fliC-</text><path fill="rgb(0,128,0)" stroke="none" paint-order="stroke" d="M 448.0927734375 50.5 L 464.0927734375 50.5 L 464.0927734375 66.5 L 448.0927734375 66.5 L 448.0927734375 50.5" fill-opacity="1" clip-path="url(#ZglxWuzpWxQC)"/><path fill="none" stroke="rgb(0,128,0)" paint-order="fill" d="M 448.0927734375 50.5 L 464.0927734375 50.5 L 464.0927734375 66.5 L 448.0927734375 66.5 L 448.0927734375 50.5" stroke-opacity="1" stroke-linejoin="bevel" stroke-miterlimit="10" stroke-dasharray="" clip-path="url(#ZglxWuzpWxQC)"/><path fill="none" stroke="none"/><text fill="rgb(68,68,68)" stroke="none" font-family="helvetica" font-size="13px" font-style="normal" font-weight="bold" text-decoration="normal" x="0" y="0" text-anchor="start" dominant-baseline="text-after-edge" transform="matrix(1, 0, 0, 1, 48.5, 23.5)" fill-opacity="1">Track mean speed on liquid vs. solid grown cells</text></svg>