<svg version="1.1" xmlns="http://www.w3.org/2000/svg" xmlns:xlink="http://www.w3.org/1999/xlink" width="600" height="600" style="width: 600px; height: 600px;"><defs><clipPath id="bhUfUoXvQgpv"><path fill="none" stroke="none" d=" M 48 29 L 570 29 L 570 555 L 48 555 L 48 29 Z"/></clipPath><clipPath id="sIXWzZiVVHmw"><path fill="none" stroke="none" d=" M 48 29 L 570 29 L 570 555 L 48 555 L 48 29 Z"/></clipPath><clipPath id="wgdPgnXHsBJZ"><path fill="none" stroke="none" d=" M 48 29 L 570 29 L 570 555 L 48 555 L 48 29 Z"/></clipPath><clipPath id="EbnmlGmGMlCB"><path fill="none" stroke="none" d=" M 48 29 L 570 29 L 570 555 L 48 555 L 48 29 Z"/></clipPath><clipPath id="NwqrtFktUoUl"><path fill="none" stroke="none" d=" M 48 29 L 570 29 L 570 555 L 48 555 L 48 29 Z"/></clipPath><clipPath id="vBKkGdiXUfno"><path fill="none" stroke="none" d=" M 48 29 L 570 29 L 570 555 L 48 555 L 48 29 Z"/></clipPath><clipPath id="zXSmTcliXrPy"><path fill="none" stroke="none" d=" M 48 29 L 570 29 L 570 555 L 48 555 L 48 29 Z"/></clipPath><clipPath id="viZPdmHTcRUB"><path fill="none" stroke="none" d=" M 48 29 L 570 29 L 570 555 L 48 555 L 48 29 Z"/></clipPath><clipPath id="yyCbGrACDhrt"><path fill="none" stroke="none" d=" M 48 29 L 570 29 L 570 555 L 48 555 L 48 29 Z"/></clipPath><clipPath id="EwfgCLfxSgri"><path fill="none" stroke="none" d=" M 48 29 L 570 29 L 570 555 L 48 555 L 48 29 Z"/></clipPath><clipPath id="FOEhRQULQyCi"><path fill="none" stroke="none" d=" M 48 29 L 570 29 L 570 555 L 48 555 L 48 29 Z"/></clipPath><clipPath id="esilOuxBsRSF"><path fill="none" stroke="none" d=" M 48 29 L 570 29 L 570 555 L 48 555 L 48 29 Z"/></clipPath><clipPath id="FRzTaHpIyaal"><path fill="none" stroke="none" d=" M 48 29 L 570 29 L 570 555 L 48 555 L 48 29 Z"/></clipPath><clipPath id="ASuGpmSfcrDI"><path fill="none" stroke="none" d=" M 48 29 L 570 29 L 570 555 L 48 555 L 48 29 Z"/></clipPath><clipPath id="GurDVTeNgqdB"><path fill="none" stroke="none" d=" M 48 29 L 570 29 L 570 555 L 48 555 L 48 29 Z"/></clipPath><clipPath id="eiLxLomLBVPh"><path fill="none" stroke="none" d=" M 48 29 L 570 29 L 570 555 L 48 555 L 48 29 Z"/></clipPath><clipPath id="zuoNBSbAFvDK"><path fill="none" stroke="none" d=" M 48 29 L 570 29 L 570 555 L 48 555 L 48 29 Z"/></clipPath><clipPath id="SUDscnTlSvQL"><path fill="none" stroke="none" d=" M 48 29 L 570 29 L 570 555 L 48 555 L 48 29 Z"/></clipPath><clipPath id="UZRAZWxpzSRV"><path fill="none" stroke="none" d=" M 48 29 L 570 29 L 570 555 L 48 555 L 48 29 Z"/></clipPath><clipPath id="iCOgGbFfofOo"><path fill="none" stroke="none" d=" M 48 29 L 570 29 L 570 555 L 48 555 L 48 29 Z"/></clipPath><clipPath id="VrPNyEuGCugg"><path fill="none" stroke="none" d=" M 48 29 L 570 29 L 570 555 L 48 555 L 48 29 Z"/></clipPath><clipPath id="cucoWuQFZPll"><path fill="none" stroke="none" d=" M 48 29 L 570 29 L 570 555 L 48 555 L 48 29 Z"/></clipPath><clipPath id="NvJuLiplrCSb"><path fill="none" stroke="none" d=" M 48 29 L 570 29 L 570 555 L 48 555 L 48 29 Z"/></clipPath><clipPath id="ZiIdtotFCUGn"><path fill="none" stroke="none" d=" M 48 29 L 570 29 L 570 555 L 48 555 L 48 29 Z"/></clipPath><clipPath id="vLGTmTZkGklJ"><path fill="none" stroke="none" d=" M 48 29 L 570 29 L 570 555 L 48 555 L 48 29 Z"/></clipPath><clipPath id="OHoHKDDnLnVU"><path fill="none" stroke="none" d=" M 48 29 L 570 29 L 570 555 L 48 555 L 48 29 Z"/></clipPath><clipPath id="ZbTUyDgMuZWr"><path fill="none" stroke="none" d=" M 48 29 L 570 29 L 570 555 L 48 555 L 48 29 Z"/></clipPath><clipPath id="iBspGdNJoaey"><path fill="none" stroke="none" d=" M 48 29 L 570 29 L 570 555 L 48 555 L 48 29 Z"/></clipPath><clipPath id="HhwwNAMvIepJ"><path fill="none" stroke="none" d=" M 48 29 L 570 29 L 570 555 L 48 555 L 48 29 Z"/></clipPath><clipPath id="KabJyRQATlne"><path fill="none" stroke="none" d=" M 48 29 L 570 29 L 570 555 L 48 555 L 48 29 Z"/></clipPath><clipPath id="dsXSwnhDPiLZ"><path fill="none" stroke="none" d=" M 48 29 L 570 29 L 570 555 L 48 555 L 48 29 Z"/></clipPath><clipPath id="crbEgLeJSlKB"><path fill="none" stroke="none" d=" M 48 29 L 570 29 L 570 555 L 48 555 L 48 29 Z"/></clipPath><clipPath id="HbfqbJPKNTiM"><path fill="none" stroke="none" d=" M 48 29 L 570 29 L 570 555 L 48 555 L 48 29 Z"/></clipPath><clipPath id="KZtvCMtVrFUF"><path fill="none" stroke="none" d=" M 48 29 L 570 29 L 570 555 L 48 555 L 48 29 Z"/></clipPath><clipPath id="CCuFMucuOfoQ"><path fill="none" stroke="none" d=" M 48 29 L 570 29 L 570 555 L 48 555 L 48 29 Z"/></clipPath><clipPath id="eLHgeHIwMayF"><path fill="none" stroke="none" d=" M 48 29 L 570 29 L 570 555 L 48 555 L 48 29 Z"/></clipPath><clipPath id="DVqHySnJnmgO"><path fill="none" stroke="none" d=" M 48 29 L 570 29 L 570 555 L 48 555 L 48 29 Z"/></clipPath><clipPath id="iAsFoJLaHAse"><path fill="none" stroke="none" d=" M 48 29 L 570 29 L 570 555 L 48 555 L 48 29 Z"/></clipPath><clipPath id="GTmroHTBnzAU"><path fill="none" stroke="none" d=" M 48 29 L 570 29 L 570 555 L 48 555 L 48 29 Z"/></clipPath></defs><g><g transform="scale(1,1) translate(0.5,0.5)"><rect fill="#FFFFFF" stroke="none" x="0" y="0" width="600" height="600"/><rect fill="#ffffff" stroke="none" x="0" y="0" width="600" height="600"/><rect fill="#FFFFFF" stroke="none" x="48" y="29" width="522" height="526"/><rect fill="#ffffff" stroke="none" x="48" y="29" width="522" height="526"/><g><rect fill="none" stroke="#e5e5e5" x="48" y="29" width="522" height="526" stroke-linejoin="bevel" stroke-miterlimit="10"/></g><g clip-path="url(#bhUfUoXvQgpv)"><g/></g><g clip-path="url(#sIXWzZiVVHmw)"><g/></g><g clip-path="url(#wgdPgnXHsBJZ)"><g><g><path fill="none" stroke="none"/><path fill="none" stroke="black" paint-order="fill stroke markers" d=" M 71.72727272727275 488.14792085125424 L 71.72727272727275 480.31026096692756" stroke-linejoin="bevel" stroke-miterlimit="10" stroke-width="3" stroke-opacity="0.8"/></g></g></g><g clip-path="url(#EbnmlGmGMlCB)"><g><g><path fill="none" stroke="none"/><path fill="none" stroke="black" paint-order="fill stroke markers" d=" M 229.9090909090909 381.33271455955116 L 229.9090909090909 363.3363763495398" stroke-linejoin="bevel" stroke-miterlimit="10" stroke-width="3" stroke-opacity="0.8"/></g></g></g><g clip-path="url(#NwqrtFktUoUl)"><g><g><path fill="none" stroke="none"/><path fill="none" stroke="black" paint-order="fill stroke markers" d=" M 388.09090909090907 335.75433835032084 L 388.09090909090907 314.23475255877014" stroke-linejoin="bevel" stroke-miterlimit="10" stroke-width="3" stroke-opacity="0.8"/></g></g></g><g clip-path="url(#vBKkGdiXUfno)"><g><g><path fill="none" stroke="none"/><path fill="none" stroke="black" paint-order="fill stroke markers" d=" M 546.2727272727273 213.50587647390512 L 546.2727272727273 202.17412352609495" stroke-linejoin="bevel" stroke-miterlimit="10" stroke-width="3" stroke-opacity="0.8"/></g></g></g><g clip-path="url(#zXSmTcliXrPy)"><g><g><path fill="none" stroke="none"/><path fill="none" stroke="#1f77b4" paint-order="fill stroke markers" d=" M 71.72727272727275 484.2290909090909 L 229.9090909090909 372.3345454545455 L 388.09090909090907 324.99454545454546 L 546.2727272727273 207.84000000000003" stroke-linejoin="bevel" stroke-miterlimit="10" stroke-width="3" stroke-opacity="0.5"/></g></g></g><g clip-path="url(#viZPdmHTcRUB)"><g><g><path fill="none" stroke="none"/><path fill="white" stroke="#1f77b4" paint-order="fill stroke markers" d=" M 76.72727272727275 484.2290909090909 A 5 5 0 1 1 76.72727022727295 484.22409090992426" fill-opacity="0.5" stroke-linejoin="bevel" stroke-miterlimit="10" stroke-width="2" stroke-opacity="0.5"/><path fill="white" stroke="#1f77b4" paint-order="fill stroke markers" d=" M 234.9090909090909 372.3345454545455 A 5 5 0 1 1 234.9090884090911 372.3295454553788" fill-opacity="0.5" stroke-linejoin="bevel" stroke-miterlimit="10" stroke-width="2" stroke-opacity="0.5"/><path fill="white" stroke="#1f77b4" paint-order="fill stroke markers" d=" M 393.09090909090907 324.99454545454546 A 5 5 0 1 1 393.0909065909093 324.9895454553788" fill-opacity="0.5" stroke-linejoin="bevel" stroke-miterlimit="10" stroke-width="2" stroke-opacity="0.5"/><path fill="white" stroke="#1f77b4" paint-order="fill stroke markers" d=" M 551.2727272727273 207.84000000000003 A 5 5 0 1 1 551.2727247727274 207.83500000083336" fill-opacity="0.5" stroke-linejoin="bevel" stroke-miterlimit="10" stroke-width="2" stroke-opacity="0.5"/></g></g></g><g clip-path="url(#yyCbGrACDhrt)"><g><g><path fill="none" stroke="none"/><path fill="none" stroke="black" paint-order="fill stroke markers" d=" M 71.72727272727275 528.0782517213041 L 71.72727272727275 517.8453846423323" stroke-linejoin="bevel" stroke-miterlimit="10" stroke-width="3" stroke-opacity="0.8"/></g></g></g><g clip-path="url(#EwfgCLfxSgri)"><g><g><path fill="none" stroke="none"/><path fill="none" stroke="black" paint-order="fill stroke markers" d=" M 229.9090909090909 523.2056662292285 L 229.9090909090909 516.9797883162261" stroke-linejoin="bevel" stroke-miterlimit="10" stroke-width="3" stroke-opacity="0.8"/></g></g></g><g clip-path="url(#FOEhRQULQyCi)"><g><g><path fill="none" stroke="none"/><path fill="none" stroke="black" paint-order="fill stroke markers" d=" M 388.09090909090907 527.9023122529975 L 388.09090909090907 522.8031422924571" stroke-linejoin="bevel" stroke-miterlimit="10" stroke-width="3" stroke-opacity="0.8"/></g></g></g><g clip-path="url(#esilOuxBsRSF)"><g><g><path fill="none" stroke="none"/><path fill="none" stroke="black" paint-order="fill stroke markers" d=" M 546.2727272727273 546.5923693135686 L 546.2727272727273 540.4549034137041" stroke-linejoin="bevel" stroke-miterlimit="10" stroke-width="3" stroke-opacity="0.8"/></g></g></g><g clip-path="url(#FRzTaHpIyaal)"><g><g><path fill="none" stroke="none"/><path fill="none" stroke="#ff7f0e" paint-order="fill stroke markers" d=" M 71.72727272727275 522.9618181818182 L 229.9090909090909 520.0927272727273 L 388.09090909090907 525.3527272727273 L 546.2727272727273 543.5236363636363" stroke-linejoin="bevel" stroke-miterlimit="10" stroke-width="3" stroke-opacity="0.5"/></g></g></g><g clip-path="url(#ASuGpmSfcrDI)"><g><g><path fill="none" stroke="none"/><path fill="white" stroke="#ff7f0e" paint-order="fill stroke markers" d=" M 76.72727272727275 522.9618181818182 A 5 5 0 1 1 76.72727022727295 522.9568181826515" fill-opacity="0.5" stroke-linejoin="bevel" stroke-miterlimit="10" stroke-width="2" stroke-opacity="0.5"/><path fill="white" stroke="#ff7f0e" paint-order="fill stroke markers" d=" M 234.9090909090909 520.0927272727273 A 5 5 0 1 1 234.9090884090911 520.0877272735606" fill-opacity="0.5" stroke-linejoin="bevel" stroke-miterlimit="10" stroke-width="2" stroke-opacity="0.5"/><path fill="white" stroke="#ff7f0e" paint-order="fill stroke markers" d=" M 393.09090909090907 525.3527272727273 A 5 5 0 1 1 393.0909065909093 525.3477272735606" fill-opacity="0.5" stroke-linejoin="bevel" stroke-miterlimit="10" stroke-width="2" stroke-opacity="0.5"/><path fill="white" stroke="#ff7f0e" paint-order="fill stroke markers" d=" M 551.2727272727273 543.5236363636363 A 5 5 0 1 1 551.2727247727274 543.5186363644697" fill-opacity="0.5" stroke-linejoin="bevel" stroke-miterlimit="10" stroke-width="2" stroke-opacity="0.5"/></g></g></g><g clip-path="url(#GurDVTeNgqdB)"><g><g><path fill="none" stroke="none"/><path fill="none" stroke="black" paint-order="fill stroke markers" d=" M 71.72727272727275 531.4686019516363 L 71.72727272727275 525.9313980483637" stroke-linejoin="bevel" stroke-miterlimit="10" stroke-width="3" stroke-opacity="0.8"/></g></g></g><g clip-path="url(#eiLxLomLBVPh)"><g><g><path fill="none" stroke="none"/><path fill="none" stroke="black" paint-order="fill stroke markers" d=" M 229.9090909090909 529.7012208637472 L 229.9090909090909 526.7424154998891" stroke-linejoin="bevel" stroke-miterlimit="10" stroke-width="3" stroke-opacity="0.8"/></g></g></g><g clip-path="url(#zuoNBSbAFvDK)"><g><g><path fill="none" stroke="none"/><path fill="none" stroke="black" paint-order="fill stroke markers" d=" M 388.09090909090907 521.6654656786125 L 388.09090909090907 518.0418070486602" stroke-linejoin="bevel" stroke-miterlimit="10" stroke-width="3" stroke-opacity="0.8"/></g></g></g><g clip-path="url(#SUDscnTlSvQL)"><g><g><path fill="none" stroke="none"/><path fill="none" stroke="black" paint-order="fill stroke markers" d=" M 546.2727272727273 515.3237263012297 L 546.2727272727273 511.4726373351339" stroke-linejoin="bevel" stroke-miterlimit="10" stroke-width="3" stroke-opacity="0.8"/></g></g></g><g clip-path="url(#UZRAZWxpzSRV)"><g><g><path fill="none" stroke="none"/><path fill="none" stroke="#2ca02c" paint-order="fill stroke markers" d=" M 71.72727272727275 528.7 L 229.9090909090909 528.2218181818182 L 388.09090909090907 519.8536363636364 L 546.2727272727273 513.3981818181818" stroke-linejoin="bevel" stroke-miterlimit="10" stroke-width="3" stroke-opacity="0.5"/></g></g></g><g clip-path="url(#iCOgGbFfofOo)"><g><g><path fill="none" stroke="none"/><path fill="white" stroke="#2ca02c" paint-order="fill stroke markers" d=" M 76.72727272727275 528.7 A 5 5 0 1 1 76.72727022727295 528.6950000008334" fill-opacity="0.5" stroke-linejoin="bevel" stroke-miterlimit="10" stroke-width="2" stroke-opacity="0.5"/><path fill="white" stroke="#2ca02c" paint-order="fill stroke markers" d=" M 234.9090909090909 528.2218181818182 A 5 5 0 1 1 234.9090884090911 528.2168181826515" fill-opacity="0.5" stroke-linejoin="bevel" stroke-miterlimit="10" stroke-width="2" stroke-opacity="0.5"/><path fill="white" stroke="#2ca02c" paint-order="fill stroke markers" d=" M 393.09090909090907 519.8536363636364 A 5 5 0 1 1 393.0909065909093 519.8486363644697" fill-opacity="0.5" stroke-linejoin="bevel" stroke-miterlimit="10" stroke-width="2" stroke-opacity="0.5"/><path fill="white" stroke="#2ca02c" paint-order="fill stroke markers" d=" M 551.2727272727273 513.3981818181818 A 5 5 0 1 1 551.2727247727274 513.3931818190151" fill-opacity="0.5" stroke-linejoin="bevel" stroke-miterlimit="10" stroke-width="2" stroke-opacity="0.5"/></g></g></g><g clip-path="url(#VrPNyEuGCugg)"><g><g><path fill="none" stroke="none"/><path fill="none" stroke="black" paint-order="fill stroke markers" d=" M 71.72727272727275 494.5911160331217 L 71.72727272727275 470.5197930577874" stroke-linejoin="bevel" stroke-miterlimit="10" stroke-width="3" stroke-opacity="0.8"/></g></g></g><g clip-path="url(#cucoWuQFZPll)"><g><g><path fill="none" stroke="none"/><path fill="none" stroke="black" paint-order="fill stroke markers" d=" M 229.9090909090909 521.8297426903282 L 229.9090909090909 512.6175300369446" stroke-linejoin="bevel" stroke-miterlimit="10" stroke-width="3" stroke-opacity="0.8"/></g></g></g><g clip-path="url(#NvJuLiplrCSb)"><g><g><path fill="none" stroke="none"/><path fill="none" stroke="black" paint-order="fill stroke markers" d=" M 388.09090909090907 468.70963162840144 L 388.09090909090907 451.93036837159855" stroke-linejoin="bevel" stroke-miterlimit="10" stroke-width="3" stroke-opacity="0.8"/></g></g></g><g clip-path="url(#ZiIdtotFCUGn)"><g><g><path fill="none" stroke="none"/><path fill="none" stroke="black" paint-order="fill stroke markers" d=" M 546.2727272727273 455.19768519181986 L 546.2727272727273 443.44595117181655" stroke-linejoin="bevel" stroke-miterlimit="10" stroke-width="3" stroke-opacity="0.8"/></g></g></g><g clip-path="url(#vLGTmTZkGklJ)"><g><g><path fill="none" stroke="none"/><path fill="none" stroke="#d62728" paint-order="fill stroke markers" d=" M 71.72727272727275 482.55545454545455 L 229.9090909090909 517.2236363636364 L 388.09090909090907 460.32 L 546.2727272727273 449.3218181818182" stroke-linejoin="bevel" stroke-miterlimit="10" stroke-width="3" stroke-opacity="0.5"/></g></g></g><g clip-path="url(#OHoHKDDnLnVU)"><g><g><path fill="none" stroke="none"/><path fill="white" stroke="#d62728" paint-order="fill stroke markers" d=" M 76.72727272727275 482.55545454545455 A 5 5 0 1 1 76.72727022727295 482.5504545462879" fill-opacity="0.5" stroke-linejoin="bevel" stroke-miterlimit="10" stroke-width="2" stroke-opacity="0.5"/><path fill="white" stroke="#d62728" paint-order="fill stroke markers" d=" M 234.9090909090909 517.2236363636364 A 5 5 0 1 1 234.9090884090911 517.2186363644697" fill-opacity="0.5" stroke-linejoin="bevel" stroke-miterlimit="10" stroke-width="2" stroke-opacity="0.5"/><path fill="white" stroke="#d62728" paint-order="fill stroke markers" d=" M 393.09090909090907 460.32 A 5 5 0 1 1 393.0909065909093 460.3150000008333" fill-opacity="0.5" stroke-linejoin="bevel" stroke-miterlimit="10" stroke-width="2" stroke-opacity="0.5"/><path fill="white" stroke="#d62728" paint-order="fill stroke markers" d=" M 551.2727272727273 449.3218181818182 A 5 5 0 1 1 551.2727247727274 449.3168181826515" fill-opacity="0.5" stroke-linejoin="bevel" stroke-miterlimit="10" stroke-width="2" stroke-opacity="0.5"/></g></g></g><g clip-path="url(#ZbTUyDgMuZWr)"><g><g><path fill="none" stroke="none"/><path fill="none" stroke="black" paint-order="fill stroke markers" d=" M 71.72727272727275 318.06407686455987 L 71.72727272727275 307.0595594990765" stroke-linejoin="bevel" stroke-miterlimit="10" stroke-width="3" stroke-opacity="0.8"/></g></g></g><g clip-path="url(#iBspGdNJoaey)"><g><g><path fill="none" stroke="none"/><path fill="none" stroke="black" paint-order="fill stroke markers" d=" M 229.9090909090909 196.8399130590011 L 229.9090909090909 184.41099603190804" stroke-linejoin="bevel" stroke-miterlimit="10" stroke-width="3" stroke-opacity="0.8"/></g></g></g><g clip-path="url(#HhwwNAMvIepJ)"><g><g><path fill="none" stroke="none"/><path fill="none" stroke="black" paint-order="fill stroke markers" d=" M 388.09090909090907 245.47918864036626 L 388.09090909090907 236.18990226872472" stroke-linejoin="bevel" stroke-miterlimit="10" stroke-width="3" stroke-opacity="0.8"/></g></g></g><g clip-path="url(#KabJyRQATlne)"><g><g><path fill="none" stroke="none"/><path fill="none" stroke="black" paint-order="fill stroke markers" d=" M 546.2727272727273 229.94290845897217 L 546.2727272727273 223.99163699557346" stroke-linejoin="bevel" stroke-miterlimit="10" stroke-width="3" stroke-opacity="0.8"/></g></g></g><g clip-path="url(#dsXSwnhDPiLZ)"><g><g><path fill="none" stroke="none"/><path fill="none" stroke="#9467bd" paint-order="fill stroke markers" d=" M 71.72727272727275 312.56181818181824 L 229.9090909090909 190.6254545454546 L 388.09090909090907 240.8345454545455 L 546.2727272727273 226.9672727272728" stroke-linejoin="bevel" stroke-miterlimit="10" stroke-width="3" stroke-opacity="0.5"/></g></g></g><g clip-path="url(#crbEgLeJSlKB)"><g><g><path fill="none" stroke="none"/><path fill="white" stroke="#9467bd" paint-order="fill stroke markers" d=" M 76.72727272727275 312.56181818181824 A 5 5 0 1 1 76.72727022727295 312.55681818265157" fill-opacity="0.5" stroke-linejoin="bevel" stroke-miterlimit="10" stroke-width="2" stroke-opacity="0.5"/><path fill="white" stroke="#9467bd" paint-order="fill stroke markers" d=" M 234.9090909090909 190.6254545454546 A 5 5 0 1 1 234.9090884090911 190.62045454628793" fill-opacity="0.5" stroke-linejoin="bevel" stroke-miterlimit="10" stroke-width="2" stroke-opacity="0.5"/><path fill="white" stroke="#9467bd" paint-order="fill stroke markers" d=" M 393.09090909090907 240.8345454545455 A 5 5 0 1 1 393.0909065909093 240.82954545537882" fill-opacity="0.5" stroke-linejoin="bevel" stroke-miterlimit="10" stroke-width="2" stroke-opacity="0.5"/><path fill="white" stroke="#9467bd" paint-order="fill stroke markers" d=" M 551.2727272727273 226.9672727272728 A 5 5 0 1 1 551.2727247727274 226.96227272810614" fill-opacity="0.5" stroke-linejoin="bevel" stroke-miterlimit="10" stroke-width="2" stroke-opacity="0.5"/></g></g></g><g clip-path="url(#HbfqbJPKNTiM)"><g><g><path fill="none" stroke="none"/><path fill="none" stroke="black" paint-order="fill stroke markers" d=" M 71.72727272727275 121.02085041973424 L 71.72727272727275 111.03733139844763" stroke-linejoin="bevel" stroke-miterlimit="10" stroke-width="3" stroke-opacity="0.8"/></g></g></g><g clip-path="url(#KZtvCMtVrFUF)"><g><g><path fill="none" stroke="none"/><path fill="none" stroke="black" paint-order="fill stroke markers" d=" M 229.9090909090909 146.631260684886 L 229.9090909090909 88.29601204238679" stroke-linejoin="bevel" stroke-miterlimit="10" stroke-width="3" stroke-opacity="0.8"/></g></g></g><g clip-path="url(#CCuFMucuOfoQ)"><g><g><path fill="none" stroke="none"/><path fill="none" stroke="black" paint-order="fill stroke markers" d=" M 388.09090909090907 120.09259419317175 L 388.09090909090907 73.71104217046474" stroke-linejoin="bevel" stroke-miterlimit="10" stroke-width="3" stroke-opacity="0.8"/></g></g></g><g clip-path="url(#eLHgeHIwMayF)"><g><g><path fill="none" stroke="none"/><path fill="none" stroke="black" paint-order="fill stroke markers" d=" M 546.2727272727273 71.1732708405566 L 546.2727272727273 48.99036552307996" stroke-linejoin="bevel" stroke-miterlimit="10" stroke-width="3" stroke-opacity="0.8"/></g></g></g><g clip-path="url(#DVqHySnJnmgO)"><g><g><path fill="none" stroke="none"/><path fill="none" stroke="#8c564b" paint-order="fill stroke markers" d=" M 71.72727272727275 116.02909090909094 L 229.9090909090909 117.4636363636364 L 388.09090909090907 96.90181818181827 L 546.2727272727273 60.08181818181828" stroke-linejoin="bevel" stroke-miterlimit="10" stroke-width="3" stroke-opacity="0.5"/></g></g></g><g clip-path="url(#iAsFoJLaHAse)"><g><g><path fill="none" stroke="none"/><path fill="white" stroke="#8c564b" paint-order="fill stroke markers" d=" M 76.72727272727275 116.02909090909094 A 5 5 0 1 1 76.72727022727295 116.02409090992427" fill-opacity="0.5" stroke-linejoin="bevel" stroke-miterlimit="10" stroke-width="2" stroke-opacity="0.5"/><path fill="white" stroke="#8c564b" paint-order="fill stroke markers" d=" M 234.9090909090909 117.4636363636364 A 5 5 0 1 1 234.9090884090911 117.45863636446973" fill-opacity="0.5" stroke-linejoin="bevel" stroke-miterlimit="10" stroke-width="2" stroke-opacity="0.5"/><path fill="white" stroke="#8c564b" paint-order="fill stroke markers" d=" M 393.09090909090907 96.90181818181827 A 5 5 0 1 1 393.0909065909093 96.8968181826516" fill-opacity="0.5" stroke-linejoin="bevel" stroke-miterlimit="10" stroke-width="2" stroke-opacity="0.5"/><path fill="white" stroke="#8c564b" paint-order="fill stroke markers" d=" M 551.2727272727273 60.08181818181828 A 5 5 0 1 1 551.2727247727274 60.07681818265161" fill-opacity="0.5" stroke-linejoin="bevel" stroke-miterlimit="10" stroke-width="2" stroke-opacity="0.5"/></g></g></g><g><g fill="#444444"><path fill="" stroke="none" d=""/><g transform="translate(48,24)"><path fill="none" stroke="none"/><text fill="" stroke="none" font-family="helvetica" font-size="10pt" font-style="normal" font-weight="bold" text-decoration="normal" x="0" y="0" text-anchor="start" dominant-baseline="text-after-edge">Median tracks speed (bootstrap median, data sem)</text></g></g></g><g/><g><g fill="#444444"><path fill="none" stroke="black" paint-order="fill stroke markers" d=" M 48 555 L 570 555" stroke-linejoin="bevel" stroke-miterlimit="10"/><path fill="none" stroke="black" paint-order="fill stroke markers" d=" M 72 561 L 72 553" stroke-linejoin="bevel" stroke-miterlimit="10"/><path fill="none" stroke="black" paint-order="fill stroke markers" d=" M 230 561 L 230 553" stroke-linejoin="bevel" stroke-miterlimit="10"/><path fill="none" stroke="black" paint-order="fill stroke markers" d=" M 388 561 L 388 553" stroke-linejoin="bevel" stroke-miterlimit="10"/><path fill="" stroke="black" paint-order="fill stroke markers" d=" M 546 561 L 546 553" stroke-linejoin="bevel" stroke-miterlimit="10"/><g transform="translate(72,566) rotate(0,0,0)"><text fill="" stroke="none" font-family="helvetica" font-size="8pt" font-style="normal" font-weight="normal" text-decoration="normal" x="0" y="0" text-anchor="middle" dominant-baseline="hanging">0</text><g transform="rotate(0,0,0) translate(-72,-566) translate(230,566) rotate(0,0,0)"><text fill="" stroke="none" font-family="helvetica" font-size="8pt" font-style="normal" font-weight="normal" text-decoration="normal" x="0" y="0" text-anchor="middle" dominant-baseline="hanging">1</text><g transform="rotate(0,0,0) translate(-230,-566) translate(388,566) rotate(0,0,0)"><text fill="" stroke="none" font-family="helvetica" font-size="8pt" font-style="normal" font-weight="normal" text-decoration="normal" x="0" y="0" text-anchor="middle" dominant-baseline="hanging">2</text><g transform="rotate(0,0,0) translate(-388,-566) translate(546,566) rotate(0,0,0)"><text fill="" stroke="none" font-family="helvetica" font-size="8pt" font-style="normal" font-weight="normal" text-decoration="normal" x="0" y="0" text-anchor="middle" dominant-baseline="hanging">3</text><g transform="rotate(0,0,0) translate(-546,-566) translate(309,584) rotate(0,0,0)"><text fill="" stroke="none" font-family="helvetica" font-size="10pt" font-style="italic" font-weight="normal" text-decoration="normal" x="0" y="0" text-anchor="middle" dominant-baseline="hanging">Time (h)</text><g transform="rotate(0,0,0) translate(-309,-584)"/></g></g></g></g></g></g></g><g><g fill="#444444"><path fill="none" stroke="black" paint-order="fill stroke markers" d=" M 48 555 L 48 29" stroke-linejoin="bevel" stroke-miterlimit="10"/><path fill="none" stroke="black" paint-order="fill stroke markers" d=" M 42 555 L 50 555" stroke-linejoin="bevel" stroke-miterlimit="10"/><path fill="none" stroke="black" paint-order="fill stroke markers" d=" M 42 459 L 50 459" stroke-linejoin="bevel" stroke-miterlimit="10"/><path fill="none" stroke="black" paint-order="fill stroke markers" d=" M 42 364 L 50 364" stroke-linejoin="bevel" stroke-miterlimit="10"/><path fill="none" stroke="black" paint-order="fill stroke markers" d=" M 42 268 L 50 268" stroke-linejoin="bevel" stroke-miterlimit="10"/><path fill="none" stroke="black" paint-order="fill stroke markers" d=" M 42 172 L 50 172" stroke-linejoin="bevel" stroke-miterlimit="10"/><path fill="" stroke="black" paint-order="fill stroke markers" d=" M 42 77 L 50 77" stroke-linejoin="bevel" stroke-miterlimit="10"/><g transform="translate(37,555) rotate(0,0,0)"><text fill="" stroke="none" font-family="helvetica" font-size="8pt" font-style="normal" font-weight="normal" text-decoration="normal" x="0" y="0" text-anchor="end" dominant-baseline="central">0</text><g transform="rotate(0,0,0) translate(-37,-555) translate(37,459) rotate(0,0,0)"><text fill="" stroke="none" font-family="helvetica" font-size="8pt" font-style="normal" font-weight="normal" text-decoration="normal" x="0" y="0" text-anchor="end" dominant-baseline="central">0.2</text><g transform="rotate(0,0,0) translate(-37,-459) translate(37,364) rotate(0,0,0)"><text fill="" stroke="none" font-family="helvetica" font-size="8pt" font-style="normal" font-weight="normal" text-decoration="normal" x="0" y="0" text-anchor="end" dominant-baseline="central">0.4</text><g transform="rotate(0,0,0) translate(-37,-364) translate(37,268) rotate(0,0,0)"><text fill="" stroke="none" font-family="helvetica" font-size="8pt" font-style="normal" font-weight="normal" text-decoration="normal" x="0" y="0" text-anchor="end" dominant-baseline="central">0.6</text><g transform="rotate(0,0,0) translate(-37,-268) translate(37,172) rotate(0,0,0)"><text fill="" stroke="none" font-family="helvetica" font-size="8pt" font-style="normal" font-weight="normal" text-decoration="normal" x="0" y="0" text-anchor="end" dominant-baseline="central">0.8</text><g transform="rotate(0,0,0) translate(-37,-172) translate(37,77) rotate(0,0,0)"><text fill="" stroke="none" font-family="helvetica" font-size="8pt" font-style="normal" font-weight="normal" text-decoration="normal" x="0" y="0" text-anchor="end" dominant-baseline="central">1</text><g transform="rotate(0,0,0) translate(-37,-77) translate(16,292) rotate(-90,0,0)"><text fill="" stroke="none" font-family="helvetica" font-size="10pt" font-style="italic" font-weight="normal" text-decoration="normal" x="0" y="0" text-anchor="middle" dominant-baseline="alphabetic">TRACK_MEAN_SPEED (µm/s)</text><g transform="rotate(90,0,0) translate(-16,-292)"/></g></g></g></g></g></g></g></g></g><g clip-path="url(#GTmroHTBnzAU)"><g/></g></g></g></svg>