<svg version="1.1" xmlns="http://www.w3.org/2000/svg" xmlns:xlink="http://www.w3.org/1999/xlink" width="600" height="600" style="width: 600px; height: 600px;"><defs><clipPath id="ULCWQyLExVDF"><path fill="none" stroke="none" d=" M 45 29 L 570 29 L 570 555 L 45 555 L 45 29 Z"/></clipPath><clipPath id="STdUloTXXdmh"><path fill="none" stroke="none" d=" M 45 29 L 570 29 L 570 555 L 45 555 L 45 29 Z"/></clipPath><clipPath id="SlPkpzULTrDL"><path fill="none" stroke="none" d=" M 45 29 L 570 29 L 570 555 L 45 555 L 45 29 Z"/></clipPath><clipPath id="FxeSmJDEKcqz"><path fill="none" stroke="none" d=" M 45 29 L 570 29 L 570 555 L 45 555 L 45 29 Z"/></clipPath><clipPath id="NOaBJJTWyUzD"><path fill="none" stroke="none" d=" M 45 29 L 570 29 L 570 555 L 45 555 L 45 29 Z"/></clipPath><clipPath id="gpuMTgbyufwK"><path fill="none" stroke="none" d=" M 45 29 L 570 29 L 570 555 L 45 555 L 45 29 Z"/></clipPath><clipPath id="RfWqKEqfsNUb"><path fill="none" stroke="none" d=" M 45 29 L 570 29 L 570 555 L 45 555 L 45 29 Z"/></clipPath><clipPath id="cAFQdKvWpmUI"><path fill="none" stroke="none" d=" M 45 29 L 570 29 L 570 555 L 45 555 L 45 29 Z"/></clipPath><clipPath id="OdsiXRuWHTgx"><path fill="none" stroke="none" d=" M 45 29 L 570 29 L 570 555 L 45 555 L 45 29 Z"/></clipPath><clipPath id="LFPeCGGaimXg"><path fill="none" stroke="none" d=" M 45 29 L 570 29 L 570 555 L 45 555 L 45 29 Z"/></clipPath><clipPath id="ztBNziyHseFf"><path fill="none" stroke="none" d=" M 45 29 L 570 29 L 570 555 L 45 555 L 45 29 Z"/></clipPath><clipPath id="HbvTVHcZyDhN"><path fill="none" stroke="none" d=" M 45 29 L 570 29 L 570 555 L 45 555 L 45 29 Z"/></clipPath><clipPath id="bVVfppAoqAHM"><path fill="none" stroke="none" d=" M 45 29 L 570 29 L 570 555 L 45 555 L 45 29 Z"/></clipPath><clipPath id="IfpJciXmJhrG"><path fill="none" stroke="none" d=" M 45 29 L 570 29 L 570 555 L 45 555 L 45 29 Z"/></clipPath><clipPath id="TtgNLfmeKyJM"><path fill="none" stroke="none" d=" M 45 29 L 570 29 L 570 555 L 45 555 L 45 29 Z"/></clipPath><clipPath id="AfiBapbRMfDq"><path fill="none" stroke="none" d=" M 45 29 L 570 29 L 570 555 L 45 555 L 45 29 Z"/></clipPath><clipPath id="ixXmFOFfcsZG"><path fill="none" stroke="none" d=" M 45 29 L 570 29 L 570 555 L 45 555 L 45 29 Z"/></clipPath><clipPath id="BRTTyUJuDPRZ"><path fill="none" stroke="none" d=" M 45 29 L 570 29 L 570 555 L 45 555 L 45 29 Z"/></clipPath><clipPath id="IKXJAromzRIq"><path fill="none" stroke="none" d=" M 45 29 L 570 29 L 570 555 L 45 555 L 45 29 Z"/></clipPath><clipPath id="FltzoAiUUqGW"><path fill="none" stroke="none" d=" M 45 29 L 570 29 L 570 555 L 45 555 L 45 29 Z"/></clipPath><clipPath id="OxJcqeZEcuQo"><path fill="none" stroke="none" d=" M 45 29 L 570 29 L 570 555 L 45 555 L 45 29 Z"/></clipPath><clipPath id="kysktSBzJWZB"><path fill="none" stroke="none" d=" M 45 29 L 570 29 L 570 555 L 45 555 L 45 29 Z"/></clipPath><clipPath id="uZkERQuZDeKk"><path fill="none" stroke="none" d=" M 45 29 L 570 29 L 570 555 L 45 555 L 45 29 Z"/></clipPath><clipPath id="zzcgCrwcgcAm"><path fill="none" stroke="none" d=" M 45 29 L 570 29 L 570 555 L 45 555 L 45 29 Z"/></clipPath><clipPath id="FdBnTrDylqEW"><path fill="none" stroke="none" d=" M 45 29 L 570 29 L 570 555 L 45 555 L 45 29 Z"/></clipPath><clipPath id="EbMZlGCOAZTa"><path fill="none" stroke="none" d=" M 45 29 L 570 29 L 570 555 L 45 555 L 45 29 Z"/></clipPath><clipPath id="JclAvcfBPbqT"><path fill="none" stroke="none" d=" M 45 29 L 570 29 L 570 555 L 45 555 L 45 29 Z"/></clipPath><clipPath id="JKEooLGcwONM"><path fill="none" stroke="none" d=" M 45 29 L 570 29 L 570 555 L 45 555 L 45 29 Z"/></clipPath><clipPath id="ErvaQLTaPTdA"><path fill="none" stroke="none" d=" M 45 29 L 570 29 L 570 555 L 45 555 L 45 29 Z"/></clipPath><clipPath id="qzRlbFAoZPed"><path fill="none" stroke="none" d=" M 45 29 L 570 29 L 570 555 L 45 555 L 45 29 Z"/></clipPath><clipPath id="HspRbIzJAGxw"><path fill="none" stroke="none" d=" M 45 29 L 570 29 L 570 555 L 45 555 L 45 29 Z"/></clipPath><clipPath id="AeZOhtEkHzKk"><path fill="none" stroke="none" d=" M 45 29 L 570 29 L 570 555 L 45 555 L 45 29 Z"/></clipPath><clipPath id="NsnTtfbnADFN"><path fill="none" stroke="none" d=" M 45 29 L 570 29 L 570 555 L 45 555 L 45 29 Z"/></clipPath><clipPath id="tEwWSorLDTzp"><path fill="none" stroke="none" d=" M 45 29 L 570 29 L 570 555 L 45 555 L 45 29 Z"/></clipPath><clipPath id="sKLyQnUbtESJ"><path fill="none" stroke="none" d=" M 45 29 L 570 29 L 570 555 L 45 555 L 45 29 Z"/></clipPath><clipPath id="ocOGaaIUVIlt"><path fill="none" stroke="none" d=" M 45 29 L 570 29 L 570 555 L 45 555 L 45 29 Z"/></clipPath><clipPath id="NDQMaVWvpOUp"><path fill="none" stroke="none" d=" M 45 29 L 570 29 L 570 555 L 45 555 L 45 29 Z"/></clipPath><clipPath id="PDtnxCXQmehP"><path fill="none" stroke="none" d=" M 45 29 L 570 29 L 570 555 L 45 555 L 45 29 Z"/></clipPath><clipPath id="JVecTczVeTPV"><path fill="none" stroke="none" d=" M 45 29 L 570 29 L 570 555 L 45 555 L 45 29 Z"/></clipPath></defs><g><g transform="scale(1,1) translate(0.5,0.5)"><rect fill="#FFFFFF" stroke="none" x="0" y="0" width="600" height="600"/><rect fill="#ffffff" stroke="none" x="0" y="0" width="600" height="600"/><rect fill="#FFFFFF" stroke="none" x="45" y="29" width="525" height="526"/><rect fill="#ffffff" stroke="none" x="45" y="29" width="525" height="526"/><g><rect fill="none" stroke="#e5e5e5" x="45" y="29" width="525" height="526" stroke-linejoin="bevel" stroke-miterlimit="10"/></g><g clip-path="url(#ULCWQyLExVDF)"><g><g><path fill="none" stroke="#e5e5e5" paint-order="fill stroke markers" d=" M 69 555 L 69 29" stroke-linejoin="bevel" stroke-miterlimit="10"/><path fill="none" stroke="#e5e5e5" paint-order="fill stroke markers" d=" M 148 555 L 148 29" stroke-linejoin="bevel" stroke-miterlimit="10"/><path fill="none" stroke="#e5e5e5" paint-order="fill stroke markers" d=" M 228 555 L 228 29" stroke-linejoin="bevel" stroke-miterlimit="10"/><path fill="none" stroke="#e5e5e5" paint-order="fill stroke markers" d=" M 308 555 L 308 29" stroke-linejoin="bevel" stroke-miterlimit="10"/><path fill="none" stroke="#e5e5e5" paint-order="fill stroke markers" d=" M 387 555 L 387 29" stroke-linejoin="bevel" stroke-miterlimit="10"/><path fill="none" stroke="#e5e5e5" paint-order="fill stroke markers" d=" M 467 555 L 467 29" stroke-linejoin="bevel" stroke-miterlimit="10"/><path fill="none" stroke="#e5e5e5" paint-order="fill stroke markers" d=" M 546 555 L 546 29" stroke-linejoin="bevel" stroke-miterlimit="10"/></g></g></g><g clip-path="url(#STdUloTXXdmh)"><g><g><path fill="none" stroke="#e5e5e5" paint-order="fill stroke markers" d=" M 45 536 L 570 536" stroke-linejoin="bevel" stroke-miterlimit="10"/><path fill="none" stroke="#e5e5e5" paint-order="fill stroke markers" d=" M 45 467 L 570 467" stroke-linejoin="bevel" stroke-miterlimit="10"/><path fill="none" stroke="#e5e5e5" paint-order="fill stroke markers" d=" M 45 399 L 570 399" stroke-linejoin="bevel" stroke-miterlimit="10"/><path fill="none" stroke="#e5e5e5" paint-order="fill stroke markers" d=" M 45 331 L 570 331" stroke-linejoin="bevel" stroke-miterlimit="10"/><path fill="none" stroke="#e5e5e5" paint-order="fill stroke markers" d=" M 45 263 L 570 263" stroke-linejoin="bevel" stroke-miterlimit="10"/><path fill="none" stroke="#e5e5e5" paint-order="fill stroke markers" d=" M 45 194 L 570 194" stroke-linejoin="bevel" stroke-miterlimit="10"/><path fill="none" stroke="#e5e5e5" paint-order="fill stroke markers" d=" M 45 126 L 570 126" stroke-linejoin="bevel" stroke-miterlimit="10"/><path fill="none" stroke="#e5e5e5" paint-order="fill stroke markers" d=" M 45 58 L 570 58" stroke-linejoin="bevel" stroke-miterlimit="10"/></g></g></g><g clip-path="url(#SlPkpzULTrDL)"><g><g><path fill="none" stroke="none"/><path fill="none" stroke="#1f77b4" paint-order="fill stroke markers" d=" M 68.86363636363637 482.4150924281159 L 227.95454545454544 420.01523294768765 L 387.0454545454545 402.09878439673207 L 546.1363636363635 323.28395235531184" stroke-linejoin="bevel" stroke-miterlimit="10" stroke-opacity="0.8"/></g></g></g><g clip-path="url(#FxeSmJDEKcqz)"><g><g><path fill="none" stroke="none"/><path fill="#1f77b4" stroke="#1f77b4" paint-order="fill stroke markers" d=" M 71.36363636363637 482.4150924281159 A 2.5 2.5 0 1 1 71.36363511363648 482.41259242853255" fill-opacity="0.8" stroke-linejoin="bevel" stroke-miterlimit="10" stroke-opacity="0.8"/><path fill="#1f77b4" stroke="#1f77b4" paint-order="fill stroke markers" d=" M 230.45454545454544 420.01523294768765 A 2.5 2.5 0 1 1 230.45454420454556 420.0127329481043" fill-opacity="0.8" stroke-linejoin="bevel" stroke-miterlimit="10" stroke-opacity="0.8"/><path fill="#1f77b4" stroke="#1f77b4" paint-order="fill stroke markers" d=" M 389.5454545454545 402.09878439673207 A 2.5 2.5 0 1 1 389.5454532954546 402.09628439714874" fill-opacity="0.8" stroke-linejoin="bevel" stroke-miterlimit="10" stroke-opacity="0.8"/><path fill="#1f77b4" stroke="#1f77b4" paint-order="fill stroke markers" d=" M 548.6363636363635 323.28395235531184 A 2.5 2.5 0 1 1 548.6363623863637 323.2814523557285" fill-opacity="0.8" stroke-linejoin="bevel" stroke-miterlimit="10" stroke-opacity="0.8"/></g></g></g><g clip-path="url(#NOaBJJTWyUzD)"><g><g><path fill="none" stroke="none"/><path fill="none" stroke="#ff7f0e" paint-order="fill stroke markers" d=" M 68.86363636363637 524.6906647374536 L 227.95454545454544 516.2812151769286 L 387.0454545454545 521.5570371903622 L 546.1363636363635 527.3253484220583" stroke-linejoin="bevel" stroke-miterlimit="10" stroke-opacity="0.8"/></g></g></g><g clip-path="url(#gpuMTgbyufwK)"><g><g><path fill="none" stroke="none"/><path fill="#ff7f0e" stroke="#ff7f0e" paint-order="fill stroke markers" d=" M 71.36363636363637 524.6906647374536 A 2.5 2.5 0 1 1 71.36363511363648 524.6881647378704" fill-opacity="0.8" stroke-linejoin="bevel" stroke-miterlimit="10" stroke-opacity="0.8"/><path fill="#ff7f0e" stroke="#ff7f0e" paint-order="fill stroke markers" d=" M 230.45454545454544 516.2812151769286 A 2.5 2.5 0 1 1 230.45454420454556 516.2787151773454" fill-opacity="0.8" stroke-linejoin="bevel" stroke-miterlimit="10" stroke-opacity="0.8"/><path fill="#ff7f0e" stroke="#ff7f0e" paint-order="fill stroke markers" d=" M 389.5454545454545 521.5570371903622 A 2.5 2.5 0 1 1 389.5454532954546 521.5545371907789" fill-opacity="0.8" stroke-linejoin="bevel" stroke-miterlimit="10" stroke-opacity="0.8"/><path fill="#ff7f0e" stroke="#ff7f0e" paint-order="fill stroke markers" d=" M 548.6363636363635 527.3253484220583 A 2.5 2.5 0 1 1 548.6363623863637 527.322848422475" fill-opacity="0.8" stroke-linejoin="bevel" stroke-miterlimit="10" stroke-opacity="0.8"/></g></g></g><g clip-path="url(#RfWqKEqfsNUb)"><g><g><path fill="none" stroke="none"/><path fill="none" stroke="#2ca02c" paint-order="fill stroke markers" d=" M 68.86363636363637 529.0197624979669 L 227.95454545454544 530.4116965961707 L 387.0454545454545 527.9579536656602 L 546.1363636363635 514.4120602364169" stroke-linejoin="bevel" stroke-miterlimit="10" stroke-opacity="0.8"/></g></g></g><g clip-path="url(#cAFQdKvWpmUI)"><g><g><path fill="none" stroke="none"/><path fill="#2ca02c" stroke="#2ca02c" paint-order="fill stroke markers" d=" M 71.36363636363637 529.0197624979669 A 2.5 2.5 0 1 1 71.36363511363648 529.0172624983836" fill-opacity="0.8" stroke-linejoin="bevel" stroke-miterlimit="10" stroke-opacity="0.8"/><path fill="#2ca02c" stroke="#2ca02c" paint-order="fill stroke markers" d=" M 230.45454545454544 530.4116965961707 A 2.5 2.5 0 1 1 230.45454420454556 530.4091965965874" fill-opacity="0.8" stroke-linejoin="bevel" stroke-miterlimit="10" stroke-opacity="0.8"/><path fill="#2ca02c" stroke="#2ca02c" paint-order="fill stroke markers" d=" M 389.5454545454545 527.9579536656602 A 2.5 2.5 0 1 1 389.5454532954546 527.9554536660769" fill-opacity="0.8" stroke-linejoin="bevel" stroke-miterlimit="10" stroke-opacity="0.8"/><path fill="#2ca02c" stroke="#2ca02c" paint-order="fill stroke markers" d=" M 548.6363636363635 514.4120602364169 A 2.5 2.5 0 1 1 548.6363623863637 514.4095602368336" fill-opacity="0.8" stroke-linejoin="bevel" stroke-miterlimit="10" stroke-opacity="0.8"/></g></g></g><g clip-path="url(#OdsiXRuWHTgx)"><g><g><path fill="none" stroke="none"/><path fill="none" stroke="#d62728" paint-order="fill stroke markers" d=" M 68.86363636363637 496.6764962354457 L 227.95454545454544 510.5009511475613 L 387.0454545454545 496.86161913503673 L 546.1363636363635 495.3121953550824" stroke-linejoin="bevel" stroke-miterlimit="10" stroke-opacity="0.8"/></g></g></g><g clip-path="url(#LFPeCGGaimXg)"><g><g><path fill="none" stroke="none"/><path fill="#d62728" stroke="#d62728" paint-order="fill stroke markers" d=" M 71.36363636363637 496.6764962354457 A 2.5 2.5 0 1 1 71.36363511363648 496.6739962358624" fill-opacity="0.8" stroke-linejoin="bevel" stroke-miterlimit="10" stroke-opacity="0.8"/><path fill="#d62728" stroke="#d62728" paint-order="fill stroke markers" d=" M 230.45454545454544 510.5009511475613 A 2.5 2.5 0 1 1 230.45454420454556 510.49845114797796" fill-opacity="0.8" stroke-linejoin="bevel" stroke-miterlimit="10" stroke-opacity="0.8"/><path fill="#d62728" stroke="#d62728" paint-order="fill stroke markers" d=" M 389.5454545454545 496.86161913503673 A 2.5 2.5 0 1 1 389.5454532954546 496.8591191354534" fill-opacity="0.8" stroke-linejoin="bevel" stroke-miterlimit="10" stroke-opacity="0.8"/><path fill="#d62728" stroke="#d62728" paint-order="fill stroke markers" d=" M 548.6363636363635 495.3121953550824 A 2.5 2.5 0 1 1 548.6363623863637 495.30969535549906" fill-opacity="0.8" stroke-linejoin="bevel" stroke-miterlimit="10" stroke-opacity="0.8"/></g></g></g><g clip-path="url(#ztBNziyHseFf)"><g><g><path fill="none" stroke="none"/><path fill="none" stroke="#9467bd" paint-order="fill stroke markers" d=" M 68.86363636363637 392.28187175128346 L 227.95454545454544 401.5151774225765 L 387.0454545454545 422.06860793177816 L 546.1363636363635 385.01441340938504" stroke-linejoin="bevel" stroke-miterlimit="10" stroke-opacity="0.8"/></g></g></g><g clip-path="url(#HbvTVHcZyDhN)"><g><g><path fill="none" stroke="none"/><path fill="#9467bd" stroke="#9467bd" paint-order="fill stroke markers" d=" M 71.36363636363637 392.28187175128346 A 2.5 2.5 0 1 1 71.36363511363648 392.2793717517001" fill-opacity="0.8" stroke-linejoin="bevel" stroke-miterlimit="10" stroke-opacity="0.8"/><path fill="#9467bd" stroke="#9467bd" paint-order="fill stroke markers" d=" M 230.45454545454544 401.5151774225765 A 2.5 2.5 0 1 1 230.45454420454556 401.5126774229932" fill-opacity="0.8" stroke-linejoin="bevel" stroke-miterlimit="10" stroke-opacity="0.8"/><path fill="#9467bd" stroke="#9467bd" paint-order="fill stroke markers" d=" M 389.5454545454545 422.06860793177816 A 2.5 2.5 0 1 1 389.5454532954546 422.0661079321948" fill-opacity="0.8" stroke-linejoin="bevel" stroke-miterlimit="10" stroke-opacity="0.8"/><path fill="#9467bd" stroke="#9467bd" paint-order="fill stroke markers" d=" M 548.6363636363635 385.01441340938504 A 2.5 2.5 0 1 1 548.6363623863637 385.0119134098017" fill-opacity="0.8" stroke-linejoin="bevel" stroke-miterlimit="10" stroke-opacity="0.8"/></g></g></g><g clip-path="url(#bVVfppAoqAHM)"><g><g><path fill="none" stroke="none"/><path fill="none" stroke="#8c564b" paint-order="fill stroke markers" d=" M 68.86363636363637 95.48202742299185 L 227.95454545454544 202.01425412299199 L 387.0454545454545 215.13791401263808 L 546.1363636363635 94.70843233941838" stroke-linejoin="bevel" stroke-miterlimit="10" stroke-opacity="0.8"/></g></g></g><g clip-path="url(#IfpJciXmJhrG)"><g><g><path fill="none" stroke="none"/><path fill="#8c564b" stroke="#8c564b" paint-order="fill stroke markers" d=" M 71.36363636363637 95.48202742299185 A 2.5 2.5 0 1 1 71.36363511363648 95.47952742340851" fill-opacity="0.8" stroke-linejoin="bevel" stroke-miterlimit="10" stroke-opacity="0.8"/><path fill="#8c564b" stroke="#8c564b" paint-order="fill stroke markers" d=" M 230.45454545454544 202.01425412299199 A 2.5 2.5 0 1 1 230.45454420454556 202.01175412340865" fill-opacity="0.8" stroke-linejoin="bevel" stroke-miterlimit="10" stroke-opacity="0.8"/><path fill="#8c564b" stroke="#8c564b" paint-order="fill stroke markers" d=" M 389.5454545454545 215.13791401263808 A 2.5 2.5 0 1 1 389.5454532954546 215.13541401305474" fill-opacity="0.8" stroke-linejoin="bevel" stroke-miterlimit="10" stroke-opacity="0.8"/><path fill="#8c564b" stroke="#8c564b" paint-order="fill stroke markers" d=" M 548.6363636363635 94.70843233941838 A 2.5 2.5 0 1 1 548.6363623863637 94.70593233983504" fill-opacity="0.8" stroke-linejoin="bevel" stroke-miterlimit="10" stroke-opacity="0.8"/></g></g></g><g clip-path="url(#TtgNLfmeKyJM)"><g><g><path fill="none" stroke="none"/><path fill="none" stroke="#1f77b4" paint-order="fill stroke markers" d=" M 68.86363636363637 490.55633970600206 L 68.86363636363637 476.23111134356486" stroke-linejoin="bevel" stroke-miterlimit="10" stroke-width="3" stroke-opacity="0.5"/></g></g></g><g clip-path="url(#AfiBapbRMfDq)"><g><g><path fill="none" stroke="none"/><path fill="none" stroke="#1f77b4" paint-order="fill stroke markers" d=" M 227.95454545454544 440.7794032751272 L 227.95454545454544 406.30160851654557" stroke-linejoin="bevel" stroke-miterlimit="10" stroke-width="3" stroke-opacity="0.5"/></g></g></g><g clip-path="url(#ixXmFOFfcsZG)"><g><g><path fill="none" stroke="none"/><path fill="none" stroke="#1f77b4" paint-order="fill stroke markers" d=" M 387.0454545454545 429.8151375005283 L 387.0454545454545 379.70962778731155" stroke-linejoin="bevel" stroke-miterlimit="10" stroke-width="3" stroke-opacity="0.5"/></g></g></g><g clip-path="url(#BRTTyUJuDPRZ)"><g><g><path fill="none" stroke="none"/><path fill="none" stroke="#1f77b4" paint-order="fill stroke markers" d=" M 546.1363636363635 337.46664979960576 L 546.1363636363635 289.50019271663143" stroke-linejoin="bevel" stroke-miterlimit="10" stroke-width="3" stroke-opacity="0.5"/></g></g></g><g clip-path="url(#IKXJAromzRIq)"><g><g><path fill="none" stroke="none"/><path fill="none" stroke="#ff7f0e" paint-order="fill stroke markers" d=" M 68.86363636363637 528.1026867124108 L 68.86363636363637 521.7178760339459" stroke-linejoin="bevel" stroke-miterlimit="10" stroke-width="3" stroke-opacity="0.5"/></g></g></g><g clip-path="url(#FltzoAiUUqGW)"><g><g><path fill="none" stroke="none"/><path fill="none" stroke="#ff7f0e" paint-order="fill stroke markers" d=" M 227.95454545454544 522.600233921727 L 227.95454545454544 511.4297825766697" stroke-linejoin="bevel" stroke-miterlimit="10" stroke-width="3" stroke-opacity="0.5"/></g></g></g><g clip-path="url(#OxJcqeZEcuQo)"><g><g><path fill="none" stroke="none"/><path fill="none" stroke="#ff7f0e" paint-order="fill stroke markers" d=" M 387.0454545454545 523.5300505760938 L 387.0454545454545 519.701972178721" stroke-linejoin="bevel" stroke-miterlimit="10" stroke-width="3" stroke-opacity="0.5"/></g></g></g><g clip-path="url(#kysktSBzJWZB)"><g><g><path fill="none" stroke="none"/><path fill="none" stroke="#ff7f0e" paint-order="fill stroke markers" d=" M 546.1363636363635 530.5641762153342 L 546.1363636363635 524.4027758056271" stroke-linejoin="bevel" stroke-miterlimit="10" stroke-width="3" stroke-opacity="0.5"/></g></g></g><g clip-path="url(#uZkERQuZDeKk)"><g><g><path fill="none" stroke="none"/><path fill="none" stroke="#2ca02c" paint-order="fill stroke markers" d=" M 68.86363636363637 529.9711751776535 L 68.86363636363637 527.2494662340997" stroke-linejoin="bevel" stroke-miterlimit="10" stroke-width="3" stroke-opacity="0.5"/></g></g></g><g clip-path="url(#zzcgCrwcgcAm)"><g><g><path fill="none" stroke="none"/><path fill="none" stroke="#2ca02c" paint-order="fill stroke markers" d=" M 227.95454545454544 531.0909090909091 L 227.95454545454544 529.3772536268044" stroke-linejoin="bevel" stroke-miterlimit="10" stroke-width="3" stroke-opacity="0.5"/></g></g></g><g clip-path="url(#FdBnTrDylqEW)"><g><g><path fill="none" stroke="none"/><path fill="none" stroke="#2ca02c" paint-order="fill stroke markers" d=" M 387.0454545454545 529.1047948957331 L 387.0454545454545 522.6233341844745" stroke-linejoin="bevel" stroke-miterlimit="10" stroke-width="3" stroke-opacity="0.5"/></g></g></g><g clip-path="url(#EbMZlGCOAZTa)"><g><g><path fill="none" stroke="none"/><path fill="none" stroke="#2ca02c" paint-order="fill stroke markers" d=" M 546.1363636363635 518.0441985405777 L 546.1363636363635 511.1939995689546" stroke-linejoin="bevel" stroke-miterlimit="10" stroke-width="3" stroke-opacity="0.5"/></g></g></g><g clip-path="url(#JclAvcfBPbqT)"><g><g><path fill="none" stroke="none"/><path fill="none" stroke="#d62728" paint-order="fill stroke markers" d=" M 68.86363636363637 502.89223915918745 L 68.86363636363637 487.74859135804616" stroke-linejoin="bevel" stroke-miterlimit="10" stroke-width="3" stroke-opacity="0.5"/></g></g></g><g clip-path="url(#JKEooLGcwONM)"><g><g><path fill="none" stroke="none"/><path fill="none" stroke="#d62728" paint-order="fill stroke markers" d=" M 227.95454545454544 515.5001416206675 L 227.95454545454544 505.71063507633676" stroke-linejoin="bevel" stroke-miterlimit="10" stroke-width="3" stroke-opacity="0.5"/></g></g></g><g clip-path="url(#ErvaQLTaPTdA)"><g><g><path fill="none" stroke="none"/><path fill="none" stroke="#d62728" paint-order="fill stroke markers" d=" M 387.0454545454545 503.20341258348424 L 387.0454545454545 491.915967454626" stroke-linejoin="bevel" stroke-miterlimit="10" stroke-width="3" stroke-opacity="0.5"/></g></g></g><g clip-path="url(#qzRlbFAoZPed)"><g><g><path fill="none" stroke="none"/><path fill="none" stroke="#d62728" paint-order="fill stroke markers" d=" M 546.1363636363635 498.4260542330086 L 546.1363636363635 486.90738908258345" stroke-linejoin="bevel" stroke-miterlimit="10" stroke-width="3" stroke-opacity="0.5"/></g></g></g><g clip-path="url(#HspRbIzJAGxw)"><g><g><path fill="none" stroke="none"/><path fill="none" stroke="#9467bd" paint-order="fill stroke markers" d=" M 68.86363636363637 405.02590832831635 L 68.86363636363637 381.3095712638132" stroke-linejoin="bevel" stroke-miterlimit="10" stroke-width="3" stroke-opacity="0.5"/></g></g></g><g clip-path="url(#AeZOhtEkHzKk)"><g><g><path fill="none" stroke="none"/><path fill="none" stroke="#9467bd" paint-order="fill stroke markers" d=" M 227.95454545454544 413.8713115038182 L 227.95454545454544 388.61918666021575" stroke-linejoin="bevel" stroke-miterlimit="10" stroke-width="3" stroke-opacity="0.5"/></g></g></g><g clip-path="url(#NsnTtfbnADFN)"><g><g><path fill="none" stroke="none"/><path fill="none" stroke="#9467bd" paint-order="fill stroke markers" d=" M 387.0454545454545 429.40565011757144 L 387.0454545454545 411.1240913721779" stroke-linejoin="bevel" stroke-miterlimit="10" stroke-width="3" stroke-opacity="0.5"/></g></g></g><g clip-path="url(#tEwWSorLDTzp)"><g><g><path fill="none" stroke="none"/><path fill="none" stroke="#9467bd" paint-order="fill stroke markers" d=" M 546.1363636363635 391.23317272249744 L 546.1363636363635 372.3652948792396" stroke-linejoin="bevel" stroke-miterlimit="10" stroke-width="3" stroke-opacity="0.5"/></g></g></g><g clip-path="url(#sKLyQnUbtESJ)"><g><g><path fill="none" stroke="none"/><path fill="none" stroke="#8c564b" paint-order="fill stroke markers" d=" M 68.86363636363637 137.32471516341332 L 68.86363636363637 69.51458389481178" stroke-linejoin="bevel" stroke-miterlimit="10" stroke-width="3" stroke-opacity="0.5"/></g></g></g><g clip-path="url(#ocOGaaIUVIlt)"><g><g><path fill="none" stroke="none"/><path fill="none" stroke="#8c564b" paint-order="fill stroke markers" d=" M 227.95454545454544 289.4350945865882 L 227.95454545454544 103.77761262305086" stroke-linejoin="bevel" stroke-miterlimit="10" stroke-width="3" stroke-opacity="0.5"/></g></g></g><g clip-path="url(#NDQMaVWvpOUp)"><g><g><path fill="none" stroke="none"/><path fill="none" stroke="#8c564b" paint-order="fill stroke markers" d=" M 387.0454545454545 304.6349177617656 L 387.0454545454545 152.2575783367081" stroke-linejoin="bevel" stroke-miterlimit="10" stroke-width="3" stroke-opacity="0.5"/></g></g></g><g clip-path="url(#PDtnxCXQmehP)"><g><g><path fill="none" stroke="none"/><path fill="none" stroke="#8c564b" paint-order="fill stroke markers" d=" M 546.1363636363635 182.57633036395703 L 546.1363636363635 52.90909090909105" stroke-linejoin="bevel" stroke-miterlimit="10" stroke-width="3" stroke-opacity="0.5"/></g></g></g><g><g fill="#444444"><path fill="" stroke="none" d=""/><g transform="translate(45,24)"><path fill="none" stroke="none"/><text fill="" stroke="none" font-family="helvetica" font-size="10pt" font-style="normal" font-weight="bold" text-decoration="normal" x="0" y="0" text-anchor="start" dominant-baseline="text-after-edge">Root mean squared displacement (bootstrap median, 95% CI)</text></g></g></g><g/><g><g fill="#444444"><path fill="none" stroke="black" paint-order="fill stroke markers" d=" M 45 555 L 570 555" stroke-linejoin="bevel" stroke-miterlimit="10"/><path fill="none" stroke="black" paint-order="fill stroke markers" d=" M 69 561 L 69 553" stroke-linejoin="bevel" stroke-miterlimit="10"/><path fill="none" stroke="black" paint-order="fill stroke markers" d=" M 148 561 L 148 553" stroke-linejoin="bevel" stroke-miterlimit="10"/><path fill="none" stroke="black" paint-order="fill stroke markers" d=" M 228 561 L 228 553" stroke-linejoin="bevel" stroke-miterlimit="10"/><path fill="none" stroke="black" paint-order="fill stroke markers" d=" M 308 561 L 308 553" stroke-linejoin="bevel" stroke-miterlimit="10"/><path fill="none" stroke="black" paint-order="fill stroke markers" d=" M 387 561 L 387 553" stroke-linejoin="bevel" stroke-miterlimit="10"/><path fill="none" stroke="black" paint-order="fill stroke markers" d=" M 467 561 L 467 553" stroke-linejoin="bevel" stroke-miterlimit="10"/><path fill="none" stroke="black" paint-order="fill stroke markers" d=" M 546 561 L 546 553" stroke-linejoin="bevel" stroke-miterlimit="10"/><path fill="none" stroke="black" paint-order="fill stroke markers" d=" M 53 559 L 53 555" stroke-linejoin="bevel" stroke-miterlimit="10"/><path fill="none" stroke="black" paint-order="fill stroke markers" d=" M 69 559 L 69 555" stroke-linejoin="bevel" stroke-miterlimit="10"/><path fill="none" stroke="black" paint-order="fill stroke markers" d=" M 85 559 L 85 555" stroke-linejoin="bevel" stroke-miterlimit="10"/><path fill="none" stroke="black" paint-order="fill stroke markers" d=" M 101 559 L 101 555" stroke-linejoin="bevel" stroke-miterlimit="10"/><path fill="none" stroke="black" paint-order="fill stroke markers" d=" M 117 559 L 117 555" stroke-linejoin="bevel" stroke-miterlimit="10"/><path fill="none" stroke="black" paint-order="fill stroke markers" d=" M 133 559 L 133 555" stroke-linejoin="bevel" stroke-miterlimit="10"/><path fill="none" stroke="black" paint-order="fill stroke markers" d=" M 148 559 L 148 555" stroke-linejoin="bevel" stroke-miterlimit="10"/><path fill="none" stroke="black" paint-order="fill stroke markers" d=" M 164 559 L 164 555" stroke-linejoin="bevel" stroke-miterlimit="10"/><path fill="none" stroke="black" paint-order="fill stroke markers" d=" M 180 559 L 180 555" stroke-linejoin="bevel" stroke-miterlimit="10"/><path fill="none" stroke="black" paint-order="fill stroke markers" d=" M 196 559 L 196 555" stroke-linejoin="bevel" stroke-miterlimit="10"/><path fill="none" stroke="black" paint-order="fill stroke markers" d=" M 212 559 L 212 555" stroke-linejoin="bevel" stroke-miterlimit="10"/><path fill="none" stroke="black" paint-order="fill stroke markers" d=" M 228 559 L 228 555" stroke-linejoin="bevel" stroke-miterlimit="10"/><path fill="none" stroke="black" paint-order="fill stroke markers" d=" M 244 559 L 244 555" stroke-linejoin="bevel" stroke-miterlimit="10"/><path fill="none" stroke="black" paint-order="fill stroke markers" d=" M 260 559 L 260 555" stroke-linejoin="bevel" stroke-miterlimit="10"/><path fill="none" stroke="black" paint-order="fill stroke markers" d=" M 276 559 L 276 555" stroke-linejoin="bevel" stroke-miterlimit="10"/><path fill="none" stroke="black" paint-order="fill stroke markers" d=" M 292 559 L 292 555" stroke-linejoin="bevel" stroke-miterlimit="10"/><path fill="none" stroke="black" paint-order="fill stroke markers" d=" M 308 559 L 308 555" stroke-linejoin="bevel" stroke-miterlimit="10"/><path fill="none" stroke="black" paint-order="fill stroke markers" d=" M 323 559 L 323 555" stroke-linejoin="bevel" stroke-miterlimit="10"/><path fill="none" stroke="black" paint-order="fill stroke markers" d=" M 339 559 L 339 555" stroke-linejoin="bevel" stroke-miterlimit="10"/><path fill="none" stroke="black" paint-order="fill stroke markers" d=" M 355 559 L 355 555" stroke-linejoin="bevel" stroke-miterlimit="10"/><path fill="none" stroke="black" paint-order="fill stroke markers" d=" M 371 559 L 371 555" stroke-linejoin="bevel" stroke-miterlimit="10"/><path fill="none" stroke="black" paint-order="fill stroke markers" d=" M 387 559 L 387 555" stroke-linejoin="bevel" stroke-miterlimit="10"/><path fill="none" stroke="black" paint-order="fill stroke markers" d=" M 403 559 L 403 555" stroke-linejoin="bevel" stroke-miterlimit="10"/><path fill="none" stroke="black" paint-order="fill stroke markers" d=" M 419 559 L 419 555" stroke-linejoin="bevel" stroke-miterlimit="10"/><path fill="none" stroke="black" paint-order="fill stroke markers" d=" M 435 559 L 435 555" stroke-linejoin="bevel" stroke-miterlimit="10"/><path fill="none" stroke="black" paint-order="fill stroke markers" d=" M 451 559 L 451 555" stroke-linejoin="bevel" stroke-miterlimit="10"/><path fill="none" stroke="black" paint-order="fill stroke markers" d=" M 467 559 L 467 555" stroke-linejoin="bevel" stroke-miterlimit="10"/><path fill="none" stroke="black" paint-order="fill stroke markers" d=" M 482 559 L 482 555" stroke-linejoin="bevel" stroke-miterlimit="10"/><path fill="none" stroke="black" paint-order="fill stroke markers" d=" M 498 559 L 498 555" stroke-linejoin="bevel" stroke-miterlimit="10"/><path fill="none" stroke="black" paint-order="fill stroke markers" d=" M 514 559 L 514 555" stroke-linejoin="bevel" stroke-miterlimit="10"/><path fill="none" stroke="black" paint-order="fill stroke markers" d=" M 530 559 L 530 555" stroke-linejoin="bevel" stroke-miterlimit="10"/><path fill="none" stroke="black" paint-order="fill stroke markers" d=" M 546 559 L 546 555" stroke-linejoin="bevel" stroke-miterlimit="10"/><path fill="" stroke="black" paint-order="fill stroke markers" d=" M 562 559 L 562 555" stroke-linejoin="bevel" stroke-miterlimit="10"/><g transform="translate(69,566) rotate(0,0,0)"><text fill="" stroke="none" font-family="helvetica" font-size="8pt" font-style="normal" font-weight="normal" text-decoration="normal" x="0" y="0" text-anchor="middle" dominant-baseline="hanging">0</text><g transform="rotate(0,0,0) translate(-69,-566) translate(148,566) rotate(0,0,0)"><text fill="" stroke="none" font-family="helvetica" font-size="8pt" font-style="normal" font-weight="normal" text-decoration="normal" x="0" y="0" text-anchor="middle" dominant-baseline="hanging">0.5</text><g transform="rotate(0,0,0) translate(-148,-566) translate(228,566) rotate(0,0,0)"><text fill="" stroke="none" font-family="helvetica" font-size="8pt" font-style="normal" font-weight="normal" text-decoration="normal" x="0" y="0" text-anchor="middle" dominant-baseline="hanging">1</text><g transform="rotate(0,0,0) translate(-228,-566) translate(308,566) rotate(0,0,0)"><text fill="" stroke="none" font-family="helvetica" font-size="8pt" font-style="normal" font-weight="normal" text-decoration="normal" x="0" y="0" text-anchor="middle" dominant-baseline="hanging">1.5</text><g transform="rotate(0,0,0) translate(-308,-566) translate(387,566) rotate(0,0,0)"><text fill="" stroke="none" font-family="helvetica" font-size="8pt" font-style="normal" font-weight="normal" text-decoration="normal" x="0" y="0" text-anchor="middle" dominant-baseline="hanging">2</text><g transform="rotate(0,0,0) translate(-387,-566) translate(467,566) rotate(0,0,0)"><text fill="" stroke="none" font-family="helvetica" font-size="8pt" font-style="normal" font-weight="normal" text-decoration="normal" x="0" y="0" text-anchor="middle" dominant-baseline="hanging">2.5</text><g transform="rotate(0,0,0) translate(-467,-566) translate(546,566) rotate(0,0,0)"><text fill="" stroke="none" font-family="helvetica" font-size="8pt" font-style="normal" font-weight="normal" text-decoration="normal" x="0" y="0" text-anchor="middle" dominant-baseline="hanging">3</text><g transform="rotate(0,0,0) translate(-546,-566) translate(308,584) rotate(0,0,0)"><text fill="" stroke="none" font-family="helvetica" font-size="10pt" font-style="italic" font-weight="normal" text-decoration="normal" x="0" y="0" text-anchor="middle" dominant-baseline="hanging">Time (h)</text><g transform="rotate(0,0,0) translate(-308,-584)"/></g></g></g></g></g></g></g></g></g></g><g><g fill="#444444"><path fill="none" stroke="black" paint-order="fill stroke markers" d=" M 45 555 L 45 29" stroke-linejoin="bevel" stroke-miterlimit="10"/><path fill="none" stroke="black" paint-order="fill stroke markers" d=" M 39 536 L 47 536" stroke-linejoin="bevel" stroke-miterlimit="10"/><path fill="none" stroke="black" paint-order="fill stroke markers" d=" M 39 467 L 47 467" stroke-linejoin="bevel" stroke-miterlimit="10"/><path fill="none" stroke="black" paint-order="fill stroke markers" d=" M 39 399 L 47 399" stroke-linejoin="bevel" stroke-miterlimit="10"/><path fill="none" stroke="black" paint-order="fill stroke markers" d=" M 39 331 L 47 331" stroke-linejoin="bevel" stroke-miterlimit="10"/><path fill="none" stroke="black" paint-order="fill stroke markers" d=" M 39 263 L 47 263" stroke-linejoin="bevel" stroke-miterlimit="10"/><path fill="none" stroke="black" paint-order="fill stroke markers" d=" M 39 194 L 47 194" stroke-linejoin="bevel" stroke-miterlimit="10"/><path fill="none" stroke="black" paint-order="fill stroke markers" d=" M 39 126 L 47 126" stroke-linejoin="bevel" stroke-miterlimit="10"/><path fill="none" stroke="black" paint-order="fill stroke markers" d=" M 39 58 L 47 58" stroke-linejoin="bevel" stroke-miterlimit="10"/><path fill="none" stroke="black" paint-order="fill stroke markers" d=" M 41 549 L 45 549" stroke-linejoin="bevel" stroke-miterlimit="10"/><path fill="none" stroke="black" paint-order="fill stroke markers" d=" M 41 536 L 45 536" stroke-linejoin="bevel" stroke-miterlimit="10"/><path fill="none" stroke="black" paint-order="fill stroke markers" d=" M 41 522 L 45 522" stroke-linejoin="bevel" stroke-miterlimit="10"/><path fill="none" stroke="black" paint-order="fill stroke markers" d=" M 41 508 L 45 508" stroke-linejoin="bevel" stroke-miterlimit="10"/><path fill="none" stroke="black" paint-order="fill stroke markers" d=" M 41 495 L 45 495" stroke-linejoin="bevel" stroke-miterlimit="10"/><path fill="none" stroke="black" paint-order="fill stroke markers" d=" M 41 481 L 45 481" stroke-linejoin="bevel" stroke-miterlimit="10"/><path fill="none" stroke="black" paint-order="fill stroke markers" d=" M 41 467 L 45 467" stroke-linejoin="bevel" stroke-miterlimit="10"/><path fill="none" stroke="black" paint-order="fill stroke markers" d=" M 41 454 L 45 454" stroke-linejoin="bevel" stroke-miterlimit="10"/><path fill="none" stroke="black" paint-order="fill stroke markers" d=" M 41 440 L 45 440" stroke-linejoin="bevel" stroke-miterlimit="10"/><path fill="none" stroke="black" paint-order="fill stroke markers" d=" M 41 426 L 45 426" stroke-linejoin="bevel" stroke-miterlimit="10"/><path fill="none" stroke="black" paint-order="fill stroke markers" d=" M 41 413 L 45 413" stroke-linejoin="bevel" stroke-miterlimit="10"/><path fill="none" stroke="black" paint-order="fill stroke markers" d=" M 41 399 L 45 399" stroke-linejoin="bevel" stroke-miterlimit="10"/><path fill="none" stroke="black" paint-order="fill stroke markers" d=" M 41 385 L 45 385" stroke-linejoin="bevel" stroke-miterlimit="10"/><path fill="none" stroke="black" paint-order="fill stroke markers" d=" M 41 372 L 45 372" stroke-linejoin="bevel" stroke-miterlimit="10"/><path fill="none" stroke="black" paint-order="fill stroke markers" d=" M 41 358 L 45 358" stroke-linejoin="bevel" stroke-miterlimit="10"/><path fill="none" stroke="black" paint-order="fill stroke markers" d=" M 41 345 L 45 345" stroke-linejoin="bevel" stroke-miterlimit="10"/><path fill="none" stroke="black" paint-order="fill stroke markers" d=" M 41 331 L 45 331" stroke-linejoin="bevel" stroke-miterlimit="10"/><path fill="none" stroke="black" paint-order="fill stroke markers" d=" M 41 317 L 45 317" stroke-linejoin="bevel" stroke-miterlimit="10"/><path fill="none" stroke="black" paint-order="fill stroke markers" d=" M 41 304 L 45 304" stroke-linejoin="bevel" stroke-miterlimit="10"/><path fill="none" stroke="black" paint-order="fill stroke markers" d=" M 41 290 L 45 290" stroke-linejoin="bevel" stroke-miterlimit="10"/><path fill="none" stroke="black" paint-order="fill stroke markers" d=" M 41 276 L 45 276" stroke-linejoin="bevel" stroke-miterlimit="10"/><path fill="none" stroke="black" paint-order="fill stroke markers" d=" M 41 263 L 45 263" stroke-linejoin="bevel" stroke-miterlimit="10"/><path fill="none" stroke="black" paint-order="fill stroke markers" d=" M 41 249 L 45 249" stroke-linejoin="bevel" stroke-miterlimit="10"/><path fill="none" stroke="black" paint-order="fill stroke markers" d=" M 41 235 L 45 235" stroke-linejoin="bevel" stroke-miterlimit="10"/><path fill="none" stroke="black" paint-order="fill stroke markers" d=" M 41 222 L 45 222" stroke-linejoin="bevel" stroke-miterlimit="10"/><path fill="none" stroke="black" paint-order="fill stroke markers" d=" M 41 208 L 45 208" stroke-linejoin="bevel" stroke-miterlimit="10"/><path fill="none" stroke="black" paint-order="fill stroke markers" d=" M 41 194 L 45 194" stroke-linejoin="bevel" stroke-miterlimit="10"/><path fill="none" stroke="black" paint-order="fill stroke markers" d=" M 41 181 L 45 181" stroke-linejoin="bevel" stroke-miterlimit="10"/><path fill="none" stroke="black" paint-order="fill stroke markers" d=" M 41 167 L 45 167" stroke-linejoin="bevel" stroke-miterlimit="10"/><path fill="none" stroke="black" paint-order="fill stroke markers" d=" M 41 153 L 45 153" stroke-linejoin="bevel" stroke-miterlimit="10"/><path fill="none" stroke="black" paint-order="fill stroke markers" d=" M 41 140 L 45 140" stroke-linejoin="bevel" stroke-miterlimit="10"/><path fill="none" stroke="black" paint-order="fill stroke markers" d=" M 41 126 L 45 126" stroke-linejoin="bevel" stroke-miterlimit="10"/><path fill="none" stroke="black" paint-order="fill stroke markers" d=" M 41 113 L 45 113" stroke-linejoin="bevel" stroke-miterlimit="10"/><path fill="none" stroke="black" paint-order="fill stroke markers" d=" M 41 99 L 45 99" stroke-linejoin="bevel" stroke-miterlimit="10"/><path fill="none" stroke="black" paint-order="fill stroke markers" d=" M 41 85 L 45 85" stroke-linejoin="bevel" stroke-miterlimit="10"/><path fill="none" stroke="black" paint-order="fill stroke markers" d=" M 41 72 L 45 72" stroke-linejoin="bevel" stroke-miterlimit="10"/><path fill="none" stroke="black" paint-order="fill stroke markers" d=" M 41 58 L 45 58" stroke-linejoin="bevel" stroke-miterlimit="10"/><path fill="none" stroke="black" paint-order="fill stroke markers" d=" M 41 44 L 45 44" stroke-linejoin="bevel" stroke-miterlimit="10"/><path fill="" stroke="black" paint-order="fill stroke markers" d=" M 41 31 L 45 31" stroke-linejoin="bevel" stroke-miterlimit="10"/><g transform="translate(34,536) rotate(0,0,0)"><text fill="" stroke="none" font-family="helvetica" font-size="8pt" font-style="normal" font-weight="normal" text-decoration="normal" x="0" y="0" text-anchor="end" dominant-baseline="central">0</text><g transform="rotate(0,0,0) translate(-34,-536) translate(34,467) rotate(0,0,0)"><text fill="" stroke="none" font-family="helvetica" font-size="8pt" font-style="normal" font-weight="normal" text-decoration="normal" x="0" y="0" text-anchor="end" dominant-baseline="central">2</text><g transform="rotate(0,0,0) translate(-34,-467) translate(34,399) rotate(0,0,0)"><text fill="" stroke="none" font-family="helvetica" font-size="8pt" font-style="normal" font-weight="normal" text-decoration="normal" x="0" y="0" text-anchor="end" dominant-baseline="central">4</text><g transform="rotate(0,0,0) translate(-34,-399) translate(34,331) rotate(0,0,0)"><text fill="" stroke="none" font-family="helvetica" font-size="8pt" font-style="normal" font-weight="normal" text-decoration="normal" x="0" y="0" text-anchor="end" dominant-baseline="central">6</text><g transform="rotate(0,0,0) translate(-34,-331) translate(34,263) rotate(0,0,0)"><text fill="" stroke="none" font-family="helvetica" font-size="8pt" font-style="normal" font-weight="normal" text-decoration="normal" x="0" y="0" text-anchor="end" dominant-baseline="central">8</text><g transform="rotate(0,0,0) translate(-34,-263) translate(34,194) rotate(0,0,0)"><text fill="" stroke="none" font-family="helvetica" font-size="8pt" font-style="normal" font-weight="normal" text-decoration="normal" x="0" y="0" text-anchor="end" dominant-baseline="central">10</text><g transform="rotate(0,0,0) translate(-34,-194) translate(34,126) rotate(0,0,0)"><text fill="" stroke="none" font-family="helvetica" font-size="8pt" font-style="normal" font-weight="normal" text-decoration="normal" x="0" y="0" text-anchor="end" dominant-baseline="central">12</text><g transform="rotate(0,0,0) translate(-34,-126) translate(34,58) rotate(0,0,0)"><text fill="" stroke="none" font-family="helvetica" font-size="8pt" font-style="normal" font-weight="normal" text-decoration="normal" x="0" y="0" text-anchor="end" dominant-baseline="central">14</text><g transform="rotate(0,0,0) translate(-34,-58) translate(16,292) rotate(-90,0,0)"><text fill="" stroke="none" font-family="helvetica" font-size="10pt" font-style="italic" font-weight="normal" text-decoration="normal" x="0" y="0" text-anchor="middle" dominant-baseline="alphabetic">medianRMSD (µm)</text><g transform="rotate(90,0,0) translate(-16,-292)"/></g></g></g></g></g></g></g></g></g></g></g><g clip-path="url(#JVecTczVeTPV)"><g/></g></g></g></svg>