<svg version="1.1" xmlns="http://www.w3.org/2000/svg" xmlns:xlink="http://www.w3.org/1999/xlink" width="600" height="600" style="width: 600px; height: 600px;"><defs><clipPath id="aIQMnNNWJaol"><path fill="none" stroke="none" d=" M 48 29 L 570 29 L 570 555 L 48 555 L 48 29 Z"/></clipPath><clipPath id="mATzAcBUXbbF"><path fill="none" stroke="none" d=" M 48 29 L 570 29 L 570 555 L 48 555 L 48 29 Z"/></clipPath><clipPath id="hhyyQZhSXulV"><path fill="none" stroke="none" d=" M 48 29 L 570 29 L 570 555 L 48 555 L 48 29 Z"/></clipPath><clipPath id="maDtSKeZUKgo"><path fill="none" stroke="none" d=" M 48 29 L 570 29 L 570 555 L 48 555 L 48 29 Z"/></clipPath><clipPath id="DOTofOWTGCwZ"><path fill="none" stroke="none" d=" M 48 29 L 570 29 L 570 555 L 48 555 L 48 29 Z"/></clipPath><clipPath id="UHEiBVBgdTtu"><path fill="none" stroke="none" d=" M 48 29 L 570 29 L 570 555 L 48 555 L 48 29 Z"/></clipPath><clipPath id="qEKLNhVVNytV"><path fill="none" stroke="none" d=" M 48 29 L 570 29 L 570 555 L 48 555 L 48 29 Z"/></clipPath><clipPath id="WgJebzHGemQC"><path fill="none" stroke="none" d=" M 48 29 L 570 29 L 570 555 L 48 555 L 48 29 Z"/></clipPath><clipPath id="gOcsanbvPioh"><path fill="none" stroke="none" d=" M 48 29 L 570 29 L 570 555 L 48 555 L 48 29 Z"/></clipPath><clipPath id="HmqevXuUHbuv"><path fill="none" stroke="none" d=" M 48 29 L 570 29 L 570 555 L 48 555 L 48 29 Z"/></clipPath><clipPath id="AJguiGMaiCey"><path fill="none" stroke="none" d=" M 48 29 L 570 29 L 570 555 L 48 555 L 48 29 Z"/></clipPath><clipPath id="HnmESgahUscq"><path fill="none" stroke="none" d=" M 48 29 L 570 29 L 570 555 L 48 555 L 48 29 Z"/></clipPath><clipPath id="SaPTgfTdkiwd"><path fill="none" stroke="none" d=" M 48 29 L 570 29 L 570 555 L 48 555 L 48 29 Z"/></clipPath><clipPath id="wvBwXRUvdhmz"><path fill="none" stroke="none" d=" M 48 29 L 570 29 L 570 555 L 48 555 L 48 29 Z"/></clipPath><clipPath id="FcthpIMgoTHQ"><path fill="none" stroke="none" d=" M 48 29 L 570 29 L 570 555 L 48 555 L 48 29 Z"/></clipPath><clipPath id="iXRZgiyfbPoU"><path fill="none" stroke="none" d=" M 48 29 L 570 29 L 570 555 L 48 555 L 48 29 Z"/></clipPath><clipPath id="QWUPCZnERobo"><path fill="none" stroke="none" d=" M 48 29 L 570 29 L 570 555 L 48 555 L 48 29 Z"/></clipPath><clipPath id="KwZaRHRppNWd"><path fill="none" stroke="none" d=" M 48 29 L 570 29 L 570 555 L 48 555 L 48 29 Z"/></clipPath><clipPath id="icrsNaKGBVbC"><path fill="none" stroke="none" d=" M 48 29 L 570 29 L 570 555 L 48 555 L 48 29 Z"/></clipPath><clipPath id="TMEKVeleGxyx"><path fill="none" stroke="none" d=" M 48 29 L 570 29 L 570 555 L 48 555 L 48 29 Z"/></clipPath><clipPath id="fxiZguAiilfq"><path fill="none" stroke="none" d=" M 48 29 L 570 29 L 570 555 L 48 555 L 48 29 Z"/></clipPath><clipPath id="XKOakBgNTOTB"><path fill="none" stroke="none" d=" M 48 29 L 570 29 L 570 555 L 48 555 L 48 29 Z"/></clipPath><clipPath id="AbxlGIhMCnHE"><path fill="none" stroke="none" d=" M 48 29 L 570 29 L 570 555 L 48 555 L 48 29 Z"/></clipPath><clipPath id="EbqqOQKSSXrX"><path fill="none" stroke="none" d=" M 48 29 L 570 29 L 570 555 L 48 555 L 48 29 Z"/></clipPath><clipPath id="DAsyOnaHmvOq"><path fill="none" stroke="none" d=" M 48 29 L 570 29 L 570 555 L 48 555 L 48 29 Z"/></clipPath><clipPath id="AJpWZPeUbzDf"><path fill="none" stroke="none" d=" M 48 29 L 570 29 L 570 555 L 48 555 L 48 29 Z"/></clipPath><clipPath id="IJcPSLMLaCDA"><path fill="none" stroke="none" d=" M 48 29 L 570 29 L 570 555 L 48 555 L 48 29 Z"/></clipPath><clipPath id="ncVdxPqCmaeg"><path fill="none" stroke="none" d=" M 48 29 L 570 29 L 570 555 L 48 555 L 48 29 Z"/></clipPath><clipPath id="oGOOVfGTJRgp"><path fill="none" stroke="none" d=" M 48 29 L 570 29 L 570 555 L 48 555 L 48 29 Z"/></clipPath><clipPath id="OcRQczKOeweE"><path fill="none" stroke="none" d=" M 48 29 L 570 29 L 570 555 L 48 555 L 48 29 Z"/></clipPath><clipPath id="lxHqBBhKDMHM"><path fill="none" stroke="none" d=" M 48 29 L 570 29 L 570 555 L 48 555 L 48 29 Z"/></clipPath><clipPath id="UaUOUiHBhUoC"><path fill="none" stroke="none" d=" M 48 29 L 570 29 L 570 555 L 48 555 L 48 29 Z"/></clipPath><clipPath id="XNVapTlPgCwV"><path fill="none" stroke="none" d=" M 48 29 L 570 29 L 570 555 L 48 555 L 48 29 Z"/></clipPath><clipPath id="ZUnxsbDqwkBa"><path fill="none" stroke="none" d=" M 48 29 L 570 29 L 570 555 L 48 555 L 48 29 Z"/></clipPath><clipPath id="FEcXffUhWLHd"><path fill="none" stroke="none" d=" M 48 29 L 570 29 L 570 555 L 48 555 L 48 29 Z"/></clipPath><clipPath id="lKSfroafNxAi"><path fill="none" stroke="none" d=" M 48 29 L 570 29 L 570 555 L 48 555 L 48 29 Z"/></clipPath><clipPath id="vgQdLRBFTPAo"><path fill="none" stroke="none" d=" M 48 29 L 570 29 L 570 555 L 48 555 L 48 29 Z"/></clipPath><clipPath id="VQHKQWSvQsTP"><path fill="none" stroke="none" d=" M 48 29 L 570 29 L 570 555 L 48 555 L 48 29 Z"/></clipPath><clipPath id="ZzQXMSFnRBtZ"><path fill="none" stroke="none" d=" M 48 29 L 570 29 L 570 555 L 48 555 L 48 29 Z"/></clipPath></defs><g><g transform="scale(1,1) translate(0.5,0.5)"><rect fill="#FFFFFF" stroke="none" x="0" y="0" width="600" height="600"/><rect fill="#ffffff" stroke="none" x="0" y="0" width="600" height="600"/><rect fill="#FFFFFF" stroke="none" x="48" y="29" width="522" height="526"/><rect fill="#ffffff" stroke="none" x="48" y="29" width="522" height="526"/><g><rect fill="none" stroke="#e5e5e5" x="48" y="29" width="522" height="526" stroke-linejoin="bevel" stroke-miterlimit="10"/></g><g clip-path="url(#aIQMnNNWJaol)"><g/></g><g clip-path="url(#mATzAcBUXbbF)"><g/></g><g clip-path="url(#hhyyQZhSXulV)"><g><g><path fill="none" stroke="none"/><path fill="none" stroke="black" paint-order="fill stroke markers" d=" M 71.72727272727275 489.96727272727276 L 71.72727272727275 476.57818181818186" stroke-linejoin="bevel" stroke-miterlimit="10" stroke-width="3" stroke-opacity="0.8"/></g></g></g><g clip-path="url(#maDtSKeZUKgo)"><g><g><path fill="none" stroke="none"/><path fill="none" stroke="black" paint-order="fill stroke markers" d=" M 229.9090909090909 397.20000000000005 L 229.9090909090909 342.6872727272728" stroke-linejoin="bevel" stroke-miterlimit="10" stroke-width="3" stroke-opacity="0.8"/></g></g></g><g clip-path="url(#DOTofOWTGCwZ)"><g><g><path fill="none" stroke="none"/><path fill="none" stroke="black" paint-order="fill stroke markers" d=" M 388.09090909090907 348.4254545454545 L 388.09090909090907 281.9581818181818" stroke-linejoin="bevel" stroke-miterlimit="10" stroke-width="3" stroke-opacity="0.8"/></g></g></g><g clip-path="url(#UHEiBVBgdTtu)"><g><g><path fill="none" stroke="none"/><path fill="none" stroke="black" paint-order="fill stroke markers" d=" M 546.2727272727273 217.8937727272728 L 546.2727272727273 197.32000000000005" stroke-linejoin="bevel" stroke-miterlimit="10" stroke-width="3" stroke-opacity="0.8"/></g></g></g><g clip-path="url(#qEKLNhVVNytV)"><g><g><path fill="none" stroke="none"/><path fill="none" stroke="#1f77b4" paint-order="fill stroke markers" d=" M 71.72727272727275 484.2290909090909 L 229.9090909090909 372.3345454545455 L 388.09090909090907 324.99454545454546 L 546.2727272727273 207.84000000000003" stroke-linejoin="bevel" stroke-miterlimit="10" stroke-width="3" stroke-opacity="0.5"/></g></g></g><g clip-path="url(#WgJebzHGemQC)"><g><g><path fill="none" stroke="none"/><path fill="white" stroke="#1f77b4" paint-order="fill stroke markers" d=" M 76.72727272727275 484.2290909090909 A 5 5 0 1 1 76.72727022727295 484.22409090992426" fill-opacity="0.5" stroke-linejoin="bevel" stroke-miterlimit="10" stroke-width="2" stroke-opacity="0.5"/><path fill="white" stroke="#1f77b4" paint-order="fill stroke markers" d=" M 234.9090909090909 372.3345454545455 A 5 5 0 1 1 234.9090884090911 372.3295454553788" fill-opacity="0.5" stroke-linejoin="bevel" stroke-miterlimit="10" stroke-width="2" stroke-opacity="0.5"/><path fill="white" stroke="#1f77b4" paint-order="fill stroke markers" d=" M 393.09090909090907 324.99454545454546 A 5 5 0 1 1 393.0909065909093 324.9895454553788" fill-opacity="0.5" stroke-linejoin="bevel" stroke-miterlimit="10" stroke-width="2" stroke-opacity="0.5"/><path fill="white" stroke="#1f77b4" paint-order="fill stroke markers" d=" M 551.2727272727273 207.84000000000003 A 5 5 0 1 1 551.2727247727274 207.83500000083336" fill-opacity="0.5" stroke-linejoin="bevel" stroke-miterlimit="10" stroke-width="2" stroke-opacity="0.5"/></g></g></g><g clip-path="url(#gOcsanbvPioh)"><g><g><path fill="none" stroke="none"/><path fill="none" stroke="black" paint-order="fill stroke markers" d=" M 71.72727272727275 541.1327272727273 L 71.72727272727275 502.6390909090909" stroke-linejoin="bevel" stroke-miterlimit="10" stroke-width="3" stroke-opacity="0.8"/></g></g></g><g clip-path="url(#HmqevXuUHbuv)"><g><g><path fill="none" stroke="none"/><path fill="none" stroke="black" paint-order="fill stroke markers" d=" M 229.9090909090909 533.4818181818182 L 229.9090909090909 508.1381818181818" stroke-linejoin="bevel" stroke-miterlimit="10" stroke-width="3" stroke-opacity="0.8"/></g></g></g><g clip-path="url(#AJguiGMaiCey)"><g><g><path fill="none" stroke="none"/><path fill="none" stroke="black" paint-order="fill stroke markers" d=" M 388.09090909090907 529.6563636363636 L 388.09090909090907 518.4190909090909" stroke-linejoin="bevel" stroke-miterlimit="10" stroke-width="3" stroke-opacity="0.8"/></g></g></g><g clip-path="url(#HnmESgahUscq)"><g><g><path fill="none" stroke="none"/><path fill="none" stroke="black" paint-order="fill stroke markers" d=" M 546.2727272727273 550.6963636363637 L 546.2727272727273 537.7735" stroke-linejoin="bevel" stroke-miterlimit="10" stroke-width="3" stroke-opacity="0.8"/></g></g></g><g clip-path="url(#SaPTgfTdkiwd)"><g><g><path fill="none" stroke="none"/><path fill="none" stroke="#ff7f0e" paint-order="fill stroke markers" d=" M 71.72727272727275 522.9618181818182 L 229.9090909090909 520.0927272727273 L 388.09090909090907 525.3527272727273 L 546.2727272727273 543.5236363636363" stroke-linejoin="bevel" stroke-miterlimit="10" stroke-width="3" stroke-opacity="0.5"/></g></g></g><g clip-path="url(#wvBwXRUvdhmz)"><g><g><path fill="none" stroke="none"/><path fill="white" stroke="#ff7f0e" paint-order="fill stroke markers" d=" M 76.72727272727275 522.9618181818182 A 5 5 0 1 1 76.72727022727295 522.9568181826515" fill-opacity="0.5" stroke-linejoin="bevel" stroke-miterlimit="10" stroke-width="2" stroke-opacity="0.5"/><path fill="white" stroke="#ff7f0e" paint-order="fill stroke markers" d=" M 234.9090909090909 520.0927272727273 A 5 5 0 1 1 234.9090884090911 520.0877272735606" fill-opacity="0.5" stroke-linejoin="bevel" stroke-miterlimit="10" stroke-width="2" stroke-opacity="0.5"/><path fill="white" stroke="#ff7f0e" paint-order="fill stroke markers" d=" M 393.09090909090907 525.3527272727273 A 5 5 0 1 1 393.0909065909093 525.3477272735606" fill-opacity="0.5" stroke-linejoin="bevel" stroke-miterlimit="10" stroke-width="2" stroke-opacity="0.5"/><path fill="white" stroke="#ff7f0e" paint-order="fill stroke markers" d=" M 551.2727272727273 543.5236363636363 A 5 5 0 1 1 551.2727247727274 543.5186363644697" fill-opacity="0.5" stroke-linejoin="bevel" stroke-miterlimit="10" stroke-width="2" stroke-opacity="0.5"/></g></g></g><g clip-path="url(#FcthpIMgoTHQ)"><g><g><path fill="none" stroke="none"/><path fill="none" stroke="black" paint-order="fill stroke markers" d=" M 71.72727272727275 533.96 L 71.72727272727275 522.7227272727273" stroke-linejoin="bevel" stroke-miterlimit="10" stroke-width="3" stroke-opacity="0.8"/></g></g></g><g clip-path="url(#iXRZgiyfbPoU)"><g><g><path fill="none" stroke="none"/><path fill="none" stroke="black" paint-order="fill stroke markers" d=" M 229.9090909090909 533.96 L 229.9090909090909 525.8309090909091" stroke-linejoin="bevel" stroke-miterlimit="10" stroke-width="3" stroke-opacity="0.8"/></g></g></g><g clip-path="url(#QWUPCZnERobo)"><g><g><path fill="none" stroke="none"/><path fill="none" stroke="black" paint-order="fill stroke markers" d=" M 388.09090909090907 522.9618181818182 L 388.09090909090907 516.5063636363636" stroke-linejoin="bevel" stroke-miterlimit="10" stroke-width="3" stroke-opacity="0.8"/></g></g></g><g clip-path="url(#KwZaRHRppNWd)"><g><g><path fill="none" stroke="none"/><path fill="none" stroke="black" paint-order="fill stroke markers" d=" M 546.2727272727273 517.2236363636364 L 546.2727272727273 510.0509090909091" stroke-linejoin="bevel" stroke-miterlimit="10" stroke-width="3" stroke-opacity="0.8"/></g></g></g><g clip-path="url(#icrsNaKGBVbC)"><g><g><path fill="none" stroke="none"/><path fill="none" stroke="#2ca02c" paint-order="fill stroke markers" d=" M 71.72727272727275 528.7 L 229.9090909090909 528.2218181818182 L 388.09090909090907 519.8536363636364 L 546.2727272727273 513.3981818181818" stroke-linejoin="bevel" stroke-miterlimit="10" stroke-width="3" stroke-opacity="0.5"/></g></g></g><g clip-path="url(#TMEKVeleGxyx)"><g><g><path fill="none" stroke="none"/><path fill="white" stroke="#2ca02c" paint-order="fill stroke markers" d=" M 76.72727272727275 528.7 A 5 5 0 1 1 76.72727022727295 528.6950000008334" fill-opacity="0.5" stroke-linejoin="bevel" stroke-miterlimit="10" stroke-width="2" stroke-opacity="0.5"/><path fill="white" stroke="#2ca02c" paint-order="fill stroke markers" d=" M 234.9090909090909 528.2218181818182 A 5 5 0 1 1 234.9090884090911 528.2168181826515" fill-opacity="0.5" stroke-linejoin="bevel" stroke-miterlimit="10" stroke-width="2" stroke-opacity="0.5"/><path fill="white" stroke="#2ca02c" paint-order="fill stroke markers" d=" M 393.09090909090907 519.8536363636364 A 5 5 0 1 1 393.0909065909093 519.8486363644697" fill-opacity="0.5" stroke-linejoin="bevel" stroke-miterlimit="10" stroke-width="2" stroke-opacity="0.5"/><path fill="white" stroke="#2ca02c" paint-order="fill stroke markers" d=" M 551.2727272727273 513.3981818181818 A 5 5 0 1 1 551.2727247727274 513.3931818190151" fill-opacity="0.5" stroke-linejoin="bevel" stroke-miterlimit="10" stroke-width="2" stroke-opacity="0.5"/></g></g></g><g clip-path="url(#fxiZguAiilfq)"><g><g><path fill="none" stroke="none"/><path fill="none" stroke="black" paint-order="fill stroke markers" d=" M 71.72727272727275 500.9654545454546 L 71.72727272727275 436.8890909090909" stroke-linejoin="bevel" stroke-miterlimit="10" stroke-width="3" stroke-opacity="0.8"/></g></g></g><g clip-path="url(#XKOakBgNTOTB)"><g><g><path fill="none" stroke="none"/><path fill="none" stroke="black" paint-order="fill stroke markers" d=" M 229.9090909090909 525.8309090909091 L 229.9090909090909 502.8781818181818" stroke-linejoin="bevel" stroke-miterlimit="10" stroke-width="3" stroke-opacity="0.8"/></g></g></g><g clip-path="url(#AbxlGIhMCnHE)"><g><g><path fill="none" stroke="none"/><path fill="none" stroke="black" paint-order="fill stroke markers" d=" M 388.09090909090907 477.05636363636364 L 388.09090909090907 442.1490909090909" stroke-linejoin="bevel" stroke-miterlimit="10" stroke-width="3" stroke-opacity="0.8"/></g></g></g><g clip-path="url(#EbqqOQKSSXrX)"><g><g><path fill="none" stroke="none"/><path fill="none" stroke="black" paint-order="fill stroke markers" d=" M 546.2727272727273 455.06 L 546.2727272727273 436.8890909090909" stroke-linejoin="bevel" stroke-miterlimit="10" stroke-width="3" stroke-opacity="0.8"/></g></g></g><g clip-path="url(#DAsyOnaHmvOq)"><g><g><path fill="none" stroke="none"/><path fill="none" stroke="#d62728" paint-order="fill stroke markers" d=" M 71.72727272727275 482.55545454545455 L 229.9090909090909 517.2236363636364 L 388.09090909090907 460.32 L 546.2727272727273 449.3218181818182" stroke-linejoin="bevel" stroke-miterlimit="10" stroke-width="3" stroke-opacity="0.5"/></g></g></g><g clip-path="url(#AJpWZPeUbzDf)"><g><g><path fill="none" stroke="none"/><path fill="white" stroke="#d62728" paint-order="fill stroke markers" d=" M 76.72727272727275 482.55545454545455 A 5 5 0 1 1 76.72727022727295 482.5504545462879" fill-opacity="0.5" stroke-linejoin="bevel" stroke-miterlimit="10" stroke-width="2" stroke-opacity="0.5"/><path fill="white" stroke="#d62728" paint-order="fill stroke markers" d=" M 234.9090909090909 517.2236363636364 A 5 5 0 1 1 234.9090884090911 517.2186363644697" fill-opacity="0.5" stroke-linejoin="bevel" stroke-miterlimit="10" stroke-width="2" stroke-opacity="0.5"/><path fill="white" stroke="#d62728" paint-order="fill stroke markers" d=" M 393.09090909090907 460.32 A 5 5 0 1 1 393.0909065909093 460.3150000008333" fill-opacity="0.5" stroke-linejoin="bevel" stroke-miterlimit="10" stroke-width="2" stroke-opacity="0.5"/><path fill="white" stroke="#d62728" paint-order="fill stroke markers" d=" M 551.2727272727273 449.3218181818182 A 5 5 0 1 1 551.2727247727274 449.3168181826515" fill-opacity="0.5" stroke-linejoin="bevel" stroke-miterlimit="10" stroke-width="2" stroke-opacity="0.5"/></g></g></g><g clip-path="url(#IJcPSLMLaCDA)"><g><g><path fill="none" stroke="none"/><path fill="none" stroke="black" paint-order="fill stroke markers" d=" M 71.72727272727275 318.77818181818185 L 71.72727272727275 304.4327272727273" stroke-linejoin="bevel" stroke-miterlimit="10" stroke-width="3" stroke-opacity="0.8"/></g></g></g><g clip-path="url(#ncVdxPqCmaeg)"><g><g><path fill="none" stroke="none"/><path fill="none" stroke="black" paint-order="fill stroke markers" d=" M 229.9090909090909 204.01454545454544 L 229.9090909090909 182.72947727272737" stroke-linejoin="bevel" stroke-miterlimit="10" stroke-width="3" stroke-opacity="0.8"/></g></g></g><g clip-path="url(#oGOOVfGTJRgp)"><g><g><path fill="none" stroke="none"/><path fill="none" stroke="black" paint-order="fill stroke markers" d=" M 388.09090909090907 246.09454545454554 L 388.09090909090907 233.18363636363642" stroke-linejoin="bevel" stroke-miterlimit="10" stroke-width="3" stroke-opacity="0.8"/></g></g></g><g clip-path="url(#OcRQczKOeweE)"><g><g><path fill="none" stroke="none"/><path fill="none" stroke="black" paint-order="fill stroke markers" d=" M 546.2727272727273 233.6618181818182 L 546.2727272727273 224.08622727272723" stroke-linejoin="bevel" stroke-miterlimit="10" stroke-width="3" stroke-opacity="0.8"/></g></g></g><g clip-path="url(#lxHqBBhKDMHM)"><g><g><path fill="none" stroke="none"/><path fill="none" stroke="#9467bd" paint-order="fill stroke markers" d=" M 71.72727272727275 312.56181818181824 L 229.9090909090909 190.6254545454546 L 388.09090909090907 240.8345454545455 L 546.2727272727273 226.9672727272728" stroke-linejoin="bevel" stroke-miterlimit="10" stroke-width="3" stroke-opacity="0.5"/></g></g></g><g clip-path="url(#UaUOUiHBhUoC)"><g><g><path fill="none" stroke="none"/><path fill="white" stroke="#9467bd" paint-order="fill stroke markers" d=" M 76.72727272727275 312.56181818181824 A 5 5 0 1 1 76.72727022727295 312.55681818265157" fill-opacity="0.5" stroke-linejoin="bevel" stroke-miterlimit="10" stroke-width="2" stroke-opacity="0.5"/><path fill="white" stroke="#9467bd" paint-order="fill stroke markers" d=" M 234.9090909090909 190.6254545454546 A 5 5 0 1 1 234.9090884090911 190.62045454628793" fill-opacity="0.5" stroke-linejoin="bevel" stroke-miterlimit="10" stroke-width="2" stroke-opacity="0.5"/><path fill="white" stroke="#9467bd" paint-order="fill stroke markers" d=" M 393.09090909090907 240.8345454545455 A 5 5 0 1 1 393.0909065909093 240.82954545537882" fill-opacity="0.5" stroke-linejoin="bevel" stroke-miterlimit="10" stroke-width="2" stroke-opacity="0.5"/><path fill="white" stroke="#9467bd" paint-order="fill stroke markers" d=" M 551.2727272727273 226.9672727272728 A 5 5 0 1 1 551.2727247727274 226.96227272810614" fill-opacity="0.5" stroke-linejoin="bevel" stroke-miterlimit="10" stroke-width="2" stroke-opacity="0.5"/></g></g></g><g clip-path="url(#XNVapTlPgCwV)"><g><g><path fill="none" stroke="none"/><path fill="none" stroke="black" paint-order="fill stroke markers" d=" M 71.72727272727275 124.64234090909093 L 71.72727272727275 106.94363636363636" stroke-linejoin="bevel" stroke-miterlimit="10" stroke-width="3" stroke-opacity="0.8"/></g></g></g><g clip-path="url(#ZUnxsbDqwkBa)"><g><g><path fill="none" stroke="none"/><path fill="none" stroke="black" paint-order="fill stroke markers" d=" M 229.9090909090909 132.28727272727275 L 229.9090909090909 60.56000000000006" stroke-linejoin="bevel" stroke-miterlimit="10" stroke-width="3" stroke-opacity="0.8"/></g></g></g><g clip-path="url(#FEcXffUhWLHd)"><g><g><path fill="none" stroke="none"/><path fill="none" stroke="black" paint-order="fill stroke markers" d=" M 388.09090909090907 138.98181818181826 L 388.09090909090907 79.20909090909095" stroke-linejoin="bevel" stroke-miterlimit="10" stroke-width="3" stroke-opacity="0.8"/></g></g></g><g clip-path="url(#lKSfroafNxAi)"><g><g><path fill="none" stroke="none"/><path fill="none" stroke="black" paint-order="fill stroke markers" d=" M 546.2727272727273 77.78052272727274 L 546.2727272727273 44.30181818181819" stroke-linejoin="bevel" stroke-miterlimit="10" stroke-width="3" stroke-opacity="0.8"/></g></g></g><g clip-path="url(#vgQdLRBFTPAo)"><g><g><path fill="none" stroke="none"/><path fill="none" stroke="#8c564b" paint-order="fill stroke markers" d=" M 71.72727272727275 116.02909090909094 L 229.9090909090909 117.4636363636364 L 388.09090909090907 96.90181818181827 L 546.2727272727273 60.08181818181828" stroke-linejoin="bevel" stroke-miterlimit="10" stroke-width="3" stroke-opacity="0.5"/></g></g></g><g clip-path="url(#VQHKQWSvQsTP)"><g><g><path fill="none" stroke="none"/><path fill="white" stroke="#8c564b" paint-order="fill stroke markers" d=" M 76.72727272727275 116.02909090909094 A 5 5 0 1 1 76.72727022727295 116.02409090992427" fill-opacity="0.5" stroke-linejoin="bevel" stroke-miterlimit="10" stroke-width="2" stroke-opacity="0.5"/><path fill="white" stroke="#8c564b" paint-order="fill stroke markers" d=" M 234.9090909090909 117.4636363636364 A 5 5 0 1 1 234.9090884090911 117.45863636446973" fill-opacity="0.5" stroke-linejoin="bevel" stroke-miterlimit="10" stroke-width="2" stroke-opacity="0.5"/><path fill="white" stroke="#8c564b" paint-order="fill stroke markers" d=" M 393.09090909090907 96.90181818181827 A 5 5 0 1 1 393.0909065909093 96.8968181826516" fill-opacity="0.5" stroke-linejoin="bevel" stroke-miterlimit="10" stroke-width="2" stroke-opacity="0.5"/><path fill="white" stroke="#8c564b" paint-order="fill stroke markers" d=" M 551.2727272727273 60.08181818181828 A 5 5 0 1 1 551.2727247727274 60.07681818265161" fill-opacity="0.5" stroke-linejoin="bevel" stroke-miterlimit="10" stroke-width="2" stroke-opacity="0.5"/></g></g></g><g><g fill="#444444"><path fill="" stroke="none" d=""/><g transform="translate(48,24)"><path fill="none" stroke="none"/><text fill="" stroke="none" font-family="helvetica" font-size="10pt" font-style="normal" font-weight="bold" text-decoration="normal" x="0" y="0" text-anchor="start" dominant-baseline="text-after-edge">Median tracks speed (bootstrap median, 95% CI)</text></g></g></g><g/><g><g fill="#444444"><path fill="none" stroke="black" paint-order="fill stroke markers" d=" M 48 555 L 570 555" stroke-linejoin="bevel" stroke-miterlimit="10"/><path fill="none" stroke="black" paint-order="fill stroke markers" d=" M 72 561 L 72 553" stroke-linejoin="bevel" stroke-miterlimit="10"/><path fill="none" stroke="black" paint-order="fill stroke markers" d=" M 230 561 L 230 553" stroke-linejoin="bevel" stroke-miterlimit="10"/><path fill="none" stroke="black" paint-order="fill stroke markers" d=" M 388 561 L 388 553" stroke-linejoin="bevel" stroke-miterlimit="10"/><path fill="" stroke="black" paint-order="fill stroke markers" d=" M 546 561 L 546 553" stroke-linejoin="bevel" stroke-miterlimit="10"/><g transform="translate(72,566) rotate(0,0,0)"><text fill="" stroke="none" font-family="helvetica" font-size="8pt" font-style="normal" font-weight="normal" text-decoration="normal" x="0" y="0" text-anchor="middle" dominant-baseline="hanging">0</text><g transform="rotate(0,0,0) translate(-72,-566) translate(230,566) rotate(0,0,0)"><text fill="" stroke="none" font-family="helvetica" font-size="8pt" font-style="normal" font-weight="normal" text-decoration="normal" x="0" y="0" text-anchor="middle" dominant-baseline="hanging">1</text><g transform="rotate(0,0,0) translate(-230,-566) translate(388,566) rotate(0,0,0)"><text fill="" stroke="none" font-family="helvetica" font-size="8pt" font-style="normal" font-weight="normal" text-decoration="normal" x="0" y="0" text-anchor="middle" dominant-baseline="hanging">2</text><g transform="rotate(0,0,0) translate(-388,-566) translate(546,566) rotate(0,0,0)"><text fill="" stroke="none" font-family="helvetica" font-size="8pt" font-style="normal" font-weight="normal" text-decoration="normal" x="0" y="0" text-anchor="middle" dominant-baseline="hanging">3</text><g transform="rotate(0,0,0) translate(-546,-566) translate(309,584) rotate(0,0,0)"><text fill="" stroke="none" font-family="helvetica" font-size="10pt" font-style="italic" font-weight="normal" text-decoration="normal" x="0" y="0" text-anchor="middle" dominant-baseline="hanging">Time (h)</text><g transform="rotate(0,0,0) translate(-309,-584)"/></g></g></g></g></g></g></g><g><g fill="#444444"><path fill="none" stroke="black" paint-order="fill stroke markers" d=" M 48 555 L 48 29" stroke-linejoin="bevel" stroke-miterlimit="10"/><path fill="none" stroke="black" paint-order="fill stroke markers" d=" M 42 555 L 50 555" stroke-linejoin="bevel" stroke-miterlimit="10"/><path fill="none" stroke="black" paint-order="fill stroke markers" d=" M 42 459 L 50 459" stroke-linejoin="bevel" stroke-miterlimit="10"/><path fill="none" stroke="black" paint-order="fill stroke markers" d=" M 42 364 L 50 364" stroke-linejoin="bevel" stroke-miterlimit="10"/><path fill="none" stroke="black" paint-order="fill stroke markers" d=" M 42 268 L 50 268" stroke-linejoin="bevel" stroke-miterlimit="10"/><path fill="none" stroke="black" paint-order="fill stroke markers" d=" M 42 172 L 50 172" stroke-linejoin="bevel" stroke-miterlimit="10"/><path fill="" stroke="black" paint-order="fill stroke markers" d=" M 42 77 L 50 77" stroke-linejoin="bevel" stroke-miterlimit="10"/><g transform="translate(37,555) rotate(0,0,0)"><text fill="" stroke="none" font-family="helvetica" font-size="8pt" font-style="normal" font-weight="normal" text-decoration="normal" x="0" y="0" text-anchor="end" dominant-baseline="central">0</text><g transform="rotate(0,0,0) translate(-37,-555) translate(37,459) rotate(0,0,0)"><text fill="" stroke="none" font-family="helvetica" font-size="8pt" font-style="normal" font-weight="normal" text-decoration="normal" x="0" y="0" text-anchor="end" dominant-baseline="central">0.2</text><g transform="rotate(0,0,0) translate(-37,-459) translate(37,364) rotate(0,0,0)"><text fill="" stroke="none" font-family="helvetica" font-size="8pt" font-style="normal" font-weight="normal" text-decoration="normal" x="0" y="0" text-anchor="end" dominant-baseline="central">0.4</text><g transform="rotate(0,0,0) translate(-37,-364) translate(37,268) rotate(0,0,0)"><text fill="" stroke="none" font-family="helvetica" font-size="8pt" font-style="normal" font-weight="normal" text-decoration="normal" x="0" y="0" text-anchor="end" dominant-baseline="central">0.6</text><g transform="rotate(0,0,0) translate(-37,-268) translate(37,172) rotate(0,0,0)"><text fill="" stroke="none" font-family="helvetica" font-size="8pt" font-style="normal" font-weight="normal" text-decoration="normal" x="0" y="0" text-anchor="end" dominant-baseline="central">0.8</text><g transform="rotate(0,0,0) translate(-37,-172) translate(37,77) rotate(0,0,0)"><text fill="" stroke="none" font-family="helvetica" font-size="8pt" font-style="normal" font-weight="normal" text-decoration="normal" x="0" y="0" text-anchor="end" dominant-baseline="central">1</text><g transform="rotate(0,0,0) translate(-37,-77) translate(16,292) rotate(-90,0,0)"><text fill="" stroke="none" font-family="helvetica" font-size="10pt" font-style="italic" font-weight="normal" text-decoration="normal" x="0" y="0" text-anchor="middle" dominant-baseline="alphabetic">TRACK_MEAN_SPEED (µm/s)</text><g transform="rotate(90,0,0) translate(-16,-292)"/></g></g></g></g></g></g></g></g></g><g clip-path="url(#ZzQXMSFnRBtZ)"><g/></g></g></g></svg>