<?xml version="1.0" encoding="utf-8" standalone="no"?>
<!DOCTYPE svg PUBLIC "-//W3C//DTD SVG 1.1//EN"
  "http://www.w3.org/Graphics/SVG/1.1/DTD/svg11.dtd">
<!-- Created with matplotlib (https://matplotlib.org/) -->
<svg height="432pt" version="1.1" viewBox="0 0 720 432" width="720pt" xmlns="http://www.w3.org/2000/svg" xmlns:xlink="http://www.w3.org/1999/xlink">
 <defs>
  <style type="text/css">
*{stroke-linecap:butt;stroke-linejoin:round;}
  </style>
 </defs>
 <g id="figure_1">
  <g id="patch_1">
   <path d="M 0 432 
L 720 432 
L 720 0 
L 0 0 
z
" style="fill:#ffffff;"/>
  </g>
  <g id="axes_1">
   <g id="patch_2">
    <path d="M 532.8 216 
C 532.8 193.308112 528.330193 170.836874 519.646383 149.872303 
C 510.962574 128.907732 498.23364 109.857536 482.188052 93.811948 
C 466.142464 77.76636 447.092268 65.037426 426.127697 56.353617 
C 405.163126 47.669807 382.691888 43.2 360 43.2 
C 337.308112 43.2 314.836874 47.669807 293.872303 56.353617 
C 272.907732 65.037426 253.857536 77.76636 237.811948 93.811948 
C 221.76636 109.857536 209.037426 128.907732 200.353617 149.872303 
C 191.669807 170.836874 187.2 193.308112 187.2 216 
C 187.2 238.691888 191.669807 261.163126 200.353617 282.127697 
C 209.037426 303.092268 221.76636 322.142464 237.811948 338.188052 
C 253.857536 354.23364 272.907732 366.962574 293.872303 375.646383 
C 314.836874 384.330193 337.308112 388.8 360 388.8 
C 382.691888 388.8 405.163126 384.330193 426.127697 375.646383 
C 447.092268 366.962574 466.142464 354.23364 482.188052 338.188052 
C 498.23364 322.142464 510.962574 303.092268 519.646383 282.127697 
C 528.330193 261.163126 532.8 238.691888 532.8 216 
M 360 216 
C 360 216 360 216 360 216 
C 360 216 360 216 360 216 
C 360 216 360 216 360 216 
C 360 216 360 216 360 216 
C 360 216 360 216 360 216 
C 360 216 360 216 360 216 
C 360 216 360 216 360 216 
C 360 216 360 216 360 216 
C 360 216 360 216 360 216 
C 360 216 360 216 360 216 
C 360 216 360 216 360 216 
C 360 216 360 216 360 216 
C 360 216 360 216 360 216 
C 360 216 360 216 360 216 
C 360 216 360 216 360 216 
C 360 216 360 216 360 216 
M 532.8 216 
z
" style="fill:#ffffff;"/>
   </g>
   <g id="patch_3">
    <path clip-path="url(#p01e0cd8f54)" d="M 518.4 216 
L 281.454545 79.955282 
L 273.6 365.64919 
L 475.2 216 
z
" style="fill:#0000ff;opacity:0.1;"/>
   </g>
   <g id="matplotlib.axis_1">
    <g id="xtick_1">
     <g id="line2d_1">
      <path clip-path="url(#p01e0cd8f54)" d="M 360 216 
L 532.8 216 
" style="fill:none;stroke:#b0b0b0;stroke-linecap:square;stroke-width:0.8;"/>
     </g>
     <g id="text_1">
      <!-- 2_pili -->
      <defs>
       <path d="M 19.1875 8.296875 
L 53.609375 8.296875 
L 53.609375 0 
L 7.328125 0 
L 7.328125 8.296875 
Q 12.9375 14.109375 22.625 23.890625 
Q 32.328125 33.6875 34.8125 36.53125 
Q 39.546875 41.84375 41.421875 45.53125 
Q 43.3125 49.21875 43.3125 52.78125 
Q 43.3125 58.59375 39.234375 62.25 
Q 35.15625 65.921875 28.609375 65.921875 
Q 23.96875 65.921875 18.8125 64.3125 
Q 13.671875 62.703125 7.8125 59.421875 
L 7.8125 69.390625 
Q 13.765625 71.78125 18.9375 73 
Q 24.125 74.21875 28.421875 74.21875 
Q 39.75 74.21875 46.484375 68.546875 
Q 53.21875 62.890625 53.21875 53.421875 
Q 53.21875 48.921875 51.53125 44.890625 
Q 49.859375 40.875 45.40625 35.40625 
Q 44.1875 33.984375 37.640625 27.21875 
Q 31.109375 20.453125 19.1875 8.296875 
z
" id="DejaVuSans-50"/>
       <path d="M 50.984375 -16.609375 
L 50.984375 -23.578125 
L -0.984375 -23.578125 
L -0.984375 -16.609375 
z
" id="DejaVuSans-95"/>
       <path d="M 18.109375 8.203125 
L 18.109375 -20.796875 
L 9.078125 -20.796875 
L 9.078125 54.6875 
L 18.109375 54.6875 
L 18.109375 46.390625 
Q 20.953125 51.265625 25.265625 53.625 
Q 29.59375 56 35.59375 56 
Q 45.5625 56 51.78125 48.09375 
Q 58.015625 40.1875 58.015625 27.296875 
Q 58.015625 14.40625 51.78125 6.484375 
Q 45.5625 -1.421875 35.59375 -1.421875 
Q 29.59375 -1.421875 25.265625 0.953125 
Q 20.953125 3.328125 18.109375 8.203125 
z
M 48.6875 27.296875 
Q 48.6875 37.203125 44.609375 42.84375 
Q 40.53125 48.484375 33.40625 48.484375 
Q 26.265625 48.484375 22.1875 42.84375 
Q 18.109375 37.203125 18.109375 27.296875 
Q 18.109375 17.390625 22.1875 11.75 
Q 26.265625 6.109375 33.40625 6.109375 
Q 40.53125 6.109375 44.609375 11.75 
Q 48.6875 17.390625 48.6875 27.296875 
z
" id="DejaVuSans-112"/>
       <path d="M 9.421875 54.6875 
L 18.40625 54.6875 
L 18.40625 0 
L 9.421875 0 
z
M 9.421875 75.984375 
L 18.40625 75.984375 
L 18.40625 64.59375 
L 9.421875 64.59375 
z
" id="DejaVuSans-105"/>
       <path d="M 9.421875 75.984375 
L 18.40625 75.984375 
L 18.40625 0 
L 9.421875 0 
z
" id="DejaVuSans-108"/>
      </defs>
      <g transform="translate(533.777344 218.620313)scale(0.1 -0.1)">
       <use xlink:href="#DejaVuSans-50"/>
       <use x="63.623047" xlink:href="#DejaVuSans-95"/>
       <use x="113.623047" xlink:href="#DejaVuSans-112"/>
       <use x="177.099609" xlink:href="#DejaVuSans-105"/>
       <use x="204.882812" xlink:href="#DejaVuSans-108"/>
       <use x="232.666016" xlink:href="#DejaVuSans-105"/>
      </g>
     </g>
    </g>
    <g id="xtick_2">
     <g id="line2d_2">
      <path clip-path="url(#p01e0cd8f54)" d="M 360 216 
L 273.6 66.35081 
" style="fill:none;stroke:#b0b0b0;stroke-linecap:square;stroke-width:0.8;"/>
     </g>
     <g id="text_2">
      <!-- 3_pili -->
      <defs>
       <path d="M 40.578125 39.3125 
Q 47.65625 37.796875 51.625 33 
Q 55.609375 28.21875 55.609375 21.1875 
Q 55.609375 10.40625 48.1875 4.484375 
Q 40.765625 -1.421875 27.09375 -1.421875 
Q 22.515625 -1.421875 17.65625 -0.515625 
Q 12.796875 0.390625 7.625 2.203125 
L 7.625 11.71875 
Q 11.71875 9.328125 16.59375 8.109375 
Q 21.484375 6.890625 26.8125 6.890625 
Q 36.078125 6.890625 40.9375 10.546875 
Q 45.796875 14.203125 45.796875 21.1875 
Q 45.796875 27.640625 41.28125 31.265625 
Q 36.765625 34.90625 28.71875 34.90625 
L 20.21875 34.90625 
L 20.21875 43.015625 
L 29.109375 43.015625 
Q 36.375 43.015625 40.234375 45.921875 
Q 44.09375 48.828125 44.09375 54.296875 
Q 44.09375 59.90625 40.109375 62.90625 
Q 36.140625 65.921875 28.71875 65.921875 
Q 24.65625 65.921875 20.015625 65.03125 
Q 15.375 64.15625 9.8125 62.3125 
L 9.8125 71.09375 
Q 15.4375 72.65625 20.34375 73.4375 
Q 25.25 74.21875 29.59375 74.21875 
Q 40.828125 74.21875 47.359375 69.109375 
Q 53.90625 64.015625 53.90625 55.328125 
Q 53.90625 49.265625 50.4375 45.09375 
Q 46.96875 40.921875 40.578125 39.3125 
z
" id="DejaVuSans-51"/>
      </defs>
      <g transform="translate(253.577344 56.846767)scale(0.1 -0.1)">
       <use xlink:href="#DejaVuSans-51"/>
       <use x="63.623047" xlink:href="#DejaVuSans-95"/>
       <use x="113.623047" xlink:href="#DejaVuSans-112"/>
       <use x="177.099609" xlink:href="#DejaVuSans-105"/>
       <use x="204.882812" xlink:href="#DejaVuSans-108"/>
       <use x="232.666016" xlink:href="#DejaVuSans-105"/>
      </g>
     </g>
    </g>
    <g id="xtick_3">
     <g id="line2d_3">
      <path clip-path="url(#p01e0cd8f54)" d="M 360 216 
L 273.6 365.64919 
" style="fill:none;stroke:#b0b0b0;stroke-linecap:square;stroke-width:0.8;"/>
     </g>
     <g id="text_3">
      <!-- 4_pili -->
      <defs>
       <path d="M 37.796875 64.3125 
L 12.890625 25.390625 
L 37.796875 25.390625 
z
M 35.203125 72.90625 
L 47.609375 72.90625 
L 47.609375 25.390625 
L 58.015625 25.390625 
L 58.015625 17.1875 
L 47.609375 17.1875 
L 47.609375 0 
L 37.796875 0 
L 37.796875 17.1875 
L 4.890625 17.1875 
L 4.890625 26.703125 
z
" id="DejaVuSans-52"/>
      </defs>
      <g transform="translate(253.577344 380.393858)scale(0.1 -0.1)">
       <use xlink:href="#DejaVuSans-52"/>
       <use x="63.623047" xlink:href="#DejaVuSans-95"/>
       <use x="113.623047" xlink:href="#DejaVuSans-112"/>
       <use x="177.099609" xlink:href="#DejaVuSans-105"/>
       <use x="204.882812" xlink:href="#DejaVuSans-108"/>
       <use x="232.666016" xlink:href="#DejaVuSans-105"/>
      </g>
     </g>
    </g>
   </g>
   <g id="matplotlib.axis_2">
    <g id="ytick_1">
     <g id="line2d_4">
      <path clip-path="url(#p01e0cd8f54)" d="M 394.56 216 
L 394.475814 213.589216 
L 394.223664 211.190178 
L 393.804781 208.814572 
L 393.221204 206.473973 
L 392.475777 204.179784 
L 391.572131 201.943182 
L 390.514669 199.775063 
L 389.308542 197.68599 
L 387.959627 195.686142 
L 386.474496 193.78526 
L 384.860383 191.992607 
L 383.125154 190.316915 
L 381.277261 188.766348 
L 379.325707 187.348461 
L 377.28 186.070162 
L 375.150107 184.937678 
L 372.946404 183.956526 
L 370.679627 183.131487 
L 368.360821 182.46658 
L 366.001281 181.965044 
L 363.612504 181.629323 
L 361.206127 181.461053 
L 358.793873 181.461053 
L 356.387496 181.629323 
L 353.998719 181.965044 
L 351.639179 182.46658 
L 349.320373 183.131487 
L 347.053596 183.956526 
L 344.849893 184.937678 
L 342.72 186.070162 
L 340.674293 187.348461 
L 338.722739 188.766348 
L 336.874846 190.316915 
L 335.139617 191.992607 
L 333.525504 193.78526 
L 332.040373 195.686142 
L 330.691458 197.68599 
L 329.485331 199.775063 
L 328.427869 201.943182 
L 327.524223 204.179784 
L 326.778796 206.473973 
L 326.195219 208.814572 
L 325.776336 211.190178 
L 325.524186 213.589216 
L 325.44 216 
L 325.524186 218.410784 
L 325.776336 220.809822 
L 326.195219 223.185428 
L 326.778796 225.526027 
L 327.524223 227.820216 
L 328.427869 230.056818 
L 329.485331 232.224937 
L 330.691458 234.31401 
L 332.040373 236.313858 
L 333.525504 238.21474 
L 335.139617 240.007393 
L 336.874846 241.683085 
L 338.722739 243.233652 
L 340.674293 244.651539 
L 342.72 245.929838 
L 344.849893 247.062322 
L 347.053596 248.043474 
L 349.320373 248.868513 
L 351.639179 249.53342 
L 353.998719 250.034956 
L 356.387496 250.370677 
L 358.793873 250.538947 
L 361.206127 250.538947 
L 363.612504 250.370677 
L 366.001281 250.034956 
L 368.360821 249.53342 
L 370.679627 248.868513 
L 372.946404 248.043474 
L 375.150107 247.062322 
L 377.28 245.929838 
L 379.325707 244.651539 
L 381.277261 243.233652 
L 383.125154 241.683085 
L 384.860383 240.007393 
L 386.474496 238.21474 
L 387.959627 236.313858 
L 389.308542 234.31401 
L 390.514669 232.224937 
L 391.572131 230.056818 
L 392.475777 227.820216 
L 393.221204 225.526027 
L 393.804781 223.185428 
L 394.223664 220.809822 
L 394.475814 218.410784 
L 394.56 216 
L 394.56 216 
" style="fill:none;stroke:#b0b0b0;stroke-linecap:square;stroke-width:0.8;"/>
     </g>
     <g id="text_4">
      <!-- 0.2 -->
      <defs>
       <path d="M 31.78125 66.40625 
Q 24.171875 66.40625 20.328125 58.90625 
Q 16.5 51.421875 16.5 36.375 
Q 16.5 21.390625 20.328125 13.890625 
Q 24.171875 6.390625 31.78125 6.390625 
Q 39.453125 6.390625 43.28125 13.890625 
Q 47.125 21.390625 47.125 36.375 
Q 47.125 51.421875 43.28125 58.90625 
Q 39.453125 66.40625 31.78125 66.40625 
z
M 31.78125 74.21875 
Q 44.046875 74.21875 50.515625 64.515625 
Q 56.984375 54.828125 56.984375 36.375 
Q 56.984375 17.96875 50.515625 8.265625 
Q 44.046875 -1.421875 31.78125 -1.421875 
Q 19.53125 -1.421875 13.0625 8.265625 
Q 6.59375 17.96875 6.59375 36.375 
Q 6.59375 54.828125 13.0625 64.515625 
Q 19.53125 74.21875 31.78125 74.21875 
z
" id="DejaVuSans-48"/>
       <path d="M 10.6875 12.40625 
L 21 12.40625 
L 21 0 
L 10.6875 0 
z
" id="DejaVuSans-46"/>
      </defs>
      <g transform="translate(391.929277 200.694773)scale(0.1 -0.1)">
       <use xlink:href="#DejaVuSans-48"/>
       <use x="63.623047" xlink:href="#DejaVuSans-46"/>
       <use x="95.410156" xlink:href="#DejaVuSans-50"/>
      </g>
     </g>
    </g>
    <g id="ytick_2">
     <g id="line2d_5">
      <path clip-path="url(#p01e0cd8f54)" d="M 429.12 216 
L 428.951627 211.178433 
L 428.447329 206.380355 
L 427.609562 201.629144 
L 426.442408 196.947946 
L 424.951554 192.359568 
L 423.144262 187.886363 
L 421.029338 183.550126 
L 418.617084 179.37198 
L 415.919255 175.372283 
L 412.948992 171.57052 
L 409.720767 167.985213 
L 406.250308 164.63383 
L 402.554521 161.532697 
L 398.651413 158.696923 
L 394.56 156.140324 
L 390.300214 153.875356 
L 385.892808 151.913052 
L 381.359255 150.262974 
L 376.721641 148.933159 
L 372.002562 147.930088 
L 367.225007 147.258647 
L 362.412253 146.922106 
L 357.587747 146.922106 
L 352.774993 147.258647 
L 347.997438 147.930088 
L 343.278359 148.933159 
L 338.640745 150.262974 
L 334.107192 151.913052 
L 329.699786 153.875356 
L 325.44 156.140324 
L 321.348587 158.696923 
L 317.445479 161.532697 
L 313.749692 164.63383 
L 310.279233 167.985213 
L 307.051008 171.57052 
L 304.080745 175.372283 
L 301.382916 179.37198 
L 298.970662 183.550126 
L 296.855738 187.886363 
L 295.048446 192.359568 
L 293.557592 196.947946 
L 292.390438 201.629144 
L 291.552671 206.380355 
L 291.048373 211.178433 
L 290.88 216 
L 291.048373 220.821567 
L 291.552671 225.619645 
L 292.390438 230.370856 
L 293.557592 235.052054 
L 295.048446 239.640432 
L 296.855738 244.113637 
L 298.970662 248.449874 
L 301.382916 252.62802 
L 304.080745 256.627717 
L 307.051008 260.42948 
L 310.279233 264.014787 
L 313.749692 267.36617 
L 317.445479 270.467303 
L 321.348587 273.303077 
L 325.44 275.859676 
L 329.699786 278.124644 
L 334.107192 280.086948 
L 338.640745 281.737026 
L 343.278359 283.066841 
L 347.997438 284.069912 
L 352.774993 284.741353 
L 357.587747 285.077894 
L 362.412253 285.077894 
L 367.225007 284.741353 
L 372.002562 284.069912 
L 376.721641 283.066841 
L 381.359255 281.737026 
L 385.892808 280.086948 
L 390.300214 278.124644 
L 394.56 275.859676 
L 398.651413 273.303077 
L 402.554521 270.467303 
L 406.250308 267.36617 
L 409.720767 264.014787 
L 412.948992 260.42948 
L 415.919255 256.627717 
L 418.617084 252.62802 
L 421.029338 248.449874 
L 423.144262 244.113637 
L 424.951554 239.640432 
L 426.442408 235.052054 
L 427.609562 230.370856 
L 428.447329 225.619645 
L 428.951627 220.821567 
L 429.12 216 
L 429.12 216 
" style="fill:none;stroke:#b0b0b0;stroke-linecap:square;stroke-width:0.8;"/>
     </g>
     <g id="text_5">
      <!-- 0.4 -->
      <g transform="translate(423.858553 187.469234)scale(0.1 -0.1)">
       <use xlink:href="#DejaVuSans-48"/>
       <use x="63.623047" xlink:href="#DejaVuSans-46"/>
       <use x="95.410156" xlink:href="#DejaVuSans-52"/>
      </g>
     </g>
    </g>
    <g id="ytick_3">
     <g id="line2d_6">
      <path clip-path="url(#p01e0cd8f54)" d="M 463.68 216 
L 463.616841 212.38162 
L 463.427441 208.767649 
L 463.11203 205.162489 
L 462.670993 201.570533 
L 462.104868 197.996157 
L 461.414343 194.443716 
L 460.600261 190.917538 
L 459.663613 187.421919 
L 458.60554 183.961118 
L 457.427331 180.539352 
L 456.130422 177.160788 
L 454.716393 173.829545 
L 453.186967 170.54968 
L 451.544006 167.325188 
L 449.789514 164.16 
L 447.925627 161.057971 
L 445.954616 158.02288 
L 443.878882 155.058425 
L 441.700955 152.168218 
L 439.423488 149.355781 
L 437.049256 146.624539 
L 434.58115 143.97782 
L 432.02218 141.41885 
L 429.375461 138.950744 
L 426.644219 136.576512 
L 423.831782 134.299045 
L 420.941575 132.121118 
L 417.97712 130.045384 
L 414.942029 128.074373 
L 411.84 126.210486 
L 408.674812 124.455994 
L 405.45032 122.813033 
L 402.170455 121.283607 
L 398.839212 119.869578 
L 395.460648 118.572669 
L 392.038882 117.39446 
L 388.578081 116.336387 
L 385.082462 115.399739 
L 381.556284 114.585657 
L 378.003843 113.895132 
L 374.429467 113.329007 
L 370.837511 112.88797 
L 367.232351 112.572559 
L 363.61838 112.383159 
L 360 112.32 
L 356.38162 112.383159 
L 352.767649 112.572559 
L 349.162489 112.88797 
L 345.570533 113.329007 
L 341.996157 113.895132 
L 338.443716 114.585657 
L 334.917538 115.399739 
L 331.421919 116.336387 
L 327.961118 117.39446 
L 324.539352 118.572669 
L 321.160788 119.869578 
L 317.829545 121.283607 
L 314.54968 122.813033 
L 311.325188 124.455994 
L 308.16 126.210486 
L 305.057971 128.074373 
L 302.02288 130.045384 
L 299.058425 132.121118 
L 296.168218 134.299045 
L 293.355781 136.576512 
L 290.624539 138.950744 
L 287.97782 141.41885 
L 285.41885 143.97782 
L 282.950744 146.624539 
L 280.576512 149.355781 
L 278.299045 152.168218 
L 276.121118 155.058425 
L 274.045384 158.02288 
L 272.074373 161.057971 
L 270.210486 164.16 
L 268.455994 167.325188 
L 266.813033 170.54968 
L 265.283607 173.829545 
L 263.869578 177.160788 
L 262.572669 180.539352 
L 261.39446 183.961118 
L 260.336387 187.421919 
L 259.399739 190.917538 
L 258.585657 194.443716 
L 257.895132 197.996157 
L 257.329007 201.570533 
L 256.88797 205.162489 
L 256.572559 208.767649 
L 256.383159 212.38162 
L 256.32 216 
L 256.383159 219.61838 
L 256.572559 223.232351 
L 256.88797 226.837511 
L 257.329007 230.429467 
L 257.895132 234.003843 
L 258.585657 237.556284 
L 259.399739 241.082462 
L 260.336387 244.578081 
L 261.39446 248.038882 
L 262.572669 251.460648 
L 263.869578 254.839212 
L 265.283607 258.170455 
L 266.813033 261.45032 
L 268.455994 264.674812 
L 270.210486 267.84 
L 272.074373 270.942029 
L 274.045384 273.97712 
L 276.121118 276.941575 
L 278.299045 279.831782 
L 280.576512 282.644219 
L 282.950744 285.375461 
L 285.41885 288.02218 
L 287.97782 290.58115 
L 290.624539 293.049256 
L 293.355781 295.423488 
L 296.168218 297.700955 
L 299.058425 299.878882 
L 302.02288 301.954616 
L 305.057971 303.925627 
L 308.16 305.789514 
L 311.325188 307.544006 
L 314.54968 309.186967 
L 317.829545 310.716393 
L 321.160788 312.130422 
L 324.539352 313.427331 
L 327.961118 314.60554 
L 331.421919 315.663613 
L 334.917538 316.600261 
L 338.443716 317.414343 
L 341.996157 318.104868 
L 345.570533 318.670993 
L 349.162489 319.11203 
L 352.767649 319.427441 
L 356.38162 319.616841 
L 360 319.68 
L 363.61838 319.616841 
L 367.232351 319.427441 
L 370.837511 319.11203 
L 374.429467 318.670993 
L 378.003843 318.104868 
L 381.556284 317.414343 
L 385.082462 316.600261 
L 388.578081 315.663613 
L 392.038882 314.60554 
L 395.460648 313.427331 
L 398.839212 312.130422 
L 402.170455 310.716393 
L 405.45032 309.186967 
L 408.674812 307.544006 
L 411.84 305.789514 
L 414.942029 303.925627 
L 417.97712 301.954616 
L 420.941575 299.878882 
L 423.831782 297.700955 
L 426.644219 295.423488 
L 429.375461 293.049256 
L 432.02218 290.58115 
L 434.58115 288.02218 
L 437.049256 285.375461 
L 439.423488 282.644219 
L 441.700955 279.831782 
L 443.878882 276.941575 
L 445.954616 273.97712 
L 447.925627 270.942029 
L 449.789514 267.84 
L 451.544006 264.674812 
L 453.186967 261.45032 
L 454.716393 258.170455 
L 456.130422 254.839212 
L 457.427331 251.460648 
L 458.60554 248.038882 
L 459.663613 244.578081 
L 460.600261 241.082462 
L 461.414343 237.556284 
L 462.104868 234.003843 
L 462.670993 230.429467 
L 463.11203 226.837511 
L 463.427441 223.232351 
L 463.616841 219.61838 
L 463.68 216 
L 463.68 216 
" style="fill:none;stroke:#b0b0b0;stroke-linecap:square;stroke-width:0.8;"/>
     </g>
     <g id="text_6">
      <!-- 0.6 -->
      <defs>
       <path d="M 33.015625 40.375 
Q 26.375 40.375 22.484375 35.828125 
Q 18.609375 31.296875 18.609375 23.390625 
Q 18.609375 15.53125 22.484375 10.953125 
Q 26.375 6.390625 33.015625 6.390625 
Q 39.65625 6.390625 43.53125 10.953125 
Q 47.40625 15.53125 47.40625 23.390625 
Q 47.40625 31.296875 43.53125 35.828125 
Q 39.65625 40.375 33.015625 40.375 
z
M 52.59375 71.296875 
L 52.59375 62.3125 
Q 48.875 64.0625 45.09375 64.984375 
Q 41.3125 65.921875 37.59375 65.921875 
Q 27.828125 65.921875 22.671875 59.328125 
Q 17.53125 52.734375 16.796875 39.40625 
Q 19.671875 43.65625 24.015625 45.921875 
Q 28.375 48.1875 33.59375 48.1875 
Q 44.578125 48.1875 50.953125 41.515625 
Q 57.328125 34.859375 57.328125 23.390625 
Q 57.328125 12.15625 50.6875 5.359375 
Q 44.046875 -1.421875 33.015625 -1.421875 
Q 20.359375 -1.421875 13.671875 8.265625 
Q 6.984375 17.96875 6.984375 36.375 
Q 6.984375 53.65625 15.1875 63.9375 
Q 23.390625 74.21875 37.203125 74.21875 
Q 40.921875 74.21875 44.703125 73.484375 
Q 48.484375 72.75 52.59375 71.296875 
z
" id="DejaVuSans-54"/>
      </defs>
      <g transform="translate(455.78783 174.243694)scale(0.1 -0.1)">
       <use xlink:href="#DejaVuSans-48"/>
       <use x="63.623047" xlink:href="#DejaVuSans-46"/>
       <use x="95.410156" xlink:href="#DejaVuSans-54"/>
      </g>
     </g>
    </g>
    <g id="ytick_4">
     <g id="line2d_7">
      <path clip-path="url(#p01e0cd8f54)" d="M 498.24 216 
L 498.155788 211.175494 
L 497.903254 206.356865 
L 497.482707 201.549985 
L 496.894658 196.760711 
L 496.139824 191.994876 
L 495.219124 187.258288 
L 494.133681 182.556717 
L 492.884817 177.895892 
L 491.474053 173.281491 
L 489.903108 168.719135 
L 488.173896 164.214385 
L 486.288524 159.772726 
L 484.249289 155.399573 
L 482.058675 151.100251 
L 479.719352 146.88 
L 477.234169 142.743961 
L 474.606154 138.697173 
L 471.838509 134.744567 
L 468.934607 130.890958 
L 465.897984 127.141041 
L 462.732341 123.499385 
L 459.441534 119.970427 
L 456.029573 116.558466 
L 452.500615 113.267659 
L 448.858959 110.102016 
L 445.109042 107.065393 
L 441.255433 104.161491 
L 437.302827 101.393846 
L 433.256039 98.765831 
L 429.12 96.280648 
L 424.899749 93.941325 
L 420.600427 91.750711 
L 416.227274 89.711476 
L 411.785615 87.826104 
L 407.280865 86.096892 
L 402.718509 84.525947 
L 398.104108 83.115183 
L 393.443283 81.866319 
L 388.741712 80.780876 
L 384.005124 79.860176 
L 379.239289 79.105342 
L 374.450015 78.517293 
L 369.643135 78.096746 
L 364.824506 77.844212 
L 360 77.76 
L 355.175494 77.844212 
L 350.356865 78.096746 
L 345.549985 78.517293 
L 340.760711 79.105342 
L 335.994876 79.860176 
L 331.258288 80.780876 
L 326.556717 81.866319 
L 321.895892 83.115183 
L 317.281491 84.525947 
L 312.719135 86.096892 
L 308.214385 87.826104 
L 303.772726 89.711476 
L 299.399573 91.750711 
L 295.100251 93.941325 
L 290.88 96.280648 
L 286.743961 98.765831 
L 282.697173 101.393846 
L 278.744567 104.161491 
L 274.890958 107.065393 
L 271.141041 110.102016 
L 267.499385 113.267659 
L 263.970427 116.558466 
L 260.558466 119.970427 
L 257.267659 123.499385 
L 254.102016 127.141041 
L 251.065393 130.890958 
L 248.161491 134.744567 
L 245.393846 138.697173 
L 242.765831 142.743961 
L 240.280648 146.88 
L 237.941325 151.100251 
L 235.750711 155.399573 
L 233.711476 159.772726 
L 231.826104 164.214385 
L 230.096892 168.719135 
L 228.525947 173.281491 
L 227.115183 177.895892 
L 225.866319 182.556717 
L 224.780876 187.258288 
L 223.860176 191.994876 
L 223.105342 196.760711 
L 222.517293 201.549985 
L 222.096746 206.356865 
L 221.844212 211.175494 
L 221.76 216 
L 221.844212 220.824506 
L 222.096746 225.643135 
L 222.517293 230.450015 
L 223.105342 235.239289 
L 223.860176 240.005124 
L 224.780876 244.741712 
L 225.866319 249.443283 
L 227.115183 254.104108 
L 228.525947 258.718509 
L 230.096892 263.280865 
L 231.826104 267.785615 
L 233.711476 272.227274 
L 235.750711 276.600427 
L 237.941325 280.899749 
L 240.280648 285.12 
L 242.765831 289.256039 
L 245.393846 293.302827 
L 248.161491 297.255433 
L 251.065393 301.109042 
L 254.102016 304.858959 
L 257.267659 308.500615 
L 260.558466 312.029573 
L 263.970427 315.441534 
L 267.499385 318.732341 
L 271.141041 321.897984 
L 274.890958 324.934607 
L 278.744567 327.838509 
L 282.697173 330.606154 
L 286.743961 333.234169 
L 290.88 335.719352 
L 295.100251 338.058675 
L 299.399573 340.249289 
L 303.772726 342.288524 
L 308.214385 344.173896 
L 312.719135 345.903108 
L 317.281491 347.474053 
L 321.895892 348.884817 
L 326.556717 350.133681 
L 331.258288 351.219124 
L 335.994876 352.139824 
L 340.760711 352.894658 
L 345.549985 353.482707 
L 350.356865 353.903254 
L 355.175494 354.155788 
L 360 354.24 
L 364.824506 354.155788 
L 369.643135 353.903254 
L 374.450015 353.482707 
L 379.239289 352.894658 
L 384.005124 352.139824 
L 388.741712 351.219124 
L 393.443283 350.133681 
L 398.104108 348.884817 
L 402.718509 347.474053 
L 407.280865 345.903108 
L 411.785615 344.173896 
L 416.227274 342.288524 
L 420.600427 340.249289 
L 424.899749 338.058675 
L 429.12 335.719352 
L 433.256039 333.234169 
L 437.302827 330.606154 
L 441.255433 327.838509 
L 445.109042 324.934607 
L 448.858959 321.897984 
L 452.500615 318.732341 
L 456.029573 315.441534 
L 459.441534 312.029573 
L 462.732341 308.500615 
L 465.897984 304.858959 
L 468.934607 301.109042 
L 471.838509 297.255433 
L 474.606154 293.302827 
L 477.234169 289.256039 
L 479.719352 285.12 
L 482.058675 280.899749 
L 484.249289 276.600427 
L 486.288524 272.227274 
L 488.173896 267.785615 
L 489.903108 263.280865 
L 491.474053 258.718509 
L 492.884817 254.104108 
L 494.133681 249.443283 
L 495.219124 244.741712 
L 496.139824 240.005124 
L 496.894658 235.239289 
L 497.482707 230.450015 
L 497.903254 225.643135 
L 498.155788 220.824506 
L 498.24 216 
L 498.24 216 
" style="fill:none;stroke:#b0b0b0;stroke-linecap:square;stroke-width:0.8;"/>
     </g>
     <g id="text_7">
      <!-- 0.8 -->
      <defs>
       <path d="M 31.78125 34.625 
Q 24.75 34.625 20.71875 30.859375 
Q 16.703125 27.09375 16.703125 20.515625 
Q 16.703125 13.921875 20.71875 10.15625 
Q 24.75 6.390625 31.78125 6.390625 
Q 38.8125 6.390625 42.859375 10.171875 
Q 46.921875 13.96875 46.921875 20.515625 
Q 46.921875 27.09375 42.890625 30.859375 
Q 38.875 34.625 31.78125 34.625 
z
M 21.921875 38.8125 
Q 15.578125 40.375 12.03125 44.71875 
Q 8.5 49.078125 8.5 55.328125 
Q 8.5 64.0625 14.71875 69.140625 
Q 20.953125 74.21875 31.78125 74.21875 
Q 42.671875 74.21875 48.875 69.140625 
Q 55.078125 64.0625 55.078125 55.328125 
Q 55.078125 49.078125 51.53125 44.71875 
Q 48 40.375 41.703125 38.8125 
Q 48.828125 37.15625 52.796875 32.3125 
Q 56.78125 27.484375 56.78125 20.515625 
Q 56.78125 9.90625 50.3125 4.234375 
Q 43.84375 -1.421875 31.78125 -1.421875 
Q 19.734375 -1.421875 13.25 4.234375 
Q 6.78125 9.90625 6.78125 20.515625 
Q 6.78125 27.484375 10.78125 32.3125 
Q 14.796875 37.15625 21.921875 38.8125 
z
M 18.3125 54.390625 
Q 18.3125 48.734375 21.84375 45.5625 
Q 25.390625 42.390625 31.78125 42.390625 
Q 38.140625 42.390625 41.71875 45.5625 
Q 45.3125 48.734375 45.3125 54.390625 
Q 45.3125 60.0625 41.71875 63.234375 
Q 38.140625 66.40625 31.78125 66.40625 
Q 25.390625 66.40625 21.84375 63.234375 
Q 18.3125 60.0625 18.3125 54.390625 
z
" id="DejaVuSans-56"/>
      </defs>
      <g transform="translate(487.717107 161.018155)scale(0.1 -0.1)">
       <use xlink:href="#DejaVuSans-48"/>
       <use x="63.623047" xlink:href="#DejaVuSans-46"/>
       <use x="95.410156" xlink:href="#DejaVuSans-56"/>
      </g>
     </g>
    </g>
    <g id="ytick_5">
     <g id="line2d_8">
      <path clip-path="url(#p01e0cd8f54)" d="M 532.8 216 
L 532.694735 209.969367 
L 532.379068 203.946081 
L 531.853384 197.937482 
L 531.118322 191.950888 
L 530.17478 185.993595 
L 529.023905 180.07286 
L 527.667102 174.195896 
L 526.106021 168.369865 
L 524.342566 162.601863 
L 522.378885 156.898919 
L 520.21737 151.267981 
L 517.860655 145.715908 
L 515.311611 140.249466 
L 512.573344 134.875314 
L 509.64919 129.6 
L 506.542711 124.429951 
L 503.257693 119.371466 
L 499.798137 114.430708 
L 496.168258 109.613697 
L 492.37248 104.926301 
L 488.415426 100.374231 
L 484.301917 95.963034 
L 480.036966 91.698083 
L 475.625769 87.584574 
L 471.073699 83.62752 
L 466.386303 79.831742 
L 461.569292 76.201863 
L 456.628534 72.742307 
L 451.570049 69.457289 
L 446.4 66.35081 
L 441.124686 63.426656 
L 435.750534 60.688389 
L 430.284092 58.139345 
L 424.732019 55.78263 
L 419.101081 53.621115 
L 413.398137 51.657434 
L 407.630135 49.893979 
L 401.804104 48.332898 
L 395.92714 46.976095 
L 390.006405 45.82522 
L 384.049112 44.881678 
L 378.062518 44.146616 
L 372.053919 43.620932 
L 366.030633 43.305265 
L 360 43.2 
L 353.969367 43.305265 
L 347.946081 43.620932 
L 341.937482 44.146616 
L 335.950888 44.881678 
L 329.993595 45.82522 
L 324.07286 46.976095 
L 318.195896 48.332898 
L 312.369865 49.893979 
L 306.601863 51.657434 
L 300.898919 53.621115 
L 295.267981 55.78263 
L 289.715908 58.139345 
L 284.249466 60.688389 
L 278.875314 63.426656 
L 273.6 66.35081 
L 268.429951 69.457289 
L 263.371466 72.742307 
L 258.430708 76.201863 
L 253.613697 79.831742 
L 248.926301 83.62752 
L 244.374231 87.584574 
L 239.963034 91.698083 
L 235.698083 95.963034 
L 231.584574 100.374231 
L 227.62752 104.926301 
L 223.831742 109.613697 
L 220.201863 114.430708 
L 216.742307 119.371466 
L 213.457289 124.429951 
L 210.35081 129.6 
L 207.426656 134.875314 
L 204.688389 140.249466 
L 202.139345 145.715908 
L 199.78263 151.267981 
L 197.621115 156.898919 
L 195.657434 162.601863 
L 193.893979 168.369865 
L 192.332898 174.195896 
L 190.976095 180.07286 
L 189.82522 185.993595 
L 188.881678 191.950888 
L 188.146616 197.937482 
L 187.620932 203.946081 
L 187.305265 209.969367 
L 187.2 216 
L 187.305265 222.030633 
L 187.620932 228.053919 
L 188.146616 234.062518 
L 188.881678 240.049112 
L 189.82522 246.006405 
L 190.976095 251.92714 
L 192.332898 257.804104 
L 193.893979 263.630135 
L 195.657434 269.398137 
L 197.621115 275.101081 
L 199.78263 280.732019 
L 202.139345 286.284092 
L 204.688389 291.750534 
L 207.426656 297.124686 
L 210.35081 302.4 
L 213.457289 307.570049 
L 216.742307 312.628534 
L 220.201863 317.569292 
L 223.831742 322.386303 
L 227.62752 327.073699 
L 231.584574 331.625769 
L 235.698083 336.036966 
L 239.963034 340.301917 
L 244.374231 344.415426 
L 248.926301 348.37248 
L 253.613697 352.168258 
L 258.430708 355.798137 
L 263.371466 359.257693 
L 268.429951 362.542711 
L 273.6 365.64919 
L 278.875314 368.573344 
L 284.249466 371.311611 
L 289.715908 373.860655 
L 295.267981 376.21737 
L 300.898919 378.378885 
L 306.601863 380.342566 
L 312.369865 382.106021 
L 318.195896 383.667102 
L 324.07286 385.023905 
L 329.993595 386.17478 
L 335.950888 387.118322 
L 341.937482 387.853384 
L 347.946081 388.379068 
L 353.969367 388.694735 
L 360 388.8 
L 366.030633 388.694735 
L 372.053919 388.379068 
L 378.062518 387.853384 
L 384.049112 387.118322 
L 390.006405 386.17478 
L 395.92714 385.023905 
L 401.804104 383.667102 
L 407.630135 382.106021 
L 413.398137 380.342566 
L 419.101081 378.378885 
L 424.732019 376.21737 
L 430.284092 373.860655 
L 435.750534 371.311611 
L 441.124686 368.573344 
L 446.4 365.64919 
L 451.570049 362.542711 
L 456.628534 359.257693 
L 461.569292 355.798137 
L 466.386303 352.168258 
L 471.073699 348.37248 
L 475.625769 344.415426 
L 480.036966 340.301917 
L 484.301917 336.036966 
L 488.415426 331.625769 
L 492.37248 327.073699 
L 496.168258 322.386303 
L 499.798137 317.569292 
L 503.257693 312.628534 
L 506.542711 307.570049 
L 509.64919 302.4 
L 512.573344 297.124686 
L 515.311611 291.750534 
L 517.860655 286.284092 
L 520.21737 280.732019 
L 522.378885 275.101081 
L 524.342566 269.398137 
L 526.106021 263.630135 
L 527.667102 257.804104 
L 529.023905 251.92714 
L 530.17478 246.006405 
L 531.118322 240.049112 
L 531.853384 234.062518 
L 532.379068 228.053919 
L 532.694735 222.030633 
L 532.8 216 
L 532.8 216 
" style="fill:none;stroke:#b0b0b0;stroke-linecap:square;stroke-width:0.8;"/>
     </g>
     <g id="text_8">
      <!-- 1.0 -->
      <defs>
       <path d="M 12.40625 8.296875 
L 28.515625 8.296875 
L 28.515625 63.921875 
L 10.984375 60.40625 
L 10.984375 69.390625 
L 28.421875 72.90625 
L 38.28125 72.90625 
L 38.28125 8.296875 
L 54.390625 8.296875 
L 54.390625 0 
L 12.40625 0 
z
" id="DejaVuSans-49"/>
      </defs>
      <g transform="translate(519.646383 147.792615)scale(0.1 -0.1)">
       <use xlink:href="#DejaVuSans-49"/>
       <use x="63.623047" xlink:href="#DejaVuSans-46"/>
       <use x="95.410156" xlink:href="#DejaVuSans-48"/>
      </g>
     </g>
    </g>
   </g>
   <g id="line2d_9">
    <path clip-path="url(#p01e0cd8f54)" d="M 518.4 216 
L 281.454545 79.955282 
L 273.6 365.64919 
L 475.2 216 
" style="fill:none;stroke:#1f77b4;stroke-linecap:square;stroke-width:1.5;"/>
   </g>
   <g id="line2d_10">
    <path clip-path="url(#p01e0cd8f54)" d="M 446.4 216 
L 295.2 103.763108 
L 327.6 272.118446 
L 414 216 
" style="fill:none;stroke:#ff7f0e;stroke-linecap:square;stroke-width:1.5;"/>
   </g>
   <g id="patch_4">
    <path d="M 532.8 216 
C 532.8 193.308112 528.330193 170.836874 519.646383 149.872303 
C 510.962574 128.907732 498.23364 109.857536 482.188052 93.811948 
C 466.142464 77.76636 447.092268 65.037426 426.127697 56.353617 
C 405.163126 47.669807 382.691888 43.2 360 43.2 
C 337.308112 43.2 314.836874 47.669807 293.872303 56.353617 
C 272.907732 65.037426 253.857536 77.76636 237.811948 93.811948 
C 221.76636 109.857536 209.037426 128.907732 200.353617 149.872303 
C 191.669807 170.836874 187.2 193.308112 187.2 216 
C 187.2 238.691888 191.669807 261.163126 200.353617 282.127697 
C 209.037426 303.092268 221.76636 322.142464 237.811948 338.188052 
C 253.857536 354.23364 272.907732 366.962574 293.872303 375.646383 
C 314.836874 384.330193 337.308112 388.8 360 388.8 
C 382.691888 388.8 405.163126 384.330193 426.127697 375.646383 
C 447.092268 366.962574 466.142464 354.23364 482.188052 338.188052 
C 498.23364 322.142464 510.962574 303.092268 519.646383 282.127697 
C 528.330193 261.163126 532.8 238.691888 532.8 216 
" style="fill:none;stroke:#000000;stroke-linecap:square;stroke-linejoin:miter;stroke-width:0.8;"/>
   </g>
   <g id="text_9">
    <!-- Actual vs Expected probability of symetric cells -->
    <defs>
     <path d="M 34.1875 63.1875 
L 20.796875 26.90625 
L 47.609375 26.90625 
z
M 28.609375 72.90625 
L 39.796875 72.90625 
L 67.578125 0 
L 57.328125 0 
L 50.6875 18.703125 
L 17.828125 18.703125 
L 11.1875 0 
L 0.78125 0 
z
" id="DejaVuSans-65"/>
     <path d="M 48.78125 52.59375 
L 48.78125 44.1875 
Q 44.96875 46.296875 41.140625 47.34375 
Q 37.3125 48.390625 33.40625 48.390625 
Q 24.65625 48.390625 19.8125 42.84375 
Q 14.984375 37.3125 14.984375 27.296875 
Q 14.984375 17.28125 19.8125 11.734375 
Q 24.65625 6.203125 33.40625 6.203125 
Q 37.3125 6.203125 41.140625 7.25 
Q 44.96875 8.296875 48.78125 10.40625 
L 48.78125 2.09375 
Q 45.015625 0.34375 40.984375 -0.53125 
Q 36.96875 -1.421875 32.421875 -1.421875 
Q 20.0625 -1.421875 12.78125 6.34375 
Q 5.515625 14.109375 5.515625 27.296875 
Q 5.515625 40.671875 12.859375 48.328125 
Q 20.21875 56 33.015625 56 
Q 37.15625 56 41.109375 55.140625 
Q 45.0625 54.296875 48.78125 52.59375 
z
" id="DejaVuSans-99"/>
     <path d="M 18.3125 70.21875 
L 18.3125 54.6875 
L 36.8125 54.6875 
L 36.8125 47.703125 
L 18.3125 47.703125 
L 18.3125 18.015625 
Q 18.3125 11.328125 20.140625 9.421875 
Q 21.96875 7.515625 27.59375 7.515625 
L 36.8125 7.515625 
L 36.8125 0 
L 27.59375 0 
Q 17.1875 0 13.234375 3.875 
Q 9.28125 7.765625 9.28125 18.015625 
L 9.28125 47.703125 
L 2.6875 47.703125 
L 2.6875 54.6875 
L 9.28125 54.6875 
L 9.28125 70.21875 
z
" id="DejaVuSans-116"/>
     <path d="M 8.5 21.578125 
L 8.5 54.6875 
L 17.484375 54.6875 
L 17.484375 21.921875 
Q 17.484375 14.15625 20.5 10.265625 
Q 23.53125 6.390625 29.59375 6.390625 
Q 36.859375 6.390625 41.078125 11.03125 
Q 45.3125 15.671875 45.3125 23.6875 
L 45.3125 54.6875 
L 54.296875 54.6875 
L 54.296875 0 
L 45.3125 0 
L 45.3125 8.40625 
Q 42.046875 3.421875 37.71875 1 
Q 33.40625 -1.421875 27.6875 -1.421875 
Q 18.265625 -1.421875 13.375 4.4375 
Q 8.5 10.296875 8.5 21.578125 
z
M 31.109375 56 
z
" id="DejaVuSans-117"/>
     <path d="M 34.28125 27.484375 
Q 23.390625 27.484375 19.1875 25 
Q 14.984375 22.515625 14.984375 16.5 
Q 14.984375 11.71875 18.140625 8.90625 
Q 21.296875 6.109375 26.703125 6.109375 
Q 34.1875 6.109375 38.703125 11.40625 
Q 43.21875 16.703125 43.21875 25.484375 
L 43.21875 27.484375 
z
M 52.203125 31.203125 
L 52.203125 0 
L 43.21875 0 
L 43.21875 8.296875 
Q 40.140625 3.328125 35.546875 0.953125 
Q 30.953125 -1.421875 24.3125 -1.421875 
Q 15.921875 -1.421875 10.953125 3.296875 
Q 6 8.015625 6 15.921875 
Q 6 25.140625 12.171875 29.828125 
Q 18.359375 34.515625 30.609375 34.515625 
L 43.21875 34.515625 
L 43.21875 35.40625 
Q 43.21875 41.609375 39.140625 45 
Q 35.0625 48.390625 27.6875 48.390625 
Q 23 48.390625 18.546875 47.265625 
Q 14.109375 46.140625 10.015625 43.890625 
L 10.015625 52.203125 
Q 14.9375 54.109375 19.578125 55.046875 
Q 24.21875 56 28.609375 56 
Q 40.484375 56 46.34375 49.84375 
Q 52.203125 43.703125 52.203125 31.203125 
z
" id="DejaVuSans-97"/>
     <path id="DejaVuSans-32"/>
     <path d="M 2.984375 54.6875 
L 12.5 54.6875 
L 29.59375 8.796875 
L 46.6875 54.6875 
L 56.203125 54.6875 
L 35.6875 0 
L 23.484375 0 
z
" id="DejaVuSans-118"/>
     <path d="M 44.28125 53.078125 
L 44.28125 44.578125 
Q 40.484375 46.53125 36.375 47.5 
Q 32.28125 48.484375 27.875 48.484375 
Q 21.1875 48.484375 17.84375 46.4375 
Q 14.5 44.390625 14.5 40.28125 
Q 14.5 37.15625 16.890625 35.375 
Q 19.28125 33.59375 26.515625 31.984375 
L 29.59375 31.296875 
Q 39.15625 29.25 43.1875 25.515625 
Q 47.21875 21.78125 47.21875 15.09375 
Q 47.21875 7.46875 41.1875 3.015625 
Q 35.15625 -1.421875 24.609375 -1.421875 
Q 20.21875 -1.421875 15.453125 -0.5625 
Q 10.6875 0.296875 5.421875 2 
L 5.421875 11.28125 
Q 10.40625 8.6875 15.234375 7.390625 
Q 20.0625 6.109375 24.8125 6.109375 
Q 31.15625 6.109375 34.5625 8.28125 
Q 37.984375 10.453125 37.984375 14.40625 
Q 37.984375 18.0625 35.515625 20.015625 
Q 33.0625 21.96875 24.703125 23.78125 
L 21.578125 24.515625 
Q 13.234375 26.265625 9.515625 29.90625 
Q 5.8125 33.546875 5.8125 39.890625 
Q 5.8125 47.609375 11.28125 51.796875 
Q 16.75 56 26.8125 56 
Q 31.78125 56 36.171875 55.265625 
Q 40.578125 54.546875 44.28125 53.078125 
z
" id="DejaVuSans-115"/>
     <path d="M 9.8125 72.90625 
L 55.90625 72.90625 
L 55.90625 64.59375 
L 19.671875 64.59375 
L 19.671875 43.015625 
L 54.390625 43.015625 
L 54.390625 34.71875 
L 19.671875 34.71875 
L 19.671875 8.296875 
L 56.78125 8.296875 
L 56.78125 0 
L 9.8125 0 
z
" id="DejaVuSans-69"/>
     <path d="M 54.890625 54.6875 
L 35.109375 28.078125 
L 55.90625 0 
L 45.3125 0 
L 29.390625 21.484375 
L 13.484375 0 
L 2.875 0 
L 24.125 28.609375 
L 4.6875 54.6875 
L 15.28125 54.6875 
L 29.78125 35.203125 
L 44.28125 54.6875 
z
" id="DejaVuSans-120"/>
     <path d="M 56.203125 29.59375 
L 56.203125 25.203125 
L 14.890625 25.203125 
Q 15.484375 15.921875 20.484375 11.0625 
Q 25.484375 6.203125 34.421875 6.203125 
Q 39.59375 6.203125 44.453125 7.46875 
Q 49.3125 8.734375 54.109375 11.28125 
L 54.109375 2.78125 
Q 49.265625 0.734375 44.1875 -0.34375 
Q 39.109375 -1.421875 33.890625 -1.421875 
Q 20.796875 -1.421875 13.15625 6.1875 
Q 5.515625 13.8125 5.515625 26.8125 
Q 5.515625 40.234375 12.765625 48.109375 
Q 20.015625 56 32.328125 56 
Q 43.359375 56 49.78125 48.890625 
Q 56.203125 41.796875 56.203125 29.59375 
z
M 47.21875 32.234375 
Q 47.125 39.59375 43.09375 43.984375 
Q 39.0625 48.390625 32.421875 48.390625 
Q 24.90625 48.390625 20.390625 44.140625 
Q 15.875 39.890625 15.1875 32.171875 
z
" id="DejaVuSans-101"/>
     <path d="M 45.40625 46.390625 
L 45.40625 75.984375 
L 54.390625 75.984375 
L 54.390625 0 
L 45.40625 0 
L 45.40625 8.203125 
Q 42.578125 3.328125 38.25 0.953125 
Q 33.9375 -1.421875 27.875 -1.421875 
Q 17.96875 -1.421875 11.734375 6.484375 
Q 5.515625 14.40625 5.515625 27.296875 
Q 5.515625 40.1875 11.734375 48.09375 
Q 17.96875 56 27.875 56 
Q 33.9375 56 38.25 53.625 
Q 42.578125 51.265625 45.40625 46.390625 
z
M 14.796875 27.296875 
Q 14.796875 17.390625 18.875 11.75 
Q 22.953125 6.109375 30.078125 6.109375 
Q 37.203125 6.109375 41.296875 11.75 
Q 45.40625 17.390625 45.40625 27.296875 
Q 45.40625 37.203125 41.296875 42.84375 
Q 37.203125 48.484375 30.078125 48.484375 
Q 22.953125 48.484375 18.875 42.84375 
Q 14.796875 37.203125 14.796875 27.296875 
z
" id="DejaVuSans-100"/>
     <path d="M 41.109375 46.296875 
Q 39.59375 47.171875 37.8125 47.578125 
Q 36.03125 48 33.890625 48 
Q 26.265625 48 22.1875 43.046875 
Q 18.109375 38.09375 18.109375 28.8125 
L 18.109375 0 
L 9.078125 0 
L 9.078125 54.6875 
L 18.109375 54.6875 
L 18.109375 46.1875 
Q 20.953125 51.171875 25.484375 53.578125 
Q 30.03125 56 36.53125 56 
Q 37.453125 56 38.578125 55.875 
Q 39.703125 55.765625 41.0625 55.515625 
z
" id="DejaVuSans-114"/>
     <path d="M 30.609375 48.390625 
Q 23.390625 48.390625 19.1875 42.75 
Q 14.984375 37.109375 14.984375 27.296875 
Q 14.984375 17.484375 19.15625 11.84375 
Q 23.34375 6.203125 30.609375 6.203125 
Q 37.796875 6.203125 41.984375 11.859375 
Q 46.1875 17.53125 46.1875 27.296875 
Q 46.1875 37.015625 41.984375 42.703125 
Q 37.796875 48.390625 30.609375 48.390625 
z
M 30.609375 56 
Q 42.328125 56 49.015625 48.375 
Q 55.71875 40.765625 55.71875 27.296875 
Q 55.71875 13.875 49.015625 6.21875 
Q 42.328125 -1.421875 30.609375 -1.421875 
Q 18.84375 -1.421875 12.171875 6.21875 
Q 5.515625 13.875 5.515625 27.296875 
Q 5.515625 40.765625 12.171875 48.375 
Q 18.84375 56 30.609375 56 
z
" id="DejaVuSans-111"/>
     <path d="M 48.6875 27.296875 
Q 48.6875 37.203125 44.609375 42.84375 
Q 40.53125 48.484375 33.40625 48.484375 
Q 26.265625 48.484375 22.1875 42.84375 
Q 18.109375 37.203125 18.109375 27.296875 
Q 18.109375 17.390625 22.1875 11.75 
Q 26.265625 6.109375 33.40625 6.109375 
Q 40.53125 6.109375 44.609375 11.75 
Q 48.6875 17.390625 48.6875 27.296875 
z
M 18.109375 46.390625 
Q 20.953125 51.265625 25.265625 53.625 
Q 29.59375 56 35.59375 56 
Q 45.5625 56 51.78125 48.09375 
Q 58.015625 40.1875 58.015625 27.296875 
Q 58.015625 14.40625 51.78125 6.484375 
Q 45.5625 -1.421875 35.59375 -1.421875 
Q 29.59375 -1.421875 25.265625 0.953125 
Q 20.953125 3.328125 18.109375 8.203125 
L 18.109375 0 
L 9.078125 0 
L 9.078125 75.984375 
L 18.109375 75.984375 
z
" id="DejaVuSans-98"/>
     <path d="M 32.171875 -5.078125 
Q 28.375 -14.84375 24.75 -17.8125 
Q 21.140625 -20.796875 15.09375 -20.796875 
L 7.90625 -20.796875 
L 7.90625 -13.28125 
L 13.1875 -13.28125 
Q 16.890625 -13.28125 18.9375 -11.515625 
Q 21 -9.765625 23.484375 -3.21875 
L 25.09375 0.875 
L 2.984375 54.6875 
L 12.5 54.6875 
L 29.59375 11.921875 
L 46.6875 54.6875 
L 56.203125 54.6875 
z
" id="DejaVuSans-121"/>
     <path d="M 37.109375 75.984375 
L 37.109375 68.5 
L 28.515625 68.5 
Q 23.6875 68.5 21.796875 66.546875 
Q 19.921875 64.59375 19.921875 59.515625 
L 19.921875 54.6875 
L 34.71875 54.6875 
L 34.71875 47.703125 
L 19.921875 47.703125 
L 19.921875 0 
L 10.890625 0 
L 10.890625 47.703125 
L 2.296875 47.703125 
L 2.296875 54.6875 
L 10.890625 54.6875 
L 10.890625 58.5 
Q 10.890625 67.625 15.140625 71.796875 
Q 19.390625 75.984375 28.609375 75.984375 
z
" id="DejaVuSans-102"/>
     <path d="M 52 44.1875 
Q 55.375 50.25 60.0625 53.125 
Q 64.75 56 71.09375 56 
Q 79.640625 56 84.28125 50.015625 
Q 88.921875 44.046875 88.921875 33.015625 
L 88.921875 0 
L 79.890625 0 
L 79.890625 32.71875 
Q 79.890625 40.578125 77.09375 44.375 
Q 74.3125 48.1875 68.609375 48.1875 
Q 61.625 48.1875 57.5625 43.546875 
Q 53.515625 38.921875 53.515625 30.90625 
L 53.515625 0 
L 44.484375 0 
L 44.484375 32.71875 
Q 44.484375 40.625 41.703125 44.40625 
Q 38.921875 48.1875 33.109375 48.1875 
Q 26.21875 48.1875 22.15625 43.53125 
Q 18.109375 38.875 18.109375 30.90625 
L 18.109375 0 
L 9.078125 0 
L 9.078125 54.6875 
L 18.109375 54.6875 
L 18.109375 46.1875 
Q 21.1875 51.21875 25.484375 53.609375 
Q 29.78125 56 35.6875 56 
Q 41.65625 56 45.828125 52.96875 
Q 50 49.953125 52 44.1875 
z
" id="DejaVuSans-109"/>
    </defs>
    <g transform="translate(217.609688 19.92)scale(0.12 -0.12)">
     <use xlink:href="#DejaVuSans-65"/>
     <use x="68.392578" xlink:href="#DejaVuSans-99"/>
     <use x="123.373047" xlink:href="#DejaVuSans-116"/>
     <use x="162.582031" xlink:href="#DejaVuSans-117"/>
     <use x="225.960938" xlink:href="#DejaVuSans-97"/>
     <use x="287.240234" xlink:href="#DejaVuSans-108"/>
     <use x="315.023438" xlink:href="#DejaVuSans-32"/>
     <use x="346.810547" xlink:href="#DejaVuSans-118"/>
     <use x="405.990234" xlink:href="#DejaVuSans-115"/>
     <use x="458.089844" xlink:href="#DejaVuSans-32"/>
     <use x="489.876953" xlink:href="#DejaVuSans-69"/>
     <use x="553.060547" xlink:href="#DejaVuSans-120"/>
     <use x="612.240234" xlink:href="#DejaVuSans-112"/>
     <use x="675.716797" xlink:href="#DejaVuSans-101"/>
     <use x="737.240234" xlink:href="#DejaVuSans-99"/>
     <use x="792.220703" xlink:href="#DejaVuSans-116"/>
     <use x="831.429688" xlink:href="#DejaVuSans-101"/>
     <use x="892.953125" xlink:href="#DejaVuSans-100"/>
     <use x="956.429688" xlink:href="#DejaVuSans-32"/>
     <use x="988.216797" xlink:href="#DejaVuSans-112"/>
     <use x="1051.693359" xlink:href="#DejaVuSans-114"/>
     <use x="1092.775391" xlink:href="#DejaVuSans-111"/>
     <use x="1153.957031" xlink:href="#DejaVuSans-98"/>
     <use x="1217.433594" xlink:href="#DejaVuSans-97"/>
     <use x="1278.712891" xlink:href="#DejaVuSans-98"/>
     <use x="1342.189453" xlink:href="#DejaVuSans-105"/>
     <use x="1369.972656" xlink:href="#DejaVuSans-108"/>
     <use x="1397.755859" xlink:href="#DejaVuSans-105"/>
     <use x="1425.539062" xlink:href="#DejaVuSans-116"/>
     <use x="1464.748047" xlink:href="#DejaVuSans-121"/>
     <use x="1523.927734" xlink:href="#DejaVuSans-32"/>
     <use x="1555.714844" xlink:href="#DejaVuSans-111"/>
     <use x="1616.896484" xlink:href="#DejaVuSans-102"/>
     <use x="1652.101562" xlink:href="#DejaVuSans-32"/>
     <use x="1683.888672" xlink:href="#DejaVuSans-115"/>
     <use x="1735.988281" xlink:href="#DejaVuSans-121"/>
     <use x="1795.167969" xlink:href="#DejaVuSans-109"/>
     <use x="1892.580078" xlink:href="#DejaVuSans-101"/>
     <use x="1954.103516" xlink:href="#DejaVuSans-116"/>
     <use x="1993.3125" xlink:href="#DejaVuSans-114"/>
     <use x="2034.425781" xlink:href="#DejaVuSans-105"/>
     <use x="2062.208984" xlink:href="#DejaVuSans-99"/>
     <use x="2117.189453" xlink:href="#DejaVuSans-32"/>
     <use x="2148.976562" xlink:href="#DejaVuSans-99"/>
     <use x="2203.957031" xlink:href="#DejaVuSans-101"/>
     <use x="2265.480469" xlink:href="#DejaVuSans-108"/>
     <use x="2293.263672" xlink:href="#DejaVuSans-108"/>
     <use x="2321.046875" xlink:href="#DejaVuSans-115"/>
    </g>
   </g>
   <g id="legend_1">
    <g id="patch_5">
     <path d="M 422.23125 80.55625 
L 525.8 80.55625 
Q 527.8 80.55625 527.8 78.55625 
L 527.8 50.2 
Q 527.8 48.2 525.8 48.2 
L 422.23125 48.2 
Q 420.23125 48.2 420.23125 50.2 
L 420.23125 78.55625 
Q 420.23125 80.55625 422.23125 80.55625 
z
" style="fill:#ffffff;opacity:0.8;stroke:#cccccc;stroke-linejoin:miter;"/>
    </g>
    <g id="line2d_11">
     <path d="M 424.23125 56.298437 
L 444.23125 56.298437 
" style="fill:none;stroke:#1f77b4;stroke-linecap:square;stroke-width:1.5;"/>
    </g>
    <g id="line2d_12"/>
    <g id="text_10">
     <!-- pilG-cpdA-fliC- -->
     <defs>
      <path d="M 59.515625 10.40625 
L 59.515625 29.984375 
L 43.40625 29.984375 
L 43.40625 38.09375 
L 69.28125 38.09375 
L 69.28125 6.78125 
Q 63.578125 2.734375 56.6875 0.65625 
Q 49.8125 -1.421875 42 -1.421875 
Q 24.90625 -1.421875 15.25 8.5625 
Q 5.609375 18.5625 5.609375 36.375 
Q 5.609375 54.25 15.25 64.234375 
Q 24.90625 74.21875 42 74.21875 
Q 49.125 74.21875 55.546875 72.453125 
Q 61.96875 70.703125 67.390625 67.28125 
L 67.390625 56.78125 
Q 61.921875 61.421875 55.765625 63.765625 
Q 49.609375 66.109375 42.828125 66.109375 
Q 29.4375 66.109375 22.71875 58.640625 
Q 16.015625 51.171875 16.015625 36.375 
Q 16.015625 21.625 22.71875 14.15625 
Q 29.4375 6.6875 42.828125 6.6875 
Q 48.046875 6.6875 52.140625 7.59375 
Q 56.25 8.5 59.515625 10.40625 
z
" id="DejaVuSans-71"/>
      <path d="M 4.890625 31.390625 
L 31.203125 31.390625 
L 31.203125 23.390625 
L 4.890625 23.390625 
z
" id="DejaVuSans-45"/>
      <path d="M 64.40625 67.28125 
L 64.40625 56.890625 
Q 59.421875 61.53125 53.78125 63.8125 
Q 48.140625 66.109375 41.796875 66.109375 
Q 29.296875 66.109375 22.65625 58.46875 
Q 16.015625 50.828125 16.015625 36.375 
Q 16.015625 21.96875 22.65625 14.328125 
Q 29.296875 6.6875 41.796875 6.6875 
Q 48.140625 6.6875 53.78125 8.984375 
Q 59.421875 11.28125 64.40625 15.921875 
L 64.40625 5.609375 
Q 59.234375 2.09375 53.4375 0.328125 
Q 47.65625 -1.421875 41.21875 -1.421875 
Q 24.65625 -1.421875 15.125 8.703125 
Q 5.609375 18.84375 5.609375 36.375 
Q 5.609375 53.953125 15.125 64.078125 
Q 24.65625 74.21875 41.21875 74.21875 
Q 47.75 74.21875 53.53125 72.484375 
Q 59.328125 70.75 64.40625 67.28125 
z
" id="DejaVuSans-67"/>
     </defs>
     <g transform="translate(452.23125 59.798437)scale(0.1 -0.1)">
      <use xlink:href="#DejaVuSans-112"/>
      <use x="63.476562" xlink:href="#DejaVuSans-105"/>
      <use x="91.259766" xlink:href="#DejaVuSans-108"/>
      <use x="119.042969" xlink:href="#DejaVuSans-71"/>
      <use x="196.533203" xlink:href="#DejaVuSans-45"/>
      <use x="232.617188" xlink:href="#DejaVuSans-99"/>
      <use x="287.597656" xlink:href="#DejaVuSans-112"/>
      <use x="351.074219" xlink:href="#DejaVuSans-100"/>
      <use x="414.550781" xlink:href="#DejaVuSans-65"/>
      <use x="482.927734" xlink:href="#DejaVuSans-45"/>
      <use x="519.011719" xlink:href="#DejaVuSans-102"/>
      <use x="554.216797" xlink:href="#DejaVuSans-108"/>
      <use x="582" xlink:href="#DejaVuSans-105"/>
      <use x="609.783203" xlink:href="#DejaVuSans-67"/>
      <use x="679.607422" xlink:href="#DejaVuSans-45"/>
     </g>
    </g>
    <g id="line2d_13">
     <path d="M 424.23125 70.976562 
L 444.23125 70.976562 
" style="fill:none;stroke:#ff7f0e;stroke-linecap:square;stroke-width:1.5;"/>
    </g>
    <g id="line2d_14"/>
    <g id="text_11">
     <!-- Expected -->
     <g transform="translate(452.23125 74.476562)scale(0.1 -0.1)">
      <use xlink:href="#DejaVuSans-69"/>
      <use x="63.183594" xlink:href="#DejaVuSans-120"/>
      <use x="122.363281" xlink:href="#DejaVuSans-112"/>
      <use x="185.839844" xlink:href="#DejaVuSans-101"/>
      <use x="247.363281" xlink:href="#DejaVuSans-99"/>
      <use x="302.34375" xlink:href="#DejaVuSans-116"/>
      <use x="341.552734" xlink:href="#DejaVuSans-101"/>
      <use x="403.076172" xlink:href="#DejaVuSans-100"/>
     </g>
    </g>
   </g>
  </g>
 </g>
 <defs>
  <clipPath id="p01e0cd8f54">
   <path d="M 532.8 216 
C 532.8 193.308112 528.330193 170.836874 519.646383 149.872303 
C 510.962574 128.907732 498.23364 109.857536 482.188052 93.811948 
C 466.142464 77.76636 447.092268 65.037426 426.127697 56.353617 
C 405.163126 47.669807 382.691888 43.2 360 43.2 
C 337.308112 43.2 314.836874 47.669807 293.872303 56.353617 
C 272.907732 65.037426 253.857536 77.76636 237.811948 93.811948 
C 221.76636 109.857536 209.037426 128.907732 200.353617 149.872303 
C 191.669807 170.836874 187.2 193.308112 187.2 216 
C 187.2 238.691888 191.669807 261.163126 200.353617 282.127697 
C 209.037426 303.092268 221.76636 322.142464 237.811948 338.188052 
C 253.857536 354.23364 272.907732 366.962574 293.872303 375.646383 
C 314.836874 384.330193 337.308112 388.8 360 388.8 
C 382.691888 388.8 405.163126 384.330193 426.127697 375.646383 
C 447.092268 366.962574 466.142464 354.23364 482.188052 338.188052 
C 498.23364 322.142464 510.962574 303.092268 519.646383 282.127697 
C 528.330193 261.163126 532.8 238.691888 532.8 216 
M 360 216 
C 360 216 360 216 360 216 
C 360 216 360 216 360 216 
C 360 216 360 216 360 216 
C 360 216 360 216 360 216 
C 360 216 360 216 360 216 
C 360 216 360 216 360 216 
C 360 216 360 216 360 216 
C 360 216 360 216 360 216 
C 360 216 360 216 360 216 
C 360 216 360 216 360 216 
C 360 216 360 216 360 216 
C 360 216 360 216 360 216 
C 360 216 360 216 360 216 
C 360 216 360 216 360 216 
C 360 216 360 216 360 216 
C 360 216 360 216 360 216 
M 532.8 216 
z
"/>
  </clipPath>
 </defs>
</svg>
