<svg version="1.1" xmlns="http://www.w3.org/2000/svg" xmlns:xlink="http://www.w3.org/1999/xlink" width="600" height="600" style="width: 600px; height: 600px;"><defs><clipPath id="FOUPRkITuBqP"><path fill="none" stroke="none" d=" M 45 29 L 570 29 L 570 555 L 45 555 L 45 29 Z"/></clipPath><clipPath id="EcWPWKTuKmAH"><path fill="none" stroke="none" d=" M 45 29 L 570 29 L 570 555 L 45 555 L 45 29 Z"/></clipPath><clipPath id="MlMSpMSKIyxf"><path fill="none" stroke="none" d=" M 45 29 L 570 29 L 570 555 L 45 555 L 45 29 Z"/></clipPath><clipPath id="SVJSQRJiVCPR"><path fill="none" stroke="none" d=" M 45 29 L 570 29 L 570 555 L 45 555 L 45 29 Z"/></clipPath><clipPath id="LauFMcqrsfyP"><path fill="none" stroke="none" d=" M 45 29 L 570 29 L 570 555 L 45 555 L 45 29 Z"/></clipPath><clipPath id="iwAcNLZMxrhA"><path fill="none" stroke="none" d=" M 45 29 L 570 29 L 570 555 L 45 555 L 45 29 Z"/></clipPath><clipPath id="HwocmPpoTnkZ"><path fill="none" stroke="none" d=" M 45 29 L 570 29 L 570 555 L 45 555 L 45 29 Z"/></clipPath><clipPath id="TXmCQCTXheym"><path fill="none" stroke="none" d=" M 45 29 L 570 29 L 570 555 L 45 555 L 45 29 Z"/></clipPath><clipPath id="nQIAWuylybOE"><path fill="none" stroke="none" d=" M 45 29 L 570 29 L 570 555 L 45 555 L 45 29 Z"/></clipPath><clipPath id="MXJUzVQySPph"><path fill="none" stroke="none" d=" M 45 29 L 570 29 L 570 555 L 45 555 L 45 29 Z"/></clipPath><clipPath id="FTDvnwMPLxIW"><path fill="none" stroke="none" d=" M 45 29 L 570 29 L 570 555 L 45 555 L 45 29 Z"/></clipPath><clipPath id="sslDllcDERhT"><path fill="none" stroke="none" d=" M 45 29 L 570 29 L 570 555 L 45 555 L 45 29 Z"/></clipPath><clipPath id="GIocGHqmLCoB"><path fill="none" stroke="none" d=" M 45 29 L 570 29 L 570 555 L 45 555 L 45 29 Z"/></clipPath><clipPath id="JOiTxybBRAmX"><path fill="none" stroke="none" d=" M 45 29 L 570 29 L 570 555 L 45 555 L 45 29 Z"/></clipPath><clipPath id="MhKbZyyfAqcq"><path fill="none" stroke="none" d=" M 45 29 L 570 29 L 570 555 L 45 555 L 45 29 Z"/></clipPath><clipPath id="vsuGrVZDWhBI"><path fill="none" stroke="none" d=" M 45 29 L 570 29 L 570 555 L 45 555 L 45 29 Z"/></clipPath><clipPath id="gRVeGoMTcSXX"><path fill="none" stroke="none" d=" M 45 29 L 570 29 L 570 555 L 45 555 L 45 29 Z"/></clipPath><clipPath id="cckObFZrbnML"><path fill="none" stroke="none" d=" M 45 29 L 570 29 L 570 555 L 45 555 L 45 29 Z"/></clipPath><clipPath id="DSHkvOPiEIDP"><path fill="none" stroke="none" d=" M 45 29 L 570 29 L 570 555 L 45 555 L 45 29 Z"/></clipPath><clipPath id="enBUgMTFKZyl"><path fill="none" stroke="none" d=" M 45 29 L 570 29 L 570 555 L 45 555 L 45 29 Z"/></clipPath><clipPath id="gkTLwXGLMBaL"><path fill="none" stroke="none" d=" M 45 29 L 570 29 L 570 555 L 45 555 L 45 29 Z"/></clipPath><clipPath id="qtqRqHhmFhHc"><path fill="none" stroke="none" d=" M 45 29 L 570 29 L 570 555 L 45 555 L 45 29 Z"/></clipPath><clipPath id="fnNvFCBgTiwi"><path fill="none" stroke="none" d=" M 45 29 L 570 29 L 570 555 L 45 555 L 45 29 Z"/></clipPath><clipPath id="TXRnMehNTrBx"><path fill="none" stroke="none" d=" M 45 29 L 570 29 L 570 555 L 45 555 L 45 29 Z"/></clipPath></defs><g><g transform="scale(1,1) translate(0.5,0.5)"><rect fill="#FFFFFF" stroke="none" x="0" y="0" width="600" height="600"/><rect fill="#ffffff" stroke="none" x="0" y="0" width="600" height="600"/><rect fill="#FFFFFF" stroke="none" x="45" y="29" width="525" height="526"/><rect fill="#ffffff" stroke="none" x="45" y="29" width="525" height="526"/><g><rect fill="none" stroke="#e5e5e5" x="45" y="29" width="525" height="526" stroke-linejoin="bevel" stroke-miterlimit="10"/></g><g clip-path="url(#FOUPRkITuBqP)"><g/></g><g clip-path="url(#EcWPWKTuKmAH)"><g/></g><g clip-path="url(#MlMSpMSKIyxf)"><g><g><path fill="none" stroke="none"/><path fill="none" stroke="black" paint-order="fill stroke markers" d=" M 68.86363636363637 548.1880613608927 L 68.86363636363637 546.5727933481717" stroke-linejoin="bevel" stroke-miterlimit="10" stroke-width="3" stroke-opacity="0.8"/></g></g></g><g clip-path="url(#SVJSQRJiVCPR)"><g><g><path fill="none" stroke="none"/><path fill="none" stroke="black" paint-order="fill stroke markers" d=" M 227.95454545454544 515.5030236216567 L 227.95454545454544 504.3967757728333" stroke-linejoin="bevel" stroke-miterlimit="10" stroke-width="3" stroke-opacity="0.8"/></g></g></g><g clip-path="url(#LauFMcqrsfyP)"><g><g><path fill="none" stroke="none"/><path fill="none" stroke="black" paint-order="fill stroke markers" d=" M 387.0454545454545 497.5290655861574 L 387.0454545454545 463.1379359102163" stroke-linejoin="bevel" stroke-miterlimit="10" stroke-width="3" stroke-opacity="0.8"/></g></g></g><g clip-path="url(#iwAcNLZMxrhA)"><g><g><path fill="none" stroke="none"/><path fill="none" stroke="black" paint-order="fill stroke markers" d=" M 546.1363636363635 504.62657452599086 L 546.1363636363635 486.11521124162164" stroke-linejoin="bevel" stroke-miterlimit="10" stroke-width="3" stroke-opacity="0.8"/></g></g></g><g clip-path="url(#HwocmPpoTnkZ)"><g><g><path fill="none" stroke="none"/><path fill="white" stroke="#1f77b4" paint-order="fill stroke markers" d=" M 73.86363636363637 547.3804273545321 A 5 5 0 1 1 73.86363386363658 547.3754273553654" fill-opacity="0.5" stroke-linejoin="bevel" stroke-miterlimit="10" stroke-width="2" stroke-opacity="0.5"/><path fill="white" stroke="#1f77b4" paint-order="fill stroke markers" d=" M 232.95454545454544 509.949899697245 A 5 5 0 1 1 232.95454295454564 509.9448996980783" fill-opacity="0.5" stroke-linejoin="bevel" stroke-miterlimit="10" stroke-width="2" stroke-opacity="0.5"/><path fill="white" stroke="#1f77b4" paint-order="fill stroke markers" d=" M 392.0454545454545 480.33350074818685 A 5 5 0 1 1 392.04545204545474 480.3285007490202" fill-opacity="0.5" stroke-linejoin="bevel" stroke-miterlimit="10" stroke-width="2" stroke-opacity="0.5"/><path fill="white" stroke="#1f77b4" paint-order="fill stroke markers" d=" M 551.1363636363635 495.3708928838062 A 5 5 0 1 1 551.1363611363637 495.36589288463955" fill-opacity="0.5" stroke-linejoin="bevel" stroke-miterlimit="10" stroke-width="2" stroke-opacity="0.5"/></g></g></g><g clip-path="url(#TXmCQCTXheym)"><g><g><path fill="none" stroke="none"/><path fill="none" stroke="black" paint-order="fill stroke markers" d=" M 68.86363636363637 547.1339423384823 L 68.86363636363637 546.5734024676588" stroke-linejoin="bevel" stroke-miterlimit="10" stroke-width="3" stroke-opacity="0.8"/></g></g></g><g clip-path="url(#nQIAWuylybOE)"><g><g><path fill="none" stroke="none"/><path fill="none" stroke="black" paint-order="fill stroke markers" d=" M 227.95454545454544 545.4528126801113 L 227.95454545454544 543.222916167107" stroke-linejoin="bevel" stroke-miterlimit="10" stroke-width="3" stroke-opacity="0.8"/></g></g></g><g clip-path="url(#MXJUzVQySPph)"><g><g><path fill="none" stroke="none"/><path fill="none" stroke="black" paint-order="fill stroke markers" d=" M 387.0454545454545 541.4351212692842 L 387.0454545454545 539.6332513779937" stroke-linejoin="bevel" stroke-miterlimit="10" stroke-width="3" stroke-opacity="0.8"/></g></g></g><g clip-path="url(#FTDvnwMPLxIW)"><g><g><path fill="none" stroke="none"/><path fill="none" stroke="black" paint-order="fill stroke markers" d=" M 546.1363636363635 543.6453519780181 L 546.1363636363635 542.2554415811541" stroke-linejoin="bevel" stroke-miterlimit="10" stroke-width="3" stroke-opacity="0.8"/></g></g></g><g clip-path="url(#sslDllcDERhT)"><g><g><path fill="none" stroke="none"/><path fill="white" stroke="#ff7f0e" paint-order="fill stroke markers" d=" M 73.86363636363637 546.8536724030705 A 5 5 0 1 1 73.86363386363658 546.8486724039038" fill-opacity="0.5" stroke-linejoin="bevel" stroke-miterlimit="10" stroke-width="2" stroke-opacity="0.5"/><path fill="white" stroke="#ff7f0e" paint-order="fill stroke markers" d=" M 232.95454545454544 544.3378644236092 A 5 5 0 1 1 232.95454295454564 544.3328644244425" fill-opacity="0.5" stroke-linejoin="bevel" stroke-miterlimit="10" stroke-width="2" stroke-opacity="0.5"/><path fill="white" stroke="#ff7f0e" paint-order="fill stroke markers" d=" M 392.0454545454545 540.5341863236389 A 5 5 0 1 1 392.04545204545474 540.5291863244722" fill-opacity="0.5" stroke-linejoin="bevel" stroke-miterlimit="10" stroke-width="2" stroke-opacity="0.5"/><path fill="white" stroke="#ff7f0e" paint-order="fill stroke markers" d=" M 551.1363636363635 542.9503967795861 A 5 5 0 1 1 551.1363611363637 542.9453967804194" fill-opacity="0.5" stroke-linejoin="bevel" stroke-miterlimit="10" stroke-width="2" stroke-opacity="0.5"/></g></g></g><g clip-path="url(#GIocGHqmLCoB)"><g><g><path fill="none" stroke="none"/><path fill="none" stroke="black" paint-order="fill stroke markers" d=" M 68.86363636363637 543.8611168180174 L 68.86363636363637 542.0328297810479" stroke-linejoin="bevel" stroke-miterlimit="10" stroke-width="3" stroke-opacity="0.8"/></g></g></g><g clip-path="url(#JOiTxybBRAmX)"><g><g><path fill="none" stroke="none"/><path fill="none" stroke="black" paint-order="fill stroke markers" d=" M 227.95454545454544 534.9387829470566 L 227.95454545454544 528.7243573174644" stroke-linejoin="bevel" stroke-miterlimit="10" stroke-width="3" stroke-opacity="0.8"/></g></g></g><g clip-path="url(#MhKbZyyfAqcq)"><g><g><path fill="none" stroke="none"/><path fill="none" stroke="black" paint-order="fill stroke markers" d=" M 387.0454545454545 537.768976332818 L 387.0454545454545 533.4965890660063" stroke-linejoin="bevel" stroke-miterlimit="10" stroke-width="3" stroke-opacity="0.8"/></g></g></g><g clip-path="url(#vsuGrVZDWhBI)"><g><g><path fill="none" stroke="none"/><path fill="none" stroke="black" paint-order="fill stroke markers" d=" M 546.1363636363635 536.2616123853963 L 546.1363636363635 530.6991432959935" stroke-linejoin="bevel" stroke-miterlimit="10" stroke-width="3" stroke-opacity="0.8"/></g></g></g><g clip-path="url(#gRVeGoMTcSXX)"><g><g><path fill="none" stroke="none"/><path fill="white" stroke="#2ca02c" paint-order="fill stroke markers" d=" M 73.86363636363637 542.9469732995326 A 5 5 0 1 1 73.86363386363658 542.9419733003659" fill-opacity="0.5" stroke-linejoin="bevel" stroke-miterlimit="10" stroke-width="2" stroke-opacity="0.5"/><path fill="white" stroke="#2ca02c" paint-order="fill stroke markers" d=" M 232.95454545454544 531.8315701322605 A 5 5 0 1 1 232.95454295454564 531.8265701330938" fill-opacity="0.5" stroke-linejoin="bevel" stroke-miterlimit="10" stroke-width="2" stroke-opacity="0.5"/><path fill="white" stroke="#2ca02c" paint-order="fill stroke markers" d=" M 392.0454545454545 535.6327826994121 A 5 5 0 1 1 392.04545204545474 535.6277827002455" fill-opacity="0.5" stroke-linejoin="bevel" stroke-miterlimit="10" stroke-width="2" stroke-opacity="0.5"/><path fill="white" stroke="#2ca02c" paint-order="fill stroke markers" d=" M 551.1363636363635 533.4803778406949 A 5 5 0 1 1 551.1363611363637 533.4753778415283" fill-opacity="0.5" stroke-linejoin="bevel" stroke-miterlimit="10" stroke-width="2" stroke-opacity="0.5"/></g></g></g><g clip-path="url(#cckObFZrbnML)"><g><g><path fill="none" stroke="none"/><path fill="none" stroke="black" paint-order="fill stroke markers" d=" M 68.86363636363637 177.77271029118805 L 68.86363636363637 98.4743244618358" stroke-linejoin="bevel" stroke-miterlimit="10" stroke-width="3" stroke-opacity="0.8"/></g></g></g><g clip-path="url(#DSHkvOPiEIDP)"><g><g><path fill="none" stroke="none"/><path fill="none" stroke="black" paint-order="fill stroke markers" d=" M 227.95454545454544 294.2202292752284 L 227.95454545454544 244.51138578339987" stroke-linejoin="bevel" stroke-miterlimit="10" stroke-width="3" stroke-opacity="0.8"/></g></g></g><g clip-path="url(#enBUgMTFKZyl)"><g><g><path fill="none" stroke="none"/><path fill="none" stroke="black" paint-order="fill stroke markers" d=" M 387.0454545454545 397.4880798527452 L 387.0454545454545 269.1044409536193" stroke-linejoin="bevel" stroke-miterlimit="10" stroke-width="3" stroke-opacity="0.8"/></g></g></g><g clip-path="url(#gkTLwXGLMBaL)"><g><g><path fill="none" stroke="none"/><path fill="none" stroke="black" paint-order="fill stroke markers" d=" M 546.1363636363635 197.54975446498105 L 546.1363636363635 116.62501996396617" stroke-linejoin="bevel" stroke-miterlimit="10" stroke-width="3" stroke-opacity="0.8"/></g></g></g><g clip-path="url(#qtqRqHhmFhHc)"><g><g><path fill="none" stroke="none"/><path fill="white" stroke="#d62728" paint-order="fill stroke markers" d=" M 73.86363636363637 138.12351737651193 A 5 5 0 1 1 73.86363386363658 138.11851737734526" fill-opacity="0.5" stroke-linejoin="bevel" stroke-miterlimit="10" stroke-width="2" stroke-opacity="0.5"/><path fill="white" stroke="#d62728" paint-order="fill stroke markers" d=" M 232.95454545454544 269.36580752931417 A 5 5 0 1 1 232.95454295454564 269.3608075301475" fill-opacity="0.5" stroke-linejoin="bevel" stroke-miterlimit="10" stroke-width="2" stroke-opacity="0.5"/><path fill="white" stroke="#d62728" paint-order="fill stroke markers" d=" M 392.0454545454545 333.29626040318226 A 5 5 0 1 1 392.04545204545474 333.2912604040156" fill-opacity="0.5" stroke-linejoin="bevel" stroke-miterlimit="10" stroke-width="2" stroke-opacity="0.5"/><path fill="white" stroke="#d62728" paint-order="fill stroke markers" d=" M 551.1363636363635 157.0873872144736 A 5 5 0 1 1 551.1363611363637 157.08238721530694" fill-opacity="0.5" stroke-linejoin="bevel" stroke-miterlimit="10" stroke-width="2" stroke-opacity="0.5"/></g></g></g><g clip-path="url(#fnNvFCBgTiwi)"><g><g/><g><path fill="#ffffff" stroke="#e5e5e5" paint-order="fill stroke markers" d=" M 439.4591827392578 39 L 560 39 L 560 148 L 439.4591827392578 148 L 439.4591827392578 39 Z" fill-opacity="0.95" stroke-linejoin="bevel" stroke-miterlimit="10" stroke-opacity="0.5"/><text fill="#444444" stroke="none" font-family="helvetica" font-size="10pt" font-style="normal" font-weight="normal" text-decoration="normal" x="474.4591827392578" y="59" text-anchor="start" dominant-baseline="central">fliC-</text><path fill="white" stroke="#1f77b4" paint-order="fill stroke markers" d=" M 463.4591827392578 59 A 4 4 0 1 1 463.459180739258 58.99600000066666" fill-opacity="0.5" stroke-linejoin="bevel" stroke-miterlimit="10" stroke-width="2" stroke-opacity="0.5"/><text fill="#444444" stroke="none" font-family="helvetica" font-size="10pt" font-style="normal" font-weight="normal" text-decoration="normal" x="474.4591827392578" y="82" text-anchor="start" dominant-baseline="central">pilT-pilA-fliC-</text><path fill="white" stroke="#ff7f0e" paint-order="fill stroke markers" d=" M 463.4591827392578 82 A 4 4 0 1 1 463.459180739258 81.99600000066667" fill-opacity="0.5" stroke-linejoin="bevel" stroke-miterlimit="10" stroke-width="2" stroke-opacity="0.5"/><text fill="#444444" stroke="none" font-family="helvetica" font-size="10pt" font-style="normal" font-weight="normal" text-decoration="normal" x="474.4591827392578" y="105" text-anchor="start" dominant-baseline="central">pilG-fliC-</text><path fill="white" stroke="#2ca02c" paint-order="fill stroke markers" d=" M 463.4591827392578 105 A 4 4 0 1 1 463.459180739258 104.99600000066667" fill-opacity="0.5" stroke-linejoin="bevel" stroke-miterlimit="10" stroke-width="2" stroke-opacity="0.5"/><text fill="#444444" stroke="none" font-family="helvetica" font-size="10pt" font-style="normal" font-weight="normal" text-decoration="normal" x="474.4591827392578" y="128" text-anchor="start" dominant-baseline="central">pilH-fliC-</text><path fill="white" stroke="#d62728" paint-order="fill stroke markers" d=" M 463.4591827392578 128 A 4 4 0 1 1 463.459180739258 127.99600000066667" fill-opacity="0.5" stroke-linejoin="bevel" stroke-miterlimit="10" stroke-width="2" stroke-opacity="0.5"/></g></g></g><g><g fill="#444444"><path fill="" stroke="none" d=""/><g transform="translate(45,24)"><path fill="none" stroke="none"/><text fill="" stroke="none" font-family="helvetica" font-size="10pt" font-style="normal" font-weight="bold" text-decoration="normal" x="0" y="0" text-anchor="start" dominant-baseline="text-after-edge">Root mean squared displacement (bootstrap median, data sem)</text></g></g></g><g/><g><g fill="#444444"><path fill="none" stroke="black" paint-order="fill stroke markers" d=" M 45 555 L 570 555" stroke-linejoin="bevel" stroke-miterlimit="10"/><path fill="none" stroke="black" paint-order="fill stroke markers" d=" M 69 561 L 69 553" stroke-linejoin="bevel" stroke-miterlimit="10"/><path fill="none" stroke="black" paint-order="fill stroke markers" d=" M 228 561 L 228 553" stroke-linejoin="bevel" stroke-miterlimit="10"/><path fill="none" stroke="black" paint-order="fill stroke markers" d=" M 387 561 L 387 553" stroke-linejoin="bevel" stroke-miterlimit="10"/><path fill="" stroke="black" paint-order="fill stroke markers" d=" M 546 561 L 546 553" stroke-linejoin="bevel" stroke-miterlimit="10"/><g transform="translate(69,566) rotate(0,0,0)"><text fill="" stroke="none" font-family="helvetica" font-size="8pt" font-style="normal" font-weight="normal" text-decoration="normal" x="0" y="0" text-anchor="middle" dominant-baseline="hanging">0</text><g transform="rotate(0,0,0) translate(-69,-566) translate(228,566) rotate(0,0,0)"><text fill="" stroke="none" font-family="helvetica" font-size="8pt" font-style="normal" font-weight="normal" text-decoration="normal" x="0" y="0" text-anchor="middle" dominant-baseline="hanging">1</text><g transform="rotate(0,0,0) translate(-228,-566) translate(387,566) rotate(0,0,0)"><text fill="" stroke="none" font-family="helvetica" font-size="8pt" font-style="normal" font-weight="normal" text-decoration="normal" x="0" y="0" text-anchor="middle" dominant-baseline="hanging">2</text><g transform="rotate(0,0,0) translate(-387,-566) translate(546,566) rotate(0,0,0)"><text fill="" stroke="none" font-family="helvetica" font-size="8pt" font-style="normal" font-weight="normal" text-decoration="normal" x="0" y="0" text-anchor="middle" dominant-baseline="hanging">3</text><g transform="rotate(0,0,0) translate(-546,-566) translate(308,584) rotate(0,0,0)"><text fill="" stroke="none" font-family="helvetica" font-size="10pt" font-style="italic" font-weight="normal" text-decoration="normal" x="0" y="0" text-anchor="middle" dominant-baseline="hanging">Time (h)</text><g transform="rotate(0,0,0) translate(-308,-584)"/></g></g></g></g></g></g></g><g><g fill="#444444"><path fill="none" stroke="black" paint-order="fill stroke markers" d=" M 45 555 L 45 29" stroke-linejoin="bevel" stroke-miterlimit="10"/><path fill="none" stroke="black" paint-order="fill stroke markers" d=" M 39 555 L 47 555" stroke-linejoin="bevel" stroke-miterlimit="10"/><path fill="none" stroke="black" paint-order="fill stroke markers" d=" M 39 424 L 47 424" stroke-linejoin="bevel" stroke-miterlimit="10"/><path fill="none" stroke="black" paint-order="fill stroke markers" d=" M 39 292 L 47 292" stroke-linejoin="bevel" stroke-miterlimit="10"/><path fill="none" stroke="black" paint-order="fill stroke markers" d=" M 39 161 L 47 161" stroke-linejoin="bevel" stroke-miterlimit="10"/><path fill="" stroke="black" paint-order="fill stroke markers" d=" M 39 29 L 47 29" stroke-linejoin="bevel" stroke-miterlimit="10"/><g transform="translate(34,555) rotate(0,0,0)"><text fill="" stroke="none" font-family="helvetica" font-size="8pt" font-style="normal" font-weight="normal" text-decoration="normal" x="0" y="0" text-anchor="end" dominant-baseline="central">0</text><g transform="rotate(0,0,0) translate(-34,-555) translate(34,424) rotate(0,0,0)"><text fill="" stroke="none" font-family="helvetica" font-size="8pt" font-style="normal" font-weight="normal" text-decoration="normal" x="0" y="0" text-anchor="end" dominant-baseline="central">5</text><g transform="rotate(0,0,0) translate(-34,-424) translate(34,292) rotate(0,0,0)"><text fill="" stroke="none" font-family="helvetica" font-size="8pt" font-style="normal" font-weight="normal" text-decoration="normal" x="0" y="0" text-anchor="end" dominant-baseline="central">10</text><g transform="rotate(0,0,0) translate(-34,-292) translate(34,161) rotate(0,0,0)"><text fill="" stroke="none" font-family="helvetica" font-size="8pt" font-style="normal" font-weight="normal" text-decoration="normal" x="0" y="0" text-anchor="end" dominant-baseline="central">15</text><g transform="rotate(0,0,0) translate(-34,-161) translate(34,29) rotate(0,0,0)"><text fill="" stroke="none" font-family="helvetica" font-size="8pt" font-style="normal" font-weight="normal" text-decoration="normal" x="0" y="0" text-anchor="end" dominant-baseline="central">20</text><g transform="rotate(0,0,0) translate(-34,-29) translate(16,292) rotate(-90,0,0)"><text fill="" stroke="none" font-family="helvetica" font-size="10pt" font-style="italic" font-weight="normal" text-decoration="normal" x="0" y="0" text-anchor="middle" dominant-baseline="alphabetic">RMSD (µm)</text><g transform="rotate(90,0,0) translate(-16,-292)"/></g></g></g></g></g></g></g></g><g clip-path="url(#TXRnMehNTrBx)"><g/></g></g><g/><g/><g/><g/><g/><g/><g/><g/><g/><g/><g/><g/><g/><g/><g/><g/><g/><g/><g/><g/><g/><g/><g/><g/><g/><g/><g/><g/></g></svg>