<?xml version="1.0" encoding="utf-8"?>
<!-- Generator: Adobe Illustrator 24.1.1, SVG Export Plug-In . SVG Version: 6.00 Build 0)  -->
<svg version="1.1" id="Layer_1" xmlns="http://www.w3.org/2000/svg" xmlns:xlink="http://www.w3.org/1999/xlink" x="0px" y="0px"
	 viewBox="0 0 600 600" style="enable-background:new 0 0 600 600;" xml:space="preserve">
<style type="text/css">
	.st0{fill:#FFFFFF;}
	.st1{fill:none;stroke:#E5E5E5;stroke-linejoin:bevel;stroke-miterlimit:10;}
	.st2{clip-path:url(#SVGID_6_);}
	.st3{fill:none;}
	.st4{fill:none;stroke:#000000;stroke-width:3;stroke-linejoin:bevel;stroke-miterlimit:10;stroke-opacity:0.8;}
	.st5{clip-path:url(#SVGID_8_);}
	.st6{clip-path:url(#SVGID_10_);}
	.st7{clip-path:url(#SVGID_12_);}
	.st8{clip-path:url(#SVGID_14_);}
	
		.st9{fill:#FFFFFF;fill-opacity:0.5;stroke:#1F77B4;stroke-width:2;stroke-linejoin:bevel;stroke-miterlimit:10;stroke-opacity:0.5;}
	.st10{clip-path:url(#SVGID_16_);}
	.st11{clip-path:url(#SVGID_18_);}
	.st12{clip-path:url(#SVGID_20_);}
	.st13{clip-path:url(#SVGID_22_);}
	.st14{clip-path:url(#SVGID_24_);}
	
		.st15{fill:#FFFFFF;fill-opacity:0.5;stroke:#FF7F0E;stroke-width:2;stroke-linejoin:bevel;stroke-miterlimit:10;stroke-opacity:0.5;}
	.st16{fill:#FFFFFF;fill-opacity:0.95;stroke:#E5E5E5;stroke-linejoin:bevel;stroke-miterlimit:10;stroke-opacity:0.5;}
	.st17{fill:#444444;}
	.st18{font-family:'ArialMT';}
	.st19{font-size:10px;}
	.st20{font-family:'Arial-BoldMT';}
	.st21{fill:none;stroke:#000000;stroke-linejoin:bevel;stroke-miterlimit:10;}
	.st22{fill:#444444;stroke:#000000;stroke-linejoin:bevel;stroke-miterlimit:10;}
	.st23{font-size:8px;}
	.st24{font-family:'Arial-ItalicMT';}
</style>
<rect x="45.5" y="29.5" class="st0" width="525" height="526"/>
<rect x="45.5" y="29.5" class="st0" width="525" height="526"/>
<g>
	<rect x="45.5" y="29.5" class="st1" width="525" height="526"/>
</g>
<g>
	<defs>
		<rect id="SVGID_1_" x="45.5" y="29.5" width="525" height="526"/>
	</defs>
	<clipPath id="SVGID_2_">
		<use xlink:href="#SVGID_1_"  style="overflow:visible;"/>
	</clipPath>
</g>
<g>
	<defs>
		<rect id="SVGID_3_" x="45.5" y="29.5" width="525" height="526"/>
	</defs>
	<clipPath id="SVGID_4_">
		<use xlink:href="#SVGID_3_"  style="overflow:visible;"/>
	</clipPath>
</g>
<g>
	<defs>
		<rect id="SVGID_5_" x="45.5" y="29.5" width="525" height="526"/>
	</defs>
	<clipPath id="SVGID_6_">
		<use xlink:href="#SVGID_5_"  style="overflow:visible;"/>
	</clipPath>
	<g class="st2">
		<g>
			<g>
				<path class="st3" d="M45.5,29.5"/>
				<path class="st4" d="M69.4,548.7v-1.6"/>
			</g>
		</g>
	</g>
</g>
<g>
	<defs>
		<rect id="SVGID_7_" x="45.5" y="29.5" width="525" height="526"/>
	</defs>
	<clipPath id="SVGID_8_">
		<use xlink:href="#SVGID_7_"  style="overflow:visible;"/>
	</clipPath>
	<g class="st5">
		<g>
			<g>
				<path class="st3" d="M45.5,29.5"/>
				<path class="st4" d="M228.5,516v-11.1"/>
			</g>
		</g>
	</g>
</g>
<g>
	<defs>
		<rect id="SVGID_9_" x="45.5" y="29.5" width="525" height="526"/>
	</defs>
	<clipPath id="SVGID_10_">
		<use xlink:href="#SVGID_9_"  style="overflow:visible;"/>
	</clipPath>
	<g class="st6">
		<g>
			<g>
				<path class="st3" d="M45.5,29.5"/>
				<path class="st4" d="M387.5,498v-34.4"/>
			</g>
		</g>
	</g>
</g>
<g>
	<defs>
		<rect id="SVGID_11_" x="45.5" y="29.5" width="525" height="526"/>
	</defs>
	<clipPath id="SVGID_12_">
		<use xlink:href="#SVGID_11_"  style="overflow:visible;"/>
	</clipPath>
	<g class="st7">
		<g>
			<g>
				<path class="st3" d="M45.5,29.5"/>
				<path class="st4" d="M546.6,505.1v-18.5"/>
			</g>
		</g>
	</g>
</g>
<g>
	<defs>
		<rect id="SVGID_13_" x="45.5" y="29.5" width="525" height="526"/>
	</defs>
	<clipPath id="SVGID_14_">
		<use xlink:href="#SVGID_13_"  style="overflow:visible;"/>
	</clipPath>
	<g class="st8">
		<g>
			<g>
				<path class="st3" d="M45.5,29.5"/>
				<path class="st9" d="M74.4,547.9c0,2.8-2.2,5-5,5c-2.8,0-5-2.2-5-5c0-2.8,2.2-5,5-5C72.1,542.9,74.4,545.1,74.4,547.9"/>
				<path class="st9" d="M233.5,510.4c0,2.8-2.2,5-5,5s-5-2.2-5-5c0-2.8,2.2-5,5-5C231.2,505.4,233.5,507.7,233.5,510.4"/>
				<path class="st9" d="M392.5,480.8c0,2.8-2.2,5-5,5s-5-2.2-5-5s2.2-5,5-5C390.3,475.8,392.5,478.1,392.5,480.8"/>
				<path class="st9" d="M551.6,495.9c0,2.8-2.2,5-5,5s-5-2.2-5-5c0-2.8,2.2-5,5-5C549.4,490.9,551.6,493.1,551.6,495.9"/>
			</g>
		</g>
	</g>
</g>
<g>
	<defs>
		<rect id="SVGID_15_" x="45.5" y="29.5" width="525" height="526"/>
	</defs>
	<clipPath id="SVGID_16_">
		<use xlink:href="#SVGID_15_"  style="overflow:visible;"/>
	</clipPath>
	<g class="st10">
		<g>
			<g>
				<path class="st3" d="M45.5,29.5"/>
				<path class="st4" d="M69.4,547.6v-0.6"/>
			</g>
		</g>
	</g>
</g>
<g>
	<defs>
		<rect id="SVGID_17_" x="45.5" y="29.5" width="525" height="526"/>
	</defs>
	<clipPath id="SVGID_18_">
		<use xlink:href="#SVGID_17_"  style="overflow:visible;"/>
	</clipPath>
	<g class="st11">
		<g>
			<g>
				<path class="st3" d="M45.5,29.5"/>
				<path class="st4" d="M228.5,546v-2.2"/>
			</g>
		</g>
	</g>
</g>
<g>
	<defs>
		<rect id="SVGID_19_" x="45.5" y="29.5" width="525" height="526"/>
	</defs>
	<clipPath id="SVGID_20_">
		<use xlink:href="#SVGID_19_"  style="overflow:visible;"/>
	</clipPath>
	<g class="st12">
		<g>
			<g>
				<path class="st3" d="M45.5,29.5"/>
				<path class="st4" d="M387.5,541.9v-1.8"/>
			</g>
		</g>
	</g>
</g>
<g>
	<defs>
		<rect id="SVGID_21_" x="45.5" y="29.5" width="525" height="526"/>
	</defs>
	<clipPath id="SVGID_22_">
		<use xlink:href="#SVGID_21_"  style="overflow:visible;"/>
	</clipPath>
	<g class="st13">
		<g>
			<g>
				<path class="st3" d="M45.5,29.5"/>
				<path class="st4" d="M546.6,544.1v-1.4"/>
			</g>
		</g>
	</g>
</g>
<g>
	<defs>
		<rect id="SVGID_23_" x="45.5" y="29.5" width="525" height="526"/>
	</defs>
	<clipPath id="SVGID_24_">
		<use xlink:href="#SVGID_23_"  style="overflow:visible;"/>
	</clipPath>
	<g class="st14">
		<g>
			<g>
				<path class="st3" d="M45.5,29.5"/>
				<path class="st15" d="M74.4,547.4c0,2.8-2.2,5-5,5s-5-2.2-5-5c0-2.8,2.2-5,5-5C72.1,542.4,74.4,544.6,74.4,547.4"/>
				<path class="st15" d="M233.5,544.8c0,2.8-2.2,5-5,5s-5-2.2-5-5c0-2.8,2.2-5,5-5C231.2,539.8,233.5,542.1,233.5,544.8"/>
				<path class="st15" d="M392.5,541c0,2.8-2.2,5-5,5s-5-2.2-5-5s2.2-5,5-5C390.3,536,392.5,538.3,392.5,541"/>
				<path class="st15" d="M551.6,543.5c0,2.8-2.2,5-5,5s-5-2.2-5-5s2.2-5,5-5C549.4,538.4,551.6,540.7,551.6,543.5"/>
			</g>
		</g>
	</g>
</g>
<g>
	<g>
		<g>
			<path class="st16" d="M440,39.5h120.5v63H440V39.5z"/>
			<text transform="matrix(1 0 0 1 474.9592 59.5)" class="st17 st18 st19">fliC-</text>
			<path class="st9" d="M464,59.5c0,2.2-1.8,4-4,4c-2.2,0-4-1.8-4-4s1.8-4,4-4C462.2,55.5,464,57.3,464,59.5"/>
			<text transform="matrix(1 0 0 1 474.9592 82.5)" class="st17 st18 st19">pilT-pilA-fliC-</text>
			<path class="st15" d="M464,82.5c0,2.2-1.8,4-4,4c-2.2,0-4-1.8-4-4s1.8-4,4-4C462.2,78.5,464,80.3,464,82.5"/>
		</g>
	</g>
</g>
<g>
	<g>
		<path class="st15" d="M0.5,0.5"/>
		<g transform="translate(45,24)">
			<path class="st15" d="M0.5,0.5"/>
			<text transform="matrix(1 0 0 1 0.5 0.5)" class="st17 st20 st19">Root mean squared displacement (bootstrap median, data sem)</text>
		</g>
	</g>
</g>
<g>
	<g>
		<path class="st21" d="M45.5,555.5h525"/>
		<path class="st21" d="M69.5,561.5v-8"/>
		<path class="st21" d="M228.5,561.5v-8"/>
		<path class="st21" d="M387.5,561.5v-8"/>
		<path class="st22" d="M546.5,561.5v-8"/>
		<g transform="translate(69,566) rotate(0,0,0)">
			<text transform="matrix(1 0 0 1 -1.7246 7.3652)" class="st17 st18 st23">0</text>
			<g transform="rotate(0,0,0) translate(-69,-566) translate(228,566) rotate(0,0,0)">
				<text transform="matrix(1 0 0 1 -1.7246 7.3652)" class="st17 st18 st23">1</text>
				<g transform="rotate(0,0,0) translate(-228,-566) translate(387,566) rotate(0,0,0)">
					<text transform="matrix(1 0 0 1 -1.7246 7.3652)" class="st17 st18 st23">2</text>
					<g transform="rotate(0,0,0) translate(-387,-566) translate(546,566) rotate(0,0,0)">
						<text transform="matrix(1 0 0 1 -1.7246 7.3652)" class="st17 st18 st23">3</text>
						<g transform="rotate(0,0,0) translate(-546,-566) translate(308,584) rotate(0,0,0)">
							<text transform="matrix(1 0 0 1 -18.0669 9.0791)" class="st17 st24 st19">Time (h)</text>
							<g transform="rotate(0,0,0) translate(-308,-584)">
							</g>
						</g>
					</g>
				</g>
			</g>
		</g>
	</g>
</g>
<g>
	<g>
		<path class="st21" d="M45.5,555.5v-526"/>
		<path class="st21" d="M39.5,555.5h8"/>
		<path class="st21" d="M39.5,424.5h8"/>
		<path class="st21" d="M39.5,292.5h8"/>
		<path class="st21" d="M39.5,161.5h8"/>
		<path class="st22" d="M39.5,29.5h8"/>
		<g transform="translate(34,555) rotate(0,0,0)">
			<text transform="matrix(1 0 0 1 -3.9492 0.5)" class="st17 st18 st23">0</text>
			<g transform="rotate(0,0,0) translate(-34,-555) translate(34,424) rotate(0,0,0)">
				<text transform="matrix(1 0 0 1 -3.9492 0.5)" class="st17 st18 st23">5</text>
				<g transform="rotate(0,0,0) translate(-34,-424) translate(34,292) rotate(0,0,0)">
					<text transform="matrix(1 0 0 1 -8.3984 0.5)" class="st17 st18 st23">10</text>
					<g transform="rotate(0,0,0) translate(-34,-292) translate(34,161) rotate(0,0,0)">
						<text transform="matrix(1 0 0 1 -8.3984 0.5)" class="st17 st18 st23">15</text>
						<g transform="rotate(0,0,0) translate(-34,-161) translate(34,29) rotate(0,0,0)">
							<text transform="matrix(1 0 0 1 -8.3984 0.5)" class="st17 st18 st23">20</text>
							<g transform="rotate(0,0,0) translate(-34,-29) translate(16,292) rotate(-90,0,0)">
								<text transform="matrix(1 0 0 1 -26.9864 0.5)" class="st17 st24 st19">RMSD (µm)</text>
								<g transform="rotate(90,0,0) translate(-16,-292)">
								</g>
							</g>
						</g>
					</g>
				</g>
			</g>
		</g>
	</g>
</g>
</svg>
