<?xml version="1.0" encoding="utf-8"?>
<!-- Generator: Adobe Illustrator 22.0.1, SVG Export Plug-In . SVG Version: 6.00 Build 0)  -->
<svg version="1.1" id="Layer_1" xmlns="http://www.w3.org/2000/svg" xmlns:xlink="http://www.w3.org/1999/xlink" x="0px" y="0px"
	 viewBox="0 0 600 400" style="enable-background:new 0 0 600 400;" xml:space="preserve">
<style type="text/css">
	.st0{fill:none;}
	.st1{fill:none;stroke:#E5E5E5;stroke-width:0.9638;stroke-linejoin:bevel;stroke-miterlimit:10;}
	.st2{fill:none;stroke:#FF7F0E;stroke-linejoin:bevel;stroke-miterlimit:10;stroke-opacity:0.8;}
	.st3{fill:none;stroke:#E5E5E5;stroke-width:0.9785;stroke-linejoin:bevel;stroke-miterlimit:10;}
	.st4{fill:none;stroke:#E5E5E5;stroke-linejoin:bevel;stroke-miterlimit:10;}
	.st5{fill:none;stroke:#1F77B4;stroke-linejoin:bevel;stroke-miterlimit:10;stroke-opacity:0.8;}
	.st6{fill:#1F77B4;fill-opacity:0.8;stroke:#1F77B4;stroke-linejoin:bevel;stroke-miterlimit:10;stroke-opacity:0.8;}
	.st7{fill:none;stroke:#AEC7E8;stroke-linejoin:bevel;stroke-miterlimit:10;stroke-opacity:0.8;}
	.st8{fill:#AEC7E8;fill-opacity:0.8;stroke:#AEC7E8;stroke-linejoin:bevel;stroke-miterlimit:10;stroke-opacity:0.8;}
	.st9{fill:#FF7F0E;fill-opacity:0.8;stroke:#FF7F0E;stroke-linejoin:bevel;stroke-miterlimit:10;stroke-opacity:0.8;}
	.st10{fill:none;stroke:#000000;stroke-width:2;stroke-linejoin:bevel;stroke-miterlimit:10;stroke-opacity:0.5;}
	.st11{fill:none;stroke:#000000;stroke-width:0.9643;stroke-linejoin:bevel;stroke-miterlimit:10;}
	.st12{fill:none;stroke:#000000;stroke-linejoin:bevel;stroke-miterlimit:10;}
	.st13{fill:#444444;stroke:#000000;stroke-linejoin:bevel;stroke-miterlimit:10;}
	.st14{fill:#444444;}
	.st15{font-family:'ArialMT';}
	.st16{font-size:8px;}
	.st17{font-family:'Arial-ItalicMT';}
	.st18{font-size:10px;}
	
		.st19{fill:#FFFFFF;fill-opacity:0.95;stroke:#E5E5E5;stroke-width:0.7643;stroke-linejoin:bevel;stroke-miterlimit:10;stroke-opacity:0.5;}
</style>
<rect x="45" y="29.3" class="st0" width="525" height="326"/>
<path class="st1" d="M64,353.3h506"/>
<path class="st1" d="M64,292.3h506"/>
<path class="st1" d="M64,231.3h506"/>
<path class="st1" d="M64,170.3h506"/>
<path class="st1" d="M64,110.3h506"/>
<path class="st1" d="M64,49.3h506"/>
<path class="st2" d="M50.8,24"/>
<rect x="64.3" y="29.3" class="st3" width="505.8" height="324"/>
<path class="st4" d="M64,355.3v-326"/>
<path class="st4" d="M130,355.3v-326"/>
<path class="st4" d="M196,355.3v-326"/>
<path class="st4" d="M261,355.3v-326"/>
<path class="st4" d="M327,355.3v-326"/>
<path class="st4" d="M393,355.3v-326"/>
<path class="st4" d="M459,355.3v-326"/>
<path class="st4" d="M525,355.3v-326"/>
<path class="st0" d="M45,29.3"/>
<path class="st5" d="M63.9,317.9l131.7-20.4l131.7-110.6l131.7-40.6"/>
<path class="st0" d="M45,29.3"/>
<path class="st6" d="M66.4,317.9c0,1.4-1.1,2.5-2.5,2.5c-1.4,0-2.5-1.1-2.5-2.5s1.1-2.5,2.5-2.5C65.3,315.4,66.4,316.5,66.4,317.9"
	/>
<path class="st6" d="M198.1,297.5c0,1.4-1.1,2.5-2.5,2.5s-2.5-1.1-2.5-2.5s1.1-2.5,2.5-2.5C197,295,198.1,296.1,198.1,297.5"/>
<path class="st6" d="M329.7,186.9c0,1.4-1.1,2.5-2.5,2.5s-2.5-1.1-2.5-2.5s1.1-2.5,2.5-2.5C328.6,184.4,329.7,185.5,329.7,186.9"/>
<path class="st6" d="M461.4,146.3c0,1.4-1.1,2.5-2.5,2.5s-2.5-1.1-2.5-2.5s1.1-2.5,2.5-2.5C460.3,143.8,461.4,144.9,461.4,146.3"/>
<path class="st0" d="M45,29.3"/>
<path class="st7" d="M63.9,332.1l131.7-24.1l131.7,14.6l131.7-20"/>
<path class="st0" d="M45,29.3"/>
<path class="st8" d="M66.4,332.1c0,1.4-1.1,2.5-2.5,2.5c-1.4,0-2.5-1.1-2.5-2.5s1.1-2.5,2.5-2.5C65.3,329.6,66.4,330.8,66.4,332.1"
	/>
<path class="st8" d="M198.1,308.1c0,1.4-1.1,2.5-2.5,2.5s-2.5-1.1-2.5-2.5s1.1-2.5,2.5-2.5C197,305.6,198.1,306.7,198.1,308.1"/>
<path class="st8" d="M329.7,322.7c0,1.4-1.1,2.5-2.5,2.5s-2.5-1.1-2.5-2.5s1.1-2.5,2.5-2.5C328.6,320.2,329.7,321.3,329.7,322.7"/>
<path class="st8" d="M461.4,302.6c0,1.4-1.1,2.5-2.5,2.5s-2.5-1.1-2.5-2.5s1.1-2.5,2.5-2.5C460.3,300.1,461.4,301.2,461.4,302.6"/>
<path class="st0" d="M45,29.3"/>
<path class="st2" d="M63.9,214.4l131.7-66.5l131.7-54.8l131.7,58.5"/>
<path class="st0" d="M45,29.3"/>
<path class="st9" d="M66.4,214.4c0,1.4-1.1,2.5-2.5,2.5c-1.4,0-2.5-1.1-2.5-2.5s1.1-2.5,2.5-2.5C65.3,211.9,66.4,213.1,66.4,214.4"
	/>
<path class="st9" d="M198.1,147.9c0,1.4-1.1,2.5-2.5,2.5s-2.5-1.1-2.5-2.5s1.1-2.5,2.5-2.5C197,145.4,198.1,146.5,198.1,147.9"/>
<path class="st9" d="M329.7,93.1c0,1.4-1.1,2.5-2.5,2.5c-1.4,0-2.5-1.1-2.5-2.5s1.1-2.5,2.5-2.5C328.6,90.6,329.7,91.7,329.7,93.1"
	/>
<path class="st9" d="M461.4,151.6c0,1.4-1.1,2.5-2.5,2.5s-2.5-1.1-2.5-2.5s1.1-2.5,2.5-2.5C460.3,149.1,461.4,150.2,461.4,151.6"/>
<path class="st0" d="M45,29.3"/>
<path class="st10" d="M63.9,320v-4.2"/>
<path class="st0" d="M45,29.3"/>
<path class="st10" d="M195.6,300.9v-6.7"/>
<path class="st0" d="M45,29.3"/>
<path class="st10" d="M327.2,189.7v-5.6"/>
<path class="st0" d="M45,29.3"/>
<path class="st10" d="M458.9,148.7v-4.9"/>
<path class="st0" d="M45,29.3"/>
<path class="st10" d="M63.9,333.3V331"/>
<path class="st0" d="M45,29.3"/>
<path class="st10" d="M195.6,309.8v-3.5"/>
<path class="st0" d="M45,29.3"/>
<path class="st10" d="M327.2,324.7v-4.1"/>
<path class="st0" d="M45,29.3"/>
<path class="st10" d="M458.9,303.7v-2.2"/>
<path class="st0" d="M45,29.3"/>
<path class="st10" d="M63.9,218.8v-8.6"/>
<path class="st0" d="M45,29.3"/>
<path class="st10" d="M195.6,152.5v-9.1"/>
<path class="st0" d="M45,29.3"/>
<path class="st10" d="M327.2,98.2V88"/>
<path class="st0" d="M45,29.3"/>
<path class="st10" d="M458.9,157.3v-11.5"/>
<path class="st11" d="M63.8,353.3H570"/>
<path class="st12" d="M64,359.3v-8"/>
<path class="st12" d="M130,359.3v-8"/>
<path class="st12" d="M196,359.3v-8"/>
<path class="st12" d="M261,359.3v-8"/>
<path class="st12" d="M327,359.3v-8"/>
<path class="st12" d="M393,359.3v-8"/>
<path class="st12" d="M459,359.3v-8"/>
<path class="st12" d="M525,359.3v-8"/>
<path class="st12" d="M64,357.3v-4"/>
<path class="st12" d="M77,357.3v-4"/>
<path class="st12" d="M90,357.3v-4"/>
<path class="st12" d="M103,357.3v-4"/>
<path class="st12" d="M117,357.3v-4"/>
<path class="st12" d="M130,357.3v-4"/>
<path class="st12" d="M143,357.3v-4"/>
<path class="st12" d="M156,357.3v-4"/>
<path class="st12" d="M169,357.3v-4"/>
<path class="st12" d="M182,357.3v-4"/>
<path class="st12" d="M196,357.3v-4"/>
<path class="st12" d="M209,357.3v-4"/>
<path class="st12" d="M222,357.3v-4"/>
<path class="st12" d="M235,357.3v-4"/>
<path class="st12" d="M248,357.3v-4"/>
<path class="st12" d="M261,357.3v-4"/>
<path class="st12" d="M275,357.3v-4"/>
<path class="st12" d="M288,357.3v-4"/>
<path class="st12" d="M301,357.3v-4"/>
<path class="st12" d="M314,357.3v-4"/>
<path class="st12" d="M327,357.3v-4"/>
<path class="st12" d="M340,357.3v-4"/>
<path class="st12" d="M354,357.3v-4"/>
<path class="st12" d="M367,357.3v-4"/>
<path class="st12" d="M380,357.3v-4"/>
<path class="st12" d="M393,357.3v-4"/>
<path class="st12" d="M406,357.3v-4"/>
<path class="st12" d="M419,357.3v-4"/>
<path class="st12" d="M433,357.3v-4"/>
<path class="st12" d="M446,357.3v-4"/>
<path class="st12" d="M459,357.3v-4"/>
<path class="st12" d="M472,357.3v-4"/>
<path class="st12" d="M485,357.3v-4"/>
<path class="st12" d="M498,357.3v-4"/>
<path class="st12" d="M512,357.3v-4"/>
<path class="st12" d="M525,357.3v-4"/>
<path class="st12" d="M538,357.3v-4"/>
<path class="st12" d="M551,357.3v-4"/>
<path class="st13" d="M564,357.3v-4"/>
<g transform="translate(64,366) rotate(0,0,0)">
	<text transform="matrix(1 0 0 1 -2.2246 5.1152)" class="st14 st15 st16">0</text>
	<g transform="rotate(0,0,0) translate(-64,-366) translate(130,366) rotate(0,0,0)">
		<text transform="matrix(1 0 0 1 -5.5605 5.1152)" class="st14 st15 st16">0.5</text>
		<g transform="rotate(0,0,0) translate(-130,-366) translate(196,366) rotate(0,0,0)">
			<text transform="matrix(1 0 0 1 -2.2246 5.1152)" class="st14 st15 st16">1</text>
			<g transform="rotate(0,0,0) translate(-196,-366) translate(261,366) rotate(0,0,0)">
				<text transform="matrix(1 0 0 1 -5.5605 5.1152)" class="st14 st15 st16">1.5</text>
				<g transform="rotate(0,0,0) translate(-261,-366) translate(327,366) rotate(0,0,0)">
					<text transform="matrix(1 0 0 1 -2.2246 5.1152)" class="st14 st15 st16">2</text>
					<g transform="rotate(0,0,0) translate(-327,-366) translate(393,366) rotate(0,0,0)">
						<text transform="matrix(1 0 0 1 -5.5605 5.1152)" class="st14 st15 st16">2.5</text>
						<g transform="rotate(0,0,0) translate(-393,-366) translate(459,366) rotate(0,0,0)">
							<text transform="matrix(1 0 0 1 -2.2246 5.1152)" class="st14 st15 st16">3</text>
							<g transform="rotate(0,0,0) translate(-459,-366) translate(525,366) rotate(0,0,0)">
								<text transform="matrix(1 0 0 1 -5.5605 5.1152)" class="st14 st15 st16">3.5</text>
								<g transform="rotate(0,0,0) translate(-525,-366) translate(308,384) rotate(0,0,0)">
									<text transform="matrix(1 0 0 1 -18.2861 6.8291)" class="st14 st17 st18">Time (s)</text>
									<g transform="rotate(0,0,0) translate(-308,-384)">
									</g>
								</g>
							</g>
						</g>
					</g>
				</g>
			</g>
		</g>
	</g>
</g>
<g>
	<g>
		<path class="st12" d="M64,355.3v-326"/>
		<path class="st12" d="M58,353.3h8"/>
		<path class="st12" d="M58,292.3h8"/>
		<path class="st12" d="M58,231.3h8"/>
		<path class="st12" d="M58,170.3h8"/>
		<path class="st12" d="M58,110.3h8"/>
		<path class="st12" d="M58,49.3h8"/>
		<path class="st12" d="M60,353.3h4"/>
		<path class="st12" d="M60,341.3h4"/>
		<path class="st12" d="M60,328.3h4"/>
		<path class="st12" d="M60,316.3h4"/>
		<path class="st12" d="M60,304.3h4"/>
		<path class="st12" d="M60,292.3h4"/>
		<path class="st12" d="M60,280.3h4"/>
		<path class="st12" d="M60,268.3h4"/>
		<path class="st12" d="M60,255.3h4"/>
		<path class="st12" d="M60,243.3h4"/>
		<path class="st12" d="M60,231.3h4"/>
		<path class="st12" d="M60,219.3h4"/>
		<path class="st12" d="M60,207.3h4"/>
		<path class="st12" d="M60,195.3h4"/>
		<path class="st12" d="M60,183.3h4"/>
		<path class="st12" d="M60,170.3h4"/>
		<path class="st12" d="M60,158.3h4"/>
		<path class="st12" d="M60,146.3h4"/>
		<path class="st12" d="M60,134.3h4"/>
		<path class="st12" d="M60,122.3h4"/>
		<path class="st12" d="M60,110.3h4"/>
		<path class="st12" d="M60,98.3h4"/>
		<path class="st12" d="M60,85.3h4"/>
		<path class="st12" d="M60,73.3h4"/>
		<path class="st12" d="M60,61.3h4"/>
		<path class="st12" d="M60,49.3h4"/>
		<path class="st13" d="M60,37.3h4"/>
		<g transform="translate(34,353) rotate(0,0,0)">
			<text transform="matrix(1 0 0 1 14.5508 0.25)" class="st14 st15 st16">0</text>
			<g transform="rotate(0,0,0) translate(-34,-353) translate(34,292) rotate(0,0,0)">
				<text transform="matrix(1 0 0 1 10.1016 0.25)" class="st14 st15 st16">10</text>
				<g transform="rotate(0,0,0) translate(-34,-292) translate(34,231) rotate(0,0,0)">
					<text transform="matrix(1 0 0 1 10.1016 0.25)" class="st14 st15 st16">20</text>
					<g transform="rotate(0,0,0) translate(-34,-231) translate(34,170) rotate(0,0,0)">
						<text transform="matrix(1 0 0 1 10.1016 0.25)" class="st14 st15 st16">30</text>
						<g transform="rotate(0,0,0) translate(-34,-170) translate(34,110) rotate(0,0,0)">
							<text transform="matrix(1 0 0 1 10.1016 0.25)" class="st14 st15 st16">40</text>
							<g transform="rotate(0,0,0) translate(-34,-110) translate(34,49) rotate(0,0,0)">
								<text transform="matrix(1 0 0 1 10.1016 0.25)" class="st14 st15 st16">50</text>
								<g transform="rotate(0,0,0) translate(-34,-49) translate(16,192) rotate(-90,0,0)">
									<text transform="matrix(1 0 0 1 -35.9189 19)" class="st14 st17 st18">Speed (µm/min)</text>
									<g transform="rotate(90,0,0) translate(-16,-192)">
									</g>
								</g>
							</g>
						</g>
					</g>
				</g>
			</g>
		</g>
	</g>
</g>
<g>
	<path class="st19" d="M443,58.5h107.8V123H443V58.5z"/>
	<text transform="matrix(1 0 0 1 475.4141 71.75)" class="st14 st15 st18">fliC-_PaQa</text>
	<g>
		<path class="st5" d="M451.2,69.1h20"/>
	</g>
	<text transform="matrix(1 0 0 1 475.4141 93.75)" class="st14 st15 st18">pilG-fliC-_PaQa</text>
	<g>
		<path class="st7" d="M451.2,91.1h20"/>
	</g>
	<text transform="matrix(1 0 0 1 475.4141 115.75)" class="st14 st15 st18">pilH-fliC-_PaQa</text>
	<g>
		<path class="st2" d="M451.2,113.1h20"/>
	</g>
</g>
</svg>
