<svg version="1.1" xmlns="http://www.w3.org/2000/svg" xmlns:xlink="http://www.w3.org/1999/xlink" width="500" height="300"><defs><clipPath id="fROyPenHQVuW"><path fill="none" stroke="none" d="M 55.5 28.5 L 470.5 28.5 L 470.5 255.5 L 55.5 255.5 L 55.5 28.5"/></clipPath><clipPath id="HdSzLtxKSzEM"><path fill="none" stroke="none" d="M 55.5 28.5 L 470.5 28.5 L 470.5 255.5 L 55.5 255.5 L 55.5 28.5"/></clipPath><clipPath id="TcAKxFOWFkux"><path fill="none" stroke="none" d="M 55.5 28.5 L 470.5 28.5 L 470.5 255.5 L 55.5 255.5 L 55.5 28.5"/></clipPath><clipPath id="eoKGbrzIyDXJ"><path fill="none" stroke="none" d="M 55.5 28.5 L 470.5 28.5 L 470.5 255.5 L 55.5 255.5 L 55.5 28.5"/></clipPath></defs><path fill="rgb(255,255,255)" stroke="none" paint-order="stroke" d="M 0.5 0.5 L 500.5 0.5 L 500.5 300.5 L 0.5 300.5 L 0.5 0.5" fill-opacity="1"/><rect fill="#FFFFFF" stroke="none" x="55" y="28" width="415" height="227" transform="matrix(1, 0, 0, 1, 0.5, 0.5)"/><path fill="rgb(255,255,255)" stroke="none" paint-order="stroke" d="M 55.5 28.5 L 470.5 28.5 L 470.5 255.5 L 55.5 255.5 L 55.5 28.5" fill-opacity="1"/><path fill="none" stroke="rgb(229,229,229)" paint-order="fill" d="M 55.5 28.5 L 470.5 28.5 L 470.5 255.5 L 55.5 255.5 L 55.5 28.5" stroke-opacity="1" stroke-linejoin="bevel" stroke-miterlimit="10" stroke-dasharray=""/><path fill="none" stroke="rgb(229,229,229)" paint-order="fill" d="M 55.5 223.5 L 470.5 223.5 M 55.5 190.5 L 470.5 190.5 M 55.5 158.5 L 470.5 158.5 M 55.5 125.5 L 470.5 125.5 M 55.5 93.5 L 470.5 93.5 M 55.5 60.5 L 470.5 60.5" stroke-opacity="1" stroke-linejoin="bevel" stroke-miterlimit="10" stroke-dasharray="" clip-path="url(#HdSzLtxKSzEM)"/><path fill="none" stroke="none"/><path fill="rgb(31,119,180)" stroke="none" paint-order="stroke" d="M 74.36363983154297 219.58755493164062 L 112.51480865478516 219.58755493164062 L 112.51480865478516 255.5 L 74.36363983154297 255.5 L 74.36363983154297 219.58755493164062" fill-opacity="1" clip-path="url(#TcAKxFOWFkux)"/><path fill="none" stroke="rgb(31,119,180)" paint-order="fill" d="M 74.36363983154297 219.58755493164062 L 112.51480865478516 219.58755493164062 L 112.51480865478516 255.5 L 74.36363983154297 255.5 L 74.36363983154297 219.58755493164062" stroke-opacity="1" stroke-linejoin="bevel" stroke-miterlimit="10" stroke-dasharray="" clip-path="url(#TcAKxFOWFkux)"/><path fill="rgb(31,119,180)" stroke="none" paint-order="stroke" d="M 116.75383758544922 255.5 L 154.90499877929688 255.5 L 154.90499877929688 255.5 L 116.75383758544922 255.5 L 116.75383758544922 255.5" fill-opacity="1" clip-path="url(#TcAKxFOWFkux)"/><path fill="none" stroke="rgb(31,119,180)" paint-order="fill" d="M 116.75383758544922 255.5 L 154.90499877929688 255.5 L 154.90499877929688 255.5 L 116.75383758544922 255.5 L 116.75383758544922 255.5" stroke-opacity="1" stroke-linejoin="bevel" stroke-miterlimit="10" stroke-dasharray="" clip-path="url(#TcAKxFOWFkux)"/><path fill="rgb(31,119,180)" stroke="none" paint-order="stroke" d="M 159.14401245117188 255.5 L 197.29519653320312 255.5 L 197.29519653320312 255.5 L 159.14401245117188 255.5 L 159.14401245117188 255.5" fill-opacity="1" clip-path="url(#TcAKxFOWFkux)"/><path fill="none" stroke="rgb(31,119,180)" paint-order="fill" d="M 159.14401245117188 255.5 L 197.29519653320312 255.5 L 197.29519653320312 255.5 L 159.14401245117188 255.5 L 159.14401245117188 255.5" stroke-opacity="1" stroke-linejoin="bevel" stroke-miterlimit="10" stroke-dasharray="" clip-path="url(#TcAKxFOWFkux)"/><path fill="rgb(31,119,180)" stroke="none" paint-order="stroke" d="M 201.53421020507812 184.75619506835938 L 239.68539428710938 184.75619506835938 L 239.68539428710938 255.5 L 201.53421020507812 255.5 L 201.53421020507812 184.75619506835938" fill-opacity="1" clip-path="url(#TcAKxFOWFkux)"/><path fill="none" stroke="rgb(31,119,180)" paint-order="fill" d="M 201.53421020507812 184.75619506835938 L 239.68539428710938 184.75619506835938 L 239.68539428710938 255.5 L 201.53421020507812 255.5 L 201.53421020507812 184.75619506835938" stroke-opacity="1" stroke-linejoin="bevel" stroke-miterlimit="10" stroke-dasharray="" clip-path="url(#TcAKxFOWFkux)"/><path fill="rgb(31,119,180)" stroke="none" paint-order="stroke" d="M 243.92440795898438 153.03977966308594 L 282.0755920410156 153.03977966308594 L 282.0755920410156 255.5 L 243.92440795898438 255.5 L 243.92440795898438 153.03977966308594" fill-opacity="1" clip-path="url(#TcAKxFOWFkux)"/><path fill="none" stroke="rgb(31,119,180)" paint-order="fill" d="M 243.92440795898438 153.03977966308594 L 282.0755920410156 153.03977966308594 L 282.0755920410156 255.5 L 243.92440795898438 255.5 L 243.92440795898438 153.03977966308594" stroke-opacity="1" stroke-linejoin="bevel" stroke-miterlimit="10" stroke-dasharray="" clip-path="url(#TcAKxFOWFkux)"/><path fill="rgb(31,119,180)" stroke="none" paint-order="stroke" d="M 286.3146057128906 197.34963989257812 L 324.4657897949219 197.34963989257812 L 324.4657897949219 255.5 L 286.3146057128906 255.5 L 286.3146057128906 197.34963989257812" fill-opacity="1" clip-path="url(#TcAKxFOWFkux)"/><path fill="none" stroke="rgb(31,119,180)" paint-order="fill" d="M 286.3146057128906 197.34963989257812 L 324.4657897949219 197.34963989257812 L 324.4657897949219 255.5 L 286.3146057128906 255.5 L 286.3146057128906 197.34963989257812" stroke-opacity="1" stroke-linejoin="bevel" stroke-miterlimit="10" stroke-dasharray="" clip-path="url(#TcAKxFOWFkux)"/><path fill="rgb(31,119,180)" stroke="none" paint-order="stroke" d="M 328.7048034667969 130.7292938232422 L 366.8559875488281 130.7292938232422 L 366.8559875488281 255.5 L 328.7048034667969 255.5 L 328.7048034667969 130.7292938232422" fill-opacity="1" clip-path="url(#TcAKxFOWFkux)"/><path fill="none" stroke="rgb(31,119,180)" paint-order="fill" d="M 328.7048034667969 130.7292938232422 L 366.8559875488281 130.7292938232422 L 366.8559875488281 255.5 L 328.7048034667969 255.5 L 328.7048034667969 130.7292938232422" stroke-opacity="1" stroke-linejoin="bevel" stroke-miterlimit="10" stroke-dasharray="" clip-path="url(#TcAKxFOWFkux)"/><path fill="rgb(31,119,180)" stroke="none" paint-order="stroke" d="M 371.09503173828125 40.08176040649414 L 409.24615478515625 40.08176040649414 L 409.24615478515625 255.5 L 371.09503173828125 255.5 L 371.09503173828125 40.08176040649414" fill-opacity="1" clip-path="url(#TcAKxFOWFkux)"/><path fill="none" stroke="rgb(31,119,180)" paint-order="fill" d="M 371.09503173828125 40.08176040649414 L 409.24615478515625 40.08176040649414 L 409.24615478515625 255.5 L 371.09503173828125 255.5 L 371.09503173828125 40.08176040649414" stroke-opacity="1" stroke-linejoin="bevel" stroke-miterlimit="10" stroke-dasharray="" clip-path="url(#TcAKxFOWFkux)"/><path fill="rgb(31,119,180)" stroke="none" paint-order="stroke" d="M 413.4852294921875 240.1376495361328 L 451.6363525390625 240.1376495361328 L 451.6363525390625 255.5 L 413.4852294921875 255.5 L 413.4852294921875 240.1376495361328" fill-opacity="1" clip-path="url(#TcAKxFOWFkux)"/><path fill="none" stroke="rgb(31,119,180)" paint-order="fill" d="M 413.4852294921875 240.1376495361328 L 451.6363525390625 240.1376495361328 L 451.6363525390625 255.5 L 413.4852294921875 255.5 L 413.4852294921875 240.1376495361328" stroke-opacity="1" stroke-linejoin="bevel" stroke-miterlimit="10" stroke-dasharray="" clip-path="url(#TcAKxFOWFkux)"/><path fill="none" stroke="rgb(0,0,0)" paint-order="fill" d="M 55.5 255.5 L 470.5 255.5" stroke-opacity="1" stroke-linejoin="bevel" stroke-miterlimit="10" stroke-dasharray=""/><path fill="none" stroke="rgb(0,0,0)" paint-order="fill" d="M 92.5 261.5 L 92.5 253.5 M 159.5 261.5 L 159.5 253.5 M 226.5 261.5 L 226.5 253.5 M 293.5 261.5 L 293.5 253.5 M 360.5 261.5 L 360.5 253.5 M 427.5 261.5 L 427.5 253.5" stroke-opacity="1" stroke-linejoin="bevel" stroke-miterlimit="10" stroke-dasharray=""/><path fill="none" stroke="rgb(0,0,0)" paint-order="fill" d="M 78.5 259.5 L 78.5 255.5 M 65.5 259.5 L 65.5 255.5 M 92.5 259.5 L 92.5 255.5 M 105.5 259.5 L 105.5 255.5 M 118.5 259.5 L 118.5 255.5 M 132.5 259.5 L 132.5 255.5 M 145.5 259.5 L 145.5 255.5 M 159.5 259.5 L 159.5 255.5 M 172.5 259.5 L 172.5 255.5 M 186.5 259.5 L 186.5 255.5 M 199.5 259.5 L 199.5 255.5 M 212.5 259.5 L 212.5 255.5 M 226.5 259.5 L 226.5 255.5 M 239.5 259.5 L 239.5 255.5 M 253.5 259.5 L 253.5 255.5 M 266.5 259.5 L 266.5 255.5 M 279.5 259.5 L 279.5 255.5 M 293.5 259.5 L 293.5 255.5 M 306.5 259.5 L 306.5 255.5 M 320.5 259.5 L 320.5 255.5 M 333.5 259.5 L 333.5 255.5 M 346.5 259.5 L 346.5 255.5 M 360.5 259.5 L 360.5 255.5 M 373.5 259.5 L 373.5 255.5 M 387.5 259.5 L 387.5 255.5 M 400.5 259.5 L 400.5 255.5 M 413.5 259.5 L 413.5 255.5 M 427.5 259.5 L 427.5 255.5 M 440.5 259.5 L 440.5 255.5 M 454.5 259.5 L 454.5 255.5 M 467.5 259.5 L 467.5 255.5" stroke-opacity="1" stroke-linejoin="bevel" stroke-miterlimit="10" stroke-dasharray=""/><text fill="rgb(68,68,68)" stroke="none" font-family="helvetica" font-size="11px" font-style="normal" font-weight="normal" text-decoration="normal" x="0" y="0" text-anchor="middle" dominant-baseline="hanging" transform="matrix(1, 0, 0, 1, 92.5, 266.5)" fill-opacity="1">39</text><text fill="rgb(68,68,68)" stroke="none" font-family="helvetica" font-size="11px" font-style="normal" font-weight="normal" text-decoration="normal" x="0" y="0" text-anchor="middle" dominant-baseline="hanging" transform="matrix(1, 0, 0, 1, 159.5, 266.5)" fill-opacity="1">39.5</text><text fill="rgb(68,68,68)" stroke="none" font-family="helvetica" font-size="11px" font-style="normal" font-weight="normal" text-decoration="normal" x="0" y="0" text-anchor="middle" dominant-baseline="hanging" transform="matrix(1, 0, 0, 1, 226.5, 266.5)" fill-opacity="1">40</text><text fill="rgb(68,68,68)" stroke="none" font-family="helvetica" font-size="11px" font-style="normal" font-weight="normal" text-decoration="normal" x="0" y="0" text-anchor="middle" dominant-baseline="hanging" transform="matrix(1, 0, 0, 1, 293.5, 266.5)" fill-opacity="1">40.5</text><text fill="rgb(68,68,68)" stroke="none" font-family="helvetica" font-size="11px" font-style="normal" font-weight="normal" text-decoration="normal" x="0" y="0" text-anchor="middle" dominant-baseline="hanging" transform="matrix(1, 0, 0, 1, 360.5, 266.5)" fill-opacity="1">41</text><text fill="rgb(68,68,68)" stroke="none" font-family="helvetica" font-size="11px" font-style="normal" font-weight="normal" text-decoration="normal" x="0" y="0" text-anchor="middle" dominant-baseline="hanging" transform="matrix(1, 0, 0, 1, 427.5, 266.5)" fill-opacity="1">41.5</text><text fill="rgb(68,68,68)" stroke="none" font-family="helvetica" font-size="13px" font-style="italic" font-weight="normal" text-decoration="normal" x="0" y="0" text-anchor="middle" dominant-baseline="hanging" transform="matrix(1, 0, 0, 1, 263.5, 284.5)" fill-opacity="1">Pitch (Å)</text><path fill="none" stroke="rgb(0,0,0)" paint-order="fill" d="M 55.5 255.5 L 55.5 28.5" stroke-opacity="1" stroke-linejoin="bevel" stroke-miterlimit="10" stroke-dasharray=""/><path fill="none" stroke="rgb(0,0,0)" paint-order="fill" d="M 49.5 255.5 L 57.5 255.5 M 49.5 223.5 L 57.5 223.5 M 49.5 190.5 L 57.5 190.5 M 49.5 158.5 L 57.5 158.5 M 49.5 125.5 L 57.5 125.5 M 49.5 93.5 L 57.5 93.5 M 49.5 60.5 L 57.5 60.5" stroke-opacity="1" stroke-linejoin="bevel" stroke-miterlimit="10" stroke-dasharray=""/><text fill="rgb(68,68,68)" stroke="none" font-family="helvetica" font-size="11px" font-style="normal" font-weight="normal" text-decoration="normal" x="0" y="0" text-anchor="end" dominant-baseline="central" transform="matrix(1, 0, 0, 1, 44.5, 255.5)" fill-opacity="1">0</text><text fill="rgb(68,68,68)" stroke="none" font-family="helvetica" font-size="11px" font-style="normal" font-weight="normal" text-decoration="normal" x="0" y="0" text-anchor="end" dominant-baseline="central" transform="matrix(1, 0, 0, 1, 44.5, 223.5)" fill-opacity="1">0.05</text><text fill="rgb(68,68,68)" stroke="none" font-family="helvetica" font-size="11px" font-style="normal" font-weight="normal" text-decoration="normal" x="0" y="0" text-anchor="end" dominant-baseline="central" transform="matrix(1, 0, 0, 1, 44.5, 190.5)" fill-opacity="1">0.1</text><text fill="rgb(68,68,68)" stroke="none" font-family="helvetica" font-size="11px" font-style="normal" font-weight="normal" text-decoration="normal" x="0" y="0" text-anchor="end" dominant-baseline="central" transform="matrix(1, 0, 0, 1, 44.5, 158.5)" fill-opacity="1">0.15</text><text fill="rgb(68,68,68)" stroke="none" font-family="helvetica" font-size="11px" font-style="normal" font-weight="normal" text-decoration="normal" x="0" y="0" text-anchor="end" dominant-baseline="central" transform="matrix(1, 0, 0, 1, 44.5, 125.5)" fill-opacity="1">0.2</text><text fill="rgb(68,68,68)" stroke="none" font-family="helvetica" font-size="11px" font-style="normal" font-weight="normal" text-decoration="normal" x="0" y="0" text-anchor="end" dominant-baseline="central" transform="matrix(1, 0, 0, 1, 44.5, 93.5)" fill-opacity="1">0.25</text><text fill="rgb(68,68,68)" stroke="none" font-family="helvetica" font-size="11px" font-style="normal" font-weight="normal" text-decoration="normal" x="0" y="0" text-anchor="end" dominant-baseline="central" transform="matrix(1, 0, 0, 1, 44.5, 60.5)" fill-opacity="1">0.3</text><text fill="rgb(68,68,68)" stroke="none" font-family="helvetica" font-size="13px" font-style="italic" font-weight="normal" text-decoration="normal" x="0" y="0" text-anchor="middle" dominant-baseline="alphabetic" transform="matrix(6.123233995736766e-17, -1, 1, 6.123233995736766e-17, 15.5, 142.5)" fill-opacity="1">distribution</text><path fill="none" stroke="none"/><text fill="rgb(68,68,68)" stroke="none" font-family="helvetica" font-size="13px" font-style="normal" font-weight="bold" text-decoration="normal" x="0" y="0" text-anchor="start" dominant-baseline="text-after-edge" transform="matrix(1, 0, 0, 1, 55.5, 23.5)" fill-opacity="1">Pitch distribution for t8v</text></svg>