<svg version="1.1" xmlns="http://www.w3.org/2000/svg" xmlns:xlink="http://www.w3.org/1999/xlink" width="600" height="400"><defs><clipPath id="tWReHOMturKq"><path fill="none" stroke="none" d="M 49.5 28.5 L 570.5 28.5 L 570.5 355.5 L 49.5 355.5 L 49.5 28.5"/></clipPath><clipPath id="itmXvQOaJwta"><path fill="none" stroke="none" d="M 49.5 28.5 L 570.5 28.5 L 570.5 355.5 L 49.5 355.5 L 49.5 28.5"/></clipPath><clipPath id="sbWmfPOFxmnS"><path fill="none" stroke="none" d="M 49.5 28.5 L 570.5 28.5 L 570.5 355.5 L 49.5 355.5 L 49.5 28.5"/></clipPath><clipPath id="bVxOWUNfKgvy"><path fill="none" stroke="none" d="M 49.5 28.5 L 570.5 28.5 L 570.5 355.5 L 49.5 355.5 L 49.5 28.5"/></clipPath><clipPath id="uTFUEkAzlxbI"><path fill="none" stroke="none" d="M 49.5 28.5 L 570.5 28.5 L 570.5 355.5 L 49.5 355.5 L 49.5 28.5"/></clipPath><clipPath id="JTONskwImrqg"><path fill="none" stroke="none" d="M 49.5 28.5 L 570.5 28.5 L 570.5 355.5 L 49.5 355.5 L 49.5 28.5"/></clipPath><clipPath id="QqeCbIBlSTtb"><path fill="none" stroke="none" d="M 49.5 28.5 L 570.5 28.5 L 570.5 355.5 L 49.5 355.5 L 49.5 28.5"/></clipPath><clipPath id="LTnrwANcJhKI"><path fill="none" stroke="none" d="M 49.5 28.5 L 570.5 28.5 L 570.5 355.5 L 49.5 355.5 L 49.5 28.5"/></clipPath><clipPath id="sZdfVOTdNAAz"><path fill="none" stroke="none" d="M 49.5 28.5 L 570.5 28.5 L 570.5 355.5 L 49.5 355.5 L 49.5 28.5"/></clipPath><clipPath id="RgRXTFwHvJoF"><path fill="none" stroke="none" d="M 49.5 28.5 L 570.5 28.5 L 570.5 355.5 L 49.5 355.5 L 49.5 28.5"/></clipPath><clipPath id="ZAxmKzHnkEAt"><path fill="none" stroke="none" d="M 49.5 28.5 L 570.5 28.5 L 570.5 355.5 L 49.5 355.5 L 49.5 28.5"/></clipPath><clipPath id="KFLiKXPGkxax"><path fill="none" stroke="none" d="M 49.5 28.5 L 570.5 28.5 L 570.5 355.5 L 49.5 355.5 L 49.5 28.5"/></clipPath><clipPath id="SVHVHLeKzybu"><path fill="none" stroke="none" d="M 49.5 28.5 L 570.5 28.5 L 570.5 355.5 L 49.5 355.5 L 49.5 28.5"/></clipPath><clipPath id="IGBXREpnTLVf"><path fill="none" stroke="none" d="M 49.5 28.5 L 570.5 28.5 L 570.5 355.5 L 49.5 355.5 L 49.5 28.5"/></clipPath><clipPath id="kePvCgQouTrk"><path fill="none" stroke="none" d="M 49.5 28.5 L 570.5 28.5 L 570.5 355.5 L 49.5 355.5 L 49.5 28.5"/></clipPath><clipPath id="CSdUVToDVDZN"><path fill="none" stroke="none" d="M 49.5 28.5 L 570.5 28.5 L 570.5 355.5 L 49.5 355.5 L 49.5 28.5"/></clipPath><clipPath id="ZNcJGVxJqWrR"><path fill="none" stroke="none" d="M 49.5 28.5 L 570.5 28.5 L 570.5 355.5 L 49.5 355.5 L 49.5 28.5"/></clipPath></defs><path fill="rgb(255,255,255)" stroke="none" paint-order="stroke" d="M 0.5 0.5 L 600.5 0.5 L 600.5 400.5 L 0.5 400.5 L 0.5 0.5" fill-opacity="1"/><rect fill="#FFFFFF" stroke="none" x="49" y="28" width="521" height="327" transform="matrix(1, 0, 0, 1, 0.5, 0.5)"/><path fill="rgb(255,255,255)" stroke="none" paint-order="stroke" d="M 49.5 28.5 L 570.5 28.5 L 570.5 355.5 L 49.5 355.5 L 49.5 28.5" fill-opacity="1"/><path fill="none" stroke="rgb(229,229,229)" paint-order="fill" d="M 49.5 28.5 L 570.5 28.5 L 570.5 355.5 L 49.5 355.5 L 49.5 28.5" stroke-opacity="1" stroke-linejoin="bevel" stroke-miterlimit="10" stroke-dasharray=""/><path fill="none" stroke="none"/><path fill="none" stroke="rgb(0,0,0)" paint-order="fill" d="M 123.88143157958984 77.55000305175781 L 123.88143157958984 61.20000076293945" stroke-opacity="1" stroke-linejoin="bevel" stroke-miterlimit="10" stroke-width="3" stroke-dasharray="" clip-path="url(#sbWmfPOFxmnS)"/><path fill="none" stroke="none"/><path fill="none" stroke="rgb(128,128,128)" paint-order="fill" d="M 141.0279998779297 69.375 A 4 4 0 1 1 141.02799787792986 69.37100000066667" stroke-opacity="0.8" stroke-linejoin="bevel" stroke-miterlimit="10" stroke-dasharray="" clip-path="url(#bVxOWUNfKgvy)"/><path fill="none" stroke="rgb(128,128,128)" paint-order="fill" d="M 141.5489959716797 69.375 A 4 4 0 1 1 141.54899397167986 69.37100000066667" stroke-opacity="0.8" stroke-linejoin="bevel" stroke-miterlimit="10" stroke-dasharray="" clip-path="url(#bVxOWUNfKgvy)"/><path fill="none" stroke="rgb(128,128,128)" paint-order="fill" d="M 105.5999984741211 69.375 A 4 4 0 1 1 105.59999647412126 69.37100000066667" stroke-opacity="0.8" stroke-linejoin="bevel" stroke-miterlimit="10" stroke-dasharray="" clip-path="url(#bVxOWUNfKgvy)"/><path fill="none" stroke="none"/><path fill="none" stroke="rgb(0,0,0)" paint-order="fill" d="M 451.2378845214844 118.42500305175781 L 451.2378845214844 102.07499694824219" stroke-opacity="1" stroke-linejoin="bevel" stroke-miterlimit="10" stroke-width="3" stroke-dasharray="" clip-path="url(#uTFUEkAzlxbI)"/><path fill="none" stroke="none"/><path fill="none" stroke="rgb(0,0,0)" paint-order="fill" d="M 433.8299865722656 110.25 A 4 4 0 1 1 433.8299845722658 110.24600000066667" stroke-opacity="0.8" stroke-linejoin="bevel" stroke-miterlimit="10" stroke-dasharray="" clip-path="url(#JTONskwImrqg)"/><path fill="none" stroke="rgb(0,0,0)" paint-order="fill" d="M 401.0069885253906 110.25 A 4 4 0 1 1 401.0069865253908 110.24600000066667" stroke-opacity="0.8" stroke-linejoin="bevel" stroke-miterlimit="10" stroke-dasharray="" clip-path="url(#JTONskwImrqg)"/><path fill="none" stroke="rgb(0,0,0)" paint-order="fill" d="M 553.6599731445312 110.25 A 4 4 0 1 1 553.6599711445314 110.24600000066667" stroke-opacity="0.8" stroke-linejoin="bevel" stroke-miterlimit="10" stroke-dasharray="" clip-path="url(#JTONskwImrqg)"/><path fill="none" stroke="none"/><path fill="none" stroke="rgb(0,0,0)" paint-order="fill" d="M 428.83489990234375 159.3000030517578 L 428.83489990234375 142.9499969482422" stroke-opacity="1" stroke-linejoin="bevel" stroke-miterlimit="10" stroke-width="3" stroke-dasharray="" clip-path="url(#QqeCbIBlSTtb)"/><path fill="none" stroke="none"/><path fill="none" stroke="rgb(255,165,0)" paint-order="fill" d="M 525.5260009765625 151.125 A 4 4 0 1 1 525.5259989765626 151.12100000066667" stroke-opacity="0.8" stroke-linejoin="bevel" stroke-miterlimit="10" stroke-dasharray="" clip-path="url(#LTnrwANcJhKI)"/><path fill="none" stroke="rgb(255,165,0)" paint-order="fill" d="M 405.17498779296875 151.125 A 4 4 0 1 1 405.1749857929689 151.12100000066667" stroke-opacity="0.8" stroke-linejoin="bevel" stroke-miterlimit="10" stroke-dasharray="" clip-path="url(#LTnrwANcJhKI)"/><path fill="none" stroke="rgb(255,165,0)" paint-order="fill" d="M 374.4360046386719 151.125 A 4 4 0 1 1 374.43600263867205 151.12100000066667" stroke-opacity="0.8" stroke-linejoin="bevel" stroke-miterlimit="10" stroke-dasharray="" clip-path="url(#LTnrwANcJhKI)"/><path fill="none" stroke="none"/><path fill="none" stroke="rgb(0,0,0)" paint-order="fill" d="M 384.13482666015625 200.1750030517578 L 384.13482666015625 183.8249969482422" stroke-opacity="1" stroke-linejoin="bevel" stroke-miterlimit="10" stroke-width="3" stroke-dasharray="" clip-path="url(#sZdfVOTdNAAz)"/><path fill="none" stroke="none"/><path fill="none" stroke="rgb(255,0,0)" paint-order="fill" d="M 318.1679992675781 192 A 4 4 0 1 1 318.1679972675783 191.99600000066667" stroke-opacity="0.8" stroke-linejoin="bevel" stroke-miterlimit="10" stroke-dasharray="" clip-path="url(#RgRXTFwHvJoF)"/><path fill="none" stroke="rgb(255,0,0)" paint-order="fill" d="M 409.864013671875 192 A 4 4 0 1 1 409.8640116718752 191.99600000066667" stroke-opacity="0.8" stroke-linejoin="bevel" stroke-miterlimit="10" stroke-dasharray="" clip-path="url(#RgRXTFwHvJoF)"/><path fill="none" stroke="rgb(255,0,0)" paint-order="fill" d="M 430.7040100097656 192 A 4 4 0 1 1 430.7040080097658 191.99600000066667" stroke-opacity="0.8" stroke-linejoin="bevel" stroke-miterlimit="10" stroke-dasharray="" clip-path="url(#RgRXTFwHvJoF)"/><path fill="none" stroke="none"/><path fill="none" stroke="rgb(0,0,0)" paint-order="fill" d="M 152.12831115722656 241.0500030517578 L 152.12831115722656 224.6999969482422" stroke-opacity="1" stroke-linejoin="bevel" stroke-miterlimit="10" stroke-width="3" stroke-dasharray="" clip-path="url(#ZAxmKzHnkEAt)"/><path fill="none" stroke="none"/><path fill="none" stroke="rgb(0,255,255)" paint-order="fill" d="M 146.75900268554688 232.875 A 4 4 0 1 1 146.75900068554705 232.87100000066667" stroke-opacity="0.8" stroke-linejoin="bevel" stroke-miterlimit="10" stroke-dasharray="" clip-path="url(#KFLiKXPGkxax)"/><path fill="none" stroke="rgb(0,255,255)" paint-order="fill" d="M 154.57400512695312 232.875 A 4 4 0 1 1 154.5740031269533 232.87100000066667" stroke-opacity="0.8" stroke-linejoin="bevel" stroke-miterlimit="10" stroke-dasharray="" clip-path="url(#KFLiKXPGkxax)"/><path fill="none" stroke="rgb(0,255,255)" paint-order="fill" d="M 166.03599548339844 232.875 A 4 4 0 1 1 166.0359934833986 232.87100000066667" stroke-opacity="0.8" stroke-linejoin="bevel" stroke-miterlimit="10" stroke-dasharray="" clip-path="url(#KFLiKXPGkxax)"/><path fill="none" stroke="none"/><path fill="none" stroke="rgb(0,0,0)" paint-order="fill" d="M 77.74861907958984 281.92498779296875 L 77.74861907958984 265.57501220703125" stroke-opacity="1" stroke-linejoin="bevel" stroke-miterlimit="10" stroke-width="3" stroke-dasharray="" clip-path="url(#SVHVHLeKzybu)"/><path fill="none" stroke="none"/><path fill="none" stroke="rgb(0,128,0)" paint-order="fill" d="M 81.11299896240234 273.75 A 4 4 0 1 1 81.1129969624025 273.74600000066664" stroke-opacity="0.8" stroke-linejoin="bevel" stroke-miterlimit="10" stroke-dasharray="" clip-path="url(#IGBXREpnTLVf)"/><path fill="none" stroke="rgb(0,128,0)" paint-order="fill" d="M 81.63400268554688 273.75 A 4 4 0 1 1 81.63400068554704 273.74600000066664" stroke-opacity="0.8" stroke-linejoin="bevel" stroke-miterlimit="10" stroke-dasharray="" clip-path="url(#IGBXREpnTLVf)"/><path fill="none" stroke="rgb(0,128,0)" paint-order="fill" d="M 82.41549682617188 273.75 A 4 4 0 1 1 82.41549482617204 273.74600000066664" stroke-opacity="0.8" stroke-linejoin="bevel" stroke-miterlimit="10" stroke-dasharray="" clip-path="url(#IGBXREpnTLVf)"/><path fill="none" stroke="none"/><path fill="none" stroke="rgb(0,0,0)" paint-order="fill" d="M 69.60799407958984 322.79998779296875 L 69.60799407958984 306.45001220703125" stroke-opacity="1" stroke-linejoin="bevel" stroke-miterlimit="10" stroke-width="3" stroke-dasharray="" clip-path="url(#kePvCgQouTrk)"/><path fill="none" stroke="none"/><path fill="none" stroke="rgb(0,0,0)" paint-order="fill" d="M 79.28949737548828 314.625 A 4 4 0 1 1 79.28949537548844 314.62100000066664" stroke-opacity="0.8" stroke-linejoin="bevel" stroke-miterlimit="10" stroke-dasharray="" clip-path="url(#CSdUVToDVDZN)"/><path fill="none" stroke="rgb(0,0,0)" paint-order="fill" d="M 73.81900024414062 314.625 A 4 4 0 1 1 73.81899824414079 314.62100000066664" stroke-opacity="0.8" stroke-linejoin="bevel" stroke-miterlimit="10" stroke-dasharray="" clip-path="url(#CSdUVToDVDZN)"/><path fill="none" stroke="rgb(0,0,0)" paint-order="fill" d="M 67.56700134277344 314.625 A 4 4 0 1 1 67.5669993427736 314.62100000066664" stroke-opacity="0.8" stroke-linejoin="bevel" stroke-miterlimit="10" stroke-dasharray="" clip-path="url(#CSdUVToDVDZN)"/><path fill="none" stroke="rgb(0,0,0)" paint-order="fill" d="M 49.5 355.5 L 570.5 355.5" stroke-opacity="1" stroke-linejoin="bevel" stroke-miterlimit="10" stroke-dasharray=""/><path fill="none" stroke="rgb(0,0,0)" paint-order="fill" d="M 49.5 361.5 L 49.5 353.5 M 153.5 361.5 L 153.5 353.5 M 257.5 361.5 L 257.5 353.5 M 362.5 361.5 L 362.5 353.5 M 466.5 361.5 L 466.5 353.5 M 570.5 361.5 L 570.5 353.5" stroke-opacity="1" stroke-linejoin="bevel" stroke-miterlimit="10" stroke-dasharray=""/><text fill="rgb(68,68,68)" stroke="none" font-family="helvetica" font-size="11px" font-style="normal" font-weight="normal" text-decoration="normal" x="0" y="0" text-anchor="middle" dominant-baseline="hanging" transform="matrix(1, 0, 0, 1, 49.5, 366.5)" fill-opacity="1">0</text><text fill="rgb(68,68,68)" stroke="none" font-family="helvetica" font-size="11px" font-style="normal" font-weight="normal" text-decoration="normal" x="0" y="0" text-anchor="middle" dominant-baseline="hanging" transform="matrix(1, 0, 0, 1, 153.5, 366.5)" fill-opacity="1">0.2</text><text fill="rgb(68,68,68)" stroke="none" font-family="helvetica" font-size="11px" font-style="normal" font-weight="normal" text-decoration="normal" x="0" y="0" text-anchor="middle" dominant-baseline="hanging" transform="matrix(1, 0, 0, 1, 257.5, 366.5)" fill-opacity="1">0.4</text><text fill="rgb(68,68,68)" stroke="none" font-family="helvetica" font-size="11px" font-style="normal" font-weight="normal" text-decoration="normal" x="0" y="0" text-anchor="middle" dominant-baseline="hanging" transform="matrix(1, 0, 0, 1, 362.5, 366.5)" fill-opacity="1">0.6</text><text fill="rgb(68,68,68)" stroke="none" font-family="helvetica" font-size="11px" font-style="normal" font-weight="normal" text-decoration="normal" x="0" y="0" text-anchor="middle" dominant-baseline="hanging" transform="matrix(1, 0, 0, 1, 466.5, 366.5)" fill-opacity="1">0.8</text><text fill="rgb(68,68,68)" stroke="none" font-family="helvetica" font-size="11px" font-style="normal" font-weight="normal" text-decoration="normal" x="0" y="0" text-anchor="middle" dominant-baseline="hanging" transform="matrix(1, 0, 0, 1, 570.5, 366.5)" fill-opacity="1">1</text><text fill="rgb(68,68,68)" stroke="none" font-family="helvetica" font-size="13px" font-style="italic" font-weight="normal" text-decoration="normal" x="0" y="0" text-anchor="middle" dominant-baseline="hanging" transform="matrix(1, 0, 0, 1, 310.5, 384.5)" fill-opacity="1">TRACK_MEAN_SPEED (µm)</text><path fill="none" stroke="rgb(0,0,0)" paint-order="fill" d="M 49.5 355.5 L 49.5 28.5" stroke-opacity="1" stroke-linejoin="bevel" stroke-miterlimit="10" stroke-dasharray=""/><path fill="none" stroke="rgb(0,0,0)" paint-order="fill" d="M 43.5 314.5 L 51.5 314.5 M 43.5 273.5 L 51.5 273.5 M 43.5 232.5 L 51.5 232.5 M 43.5 192.5 L 51.5 192.5 M 43.5 151.5 L 51.5 151.5 M 43.5 110.5 L 51.5 110.5 M 43.5 69.5 L 51.5 69.5" stroke-opacity="1" stroke-linejoin="bevel" stroke-miterlimit="10" stroke-dasharray=""/><text fill="rgb(68,68,68)" stroke="none" font-family="helvetica" font-size="11px" font-style="normal" font-weight="normal" text-decoration="normal" x="0" y="0" text-anchor="end" dominant-baseline="central" transform="matrix(1, 0, 0, 1, 38.5, 314.5)" fill-opacity="1">pilTU-</text><text fill="rgb(68,68,68)" stroke="none" font-family="helvetica" font-size="11px" font-style="normal" font-weight="normal" text-decoration="normal" x="0" y="0" text-anchor="end" dominant-baseline="central" transform="matrix(1, 0, 0, 1, 38.5, 273.5)" fill-opacity="1">pilG-</text><text fill="rgb(68,68,68)" stroke="none" font-family="helvetica" font-size="11px" font-style="normal" font-weight="normal" text-decoration="normal" x="0" y="0" text-anchor="end" dominant-baseline="central" transform="matrix(1, 0, 0, 1, 38.5, 232.5)" fill-opacity="1">cyaB-</text><text fill="rgb(68,68,68)" stroke="none" font-family="helvetica" font-size="11px" font-style="normal" font-weight="normal" text-decoration="normal" x="0" y="0" text-anchor="end" dominant-baseline="central" transform="matrix(1, 0, 0, 1, 38.5, 192.5)" fill-opacity="1">pilH-</text><text fill="rgb(68,68,68)" stroke="none" font-family="helvetica" font-size="11px" font-style="normal" font-weight="normal" text-decoration="normal" x="0" y="0" text-anchor="end" dominant-baseline="central" transform="matrix(1, 0, 0, 1, 38.5, 151.5)" fill-opacity="1">cpdA-</text><text fill="rgb(68,68,68)" stroke="none" font-family="helvetica" font-size="11px" font-style="normal" font-weight="normal" text-decoration="normal" x="0" y="0" text-anchor="end" dominant-baseline="central" transform="matrix(1, 0, 0, 1, 38.5, 110.5)" fill-opacity="1">WT sol</text><text fill="rgb(68,68,68)" stroke="none" font-family="helvetica" font-size="11px" font-style="normal" font-weight="normal" text-decoration="normal" x="0" y="0" text-anchor="end" dominant-baseline="central" transform="matrix(1, 0, 0, 1, 38.5, 69.5)" fill-opacity="1">WT liq</text><path fill="none" stroke="none"/><text fill="rgb(68,68,68)" stroke="none" font-family="helvetica" font-size="13px" font-style="normal" font-weight="bold" text-decoration="normal" x="0" y="0" text-anchor="start" dominant-baseline="text-after-edge" transform="matrix(1, 0, 0, 1, 49.5, 23.5)" fill-opacity="1">Track mean speed on liquid vs. solid grown cells</text></svg>