<svg version="1.1" xmlns="http://www.w3.org/2000/svg" width="500" height="250"><defs><clipPath id="NBeAzeMOKEBt"><path fill="none" stroke="none" d="M 133.5 27.5 L 470.5 27.5 L 470.5 205.5 L 133.5 205.5 L 133.5 27.5"/></clipPath><clipPath id="yItOZfeacdwB"><path fill="none" stroke="none" d="M 133.5 27.5 L 470.5 27.5 L 470.5 205.5 L 133.5 205.5 L 133.5 27.5"/></clipPath><clipPath id="GJeNbbqQKdyQ"><path fill="none" stroke="none" d="M 133.5 27.5 L 470.5 27.5 L 470.5 205.5 L 133.5 205.5 L 133.5 27.5"/></clipPath><clipPath id="kQofayQZudxZ"><path fill="none" stroke="none" d="M 133.5 27.5 L 470.5 27.5 L 470.5 205.5 L 133.5 205.5 L 133.5 27.5"/></clipPath><clipPath id="VMFoGRwGpBbP"><path fill="none" stroke="none" d="M 133.5 27.5 L 470.5 27.5 L 470.5 205.5 L 133.5 205.5 L 133.5 27.5"/></clipPath><clipPath id="MVLmKKEkCNUM"><path fill="none" stroke="none" d="M 133.5 27.5 L 470.5 27.5 L 470.5 205.5 L 133.5 205.5 L 133.5 27.5"/></clipPath><clipPath id="PbCJDFODNshe"><path fill="none" stroke="none" d="M 133.5 27.5 L 470.5 27.5 L 470.5 205.5 L 133.5 205.5 L 133.5 27.5"/></clipPath><clipPath id="QOMQMeeKeHIa"><path fill="none" stroke="none" d="M 133.5 27.5 L 470.5 27.5 L 470.5 205.5 L 133.5 205.5 L 133.5 27.5"/></clipPath><clipPath id="kLDQLbHBtgxX"><path fill="none" stroke="none" d="M 133.5 27.5 L 470.5 27.5 L 470.5 205.5 L 133.5 205.5 L 133.5 27.5"/></clipPath><clipPath id="wemhOatQVnsW"><path fill="none" stroke="none" d="M 133.5 27.5 L 470.5 27.5 L 470.5 205.5 L 133.5 205.5 L 133.5 27.5"/></clipPath><clipPath id="TAEcmbSiCrqf"><path fill="none" stroke="none" d="M 133.5 27.5 L 470.5 27.5 L 470.5 205.5 L 133.5 205.5 L 133.5 27.5"/></clipPath><clipPath id="eSDgNiNAgLvn"><path fill="none" stroke="none" d="M 133.5 27.5 L 470.5 27.5 L 470.5 205.5 L 133.5 205.5 L 133.5 27.5"/></clipPath><clipPath id="mEucbWrHhRUZ"><path fill="none" stroke="none" d="M 133.5 27.5 L 470.5 27.5 L 470.5 205.5 L 133.5 205.5 L 133.5 27.5"/></clipPath><clipPath id="uAvqRgeqxLLQ"><path fill="none" stroke="none" d="M 133.5 27.5 L 470.5 27.5 L 470.5 205.5 L 133.5 205.5 L 133.5 27.5"/></clipPath><clipPath id="bOSetnRHlTEe"><path fill="none" stroke="none" d="M 133.5 27.5 L 470.5 27.5 L 470.5 205.5 L 133.5 205.5 L 133.5 27.5"/></clipPath><clipPath id="pISLfNmTgftR"><path fill="none" stroke="none" d="M 133.5 27.5 L 470.5 27.5 L 470.5 205.5 L 133.5 205.5 L 133.5 27.5"/></clipPath><clipPath id="NFyXoKqMuzvi"><path fill="none" stroke="none" d="M 133.5 27.5 L 470.5 27.5 L 470.5 205.5 L 133.5 205.5 L 133.5 27.5"/></clipPath><clipPath id="cXBQdHMEZtSq"><path fill="none" stroke="none" d="M 133.5 27.5 L 470.5 27.5 L 470.5 205.5 L 133.5 205.5 L 133.5 27.5"/></clipPath><clipPath id="JswZHTTMIibz"><path fill="none" stroke="none" d="M 133.5 27.5 L 470.5 27.5 L 470.5 205.5 L 133.5 205.5 L 133.5 27.5"/></clipPath><clipPath id="oaLVziZSVLlQ"><path fill="none" stroke="none" d="M 133.5 27.5 L 470.5 27.5 L 470.5 205.5 L 133.5 205.5 L 133.5 27.5"/></clipPath><clipPath id="NkVecTraocDe"><path fill="none" stroke="none" d="M 133.5 27.5 L 470.5 27.5 L 470.5 205.5 L 133.5 205.5 L 133.5 27.5"/></clipPath><clipPath id="RULuumWwqrAZ"><path fill="none" stroke="none" d="M 133.5 27.5 L 470.5 27.5 L 470.5 205.5 L 133.5 205.5 L 133.5 27.5"/></clipPath><clipPath id="GaqToCbeXtCP"><path fill="none" stroke="none" d="M 133.5 27.5 L 470.5 27.5 L 470.5 205.5 L 133.5 205.5 L 133.5 27.5"/></clipPath><clipPath id="APwVLZUBpVfq"><path fill="none" stroke="none" d="M 133.5 27.5 L 470.5 27.5 L 470.5 205.5 L 133.5 205.5 L 133.5 27.5"/></clipPath><clipPath id="BHnpaFVUQyPy"><path fill="none" stroke="none" d="M 133.5 27.5 L 470.5 27.5 L 470.5 205.5 L 133.5 205.5 L 133.5 27.5"/></clipPath></defs><path fill="rgb(255,255,255)" stroke="none" paint-order="stroke" d="M 0.5 0.5 L 500.5 0.5 L 500.5 250.5 L 0.5 250.5 L 0.5 0.5" fill-opacity="1"/><rect fill="#FFFFFF" stroke="none" x="133" y="27" width="337" height="178" transform="matrix(1, 0, 0, 1, 0.5, 0.5)"/><path fill="rgb(255,255,255)" stroke="none" paint-order="stroke" d="M 133.5 27.5 L 470.5 27.5 L 470.5 205.5 L 133.5 205.5 L 133.5 27.5" fill-opacity="1"/><path fill="none" stroke="rgb(229,229,229)" paint-order="fill" d="M 133.5 27.5 L 470.5 27.5 L 470.5 205.5 L 133.5 205.5 L 133.5 27.5" stroke-opacity="1" stroke-linejoin="bevel" stroke-miterlimit="10" stroke-dasharray=""/><path fill="rgb(128,128,128)" stroke="rgb(0,0,0)" paint-order="fill" d="M 197.85125732421875 42.33333206176758 A 5 5 0 1 1 197.85125482421896 42.32833206260091" fill-opacity="1" clip-path="url(#GJeNbbqQKdyQ)" stroke-opacity="1" stroke-linejoin="bevel" stroke-miterlimit="10" stroke-dasharray=""/><path fill="rgb(128,128,128)" stroke="rgb(0,0,0)" paint-order="fill" d="M 178.0161590576172 42.33333206176758 A 5 5 0 1 1 178.0161565576174 42.32833206260091" fill-opacity="1" clip-path="url(#GJeNbbqQKdyQ)" stroke-opacity="1" stroke-linejoin="bevel" stroke-miterlimit="10" stroke-dasharray=""/><path fill="rgb(128,128,128)" stroke="rgb(0,0,0)" paint-order="fill" d="M 202.30081176757812 42.33333206176758 A 5 5 0 1 1 202.30080926757833 42.32833206260091" fill-opacity="1" clip-path="url(#GJeNbbqQKdyQ)" stroke-opacity="1" stroke-linejoin="bevel" stroke-miterlimit="10" stroke-dasharray=""/><path fill="rgb(128,128,128)" stroke="rgb(0,0,0)" paint-order="fill" d="M 209.0665740966797 42.33333206176758 A 5 5 0 1 1 209.0665715966799 42.32833206260091" fill-opacity="1" clip-path="url(#GJeNbbqQKdyQ)" stroke-opacity="1" stroke-linejoin="bevel" stroke-miterlimit="10" stroke-dasharray=""/><path fill="rgb(128,128,128)" stroke="rgb(0,0,0)" paint-order="fill" d="M 218.4302520751953 42.33333206176758 A 5 5 0 1 1 218.43024957519552 42.32833206260091" fill-opacity="1" clip-path="url(#GJeNbbqQKdyQ)" stroke-opacity="1" stroke-linejoin="bevel" stroke-miterlimit="10" stroke-dasharray=""/><path fill="rgb(128,128,128)" stroke="rgb(0,0,0)" paint-order="fill" d="M 190.60678100585938 42.33333206176758 A 5 5 0 1 1 190.60677850585958 42.32833206260091" fill-opacity="1" clip-path="url(#GJeNbbqQKdyQ)" stroke-opacity="1" stroke-linejoin="bevel" stroke-miterlimit="10" stroke-dasharray=""/><path fill="rgb(128,128,128)" stroke="rgb(0,0,0)" paint-order="fill" d="M 191.1566619873047 42.33333206176758 A 5 5 0 1 1 191.1566594873049 42.32833206260091" fill-opacity="1" clip-path="url(#GJeNbbqQKdyQ)" stroke-opacity="1" stroke-linejoin="bevel" stroke-miterlimit="10" stroke-dasharray=""/><path fill="rgb(128,128,128)" stroke="rgb(0,0,0)" paint-order="fill" d="M 182.60926818847656 42.33333206176758 A 5 5 0 1 1 182.60926568847677 42.32833206260091" fill-opacity="1" clip-path="url(#GJeNbbqQKdyQ)" stroke-opacity="1" stroke-linejoin="bevel" stroke-miterlimit="10" stroke-dasharray=""/><path fill="rgb(128,128,128)" stroke="rgb(0,0,0)" paint-order="fill" d="M 181.9622344970703 42.33333206176758 A 5 5 0 1 1 181.96223199707052 42.32833206260091" fill-opacity="1" clip-path="url(#GJeNbbqQKdyQ)" stroke-opacity="1" stroke-linejoin="bevel" stroke-miterlimit="10" stroke-dasharray=""/><path fill="none" stroke="rgb(0,0,0)" paint-order="fill" d="M 189.6666717529297 48.26666259765625 L 189.6666717529297 36.40000534057617" stroke-opacity="1" stroke-linejoin="bevel" stroke-miterlimit="10" stroke-width="3" stroke-dasharray="" clip-path="url(#kQofayQZudxZ)"/><path fill="rgb(169,169,169)" stroke="rgb(0,0,0)" paint-order="fill" d="M 414.1502990722656 72 A 5 5 0 1 1 414.15029657226586 71.99500000083333" fill-opacity="1" clip-path="url(#VMFoGRwGpBbP)" stroke-opacity="1" stroke-linejoin="bevel" stroke-miterlimit="10" stroke-dasharray=""/><path fill="rgb(169,169,169)" stroke="rgb(0,0,0)" paint-order="fill" d="M 390.808349609375 72 A 5 5 0 1 1 390.80834710937523 71.99500000083333" fill-opacity="1" clip-path="url(#VMFoGRwGpBbP)" stroke-opacity="1" stroke-linejoin="bevel" stroke-miterlimit="10" stroke-dasharray=""/><path fill="rgb(169,169,169)" stroke="rgb(0,0,0)" paint-order="fill" d="M 401.8670349121094 72 A 5 5 0 1 1 401.8670324121096 71.99500000083333" fill-opacity="1" clip-path="url(#VMFoGRwGpBbP)" stroke-opacity="1" stroke-linejoin="bevel" stroke-miterlimit="10" stroke-dasharray=""/><path fill="rgb(169,169,169)" stroke="rgb(0,0,0)" paint-order="fill" d="M 424.95977783203125 72 A 5 5 0 1 1 424.9597753320315 71.99500000083333" fill-opacity="1" clip-path="url(#VMFoGRwGpBbP)" stroke-opacity="1" stroke-linejoin="bevel" stroke-miterlimit="10" stroke-dasharray=""/><path fill="rgb(169,169,169)" stroke="rgb(0,0,0)" paint-order="fill" d="M 408.9473876953125 72 A 5 5 0 1 1 408.94738519531273 71.99500000083333" fill-opacity="1" clip-path="url(#VMFoGRwGpBbP)" stroke-opacity="1" stroke-linejoin="bevel" stroke-miterlimit="10" stroke-dasharray=""/><path fill="rgb(169,169,169)" stroke="rgb(0,0,0)" paint-order="fill" d="M 355.64599609375 72 A 5 5 0 1 1 355.64599359375023 71.99500000083333" fill-opacity="1" clip-path="url(#VMFoGRwGpBbP)" stroke-opacity="1" stroke-linejoin="bevel" stroke-miterlimit="10" stroke-dasharray=""/><path fill="rgb(169,169,169)" stroke="rgb(0,0,0)" paint-order="fill" d="M 351.7238464355469 72 A 5 5 0 1 1 351.7238439355471 71.99500000083333" fill-opacity="1" clip-path="url(#VMFoGRwGpBbP)" stroke-opacity="1" stroke-linejoin="bevel" stroke-miterlimit="10" stroke-dasharray=""/><path fill="rgb(169,169,169)" stroke="rgb(0,0,0)" paint-order="fill" d="M 367.61492919921875 72 A 5 5 0 1 1 367.614926699219 71.99500000083333" fill-opacity="1" clip-path="url(#VMFoGRwGpBbP)" stroke-opacity="1" stroke-linejoin="bevel" stroke-miterlimit="10" stroke-dasharray=""/><path fill="rgb(169,169,169)" stroke="rgb(0,0,0)" paint-order="fill" d="M 349.2647399902344 72 A 5 5 0 1 1 349.2647374902346 71.99500000083333" fill-opacity="1" clip-path="url(#VMFoGRwGpBbP)" stroke-opacity="1" stroke-linejoin="bevel" stroke-miterlimit="10" stroke-dasharray=""/><path fill="none" stroke="rgb(0,0,0)" paint-order="fill" d="M 379.998046875 77.9333267211914 L 379.998046875 66.0666732788086" stroke-opacity="1" stroke-linejoin="bevel" stroke-miterlimit="10" stroke-width="3" stroke-dasharray="" clip-path="url(#MVLmKKEkCNUM)"/><path fill="rgb(211,211,211)" stroke="rgb(0,0,0)" paint-order="fill" d="M 175.02603149414062 101.66666412353516 A 5 5 0 1 1 175.02602899414083 101.66166412436849" fill-opacity="1" clip-path="url(#PbCJDFODNshe)" stroke-opacity="1" stroke-linejoin="bevel" stroke-miterlimit="10" stroke-dasharray=""/><path fill="rgb(211,211,211)" stroke="rgb(0,0,0)" paint-order="fill" d="M 174.2609405517578 101.66666412353516 A 5 5 0 1 1 174.26093805175802 101.66166412436849" fill-opacity="1" clip-path="url(#PbCJDFODNshe)" stroke-opacity="1" stroke-linejoin="bevel" stroke-miterlimit="10" stroke-dasharray=""/><path fill="rgb(211,211,211)" stroke="rgb(0,0,0)" paint-order="fill" d="M 179.57696533203125 101.66666412353516 A 5 5 0 1 1 179.57696283203146 101.66166412436849" fill-opacity="1" clip-path="url(#PbCJDFODNshe)" stroke-opacity="1" stroke-linejoin="bevel" stroke-miterlimit="10" stroke-dasharray=""/><path fill="none" stroke="rgb(0,0,0)" paint-order="fill" d="M 171.28797912597656 110.56666564941406 L 171.28797912597656 92.76667022705078" stroke-opacity="1" stroke-linejoin="bevel" stroke-miterlimit="10" stroke-width="3" stroke-dasharray="" clip-path="url(#QOMQMeeKeHIa)"/><path fill="none" stroke="rgb(0,0,0)" paint-order="fill" d="" stroke-opacity="1" stroke-linejoin="bevel" stroke-miterlimit="10" stroke-width="3" stroke-dasharray="" clip-path="url(#wemhOatQVnsW)"/><path fill="rgb(0,0,255)" stroke="rgb(0,0,0)" paint-order="fill" d="M 279.11083984375 131.3333282470703 A 5 5 0 1 1 279.11083734375023 131.32832824790364" fill-opacity="1" clip-path="url(#TAEcmbSiCrqf)" stroke-opacity="1" stroke-linejoin="bevel" stroke-miterlimit="10" stroke-dasharray=""/><path fill="rgb(0,0,255)" stroke="rgb(0,0,0)" paint-order="fill" d="M 228.6650390625 131.3333282470703 A 5 5 0 1 1 228.6650365625002 131.32832824790364" fill-opacity="1" clip-path="url(#TAEcmbSiCrqf)" stroke-opacity="1" stroke-linejoin="bevel" stroke-miterlimit="10" stroke-dasharray=""/><path fill="rgb(0,0,255)" stroke="rgb(0,0,0)" paint-order="fill" d="M 262.5313415527344 131.3333282470703 A 5 5 0 1 1 262.5313390527346 131.32832824790364" fill-opacity="1" clip-path="url(#TAEcmbSiCrqf)" stroke-opacity="1" stroke-linejoin="bevel" stroke-miterlimit="10" stroke-dasharray=""/><path fill="none" stroke="rgb(0,0,0)" paint-order="fill" d="M 251.76907348632812 140.23333740234375 L 251.76907348632812 122.43333435058594" stroke-opacity="1" stroke-linejoin="bevel" stroke-miterlimit="10" stroke-width="3" stroke-dasharray="" clip-path="url(#eSDgNiNAgLvn)"/><path fill="none" stroke="rgb(0,0,0)" paint-order="fill" d="" stroke-opacity="1" stroke-linejoin="bevel" stroke-miterlimit="10" stroke-width="3" stroke-dasharray="" clip-path="url(#uAvqRgeqxLLQ)"/><path fill="rgb(0,128,0)" stroke="rgb(0,0,0)" paint-order="fill" d="M 186.50326538085938 161 A 5 5 0 1 1 186.50326288085958 160.99500000083333" fill-opacity="1" clip-path="url(#bOSetnRHlTEe)" stroke-opacity="1" stroke-linejoin="bevel" stroke-miterlimit="10" stroke-dasharray=""/><path fill="rgb(0,128,0)" stroke="rgb(0,0,0)" paint-order="fill" d="M 173.8076629638672 161 A 5 5 0 1 1 173.8076604638674 160.99500000083333" fill-opacity="1" clip-path="url(#bOSetnRHlTEe)" stroke-opacity="1" stroke-linejoin="bevel" stroke-miterlimit="10" stroke-dasharray=""/><path fill="rgb(0,128,0)" stroke="rgb(0,0,0)" paint-order="fill" d="M 182.3734893798828 161 A 5 5 0 1 1 182.37348687988302 160.99500000083333" fill-opacity="1" clip-path="url(#bOSetnRHlTEe)" stroke-opacity="1" stroke-linejoin="bevel" stroke-miterlimit="10" stroke-dasharray=""/><path fill="none" stroke="rgb(0,0,0)" paint-order="fill" d="M 175.89480590820312 169.89999389648438 L 175.89480590820312 152.10000610351562" stroke-opacity="1" stroke-linejoin="bevel" stroke-miterlimit="10" stroke-width="3" stroke-dasharray="" clip-path="url(#pISLfNmTgftR)"/><path fill="none" stroke="rgb(0,0,0)" paint-order="fill" d="" stroke-opacity="1" stroke-linejoin="bevel" stroke-miterlimit="10" stroke-width="3" stroke-dasharray="" clip-path="url(#cXBQdHMEZtSq)"/><path fill="rgb(50,205,50)" stroke="rgb(0,0,0)" paint-order="fill" d="M 202.87200927734375 190.6666717529297 A 5 5 0 1 1 202.87200677734396 190.66167175376302" fill-opacity="1" clip-path="url(#JswZHTTMIibz)" stroke-opacity="1" stroke-linejoin="bevel" stroke-miterlimit="10" stroke-dasharray=""/><path fill="rgb(50,205,50)" stroke="rgb(0,0,0)" paint-order="fill" d="M 184.13143920898438 190.6666717529297 A 5 5 0 1 1 184.13143670898458 190.66167175376302" fill-opacity="1" clip-path="url(#JswZHTTMIibz)" stroke-opacity="1" stroke-linejoin="bevel" stroke-miterlimit="10" stroke-dasharray=""/><path fill="rgb(50,205,50)" stroke="rgb(0,0,0)" paint-order="fill" d="M 204.9081573486328 190.6666717529297 A 5 5 0 1 1 204.90815484863302 190.66167175376302" fill-opacity="1" clip-path="url(#JswZHTTMIibz)" stroke-opacity="1" stroke-linejoin="bevel" stroke-miterlimit="10" stroke-dasharray=""/><path fill="none" stroke="rgb(0,0,0)" paint-order="fill" d="M 192.30386352539062 199.56666564941406 L 192.30386352539062 181.76666259765625" stroke-opacity="1" stroke-linejoin="bevel" stroke-miterlimit="10" stroke-width="3" stroke-dasharray="" clip-path="url(#oaLVziZSVLlQ)"/><path fill="none" stroke="rgb(0,0,0)" paint-order="fill" d="" stroke-opacity="1" stroke-linejoin="bevel" stroke-miterlimit="10" stroke-width="3" stroke-dasharray="" clip-path="url(#RULuumWwqrAZ)"/><path fill="none" stroke="rgb(0,0,0)" paint-order="fill" d="M 189.6666717529297 205.5 L 189.6666717529297 27.5" stroke-opacity="1" stroke-linejoin="bevel" stroke-miterlimit="10" stroke-dasharray="2,4" clip-path="url(#GaqToCbeXtCP)"/><path fill="none" stroke="rgb(0,0,0)" paint-order="fill" d="M 133.5 205.5 L 470.5 205.5" stroke-opacity="1" stroke-linejoin="bevel" stroke-miterlimit="10" stroke-dasharray=""/><path fill="none" stroke="rgb(0,0,0)" paint-order="fill" d="M 133.5 211.5 L 133.5 203.5 M 189.5 211.5 L 189.5 203.5 M 245.5 211.5 L 245.5 203.5 M 302.5 211.5 L 302.5 203.5 M 358.5 211.5 L 358.5 203.5 M 414.5 211.5 L 414.5 203.5 M 470.5 211.5 L 470.5 203.5" stroke-opacity="1" stroke-linejoin="bevel" stroke-miterlimit="10" stroke-dasharray=""/><path fill="none" stroke="rgb(0,0,0)" paint-order="fill" d="M 133.5 209.5 L 133.5 205.5 M 144.5 209.5 L 144.5 205.5 M 155.5 209.5 L 155.5 205.5 M 167.5 209.5 L 167.5 205.5 M 178.5 209.5 L 178.5 205.5 M 189.5 209.5 L 189.5 205.5 M 200.5 209.5 L 200.5 205.5 M 212.5 209.5 L 212.5 205.5 M 223.5 209.5 L 223.5 205.5 M 234.5 209.5 L 234.5 205.5 M 245.5 209.5 L 245.5 205.5 M 257.5 209.5 L 257.5 205.5 M 268.5 209.5 L 268.5 205.5 M 279.5 209.5 L 279.5 205.5 M 290.5 209.5 L 290.5 205.5 M 302.5 209.5 L 302.5 205.5 M 313.5 209.5 L 313.5 205.5 M 324.5 209.5 L 324.5 205.5 M 335.5 209.5 L 335.5 205.5 M 346.5 209.5 L 346.5 205.5 M 358.5 209.5 L 358.5 205.5 M 369.5 209.5 L 369.5 205.5 M 380.5 209.5 L 380.5 205.5 M 391.5 209.5 L 391.5 205.5 M 403.5 209.5 L 403.5 205.5 M 414.5 209.5 L 414.5 205.5 M 425.5 209.5 L 425.5 205.5 M 436.5 209.5 L 436.5 205.5 M 448.5 209.5 L 448.5 205.5 M 459.5 209.5 L 459.5 205.5 M 470.5 209.5 L 470.5 205.5" stroke-opacity="1" stroke-linejoin="bevel" stroke-miterlimit="10" stroke-dasharray=""/><text fill="rgb(68,68,68)" stroke="none" font-family="helvetica" font-size="11px" font-style="normal" font-weight="normal" text-decoration="normal" x="129.941162109375" y="224" text-anchor="start" dominant-baseline="alphabetic" transform="matrix(1, 0, 0, 1, 0.5, 0.5)" fill-opacity="1">0</text><text fill="rgb(68,68,68)" stroke="none" font-family="helvetica" font-size="11px" font-style="normal" font-weight="normal" text-decoration="normal" x="186.1078338623047" y="224" text-anchor="start" dominant-baseline="alphabetic" transform="matrix(1, 0, 0, 1, 0.5, 0.5)" fill-opacity="1">1</text><text fill="rgb(68,68,68)" stroke="none" font-family="helvetica" font-size="11px" font-style="normal" font-weight="normal" text-decoration="normal" x="242.2744903564453" y="224" text-anchor="start" dominant-baseline="alphabetic" transform="matrix(1, 0, 0, 1, 0.5, 0.5)" fill-opacity="1">2</text><text fill="rgb(68,68,68)" stroke="none" font-family="helvetica" font-size="11px" font-style="normal" font-weight="normal" text-decoration="normal" x="298.441162109375" y="224" text-anchor="start" dominant-baseline="alphabetic" transform="matrix(1, 0, 0, 1, 0.5, 0.5)" fill-opacity="1">3</text><text fill="rgb(68,68,68)" stroke="none" font-family="helvetica" font-size="11px" font-style="normal" font-weight="normal" text-decoration="normal" x="354.6078186035156" y="224" text-anchor="start" dominant-baseline="alphabetic" transform="matrix(1, 0, 0, 1, 0.5, 0.5)" fill-opacity="1">4</text><text fill="rgb(68,68,68)" stroke="none" font-family="helvetica" font-size="11px" font-style="normal" font-weight="normal" text-decoration="normal" x="410.7745056152344" y="224" text-anchor="start" dominant-baseline="alphabetic" transform="matrix(1, 0, 0, 1, 0.5, 0.5)" fill-opacity="1">5</text><text fill="rgb(68,68,68)" stroke="none" font-family="helvetica" font-size="11px" font-style="normal" font-weight="normal" text-decoration="normal" x="466.941162109375" y="224" text-anchor="start" dominant-baseline="alphabetic" transform="matrix(1, 0, 0, 1, 0.5, 0.5)" fill-opacity="1">6</text><text fill="rgb(68,68,68)" stroke="none" font-family="helvetica" font-size="13px" font-style="italic" font-weight="normal" text-decoration="normal" x="244.41552734375" y="244" text-anchor="start" dominant-baseline="alphabetic" transform="matrix(1, 0, 0, 1, 0.5, 0.5)" fill-opacity="1">Relative PaQa level</text><path fill="none" stroke="rgb(0,0,0)" paint-order="fill" d="M 133.5 205.5 L 133.5 27.5" stroke-opacity="1" stroke-linejoin="bevel" stroke-miterlimit="10" stroke-dasharray=""/><path fill="none" stroke="rgb(0,0,0)" paint-order="fill" d="M 127.5 190.5 L 135.5 190.5 M 127.5 161.5 L 135.5 161.5 M 127.5 131.5 L 135.5 131.5 M 127.5 101.5 L 135.5 101.5 M 127.5 72.5 L 135.5 72.5 M 127.5 42.5 L 135.5 42.5" stroke-opacity="1" stroke-linejoin="bevel" stroke-miterlimit="10" stroke-dasharray=""/><text fill="rgb(68,68,68)" stroke="none" font-family="helvetica" font-size="9pt" font-style="normal" font-weight="normal" text-decoration="normal" x="3.248046875" y="194.1666717529297" text-anchor="start" dominant-baseline="alphabetic" transform="matrix(1, 0, 0, 1, 0.5, 0.5)" fill-opacity="1">ΔpilB_pilA_T8V Liquid</text><text fill="rgb(68,68,68)" stroke="none" font-family="helvetica" font-size="9pt" font-style="normal" font-weight="normal" text-decoration="normal" x="58.61328125" y="164.5" text-anchor="start" dominant-baseline="alphabetic" transform="matrix(1, 0, 0, 1, 0.5, 0.5)" fill-opacity="1">ΔpilB Liquid</text><text fill="rgb(68,68,68)" stroke="none" font-family="helvetica" font-size="9pt" font-style="normal" font-weight="normal" text-decoration="normal" x="37.947265625" y="134.8333282470703" text-anchor="start" dominant-baseline="alphabetic" transform="matrix(1, 0, 0, 1, 0.5, 0.5)" fill-opacity="1">pilA_T8V Liquid</text><text fill="rgb(68,68,68)" stroke="none" font-family="helvetica" font-size="9pt" font-style="normal" font-weight="normal" text-decoration="normal" x="58.61328125" y="105.16666412353516" text-anchor="start" dominant-baseline="alphabetic" transform="matrix(1, 0, 0, 1, 0.5, 0.5)" fill-opacity="1">ΔpilA Liquid</text><text fill="rgb(68,68,68)" stroke="none" font-family="helvetica" font-size="9pt" font-style="normal" font-weight="normal" text-decoration="normal" x="73.326171875" y="75.5" text-anchor="start" dominant-baseline="alphabetic" transform="matrix(1, 0, 0, 1, 0.5, 0.5)" fill-opacity="1">WT Solid</text><text fill="rgb(68,68,68)" stroke="none" font-family="helvetica" font-size="9pt" font-style="normal" font-weight="normal" text-decoration="normal" x="67.982421875" y="45.83333206176758" text-anchor="start" dominant-baseline="alphabetic" transform="matrix(1, 0, 0, 1, 0.5, 0.5)" fill-opacity="1">WT Liquid</text><path fill="rgb(255,255,255)" stroke="rgb(229,229,229)" paint-order="fill" d="M 302.7783203125 37.5 L 460.5 37.5 L 460.5 123.5 L 302.7783203125 123.5 L 302.7783203125 37.5" fill-opacity="0.9490196078431372" clip-path="url(#APwVLZUBpVfq)" stroke-opacity="0.5019607843137255" stroke-linejoin="bevel" stroke-miterlimit="10" stroke-dasharray=""/><g clip-path="url(#APwVLZUBpVfq)"><text fill="rgb(68,68,68)" stroke="none" font-family="helvetica" font-size="13px" font-style="normal" font-weight="normal" text-decoration="normal" x="337.2783203125" y="57" text-anchor="start" dominant-baseline="central" transform="matrix(1, 0, 0, 1, 0.5, 0.5)" fill-opacity="1">mean</text></g><path fill="none" stroke="rgb(0,0,0)" paint-order="fill" d="M 312.7783203125 57.5 L 332.7783203125 57.5" stroke-opacity="1" stroke-linejoin="bevel" stroke-miterlimit="10" stroke-width="3" stroke-dasharray="" clip-path="url(#APwVLZUBpVfq)"/><g clip-path="url(#APwVLZUBpVfq)"><text fill="rgb(68,68,68)" stroke="none" font-family="helvetica" font-size="13px" font-style="normal" font-weight="normal" text-decoration="normal" x="337.2783203125" y="80" text-anchor="start" dominant-baseline="central" transform="matrix(1, 0, 0, 1, 0.5, 0.5)" fill-opacity="1">means of replicates</text></g><path fill="rgb(211,211,211)" stroke="rgb(0,0,0)" paint-order="fill" d="M 326.7783203125 80.5 A 4 4 0 1 1 326.7783183125002 80.49600000066667" fill-opacity="1" clip-path="url(#APwVLZUBpVfq)" stroke-opacity="1" stroke-linejoin="bevel" stroke-miterlimit="10" stroke-dasharray=""/><path fill="rgb(0,0,255)" stroke="rgb(0,0,0)" paint-order="fill" d="M 326.7783203125 80.5 A 4 4 0 1 1 326.7783183125002 80.49600000066667" fill-opacity="1" clip-path="url(#APwVLZUBpVfq)" stroke-opacity="1" stroke-linejoin="bevel" stroke-miterlimit="10" stroke-dasharray=""/><path fill="rgb(0,128,0)" stroke="rgb(0,0,0)" paint-order="fill" d="M 326.7783203125 80.5 A 4 4 0 1 1 326.7783183125002 80.49600000066667" fill-opacity="1" clip-path="url(#APwVLZUBpVfq)" stroke-opacity="1" stroke-linejoin="bevel" stroke-miterlimit="10" stroke-dasharray=""/><path fill="rgb(50,205,50)" stroke="rgb(0,0,0)" paint-order="fill" d="M 326.7783203125 80.5 A 4 4 0 1 1 326.7783183125002 80.49600000066667" fill-opacity="1" clip-path="url(#APwVLZUBpVfq)" stroke-opacity="1" stroke-linejoin="bevel" stroke-miterlimit="10" stroke-dasharray=""/><g clip-path="url(#APwVLZUBpVfq)"><text fill="rgb(68,68,68)" stroke="none" font-family="helvetica" font-size="13px" font-style="normal" font-weight="normal" text-decoration="normal" x="337.2783203125" y="103" text-anchor="start" dominant-baseline="central" transform="matrix(1, 0, 0, 1, 0.5, 0.5)" fill-opacity="1">Reference</text></g><path fill="none" stroke="rgb(0,0,0)" paint-order="fill" d="M 312.7783203125 103.5 L 332.7783203125 103.5" stroke-opacity="1" stroke-linejoin="bevel" stroke-miterlimit="10" stroke-dasharray="2,4" clip-path="url(#APwVLZUBpVfq)"/><text fill="rgb(68,68,68)" stroke="none" font-family="helvetica" font-size="13px" font-style="normal" font-weight="bold" text-decoration="normal" x="133" y="19" text-anchor="start" dominant-baseline="alphabetic" transform="matrix(1, 0, 0, 1, 0.5, 0.5)" fill-opacity="1"> PaQa_ratio on Liquid vs. Solid in linear scale</text></svg>