<svg version="1.1" xmlns="http://www.w3.org/2000/svg" width="500" height="250"><defs><clipPath id="RCzIduImXXVz"><path fill="none" stroke="none" d="M 132.5 27.5 L 470.5 27.5 L 470.5 205.5 L 132.5 205.5 L 132.5 27.5"/></clipPath><clipPath id="kHuyqSyTrFch"><path fill="none" stroke="none" d="M 132.5 27.5 L 470.5 27.5 L 470.5 205.5 L 132.5 205.5 L 132.5 27.5"/></clipPath><clipPath id="odHenehlTqNq"><path fill="none" stroke="none" d="M 132.5 27.5 L 470.5 27.5 L 470.5 205.5 L 132.5 205.5 L 132.5 27.5"/></clipPath><clipPath id="GCZpikHDPmcf"><path fill="none" stroke="none" d="M 132.5 27.5 L 470.5 27.5 L 470.5 205.5 L 132.5 205.5 L 132.5 27.5"/></clipPath><clipPath id="tngBiklifrOd"><path fill="none" stroke="none" d="M 132.5 27.5 L 470.5 27.5 L 470.5 205.5 L 132.5 205.5 L 132.5 27.5"/></clipPath><clipPath id="UuNpPgDoXyaX"><path fill="none" stroke="none" d="M 132.5 27.5 L 470.5 27.5 L 470.5 205.5 L 132.5 205.5 L 132.5 27.5"/></clipPath><clipPath id="vQfFfTPwXNaN"><path fill="none" stroke="none" d="M 132.5 27.5 L 470.5 27.5 L 470.5 205.5 L 132.5 205.5 L 132.5 27.5"/></clipPath><clipPath id="nqoXGnvQIWIA"><path fill="none" stroke="none" d="M 132.5 27.5 L 470.5 27.5 L 470.5 205.5 L 132.5 205.5 L 132.5 27.5"/></clipPath><clipPath id="JgPqgcTeJRdR"><path fill="none" stroke="none" d="M 132.5 27.5 L 470.5 27.5 L 470.5 205.5 L 132.5 205.5 L 132.5 27.5"/></clipPath><clipPath id="lOryLNwrtwbM"><path fill="none" stroke="none" d="M 132.5 27.5 L 470.5 27.5 L 470.5 205.5 L 132.5 205.5 L 132.5 27.5"/></clipPath><clipPath id="eRoUlHEZmPsQ"><path fill="none" stroke="none" d="M 132.5 27.5 L 470.5 27.5 L 470.5 205.5 L 132.5 205.5 L 132.5 27.5"/></clipPath><clipPath id="vLiSBPKLhVsK"><path fill="none" stroke="none" d="M 132.5 27.5 L 470.5 27.5 L 470.5 205.5 L 132.5 205.5 L 132.5 27.5"/></clipPath><clipPath id="atkfgcGDoSsi"><path fill="none" stroke="none" d="M 132.5 27.5 L 470.5 27.5 L 470.5 205.5 L 132.5 205.5 L 132.5 27.5"/></clipPath><clipPath id="KzmVqPEWbqGq"><path fill="none" stroke="none" d="M 132.5 27.5 L 470.5 27.5 L 470.5 205.5 L 132.5 205.5 L 132.5 27.5"/></clipPath><clipPath id="FGlzFdIFzyRD"><path fill="none" stroke="none" d="M 132.5 27.5 L 470.5 27.5 L 470.5 205.5 L 132.5 205.5 L 132.5 27.5"/></clipPath><clipPath id="EdWywrMfrnvT"><path fill="none" stroke="none" d="M 132.5 27.5 L 470.5 27.5 L 470.5 205.5 L 132.5 205.5 L 132.5 27.5"/></clipPath><clipPath id="bTIfArpuFWvu"><path fill="none" stroke="none" d="M 132.5 27.5 L 470.5 27.5 L 470.5 205.5 L 132.5 205.5 L 132.5 27.5"/></clipPath><clipPath id="ZOTRZrXqNrdS"><path fill="none" stroke="none" d="M 132.5 27.5 L 470.5 27.5 L 470.5 205.5 L 132.5 205.5 L 132.5 27.5"/></clipPath><clipPath id="klabhKnGQPii"><path fill="none" stroke="none" d="M 132.5 27.5 L 470.5 27.5 L 470.5 205.5 L 132.5 205.5 L 132.5 27.5"/></clipPath><clipPath id="TveOfTiNtoJv"><path fill="none" stroke="none" d="M 132.5 27.5 L 470.5 27.5 L 470.5 205.5 L 132.5 205.5 L 132.5 27.5"/></clipPath><clipPath id="RytVTXfCTeUB"><path fill="none" stroke="none" d="M 132.5 27.5 L 470.5 27.5 L 470.5 205.5 L 132.5 205.5 L 132.5 27.5"/></clipPath><clipPath id="uMWvKnbwrCEQ"><path fill="none" stroke="none" d="M 132.5 27.5 L 470.5 27.5 L 470.5 205.5 L 132.5 205.5 L 132.5 27.5"/></clipPath><clipPath id="DIvQvXsGSXPe"><path fill="none" stroke="none" d="M 132.5 27.5 L 470.5 27.5 L 470.5 205.5 L 132.5 205.5 L 132.5 27.5"/></clipPath><clipPath id="xXLdrXuKnLvy"><path fill="none" stroke="none" d="M 132.5 27.5 L 470.5 27.5 L 470.5 205.5 L 132.5 205.5 L 132.5 27.5"/></clipPath><clipPath id="RVTJpiVqPRxD"><path fill="none" stroke="none" d="M 132.5 27.5 L 470.5 27.5 L 470.5 205.5 L 132.5 205.5 L 132.5 27.5"/></clipPath></defs><path fill="rgb(255,255,255)" stroke="none" paint-order="stroke" d="M 0.5 0.5 L 500.5 0.5 L 500.5 250.5 L 0.5 250.5 L 0.5 0.5" fill-opacity="1"/><rect fill="#FFFFFF" stroke="none" x="132" y="27" width="338" height="178" transform="matrix(1, 0, 0, 1, 0.5, 0.5)"/><path fill="rgb(255,255,255)" stroke="none" paint-order="stroke" d="M 132.5 27.5 L 470.5 27.5 L 470.5 205.5 L 132.5 205.5 L 132.5 27.5" fill-opacity="1"/><path fill="none" stroke="rgb(229,229,229)" paint-order="fill" d="M 132.5 27.5 L 470.5 27.5 L 470.5 205.5 L 132.5 205.5 L 132.5 27.5" stroke-opacity="1" stroke-linejoin="bevel" stroke-miterlimit="10" stroke-dasharray=""/><path fill="rgb(128,128,128)" stroke="rgb(0,0,0)" paint-order="fill" d="M 197.02737426757812 42.33333206176758 A 5 5 0 1 1 197.02737176757833 42.32833206260091" fill-opacity="1" clip-path="url(#odHenehlTqNq)" stroke-opacity="1" stroke-linejoin="bevel" stroke-miterlimit="10" stroke-dasharray=""/><path fill="rgb(128,128,128)" stroke="rgb(0,0,0)" paint-order="fill" d="M 177.1334228515625 42.33333206176758 A 5 5 0 1 1 177.1334203515627 42.32833206260091" fill-opacity="1" clip-path="url(#odHenehlTqNq)" stroke-opacity="1" stroke-linejoin="bevel" stroke-miterlimit="10" stroke-dasharray=""/><path fill="rgb(128,128,128)" stroke="rgb(0,0,0)" paint-order="fill" d="M 201.49012756347656 42.33333206176758 A 5 5 0 1 1 201.49012506347677 42.32833206260091" fill-opacity="1" clip-path="url(#odHenehlTqNq)" stroke-opacity="1" stroke-linejoin="bevel" stroke-miterlimit="10" stroke-dasharray=""/><path fill="rgb(128,128,128)" stroke="rgb(0,0,0)" paint-order="fill" d="M 208.27597045898438 42.33333206176758 A 5 5 0 1 1 208.27596795898458 42.32833206260091" fill-opacity="1" clip-path="url(#odHenehlTqNq)" stroke-opacity="1" stroke-linejoin="bevel" stroke-miterlimit="10" stroke-dasharray=""/><path fill="rgb(128,128,128)" stroke="rgb(0,0,0)" paint-order="fill" d="M 217.6674346923828 42.33333206176758 A 5 5 0 1 1 217.66743219238302 42.32833206260091" fill-opacity="1" clip-path="url(#odHenehlTqNq)" stroke-opacity="1" stroke-linejoin="bevel" stroke-miterlimit="10" stroke-dasharray=""/><path fill="rgb(128,128,128)" stroke="rgb(0,0,0)" paint-order="fill" d="M 189.76141357421875 42.33333206176758 A 5 5 0 1 1 189.76141107421896 42.32833206260091" fill-opacity="1" clip-path="url(#odHenehlTqNq)" stroke-opacity="1" stroke-linejoin="bevel" stroke-miterlimit="10" stroke-dasharray=""/><path fill="rgb(128,128,128)" stroke="rgb(0,0,0)" paint-order="fill" d="M 190.3129119873047 42.33333206176758 A 5 5 0 1 1 190.3129094873049 42.32833206260091" fill-opacity="1" clip-path="url(#odHenehlTqNq)" stroke-opacity="1" stroke-linejoin="bevel" stroke-miterlimit="10" stroke-dasharray=""/><path fill="rgb(128,128,128)" stroke="rgb(0,0,0)" paint-order="fill" d="M 181.7401580810547 42.33333206176758 A 5 5 0 1 1 181.7401555810549 42.32833206260091" fill-opacity="1" clip-path="url(#odHenehlTqNq)" stroke-opacity="1" stroke-linejoin="bevel" stroke-miterlimit="10" stroke-dasharray=""/><path fill="rgb(128,128,128)" stroke="rgb(0,0,0)" paint-order="fill" d="M 181.09120178222656 42.33333206176758 A 5 5 0 1 1 181.09119928222677 42.32833206260091" fill-opacity="1" clip-path="url(#odHenehlTqNq)" stroke-opacity="1" stroke-linejoin="bevel" stroke-miterlimit="10" stroke-dasharray=""/><path fill="none" stroke="rgb(0,0,0)" paint-order="fill" d="M 188.8333282470703 48.26666259765625 L 188.8333282470703 36.40000534057617" stroke-opacity="1" stroke-linejoin="bevel" stroke-miterlimit="10" stroke-width="3" stroke-dasharray="" clip-path="url(#GCZpikHDPmcf)"/><path fill="rgb(169,169,169)" stroke="rgb(0,0,0)" paint-order="fill" d="M 413.96826171875 72 A 5 5 0 1 1 413.96825921875023 71.99500000083333" fill-opacity="1" clip-path="url(#tngBiklifrOd)" stroke-opacity="1" stroke-linejoin="bevel" stroke-miterlimit="10" stroke-dasharray=""/><path fill="rgb(169,169,169)" stroke="rgb(0,0,0)" paint-order="fill" d="M 390.5570373535156 72 A 5 5 0 1 1 390.55703485351586 71.99500000083333" fill-opacity="1" clip-path="url(#tngBiklifrOd)" stroke-opacity="1" stroke-linejoin="bevel" stroke-miterlimit="10" stroke-dasharray=""/><path fill="rgb(169,169,169)" stroke="rgb(0,0,0)" paint-order="fill" d="M 401.6485290527344 72 A 5 5 0 1 1 401.6485265527346 71.99500000083333" fill-opacity="1" clip-path="url(#tngBiklifrOd)" stroke-opacity="1" stroke-linejoin="bevel" stroke-miterlimit="10" stroke-dasharray=""/><path fill="rgb(169,169,169)" stroke="rgb(0,0,0)" paint-order="fill" d="M 424.809814453125 72 A 5 5 0 1 1 424.80981195312523 71.99500000083333" fill-opacity="1" clip-path="url(#tngBiklifrOd)" stroke-opacity="1" stroke-linejoin="bevel" stroke-miterlimit="10" stroke-dasharray=""/><path fill="rgb(169,169,169)" stroke="rgb(0,0,0)" paint-order="fill" d="M 408.7499084472656 72 A 5 5 0 1 1 408.74990594726586 71.99500000083333" fill-opacity="1" clip-path="url(#tngBiklifrOd)" stroke-opacity="1" stroke-linejoin="bevel" stroke-miterlimit="10" stroke-dasharray=""/><path fill="rgb(169,169,169)" stroke="rgb(0,0,0)" paint-order="fill" d="M 355.29034423828125 72 A 5 5 0 1 1 355.2903417382815 71.99500000083333" fill-opacity="1" clip-path="url(#tngBiklifrOd)" stroke-opacity="1" stroke-linejoin="bevel" stroke-miterlimit="10" stroke-dasharray=""/><path fill="rgb(169,169,169)" stroke="rgb(0,0,0)" paint-order="fill" d="M 351.3565368652344 72 A 5 5 0 1 1 351.3565343652346 71.99500000083333" fill-opacity="1" clip-path="url(#tngBiklifrOd)" stroke-opacity="1" stroke-linejoin="bevel" stroke-miterlimit="10" stroke-dasharray=""/><path fill="rgb(169,169,169)" stroke="rgb(0,0,0)" paint-order="fill" d="M 367.2947692871094 72 A 5 5 0 1 1 367.2947667871096 71.99500000083333" fill-opacity="1" clip-path="url(#tngBiklifrOd)" stroke-opacity="1" stroke-linejoin="bevel" stroke-miterlimit="10" stroke-dasharray=""/><path fill="rgb(169,169,169)" stroke="rgb(0,0,0)" paint-order="fill" d="M 348.8901672363281 72 A 5 5 0 1 1 348.89016473632836 71.99500000083333" fill-opacity="1" clip-path="url(#tngBiklifrOd)" stroke-opacity="1" stroke-linejoin="bevel" stroke-miterlimit="10" stroke-dasharray=""/><path fill="none" stroke="rgb(0,0,0)" paint-order="fill" d="M 379.7294921875 77.9333267211914 L 379.7294921875 66.0666732788086" stroke-opacity="1" stroke-linejoin="bevel" stroke-miterlimit="10" stroke-width="3" stroke-dasharray="" clip-path="url(#UuNpPgDoXyaX)"/><path fill="rgb(211,211,211)" stroke="rgb(0,0,0)" paint-order="fill" d="M 174.13441467285156 101.66666412353516 A 5 5 0 1 1 174.13441217285177 101.66166412436849" fill-opacity="1" clip-path="url(#vQfFfTPwXNaN)" stroke-opacity="1" stroke-linejoin="bevel" stroke-miterlimit="10" stroke-dasharray=""/><path fill="rgb(211,211,211)" stroke="rgb(0,0,0)" paint-order="fill" d="M 173.3670654296875 101.66666412353516 A 5 5 0 1 1 173.3670629296877 101.66166412436849" fill-opacity="1" clip-path="url(#vQfFfTPwXNaN)" stroke-opacity="1" stroke-linejoin="bevel" stroke-miterlimit="10" stroke-dasharray=""/><path fill="rgb(211,211,211)" stroke="rgb(0,0,0)" paint-order="fill" d="M 178.6988525390625 101.66666412353516 A 5 5 0 1 1 178.6988500390627 101.66166412436849" fill-opacity="1" clip-path="url(#vQfFfTPwXNaN)" stroke-opacity="1" stroke-linejoin="bevel" stroke-miterlimit="10" stroke-dasharray=""/><path fill="none" stroke="rgb(0,0,0)" paint-order="fill" d="M 170.40011596679688 110.56666564941406 L 170.40011596679688 92.76667022705078" stroke-opacity="1" stroke-linejoin="bevel" stroke-miterlimit="10" stroke-width="3" stroke-dasharray="" clip-path="url(#nqoXGnvQIWIA)"/><path fill="none" stroke="rgb(0,0,0)" paint-order="fill" d="" stroke-opacity="1" stroke-linejoin="bevel" stroke-miterlimit="10" stroke-width="3" stroke-dasharray="" clip-path="url(#lOryLNwrtwbM)"/><path fill="rgb(0,0,255)" stroke="rgb(0,0,0)" paint-order="fill" d="M 278.5281066894531 131.3333282470703 A 5 5 0 1 1 278.52810418945336 131.32832824790364" fill-opacity="1" clip-path="url(#eRoUlHEZmPsQ)" stroke-opacity="1" stroke-linejoin="bevel" stroke-miterlimit="10" stroke-dasharray=""/><path fill="rgb(0,0,255)" stroke="rgb(0,0,0)" paint-order="fill" d="M 227.93258666992188 131.3333282470703 A 5 5 0 1 1 227.93258416992208 131.32832824790364" fill-opacity="1" clip-path="url(#eRoUlHEZmPsQ)" stroke-opacity="1" stroke-linejoin="bevel" stroke-miterlimit="10" stroke-dasharray=""/><path fill="rgb(0,0,255)" stroke="rgb(0,0,0)" paint-order="fill" d="M 261.8993835449219 131.3333282470703 A 5 5 0 1 1 261.8993810449221 131.32832824790364" fill-opacity="1" clip-path="url(#eRoUlHEZmPsQ)" stroke-opacity="1" stroke-linejoin="bevel" stroke-miterlimit="10" stroke-dasharray=""/><path fill="none" stroke="rgb(0,0,0)" paint-order="fill" d="M 251.12002563476562 140.23333740234375 L 251.12002563476562 122.43333435058594" stroke-opacity="1" stroke-linejoin="bevel" stroke-miterlimit="10" stroke-width="3" stroke-dasharray="" clip-path="url(#vLiSBPKLhVsK)"/><path fill="none" stroke="rgb(0,0,0)" paint-order="fill" d="" stroke-opacity="1" stroke-linejoin="bevel" stroke-miterlimit="10" stroke-width="3" stroke-dasharray="" clip-path="url(#KzmVqPEWbqGq)"/><path fill="rgb(255,127,80)" stroke="rgb(0,0,0)" paint-order="fill" d="M 211.17276000976562 161 A 5 5 0 1 1 211.17275750976583 160.99500000083333" fill-opacity="1" clip-path="url(#FGlzFdIFzyRD)" stroke-opacity="1" stroke-linejoin="bevel" stroke-miterlimit="10" stroke-dasharray=""/><path fill="rgb(255,127,80)" stroke="rgb(0,0,0)" paint-order="fill" d="M 175.10110473632812 161 A 5 5 0 1 1 175.10110223632833 160.99500000083333" fill-opacity="1" clip-path="url(#FGlzFdIFzyRD)" stroke-opacity="1" stroke-linejoin="bevel" stroke-miterlimit="10" stroke-dasharray=""/><path fill="rgb(255,127,80)" stroke="rgb(0,0,0)" paint-order="fill" d="M 208.25924682617188 161 A 5 5 0 1 1 208.25924432617208 160.99500000083333" fill-opacity="1" clip-path="url(#FGlzFdIFzyRD)" stroke-opacity="1" stroke-linejoin="bevel" stroke-miterlimit="10" stroke-dasharray=""/><path fill="none" stroke="rgb(0,0,0)" paint-order="fill" d="M 193.17770385742188 169.89999389648438 L 193.17770385742188 152.10000610351562" stroke-opacity="1" stroke-linejoin="bevel" stroke-miterlimit="10" stroke-width="3" stroke-dasharray="" clip-path="url(#EdWywrMfrnvT)"/><path fill="none" stroke="rgb(0,0,0)" paint-order="fill" d="" stroke-opacity="1" stroke-linejoin="bevel" stroke-miterlimit="10" stroke-width="3" stroke-dasharray="" clip-path="url(#ZOTRZrXqNrdS)"/><path fill="rgb(255,160,122)" stroke="rgb(0,0,0)" paint-order="fill" d="M 217.56959533691406 190.6666717529297 A 5 5 0 1 1 217.56959283691427 190.66167175376302" fill-opacity="1" clip-path="url(#klabhKnGQPii)" stroke-opacity="1" stroke-linejoin="bevel" stroke-miterlimit="10" stroke-dasharray=""/><path fill="rgb(255,160,122)" stroke="rgb(0,0,0)" paint-order="fill" d="M 210.59579467773438 190.6666717529297 A 5 5 0 1 1 210.59579217773458 190.66167175376302" fill-opacity="1" clip-path="url(#klabhKnGQPii)" stroke-opacity="1" stroke-linejoin="bevel" stroke-miterlimit="10" stroke-dasharray=""/><path fill="rgb(255,160,122)" stroke="rgb(0,0,0)" paint-order="fill" d="M 232.59500122070312 190.6666717529297 A 5 5 0 1 1 232.59499872070333 190.66167175376302" fill-opacity="1" clip-path="url(#klabhKnGQPii)" stroke-opacity="1" stroke-linejoin="bevel" stroke-miterlimit="10" stroke-dasharray=""/><path fill="none" stroke="rgb(0,0,0)" paint-order="fill" d="M 215.2534637451172 199.56666564941406 L 215.2534637451172 181.76666259765625" stroke-opacity="1" stroke-linejoin="bevel" stroke-miterlimit="10" stroke-width="3" stroke-dasharray="" clip-path="url(#TveOfTiNtoJv)"/><path fill="none" stroke="rgb(0,0,0)" paint-order="fill" d="" stroke-opacity="1" stroke-linejoin="bevel" stroke-miterlimit="10" stroke-width="3" stroke-dasharray="" clip-path="url(#uMWvKnbwrCEQ)"/><path fill="none" stroke="rgb(0,0,0)" paint-order="fill" d="M 188.8333282470703 205.5 L 188.8333282470703 27.5" stroke-opacity="1" stroke-linejoin="bevel" stroke-miterlimit="10" stroke-dasharray="2,4" clip-path="url(#DIvQvXsGSXPe)"/><path fill="none" stroke="rgb(0,0,0)" paint-order="fill" d="M 132.5 205.5 L 470.5 205.5" stroke-opacity="1" stroke-linejoin="bevel" stroke-miterlimit="10" stroke-dasharray=""/><path fill="none" stroke="rgb(0,0,0)" paint-order="fill" d="M 132.5 211.5 L 132.5 203.5 M 188.5 211.5 L 188.5 203.5 M 245.5 211.5 L 245.5 203.5 M 301.5 211.5 L 301.5 203.5 M 357.5 211.5 L 357.5 203.5 M 414.5 211.5 L 414.5 203.5 M 470.5 211.5 L 470.5 203.5" stroke-opacity="1" stroke-linejoin="bevel" stroke-miterlimit="10" stroke-dasharray=""/><path fill="none" stroke="rgb(0,0,0)" paint-order="fill" d="M 132.5 209.5 L 132.5 205.5 M 143.5 209.5 L 143.5 205.5 M 155.5 209.5 L 155.5 205.5 M 166.5 209.5 L 166.5 205.5 M 177.5 209.5 L 177.5 205.5 M 188.5 209.5 L 188.5 205.5 M 200.5 209.5 L 200.5 205.5 M 211.5 209.5 L 211.5 205.5 M 222.5 209.5 L 222.5 205.5 M 233.5 209.5 L 233.5 205.5 M 245.5 209.5 L 245.5 205.5 M 256.5 209.5 L 256.5 205.5 M 267.5 209.5 L 267.5 205.5 M 278.5 209.5 L 278.5 205.5 M 290.5 209.5 L 290.5 205.5 M 301.5 209.5 L 301.5 205.5 M 312.5 209.5 L 312.5 205.5 M 324.5 209.5 L 324.5 205.5 M 335.5 209.5 L 335.5 205.5 M 346.5 209.5 L 346.5 205.5 M 357.5 209.5 L 357.5 205.5 M 369.5 209.5 L 369.5 205.5 M 380.5 209.5 L 380.5 205.5 M 391.5 209.5 L 391.5 205.5 M 402.5 209.5 L 402.5 205.5 M 414.5 209.5 L 414.5 205.5 M 425.5 209.5 L 425.5 205.5 M 436.5 209.5 L 436.5 205.5 M 447.5 209.5 L 447.5 205.5 M 459.5 209.5 L 459.5 205.5 M 470.5 209.5 L 470.5 205.5" stroke-opacity="1" stroke-linejoin="bevel" stroke-miterlimit="10" stroke-dasharray=""/><text fill="rgb(68,68,68)" stroke="none" font-family="helvetica" font-size="11px" font-style="normal" font-weight="normal" text-decoration="normal" x="128.941162109375" y="224" text-anchor="start" dominant-baseline="alphabetic" transform="matrix(1, 0, 0, 1, 0.5, 0.5)" fill-opacity="1">0</text><text fill="rgb(68,68,68)" stroke="none" font-family="helvetica" font-size="11px" font-style="normal" font-weight="normal" text-decoration="normal" x="185.2744903564453" y="224" text-anchor="start" dominant-baseline="alphabetic" transform="matrix(1, 0, 0, 1, 0.5, 0.5)" fill-opacity="1">1</text><text fill="rgb(68,68,68)" stroke="none" font-family="helvetica" font-size="11px" font-style="normal" font-weight="normal" text-decoration="normal" x="241.6078338623047" y="224" text-anchor="start" dominant-baseline="alphabetic" transform="matrix(1, 0, 0, 1, 0.5, 0.5)" fill-opacity="1">2</text><text fill="rgb(68,68,68)" stroke="none" font-family="helvetica" font-size="11px" font-style="normal" font-weight="normal" text-decoration="normal" x="297.941162109375" y="224" text-anchor="start" dominant-baseline="alphabetic" transform="matrix(1, 0, 0, 1, 0.5, 0.5)" fill-opacity="1">3</text><text fill="rgb(68,68,68)" stroke="none" font-family="helvetica" font-size="11px" font-style="normal" font-weight="normal" text-decoration="normal" x="354.2745056152344" y="224" text-anchor="start" dominant-baseline="alphabetic" transform="matrix(1, 0, 0, 1, 0.5, 0.5)" fill-opacity="1">4</text><text fill="rgb(68,68,68)" stroke="none" font-family="helvetica" font-size="11px" font-style="normal" font-weight="normal" text-decoration="normal" x="410.6078186035156" y="224" text-anchor="start" dominant-baseline="alphabetic" transform="matrix(1, 0, 0, 1, 0.5, 0.5)" fill-opacity="1">5</text><text fill="rgb(68,68,68)" stroke="none" font-family="helvetica" font-size="11px" font-style="normal" font-weight="normal" text-decoration="normal" x="466.941162109375" y="224" text-anchor="start" dominant-baseline="alphabetic" transform="matrix(1, 0, 0, 1, 0.5, 0.5)" fill-opacity="1">6</text><text fill="rgb(68,68,68)" stroke="none" font-family="helvetica" font-size="13px" font-style="italic" font-weight="normal" text-decoration="normal" x="243.91552734375" y="244" text-anchor="start" dominant-baseline="alphabetic" transform="matrix(1, 0, 0, 1, 0.5, 0.5)" fill-opacity="1">Relative PaQa level</text><path fill="none" stroke="rgb(0,0,0)" paint-order="fill" d="M 132.5 205.5 L 132.5 27.5" stroke-opacity="1" stroke-linejoin="bevel" stroke-miterlimit="10" stroke-dasharray=""/><path fill="none" stroke="rgb(0,0,0)" paint-order="fill" d="M 126.5 190.5 L 134.5 190.5 M 126.5 161.5 L 134.5 161.5 M 126.5 131.5 L 134.5 131.5 M 126.5 101.5 L 134.5 101.5 M 126.5 72.5 L 134.5 72.5 M 126.5 42.5 L 134.5 42.5" stroke-opacity="1" stroke-linejoin="bevel" stroke-miterlimit="10" stroke-dasharray=""/><text fill="rgb(68,68,68)" stroke="none" font-family="helvetica" font-size="9pt" font-style="normal" font-weight="normal" text-decoration="normal" x="2.921875" y="194.1666717529297" text-anchor="start" dominant-baseline="alphabetic" transform="matrix(1, 0, 0, 1, 0.5, 0.5)" fill-opacity="1">ΔpilT_pilA_T8V Liquid</text><text fill="rgb(68,68,68)" stroke="none" font-family="helvetica" font-size="9pt" font-style="normal" font-weight="normal" text-decoration="normal" x="58.287109375" y="164.5" text-anchor="start" dominant-baseline="alphabetic" transform="matrix(1, 0, 0, 1, 0.5, 0.5)" fill-opacity="1">ΔpilT Liquid</text><text fill="rgb(68,68,68)" stroke="none" font-family="helvetica" font-size="9pt" font-style="normal" font-weight="normal" text-decoration="normal" x="36.947265625" y="134.8333282470703" text-anchor="start" dominant-baseline="alphabetic" transform="matrix(1, 0, 0, 1, 0.5, 0.5)" fill-opacity="1">pilA_T8V Liquid</text><text fill="rgb(68,68,68)" stroke="none" font-family="helvetica" font-size="9pt" font-style="normal" font-weight="normal" text-decoration="normal" x="57.61328125" y="105.16666412353516" text-anchor="start" dominant-baseline="alphabetic" transform="matrix(1, 0, 0, 1, 0.5, 0.5)" fill-opacity="1">ΔpilA Liquid</text><text fill="rgb(68,68,68)" stroke="none" font-family="helvetica" font-size="9pt" font-style="normal" font-weight="normal" text-decoration="normal" x="72.326171875" y="75.5" text-anchor="start" dominant-baseline="alphabetic" transform="matrix(1, 0, 0, 1, 0.5, 0.5)" fill-opacity="1">WT Solid</text><text fill="rgb(68,68,68)" stroke="none" font-family="helvetica" font-size="9pt" font-style="normal" font-weight="normal" text-decoration="normal" x="66.982421875" y="45.83333206176758" text-anchor="start" dominant-baseline="alphabetic" transform="matrix(1, 0, 0, 1, 0.5, 0.5)" fill-opacity="1">WT Liquid</text><path fill="rgb(255,255,255)" stroke="rgb(229,229,229)" paint-order="fill" d="M 302.7783203125 37.5 L 460.5 37.5 L 460.5 123.5 L 302.7783203125 123.5 L 302.7783203125 37.5" fill-opacity="0.9490196078431372" clip-path="url(#xXLdrXuKnLvy)" stroke-opacity="0.5019607843137255" stroke-linejoin="bevel" stroke-miterlimit="10" stroke-dasharray=""/><g clip-path="url(#xXLdrXuKnLvy)"><text fill="rgb(68,68,68)" stroke="none" font-family="helvetica" font-size="13px" font-style="normal" font-weight="normal" text-decoration="normal" x="337.2783203125" y="57" text-anchor="start" dominant-baseline="central" transform="matrix(1, 0, 0, 1, 0.5, 0.5)" fill-opacity="1">mean</text></g><path fill="none" stroke="rgb(0,0,0)" paint-order="fill" d="M 312.7783203125 57.5 L 332.7783203125 57.5" stroke-opacity="1" stroke-linejoin="bevel" stroke-miterlimit="10" stroke-width="3" stroke-dasharray="" clip-path="url(#xXLdrXuKnLvy)"/><g clip-path="url(#xXLdrXuKnLvy)"><text fill="rgb(68,68,68)" stroke="none" font-family="helvetica" font-size="13px" font-style="normal" font-weight="normal" text-decoration="normal" x="337.2783203125" y="80" text-anchor="start" dominant-baseline="central" transform="matrix(1, 0, 0, 1, 0.5, 0.5)" fill-opacity="1">means of replicates</text></g><path fill="rgb(211,211,211)" stroke="rgb(0,0,0)" paint-order="fill" d="M 326.7783203125 80.5 A 4 4 0 1 1 326.7783183125002 80.49600000066667" fill-opacity="1" clip-path="url(#xXLdrXuKnLvy)" stroke-opacity="1" stroke-linejoin="bevel" stroke-miterlimit="10" stroke-dasharray=""/><path fill="rgb(0,0,255)" stroke="rgb(0,0,0)" paint-order="fill" d="M 326.7783203125 80.5 A 4 4 0 1 1 326.7783183125002 80.49600000066667" fill-opacity="1" clip-path="url(#xXLdrXuKnLvy)" stroke-opacity="1" stroke-linejoin="bevel" stroke-miterlimit="10" stroke-dasharray=""/><path fill="rgb(255,127,80)" stroke="rgb(0,0,0)" paint-order="fill" d="M 326.7783203125 80.5 A 4 4 0 1 1 326.7783183125002 80.49600000066667" fill-opacity="1" clip-path="url(#xXLdrXuKnLvy)" stroke-opacity="1" stroke-linejoin="bevel" stroke-miterlimit="10" stroke-dasharray=""/><path fill="rgb(255,160,122)" stroke="rgb(0,0,0)" paint-order="fill" d="M 326.7783203125 80.5 A 4 4 0 1 1 326.7783183125002 80.49600000066667" fill-opacity="1" clip-path="url(#xXLdrXuKnLvy)" stroke-opacity="1" stroke-linejoin="bevel" stroke-miterlimit="10" stroke-dasharray=""/><g clip-path="url(#xXLdrXuKnLvy)"><text fill="rgb(68,68,68)" stroke="none" font-family="helvetica" font-size="13px" font-style="normal" font-weight="normal" text-decoration="normal" x="337.2783203125" y="103" text-anchor="start" dominant-baseline="central" transform="matrix(1, 0, 0, 1, 0.5, 0.5)" fill-opacity="1">Reference</text></g><path fill="none" stroke="rgb(0,0,0)" paint-order="fill" d="M 312.7783203125 103.5 L 332.7783203125 103.5" stroke-opacity="1" stroke-linejoin="bevel" stroke-miterlimit="10" stroke-dasharray="2,4" clip-path="url(#xXLdrXuKnLvy)"/><text fill="rgb(68,68,68)" stroke="none" font-family="helvetica" font-size="13px" font-style="normal" font-weight="bold" text-decoration="normal" x="132" y="19" text-anchor="start" dominant-baseline="alphabetic" transform="matrix(1, 0, 0, 1, 0.5, 0.5)" fill-opacity="1"> PaQa_ratio on Liquid vs. Solid in linear scale</text></svg>