<svg version="1.1" xmlns="http://www.w3.org/2000/svg" width="500" height="300"><defs><clipPath id="cmEZblnaEBxV"><path fill="none" stroke="none" d="M 103.5 27.5 L 470.5 27.5 L 470.5 255.5 L 103.5 255.5 L 103.5 27.5"/></clipPath><clipPath id="nspCNyGTxVfe"><path fill="none" stroke="none" d="M 103.5 27.5 L 470.5 27.5 L 470.5 255.5 L 103.5 255.5 L 103.5 27.5"/></clipPath><clipPath id="lvDRgSmnpeQN"><path fill="none" stroke="none" d="M 103.5 27.5 L 470.5 27.5 L 470.5 255.5 L 103.5 255.5 L 103.5 27.5"/></clipPath><clipPath id="rQmSasSTFDeH"><path fill="none" stroke="none" d="M 103.5 27.5 L 470.5 27.5 L 470.5 255.5 L 103.5 255.5 L 103.5 27.5"/></clipPath><clipPath id="OIRfxNzFLdEr"><path fill="none" stroke="none" d="M 103.5 27.5 L 470.5 27.5 L 470.5 255.5 L 103.5 255.5 L 103.5 27.5"/></clipPath><clipPath id="bTytfkFiRVRX"><path fill="none" stroke="none" d="M 103.5 27.5 L 470.5 27.5 L 470.5 255.5 L 103.5 255.5 L 103.5 27.5"/></clipPath><clipPath id="efktOmRSZgDK"><path fill="none" stroke="none" d="M 103.5 27.5 L 470.5 27.5 L 470.5 255.5 L 103.5 255.5 L 103.5 27.5"/></clipPath><clipPath id="bXXMMfThAlIU"><path fill="none" stroke="none" d="M 103.5 27.5 L 470.5 27.5 L 470.5 255.5 L 103.5 255.5 L 103.5 27.5"/></clipPath><clipPath id="FCWoEqwKvDFn"><path fill="none" stroke="none" d="M 103.5 27.5 L 470.5 27.5 L 470.5 255.5 L 103.5 255.5 L 103.5 27.5"/></clipPath><clipPath id="RNbpEekkGsTq"><path fill="none" stroke="none" d="M 103.5 27.5 L 470.5 27.5 L 470.5 255.5 L 103.5 255.5 L 103.5 27.5"/></clipPath><clipPath id="RGUNsDTMaiAl"><path fill="none" stroke="none" d="M 103.5 27.5 L 470.5 27.5 L 470.5 255.5 L 103.5 255.5 L 103.5 27.5"/></clipPath><clipPath id="uAUiIXwrUwmM"><path fill="none" stroke="none" d="M 103.5 27.5 L 470.5 27.5 L 470.5 255.5 L 103.5 255.5 L 103.5 27.5"/></clipPath><clipPath id="rlsSoqxThsAD"><path fill="none" stroke="none" d="M 103.5 27.5 L 470.5 27.5 L 470.5 255.5 L 103.5 255.5 L 103.5 27.5"/></clipPath><clipPath id="ueyTcioyRZcE"><path fill="none" stroke="none" d="M 103.5 27.5 L 470.5 27.5 L 470.5 255.5 L 103.5 255.5 L 103.5 27.5"/></clipPath><clipPath id="qHpEgbPXVeQE"><path fill="none" stroke="none" d="M 103.5 27.5 L 470.5 27.5 L 470.5 255.5 L 103.5 255.5 L 103.5 27.5"/></clipPath><clipPath id="HuEFcowCEeSJ"><path fill="none" stroke="none" d="M 103.5 27.5 L 470.5 27.5 L 470.5 255.5 L 103.5 255.5 L 103.5 27.5"/></clipPath><clipPath id="CaTIxmPalKfm"><path fill="none" stroke="none" d="M 103.5 27.5 L 470.5 27.5 L 470.5 255.5 L 103.5 255.5 L 103.5 27.5"/></clipPath><clipPath id="rRQXEaCgRXmS"><path fill="none" stroke="none" d="M 103.5 27.5 L 470.5 27.5 L 470.5 255.5 L 103.5 255.5 L 103.5 27.5"/></clipPath><clipPath id="emIcXQMJBKwn"><path fill="none" stroke="none" d="M 103.5 27.5 L 470.5 27.5 L 470.5 255.5 L 103.5 255.5 L 103.5 27.5"/></clipPath><clipPath id="wvPZFaqymtIJ"><path fill="none" stroke="none" d="M 103.5 27.5 L 470.5 27.5 L 470.5 255.5 L 103.5 255.5 L 103.5 27.5"/></clipPath><clipPath id="tZfmwSlvNTqN"><path fill="none" stroke="none" d="M 103.5 27.5 L 470.5 27.5 L 470.5 255.5 L 103.5 255.5 L 103.5 27.5"/></clipPath></defs><path fill="rgb(255,255,255)" stroke="none" paint-order="stroke" d="M 0.5 0.5 L 500.5 0.5 L 500.5 300.5 L 0.5 300.5 L 0.5 0.5" fill-opacity="1"/><rect fill="#FFFFFF" stroke="none" x="103" y="27" width="367" height="228" transform="matrix(1, 0, 0, 1, 0.5, 0.5)"/><path fill="rgb(255,255,255)" stroke="none" paint-order="stroke" d="M 103.5 27.5 L 470.5 27.5 L 470.5 255.5 L 103.5 255.5 L 103.5 27.5" fill-opacity="1"/><path fill="none" stroke="rgb(229,229,229)" paint-order="fill" d="M 103.5 27.5 L 470.5 27.5 L 470.5 255.5 L 103.5 255.5 L 103.5 27.5" stroke-opacity="1" stroke-linejoin="bevel" stroke-miterlimit="10" stroke-dasharray=""/><path fill="rgb(128,128,128)" stroke="rgb(0,0,0)" paint-order="fill" d="M 215.02244567871094 41.75 A 5 5 0 1 1 215.02244317871114 41.74500000083333" fill-opacity="1" clip-path="url(#lvDRgSmnpeQN)" stroke-opacity="1" stroke-linejoin="bevel" stroke-miterlimit="10" stroke-dasharray=""/><path fill="rgb(128,128,128)" stroke="rgb(0,0,0)" paint-order="fill" d="M 191.74195861816406 41.75 A 5 5 0 1 1 191.74195611816427 41.74500000083333" fill-opacity="1" clip-path="url(#lvDRgSmnpeQN)" stroke-opacity="1" stroke-linejoin="bevel" stroke-miterlimit="10" stroke-dasharray=""/><path fill="rgb(128,128,128)" stroke="rgb(0,0,0)" paint-order="fill" d="M 193.985595703125 41.75 A 5 5 0 1 1 193.9855932031252 41.74500000083333" fill-opacity="1" clip-path="url(#lvDRgSmnpeQN)" stroke-opacity="1" stroke-linejoin="bevel" stroke-miterlimit="10" stroke-dasharray=""/><path fill="rgb(169,169,169)" stroke="rgb(0,0,0)" paint-order="fill" d="M 305.17431640625 70.25 A 5 5 0 1 1 305.17431390625023 70.24500000083333" fill-opacity="1" clip-path="url(#rQmSasSTFDeH)" stroke-opacity="1" stroke-linejoin="bevel" stroke-miterlimit="10" stroke-dasharray=""/><path fill="rgb(169,169,169)" stroke="rgb(0,0,0)" paint-order="fill" d="M 295.844482421875 70.25 A 5 5 0 1 1 295.84447992187523 70.24500000083333" fill-opacity="1" clip-path="url(#rQmSasSTFDeH)" stroke-opacity="1" stroke-linejoin="bevel" stroke-miterlimit="10" stroke-dasharray=""/><path fill="rgb(169,169,169)" stroke="rgb(0,0,0)" paint-order="fill" d="M 386.1880798339844 70.25 A 5 5 0 1 1 386.1880773339846 70.24500000083333" fill-opacity="1" clip-path="url(#rQmSasSTFDeH)" stroke-opacity="1" stroke-linejoin="bevel" stroke-miterlimit="10" stroke-dasharray=""/><path fill="none" stroke="rgb(0,0,0)" paint-order="fill" d="M 195.25 50.30000686645508 L 195.25 33.19999313354492" stroke-opacity="1" stroke-linejoin="bevel" stroke-miterlimit="10" stroke-width="3" stroke-dasharray="" clip-path="url(#OIRfxNzFLdEr)"/><path fill="none" stroke="rgb(0,0,0)" paint-order="fill" d="M 324.0689697265625 78.80000305175781 L 324.0689697265625 61.69999313354492" stroke-opacity="1" stroke-linejoin="bevel" stroke-miterlimit="10" stroke-width="3" stroke-dasharray="" clip-path="url(#bTytfkFiRVRX)"/><path fill="rgb(211,211,211)" stroke="rgb(0,0,0)" paint-order="fill" d="M 152.54171752929688 98.75 A 5 5 0 1 1 152.54171502929708 98.74500000083333" fill-opacity="1" clip-path="url(#efktOmRSZgDK)" stroke-opacity="1" stroke-linejoin="bevel" stroke-miterlimit="10" stroke-dasharray=""/><path fill="rgb(211,211,211)" stroke="rgb(0,0,0)" paint-order="fill" d="M 144.32559204101562 98.75 A 5 5 0 1 1 144.32558954101583 98.74500000083333" fill-opacity="1" clip-path="url(#efktOmRSZgDK)" stroke-opacity="1" stroke-linejoin="bevel" stroke-miterlimit="10" stroke-dasharray=""/><path fill="none" stroke="rgb(0,0,0)" paint-order="fill" d="M 143.43365478515625 107.30000305175781 L 143.43365478515625 90.19999694824219" stroke-opacity="1" stroke-linejoin="bevel" stroke-miterlimit="10" stroke-width="3" stroke-dasharray="" clip-path="url(#bXXMMfThAlIU)"/><path fill="rgb(128,128,0)" stroke="rgb(0,0,0)" paint-order="fill" d="M 166.76205444335938 127.25 A 5 5 0 1 1 166.76205194335958 127.24500000083333" fill-opacity="1" clip-path="url(#FCWoEqwKvDFn)" stroke-opacity="1" stroke-linejoin="bevel" stroke-miterlimit="10" stroke-dasharray=""/><path fill="none" stroke="rgb(0,0,0)" paint-order="fill" d="M 161.76205444335938 135.8000030517578 L 161.76205444335938 118.69999694824219" stroke-opacity="1" stroke-linejoin="bevel" stroke-miterlimit="10" stroke-width="3" stroke-dasharray="" clip-path="url(#RNbpEekkGsTq)"/><path fill="rgb(205,133,63)" stroke="rgb(0,0,0)" paint-order="fill" d="M 339.5828552246094 155.75 A 5 5 0 1 1 339.5828527246096 155.74500000083333" fill-opacity="1" clip-path="url(#RGUNsDTMaiAl)" stroke-opacity="1" stroke-linejoin="bevel" stroke-miterlimit="10" stroke-dasharray=""/><path fill="rgb(205,133,63)" stroke="rgb(0,0,0)" paint-order="fill" d="M 356.6896057128906 155.75 A 5 5 0 1 1 356.68960321289086 155.74500000083333" fill-opacity="1" clip-path="url(#RGUNsDTMaiAl)" stroke-opacity="1" stroke-linejoin="bevel" stroke-miterlimit="10" stroke-dasharray=""/><path fill="none" stroke="rgb(0,0,0)" paint-order="fill" d="M 343.13623046875 164.3000030517578 L 343.13623046875 147.1999969482422" stroke-opacity="1" stroke-linejoin="bevel" stroke-miterlimit="10" stroke-width="3" stroke-dasharray="" clip-path="url(#uAUiIXwrUwmM)"/><path fill="rgb(46,139,87)" stroke="rgb(0,0,0)" paint-order="fill" d="M 169.36798095703125 184.25 A 5 5 0 1 1 169.36797845703146 184.24500000083333" fill-opacity="1" clip-path="url(#rlsSoqxThsAD)" stroke-opacity="1" stroke-linejoin="bevel" stroke-miterlimit="10" stroke-dasharray=""/><path fill="rgb(46,139,87)" stroke="rgb(0,0,0)" paint-order="fill" d="M 144.38426208496094 184.25 A 5 5 0 1 1 144.38425958496114 184.24500000083333" fill-opacity="1" clip-path="url(#rlsSoqxThsAD)" stroke-opacity="1" stroke-linejoin="bevel" stroke-miterlimit="10" stroke-dasharray=""/><path fill="rgb(46,139,87)" stroke="rgb(0,0,0)" paint-order="fill" d="M 159.9793701171875 184.25 A 5 5 0 1 1 159.9793676171877 184.24500000083333" fill-opacity="1" clip-path="url(#rlsSoqxThsAD)" stroke-opacity="1" stroke-linejoin="bevel" stroke-miterlimit="10" stroke-dasharray=""/><path fill="none" stroke="rgb(0,0,0)" paint-order="fill" d="M 152.91053771972656 192.8000030517578 L 152.91053771972656 175.6999969482422" stroke-opacity="1" stroke-linejoin="bevel" stroke-miterlimit="10" stroke-width="3" stroke-dasharray="" clip-path="url(#ueyTcioyRZcE)"/><path fill="rgb(143,188,143)" stroke="rgb(0,0,0)" paint-order="fill" d="M 324.2314453125 212.75 A 5 5 0 1 1 324.23144281250023 212.74500000083333" fill-opacity="1" clip-path="url(#qHpEgbPXVeQE)" stroke-opacity="1" stroke-linejoin="bevel" stroke-miterlimit="10" stroke-dasharray=""/><path fill="rgb(143,188,143)" stroke="rgb(0,0,0)" paint-order="fill" d="M 270.42279052734375 212.75 A 5 5 0 1 1 270.422788027344 212.74500000083333" fill-opacity="1" clip-path="url(#qHpEgbPXVeQE)" stroke-opacity="1" stroke-linejoin="bevel" stroke-miterlimit="10" stroke-dasharray=""/><path fill="none" stroke="rgb(0,0,0)" paint-order="fill" d="M 292.3271179199219 221.3000030517578 L 292.3271179199219 204.1999969482422" stroke-opacity="1" stroke-linejoin="bevel" stroke-miterlimit="10" stroke-width="3" stroke-dasharray="" clip-path="url(#HuEFcowCEeSJ)"/><path fill="rgb(173,255,47)" stroke="rgb(0,0,0)" paint-order="fill" d="M 331.11395263671875 241.25 A 5 5 0 1 1 331.113950136719 241.24500000083333" fill-opacity="1" clip-path="url(#CaTIxmPalKfm)" stroke-opacity="1" stroke-linejoin="bevel" stroke-miterlimit="10" stroke-dasharray=""/><path fill="rgb(173,255,47)" stroke="rgb(0,0,0)" paint-order="fill" d="M 271.190673828125 241.25 A 5 5 0 1 1 271.19067132812523 241.24500000083333" fill-opacity="1" clip-path="url(#CaTIxmPalKfm)" stroke-opacity="1" stroke-linejoin="bevel" stroke-miterlimit="10" stroke-dasharray=""/><path fill="none" stroke="rgb(0,0,0)" paint-order="fill" d="M 296.1523132324219 249.8000030517578 L 296.1523132324219 232.6999969482422" stroke-opacity="1" stroke-linejoin="bevel" stroke-miterlimit="10" stroke-width="3" stroke-dasharray="" clip-path="url(#rRQXEaCgRXmS)"/><path fill="none" stroke="rgb(0,0,0)" paint-order="fill" d="M 195.25 255.5 L 195.25 27.5" stroke-opacity="1" stroke-linejoin="bevel" stroke-miterlimit="10" stroke-dasharray="2,4" clip-path="url(#emIcXQMJBKwn)"/><path fill="none" stroke="rgb(0,0,0)" paint-order="fill" d="M 103.5 255.5 L 470.5 255.5" stroke-opacity="1" stroke-linejoin="bevel" stroke-miterlimit="10" stroke-dasharray=""/><path fill="none" stroke="rgb(0,0,0)" paint-order="fill" d="M 103.5 261.5 L 103.5 253.5 M 149.5 261.5 L 149.5 253.5 M 195.5 261.5 L 195.5 253.5 M 241.5 261.5 L 241.5 253.5 M 287.5 261.5 L 287.5 253.5 M 332.5 261.5 L 332.5 253.5 M 378.5 261.5 L 378.5 253.5 M 424.5 261.5 L 424.5 253.5 M 470.5 261.5 L 470.5 253.5" stroke-opacity="1" stroke-linejoin="bevel" stroke-miterlimit="10" stroke-dasharray=""/><path fill="none" stroke="rgb(0,0,0)" paint-order="fill" d="M 103.5 259.5 L 103.5 255.5 M 112.5 259.5 L 112.5 255.5 M 121.5 259.5 L 121.5 255.5 M 131.5 259.5 L 131.5 255.5 M 140.5 259.5 L 140.5 255.5 M 149.5 259.5 L 149.5 255.5 M 158.5 259.5 L 158.5 255.5 M 167.5 259.5 L 167.5 255.5 M 176.5 259.5 L 176.5 255.5 M 186.5 259.5 L 186.5 255.5 M 195.5 259.5 L 195.5 255.5 M 204.5 259.5 L 204.5 255.5 M 213.5 259.5 L 213.5 255.5 M 222.5 259.5 L 222.5 255.5 M 231.5 259.5 L 231.5 255.5 M 241.5 259.5 L 241.5 255.5 M 250.5 259.5 L 250.5 255.5 M 259.5 259.5 L 259.5 255.5 M 268.5 259.5 L 268.5 255.5 M 277.5 259.5 L 277.5 255.5 M 287.5 259.5 L 287.5 255.5 M 296.5 259.5 L 296.5 255.5 M 305.5 259.5 L 305.5 255.5 M 314.5 259.5 L 314.5 255.5 M 323.5 259.5 L 323.5 255.5 M 332.5 259.5 L 332.5 255.5 M 342.5 259.5 L 342.5 255.5 M 351.5 259.5 L 351.5 255.5 M 360.5 259.5 L 360.5 255.5 M 369.5 259.5 L 369.5 255.5 M 378.5 259.5 L 378.5 255.5 M 387.5 259.5 L 387.5 255.5 M 397.5 259.5 L 397.5 255.5 M 406.5 259.5 L 406.5 255.5 M 415.5 259.5 L 415.5 255.5 M 424.5 259.5 L 424.5 255.5 M 433.5 259.5 L 433.5 255.5 M 442.5 259.5 L 442.5 255.5 M 452.5 259.5 L 452.5 255.5 M 461.5 259.5 L 461.5 255.5 M 470.5 259.5 L 470.5 255.5" stroke-opacity="1" stroke-linejoin="bevel" stroke-miterlimit="10" stroke-dasharray=""/><text fill="rgb(68,68,68)" stroke="none" font-family="helvetica" font-size="11px" font-style="normal" font-weight="normal" text-decoration="normal" x="99.941162109375" y="274" text-anchor="start" dominant-baseline="alphabetic" transform="matrix(1, 0, 0, 1, 0.5, 0.5)" fill-opacity="1">0</text><text fill="rgb(68,68,68)" stroke="none" font-family="helvetica" font-size="11px" font-style="normal" font-weight="normal" text-decoration="normal" x="141.229248046875" y="274" text-anchor="start" dominant-baseline="alphabetic" transform="matrix(1, 0, 0, 1, 0.5, 0.5)" fill-opacity="1">0.5</text><text fill="rgb(68,68,68)" stroke="none" font-family="helvetica" font-size="11px" font-style="normal" font-weight="normal" text-decoration="normal" x="191.691162109375" y="274" text-anchor="start" dominant-baseline="alphabetic" transform="matrix(1, 0, 0, 1, 0.5, 0.5)" fill-opacity="1">1</text><text fill="rgb(68,68,68)" stroke="none" font-family="helvetica" font-size="11px" font-style="normal" font-weight="normal" text-decoration="normal" x="232.979248046875" y="274" text-anchor="start" dominant-baseline="alphabetic" transform="matrix(1, 0, 0, 1, 0.5, 0.5)" fill-opacity="1">1.5</text><text fill="rgb(68,68,68)" stroke="none" font-family="helvetica" font-size="11px" font-style="normal" font-weight="normal" text-decoration="normal" x="283.441162109375" y="274" text-anchor="start" dominant-baseline="alphabetic" transform="matrix(1, 0, 0, 1, 0.5, 0.5)" fill-opacity="1">2</text><text fill="rgb(68,68,68)" stroke="none" font-family="helvetica" font-size="11px" font-style="normal" font-weight="normal" text-decoration="normal" x="324.729248046875" y="274" text-anchor="start" dominant-baseline="alphabetic" transform="matrix(1, 0, 0, 1, 0.5, 0.5)" fill-opacity="1">2.5</text><text fill="rgb(68,68,68)" stroke="none" font-family="helvetica" font-size="11px" font-style="normal" font-weight="normal" text-decoration="normal" x="375.191162109375" y="274" text-anchor="start" dominant-baseline="alphabetic" transform="matrix(1, 0, 0, 1, 0.5, 0.5)" fill-opacity="1">3</text><text fill="rgb(68,68,68)" stroke="none" font-family="helvetica" font-size="11px" font-style="normal" font-weight="normal" text-decoration="normal" x="416.479248046875" y="274" text-anchor="start" dominant-baseline="alphabetic" transform="matrix(1, 0, 0, 1, 0.5, 0.5)" fill-opacity="1">3.5</text><text fill="rgb(68,68,68)" stroke="none" font-family="helvetica" font-size="11px" font-style="normal" font-weight="normal" text-decoration="normal" x="466.941162109375" y="274" text-anchor="start" dominant-baseline="alphabetic" transform="matrix(1, 0, 0, 1, 0.5, 0.5)" fill-opacity="1">4</text><text fill="rgb(68,68,68)" stroke="none" font-family="helvetica" font-size="13px" font-style="italic" font-weight="normal" text-decoration="normal" x="229.41552734375" y="294" text-anchor="start" dominant-baseline="alphabetic" transform="matrix(1, 0, 0, 1, 0.5, 0.5)" fill-opacity="1">Relative PaQa level</text><path fill="none" stroke="rgb(0,0,0)" paint-order="fill" d="M 103.5 255.5 L 103.5 27.5" stroke-opacity="1" stroke-linejoin="bevel" stroke-miterlimit="10" stroke-dasharray=""/><path fill="none" stroke="rgb(0,0,0)" paint-order="fill" d="M 97.5 241.5 L 105.5 241.5 M 97.5 212.5 L 105.5 212.5 M 97.5 184.5 L 105.5 184.5 M 97.5 155.5 L 105.5 155.5 M 97.5 127.5 L 105.5 127.5 M 97.5 98.5 L 105.5 98.5 M 97.5 70.5 L 105.5 70.5 M 97.5 41.5 L 105.5 41.5" stroke-opacity="1" stroke-linejoin="bevel" stroke-miterlimit="10" stroke-dasharray=""/><text fill="rgb(68,68,68)" stroke="none" font-family="helvetica" font-size="9pt" font-style="normal" font-weight="normal" text-decoration="normal" x="3.294921875" y="244.75" text-anchor="start" dominant-baseline="alphabetic" transform="matrix(1, 0, 0, 1, 0.5, 0.5)" fill-opacity="1">ΔfliCpilBTUchpB</text><text fill="rgb(68,68,68)" stroke="none" font-family="helvetica" font-size="9pt" font-style="normal" font-weight="normal" text-decoration="normal" x="19.291015625" y="216.25" text-anchor="start" dominant-baseline="alphabetic" transform="matrix(1, 0, 0, 1, 0.5, 0.5)" fill-opacity="1">ΔfliCpilBchpB</text><text fill="rgb(68,68,68)" stroke="none" font-family="helvetica" font-size="9pt" font-style="normal" font-weight="normal" text-decoration="normal" x="46.642578125" y="187.75" text-anchor="start" dominant-baseline="alphabetic" transform="matrix(1, 0, 0, 1, 0.5, 0.5)" fill-opacity="1">ΔfliCpilB</text><text fill="rgb(68,68,68)" stroke="none" font-family="helvetica" font-size="9pt" font-style="normal" font-weight="normal" text-decoration="normal" x="39.30078125" y="159.25" text-anchor="start" dominant-baseline="alphabetic" transform="matrix(1, 0, 0, 1, 0.5, 0.5)" fill-opacity="1">ΔfliCchpB</text><text fill="rgb(68,68,68)" stroke="none" font-family="helvetica" font-size="9pt" font-style="normal" font-weight="normal" text-decoration="normal" x="46.642578125" y="130.75" text-anchor="start" dominant-baseline="alphabetic" transform="matrix(1, 0, 0, 1, 0.5, 0.5)" fill-opacity="1">ΔfliCpilK</text><text fill="rgb(68,68,68)" stroke="none" font-family="helvetica" font-size="9pt" font-style="normal" font-weight="normal" text-decoration="normal" x="46.642578125" y="102.25" text-anchor="start" dominant-baseline="alphabetic" transform="matrix(1, 0, 0, 1, 0.5, 0.5)" fill-opacity="1">ΔfliCpilA</text><text fill="rgb(68,68,68)" stroke="none" font-family="helvetica" font-size="9pt" font-style="normal" font-weight="normal" text-decoration="normal" x="43.326171875" y="73.75" text-anchor="start" dominant-baseline="alphabetic" transform="matrix(1, 0, 0, 1, 0.5, 0.5)" fill-opacity="1">WT Solid</text><text fill="rgb(68,68,68)" stroke="none" font-family="helvetica" font-size="9pt" font-style="normal" font-weight="normal" text-decoration="normal" x="37.982421875" y="45.25" text-anchor="start" dominant-baseline="alphabetic" transform="matrix(1, 0, 0, 1, 0.5, 0.5)" fill-opacity="1">WT Liquid</text><path fill="rgb(255,255,255)" stroke="rgb(229,229,229)" paint-order="fill" d="M 302.7783203125 37.5 L 460.5 37.5 L 460.5 100.5 L 302.7783203125 100.5 L 302.7783203125 37.5" fill-opacity="0.9490196078431372" clip-path="url(#wvPZFaqymtIJ)" stroke-opacity="0.5019607843137255" stroke-linejoin="bevel" stroke-miterlimit="10" stroke-dasharray=""/><g clip-path="url(#wvPZFaqymtIJ)"><text fill="rgb(68,68,68)" stroke="none" font-family="helvetica" font-size="13px" font-style="normal" font-weight="normal" text-decoration="normal" x="337.2783203125" y="57" text-anchor="start" dominant-baseline="central" transform="matrix(1, 0, 0, 1, 0.5, 0.5)" fill-opacity="1">means of replicates</text></g><path fill="rgb(211,211,211)" stroke="rgb(0,0,0)" paint-order="fill" d="M 326.7783203125 57.5 A 4 4 0 1 1 326.7783183125002 57.49600000066666" fill-opacity="1" clip-path="url(#wvPZFaqymtIJ)" stroke-opacity="1" stroke-linejoin="bevel" stroke-miterlimit="10" stroke-dasharray=""/><path fill="rgb(128,128,0)" stroke="rgb(0,0,0)" paint-order="fill" d="M 326.7783203125 57.5 A 4 4 0 1 1 326.7783183125002 57.49600000066666" fill-opacity="1" clip-path="url(#wvPZFaqymtIJ)" stroke-opacity="1" stroke-linejoin="bevel" stroke-miterlimit="10" stroke-dasharray=""/><path fill="rgb(205,133,63)" stroke="rgb(0,0,0)" paint-order="fill" d="M 326.7783203125 57.5 A 4 4 0 1 1 326.7783183125002 57.49600000066666" fill-opacity="1" clip-path="url(#wvPZFaqymtIJ)" stroke-opacity="1" stroke-linejoin="bevel" stroke-miterlimit="10" stroke-dasharray=""/><path fill="rgb(46,139,87)" stroke="rgb(0,0,0)" paint-order="fill" d="M 326.7783203125 57.5 A 4 4 0 1 1 326.7783183125002 57.49600000066666" fill-opacity="1" clip-path="url(#wvPZFaqymtIJ)" stroke-opacity="1" stroke-linejoin="bevel" stroke-miterlimit="10" stroke-dasharray=""/><path fill="rgb(143,188,143)" stroke="rgb(0,0,0)" paint-order="fill" d="M 326.7783203125 57.5 A 4 4 0 1 1 326.7783183125002 57.49600000066666" fill-opacity="1" clip-path="url(#wvPZFaqymtIJ)" stroke-opacity="1" stroke-linejoin="bevel" stroke-miterlimit="10" stroke-dasharray=""/><path fill="rgb(173,255,47)" stroke="rgb(0,0,0)" paint-order="fill" d="M 326.7783203125 57.5 A 4 4 0 1 1 326.7783183125002 57.49600000066666" fill-opacity="1" clip-path="url(#wvPZFaqymtIJ)" stroke-opacity="1" stroke-linejoin="bevel" stroke-miterlimit="10" stroke-dasharray=""/><g clip-path="url(#wvPZFaqymtIJ)"><text fill="rgb(68,68,68)" stroke="none" font-family="helvetica" font-size="13px" font-style="normal" font-weight="normal" text-decoration="normal" x="337.2783203125" y="80" text-anchor="start" dominant-baseline="central" transform="matrix(1, 0, 0, 1, 0.5, 0.5)" fill-opacity="1">Reference</text></g><path fill="none" stroke="rgb(0,0,0)" paint-order="fill" d="M 312.7783203125 80.5 L 332.7783203125 80.5" stroke-opacity="1" stroke-linejoin="bevel" stroke-miterlimit="10" stroke-dasharray="2,4" clip-path="url(#wvPZFaqymtIJ)"/><text fill="rgb(68,68,68)" stroke="none" font-family="helvetica" font-size="13px" font-style="normal" font-weight="bold" text-decoration="normal" x="103" y="19" text-anchor="start" dominant-baseline="alphabetic" transform="matrix(1, 0, 0, 1, 0.5, 0.5)" fill-opacity="1"> PaQa_ratio on Liquid</text></svg>