<svg version="1.1" xmlns="http://www.w3.org/2000/svg" xmlns:xlink="http://www.w3.org/1999/xlink" width="600" height="400" style="width: 600px; height: 400px;"><defs><clipPath id="sUwccZwGuWkc"><path fill="none" stroke="none" d=" M 142 29 L 570 29 L 570 355 L 142 355 L 142 29 Z"/></clipPath><clipPath id="VGOFVQMrWsUG"><path fill="none" stroke="none" d=" M 142 29 L 570 29 L 570 355 L 142 355 L 142 29 Z"/></clipPath><clipPath id="CuUTFKTRncdH"><path fill="none" stroke="none" d=" M 142 29 L 570 29 L 570 355 L 142 355 L 142 29 Z"/></clipPath><clipPath id="SJsTPhHcxnbw"><path fill="none" stroke="none" d=" M 142 29 L 570 29 L 570 355 L 142 355 L 142 29 Z"/></clipPath><clipPath id="EFsGerWJUkQn"><path fill="none" stroke="none" d=" M 142 29 L 570 29 L 570 355 L 142 355 L 142 29 Z"/></clipPath><clipPath id="hTudUQHsIzwV"><path fill="none" stroke="none" d=" M 142 29 L 570 29 L 570 355 L 142 355 L 142 29 Z"/></clipPath><clipPath id="iOqWcdWNEbkP"><path fill="none" stroke="none" d=" M 142 29 L 570 29 L 570 355 L 142 355 L 142 29 Z"/></clipPath><clipPath id="IXATBbzCeDBb"><path fill="none" stroke="none" d=" M 142 29 L 570 29 L 570 355 L 142 355 L 142 29 Z"/></clipPath><clipPath id="dDnztcKcnNOz"><path fill="none" stroke="none" d=" M 142 29 L 570 29 L 570 355 L 142 355 L 142 29 Z"/></clipPath><clipPath id="HEnHxgTEXRRb"><path fill="none" stroke="none" d=" M 142 29 L 570 29 L 570 355 L 142 355 L 142 29 Z"/></clipPath><clipPath id="BdCRvdTpfRWy"><path fill="none" stroke="none" d=" M 142 29 L 570 29 L 570 355 L 142 355 L 142 29 Z"/></clipPath><clipPath id="XVCerwxeQymy"><path fill="none" stroke="none" d=" M 142 29 L 570 29 L 570 355 L 142 355 L 142 29 Z"/></clipPath><clipPath id="MAxXXZqEzCXT"><path fill="none" stroke="none" d=" M 142 29 L 570 29 L 570 355 L 142 355 L 142 29 Z"/></clipPath><clipPath id="TuWGSOLtHKFL"><path fill="none" stroke="none" d=" M 142 29 L 570 29 L 570 355 L 142 355 L 142 29 Z"/></clipPath><clipPath id="mVcEigVVsrRy"><path fill="none" stroke="none" d=" M 142 29 L 570 29 L 570 355 L 142 355 L 142 29 Z"/></clipPath><clipPath id="iahiHzgJlRLT"><path fill="none" stroke="none" d=" M 142 29 L 570 29 L 570 355 L 142 355 L 142 29 Z"/></clipPath><clipPath id="NsJmJOFTQREx"><path fill="none" stroke="none" d=" M 142 29 L 570 29 L 570 355 L 142 355 L 142 29 Z"/></clipPath><clipPath id="paRwKkMXLNgE"><path fill="none" stroke="none" d=" M 142 29 L 570 29 L 570 355 L 142 355 L 142 29 Z"/></clipPath><clipPath id="pIcdIFqogTTc"><path fill="none" stroke="none" d=" M 142 29 L 570 29 L 570 355 L 142 355 L 142 29 Z"/></clipPath><clipPath id="qyporhsiyFTO"><path fill="none" stroke="none" d=" M 142 29 L 570 29 L 570 355 L 142 355 L 142 29 Z"/></clipPath><clipPath id="NKBsSdxUurlB"><path fill="none" stroke="none" d=" M 142 29 L 570 29 L 570 355 L 142 355 L 142 29 Z"/></clipPath></defs><g><g transform="scale(1,1) translate(0.5,0.5)"><rect fill="#FFFFFF" stroke="none" x="0" y="0" width="600" height="400"/><rect fill="#ffffff" stroke="none" x="0" y="0" width="600" height="400"/><rect fill="#FFFFFF" stroke="none" x="142" y="29" width="428" height="326"/><rect fill="#ffffff" stroke="none" x="142" y="29" width="428" height="326"/><g><rect fill="none" stroke="#e5e5e5" x="142" y="29" width="428" height="326" stroke-linejoin="bevel" stroke-miterlimit="10"/></g><g clip-path="url(#sUwccZwGuWkc)"><g><g/></g></g><g clip-path="url(#VGOFVQMrWsUG)"><g><g/></g></g><g clip-path="url(#CuUTFKTRncdH)"><g><g><path fill="none" stroke="none"/><path fill="#1f77b4" stroke="black" paint-order="fill stroke markers" d=" M 203.5333945691443 49.375 A 5 5 0 1 1 203.5333920691445 49.37000000083333" stroke-linejoin="bevel" stroke-miterlimit="10"/><path fill="#1f77b4" stroke="black" paint-order="fill stroke markers" d=" M 184.64002219763026 49.375 A 5 5 0 1 1 184.64001969763046 49.37000000083333" stroke-linejoin="bevel" stroke-miterlimit="10"/><path fill="#1f77b4" stroke="black" paint-order="fill stroke markers" d=" M 207.77168912876954 49.375 A 5 5 0 1 1 207.77168662876974 49.37000000083333" stroke-linejoin="bevel" stroke-miterlimit="10"/><path fill="#1f77b4" stroke="black" paint-order="fill stroke markers" d=" M 214.21623093843448 49.375 A 5 5 0 1 1 214.21622843843468 49.37000000083333" stroke-linejoin="bevel" stroke-miterlimit="10"/><path fill="#1f77b4" stroke="black" paint-order="fill stroke markers" d=" M 223.13533911320403 49.375 A 5 5 0 1 1 223.13533661320423 49.37000000083333" stroke-linejoin="bevel" stroke-miterlimit="10"/><path fill="#1f77b4" stroke="black" paint-order="fill stroke markers" d=" M 196.6328741748275 49.375 A 5 5 0 1 1 196.6328716748277 49.37000000083333" stroke-linejoin="bevel" stroke-miterlimit="10"/><path fill="#1f77b4" stroke="black" paint-order="fill stroke markers" d=" M 197.15664338657834 49.375 A 5 5 0 1 1 197.15664088657854 49.37000000083333" stroke-linejoin="bevel" stroke-miterlimit="10"/><path fill="#1f77b4" stroke="black" paint-order="fill stroke markers" d=" M 189.01505529273444 49.375 A 5 5 0 1 1 189.01505279273465 49.37000000083333" stroke-linejoin="bevel" stroke-miterlimit="10"/><path fill="#1f77b4" stroke="black" paint-order="fill stroke markers" d=" M 188.39875119867713 49.375 A 5 5 0 1 1 188.39874869867734 49.37000000083333" stroke-linejoin="bevel" stroke-miterlimit="10"/></g></g></g><g clip-path="url(#SJsTPhHcxnbw)"><g><g><path fill="none" stroke="none"/><path fill="none" stroke="black" paint-order="fill stroke markers" d=" M 195.5 57.525000000000034 L 195.5 41.224999999999966" stroke-linejoin="bevel" stroke-miterlimit="10" stroke-width="3"/></g></g></g><g clip-path="url(#EFsGerWJUkQn)"><g><g><path fill="none" stroke="none"/><path fill="#aec7e8" stroke="black" paint-order="fill stroke markers" d=" M 409.56304533315165 90.125 A 5 5 0 1 1 409.5630428331519 90.12000000083333" stroke-linejoin="bevel" stroke-miterlimit="10"/><path fill="#aec7e8" stroke="black" paint-order="fill stroke markers" d=" M 387.3293175075394 90.125 A 5 5 0 1 1 387.3293150075396 90.12000000083333" stroke-linejoin="bevel" stroke-miterlimit="10"/><path fill="#aec7e8" stroke="black" paint-order="fill stroke markers" d=" M 397.8629544684612 90.125 A 5 5 0 1 1 397.86295196846146 90.12000000083333" stroke-linejoin="bevel" stroke-miterlimit="10"/><path fill="#aec7e8" stroke="black" paint-order="fill stroke markers" d=" M 419.85932386405716 90.125 A 5 5 0 1 1 419.8593213640574 90.12000000083333" stroke-linejoin="bevel" stroke-miterlimit="10"/><path fill="#aec7e8" stroke="black" paint-order="fill stroke markers" d=" M 404.6071563155657 90.125 A 5 5 0 1 1 404.60715381556594 90.12000000083333" stroke-linejoin="bevel" stroke-miterlimit="10"/><path fill="#aec7e8" stroke="black" paint-order="fill stroke markers" d=" M 353.83640642674334 90.125 A 5 5 0 1 1 353.83640392674357 90.12000000083333" stroke-linejoin="bevel" stroke-miterlimit="10"/><path fill="#aec7e8" stroke="black" paint-order="fill stroke markers" d=" M 350.1004471842718 90.125 A 5 5 0 1 1 350.100444684272 90.12000000083333" stroke-linejoin="bevel" stroke-miterlimit="10"/><path fill="#aec7e8" stroke="black" paint-order="fill stroke markers" d=" M 365.23705617568976 90.125 A 5 5 0 1 1 365.23705367569 90.12000000083333" stroke-linejoin="bevel" stroke-miterlimit="10"/><path fill="#aec7e8" stroke="black" paint-order="fill stroke markers" d=" M 347.75811645353673 90.125 A 5 5 0 1 1 347.75811395353696 90.12000000083333" stroke-linejoin="bevel" stroke-miterlimit="10"/></g></g></g><g clip-path="url(#hTudUQHsIzwV)"><g><g><path fill="none" stroke="none"/><path fill="none" stroke="black" paint-order="fill stroke markers" d=" M 376.794869303224 98.27500000000003 L 376.794869303224 81.97499999999997" stroke-linejoin="bevel" stroke-miterlimit="10" stroke-width="3"/></g></g></g><g clip-path="url(#iOqWcdWNEbkP)"><g><g><path fill="none" stroke="none"/><path fill="#ff7f0e" stroke="black" paint-order="fill stroke markers" d=" M 280.9349641458334 130.875 A 5 5 0 1 1 280.93496164583365 130.87000000083333" stroke-linejoin="bevel" stroke-miterlimit="10"/><path fill="#ff7f0e" stroke="black" paint-order="fill stroke markers" d=" M 232.88420320921415 130.875 A 5 5 0 1 1 232.88420070921435 130.87000000083333" stroke-linejoin="bevel" stroke-miterlimit="10"/><path fill="#ff7f0e" stroke="black" paint-order="fill stroke markers" d=" M 265.1426164417122 130.875 A 5 5 0 1 1 265.14261394171245 130.87000000083333" stroke-linejoin="bevel" stroke-miterlimit="10"/></g></g></g><g clip-path="url(#IXATBbzCeDBb)"><g><g><path fill="none" stroke="none"/><path fill="none" stroke="black" paint-order="fill stroke markers" d=" M 254.65392793225328 139.025 L 254.65392793225328 122.725" stroke-linejoin="bevel" stroke-miterlimit="10" stroke-width="3"/></g></g></g><g clip-path="url(#dDnztcKcnNOz)"><g><g><path fill="none" stroke="none"/><path fill="#ffbb78" stroke="black" paint-order="fill stroke markers" d=" M 181.79186090300968 171.625 A 5 5 0 1 1 181.79185840300988 171.62000000083333" stroke-linejoin="bevel" stroke-miterlimit="10"/><path fill="#ffbb78" stroke="black" paint-order="fill stroke markers" d=" M 181.06309559303233 171.625 A 5 5 0 1 1 181.06309309303253 171.62000000083333" stroke-linejoin="bevel" stroke-miterlimit="10"/><path fill="#ffbb78" stroke="black" paint-order="fill stroke markers" d=" M 186.12672390039018 171.625 A 5 5 0 1 1 186.12672140039038 171.62000000083333" stroke-linejoin="bevel" stroke-miterlimit="10"/></g></g></g><g clip-path="url(#HEnHxgTEXRRb)"><g><g><path fill="none" stroke="none"/><path fill="none" stroke="black" paint-order="fill stroke markers" d=" M 177.9938934654774 179.775 L 177.9938934654774 163.475" stroke-linejoin="bevel" stroke-miterlimit="10" stroke-width="3"/></g></g></g><g clip-path="url(#BdCRvdTpfRWy)"><g><g><path fill="none" stroke="none"/><path fill="#2ca02c" stroke="black" paint-order="fill stroke markers" d=" M 192.72417197547267 212.375 A 5 5 0 1 1 192.72416947547288 212.37000000083333" stroke-linejoin="bevel" stroke-miterlimit="10"/><path fill="#2ca02c" stroke="black" paint-order="fill stroke markers" d=" M 180.63133072027563 212.375 A 5 5 0 1 1 180.63132822027583 212.37000000083333" stroke-linejoin="bevel" stroke-miterlimit="10"/><path fill="#2ca02c" stroke="black" paint-order="fill stroke markers" d=" M 188.79047656671412 212.375 A 5 5 0 1 1 188.79047406671432 212.37000000083333" stroke-linejoin="bevel" stroke-miterlimit="10"/></g></g></g><g clip-path="url(#XVCerwxeQymy)"><g><g><path fill="none" stroke="none"/><path fill="none" stroke="black" paint-order="fill stroke markers" d=" M 182.38199308748747 220.525 L 182.38199308748747 204.225" stroke-linejoin="bevel" stroke-miterlimit="10" stroke-width="3"/></g></g></g><g clip-path="url(#MAxXXZqEzCXT)"><g><g><path fill="none" stroke="none"/><path fill="#98df8a" stroke="black" paint-order="fill stroke markers" d=" M 208.3157647848945 253.125 A 5 5 0 1 1 208.3157622848947 253.12000000083333" stroke-linejoin="bevel" stroke-miterlimit="10"/><path fill="#98df8a" stroke="black" paint-order="fill stroke markers" d=" M 190.46495980486137 253.125 A 5 5 0 1 1 190.46495730486157 253.12000000083333" stroke-linejoin="bevel" stroke-miterlimit="10"/><path fill="#98df8a" stroke="black" paint-order="fill stroke markers" d=" M 210.2552427676813 253.125 A 5 5 0 1 1 210.2552402676815 253.12000000083333" stroke-linejoin="bevel" stroke-miterlimit="10"/></g></g></g><g clip-path="url(#TuWGSOLtHKFL)"><g><g><path fill="none" stroke="none"/><path fill="none" stroke="black" paint-order="fill stroke markers" d=" M 198.0119891191457 261.275 L 198.0119891191457 244.975" stroke-linejoin="bevel" stroke-miterlimit="10" stroke-width="3"/></g></g></g><g clip-path="url(#mVcEigVVsrRy)"><g><g><path fill="none" stroke="none"/><path fill="#d62728" stroke="black" paint-order="fill stroke markers" d=" M 216.9673286977173 293.875 A 5 5 0 1 1 216.9673261977175 293.87000000083333" stroke-linejoin="bevel" stroke-miterlimit="10"/><path fill="#d62728" stroke="black" paint-order="fill stroke markers" d=" M 182.7099294352964 293.875 A 5 5 0 1 1 182.7099269352966 293.87000000083333" stroke-linejoin="bevel" stroke-miterlimit="10"/><path fill="#d62728" stroke="black" paint-order="fill stroke markers" d=" M 214.2003459257976 293.875 A 5 5 0 1 1 214.2003434257978 293.87000000083333" stroke-linejoin="bevel" stroke-miterlimit="10"/></g></g></g><g clip-path="url(#iahiHzgJlRLT)"><g><g><path fill="none" stroke="none"/><path fill="none" stroke="black" paint-order="fill stroke markers" d=" M 199.62586801960376 302.025 L 199.62586801960376 285.725" stroke-linejoin="bevel" stroke-miterlimit="10" stroke-width="3"/></g></g></g><g clip-path="url(#NsJmJOFTQREx)"><g><g><path fill="none" stroke="none"/><path fill="#ff9896" stroke="black" paint-order="fill stroke markers" d=" M 223.04242653960623 334.625 A 5 5 0 1 1 223.04242403960643 334.62000000083333" stroke-linejoin="bevel" stroke-miterlimit="10"/><path fill="#ff9896" stroke="black" paint-order="fill stroke markers" d=" M 216.41938238005253 334.625 A 5 5 0 1 1 216.41937988005273 334.62000000083333" stroke-linejoin="bevel" stroke-miterlimit="10"/><path fill="#ff9896" stroke="black" paint-order="fill stroke markers" d=" M 237.31211996818286 334.625 A 5 5 0 1 1 237.31211746818306 334.62000000083333" stroke-linejoin="bevel" stroke-miterlimit="10"/></g></g></g><g clip-path="url(#paRwKkMXLNgE)"><g><g><path fill="none" stroke="none"/><path fill="none" stroke="black" paint-order="fill stroke markers" d=" M 220.59130962928054 342.775 L 220.59130962928054 326.475" stroke-linejoin="bevel" stroke-miterlimit="10" stroke-width="3"/></g></g></g><g clip-path="url(#pIcdIFqogTTc)"><g><g><path fill="none" stroke="none"/><path fill="none" stroke="black" paint-order="fill stroke markers" d=" M 195.5 355 L 195.5 29" stroke-linejoin="bevel" stroke-miterlimit="10" stroke-dasharray="2,4"/></g></g></g><g clip-path="url(#qyporhsiyFTO)"><g><g/><g><path fill="#ffffff" stroke="#e5e5e5" paint-order="fill stroke markers" d=" M 399.41712951660156 39 L 560 39 L 560 125 L 399.41712951660156 125 L 399.41712951660156 39 Z" fill-opacity="0.95" stroke-linejoin="bevel" stroke-miterlimit="10" stroke-opacity="0.5"/><text fill="#444444" stroke="none" font-family="helvetica" font-size="10pt" font-style="normal" font-weight="normal" text-decoration="normal" x="434.41712951660156" y="59" text-anchor="start" dominant-baseline="central">mean</text><g><path fill="none" stroke="black" paint-order="fill stroke markers" d=" M 409.41712951660156 59 L 429.41712951660156 59" stroke-linejoin="bevel" stroke-miterlimit="10" stroke-width="3"/></g><text fill="#444444" stroke="none" font-family="helvetica" font-size="10pt" font-style="normal" font-weight="normal" text-decoration="normal" x="434.41712951660156" y="82" text-anchor="start" dominant-baseline="central">means of replicates</text><path fill="#ff7f0e" stroke="black" paint-order="fill stroke markers" d=" M 423.41712951660156 82 A 4 4 0 1 1 423.41712751660174 81.99600000066667" stroke-linejoin="bevel" stroke-miterlimit="10"/><path fill="#ffbb78" stroke="black" paint-order="fill stroke markers" d=" M 423.41712951660156 82 A 4 4 0 1 1 423.41712751660174 81.99600000066667" stroke-linejoin="bevel" stroke-miterlimit="10"/><path fill="#2ca02c" stroke="black" paint-order="fill stroke markers" d=" M 423.41712951660156 82 A 4 4 0 1 1 423.41712751660174 81.99600000066667" stroke-linejoin="bevel" stroke-miterlimit="10"/><path fill="#98df8a" stroke="black" paint-order="fill stroke markers" d=" M 423.41712951660156 82 A 4 4 0 1 1 423.41712751660174 81.99600000066667" stroke-linejoin="bevel" stroke-miterlimit="10"/><path fill="#d62728" stroke="black" paint-order="fill stroke markers" d=" M 423.41712951660156 82 A 4 4 0 1 1 423.41712751660174 81.99600000066667" stroke-linejoin="bevel" stroke-miterlimit="10"/><path fill="#ff9896" stroke="black" paint-order="fill stroke markers" d=" M 423.41712951660156 82 A 4 4 0 1 1 423.41712751660174 81.99600000066667" stroke-linejoin="bevel" stroke-miterlimit="10"/><text fill="#444444" stroke="none" font-family="helvetica" font-size="10pt" font-style="normal" font-weight="normal" text-decoration="normal" x="434.41712951660156" y="105" text-anchor="start" dominant-baseline="central">Reference</text><g><path fill="none" stroke="black" paint-order="fill stroke markers" d=" M 409.41712951660156 105 L 429.41712951660156 105" stroke-linejoin="bevel" stroke-miterlimit="10" stroke-dasharray="2,4"/></g></g></g></g><g><g fill="#444444"><path fill="" stroke="none" d=""/><g transform="translate(142,24)"><path fill="none" stroke="none"/><text fill="" stroke="none" font-family="helvetica" font-size="10pt" font-style="normal" font-weight="bold" text-decoration="normal" x="0" y="0" text-anchor="start" dominant-baseline="text-after-edge"> PaQa_ratio on Liquid vs. Solid in linear scale</text></g></g></g><g/><g><g fill="#444444"><path fill="none" stroke="black" paint-order="fill stroke markers" d=" M 142 355 L 570 355" stroke-linejoin="bevel" stroke-miterlimit="10"/><path fill="none" stroke="black" paint-order="fill stroke markers" d=" M 142 361 L 142 353" stroke-linejoin="bevel" stroke-miterlimit="10"/><path fill="none" stroke="black" paint-order="fill stroke markers" d=" M 196 361 L 196 353" stroke-linejoin="bevel" stroke-miterlimit="10"/><path fill="none" stroke="black" paint-order="fill stroke markers" d=" M 249 361 L 249 353" stroke-linejoin="bevel" stroke-miterlimit="10"/><path fill="none" stroke="black" paint-order="fill stroke markers" d=" M 303 361 L 303 353" stroke-linejoin="bevel" stroke-miterlimit="10"/><path fill="none" stroke="black" paint-order="fill stroke markers" d=" M 356 361 L 356 353" stroke-linejoin="bevel" stroke-miterlimit="10"/><path fill="none" stroke="black" paint-order="fill stroke markers" d=" M 410 361 L 410 353" stroke-linejoin="bevel" stroke-miterlimit="10"/><path fill="none" stroke="black" paint-order="fill stroke markers" d=" M 463 361 L 463 353" stroke-linejoin="bevel" stroke-miterlimit="10"/><path fill="none" stroke="black" paint-order="fill stroke markers" d=" M 517 361 L 517 353" stroke-linejoin="bevel" stroke-miterlimit="10"/><path fill="none" stroke="black" paint-order="fill stroke markers" d=" M 570 361 L 570 353" stroke-linejoin="bevel" stroke-miterlimit="10"/><path fill="none" stroke="black" paint-order="fill stroke markers" d=" M 142 359 L 142 355" stroke-linejoin="bevel" stroke-miterlimit="10"/><path fill="none" stroke="black" paint-order="fill stroke markers" d=" M 153 359 L 153 355" stroke-linejoin="bevel" stroke-miterlimit="10"/><path fill="none" stroke="black" paint-order="fill stroke markers" d=" M 163 359 L 163 355" stroke-linejoin="bevel" stroke-miterlimit="10"/><path fill="none" stroke="black" paint-order="fill stroke markers" d=" M 174 359 L 174 355" stroke-linejoin="bevel" stroke-miterlimit="10"/><path fill="none" stroke="black" paint-order="fill stroke markers" d=" M 185 359 L 185 355" stroke-linejoin="bevel" stroke-miterlimit="10"/><path fill="none" stroke="black" paint-order="fill stroke markers" d=" M 196 359 L 196 355" stroke-linejoin="bevel" stroke-miterlimit="10"/><path fill="none" stroke="black" paint-order="fill stroke markers" d=" M 206 359 L 206 355" stroke-linejoin="bevel" stroke-miterlimit="10"/><path fill="none" stroke="black" paint-order="fill stroke markers" d=" M 217 359 L 217 355" stroke-linejoin="bevel" stroke-miterlimit="10"/><path fill="none" stroke="black" paint-order="fill stroke markers" d=" M 228 359 L 228 355" stroke-linejoin="bevel" stroke-miterlimit="10"/><path fill="none" stroke="black" paint-order="fill stroke markers" d=" M 238 359 L 238 355" stroke-linejoin="bevel" stroke-miterlimit="10"/><path fill="none" stroke="black" paint-order="fill stroke markers" d=" M 249 359 L 249 355" stroke-linejoin="bevel" stroke-miterlimit="10"/><path fill="none" stroke="black" paint-order="fill stroke markers" d=" M 260 359 L 260 355" stroke-linejoin="bevel" stroke-miterlimit="10"/><path fill="none" stroke="black" paint-order="fill stroke markers" d=" M 270 359 L 270 355" stroke-linejoin="bevel" stroke-miterlimit="10"/><path fill="none" stroke="black" paint-order="fill stroke markers" d=" M 281 359 L 281 355" stroke-linejoin="bevel" stroke-miterlimit="10"/><path fill="none" stroke="black" paint-order="fill stroke markers" d=" M 292 359 L 292 355" stroke-linejoin="bevel" stroke-miterlimit="10"/><path fill="none" stroke="black" paint-order="fill stroke markers" d=" M 303 359 L 303 355" stroke-linejoin="bevel" stroke-miterlimit="10"/><path fill="none" stroke="black" paint-order="fill stroke markers" d=" M 313 359 L 313 355" stroke-linejoin="bevel" stroke-miterlimit="10"/><path fill="none" stroke="black" paint-order="fill stroke markers" d=" M 324 359 L 324 355" stroke-linejoin="bevel" stroke-miterlimit="10"/><path fill="none" stroke="black" paint-order="fill stroke markers" d=" M 335 359 L 335 355" stroke-linejoin="bevel" stroke-miterlimit="10"/><path fill="none" stroke="black" paint-order="fill stroke markers" d=" M 345 359 L 345 355" stroke-linejoin="bevel" stroke-miterlimit="10"/><path fill="none" stroke="black" paint-order="fill stroke markers" d=" M 356 359 L 356 355" stroke-linejoin="bevel" stroke-miterlimit="10"/><path fill="none" stroke="black" paint-order="fill stroke markers" d=" M 367 359 L 367 355" stroke-linejoin="bevel" stroke-miterlimit="10"/><path fill="none" stroke="black" paint-order="fill stroke markers" d=" M 377 359 L 377 355" stroke-linejoin="bevel" stroke-miterlimit="10"/><path fill="none" stroke="black" paint-order="fill stroke markers" d=" M 388 359 L 388 355" stroke-linejoin="bevel" stroke-miterlimit="10"/><path fill="none" stroke="black" paint-order="fill stroke markers" d=" M 399 359 L 399 355" stroke-linejoin="bevel" stroke-miterlimit="10"/><path fill="none" stroke="black" paint-order="fill stroke markers" d=" M 410 359 L 410 355" stroke-linejoin="bevel" stroke-miterlimit="10"/><path fill="none" stroke="black" paint-order="fill stroke markers" d=" M 420 359 L 420 355" stroke-linejoin="bevel" stroke-miterlimit="10"/><path fill="none" stroke="black" paint-order="fill stroke markers" d=" M 431 359 L 431 355" stroke-linejoin="bevel" stroke-miterlimit="10"/><path fill="none" stroke="black" paint-order="fill stroke markers" d=" M 442 359 L 442 355" stroke-linejoin="bevel" stroke-miterlimit="10"/><path fill="none" stroke="black" paint-order="fill stroke markers" d=" M 452 359 L 452 355" stroke-linejoin="bevel" stroke-miterlimit="10"/><path fill="none" stroke="black" paint-order="fill stroke markers" d=" M 463 359 L 463 355" stroke-linejoin="bevel" stroke-miterlimit="10"/><path fill="none" stroke="black" paint-order="fill stroke markers" d=" M 474 359 L 474 355" stroke-linejoin="bevel" stroke-miterlimit="10"/><path fill="none" stroke="black" paint-order="fill stroke markers" d=" M 484 359 L 484 355" stroke-linejoin="bevel" stroke-miterlimit="10"/><path fill="none" stroke="black" paint-order="fill stroke markers" d=" M 495 359 L 495 355" stroke-linejoin="bevel" stroke-miterlimit="10"/><path fill="none" stroke="black" paint-order="fill stroke markers" d=" M 506 359 L 506 355" stroke-linejoin="bevel" stroke-miterlimit="10"/><path fill="none" stroke="black" paint-order="fill stroke markers" d=" M 517 359 L 517 355" stroke-linejoin="bevel" stroke-miterlimit="10"/><path fill="none" stroke="black" paint-order="fill stroke markers" d=" M 527 359 L 527 355" stroke-linejoin="bevel" stroke-miterlimit="10"/><path fill="none" stroke="black" paint-order="fill stroke markers" d=" M 538 359 L 538 355" stroke-linejoin="bevel" stroke-miterlimit="10"/><path fill="none" stroke="black" paint-order="fill stroke markers" d=" M 549 359 L 549 355" stroke-linejoin="bevel" stroke-miterlimit="10"/><path fill="none" stroke="black" paint-order="fill stroke markers" d=" M 559 359 L 559 355" stroke-linejoin="bevel" stroke-miterlimit="10"/><path fill="" stroke="black" paint-order="fill stroke markers" d=" M 570 359 L 570 355" stroke-linejoin="bevel" stroke-miterlimit="10"/><g transform="translate(142,366) rotate(0,0,0)"><text fill="" stroke="none" font-family="helvetica" font-size="8pt" font-style="normal" font-weight="normal" text-decoration="normal" x="0" y="0" text-anchor="middle" dominant-baseline="hanging">0</text><g transform="rotate(0,0,0) translate(-142,-366) translate(196,366) rotate(0,0,0)"><text fill="" stroke="none" font-family="helvetica" font-size="8pt" font-style="normal" font-weight="normal" text-decoration="normal" x="0" y="0" text-anchor="middle" dominant-baseline="hanging">1</text><g transform="rotate(0,0,0) translate(-196,-366) translate(249,366) rotate(0,0,0)"><text fill="" stroke="none" font-family="helvetica" font-size="8pt" font-style="normal" font-weight="normal" text-decoration="normal" x="0" y="0" text-anchor="middle" dominant-baseline="hanging">2</text><g transform="rotate(0,0,0) translate(-249,-366) translate(303,366) rotate(0,0,0)"><text fill="" stroke="none" font-family="helvetica" font-size="8pt" font-style="normal" font-weight="normal" text-decoration="normal" x="0" y="0" text-anchor="middle" dominant-baseline="hanging">3</text><g transform="rotate(0,0,0) translate(-303,-366) translate(356,366) rotate(0,0,0)"><text fill="" stroke="none" font-family="helvetica" font-size="8pt" font-style="normal" font-weight="normal" text-decoration="normal" x="0" y="0" text-anchor="middle" dominant-baseline="hanging">4</text><g transform="rotate(0,0,0) translate(-356,-366) translate(410,366) rotate(0,0,0)"><text fill="" stroke="none" font-family="helvetica" font-size="8pt" font-style="normal" font-weight="normal" text-decoration="normal" x="0" y="0" text-anchor="middle" dominant-baseline="hanging">5</text><g transform="rotate(0,0,0) translate(-410,-366) translate(463,366) rotate(0,0,0)"><text fill="" stroke="none" font-family="helvetica" font-size="8pt" font-style="normal" font-weight="normal" text-decoration="normal" x="0" y="0" text-anchor="middle" dominant-baseline="hanging">6</text><g transform="rotate(0,0,0) translate(-463,-366) translate(517,366) rotate(0,0,0)"><text fill="" stroke="none" font-family="helvetica" font-size="8pt" font-style="normal" font-weight="normal" text-decoration="normal" x="0" y="0" text-anchor="middle" dominant-baseline="hanging">7</text><g transform="rotate(0,0,0) translate(-517,-366) translate(570,366) rotate(0,0,0)"><text fill="" stroke="none" font-family="helvetica" font-size="8pt" font-style="normal" font-weight="normal" text-decoration="normal" x="0" y="0" text-anchor="middle" dominant-baseline="hanging">8</text><g transform="rotate(0,0,0) translate(-570,-366) translate(356,384) rotate(0,0,0)"><text fill="" stroke="none" font-family="helvetica" font-size="10pt" font-style="italic" font-weight="normal" text-decoration="normal" x="0" y="0" text-anchor="middle" dominant-baseline="hanging">Relative PaQa level</text><g transform="rotate(0,0,0) translate(-356,-384)"/></g></g></g></g></g></g></g></g></g></g></g></g><g><g fill="#444444"><path fill="none" stroke="black" paint-order="fill stroke markers" d=" M 142 355 L 142 29" stroke-linejoin="bevel" stroke-miterlimit="10"/><path fill="none" stroke="black" paint-order="fill stroke markers" d=" M 136 335 L 144 335" stroke-linejoin="bevel" stroke-miterlimit="10"/><path fill="none" stroke="black" paint-order="fill stroke markers" d=" M 136 294 L 144 294" stroke-linejoin="bevel" stroke-miterlimit="10"/><path fill="none" stroke="black" paint-order="fill stroke markers" d=" M 136 253 L 144 253" stroke-linejoin="bevel" stroke-miterlimit="10"/><path fill="none" stroke="black" paint-order="fill stroke markers" d=" M 136 212 L 144 212" stroke-linejoin="bevel" stroke-miterlimit="10"/><path fill="none" stroke="black" paint-order="fill stroke markers" d=" M 136 172 L 144 172" stroke-linejoin="bevel" stroke-miterlimit="10"/><path fill="none" stroke="black" paint-order="fill stroke markers" d=" M 136 131 L 144 131" stroke-linejoin="bevel" stroke-miterlimit="10"/><path fill="none" stroke="black" paint-order="fill stroke markers" d=" M 136 90 L 144 90" stroke-linejoin="bevel" stroke-miterlimit="10"/><path fill="" stroke="black" paint-order="fill stroke markers" d=" M 136 49 L 144 49" stroke-linejoin="bevel" stroke-miterlimit="10"/><g transform="translate(131,335) rotate(0,0,0)"><text fill="" stroke="none" font-family="helvetica" font-size="9pt" font-style="normal" font-weight="normal" text-decoration="normal" x="0" y="0" text-anchor="end" dominant-baseline="central">ΔpilT_pilA_T8V Liquid</text><g transform="rotate(0,0,0) translate(-131,-335) translate(131,294) rotate(0,0,0)"><text fill="" stroke="none" font-family="helvetica" font-size="9pt" font-style="normal" font-weight="normal" text-decoration="normal" x="0" y="0" text-anchor="end" dominant-baseline="central">ΔpilT Liquid</text><g transform="rotate(0,0,0) translate(-131,-294) translate(131,253) rotate(0,0,0)"><text fill="" stroke="none" font-family="helvetica" font-size="9pt" font-style="normal" font-weight="normal" text-decoration="normal" x="0" y="0" text-anchor="end" dominant-baseline="central">ΔpilB_pilA_T8V Liquid</text><g transform="rotate(0,0,0) translate(-131,-253) translate(131,212) rotate(0,0,0)"><text fill="" stroke="none" font-family="helvetica" font-size="9pt" font-style="normal" font-weight="normal" text-decoration="normal" x="0" y="0" text-anchor="end" dominant-baseline="central">ΔpilB Liquid</text><g transform="rotate(0,0,0) translate(-131,-212) translate(131,172) rotate(0,0,0)"><text fill="" stroke="none" font-family="helvetica" font-size="9pt" font-style="normal" font-weight="normal" text-decoration="normal" x="0" y="0" text-anchor="end" dominant-baseline="central">ΔpilA Liquid</text><g transform="rotate(0,0,0) translate(-131,-172) translate(131,131) rotate(0,0,0)"><text fill="" stroke="none" font-family="helvetica" font-size="9pt" font-style="normal" font-weight="normal" text-decoration="normal" x="0" y="0" text-anchor="end" dominant-baseline="central">pilA_T8V Liquid</text><g transform="rotate(0,0,0) translate(-131,-131) translate(131,90) rotate(0,0,0)"><text fill="" stroke="none" font-family="helvetica" font-size="9pt" font-style="normal" font-weight="normal" text-decoration="normal" x="0" y="0" text-anchor="end" dominant-baseline="central">WT Solid</text><g transform="rotate(0,0,0) translate(-131,-90) translate(131,49) rotate(0,0,0)"><text fill="" stroke="none" font-family="helvetica" font-size="9pt" font-style="normal" font-weight="normal" text-decoration="normal" x="0" y="0" text-anchor="end" dominant-baseline="central">WT Liquid</text><g transform="rotate(0,0,0) translate(-131,-49)"/></g></g></g></g></g></g></g></g></g></g><g clip-path="url(#NKBsSdxUurlB)"><g/></g></g><g/><g/><g/><g/><g/><g/><g/><g/><g/><g/><g/><g/><g/><g/><g/><g/><g/><g/><g/><g/><g/><g/><g/><g/><g/><g/><g/><g/><g/><g/><g/><g/><g/><g/><g/><g/><g/><g/><g/><g/><g/><g/><g/><g/><g/><g/><g/><g/><g/><g/><g/><g/><g/><g/><g/><g/><g/><g/><g/><g/><g/><g/><g/><g/><g/><g/><g/><g/><g/><g/><g/><g/><g/><g/><g/><g/><g/><g/><g/><g/><g/><g/><g/><g/><g/><g/><g/><g/><g/><g/><g/><g/><g/><g/><g/><g/><g/><g/><g/><g/><g/><g/><g/><g/><g/><g/><g/><g/><g/><g/><g/><g/><g/><g/><g/><g/><g/></g></svg>