<svg version="1.1" xmlns="http://www.w3.org/2000/svg" width="500" height="300"><defs><clipPath id="DqdhcImcyPzx"><path fill="none" stroke="none" d="M 95.5 27.5 L 470.5 27.5 L 470.5 255.5 L 95.5 255.5 L 95.5 27.5"/></clipPath><clipPath id="layqqCwykIEd"><path fill="none" stroke="none" d="M 95.5 27.5 L 470.5 27.5 L 470.5 255.5 L 95.5 255.5 L 95.5 27.5"/></clipPath><clipPath id="gQiIwCrHXxtK"><path fill="none" stroke="none" d="M 95.5 27.5 L 470.5 27.5 L 470.5 255.5 L 95.5 255.5 L 95.5 27.5"/></clipPath><clipPath id="EQCwgCMmiJSg"><path fill="none" stroke="none" d="M 95.5 27.5 L 470.5 27.5 L 470.5 255.5 L 95.5 255.5 L 95.5 27.5"/></clipPath><clipPath id="zwCBacNfiZPW"><path fill="none" stroke="none" d="M 95.5 27.5 L 470.5 27.5 L 470.5 255.5 L 95.5 255.5 L 95.5 27.5"/></clipPath><clipPath id="PkWWGwKItdut"><path fill="none" stroke="none" d="M 95.5 27.5 L 470.5 27.5 L 470.5 255.5 L 95.5 255.5 L 95.5 27.5"/></clipPath><clipPath id="SpwMxPyFDcxv"><path fill="none" stroke="none" d="M 95.5 27.5 L 470.5 27.5 L 470.5 255.5 L 95.5 255.5 L 95.5 27.5"/></clipPath><clipPath id="lITBCnSRMZWq"><path fill="none" stroke="none" d="M 95.5 27.5 L 470.5 27.5 L 470.5 255.5 L 95.5 255.5 L 95.5 27.5"/></clipPath><clipPath id="DIEIqshFqfvh"><path fill="none" stroke="none" d="M 95.5 27.5 L 470.5 27.5 L 470.5 255.5 L 95.5 255.5 L 95.5 27.5"/></clipPath><clipPath id="lVshuoRyyrux"><path fill="none" stroke="none" d="M 95.5 27.5 L 470.5 27.5 L 470.5 255.5 L 95.5 255.5 L 95.5 27.5"/></clipPath><clipPath id="iNyonxDTPpmB"><path fill="none" stroke="none" d="M 95.5 27.5 L 470.5 27.5 L 470.5 255.5 L 95.5 255.5 L 95.5 27.5"/></clipPath><clipPath id="sDLCBeStFAGS"><path fill="none" stroke="none" d="M 95.5 27.5 L 470.5 27.5 L 470.5 255.5 L 95.5 255.5 L 95.5 27.5"/></clipPath><clipPath id="iDhwnDatyFZP"><path fill="none" stroke="none" d="M 95.5 27.5 L 470.5 27.5 L 470.5 255.5 L 95.5 255.5 L 95.5 27.5"/></clipPath><clipPath id="DlFJoAMncMvg"><path fill="none" stroke="none" d="M 95.5 27.5 L 470.5 27.5 L 470.5 255.5 L 95.5 255.5 L 95.5 27.5"/></clipPath><clipPath id="LzLqhHFKnzHa"><path fill="none" stroke="none" d="M 95.5 27.5 L 470.5 27.5 L 470.5 255.5 L 95.5 255.5 L 95.5 27.5"/></clipPath><clipPath id="ROOBLiEZuJxq"><path fill="none" stroke="none" d="M 95.5 27.5 L 470.5 27.5 L 470.5 255.5 L 95.5 255.5 L 95.5 27.5"/></clipPath><clipPath id="ktTuJWgDVbAb"><path fill="none" stroke="none" d="M 95.5 27.5 L 470.5 27.5 L 470.5 255.5 L 95.5 255.5 L 95.5 27.5"/></clipPath><clipPath id="pGEbeCVciPLu"><path fill="none" stroke="none" d="M 95.5 27.5 L 470.5 27.5 L 470.5 255.5 L 95.5 255.5 L 95.5 27.5"/></clipPath><clipPath id="ZueZQuMAsJkc"><path fill="none" stroke="none" d="M 95.5 27.5 L 470.5 27.5 L 470.5 255.5 L 95.5 255.5 L 95.5 27.5"/></clipPath><clipPath id="huVSKOIaExON"><path fill="none" stroke="none" d="M 95.5 27.5 L 470.5 27.5 L 470.5 255.5 L 95.5 255.5 L 95.5 27.5"/></clipPath><clipPath id="ZhJgKfXilaMM"><path fill="none" stroke="none" d="M 95.5 27.5 L 470.5 27.5 L 470.5 255.5 L 95.5 255.5 L 95.5 27.5"/></clipPath></defs><path fill="rgb(255,255,255)" stroke="none" paint-order="stroke" d="M 0.5 0.5 L 500.5 0.5 L 500.5 300.5 L 0.5 300.5 L 0.5 0.5" fill-opacity="1"/><rect fill="#FFFFFF" stroke="none" x="95" y="27" width="375" height="228" transform="matrix(1, 0, 0, 1, 0.5, 0.5)"/><path fill="rgb(255,255,255)" stroke="none" paint-order="stroke" d="M 95.5 27.5 L 470.5 27.5 L 470.5 255.5 L 95.5 255.5 L 95.5 27.5" fill-opacity="1"/><path fill="none" stroke="rgb(229,229,229)" paint-order="fill" d="M 95.5 27.5 L 470.5 27.5 L 470.5 255.5 L 95.5 255.5 L 95.5 27.5" stroke-opacity="1" stroke-linejoin="bevel" stroke-miterlimit="10" stroke-dasharray=""/><path fill="rgb(128,128,128)" stroke="rgb(0,0,0)" paint-order="fill" d="M 209.34445190429688 41.75 A 5 5 0 1 1 209.34444940429708 41.74500000083333" fill-opacity="1" clip-path="url(#gQiIwCrHXxtK)" stroke-opacity="1" stroke-linejoin="bevel" stroke-miterlimit="10" stroke-dasharray=""/><path fill="rgb(128,128,128)" stroke="rgb(0,0,0)" paint-order="fill" d="M 185.55650329589844 41.75 A 5 5 0 1 1 185.55650079589864 41.74500000083333" fill-opacity="1" clip-path="url(#gQiIwCrHXxtK)" stroke-opacity="1" stroke-linejoin="bevel" stroke-miterlimit="10" stroke-dasharray=""/><path fill="rgb(128,128,128)" stroke="rgb(0,0,0)" paint-order="fill" d="M 187.8490447998047 41.75 A 5 5 0 1 1 187.8490422998049 41.74500000083333" fill-opacity="1" clip-path="url(#gQiIwCrHXxtK)" stroke-opacity="1" stroke-linejoin="bevel" stroke-miterlimit="10" stroke-dasharray=""/><path fill="rgb(169,169,169)" stroke="rgb(0,0,0)" paint-order="fill" d="M 301.46148681640625 70.25 A 5 5 0 1 1 301.4614843164065 70.24500000083333" fill-opacity="1" clip-path="url(#EQCwgCMmiJSg)" stroke-opacity="1" stroke-linejoin="bevel" stroke-miterlimit="10" stroke-dasharray=""/><path fill="rgb(169,169,169)" stroke="rgb(0,0,0)" paint-order="fill" d="M 291.92828369140625 70.25 A 5 5 0 1 1 291.9282811914065 70.24500000083333" fill-opacity="1" clip-path="url(#EQCwgCMmiJSg)" stroke-opacity="1" stroke-linejoin="bevel" stroke-miterlimit="10" stroke-dasharray=""/><path fill="rgb(169,169,169)" stroke="rgb(0,0,0)" paint-order="fill" d="M 384.2412414550781 70.25 A 5 5 0 1 1 384.24123895507836 70.24500000083333" fill-opacity="1" clip-path="url(#EQCwgCMmiJSg)" stroke-opacity="1" stroke-linejoin="bevel" stroke-miterlimit="10" stroke-dasharray=""/><path fill="none" stroke="rgb(0,0,0)" paint-order="fill" d="M 189.25 50.30000686645508 L 189.25 33.19999313354492" stroke-opacity="1" stroke-linejoin="bevel" stroke-miterlimit="10" stroke-width="3" stroke-dasharray="" clip-path="url(#zwCBacNfiZPW)"/><path fill="none" stroke="rgb(0,0,0)" paint-order="fill" d="M 320.87701416015625 78.80000305175781 L 320.87701416015625 61.69999313354492" stroke-opacity="1" stroke-linejoin="bevel" stroke-miterlimit="10" stroke-width="3" stroke-dasharray="" clip-path="url(#PkWWGwKItdut)"/><path fill="rgb(211,211,211)" stroke="rgb(0,0,0)" paint-order="fill" d="M 145.5017547607422 98.75 A 5 5 0 1 1 145.5017522607424 98.74500000083333" fill-opacity="1" clip-path="url(#SpwMxPyFDcxv)" stroke-opacity="1" stroke-linejoin="bevel" stroke-miterlimit="10" stroke-dasharray=""/><path fill="rgb(211,211,211)" stroke="rgb(0,0,0)" paint-order="fill" d="M 137.10653686523438 98.75 A 5 5 0 1 1 137.10653436523458 98.74500000083333" fill-opacity="1" clip-path="url(#SpwMxPyFDcxv)" stroke-opacity="1" stroke-linejoin="bevel" stroke-miterlimit="10" stroke-dasharray=""/><path fill="none" stroke="rgb(0,0,0)" paint-order="fill" d="M 136.30413818359375 107.30000305175781 L 136.30413818359375 90.19999694824219" stroke-opacity="1" stroke-linejoin="bevel" stroke-miterlimit="10" stroke-width="3" stroke-dasharray="" clip-path="url(#lITBCnSRMZWq)"/><path fill="rgb(128,128,0)" stroke="rgb(0,0,0)" paint-order="fill" d="M 160.03207397460938 127.25 A 5 5 0 1 1 160.03207147460958 127.24500000083333" fill-opacity="1" clip-path="url(#DIEIqshFqfvh)" stroke-opacity="1" stroke-linejoin="bevel" stroke-miterlimit="10" stroke-dasharray=""/><path fill="none" stroke="rgb(0,0,0)" paint-order="fill" d="M 155.03207397460938 135.8000030517578 L 155.03207397460938 118.69999694824219" stroke-opacity="1" stroke-linejoin="bevel" stroke-miterlimit="10" stroke-width="3" stroke-dasharray="" clip-path="url(#lVshuoRyyrux)"/><path fill="rgb(205,133,63)" stroke="rgb(0,0,0)" paint-order="fill" d="M 336.6200866699219 155.75 A 5 5 0 1 1 336.6200841699221 155.74500000083333" fill-opacity="1" clip-path="url(#iNyonxDTPpmB)" stroke-opacity="1" stroke-linejoin="bevel" stroke-miterlimit="10" stroke-dasharray=""/><path fill="rgb(205,133,63)" stroke="rgb(0,0,0)" paint-order="fill" d="M 354.0997314453125 155.75 A 5 5 0 1 1 354.09972894531273 155.74500000083333" fill-opacity="1" clip-path="url(#iNyonxDTPpmB)" stroke-opacity="1" stroke-linejoin="bevel" stroke-miterlimit="10" stroke-dasharray=""/><path fill="none" stroke="rgb(0,0,0)" paint-order="fill" d="M 340.3598937988281 164.3000030517578 L 340.3598937988281 147.1999969482422" stroke-opacity="1" stroke-linejoin="bevel" stroke-miterlimit="10" stroke-width="3" stroke-dasharray="" clip-path="url(#sDLCBeStFAGS)"/><path fill="rgb(255,127,80)" stroke="rgb(0,0,0)" paint-order="fill" d="M 167.13528442382812 184.25 A 5 5 0 1 1 167.13528192382833 184.24500000083333" fill-opacity="1" clip-path="url(#iDhwnDatyFZP)" stroke-opacity="1" stroke-linejoin="bevel" stroke-miterlimit="10" stroke-dasharray=""/><path fill="rgb(255,127,80)" stroke="rgb(0,0,0)" paint-order="fill" d="M 152.7183074951172 184.25 A 5 5 0 1 1 152.7183049951174 184.24500000083333" fill-opacity="1" clip-path="url(#iDhwnDatyFZP)" stroke-opacity="1" stroke-linejoin="bevel" stroke-miterlimit="10" stroke-dasharray=""/><path fill="rgb(255,127,80)" stroke="rgb(0,0,0)" paint-order="fill" d="M 160.20924377441406 184.25 A 5 5 0 1 1 160.20924127441427 184.24500000083333" fill-opacity="1" clip-path="url(#iDhwnDatyFZP)" stroke-opacity="1" stroke-linejoin="bevel" stroke-miterlimit="10" stroke-dasharray=""/><path fill="none" stroke="rgb(0,0,0)" paint-order="fill" d="M 155.0209503173828 192.8000030517578 L 155.0209503173828 175.6999969482422" stroke-opacity="1" stroke-linejoin="bevel" stroke-miterlimit="10" stroke-width="3" stroke-dasharray="" clip-path="url(#DlFJoAMncMvg)"/><path fill="rgb(250,128,114)" stroke="rgb(0,0,0)" paint-order="fill" d="M 257.03582763671875 212.75 A 5 5 0 1 1 257.035825136719 212.74500000083333" fill-opacity="1" clip-path="url(#LzLqhHFKnzHa)" stroke-opacity="1" stroke-linejoin="bevel" stroke-miterlimit="10" stroke-dasharray=""/><path fill="rgb(250,128,114)" stroke="rgb(0,0,0)" paint-order="fill" d="M 222.16842651367188 212.75 A 5 5 0 1 1 222.16842401367208 212.74500000083333" fill-opacity="1" clip-path="url(#LzLqhHFKnzHa)" stroke-opacity="1" stroke-linejoin="bevel" stroke-miterlimit="10" stroke-dasharray=""/><path fill="none" stroke="rgb(0,0,0)" paint-order="fill" d="M 234.6021270751953 221.3000030517578 L 234.6021270751953 204.1999969482422" stroke-opacity="1" stroke-linejoin="bevel" stroke-miterlimit="10" stroke-width="3" stroke-dasharray="" clip-path="url(#ROOBLiEZuJxq)"/><path fill="rgb(178,34,34)" stroke="rgb(0,0,0)" paint-order="fill" d="M 279.83197021484375 241.25 A 5 5 0 1 1 279.831967714844 241.24500000083333" fill-opacity="1" clip-path="url(#ktTuJWgDVbAb)" stroke-opacity="1" stroke-linejoin="bevel" stroke-miterlimit="10" stroke-dasharray=""/><path fill="rgb(178,34,34)" stroke="rgb(0,0,0)" paint-order="fill" d="M 234.6446533203125 241.25 A 5 5 0 1 1 234.6446508203127 241.24500000083333" fill-opacity="1" clip-path="url(#ktTuJWgDVbAb)" stroke-opacity="1" stroke-linejoin="bevel" stroke-miterlimit="10" stroke-dasharray=""/><path fill="none" stroke="rgb(0,0,0)" paint-order="fill" d="M 252.23829650878906 249.8000030517578 L 252.23829650878906 232.6999969482422" stroke-opacity="1" stroke-linejoin="bevel" stroke-miterlimit="10" stroke-width="3" stroke-dasharray="" clip-path="url(#pGEbeCVciPLu)"/><path fill="none" stroke="rgb(0,0,0)" paint-order="fill" d="M 189.25 255.5 L 189.25 27.5" stroke-opacity="1" stroke-linejoin="bevel" stroke-miterlimit="10" stroke-dasharray="2,4" clip-path="url(#ZueZQuMAsJkc)"/><path fill="none" stroke="rgb(0,0,0)" paint-order="fill" d="M 95.5 255.5 L 470.5 255.5" stroke-opacity="1" stroke-linejoin="bevel" stroke-miterlimit="10" stroke-dasharray=""/><path fill="none" stroke="rgb(0,0,0)" paint-order="fill" d="M 95.5 261.5 L 95.5 253.5 M 142.5 261.5 L 142.5 253.5 M 189.5 261.5 L 189.5 253.5 M 236.5 261.5 L 236.5 253.5 M 283.5 261.5 L 283.5 253.5 M 329.5 261.5 L 329.5 253.5 M 376.5 261.5 L 376.5 253.5 M 423.5 261.5 L 423.5 253.5 M 470.5 261.5 L 470.5 253.5" stroke-opacity="1" stroke-linejoin="bevel" stroke-miterlimit="10" stroke-dasharray=""/><path fill="none" stroke="rgb(0,0,0)" paint-order="fill" d="M 95.5 259.5 L 95.5 255.5 M 104.5 259.5 L 104.5 255.5 M 114.5 259.5 L 114.5 255.5 M 123.5 259.5 L 123.5 255.5 M 133.5 259.5 L 133.5 255.5 M 142.5 259.5 L 142.5 255.5 M 151.5 259.5 L 151.5 255.5 M 161.5 259.5 L 161.5 255.5 M 170.5 259.5 L 170.5 255.5 M 179.5 259.5 L 179.5 255.5 M 189.5 259.5 L 189.5 255.5 M 198.5 259.5 L 198.5 255.5 M 208.5 259.5 L 208.5 255.5 M 217.5 259.5 L 217.5 255.5 M 226.5 259.5 L 226.5 255.5 M 236.5 259.5 L 236.5 255.5 M 245.5 259.5 L 245.5 255.5 M 254.5 259.5 L 254.5 255.5 M 264.5 259.5 L 264.5 255.5 M 273.5 259.5 L 273.5 255.5 M 283.5 259.5 L 283.5 255.5 M 292.5 259.5 L 292.5 255.5 M 301.5 259.5 L 301.5 255.5 M 311.5 259.5 L 311.5 255.5 M 320.5 259.5 L 320.5 255.5 M 329.5 259.5 L 329.5 255.5 M 339.5 259.5 L 339.5 255.5 M 348.5 259.5 L 348.5 255.5 M 358.5 259.5 L 358.5 255.5 M 367.5 259.5 L 367.5 255.5 M 376.5 259.5 L 376.5 255.5 M 386.5 259.5 L 386.5 255.5 M 395.5 259.5 L 395.5 255.5 M 404.5 259.5 L 404.5 255.5 M 414.5 259.5 L 414.5 255.5 M 423.5 259.5 L 423.5 255.5 M 433.5 259.5 L 433.5 255.5 M 442.5 259.5 L 442.5 255.5 M 451.5 259.5 L 451.5 255.5 M 461.5 259.5 L 461.5 255.5 M 470.5 259.5 L 470.5 255.5" stroke-opacity="1" stroke-linejoin="bevel" stroke-miterlimit="10" stroke-dasharray=""/><text fill="rgb(68,68,68)" stroke="none" font-family="helvetica" font-size="11px" font-style="normal" font-weight="normal" text-decoration="normal" x="91.941162109375" y="274" text-anchor="start" dominant-baseline="alphabetic" transform="matrix(1, 0, 0, 1, 0.5, 0.5)" fill-opacity="1">0</text><text fill="rgb(68,68,68)" stroke="none" font-family="helvetica" font-size="11px" font-style="normal" font-weight="normal" text-decoration="normal" x="134.229248046875" y="274" text-anchor="start" dominant-baseline="alphabetic" transform="matrix(1, 0, 0, 1, 0.5, 0.5)" fill-opacity="1">0.5</text><text fill="rgb(68,68,68)" stroke="none" font-family="helvetica" font-size="11px" font-style="normal" font-weight="normal" text-decoration="normal" x="185.691162109375" y="274" text-anchor="start" dominant-baseline="alphabetic" transform="matrix(1, 0, 0, 1, 0.5, 0.5)" fill-opacity="1">1</text><text fill="rgb(68,68,68)" stroke="none" font-family="helvetica" font-size="11px" font-style="normal" font-weight="normal" text-decoration="normal" x="227.979248046875" y="274" text-anchor="start" dominant-baseline="alphabetic" transform="matrix(1, 0, 0, 1, 0.5, 0.5)" fill-opacity="1">1.5</text><text fill="rgb(68,68,68)" stroke="none" font-family="helvetica" font-size="11px" font-style="normal" font-weight="normal" text-decoration="normal" x="279.441162109375" y="274" text-anchor="start" dominant-baseline="alphabetic" transform="matrix(1, 0, 0, 1, 0.5, 0.5)" fill-opacity="1">2</text><text fill="rgb(68,68,68)" stroke="none" font-family="helvetica" font-size="11px" font-style="normal" font-weight="normal" text-decoration="normal" x="321.729248046875" y="274" text-anchor="start" dominant-baseline="alphabetic" transform="matrix(1, 0, 0, 1, 0.5, 0.5)" fill-opacity="1">2.5</text><text fill="rgb(68,68,68)" stroke="none" font-family="helvetica" font-size="11px" font-style="normal" font-weight="normal" text-decoration="normal" x="373.191162109375" y="274" text-anchor="start" dominant-baseline="alphabetic" transform="matrix(1, 0, 0, 1, 0.5, 0.5)" fill-opacity="1">3</text><text fill="rgb(68,68,68)" stroke="none" font-family="helvetica" font-size="11px" font-style="normal" font-weight="normal" text-decoration="normal" x="415.479248046875" y="274" text-anchor="start" dominant-baseline="alphabetic" transform="matrix(1, 0, 0, 1, 0.5, 0.5)" fill-opacity="1">3.5</text><text fill="rgb(68,68,68)" stroke="none" font-family="helvetica" font-size="11px" font-style="normal" font-weight="normal" text-decoration="normal" x="466.941162109375" y="274" text-anchor="start" dominant-baseline="alphabetic" transform="matrix(1, 0, 0, 1, 0.5, 0.5)" fill-opacity="1">4</text><text fill="rgb(68,68,68)" stroke="none" font-family="helvetica" font-size="13px" font-style="italic" font-weight="normal" text-decoration="normal" x="225.41552734375" y="294" text-anchor="start" dominant-baseline="alphabetic" transform="matrix(1, 0, 0, 1, 0.5, 0.5)" fill-opacity="1">Relative PaQa level</text><path fill="none" stroke="rgb(0,0,0)" paint-order="fill" d="M 95.5 255.5 L 95.5 27.5" stroke-opacity="1" stroke-linejoin="bevel" stroke-miterlimit="10" stroke-dasharray=""/><path fill="none" stroke="rgb(0,0,0)" paint-order="fill" d="M 89.5 241.5 L 97.5 241.5 M 89.5 212.5 L 97.5 212.5 M 89.5 184.5 L 97.5 184.5 M 89.5 155.5 L 97.5 155.5 M 89.5 127.5 L 97.5 127.5 M 89.5 98.5 L 97.5 98.5 M 89.5 70.5 L 97.5 70.5 M 89.5 41.5 L 97.5 41.5" stroke-opacity="1" stroke-linejoin="bevel" stroke-miterlimit="10" stroke-dasharray=""/><text fill="rgb(68,68,68)" stroke="none" font-family="helvetica" font-size="9pt" font-style="normal" font-weight="normal" text-decoration="normal" x="3.298828125" y="244.75" text-anchor="start" dominant-baseline="alphabetic" transform="matrix(1, 0, 0, 1, 0.5, 0.5)" fill-opacity="1">ΔfliCpilTUchpB</text><text fill="rgb(68,68,68)" stroke="none" font-family="helvetica" font-size="9pt" font-style="normal" font-weight="normal" text-decoration="normal" x="13.294921875" y="216.25" text-anchor="start" dominant-baseline="alphabetic" transform="matrix(1, 0, 0, 1, 0.5, 0.5)" fill-opacity="1">ΔfliCpilTchpB</text><text fill="rgb(68,68,68)" stroke="none" font-family="helvetica" font-size="9pt" font-style="normal" font-weight="normal" text-decoration="normal" x="39.31640625" y="187.75" text-anchor="start" dominant-baseline="alphabetic" transform="matrix(1, 0, 0, 1, 0.5, 0.5)" fill-opacity="1">ΔfliCpilT</text><text fill="rgb(68,68,68)" stroke="none" font-family="helvetica" font-size="9pt" font-style="normal" font-weight="normal" text-decoration="normal" x="31.30078125" y="159.25" text-anchor="start" dominant-baseline="alphabetic" transform="matrix(1, 0, 0, 1, 0.5, 0.5)" fill-opacity="1">ΔfliCchpB</text><text fill="rgb(68,68,68)" stroke="none" font-family="helvetica" font-size="9pt" font-style="normal" font-weight="normal" text-decoration="normal" x="38.642578125" y="130.75" text-anchor="start" dominant-baseline="alphabetic" transform="matrix(1, 0, 0, 1, 0.5, 0.5)" fill-opacity="1">ΔfliCpilK</text><text fill="rgb(68,68,68)" stroke="none" font-family="helvetica" font-size="9pt" font-style="normal" font-weight="normal" text-decoration="normal" x="38.642578125" y="102.25" text-anchor="start" dominant-baseline="alphabetic" transform="matrix(1, 0, 0, 1, 0.5, 0.5)" fill-opacity="1">ΔfliCpilA</text><text fill="rgb(68,68,68)" stroke="none" font-family="helvetica" font-size="9pt" font-style="normal" font-weight="normal" text-decoration="normal" x="35.326171875" y="73.75" text-anchor="start" dominant-baseline="alphabetic" transform="matrix(1, 0, 0, 1, 0.5, 0.5)" fill-opacity="1">WT Solid</text><text fill="rgb(68,68,68)" stroke="none" font-family="helvetica" font-size="9pt" font-style="normal" font-weight="normal" text-decoration="normal" x="29.982421875" y="45.25" text-anchor="start" dominant-baseline="alphabetic" transform="matrix(1, 0, 0, 1, 0.5, 0.5)" fill-opacity="1">WT Liquid</text><path fill="rgb(255,255,255)" stroke="rgb(229,229,229)" paint-order="fill" d="M 302.7783203125 37.5 L 460.5 37.5 L 460.5 100.5 L 302.7783203125 100.5 L 302.7783203125 37.5" fill-opacity="0.9490196078431372" clip-path="url(#huVSKOIaExON)" stroke-opacity="0.5019607843137255" stroke-linejoin="bevel" stroke-miterlimit="10" stroke-dasharray=""/><g clip-path="url(#huVSKOIaExON)"><text fill="rgb(68,68,68)" stroke="none" font-family="helvetica" font-size="13px" font-style="normal" font-weight="normal" text-decoration="normal" x="337.2783203125" y="57" text-anchor="start" dominant-baseline="central" transform="matrix(1, 0, 0, 1, 0.5, 0.5)" fill-opacity="1">means of replicates</text></g><path fill="rgb(211,211,211)" stroke="rgb(0,0,0)" paint-order="fill" d="M 326.7783203125 57.5 A 4 4 0 1 1 326.7783183125002 57.49600000066666" fill-opacity="1" clip-path="url(#huVSKOIaExON)" stroke-opacity="1" stroke-linejoin="bevel" stroke-miterlimit="10" stroke-dasharray=""/><path fill="rgb(128,128,0)" stroke="rgb(0,0,0)" paint-order="fill" d="M 326.7783203125 57.5 A 4 4 0 1 1 326.7783183125002 57.49600000066666" fill-opacity="1" clip-path="url(#huVSKOIaExON)" stroke-opacity="1" stroke-linejoin="bevel" stroke-miterlimit="10" stroke-dasharray=""/><path fill="rgb(205,133,63)" stroke="rgb(0,0,0)" paint-order="fill" d="M 326.7783203125 57.5 A 4 4 0 1 1 326.7783183125002 57.49600000066666" fill-opacity="1" clip-path="url(#huVSKOIaExON)" stroke-opacity="1" stroke-linejoin="bevel" stroke-miterlimit="10" stroke-dasharray=""/><path fill="rgb(255,127,80)" stroke="rgb(0,0,0)" paint-order="fill" d="M 326.7783203125 57.5 A 4 4 0 1 1 326.7783183125002 57.49600000066666" fill-opacity="1" clip-path="url(#huVSKOIaExON)" stroke-opacity="1" stroke-linejoin="bevel" stroke-miterlimit="10" stroke-dasharray=""/><path fill="rgb(250,128,114)" stroke="rgb(0,0,0)" paint-order="fill" d="M 326.7783203125 57.5 A 4 4 0 1 1 326.7783183125002 57.49600000066666" fill-opacity="1" clip-path="url(#huVSKOIaExON)" stroke-opacity="1" stroke-linejoin="bevel" stroke-miterlimit="10" stroke-dasharray=""/><path fill="rgb(178,34,34)" stroke="rgb(0,0,0)" paint-order="fill" d="M 326.7783203125 57.5 A 4 4 0 1 1 326.7783183125002 57.49600000066666" fill-opacity="1" clip-path="url(#huVSKOIaExON)" stroke-opacity="1" stroke-linejoin="bevel" stroke-miterlimit="10" stroke-dasharray=""/><g clip-path="url(#huVSKOIaExON)"><text fill="rgb(68,68,68)" stroke="none" font-family="helvetica" font-size="13px" font-style="normal" font-weight="normal" text-decoration="normal" x="337.2783203125" y="80" text-anchor="start" dominant-baseline="central" transform="matrix(1, 0, 0, 1, 0.5, 0.5)" fill-opacity="1">Reference</text></g><path fill="none" stroke="rgb(0,0,0)" paint-order="fill" d="M 312.7783203125 80.5 L 332.7783203125 80.5" stroke-opacity="1" stroke-linejoin="bevel" stroke-miterlimit="10" stroke-dasharray="2,4" clip-path="url(#huVSKOIaExON)"/><text fill="rgb(68,68,68)" stroke="none" font-family="helvetica" font-size="13px" font-style="normal" font-weight="bold" text-decoration="normal" x="95" y="19" text-anchor="start" dominant-baseline="alphabetic" transform="matrix(1, 0, 0, 1, 0.5, 0.5)" fill-opacity="1"> PaQa_ratio on Liquid</text></svg>