<svg version="1.1" xmlns="http://www.w3.org/2000/svg" xmlns:xlink="http://www.w3.org/1999/xlink" width="600" height="400" style="width: 600px; height: 400px;"><defs><clipPath id="aTBoyBXzueVI"><path fill="none" stroke="none" d=" M 139 29 L 570 29 L 570 355 L 139 355 L 139 29 Z"/></clipPath><clipPath id="UCUpJWfSaXoT"><path fill="none" stroke="none" d=" M 139 29 L 570 29 L 570 355 L 139 355 L 139 29 Z"/></clipPath><clipPath id="TafrUvlBUTkw"><path fill="none" stroke="none" d=" M 139 29 L 570 29 L 570 355 L 139 355 L 139 29 Z"/></clipPath><clipPath id="xMhqhGKlKJCd"><path fill="none" stroke="none" d=" M 139 29 L 570 29 L 570 355 L 139 355 L 139 29 Z"/></clipPath><clipPath id="BJTVaboATyXP"><path fill="none" stroke="none" d=" M 139 29 L 570 29 L 570 355 L 139 355 L 139 29 Z"/></clipPath><clipPath id="DXhHgLTCegpv"><path fill="none" stroke="none" d=" M 139 29 L 570 29 L 570 355 L 139 355 L 139 29 Z"/></clipPath><clipPath id="yCHwVJdorTvl"><path fill="none" stroke="none" d=" M 139 29 L 570 29 L 570 355 L 139 355 L 139 29 Z"/></clipPath><clipPath id="ynmcWmTPGAEu"><path fill="none" stroke="none" d=" M 139 29 L 570 29 L 570 355 L 139 355 L 139 29 Z"/></clipPath><clipPath id="fNGoKGWnRUlT"><path fill="none" stroke="none" d=" M 139 29 L 570 29 L 570 355 L 139 355 L 139 29 Z"/></clipPath><clipPath id="xMXaLpAOSZBt"><path fill="none" stroke="none" d=" M 139 29 L 570 29 L 570 355 L 139 355 L 139 29 Z"/></clipPath><clipPath id="vFPuFqwinpMM"><path fill="none" stroke="none" d=" M 139 29 L 570 29 L 570 355 L 139 355 L 139 29 Z"/></clipPath><clipPath id="EfhbndJXQlwI"><path fill="none" stroke="none" d=" M 139 29 L 570 29 L 570 355 L 139 355 L 139 29 Z"/></clipPath><clipPath id="IubeTUyToZXV"><path fill="none" stroke="none" d=" M 139 29 L 570 29 L 570 355 L 139 355 L 139 29 Z"/></clipPath><clipPath id="TlwOJKTiiyhn"><path fill="none" stroke="none" d=" M 139 29 L 570 29 L 570 355 L 139 355 L 139 29 Z"/></clipPath><clipPath id="KkbTRWomyMJx"><path fill="none" stroke="none" d=" M 139 29 L 570 29 L 570 355 L 139 355 L 139 29 Z"/></clipPath><clipPath id="yEolAQvRmXyI"><path fill="none" stroke="none" d=" M 139 29 L 570 29 L 570 355 L 139 355 L 139 29 Z"/></clipPath><clipPath id="wJsKIxKdglTt"><path fill="none" stroke="none" d=" M 139 29 L 570 29 L 570 355 L 139 355 L 139 29 Z"/></clipPath></defs><g><g transform="scale(1,1) translate(0.5,0.5)"><rect fill="#FFFFFF" stroke="none" x="0" y="0" width="600" height="400"/><rect fill="#ffffff" stroke="none" x="0" y="0" width="600" height="400"/><rect fill="#FFFFFF" stroke="none" x="139" y="29" width="431" height="326"/><rect fill="#ffffff" stroke="none" x="139" y="29" width="431" height="326"/><g><rect fill="none" stroke="#e5e5e5" x="139" y="29" width="431" height="326" stroke-linejoin="bevel" stroke-miterlimit="10"/></g><g clip-path="url(#aTBoyBXzueVI)"><g><g/></g></g><g clip-path="url(#UCUpJWfSaXoT)"><g><g/></g></g><g clip-path="url(#TafrUvlBUTkw)"><g><g><path fill="none" stroke="none"/><path fill="#1f77b4" stroke="black" paint-order="fill stroke markers" d=" M 200.92965668061026 56.16666666666663 A 5 5 0 1 1 200.92965418061047 56.16166666749996" stroke-linejoin="bevel" stroke-miterlimit="10"/><path fill="#1f77b4" stroke="black" paint-order="fill stroke markers" d=" M 181.90385412892206 56.16666666666663 A 5 5 0 1 1 181.90385162892227 56.16166666749996" stroke-linejoin="bevel" stroke-miterlimit="10"/><path fill="#1f77b4" stroke="black" paint-order="fill stroke markers" d=" M 205.1976589123824 56.16666666666663 A 5 5 0 1 1 205.1976564123826 56.16166666749996" stroke-linejoin="bevel" stroke-miterlimit="10"/><path fill="#1f77b4" stroke="black" paint-order="fill stroke markers" d=" M 211.68737274407772 56.16666666666663 A 5 5 0 1 1 211.68737024407793 56.16166666749996" stroke-linejoin="bevel" stroke-miterlimit="10"/><path fill="#1f77b4" stroke="black" paint-order="fill stroke markers" d=" M 220.66899803222182 56.16666666666663 A 5 5 0 1 1 220.66899553222203 56.16166666749996" stroke-linejoin="bevel" stroke-miterlimit="10"/><path fill="#1f77b4" stroke="black" paint-order="fill stroke markers" d=" M 193.98076815268843 56.16666666666663 A 5 5 0 1 1 193.98076565268863 56.16166666749996" stroke-linejoin="bevel" stroke-miterlimit="10"/><path fill="#1f77b4" stroke="black" paint-order="fill stroke markers" d=" M 194.5082086439609 56.16666666666663 A 5 5 0 1 1 194.5082061439611 56.16166666749996" stroke-linejoin="bevel" stroke-miterlimit="10"/><path fill="#1f77b4" stroke="black" paint-order="fill stroke markers" d=" M 186.30955334385175 56.16666666666663 A 5 5 0 1 1 186.30955084385195 56.16166666749996" stroke-linejoin="bevel" stroke-miterlimit="10"/><path fill="#1f77b4" stroke="black" paint-order="fill stroke markers" d=" M 185.6889293612847 56.16666666666663 A 5 5 0 1 1 185.6889268612849 56.16166666749996" stroke-linejoin="bevel" stroke-miterlimit="10"/></g></g></g><g clip-path="url(#xMhqhGKlKJCd)"><g><g><path fill="none" stroke="none"/><path fill="none" stroke="black" paint-order="fill stroke markers" d=" M 192.875 67.0333333333333 L 192.875 45.299999999999955" stroke-linejoin="bevel" stroke-miterlimit="10" stroke-width="3"/></g></g></g><g clip-path="url(#BJTVaboATyXP)"><g><g><path fill="none" stroke="none"/><path fill="#aec7e8" stroke="black" paint-order="fill stroke markers" d=" M 408.4034405107205 110.5 A 5 5 0 1 1 408.4034380107207 110.49500000083333" stroke-linejoin="bevel" stroke-miterlimit="10"/><path fill="#aec7e8" stroke="black" paint-order="fill stroke markers" d=" M 386.0138687984801 110.5 A 5 5 0 1 1 386.0138662984803 110.49500000083333" stroke-linejoin="bevel" stroke-miterlimit="10"/><path fill="#aec7e8" stroke="black" paint-order="fill stroke markers" d=" M 396.62133966333363 110.5 A 5 5 0 1 1 396.62133716333386 110.49500000083333" stroke-linejoin="bevel" stroke-miterlimit="10"/><path fill="#aec7e8" stroke="black" paint-order="fill stroke markers" d=" M 418.77188921824444 110.5 A 5 5 0 1 1 418.7718867182447 110.49500000083333" stroke-linejoin="bevel" stroke-miterlimit="10"/><path fill="#aec7e8" stroke="black" paint-order="fill stroke markers" d=" M 403.4128139532917 110.5 A 5 5 0 1 1 403.4128114532919 110.49500000083333" stroke-linejoin="bevel" stroke-miterlimit="10"/><path fill="#aec7e8" stroke="black" paint-order="fill stroke markers" d=" M 352.28619432225787 110.5 A 5 5 0 1 1 352.2861918222581 110.49500000083333" stroke-linejoin="bevel" stroke-miterlimit="10"/><path fill="#aec7e8" stroke="black" paint-order="fill stroke markers" d=" M 348.5240484495821 110.5 A 5 5 0 1 1 348.52404594958233 110.49500000083333" stroke-linejoin="bevel" stroke-miterlimit="10"/><path fill="#aec7e8" stroke="black" paint-order="fill stroke markers" d=" M 363.76675516757547 110.5 A 5 5 0 1 1 363.7667526675757 110.49500000083333" stroke-linejoin="bevel" stroke-miterlimit="10"/><path fill="#aec7e8" stroke="black" paint-order="fill stroke markers" d=" M 346.1652995127905 110.5 A 5 5 0 1 1 346.16529701279075 110.49500000083333" stroke-linejoin="bevel" stroke-miterlimit="10"/></g></g></g><g clip-path="url(#DXhHgLTCegpv)"><g><g><path fill="none" stroke="none"/><path fill="none" stroke="black" paint-order="fill stroke markers" d=" M 375.44062773291955 121.36666666666667 L 375.44062773291955 99.63333333333333" stroke-linejoin="bevel" stroke-miterlimit="10" stroke-width="3"/></g></g></g><g clip-path="url(#yCHwVJdorTvl)"><g><g><path fill="none" stroke="none"/><path fill="#ff7f0e" stroke="black" paint-order="fill stroke markers" d=" M 278.87376062349114 164.83333333333331 A 5 5 0 1 1 278.87375812349137 164.82833333416664" stroke-linejoin="bevel" stroke-miterlimit="10"/><path fill="#ff7f0e" stroke="black" paint-order="fill stroke markers" d=" M 230.4861952877834 164.83333333333331 A 5 5 0 1 1 230.4861927877836 164.82833333416664" stroke-linejoin="bevel" stroke-miterlimit="10"/><path fill="#ff7f0e" stroke="black" paint-order="fill stroke markers" d=" M 262.97071889340646 164.83333333333331 A 5 5 0 1 1 262.9707163934067 164.82833333416664" stroke-linejoin="bevel" stroke-miterlimit="10"/></g></g></g><g clip-path="url(#ynmcWmTPGAEu)"><g><g><path fill="none" stroke="none"/><path fill="none" stroke="black" paint-order="fill stroke markers" d=" M 252.443558268227 175.7 L 252.443558268227 153.96666666666664" stroke-linejoin="bevel" stroke-miterlimit="10" stroke-width="3"/></g></g></g><g clip-path="url(#fNGoKGWnRUlT)"><g><g><path fill="none" stroke="none"/><path fill="#ffbb78" stroke="black" paint-order="fill stroke markers" d=" M 179.03572908690927 219.16666666666666 A 5 5 0 1 1 179.03572658690948 219.1616666675" stroke-linejoin="bevel" stroke-miterlimit="10"/><path fill="#ffbb78" stroke="black" paint-order="fill stroke markers" d=" M 178.30185560887134 219.16666666666666 A 5 5 0 1 1 178.30185310887154 219.1616666675" stroke-linejoin="bevel" stroke-miterlimit="10"/><path fill="#ffbb78" stroke="black" paint-order="fill stroke markers" d=" M 183.40097663800972 219.16666666666666 A 5 5 0 1 1 183.40097413800993 219.1616666675" stroke-linejoin="bevel" stroke-miterlimit="10"/></g></g></g><g clip-path="url(#xMXaLpAOSZBt)"><g><g><path fill="none" stroke="none"/><path fill="none" stroke="black" paint-order="fill stroke markers" d=" M 175.24618711126345 230.03333333333333 L 175.24618711126345 208.29999999999998" stroke-linejoin="bevel" stroke-miterlimit="10" stroke-width="3"/></g></g></g><g clip-path="url(#vFPuFqwinpMM)"><g><g><path fill="none" stroke="none"/><path fill="#2ca02c" stroke="black" paint-order="fill stroke markers" d=" M 172.73680554736052 273.5 A 5 5 0 1 1 172.73680304736072 273.49500000083333" stroke-linejoin="bevel" stroke-miterlimit="10"/><path fill="#2ca02c" stroke="black" paint-order="fill stroke markers" d=" M 172.86198568341726 273.5 A 5 5 0 1 1 172.86198318341746 273.49500000083333" stroke-linejoin="bevel" stroke-miterlimit="10"/><path fill="#2ca02c" stroke="black" paint-order="fill stroke markers" d=" M 173.07340339050546 273.5 A 5 5 0 1 1 173.07340089050567 273.49500000083333" stroke-linejoin="bevel" stroke-miterlimit="10"/></g></g></g><g clip-path="url(#EfhbndJXQlwI)"><g><g><path fill="none" stroke="none"/><path fill="none" stroke="black" paint-order="fill stroke markers" d=" M 167.89073154042774 284.3666666666667 L 167.89073154042774 262.6333333333333" stroke-linejoin="bevel" stroke-miterlimit="10" stroke-width="3"/></g></g></g><g clip-path="url(#IubeTUyToZXV)"><g><g><path fill="none" stroke="none"/><path fill="#98df8a" stroke="black" paint-order="fill stroke markers" d=" M 172.64687230833852 327.8333333333333 A 5 5 0 1 1 172.64686980833872 327.82833333416664" stroke-linejoin="bevel" stroke-miterlimit="10"/><path fill="#98df8a" stroke="black" paint-order="fill stroke markers" d=" M 172.67198354545317 327.8333333333333 A 5 5 0 1 1 172.67198104545338 327.82833333416664" stroke-linejoin="bevel" stroke-miterlimit="10"/><path fill="#98df8a" stroke="black" paint-order="fill stroke markers" d=" M 171.90643588142643 327.8333333333333 A 5 5 0 1 1 171.90643338142664 327.82833333416664" stroke-linejoin="bevel" stroke-miterlimit="10"/></g></g></g><g clip-path="url(#TlwOJKTiiyhn)"><g><g><path fill="none" stroke="none"/><path fill="none" stroke="black" paint-order="fill stroke markers" d=" M 167.40843057840604 338.7 L 167.40843057840604 316.9666666666667" stroke-linejoin="bevel" stroke-miterlimit="10" stroke-width="3"/></g></g></g><g clip-path="url(#KkbTRWomyMJx)"><g><g><path fill="none" stroke="none"/><path fill="none" stroke="black" paint-order="fill stroke markers" d=" M 192.875 355 L 192.875 29" stroke-linejoin="bevel" stroke-miterlimit="10" stroke-dasharray="2,4"/></g></g></g><g clip-path="url(#yEolAQvRmXyI)"><g><g/><g><path fill="#ffffff" stroke="#e5e5e5" paint-order="fill stroke markers" d=" M 399.41712951660156 39 L 560 39 L 560 125 L 399.41712951660156 125 L 399.41712951660156 39 Z" fill-opacity="0.95" stroke-linejoin="bevel" stroke-miterlimit="10" stroke-opacity="0.5"/><text fill="#444444" stroke="none" font-family="helvetica" font-size="10pt" font-style="normal" font-weight="normal" text-decoration="normal" x="434.41712951660156" y="59" text-anchor="start" dominant-baseline="central">mean</text><g><path fill="none" stroke="black" paint-order="fill stroke markers" d=" M 409.41712951660156 59 L 429.41712951660156 59" stroke-linejoin="bevel" stroke-miterlimit="10" stroke-width="3"/></g><text fill="#444444" stroke="none" font-family="helvetica" font-size="10pt" font-style="normal" font-weight="normal" text-decoration="normal" x="434.41712951660156" y="82" text-anchor="start" dominant-baseline="central">means of replicates</text><path fill="#ff7f0e" stroke="black" paint-order="fill stroke markers" d=" M 423.41712951660156 82 A 4 4 0 1 1 423.41712751660174 81.99600000066667" stroke-linejoin="bevel" stroke-miterlimit="10"/><path fill="#ffbb78" stroke="black" paint-order="fill stroke markers" d=" M 423.41712951660156 82 A 4 4 0 1 1 423.41712751660174 81.99600000066667" stroke-linejoin="bevel" stroke-miterlimit="10"/><path fill="#2ca02c" stroke="black" paint-order="fill stroke markers" d=" M 423.41712951660156 82 A 4 4 0 1 1 423.41712751660174 81.99600000066667" stroke-linejoin="bevel" stroke-miterlimit="10"/><path fill="#98df8a" stroke="black" paint-order="fill stroke markers" d=" M 423.41712951660156 82 A 4 4 0 1 1 423.41712751660174 81.99600000066667" stroke-linejoin="bevel" stroke-miterlimit="10"/><text fill="#444444" stroke="none" font-family="helvetica" font-size="10pt" font-style="normal" font-weight="normal" text-decoration="normal" x="434.41712951660156" y="105" text-anchor="start" dominant-baseline="central">Reference</text><g><path fill="none" stroke="black" paint-order="fill stroke markers" d=" M 409.41712951660156 105 L 429.41712951660156 105" stroke-linejoin="bevel" stroke-miterlimit="10" stroke-dasharray="2,4"/></g></g></g></g><g><g fill="#444444"><path fill="" stroke="none" d=""/><g transform="translate(139,24)"><path fill="none" stroke="none"/><text fill="" stroke="none" font-family="helvetica" font-size="10pt" font-style="normal" font-weight="bold" text-decoration="normal" x="0" y="0" text-anchor="start" dominant-baseline="text-after-edge"> PaQa_ratio on Liquid vs. Solid in linear scale</text></g></g></g><g/><g><g fill="#444444"><path fill="none" stroke="black" paint-order="fill stroke markers" d=" M 139 355 L 570 355" stroke-linejoin="bevel" stroke-miterlimit="10"/><path fill="none" stroke="black" paint-order="fill stroke markers" d=" M 139 361 L 139 353" stroke-linejoin="bevel" stroke-miterlimit="10"/><path fill="none" stroke="black" paint-order="fill stroke markers" d=" M 193 361 L 193 353" stroke-linejoin="bevel" stroke-miterlimit="10"/><path fill="none" stroke="black" paint-order="fill stroke markers" d=" M 247 361 L 247 353" stroke-linejoin="bevel" stroke-miterlimit="10"/><path fill="none" stroke="black" paint-order="fill stroke markers" d=" M 301 361 L 301 353" stroke-linejoin="bevel" stroke-miterlimit="10"/><path fill="none" stroke="black" paint-order="fill stroke markers" d=" M 355 361 L 355 353" stroke-linejoin="bevel" stroke-miterlimit="10"/><path fill="none" stroke="black" paint-order="fill stroke markers" d=" M 408 361 L 408 353" stroke-linejoin="bevel" stroke-miterlimit="10"/><path fill="none" stroke="black" paint-order="fill stroke markers" d=" M 462 361 L 462 353" stroke-linejoin="bevel" stroke-miterlimit="10"/><path fill="none" stroke="black" paint-order="fill stroke markers" d=" M 516 361 L 516 353" stroke-linejoin="bevel" stroke-miterlimit="10"/><path fill="none" stroke="black" paint-order="fill stroke markers" d=" M 570 361 L 570 353" stroke-linejoin="bevel" stroke-miterlimit="10"/><path fill="none" stroke="black" paint-order="fill stroke markers" d=" M 139 359 L 139 355" stroke-linejoin="bevel" stroke-miterlimit="10"/><path fill="none" stroke="black" paint-order="fill stroke markers" d=" M 150 359 L 150 355" stroke-linejoin="bevel" stroke-miterlimit="10"/><path fill="none" stroke="black" paint-order="fill stroke markers" d=" M 161 359 L 161 355" stroke-linejoin="bevel" stroke-miterlimit="10"/><path fill="none" stroke="black" paint-order="fill stroke markers" d=" M 171 359 L 171 355" stroke-linejoin="bevel" stroke-miterlimit="10"/><path fill="none" stroke="black" paint-order="fill stroke markers" d=" M 182 359 L 182 355" stroke-linejoin="bevel" stroke-miterlimit="10"/><path fill="none" stroke="black" paint-order="fill stroke markers" d=" M 193 359 L 193 355" stroke-linejoin="bevel" stroke-miterlimit="10"/><path fill="none" stroke="black" paint-order="fill stroke markers" d=" M 204 359 L 204 355" stroke-linejoin="bevel" stroke-miterlimit="10"/><path fill="none" stroke="black" paint-order="fill stroke markers" d=" M 214 359 L 214 355" stroke-linejoin="bevel" stroke-miterlimit="10"/><path fill="none" stroke="black" paint-order="fill stroke markers" d=" M 225 359 L 225 355" stroke-linejoin="bevel" stroke-miterlimit="10"/><path fill="none" stroke="black" paint-order="fill stroke markers" d=" M 236 359 L 236 355" stroke-linejoin="bevel" stroke-miterlimit="10"/><path fill="none" stroke="black" paint-order="fill stroke markers" d=" M 247 359 L 247 355" stroke-linejoin="bevel" stroke-miterlimit="10"/><path fill="none" stroke="black" paint-order="fill stroke markers" d=" M 258 359 L 258 355" stroke-linejoin="bevel" stroke-miterlimit="10"/><path fill="none" stroke="black" paint-order="fill stroke markers" d=" M 268 359 L 268 355" stroke-linejoin="bevel" stroke-miterlimit="10"/><path fill="none" stroke="black" paint-order="fill stroke markers" d=" M 279 359 L 279 355" stroke-linejoin="bevel" stroke-miterlimit="10"/><path fill="none" stroke="black" paint-order="fill stroke markers" d=" M 290 359 L 290 355" stroke-linejoin="bevel" stroke-miterlimit="10"/><path fill="none" stroke="black" paint-order="fill stroke markers" d=" M 301 359 L 301 355" stroke-linejoin="bevel" stroke-miterlimit="10"/><path fill="none" stroke="black" paint-order="fill stroke markers" d=" M 311 359 L 311 355" stroke-linejoin="bevel" stroke-miterlimit="10"/><path fill="none" stroke="black" paint-order="fill stroke markers" d=" M 322 359 L 322 355" stroke-linejoin="bevel" stroke-miterlimit="10"/><path fill="none" stroke="black" paint-order="fill stroke markers" d=" M 333 359 L 333 355" stroke-linejoin="bevel" stroke-miterlimit="10"/><path fill="none" stroke="black" paint-order="fill stroke markers" d=" M 344 359 L 344 355" stroke-linejoin="bevel" stroke-miterlimit="10"/><path fill="none" stroke="black" paint-order="fill stroke markers" d=" M 355 359 L 355 355" stroke-linejoin="bevel" stroke-miterlimit="10"/><path fill="none" stroke="black" paint-order="fill stroke markers" d=" M 365 359 L 365 355" stroke-linejoin="bevel" stroke-miterlimit="10"/><path fill="none" stroke="black" paint-order="fill stroke markers" d=" M 376 359 L 376 355" stroke-linejoin="bevel" stroke-miterlimit="10"/><path fill="none" stroke="black" paint-order="fill stroke markers" d=" M 387 359 L 387 355" stroke-linejoin="bevel" stroke-miterlimit="10"/><path fill="none" stroke="black" paint-order="fill stroke markers" d=" M 398 359 L 398 355" stroke-linejoin="bevel" stroke-miterlimit="10"/><path fill="none" stroke="black" paint-order="fill stroke markers" d=" M 408 359 L 408 355" stroke-linejoin="bevel" stroke-miterlimit="10"/><path fill="none" stroke="black" paint-order="fill stroke markers" d=" M 419 359 L 419 355" stroke-linejoin="bevel" stroke-miterlimit="10"/><path fill="none" stroke="black" paint-order="fill stroke markers" d=" M 430 359 L 430 355" stroke-linejoin="bevel" stroke-miterlimit="10"/><path fill="none" stroke="black" paint-order="fill stroke markers" d=" M 441 359 L 441 355" stroke-linejoin="bevel" stroke-miterlimit="10"/><path fill="none" stroke="black" paint-order="fill stroke markers" d=" M 451 359 L 451 355" stroke-linejoin="bevel" stroke-miterlimit="10"/><path fill="none" stroke="black" paint-order="fill stroke markers" d=" M 462 359 L 462 355" stroke-linejoin="bevel" stroke-miterlimit="10"/><path fill="none" stroke="black" paint-order="fill stroke markers" d=" M 473 359 L 473 355" stroke-linejoin="bevel" stroke-miterlimit="10"/><path fill="none" stroke="black" paint-order="fill stroke markers" d=" M 484 359 L 484 355" stroke-linejoin="bevel" stroke-miterlimit="10"/><path fill="none" stroke="black" paint-order="fill stroke markers" d=" M 495 359 L 495 355" stroke-linejoin="bevel" stroke-miterlimit="10"/><path fill="none" stroke="black" paint-order="fill stroke markers" d=" M 505 359 L 505 355" stroke-linejoin="bevel" stroke-miterlimit="10"/><path fill="none" stroke="black" paint-order="fill stroke markers" d=" M 516 359 L 516 355" stroke-linejoin="bevel" stroke-miterlimit="10"/><path fill="none" stroke="black" paint-order="fill stroke markers" d=" M 527 359 L 527 355" stroke-linejoin="bevel" stroke-miterlimit="10"/><path fill="none" stroke="black" paint-order="fill stroke markers" d=" M 538 359 L 538 355" stroke-linejoin="bevel" stroke-miterlimit="10"/><path fill="none" stroke="black" paint-order="fill stroke markers" d=" M 548 359 L 548 355" stroke-linejoin="bevel" stroke-miterlimit="10"/><path fill="none" stroke="black" paint-order="fill stroke markers" d=" M 559 359 L 559 355" stroke-linejoin="bevel" stroke-miterlimit="10"/><path fill="" stroke="black" paint-order="fill stroke markers" d=" M 570 359 L 570 355" stroke-linejoin="bevel" stroke-miterlimit="10"/><g transform="translate(139,366) rotate(0,0,0)"><text fill="" stroke="none" font-family="helvetica" font-size="8pt" font-style="normal" font-weight="normal" text-decoration="normal" x="0" y="0" text-anchor="middle" dominant-baseline="hanging">0</text><g transform="rotate(0,0,0) translate(-139,-366) translate(193,366) rotate(0,0,0)"><text fill="" stroke="none" font-family="helvetica" font-size="8pt" font-style="normal" font-weight="normal" text-decoration="normal" x="0" y="0" text-anchor="middle" dominant-baseline="hanging">1</text><g transform="rotate(0,0,0) translate(-193,-366) translate(247,366) rotate(0,0,0)"><text fill="" stroke="none" font-family="helvetica" font-size="8pt" font-style="normal" font-weight="normal" text-decoration="normal" x="0" y="0" text-anchor="middle" dominant-baseline="hanging">2</text><g transform="rotate(0,0,0) translate(-247,-366) translate(301,366) rotate(0,0,0)"><text fill="" stroke="none" font-family="helvetica" font-size="8pt" font-style="normal" font-weight="normal" text-decoration="normal" x="0" y="0" text-anchor="middle" dominant-baseline="hanging">3</text><g transform="rotate(0,0,0) translate(-301,-366) translate(355,366) rotate(0,0,0)"><text fill="" stroke="none" font-family="helvetica" font-size="8pt" font-style="normal" font-weight="normal" text-decoration="normal" x="0" y="0" text-anchor="middle" dominant-baseline="hanging">4</text><g transform="rotate(0,0,0) translate(-355,-366) translate(408,366) rotate(0,0,0)"><text fill="" stroke="none" font-family="helvetica" font-size="8pt" font-style="normal" font-weight="normal" text-decoration="normal" x="0" y="0" text-anchor="middle" dominant-baseline="hanging">5</text><g transform="rotate(0,0,0) translate(-408,-366) translate(462,366) rotate(0,0,0)"><text fill="" stroke="none" font-family="helvetica" font-size="8pt" font-style="normal" font-weight="normal" text-decoration="normal" x="0" y="0" text-anchor="middle" dominant-baseline="hanging">6</text><g transform="rotate(0,0,0) translate(-462,-366) translate(516,366) rotate(0,0,0)"><text fill="" stroke="none" font-family="helvetica" font-size="8pt" font-style="normal" font-weight="normal" text-decoration="normal" x="0" y="0" text-anchor="middle" dominant-baseline="hanging">7</text><g transform="rotate(0,0,0) translate(-516,-366) translate(570,366) rotate(0,0,0)"><text fill="" stroke="none" font-family="helvetica" font-size="8pt" font-style="normal" font-weight="normal" text-decoration="normal" x="0" y="0" text-anchor="middle" dominant-baseline="hanging">8</text><g transform="rotate(0,0,0) translate(-570,-366) translate(355,384) rotate(0,0,0)"><text fill="" stroke="none" font-family="helvetica" font-size="10pt" font-style="italic" font-weight="normal" text-decoration="normal" x="0" y="0" text-anchor="middle" dominant-baseline="hanging">Relative PaQa level</text><g transform="rotate(0,0,0) translate(-355,-384)"/></g></g></g></g></g></g></g></g></g></g></g></g><g><g fill="#444444"><path fill="none" stroke="black" paint-order="fill stroke markers" d=" M 139 355 L 139 29" stroke-linejoin="bevel" stroke-miterlimit="10"/><path fill="none" stroke="black" paint-order="fill stroke markers" d=" M 133 328 L 141 328" stroke-linejoin="bevel" stroke-miterlimit="10"/><path fill="none" stroke="black" paint-order="fill stroke markers" d=" M 133 274 L 141 274" stroke-linejoin="bevel" stroke-miterlimit="10"/><path fill="none" stroke="black" paint-order="fill stroke markers" d=" M 133 219 L 141 219" stroke-linejoin="bevel" stroke-miterlimit="10"/><path fill="none" stroke="black" paint-order="fill stroke markers" d=" M 133 165 L 141 165" stroke-linejoin="bevel" stroke-miterlimit="10"/><path fill="none" stroke="black" paint-order="fill stroke markers" d=" M 133 111 L 141 111" stroke-linejoin="bevel" stroke-miterlimit="10"/><path fill="" stroke="black" paint-order="fill stroke markers" d=" M 133 56 L 141 56" stroke-linejoin="bevel" stroke-miterlimit="10"/><g transform="translate(128,328) rotate(0,0,0)"><text fill="" stroke="none" font-family="helvetica" font-size="9pt" font-style="normal" font-weight="normal" text-decoration="normal" x="0" y="0" text-anchor="end" dominant-baseline="central">ΔpilJ_pilA_T8V Liquid</text><g transform="rotate(0,0,0) translate(-128,-328) translate(128,274) rotate(0,0,0)"><text fill="" stroke="none" font-family="helvetica" font-size="9pt" font-style="normal" font-weight="normal" text-decoration="normal" x="0" y="0" text-anchor="end" dominant-baseline="central">ΔpilJ Liquid</text><g transform="rotate(0,0,0) translate(-128,-274) translate(128,219) rotate(0,0,0)"><text fill="" stroke="none" font-family="helvetica" font-size="9pt" font-style="normal" font-weight="normal" text-decoration="normal" x="0" y="0" text-anchor="end" dominant-baseline="central">ΔpilA Liquid</text><g transform="rotate(0,0,0) translate(-128,-219) translate(128,165) rotate(0,0,0)"><text fill="" stroke="none" font-family="helvetica" font-size="9pt" font-style="normal" font-weight="normal" text-decoration="normal" x="0" y="0" text-anchor="end" dominant-baseline="central">pilA_T8V Liquid</text><g transform="rotate(0,0,0) translate(-128,-165) translate(128,111) rotate(0,0,0)"><text fill="" stroke="none" font-family="helvetica" font-size="9pt" font-style="normal" font-weight="normal" text-decoration="normal" x="0" y="0" text-anchor="end" dominant-baseline="central">WT Solid</text><g transform="rotate(0,0,0) translate(-128,-111) translate(128,56) rotate(0,0,0)"><text fill="" stroke="none" font-family="helvetica" font-size="9pt" font-style="normal" font-weight="normal" text-decoration="normal" x="0" y="0" text-anchor="end" dominant-baseline="central">WT Liquid</text><g transform="rotate(0,0,0) translate(-128,-56)"/></g></g></g></g></g></g></g></g><g clip-path="url(#wJsKIxKdglTt)"><g/></g></g><g/><g/><g/><g/><g/><g/><g/><g/><g/><g/><g/><g/><g/><g/><g/><g/><g/><g/><g/><g/><g/><g/><g/><g/><g/><g/><g/><g/><g/><g/><g/><g/><g/><g/><g/><g/><g/><g/><g/><g/><g/><g/><g/><g/><g/><g/></g></svg>