<svg version="1.1" xmlns="http://www.w3.org/2000/svg" width="500" height="250"><defs><clipPath id="MqHObaTNPLuQ"><path fill="none" stroke="none" d="M 95.5 27.5 L 470.5 27.5 L 470.5 205.5 L 95.5 205.5 L 95.5 27.5"/></clipPath><clipPath id="TowXgeXrCMsE"><path fill="none" stroke="none" d="M 95.5 27.5 L 470.5 27.5 L 470.5 205.5 L 95.5 205.5 L 95.5 27.5"/></clipPath><clipPath id="kXzQngUeJPKK"><path fill="none" stroke="none" d="M 95.5 27.5 L 470.5 27.5 L 470.5 205.5 L 95.5 205.5 L 95.5 27.5"/></clipPath><clipPath id="xVBgWZBxcnMS"><path fill="none" stroke="none" d="M 95.5 27.5 L 470.5 27.5 L 470.5 205.5 L 95.5 205.5 L 95.5 27.5"/></clipPath><clipPath id="BEafrJeokans"><path fill="none" stroke="none" d="M 95.5 27.5 L 470.5 27.5 L 470.5 205.5 L 95.5 205.5 L 95.5 27.5"/></clipPath><clipPath id="goxqKUFfAsMt"><path fill="none" stroke="none" d="M 95.5 27.5 L 470.5 27.5 L 470.5 205.5 L 95.5 205.5 L 95.5 27.5"/></clipPath><clipPath id="NorohftTJKfv"><path fill="none" stroke="none" d="M 95.5 27.5 L 470.5 27.5 L 470.5 205.5 L 95.5 205.5 L 95.5 27.5"/></clipPath><clipPath id="KILArqqwfeLD"><path fill="none" stroke="none" d="M 95.5 27.5 L 470.5 27.5 L 470.5 205.5 L 95.5 205.5 L 95.5 27.5"/></clipPath><clipPath id="oTdUklHXvhLQ"><path fill="none" stroke="none" d="M 95.5 27.5 L 470.5 27.5 L 470.5 205.5 L 95.5 205.5 L 95.5 27.5"/></clipPath><clipPath id="kinTNgLknfvL"><path fill="none" stroke="none" d="M 95.5 27.5 L 470.5 27.5 L 470.5 205.5 L 95.5 205.5 L 95.5 27.5"/></clipPath><clipPath id="mOgctVneQBJw"><path fill="none" stroke="none" d="M 95.5 27.5 L 470.5 27.5 L 470.5 205.5 L 95.5 205.5 L 95.5 27.5"/></clipPath><clipPath id="TEUgnQnUhCBv"><path fill="none" stroke="none" d="M 95.5 27.5 L 470.5 27.5 L 470.5 205.5 L 95.5 205.5 L 95.5 27.5"/></clipPath><clipPath id="FJBSlKGmTzsK"><path fill="none" stroke="none" d="M 95.5 27.5 L 470.5 27.5 L 470.5 205.5 L 95.5 205.5 L 95.5 27.5"/></clipPath><clipPath id="eFzgQSktaxUy"><path fill="none" stroke="none" d="M 95.5 27.5 L 470.5 27.5 L 470.5 205.5 L 95.5 205.5 L 95.5 27.5"/></clipPath><clipPath id="wLvlJHkggxWH"><path fill="none" stroke="none" d="M 95.5 27.5 L 470.5 27.5 L 470.5 205.5 L 95.5 205.5 L 95.5 27.5"/></clipPath><clipPath id="uOVqgxfnDByS"><path fill="none" stroke="none" d="M 95.5 27.5 L 470.5 27.5 L 470.5 205.5 L 95.5 205.5 L 95.5 27.5"/></clipPath><clipPath id="uGMTUHsaAFki"><path fill="none" stroke="none" d="M 95.5 27.5 L 470.5 27.5 L 470.5 205.5 L 95.5 205.5 L 95.5 27.5"/></clipPath><clipPath id="NrUTJMorMzpS"><path fill="none" stroke="none" d="M 95.5 27.5 L 470.5 27.5 L 470.5 205.5 L 95.5 205.5 L 95.5 27.5"/></clipPath><clipPath id="IokvGUJtnMSU"><path fill="none" stroke="none" d="M 95.5 27.5 L 470.5 27.5 L 470.5 205.5 L 95.5 205.5 L 95.5 27.5"/></clipPath><clipPath id="butdZpPTEkvK"><path fill="none" stroke="none" d="M 95.5 27.5 L 470.5 27.5 L 470.5 205.5 L 95.5 205.5 L 95.5 27.5"/></clipPath><clipPath id="JzdoHDEVdIuv"><path fill="none" stroke="none" d="M 95.5 27.5 L 470.5 27.5 L 470.5 205.5 L 95.5 205.5 L 95.5 27.5"/></clipPath><clipPath id="SeCuORzFEybs"><path fill="none" stroke="none" d="M 95.5 27.5 L 470.5 27.5 L 470.5 205.5 L 95.5 205.5 L 95.5 27.5"/></clipPath><clipPath id="hcmySxfnPmpl"><path fill="none" stroke="none" d="M 95.5 27.5 L 470.5 27.5 L 470.5 205.5 L 95.5 205.5 L 95.5 27.5"/></clipPath><clipPath id="XdkrVtCcKixV"><path fill="none" stroke="none" d="M 95.5 27.5 L 470.5 27.5 L 470.5 205.5 L 95.5 205.5 L 95.5 27.5"/></clipPath><clipPath id="DIJzNTMkIRdq"><path fill="none" stroke="none" d="M 95.5 27.5 L 470.5 27.5 L 470.5 205.5 L 95.5 205.5 L 95.5 27.5"/></clipPath></defs><path fill="rgb(255,255,255)" stroke="none" paint-order="stroke" d="M 0.5 0.5 L 500.5 0.5 L 500.5 250.5 L 0.5 250.5 L 0.5 0.5" fill-opacity="1"/><rect fill="#FFFFFF" stroke="none" x="95" y="27" width="375" height="178" transform="matrix(1, 0, 0, 1, 0.5, 0.5)"/><path fill="rgb(255,255,255)" stroke="none" paint-order="stroke" d="M 95.5 27.5 L 470.5 27.5 L 470.5 205.5 L 95.5 205.5 L 95.5 27.5" fill-opacity="1"/><path fill="none" stroke="rgb(229,229,229)" paint-order="fill" d="M 95.5 27.5 L 470.5 27.5 L 470.5 205.5 L 95.5 205.5 L 95.5 27.5" stroke-opacity="1" stroke-linejoin="bevel" stroke-miterlimit="10" stroke-dasharray=""/><path fill="rgb(128,128,128)" stroke="rgb(0,0,0)" paint-order="fill" d="M 313.5018615722656 36.400001525878906 A 5 5 0 1 1 313.50185907226586 36.395001526712235" fill-opacity="1" clip-path="url(#kXzQngUeJPKK)" stroke-opacity="1" stroke-linejoin="bevel" stroke-miterlimit="10" stroke-dasharray=""/><path fill="rgb(128,128,128)" stroke="rgb(0,0,0)" paint-order="fill" d="M 276.1943664550781 36.400001525878906 A 5 5 0 1 1 276.19436395507836 36.395001526712235" fill-opacity="1" clip-path="url(#kXzQngUeJPKK)" stroke-opacity="1" stroke-linejoin="bevel" stroke-miterlimit="10" stroke-dasharray=""/><path fill="rgb(128,128,128)" stroke="rgb(0,0,0)" paint-order="fill" d="M 280.2179870605469 36.400001525878906 A 5 5 0 1 1 280.2179845605471 36.395001526712235" fill-opacity="1" clip-path="url(#kXzQngUeJPKK)" stroke-opacity="1" stroke-linejoin="bevel" stroke-miterlimit="10" stroke-dasharray=""/><path fill="none" stroke="rgb(0,0,0)" paint-order="fill" d="M 285.9167785644531 39.95999526977539 L 285.9167785644531 32.840003967285156" stroke-opacity="1" stroke-linejoin="bevel" stroke-miterlimit="10" stroke-width="3" stroke-dasharray="" clip-path="url(#xVBgWZBxcnMS)"/><path fill="rgb(169,169,169)" stroke="rgb(0,0,0)" paint-order="fill" d="M 406.26885986328125 54.20000076293945 A 5 5 0 1 1 406.2688573632815 54.19500076377278" fill-opacity="1" clip-path="url(#BEafrJeokans)" stroke-opacity="1" stroke-linejoin="bevel" stroke-miterlimit="10" stroke-dasharray=""/><path fill="rgb(169,169,169)" stroke="rgb(0,0,0)" paint-order="fill" d="M 398.9163818359375 54.20000076293945 A 5 5 0 1 1 398.91637933593773 54.19500076377278" fill-opacity="1" clip-path="url(#BEafrJeokans)" stroke-opacity="1" stroke-linejoin="bevel" stroke-miterlimit="10" stroke-dasharray=""/><path fill="rgb(169,169,169)" stroke="rgb(0,0,0)" paint-order="fill" d="M 458.4545593261719 54.20000076293945 A 5 5 0 1 1 458.4545568261721 54.19500076377278" fill-opacity="1" clip-path="url(#BEafrJeokans)" stroke-opacity="1" stroke-linejoin="bevel" stroke-miterlimit="10" stroke-dasharray=""/><path fill="none" stroke="rgb(0,0,0)" paint-order="fill" d="M 418.6153869628906 57.7599983215332 L 418.6153869628906 50.6400032043457" stroke-opacity="1" stroke-linejoin="bevel" stroke-miterlimit="10" stroke-width="3" stroke-dasharray="" clip-path="url(#goxqKUFfAsMt)"/><path fill="rgb(211,211,211)" stroke="rgb(0,0,0)" paint-order="fill" d="M 179.8841094970703 72 A 5 5 0 1 1 179.88410699707052 71.99500000083333" fill-opacity="1" clip-path="url(#NorohftTJKfv)" stroke-opacity="1" stroke-linejoin="bevel" stroke-miterlimit="10" stroke-dasharray=""/><path fill="rgb(211,211,211)" stroke="rgb(0,0,0)" paint-order="fill" d="M 148.6475830078125 72 A 5 5 0 1 1 148.6475805078127 71.99500000083333" fill-opacity="1" clip-path="url(#NorohftTJKfv)" stroke-opacity="1" stroke-linejoin="bevel" stroke-miterlimit="10" stroke-dasharray=""/><path fill="none" stroke="rgb(0,0,0)" paint-order="fill" d="M 160.0706024169922 77.34000396728516 L 160.0706024169922 66.65999603271484" stroke-opacity="1" stroke-linejoin="bevel" stroke-miterlimit="10" stroke-width="3" stroke-dasharray="" clip-path="url(#KILArqqwfeLD)"/><path fill="rgb(211,211,211)" stroke="rgb(0,0,0)" paint-order="fill" d="M 263.5851135253906 89.80000305175781 A 5 5 0 1 1 263.58511102539086 89.79500305259114" fill-opacity="1" clip-path="url(#oTdUklHXvhLQ)" stroke-opacity="1" stroke-linejoin="bevel" stroke-miterlimit="10" stroke-dasharray=""/><path fill="rgb(211,211,211)" stroke="rgb(0,0,0)" paint-order="fill" d="M 255.94215393066406 89.80000305175781 A 5 5 0 1 1 255.94215143066427 89.79500305259114" fill-opacity="1" clip-path="url(#oTdUklHXvhLQ)" stroke-opacity="1" stroke-linejoin="bevel" stroke-miterlimit="10" stroke-dasharray=""/><path fill="none" stroke="rgb(0,0,0)" paint-order="fill" d="M 254.8118896484375 95.14000701904297 L 254.8118896484375 84.45999908447266" stroke-opacity="1" stroke-linejoin="bevel" stroke-miterlimit="10" stroke-width="3" stroke-dasharray="" clip-path="url(#kinTNgLknfvL)"/><path fill="rgb(255,127,80)" stroke="rgb(0,0,0)" paint-order="fill" d="M 239.26846313476562 107.5999984741211 A 5 5 0 1 1 239.26846063476583 107.59499847495442" fill-opacity="1" clip-path="url(#mOgctVneQBJw)" stroke-opacity="1" stroke-linejoin="bevel" stroke-miterlimit="10" stroke-dasharray=""/><path fill="rgb(255,127,80)" stroke="rgb(0,0,0)" paint-order="fill" d="M 202.385009765625 107.5999984741211 A 5 5 0 1 1 202.3850072656252 107.59499847495442" fill-opacity="1" clip-path="url(#mOgctVneQBJw)" stroke-opacity="1" stroke-linejoin="bevel" stroke-miterlimit="10" stroke-dasharray=""/><path fill="rgb(255,127,80)" stroke="rgb(0,0,0)" paint-order="fill" d="M 222.6653289794922 107.5999984741211 A 5 5 0 1 1 222.6653264794924 107.59499847495442" fill-opacity="1" clip-path="url(#mOgctVneQBJw)" stroke-opacity="1" stroke-linejoin="bevel" stroke-miterlimit="10" stroke-dasharray=""/><path fill="none" stroke="rgb(0,0,0)" paint-order="fill" d="M 217.18748474121094 112.94000244140625 L 217.18748474121094 102.25999450683594" stroke-opacity="1" stroke-linejoin="bevel" stroke-miterlimit="10" stroke-width="3" stroke-dasharray="" clip-path="url(#TEUgnQnUhCBv)"/><path fill="rgb(255,127,80)" stroke="rgb(0,0,0)" paint-order="fill" d="M 275.10430908203125 125.4000015258789 A 5 5 0 1 1 275.1043065820315 125.39500152671224" fill-opacity="1" clip-path="url(#FJBSlKGmTzsK)" stroke-opacity="1" stroke-linejoin="bevel" stroke-miterlimit="10" stroke-dasharray=""/><path fill="rgb(255,127,80)" stroke="rgb(0,0,0)" paint-order="fill" d="M 295.3223571777344 125.4000015258789 A 5 5 0 1 1 295.3223546777346 125.39500152671224" fill-opacity="1" clip-path="url(#FJBSlKGmTzsK)" stroke-opacity="1" stroke-linejoin="bevel" stroke-miterlimit="10" stroke-dasharray=""/><path fill="rgb(255,127,80)" stroke="rgb(0,0,0)" paint-order="fill" d="M 285.4861145019531 125.4000015258789 A 5 5 0 1 1 285.48611200195336 125.39500152671224" fill-opacity="1" clip-path="url(#FJBSlKGmTzsK)" stroke-opacity="1" stroke-linejoin="bevel" stroke-miterlimit="10" stroke-dasharray=""/><path fill="none" stroke="rgb(0,0,0)" paint-order="fill" d="M 280.5292663574219 130.74000549316406 L 280.5292663574219 120.05999755859375" stroke-opacity="1" stroke-linejoin="bevel" stroke-miterlimit="10" stroke-width="3" stroke-dasharray="" clip-path="url(#eFzgQSktaxUy)"/><path fill="rgb(46,139,87)" stroke="rgb(0,0,0)" paint-order="fill" d="M 228.83541870117188 143.1999969482422 A 5 5 0 1 1 228.83541620117208 143.19499694907552" fill-opacity="1" clip-path="url(#wLvlJHkggxWH)" stroke-opacity="1" stroke-linejoin="bevel" stroke-miterlimit="10" stroke-dasharray=""/><path fill="rgb(46,139,87)" stroke="rgb(0,0,0)" paint-order="fill" d="M 148.89511108398438 143.1999969482422 A 5 5 0 1 1 148.89510858398458 143.19499694907552" fill-opacity="1" clip-path="url(#wLvlJHkggxWH)" stroke-opacity="1" stroke-linejoin="bevel" stroke-miterlimit="10" stroke-dasharray=""/><path fill="rgb(46,139,87)" stroke="rgb(0,0,0)" paint-order="fill" d="M 203.49124145507812 143.1999969482422 A 5 5 0 1 1 203.49123895507833 143.19499694907552" fill-opacity="1" clip-path="url(#wLvlJHkggxWH)" stroke-opacity="1" stroke-linejoin="bevel" stroke-miterlimit="10" stroke-dasharray=""/><path fill="none" stroke="rgb(0,0,0)" paint-order="fill" d="M 192.28590393066406 148.5399932861328 L 192.28590393066406 137.86000061035156" stroke-opacity="1" stroke-linejoin="bevel" stroke-miterlimit="10" stroke-width="3" stroke-dasharray="" clip-path="url(#uOVqgxfnDByS)"/><path fill="rgb(46,139,87)" stroke="rgb(0,0,0)" paint-order="fill" d="M 265.91400146484375 161 A 5 5 0 1 1 265.913998964844 160.99500000083333" fill-opacity="1" clip-path="url(#uGMTUHsaAFki)" stroke-opacity="1" stroke-linejoin="bevel" stroke-miterlimit="10" stroke-dasharray=""/><path fill="rgb(46,139,87)" stroke="rgb(0,0,0)" paint-order="fill" d="M 292.0833740234375 161 A 5 5 0 1 1 292.08337152343773 160.99500000083333" fill-opacity="1" clip-path="url(#uGMTUHsaAFki)" stroke-opacity="1" stroke-linejoin="bevel" stroke-miterlimit="10" stroke-dasharray=""/><path fill="rgb(46,139,87)" stroke="rgb(0,0,0)" paint-order="fill" d="M 283.395263671875 161 A 5 5 0 1 1 283.39526117187523 160.99500000083333" fill-opacity="1" clip-path="url(#uGMTUHsaAFki)" stroke-opacity="1" stroke-linejoin="bevel" stroke-miterlimit="10" stroke-dasharray=""/><path fill="none" stroke="rgb(0,0,0)" paint-order="fill" d="M 275.8517761230469 166.33999633789062 L 275.8517761230469 155.66000366210938" stroke-opacity="1" stroke-linejoin="bevel" stroke-miterlimit="10" stroke-width="3" stroke-dasharray="" clip-path="url(#NrUTJMorMzpS)"/><path fill="rgb(221,160,221)" stroke="rgb(0,0,0)" paint-order="fill" d="M 124.06465148925781 178.8000030517578 A 5 5 0 1 1 124.06464898925802 178.79500305259114" fill-opacity="1" clip-path="url(#IokvGUJtnMSU)" stroke-opacity="1" stroke-linejoin="bevel" stroke-miterlimit="10" stroke-dasharray=""/><path fill="rgb(221,160,221)" stroke="rgb(0,0,0)" paint-order="fill" d="M 124.72222900390625 178.8000030517578 A 5 5 0 1 1 124.72222650390646 178.79500305259114" fill-opacity="1" clip-path="url(#IokvGUJtnMSU)" stroke-opacity="1" stroke-linejoin="bevel" stroke-miterlimit="10" stroke-dasharray=""/><path fill="rgb(221,160,221)" stroke="rgb(0,0,0)" paint-order="fill" d="M 125.82637023925781 178.8000030517578 A 5 5 0 1 1 125.82636773925802 178.79500305259114" fill-opacity="1" clip-path="url(#IokvGUJtnMSU)" stroke-opacity="1" stroke-linejoin="bevel" stroke-miterlimit="10" stroke-dasharray=""/><path fill="none" stroke="rgb(0,0,0)" paint-order="fill" d="M 119.87283325195312 184.13999938964844 L 119.87283325195312 173.4600067138672" stroke-opacity="1" stroke-linejoin="bevel" stroke-miterlimit="10" stroke-width="3" stroke-dasharray="" clip-path="url(#butdZpPTEkvK)"/><path fill="rgb(221,160,221)" stroke="rgb(0,0,0)" paint-order="fill" d="M 122.01487731933594 196.60000610351562 A 5 5 0 1 1 122.01487481933614 196.59500610434895" fill-opacity="1" clip-path="url(#JzdoHDEVdIuv)" stroke-opacity="1" stroke-linejoin="bevel" stroke-miterlimit="10" stroke-dasharray=""/><path fill="rgb(221,160,221)" stroke="rgb(0,0,0)" paint-order="fill" d="M 117.54545593261719 196.60000610351562 A 5 5 0 1 1 117.54545343261739 196.59500610434895" fill-opacity="1" clip-path="url(#JzdoHDEVdIuv)" stroke-opacity="1" stroke-linejoin="bevel" stroke-miterlimit="10" stroke-dasharray=""/><path fill="rgb(221,160,221)" stroke="rgb(0,0,0)" paint-order="fill" d="M 118.29585266113281 196.60000610351562 A 5 5 0 1 1 118.29585016113302 196.59500610434895" fill-opacity="1" clip-path="url(#JzdoHDEVdIuv)" stroke-opacity="1" stroke-linejoin="bevel" stroke-miterlimit="10" stroke-dasharray=""/><path fill="none" stroke="rgb(0,0,0)" paint-order="fill" d="M 114.29804992675781 201.94000244140625 L 114.29804992675781 191.25999450683594" stroke-opacity="1" stroke-linejoin="bevel" stroke-miterlimit="10" stroke-width="3" stroke-dasharray="" clip-path="url(#SeCuORzFEybs)"/><path fill="none" stroke="rgb(0,0,0)" paint-order="fill" d="M 285.9167785644531 205.5 L 285.9167785644531 27.5" stroke-opacity="1" stroke-linejoin="bevel" stroke-miterlimit="10" stroke-dasharray="2,4" clip-path="url(#hcmySxfnPmpl)"/><path fill="none" stroke="rgb(0,0,0)" paint-order="fill" d="M 95.5 205.5 L 470.5 205.5" stroke-opacity="1" stroke-linejoin="bevel" stroke-miterlimit="10" stroke-dasharray=""/><path fill="none" stroke="rgb(0,0,0)" paint-order="fill" d="M 181.5 211.5 L 181.5 203.5 M 285.5 211.5 L 285.5 203.5 M 347.5 211.5 L 347.5 203.5 M 390.5 211.5 L 390.5 203.5 M 424.5 211.5 L 424.5 203.5 M 452.5 211.5 L 452.5 203.5" stroke-opacity="1" stroke-linejoin="bevel" stroke-miterlimit="10" stroke-dasharray=""/><path fill="none" stroke="rgb(0,0,0)" paint-order="fill" d="M 165.5 209.5 L 165.5 205.5 M 147.5 209.5 L 147.5 205.5 M 127.5 209.5 L 127.5 205.5 M 103.5 209.5 L 103.5 205.5 M 181.5 209.5 L 181.5 205.5 M 195.5 209.5 L 195.5 205.5 M 208.5 209.5 L 208.5 205.5 M 220.5 209.5 L 220.5 205.5 M 231.5 209.5 L 231.5 205.5 M 242.5 209.5 L 242.5 205.5 M 252.5 209.5 L 252.5 205.5 M 261.5 209.5 L 261.5 205.5 M 269.5 209.5 L 269.5 205.5 M 278.5 209.5 L 278.5 205.5 M 285.5 209.5 L 285.5 205.5 M 293.5 209.5 L 293.5 205.5 M 300.5 209.5 L 300.5 205.5 M 307.5 209.5 L 307.5 205.5 M 313.5 209.5 L 313.5 205.5 M 319.5 209.5 L 319.5 205.5 M 325.5 209.5 L 325.5 205.5 M 331.5 209.5 L 331.5 205.5 M 336.5 209.5 L 336.5 205.5 M 342.5 209.5 L 342.5 205.5 M 347.5 209.5 L 347.5 205.5 M 352.5 209.5 L 352.5 205.5 M 357.5 209.5 L 357.5 205.5 M 361.5 209.5 L 361.5 205.5 M 366.5 209.5 L 366.5 205.5 M 370.5 209.5 L 370.5 205.5 M 374.5 209.5 L 374.5 205.5 M 378.5 209.5 L 378.5 205.5 M 383.5 209.5 L 383.5 205.5 M 386.5 209.5 L 386.5 205.5 M 390.5 209.5 L 390.5 205.5 M 394.5 209.5 L 394.5 205.5 M 398.5 209.5 L 398.5 205.5 M 401.5 209.5 L 401.5 205.5 M 405.5 209.5 L 405.5 205.5 M 408.5 209.5 L 408.5 205.5 M 411.5 209.5 L 411.5 205.5 M 415.5 209.5 L 415.5 205.5 M 418.5 209.5 L 418.5 205.5 M 421.5 209.5 L 421.5 205.5 M 424.5 209.5 L 424.5 205.5 M 427.5 209.5 L 427.5 205.5 M 430.5 209.5 L 430.5 205.5 M 433.5 209.5 L 433.5 205.5 M 436.5 209.5 L 436.5 205.5 M 438.5 209.5 L 438.5 205.5 M 441.5 209.5 L 441.5 205.5 M 444.5 209.5 L 444.5 205.5 M 446.5 209.5 L 446.5 205.5 M 449.5 209.5 L 449.5 205.5 M 452.5 209.5 L 452.5 205.5 M 454.5 209.5 L 454.5 205.5 M 457.5 209.5 L 457.5 205.5 M 459.5 209.5 L 459.5 205.5 M 461.5 209.5 L 461.5 205.5 M 464.5 209.5 L 464.5 205.5 M 466.5 209.5 L 466.5 205.5 M 468.5 209.5 L 468.5 205.5" stroke-opacity="1" stroke-linejoin="bevel" stroke-miterlimit="10" stroke-dasharray=""/><text fill="rgb(68,68,68)" stroke="none" font-family="helvetica" font-size="11px" font-style="normal" font-weight="normal" text-decoration="normal" x="172.90823364257812" y="224" text-anchor="start" dominant-baseline="alphabetic" transform="matrix(1, 0, 0, 1, 0.5, 0.5)" fill-opacity="1">0.5</text><text fill="rgb(68,68,68)" stroke="none" font-family="helvetica" font-size="11px" font-style="normal" font-weight="normal" text-decoration="normal" x="282.3579406738281" y="224" text-anchor="start" dominant-baseline="alphabetic" transform="matrix(1, 0, 0, 1, 0.5, 0.5)" fill-opacity="1">1</text><text fill="rgb(68,68,68)" stroke="none" font-family="helvetica" font-size="11px" font-style="normal" font-weight="normal" text-decoration="normal" x="339.1118469238281" y="224" text-anchor="start" dominant-baseline="alphabetic" transform="matrix(1, 0, 0, 1, 0.5, 0.5)" fill-opacity="1">1.5</text><text fill="rgb(68,68,68)" stroke="none" font-family="helvetica" font-size="11px" font-style="normal" font-weight="normal" text-decoration="normal" x="387.22076416015625" y="224" text-anchor="start" dominant-baseline="alphabetic" transform="matrix(1, 0, 0, 1, 0.5, 0.5)" fill-opacity="1">2</text><text fill="rgb(68,68,68)" stroke="none" font-family="helvetica" font-size="11px" font-style="normal" font-weight="normal" text-decoration="normal" x="416.3921203613281" y="224" text-anchor="start" dominant-baseline="alphabetic" transform="matrix(1, 0, 0, 1, 0.5, 0.5)" fill-opacity="1">2.5</text><text fill="rgb(68,68,68)" stroke="none" font-family="helvetica" font-size="11px" font-style="normal" font-weight="normal" text-decoration="normal" x="448.5615539550781" y="224" text-anchor="start" dominant-baseline="alphabetic" transform="matrix(1, 0, 0, 1, 0.5, 0.5)" fill-opacity="1">3</text><text fill="rgb(68,68,68)" stroke="none" font-family="helvetica" font-size="13px" font-style="italic" font-weight="normal" text-decoration="normal" x="225.41552734375" y="244" text-anchor="start" dominant-baseline="alphabetic" transform="matrix(1, 0, 0, 1, 0.5, 0.5)" fill-opacity="1">Relative PaQa level</text><path fill="none" stroke="rgb(0,0,0)" paint-order="fill" d="M 95.5 205.5 L 95.5 27.5" stroke-opacity="1" stroke-linejoin="bevel" stroke-miterlimit="10" stroke-dasharray=""/><path fill="none" stroke="rgb(0,0,0)" paint-order="fill" d="M 89.5 196.5 L 97.5 196.5 M 89.5 178.5 L 97.5 178.5 M 89.5 161.5 L 97.5 161.5 M 89.5 143.5 L 97.5 143.5 M 89.5 125.5 L 97.5 125.5 M 89.5 107.5 L 97.5 107.5 M 89.5 89.5 L 97.5 89.5 M 89.5 72.5 L 97.5 72.5 M 89.5 54.5 L 97.5 54.5 M 89.5 36.5 L 97.5 36.5" stroke-opacity="1" stroke-linejoin="bevel" stroke-miterlimit="10" stroke-dasharray=""/><text fill="rgb(68,68,68)" stroke="none" font-family="helvetica" font-size="9pt" font-style="normal" font-weight="normal" text-decoration="normal" x="27.9609375" y="200.10000610351562" text-anchor="start" dominant-baseline="alphabetic" transform="matrix(1, 0, 0, 1, 0.5, 0.5)" fill-opacity="1">ΔpilJ Solid</text><text fill="rgb(68,68,68)" stroke="none" font-family="helvetica" font-size="9pt" font-style="normal" font-weight="normal" text-decoration="normal" x="22.6171875" y="182.3000030517578" text-anchor="start" dominant-baseline="alphabetic" transform="matrix(1, 0, 0, 1, 0.5, 0.5)" fill-opacity="1">ΔpilJ Liquid</text><text fill="rgb(68,68,68)" stroke="none" font-family="helvetica" font-size="9pt" font-style="normal" font-weight="normal" text-decoration="normal" x="8.625" y="164.5" text-anchor="start" dominant-baseline="alphabetic" transform="matrix(1, 0, 0, 1, 0.5, 0.5)" fill-opacity="1">ΔfliCpilB Solid</text><text fill="rgb(68,68,68)" stroke="none" font-family="helvetica" font-size="9pt" font-style="normal" font-weight="normal" text-decoration="normal" x="3.28125" y="146.6999969482422" text-anchor="start" dominant-baseline="alphabetic" transform="matrix(1, 0, 0, 1, 0.5, 0.5)" fill-opacity="1">ΔfliCpilB Liquid</text><text fill="rgb(68,68,68)" stroke="none" font-family="helvetica" font-size="9pt" font-style="normal" font-weight="normal" text-decoration="normal" x="9.298828125" y="128.9000015258789" text-anchor="start" dominant-baseline="alphabetic" transform="matrix(1, 0, 0, 1, 0.5, 0.5)" fill-opacity="1">ΔfliCpilT Solid</text><text fill="rgb(68,68,68)" stroke="none" font-family="helvetica" font-size="9pt" font-style="normal" font-weight="normal" text-decoration="normal" x="3.955078125" y="111.0999984741211" text-anchor="start" dominant-baseline="alphabetic" transform="matrix(1, 0, 0, 1, 0.5, 0.5)" fill-opacity="1">ΔfliCpilT Liquid</text><text fill="rgb(68,68,68)" stroke="none" font-family="helvetica" font-size="9pt" font-style="normal" font-weight="normal" text-decoration="normal" x="8.625" y="93.30000305175781" text-anchor="start" dominant-baseline="alphabetic" transform="matrix(1, 0, 0, 1, 0.5, 0.5)" fill-opacity="1">ΔfliCpilA Solid</text><text fill="rgb(68,68,68)" stroke="none" font-family="helvetica" font-size="9pt" font-style="normal" font-weight="normal" text-decoration="normal" x="3.28125" y="75.5" text-anchor="start" dominant-baseline="alphabetic" transform="matrix(1, 0, 0, 1, 0.5, 0.5)" fill-opacity="1">ΔfliCpilA Liquid</text><text fill="rgb(68,68,68)" stroke="none" font-family="helvetica" font-size="9pt" font-style="normal" font-weight="normal" text-decoration="normal" x="28.634765625" y="57.70000076293945" text-anchor="start" dominant-baseline="alphabetic" transform="matrix(1, 0, 0, 1, 0.5, 0.5)" fill-opacity="1">ΔfliC Solid</text><text fill="rgb(68,68,68)" stroke="none" font-family="helvetica" font-size="9pt" font-style="normal" font-weight="normal" text-decoration="normal" x="23.291015625" y="39.900001525878906" text-anchor="start" dominant-baseline="alphabetic" transform="matrix(1, 0, 0, 1, 0.5, 0.5)" fill-opacity="1">ΔfliC Liquid</text><path fill="rgb(255,255,255)" stroke="rgb(229,229,229)" paint-order="fill" d="M 302.7783203125 37.5 L 460.5 37.5 L 460.5 123.5 L 302.7783203125 123.5 L 302.7783203125 37.5" fill-opacity="0.9490196078431372" clip-path="url(#XdkrVtCcKixV)" stroke-opacity="0.5019607843137255" stroke-linejoin="bevel" stroke-miterlimit="10" stroke-dasharray=""/><g clip-path="url(#XdkrVtCcKixV)"><text fill="rgb(68,68,68)" stroke="none" font-family="helvetica" font-size="13px" font-style="normal" font-weight="normal" text-decoration="normal" x="337.2783203125" y="57" text-anchor="start" dominant-baseline="central" transform="matrix(1, 0, 0, 1, 0.5, 0.5)" fill-opacity="1">mean</text></g><path fill="none" stroke="rgb(0,0,0)" paint-order="fill" d="M 312.7783203125 57.5 L 332.7783203125 57.5" stroke-opacity="1" stroke-linejoin="bevel" stroke-miterlimit="10" stroke-width="3" stroke-dasharray="" clip-path="url(#XdkrVtCcKixV)"/><g clip-path="url(#XdkrVtCcKixV)"><text fill="rgb(68,68,68)" stroke="none" font-family="helvetica" font-size="13px" font-style="normal" font-weight="normal" text-decoration="normal" x="337.2783203125" y="80" text-anchor="start" dominant-baseline="central" transform="matrix(1, 0, 0, 1, 0.5, 0.5)" fill-opacity="1">means of replicates</text></g><path fill="rgb(211,211,211)" stroke="rgb(0,0,0)" paint-order="fill" d="M 326.7783203125 80.5 A 4 4 0 1 1 326.7783183125002 80.49600000066667" fill-opacity="1" clip-path="url(#XdkrVtCcKixV)" stroke-opacity="1" stroke-linejoin="bevel" stroke-miterlimit="10" stroke-dasharray=""/><path fill="rgb(211,211,211)" stroke="rgb(0,0,0)" paint-order="fill" d="M 326.7783203125 80.5 A 4 4 0 1 1 326.7783183125002 80.49600000066667" fill-opacity="1" clip-path="url(#XdkrVtCcKixV)" stroke-opacity="1" stroke-linejoin="bevel" stroke-miterlimit="10" stroke-dasharray=""/><path fill="rgb(255,127,80)" stroke="rgb(0,0,0)" paint-order="fill" d="M 326.7783203125 80.5 A 4 4 0 1 1 326.7783183125002 80.49600000066667" fill-opacity="1" clip-path="url(#XdkrVtCcKixV)" stroke-opacity="1" stroke-linejoin="bevel" stroke-miterlimit="10" stroke-dasharray=""/><path fill="rgb(255,127,80)" stroke="rgb(0,0,0)" paint-order="fill" d="M 326.7783203125 80.5 A 4 4 0 1 1 326.7783183125002 80.49600000066667" fill-opacity="1" clip-path="url(#XdkrVtCcKixV)" stroke-opacity="1" stroke-linejoin="bevel" stroke-miterlimit="10" stroke-dasharray=""/><path fill="rgb(46,139,87)" stroke="rgb(0,0,0)" paint-order="fill" d="M 326.7783203125 80.5 A 4 4 0 1 1 326.7783183125002 80.49600000066667" fill-opacity="1" clip-path="url(#XdkrVtCcKixV)" stroke-opacity="1" stroke-linejoin="bevel" stroke-miterlimit="10" stroke-dasharray=""/><path fill="rgb(46,139,87)" stroke="rgb(0,0,0)" paint-order="fill" d="M 326.7783203125 80.5 A 4 4 0 1 1 326.7783183125002 80.49600000066667" fill-opacity="1" clip-path="url(#XdkrVtCcKixV)" stroke-opacity="1" stroke-linejoin="bevel" stroke-miterlimit="10" stroke-dasharray=""/><path fill="rgb(221,160,221)" stroke="rgb(0,0,0)" paint-order="fill" d="M 326.7783203125 80.5 A 4 4 0 1 1 326.7783183125002 80.49600000066667" fill-opacity="1" clip-path="url(#XdkrVtCcKixV)" stroke-opacity="1" stroke-linejoin="bevel" stroke-miterlimit="10" stroke-dasharray=""/><path fill="rgb(221,160,221)" stroke="rgb(0,0,0)" paint-order="fill" d="M 326.7783203125 80.5 A 4 4 0 1 1 326.7783183125002 80.49600000066667" fill-opacity="1" clip-path="url(#XdkrVtCcKixV)" stroke-opacity="1" stroke-linejoin="bevel" stroke-miterlimit="10" stroke-dasharray=""/><g clip-path="url(#XdkrVtCcKixV)"><text fill="rgb(68,68,68)" stroke="none" font-family="helvetica" font-size="13px" font-style="normal" font-weight="normal" text-decoration="normal" x="337.2783203125" y="103" text-anchor="start" dominant-baseline="central" transform="matrix(1, 0, 0, 1, 0.5, 0.5)" fill-opacity="1">Reference</text></g><path fill="none" stroke="rgb(0,0,0)" paint-order="fill" d="M 312.7783203125 103.5 L 332.7783203125 103.5" stroke-opacity="1" stroke-linejoin="bevel" stroke-miterlimit="10" stroke-dasharray="2,4" clip-path="url(#XdkrVtCcKixV)"/><text fill="rgb(68,68,68)" stroke="none" font-family="helvetica" font-size="13px" font-style="normal" font-weight="bold" text-decoration="normal" x="95" y="19" text-anchor="start" dominant-baseline="alphabetic" transform="matrix(1, 0, 0, 1, 0.5, 0.5)" fill-opacity="1"> PaQa_ratio on Liquid vs. Solid in log scale</text></svg>