<svg version="1.1" xmlns="http://www.w3.org/2000/svg" width="600" height="400"><defs><clipPath id="bkTrMaNyMBpz"><path fill="none" stroke="none" d="M 71.5 27.5 L 570.5 27.5 L 570.5 355.5 L 71.5 355.5 L 71.5 27.5"/></clipPath><clipPath id="TGaSWvreXNfw"><path fill="none" stroke="none" d="M 71.5 27.5 L 570.5 27.5 L 570.5 355.5 L 71.5 355.5 L 71.5 27.5"/></clipPath><clipPath id="ILTMLbQgyUIL"><path fill="none" stroke="none" d="M 71.5 27.5 L 570.5 27.5 L 570.5 355.5 L 71.5 355.5 L 71.5 27.5"/></clipPath><clipPath id="PssqsCTWwxgl"><path fill="none" stroke="none" d="M 71.5 27.5 L 570.5 27.5 L 570.5 355.5 L 71.5 355.5 L 71.5 27.5"/></clipPath><clipPath id="BDuyhfVDZFWX"><path fill="none" stroke="none" d="M 71.5 27.5 L 570.5 27.5 L 570.5 355.5 L 71.5 355.5 L 71.5 27.5"/></clipPath><clipPath id="TxkfdFbGKKth"><path fill="none" stroke="none" d="M 71.5 27.5 L 570.5 27.5 L 570.5 355.5 L 71.5 355.5 L 71.5 27.5"/></clipPath><clipPath id="ireSJKhAfhux"><path fill="none" stroke="none" d="M 71.5 27.5 L 570.5 27.5 L 570.5 355.5 L 71.5 355.5 L 71.5 27.5"/></clipPath><clipPath id="JXVPTkxMPTMk"><path fill="none" stroke="none" d="M 71.5 27.5 L 570.5 27.5 L 570.5 355.5 L 71.5 355.5 L 71.5 27.5"/></clipPath><clipPath id="ZWeNZsULrpGR"><path fill="none" stroke="none" d="M 71.5 27.5 L 570.5 27.5 L 570.5 355.5 L 71.5 355.5 L 71.5 27.5"/></clipPath><clipPath id="JSkMohGuwZmz"><path fill="none" stroke="none" d="M 71.5 27.5 L 570.5 27.5 L 570.5 355.5 L 71.5 355.5 L 71.5 27.5"/></clipPath><clipPath id="uWPmzoPCPeGg"><path fill="none" stroke="none" d="M 71.5 27.5 L 570.5 27.5 L 570.5 355.5 L 71.5 355.5 L 71.5 27.5"/></clipPath><clipPath id="IrzfbxTKaQUz"><path fill="none" stroke="none" d="M 71.5 27.5 L 570.5 27.5 L 570.5 355.5 L 71.5 355.5 L 71.5 27.5"/></clipPath><clipPath id="nwnVwHCTEJPg"><path fill="none" stroke="none" d="M 71.5 27.5 L 570.5 27.5 L 570.5 355.5 L 71.5 355.5 L 71.5 27.5"/></clipPath><clipPath id="aKUUDDyucJEN"><path fill="none" stroke="none" d="M 71.5 27.5 L 570.5 27.5 L 570.5 355.5 L 71.5 355.5 L 71.5 27.5"/></clipPath><clipPath id="BWhKArMOnrcM"><path fill="none" stroke="none" d="M 71.5 27.5 L 570.5 27.5 L 570.5 355.5 L 71.5 355.5 L 71.5 27.5"/></clipPath><clipPath id="DBCVIFshhhbw"><path fill="none" stroke="none" d="M 71.5 27.5 L 570.5 27.5 L 570.5 355.5 L 71.5 355.5 L 71.5 27.5"/></clipPath><clipPath id="wlgLAZOUTuHh"><path fill="none" stroke="none" d="M 71.5 27.5 L 570.5 27.5 L 570.5 355.5 L 71.5 355.5 L 71.5 27.5"/></clipPath><clipPath id="OtTvOtTVsHpX"><path fill="none" stroke="none" d="M 71.5 27.5 L 570.5 27.5 L 570.5 355.5 L 71.5 355.5 L 71.5 27.5"/></clipPath><clipPath id="SDqdGnaOJQPD"><path fill="none" stroke="none" d="M 71.5 27.5 L 570.5 27.5 L 570.5 355.5 L 71.5 355.5 L 71.5 27.5"/></clipPath><clipPath id="TKDNpUPatKtJ"><path fill="none" stroke="none" d="M 71.5 27.5 L 570.5 27.5 L 570.5 355.5 L 71.5 355.5 L 71.5 27.5"/></clipPath><clipPath id="UswJbZFnTFTR"><path fill="none" stroke="none" d="M 71.5 27.5 L 570.5 27.5 L 570.5 355.5 L 71.5 355.5 L 71.5 27.5"/></clipPath></defs><path fill="rgb(255,255,255)" stroke="none" paint-order="stroke" d="M 0.5 0.5 L 600.5 0.5 L 600.5 400.5 L 0.5 400.5 L 0.5 0.5" fill-opacity="1"/><rect fill="#FFFFFF" stroke="none" x="71" y="27" width="499" height="328" transform="matrix(1, 0, 0, 1, 0.5, 0.5)"/><path fill="rgb(255,255,255)" stroke="none" paint-order="stroke" d="M 71.5 27.5 L 570.5 27.5 L 570.5 355.5 L 71.5 355.5 L 71.5 27.5" fill-opacity="1"/><path fill="none" stroke="rgb(229,229,229)" paint-order="fill" d="M 71.5 27.5 L 570.5 27.5 L 570.5 355.5 L 71.5 355.5 L 71.5 27.5" stroke-opacity="1" stroke-linejoin="bevel" stroke-miterlimit="10" stroke-dasharray=""/><path fill="rgb(211,211,211)" stroke="rgb(0,0,0)" paint-order="fill" d="M 153.6605682373047 48 A 5 5 0 1 1 153.6605657373049 47.99500000083333" fill-opacity="1" clip-path="url(#ILTMLbQgyUIL)" stroke-opacity="1" stroke-linejoin="bevel" stroke-miterlimit="10" stroke-dasharray=""/><path fill="rgb(211,211,211)" stroke="rgb(0,0,0)" paint-order="fill" d="M 126.56155395507812 48 A 5 5 0 1 1 126.56155145507833 47.99500000083333" fill-opacity="1" clip-path="url(#ILTMLbQgyUIL)" stroke-opacity="1" stroke-linejoin="bevel" stroke-miterlimit="10" stroke-dasharray=""/><path fill="rgb(211,211,211)" stroke="rgb(0,0,0)" paint-order="fill" d="M 136.4028778076172 48 A 5 5 0 1 1 136.4028753076174 47.99500000083333" fill-opacity="1" clip-path="url(#ILTMLbQgyUIL)" stroke-opacity="1" stroke-linejoin="bevel" stroke-miterlimit="10" stroke-dasharray=""/><path fill="rgb(0,0,0)" stroke="rgb(0,0,0)" paint-order="fill" d="M 307.864013671875 89 A 5 5 0 1 1 307.86401117187523 88.99500000083333" fill-opacity="1" clip-path="url(#PssqsCTWwxgl)" stroke-opacity="1" stroke-linejoin="bevel" stroke-miterlimit="10" stroke-dasharray=""/><path fill="rgb(0,0,0)" stroke="rgb(0,0,0)" paint-order="fill" d="M 239.87957763671875 89 A 5 5 0 1 1 239.87957513671896 88.99500000083333" fill-opacity="1" clip-path="url(#PssqsCTWwxgl)" stroke-opacity="1" stroke-linejoin="bevel" stroke-miterlimit="10" stroke-dasharray=""/><path fill="rgb(0,0,0)" stroke="rgb(0,0,0)" paint-order="fill" d="M 251.3451385498047 89 A 5 5 0 1 1 251.3451360498049 88.99500000083333" fill-opacity="1" clip-path="url(#PssqsCTWwxgl)" stroke-opacity="1" stroke-linejoin="bevel" stroke-miterlimit="10" stroke-dasharray=""/><path fill="none" stroke="rgb(0,0,0)" paint-order="fill" d="M 133.875 60.30000686645508 L 133.875 35.69999313354492" stroke-opacity="1" stroke-linejoin="bevel" stroke-miterlimit="10" stroke-width="3" stroke-dasharray="" clip-path="url(#BDuyhfVDZFWX)"/><path fill="none" stroke="rgb(0,0,0)" paint-order="fill" d="M 261.3629150390625 101.30001068115234 L 261.3629150390625 76.69998931884766" stroke-opacity="1" stroke-linejoin="bevel" stroke-miterlimit="10" stroke-width="3" stroke-dasharray="" clip-path="url(#TxkfdFbGKKth)"/><path fill="rgb(211,211,211)" stroke="rgb(0,0,0)" paint-order="fill" d="M 136.39601135253906 130 A 5 5 0 1 1 136.39600885253927 129.99500000083333" fill-opacity="1" clip-path="url(#ireSJKhAfhux)" stroke-opacity="1" stroke-linejoin="bevel" stroke-miterlimit="10" stroke-dasharray=""/><path fill="rgb(211,211,211)" stroke="rgb(0,0,0)" paint-order="fill" d="M 161.96961975097656 130 A 5 5 0 1 1 161.96961725097677 129.99500000083333" fill-opacity="1" clip-path="url(#ireSJKhAfhux)" stroke-opacity="1" stroke-linejoin="bevel" stroke-miterlimit="10" stroke-dasharray=""/><path fill="none" stroke="rgb(0,0,0)" paint-order="fill" d="M 144.1828155517578 142.3000030517578 L 144.1828155517578 117.69998931884766" stroke-opacity="1" stroke-linejoin="bevel" stroke-miterlimit="10" stroke-width="3" stroke-dasharray="" clip-path="url(#JXVPTkxMPTMk)"/><path fill="rgb(0,0,255)" stroke="rgb(0,0,0)" paint-order="fill" d="M 567.583984375 171 A 5 5 0 1 1 567.5839818750002 170.99500000083333" fill-opacity="1" clip-path="url(#ZWeNZsULrpGR)" stroke-opacity="1" stroke-linejoin="bevel" stroke-miterlimit="10" stroke-dasharray=""/><path fill="rgb(0,0,255)" stroke="rgb(0,0,0)" paint-order="fill" d="M 434.65911865234375 171 A 5 5 0 1 1 434.659116152344 170.99500000083333" fill-opacity="1" clip-path="url(#ZWeNZsULrpGR)" stroke-opacity="1" stroke-linejoin="bevel" stroke-miterlimit="10" stroke-dasharray=""/><path fill="rgb(0,0,255)" stroke="rgb(0,0,0)" paint-order="fill" d="M 435.2355651855469 171 A 5 5 0 1 1 435.2355626855471 170.99500000083333" fill-opacity="1" clip-path="url(#ZWeNZsULrpGR)" stroke-opacity="1" stroke-linejoin="bevel" stroke-miterlimit="10" stroke-dasharray=""/><path fill="none" stroke="rgb(0,0,0)" paint-order="fill" d="M 474.1595458984375 183.3000030517578 L 474.1595458984375 158.6999969482422" stroke-opacity="1" stroke-linejoin="bevel" stroke-miterlimit="10" stroke-width="3" stroke-dasharray="" clip-path="url(#JSkMohGuwZmz)"/><path fill="rgb(0,255,255)" stroke="rgb(0,0,0)" paint-order="fill" d="M 402.9144287109375 212 A 5 5 0 1 1 402.91442621093773 211.99500000083333" fill-opacity="1" clip-path="url(#uWPmzoPCPeGg)" stroke-opacity="1" stroke-linejoin="bevel" stroke-miterlimit="10" stroke-dasharray=""/><path fill="rgb(0,255,255)" stroke="rgb(0,0,0)" paint-order="fill" d="M 387.5646057128906 212 A 5 5 0 1 1 387.56460321289086 211.99500000083333" fill-opacity="1" clip-path="url(#uWPmzoPCPeGg)" stroke-opacity="1" stroke-linejoin="bevel" stroke-miterlimit="10" stroke-dasharray=""/><path fill="rgb(0,255,255)" stroke="rgb(0,0,0)" paint-order="fill" d="M 353.1489562988281 212 A 5 5 0 1 1 353.14895379882836 211.99500000083333" fill-opacity="1" clip-path="url(#uWPmzoPCPeGg)" stroke-opacity="1" stroke-linejoin="bevel" stroke-miterlimit="10" stroke-dasharray=""/><path fill="none" stroke="rgb(0,0,0)" paint-order="fill" d="M 376.2093200683594 224.3000030517578 L 376.2093200683594 199.6999969482422" stroke-opacity="1" stroke-linejoin="bevel" stroke-miterlimit="10" stroke-width="3" stroke-dasharray="" clip-path="url(#IrzfbxTKaQUz)"/><path fill="rgb(0,255,127)" stroke="rgb(0,0,0)" paint-order="fill" d="M 297.38787841796875 253 A 5 5 0 1 1 297.387875917969 252.99500000083333" fill-opacity="1" clip-path="url(#nwnVwHCTEJPg)" stroke-opacity="1" stroke-linejoin="bevel" stroke-miterlimit="10" stroke-dasharray=""/><path fill="rgb(0,255,127)" stroke="rgb(0,0,0)" paint-order="fill" d="M 264.24017333984375 253 A 5 5 0 1 1 264.240170839844 252.99500000083333" fill-opacity="1" clip-path="url(#nwnVwHCTEJPg)" stroke-opacity="1" stroke-linejoin="bevel" stroke-miterlimit="10" stroke-dasharray=""/><path fill="rgb(0,255,127)" stroke="rgb(0,0,0)" paint-order="fill" d="M 255.6363983154297 253 A 5 5 0 1 1 255.6363958154299 252.99500000083333" fill-opacity="1" clip-path="url(#nwnVwHCTEJPg)" stroke-opacity="1" stroke-linejoin="bevel" stroke-miterlimit="10" stroke-dasharray=""/><path fill="none" stroke="rgb(0,0,0)" paint-order="fill" d="M 267.4214782714844 265.29998779296875 L 267.4214782714844 240.6999969482422" stroke-opacity="1" stroke-linejoin="bevel" stroke-miterlimit="10" stroke-width="3" stroke-dasharray="" clip-path="url(#aKUUDDyucJEN)"/><path fill="rgb(255,0,0)" stroke="rgb(0,0,0)" paint-order="fill" d="M 255.94007873535156 294 A 5 5 0 1 1 255.94007623535177 293.99500000083333" fill-opacity="1" clip-path="url(#BWhKArMOnrcM)" stroke-opacity="1" stroke-linejoin="bevel" stroke-miterlimit="10" stroke-dasharray=""/><path fill="rgb(255,0,0)" stroke="rgb(0,0,0)" paint-order="fill" d="M 239.2078094482422 294 A 5 5 0 1 1 239.2078069482424 293.99500000083333" fill-opacity="1" clip-path="url(#BWhKArMOnrcM)" stroke-opacity="1" stroke-linejoin="bevel" stroke-miterlimit="10" stroke-dasharray=""/><path fill="rgb(255,0,0)" stroke="rgb(0,0,0)" paint-order="fill" d="M 246.63648986816406 294 A 5 5 0 1 1 246.63648736816427 293.99500000083333" fill-opacity="1" clip-path="url(#BWhKArMOnrcM)" stroke-opacity="1" stroke-linejoin="bevel" stroke-miterlimit="10" stroke-dasharray=""/><path fill="none" stroke="rgb(0,0,0)" paint-order="fill" d="M 242.26145935058594 306.29998779296875 L 242.26145935058594 281.70001220703125" stroke-opacity="1" stroke-linejoin="bevel" stroke-miterlimit="10" stroke-width="3" stroke-dasharray="" clip-path="url(#DBCVIFshhhbw)"/><path fill="rgb(255,0,255)" stroke="rgb(0,0,0)" paint-order="fill" d="M 307.0890808105469 335 A 5 5 0 1 1 307.0890783105471 334.99500000083333" fill-opacity="1" clip-path="url(#wlgLAZOUTuHh)" stroke-opacity="1" stroke-linejoin="bevel" stroke-miterlimit="10" stroke-dasharray=""/><path fill="rgb(255,0,255)" stroke="rgb(0,0,0)" paint-order="fill" d="M 310.6159362792969 335 A 5 5 0 1 1 310.6159337792971 334.99500000083333" fill-opacity="1" clip-path="url(#wlgLAZOUTuHh)" stroke-opacity="1" stroke-linejoin="bevel" stroke-miterlimit="10" stroke-dasharray=""/><path fill="rgb(255,0,255)" stroke="rgb(0,0,0)" paint-order="fill" d="M 252.69070434570312 335 A 5 5 0 1 1 252.69070184570333 334.99500000083333" fill-opacity="1" clip-path="url(#wlgLAZOUTuHh)" stroke-opacity="1" stroke-linejoin="bevel" stroke-miterlimit="10" stroke-dasharray=""/><path fill="none" stroke="rgb(0,0,0)" paint-order="fill" d="M 285.13189697265625 347.29998779296875 L 285.13189697265625 322.70001220703125" stroke-opacity="1" stroke-linejoin="bevel" stroke-miterlimit="10" stroke-width="3" stroke-dasharray="" clip-path="url(#OtTvOtTVsHpX)"/><path fill="none" stroke="rgb(0,0,0)" paint-order="fill" d="M 133.875 355.5 L 133.875 27.5" stroke-opacity="1" stroke-linejoin="bevel" stroke-miterlimit="10" stroke-dasharray="2,4" clip-path="url(#SDqdGnaOJQPD)"/><path fill="none" stroke="rgb(0,0,0)" paint-order="fill" d="M 71.5 355.5 L 570.5 355.5" stroke-opacity="1" stroke-linejoin="bevel" stroke-miterlimit="10" stroke-dasharray=""/><path fill="none" stroke="rgb(0,0,0)" paint-order="fill" d="M 71.5 361.5 L 71.5 353.5 M 133.5 361.5 L 133.5 353.5 M 196.5 361.5 L 196.5 353.5 M 258.5 361.5 L 258.5 353.5 M 321.5 361.5 L 321.5 353.5 M 383.5 361.5 L 383.5 353.5 M 445.5 361.5 L 445.5 353.5 M 508.5 361.5 L 508.5 353.5 M 570.5 361.5 L 570.5 353.5" stroke-opacity="1" stroke-linejoin="bevel" stroke-miterlimit="10" stroke-dasharray=""/><path fill="none" stroke="rgb(0,0,0)" paint-order="fill" d="M 71.5 359.5 L 71.5 355.5 M 83.5 359.5 L 83.5 355.5 M 96.5 359.5 L 96.5 355.5 M 108.5 359.5 L 108.5 355.5 M 121.5 359.5 L 121.5 355.5 M 133.5 359.5 L 133.5 355.5 M 146.5 359.5 L 146.5 355.5 M 158.5 359.5 L 158.5 355.5 M 171.5 359.5 L 171.5 355.5 M 183.5 359.5 L 183.5 355.5 M 196.5 359.5 L 196.5 355.5 M 208.5 359.5 L 208.5 355.5 M 221.5 359.5 L 221.5 355.5 M 233.5 359.5 L 233.5 355.5 M 246.5 359.5 L 246.5 355.5 M 258.5 359.5 L 258.5 355.5 M 271.5 359.5 L 271.5 355.5 M 283.5 359.5 L 283.5 355.5 M 296.5 359.5 L 296.5 355.5 M 308.5 359.5 L 308.5 355.5 M 321.5 359.5 L 321.5 355.5 M 333.5 359.5 L 333.5 355.5 M 345.5 359.5 L 345.5 355.5 M 358.5 359.5 L 358.5 355.5 M 370.5 359.5 L 370.5 355.5 M 383.5 359.5 L 383.5 355.5 M 395.5 359.5 L 395.5 355.5 M 408.5 359.5 L 408.5 355.5 M 420.5 359.5 L 420.5 355.5 M 433.5 359.5 L 433.5 355.5 M 445.5 359.5 L 445.5 355.5 M 458.5 359.5 L 458.5 355.5 M 470.5 359.5 L 470.5 355.5 M 483.5 359.5 L 483.5 355.5 M 495.5 359.5 L 495.5 355.5 M 508.5 359.5 L 508.5 355.5 M 520.5 359.5 L 520.5 355.5 M 533.5 359.5 L 533.5 355.5 M 545.5 359.5 L 545.5 355.5 M 558.5 359.5 L 558.5 355.5 M 570.5 359.5 L 570.5 355.5" stroke-opacity="1" stroke-linejoin="bevel" stroke-miterlimit="10" stroke-dasharray=""/><text fill="rgb(68,68,68)" stroke="none" font-family="helvetica" font-size="11px" font-style="normal" font-weight="normal" text-decoration="normal" x="67.941162109375" y="374" text-anchor="start" dominant-baseline="alphabetic" transform="matrix(1, 0, 0, 1, 0.5, 0.5)" fill-opacity="1">0</text><text fill="rgb(68,68,68)" stroke="none" font-family="helvetica" font-size="11px" font-style="normal" font-weight="normal" text-decoration="normal" x="130.316162109375" y="374" text-anchor="start" dominant-baseline="alphabetic" transform="matrix(1, 0, 0, 1, 0.5, 0.5)" fill-opacity="1">1</text><text fill="rgb(68,68,68)" stroke="none" font-family="helvetica" font-size="11px" font-style="normal" font-weight="normal" text-decoration="normal" x="192.691162109375" y="374" text-anchor="start" dominant-baseline="alphabetic" transform="matrix(1, 0, 0, 1, 0.5, 0.5)" fill-opacity="1">2</text><text fill="rgb(68,68,68)" stroke="none" font-family="helvetica" font-size="11px" font-style="normal" font-weight="normal" text-decoration="normal" x="255.066162109375" y="374" text-anchor="start" dominant-baseline="alphabetic" transform="matrix(1, 0, 0, 1, 0.5, 0.5)" fill-opacity="1">3</text><text fill="rgb(68,68,68)" stroke="none" font-family="helvetica" font-size="11px" font-style="normal" font-weight="normal" text-decoration="normal" x="317.441162109375" y="374" text-anchor="start" dominant-baseline="alphabetic" transform="matrix(1, 0, 0, 1, 0.5, 0.5)" fill-opacity="1">4</text><text fill="rgb(68,68,68)" stroke="none" font-family="helvetica" font-size="11px" font-style="normal" font-weight="normal" text-decoration="normal" x="379.816162109375" y="374" text-anchor="start" dominant-baseline="alphabetic" transform="matrix(1, 0, 0, 1, 0.5, 0.5)" fill-opacity="1">5</text><text fill="rgb(68,68,68)" stroke="none" font-family="helvetica" font-size="11px" font-style="normal" font-weight="normal" text-decoration="normal" x="442.191162109375" y="374" text-anchor="start" dominant-baseline="alphabetic" transform="matrix(1, 0, 0, 1, 0.5, 0.5)" fill-opacity="1">6</text><text fill="rgb(68,68,68)" stroke="none" font-family="helvetica" font-size="11px" font-style="normal" font-weight="normal" text-decoration="normal" x="504.566162109375" y="374" text-anchor="start" dominant-baseline="alphabetic" transform="matrix(1, 0, 0, 1, 0.5, 0.5)" fill-opacity="1">7</text><text fill="rgb(68,68,68)" stroke="none" font-family="helvetica" font-size="11px" font-style="normal" font-weight="normal" text-decoration="normal" x="566.941162109375" y="374" text-anchor="start" dominant-baseline="alphabetic" transform="matrix(1, 0, 0, 1, 0.5, 0.5)" fill-opacity="1">8</text><text fill="rgb(68,68,68)" stroke="none" font-family="helvetica" font-size="13px" font-style="italic" font-weight="normal" text-decoration="normal" x="263.41552734375" y="394" text-anchor="start" dominant-baseline="alphabetic" transform="matrix(1, 0, 0, 1, 0.5, 0.5)" fill-opacity="1">Relative PaQa level</text><path fill="none" stroke="rgb(0,0,0)" paint-order="fill" d="M 71.5 355.5 L 71.5 27.5" stroke-opacity="1" stroke-linejoin="bevel" stroke-miterlimit="10" stroke-dasharray=""/><path fill="none" stroke="rgb(0,0,0)" paint-order="fill" d="M 65.5 335.5 L 73.5 335.5 M 65.5 294.5 L 73.5 294.5 M 65.5 253.5 L 73.5 253.5 M 65.5 212.5 L 73.5 212.5 M 65.5 171.5 L 73.5 171.5 M 65.5 130.5 L 73.5 130.5 M 65.5 89.5 L 73.5 89.5 M 65.5 48.5 L 73.5 48.5" stroke-opacity="1" stroke-linejoin="bevel" stroke-miterlimit="10" stroke-dasharray=""/><text fill="rgb(68,68,68)" stroke="none" font-family="helvetica" font-size="9pt" font-style="normal" font-weight="normal" text-decoration="normal" x="2.63671875" y="338.5" text-anchor="start" dominant-baseline="alphabetic" transform="matrix(1, 0, 0, 1, 0.5, 0.5)" fill-opacity="1">pilA_R36N</text><text fill="rgb(68,68,68)" stroke="none" font-family="helvetica" font-size="9pt" font-style="normal" font-weight="normal" text-decoration="normal" x="3.298828125" y="297.5" text-anchor="start" dominant-baseline="alphabetic" transform="matrix(1, 0, 0, 1, 0.5, 0.5)" fill-opacity="1">pilA_R36E</text><text fill="rgb(68,68,68)" stroke="none" font-family="helvetica" font-size="9pt" font-style="normal" font-weight="normal" text-decoration="normal" x="11.982421875" y="256.5" text-anchor="start" dominant-baseline="alphabetic" transform="matrix(1, 0, 0, 1, 0.5, 0.5)" fill-opacity="1">pilA_T8F</text><text fill="rgb(68,68,68)" stroke="none" font-family="helvetica" font-size="9pt" font-style="normal" font-weight="normal" text-decoration="normal" x="15.978515625" y="215.5" text-anchor="start" dominant-baseline="alphabetic" transform="matrix(1, 0, 0, 1, 0.5, 0.5)" fill-opacity="1">pilA_T8I</text><text fill="rgb(68,68,68)" stroke="none" font-family="helvetica" font-size="9pt" font-style="normal" font-weight="normal" text-decoration="normal" x="11.30859375" y="174.5" text-anchor="start" dominant-baseline="alphabetic" transform="matrix(1, 0, 0, 1, 0.5, 0.5)" fill-opacity="1">pilA_T8V</text><text fill="rgb(68,68,68)" stroke="none" font-family="helvetica" font-size="9pt" font-style="normal" font-weight="normal" text-decoration="normal" x="31.974609375" y="133.5" text-anchor="start" dominant-baseline="alphabetic" transform="matrix(1, 0, 0, 1, 0.5, 0.5)" fill-opacity="1">ΔpilA</text><text fill="rgb(68,68,68)" stroke="none" font-family="helvetica" font-size="9pt" font-style="normal" font-weight="normal" text-decoration="normal" x="11.326171875" y="92.5" text-anchor="start" dominant-baseline="alphabetic" transform="matrix(1, 0, 0, 1, 0.5, 0.5)" fill-opacity="1">WT Solid</text><text fill="rgb(68,68,68)" stroke="none" font-family="helvetica" font-size="9pt" font-style="normal" font-weight="normal" text-decoration="normal" x="5.982421875" y="51.5" text-anchor="start" dominant-baseline="alphabetic" transform="matrix(1, 0, 0, 1, 0.5, 0.5)" fill-opacity="1">WT Liquid</text><path fill="rgb(255,255,255)" stroke="rgb(229,229,229)" paint-order="fill" d="M 402.7783203125 37.5 L 560.5 37.5 L 560.5 100.5 L 402.7783203125 100.5 L 402.7783203125 37.5" fill-opacity="0.9490196078431372" clip-path="url(#TKDNpUPatKtJ)" stroke-opacity="0.5019607843137255" stroke-linejoin="bevel" stroke-miterlimit="10" stroke-dasharray=""/><g clip-path="url(#TKDNpUPatKtJ)"><text fill="rgb(68,68,68)" stroke="none" font-family="helvetica" font-size="13px" font-style="normal" font-weight="normal" text-decoration="normal" x="437.2783203125" y="57" text-anchor="start" dominant-baseline="central" transform="matrix(1, 0, 0, 1, 0.5, 0.5)" fill-opacity="1">means of replicates</text></g><path fill="rgb(211,211,211)" stroke="rgb(0,0,0)" paint-order="fill" d="M 426.7783203125 57.5 A 4 4 0 1 1 426.7783183125002 57.49600000066666" fill-opacity="1" clip-path="url(#TKDNpUPatKtJ)" stroke-opacity="1" stroke-linejoin="bevel" stroke-miterlimit="10" stroke-dasharray=""/><path fill="rgb(0,0,255)" stroke="rgb(0,0,0)" paint-order="fill" d="M 426.7783203125 57.5 A 4 4 0 1 1 426.7783183125002 57.49600000066666" fill-opacity="1" clip-path="url(#TKDNpUPatKtJ)" stroke-opacity="1" stroke-linejoin="bevel" stroke-miterlimit="10" stroke-dasharray=""/><path fill="rgb(0,255,255)" stroke="rgb(0,0,0)" paint-order="fill" d="M 426.7783203125 57.5 A 4 4 0 1 1 426.7783183125002 57.49600000066666" fill-opacity="1" clip-path="url(#TKDNpUPatKtJ)" stroke-opacity="1" stroke-linejoin="bevel" stroke-miterlimit="10" stroke-dasharray=""/><path fill="rgb(0,255,127)" stroke="rgb(0,0,0)" paint-order="fill" d="M 426.7783203125 57.5 A 4 4 0 1 1 426.7783183125002 57.49600000066666" fill-opacity="1" clip-path="url(#TKDNpUPatKtJ)" stroke-opacity="1" stroke-linejoin="bevel" stroke-miterlimit="10" stroke-dasharray=""/><path fill="rgb(255,0,0)" stroke="rgb(0,0,0)" paint-order="fill" d="M 426.7783203125 57.5 A 4 4 0 1 1 426.7783183125002 57.49600000066666" fill-opacity="1" clip-path="url(#TKDNpUPatKtJ)" stroke-opacity="1" stroke-linejoin="bevel" stroke-miterlimit="10" stroke-dasharray=""/><path fill="rgb(255,0,255)" stroke="rgb(0,0,0)" paint-order="fill" d="M 426.7783203125 57.5 A 4 4 0 1 1 426.7783183125002 57.49600000066666" fill-opacity="1" clip-path="url(#TKDNpUPatKtJ)" stroke-opacity="1" stroke-linejoin="bevel" stroke-miterlimit="10" stroke-dasharray=""/><g clip-path="url(#TKDNpUPatKtJ)"><text fill="rgb(68,68,68)" stroke="none" font-family="helvetica" font-size="13px" font-style="normal" font-weight="normal" text-decoration="normal" x="437.2783203125" y="80" text-anchor="start" dominant-baseline="central" transform="matrix(1, 0, 0, 1, 0.5, 0.5)" fill-opacity="1">Reference</text></g><path fill="none" stroke="rgb(0,0,0)" paint-order="fill" d="M 412.7783203125 80.5 L 432.7783203125 80.5" stroke-opacity="1" stroke-linejoin="bevel" stroke-miterlimit="10" stroke-dasharray="2,4" clip-path="url(#TKDNpUPatKtJ)"/><text fill="rgb(68,68,68)" stroke="none" font-family="helvetica" font-size="13px" font-style="normal" font-weight="bold" text-decoration="normal" x="71" y="19" text-anchor="start" dominant-baseline="alphabetic" transform="matrix(1, 0, 0, 1, 0.5, 0.5)" fill-opacity="1"> PaQa_ratio on Solid</text></svg>