<svg version="1.1" xmlns="http://www.w3.org/2000/svg" xmlns:xlink="http://www.w3.org/1999/xlink" width="600" height="400"><defs><clipPath id="yPdyToDRXTri"><path fill="none" stroke="none" d="M 107.5 27.5 L 570.5 27.5 L 570.5 355.5 L 107.5 355.5 L 107.5 27.5"/></clipPath><clipPath id="BrhKAprMVgDL"><path fill="none" stroke="none" d="M 107.5 27.5 L 570.5 27.5 L 570.5 355.5 L 107.5 355.5 L 107.5 27.5"/></clipPath><clipPath id="hbzGnxJFhzca"><path fill="none" stroke="none" d="M 107.5 27.5 L 570.5 27.5 L 570.5 355.5 L 107.5 355.5 L 107.5 27.5"/></clipPath><clipPath id="vrGuUOvWNiRn"><path fill="none" stroke="none" d="M 107.5 27.5 L 570.5 27.5 L 570.5 355.5 L 107.5 355.5 L 107.5 27.5"/></clipPath><clipPath id="kiUwcbWDOEHC"><path fill="none" stroke="none" d="M 107.5 27.5 L 570.5 27.5 L 570.5 355.5 L 107.5 355.5 L 107.5 27.5"/></clipPath><clipPath id="aQTmTeKmlQdn"><path fill="none" stroke="none" d="M 107.5 27.5 L 570.5 27.5 L 570.5 355.5 L 107.5 355.5 L 107.5 27.5"/></clipPath><clipPath id="arFyDHEFerKP"><path fill="none" stroke="none" d="M 107.5 27.5 L 570.5 27.5 L 570.5 355.5 L 107.5 355.5 L 107.5 27.5"/></clipPath><clipPath id="QvvNXgXSsRqf"><path fill="none" stroke="none" d="M 107.5 27.5 L 570.5 27.5 L 570.5 355.5 L 107.5 355.5 L 107.5 27.5"/></clipPath><clipPath id="csOwJPwTosMT"><path fill="none" stroke="none" d="M 107.5 27.5 L 570.5 27.5 L 570.5 355.5 L 107.5 355.5 L 107.5 27.5"/></clipPath><clipPath id="dwmTexPsvOXI"><path fill="none" stroke="none" d="M 107.5 27.5 L 570.5 27.5 L 570.5 355.5 L 107.5 355.5 L 107.5 27.5"/></clipPath><clipPath id="veplTOVQqDfc"><path fill="none" stroke="none" d="M 107.5 27.5 L 570.5 27.5 L 570.5 355.5 L 107.5 355.5 L 107.5 27.5"/></clipPath><clipPath id="CWIlzTSWtDPC"><path fill="none" stroke="none" d="M 107.5 27.5 L 570.5 27.5 L 570.5 355.5 L 107.5 355.5 L 107.5 27.5"/></clipPath><clipPath id="GwbSXuvyWsGo"><path fill="none" stroke="none" d="M 107.5 27.5 L 570.5 27.5 L 570.5 355.5 L 107.5 355.5 L 107.5 27.5"/></clipPath><clipPath id="tMJflZTnFthT"><path fill="none" stroke="none" d="M 107.5 27.5 L 570.5 27.5 L 570.5 355.5 L 107.5 355.5 L 107.5 27.5"/></clipPath><clipPath id="LoHtGbHZyWaT"><path fill="none" stroke="none" d="M 107.5 27.5 L 570.5 27.5 L 570.5 355.5 L 107.5 355.5 L 107.5 27.5"/></clipPath><clipPath id="MZmfBCTkchIc"><path fill="none" stroke="none" d="M 107.5 27.5 L 570.5 27.5 L 570.5 355.5 L 107.5 355.5 L 107.5 27.5"/></clipPath><clipPath id="WtUMxFnTRcmb"><path fill="none" stroke="none" d="M 107.5 27.5 L 570.5 27.5 L 570.5 355.5 L 107.5 355.5 L 107.5 27.5"/></clipPath><clipPath id="BMSIsHMeMeGQ"><path fill="none" stroke="none" d="M 107.5 27.5 L 570.5 27.5 L 570.5 355.5 L 107.5 355.5 L 107.5 27.5"/></clipPath><clipPath id="lzOXgiviEywL"><path fill="none" stroke="none" d="M 107.5 27.5 L 570.5 27.5 L 570.5 355.5 L 107.5 355.5 L 107.5 27.5"/></clipPath><clipPath id="RFMbDEvBwolu"><path fill="none" stroke="none" d="M 107.5 27.5 L 570.5 27.5 L 570.5 355.5 L 107.5 355.5 L 107.5 27.5"/></clipPath><clipPath id="ihJmWDMcWHzJ"><path fill="none" stroke="none" d="M 107.5 27.5 L 570.5 27.5 L 570.5 355.5 L 107.5 355.5 L 107.5 27.5"/></clipPath><clipPath id="tawKHMwoDtKv"><path fill="none" stroke="none" d="M 107.5 27.5 L 570.5 27.5 L 570.5 355.5 L 107.5 355.5 L 107.5 27.5"/></clipPath><clipPath id="UBqBxJbAAQRC"><path fill="none" stroke="none" d="M 107.5 27.5 L 570.5 27.5 L 570.5 355.5 L 107.5 355.5 L 107.5 27.5"/></clipPath><clipPath id="FObqQvyntcys"><path fill="none" stroke="none" d="M 107.5 27.5 L 570.5 27.5 L 570.5 355.5 L 107.5 355.5 L 107.5 27.5"/></clipPath><clipPath id="CFBkTOLtTdDE"><path fill="none" stroke="none" d="M 107.5 27.5 L 570.5 27.5 L 570.5 355.5 L 107.5 355.5 L 107.5 27.5"/></clipPath><clipPath id="hENvUZSaFklV"><path fill="none" stroke="none" d="M 107.5 27.5 L 570.5 27.5 L 570.5 355.5 L 107.5 355.5 L 107.5 27.5"/></clipPath><clipPath id="bzRdZgSUlDsB"><path fill="none" stroke="none" d="M 107.5 27.5 L 570.5 27.5 L 570.5 355.5 L 107.5 355.5 L 107.5 27.5"/></clipPath><clipPath id="DwHHNmGKzceB"><path fill="none" stroke="none" d="M 107.5 27.5 L 570.5 27.5 L 570.5 355.5 L 107.5 355.5 L 107.5 27.5"/></clipPath><clipPath id="KnwhoiqEhOTf"><path fill="none" stroke="none" d="M 107.5 27.5 L 570.5 27.5 L 570.5 355.5 L 107.5 355.5 L 107.5 27.5"/></clipPath><clipPath id="JtozipEPctFS"><path fill="none" stroke="none" d="M 107.5 27.5 L 570.5 27.5 L 570.5 355.5 L 107.5 355.5 L 107.5 27.5"/></clipPath><clipPath id="amVEcptFtCTJ"><path fill="none" stroke="none" d="M 107.5 27.5 L 570.5 27.5 L 570.5 355.5 L 107.5 355.5 L 107.5 27.5"/></clipPath><clipPath id="zeSrSFCwMqqO"><path fill="none" stroke="none" d="M 107.5 27.5 L 570.5 27.5 L 570.5 355.5 L 107.5 355.5 L 107.5 27.5"/></clipPath><clipPath id="WJIsFNTREhfC"><path fill="none" stroke="none" d="M 107.5 27.5 L 570.5 27.5 L 570.5 355.5 L 107.5 355.5 L 107.5 27.5"/></clipPath></defs><path fill="rgb(255,255,255)" stroke="none" paint-order="stroke" d="M 0.5 0.5 L 600.5 0.5 L 600.5 400.5 L 0.5 400.5 L 0.5 0.5" fill-opacity="1"/><rect fill="#FFFFFF" stroke="none" x="107" y="27" width="463" height="328" transform="matrix(1, 0, 0, 1, 0.5, 0.5)"/><path fill="rgb(255,255,255)" stroke="none" paint-order="stroke" d="M 107.5 27.5 L 570.5 27.5 L 570.5 355.5 L 107.5 355.5 L 107.5 27.5" fill-opacity="1"/><path fill="none" stroke="rgb(229,229,229)" paint-order="fill" d="M 107.5 27.5 L 570.5 27.5 L 570.5 355.5 L 107.5 355.5 L 107.5 27.5" stroke-opacity="1" stroke-linejoin="bevel" stroke-miterlimit="10" stroke-dasharray=""/><path fill="none" stroke="none"/><path fill="rgb(31,119,180)" stroke="rgb(0,0,0)" paint-order="fill" d="M 182.70269775390625 39.21428680419922 A 5 5 0 1 1 182.70269525390646 39.20928680503255" fill-opacity="1" clip-path="url(#hbzGnxJFhzca)" stroke-opacity="1" stroke-linejoin="bevel" stroke-miterlimit="10" stroke-dasharray=""/><path fill="rgb(31,119,180)" stroke="rgb(0,0,0)" paint-order="fill" d="M 158.04730224609375 39.21428680419922 A 5 5 0 1 1 158.04729974609396 39.20928680503255" fill-opacity="1" clip-path="url(#hbzGnxJFhzca)" stroke-opacity="1" stroke-linejoin="bevel" stroke-miterlimit="10" stroke-dasharray=""/><path fill="none" stroke="none"/><path fill="none" stroke="rgb(0,0,0)" paint-order="fill" d="M 165.375 43.899993896484375 L 165.375 34.5285758972168" stroke-opacity="1" stroke-linejoin="bevel" stroke-miterlimit="10" stroke-width="3" stroke-dasharray="" clip-path="url(#vrGuUOvWNiRn)"/><path fill="none" stroke="none"/><path fill="rgb(174,199,232)" stroke="rgb(0,0,0)" paint-order="fill" d="M 323.0010070800781 62.64285659790039 A 5 5 0 1 1 323.00100458007836 62.63785659873372" fill-opacity="1" clip-path="url(#kiUwcbWDOEHC)" stroke-opacity="1" stroke-linejoin="bevel" stroke-miterlimit="10" stroke-dasharray=""/><path fill="rgb(174,199,232)" stroke="rgb(0,0,0)" paint-order="fill" d="M 261.1470031738281 62.64285659790039 A 5 5 0 1 1 261.14700067382836 62.63785659873372" fill-opacity="1" clip-path="url(#kiUwcbWDOEHC)" stroke-opacity="1" stroke-linejoin="bevel" stroke-miterlimit="10" stroke-dasharray=""/><path fill="none" stroke="none"/><path fill="none" stroke="rgb(0,0,0)" paint-order="fill" d="M 287.0740051269531 67.32856750488281 L 287.0740051269531 57.95714569091797" stroke-opacity="1" stroke-linejoin="bevel" stroke-miterlimit="10" stroke-width="3" stroke-dasharray="" clip-path="url(#aQTmTeKmlQdn)"/><path fill="none" stroke="none"/><path fill="rgb(255,127,14)" stroke="rgb(0,0,0)" paint-order="fill" d="M 155.67828369140625 86.07142639160156 A 5 5 0 1 1 155.67828119140646 86.06642639243489" fill-opacity="1" clip-path="url(#arFyDHEFerKP)" stroke-opacity="1" stroke-linejoin="bevel" stroke-miterlimit="10" stroke-dasharray=""/><path fill="none" stroke="none"/><path fill="none" stroke="rgb(0,0,0)" paint-order="fill" d="M 150.67828369140625 93.10000610351562 L 150.67828369140625 79.04285430908203" stroke-opacity="1" stroke-linejoin="bevel" stroke-miterlimit="10" stroke-width="3" stroke-dasharray="" clip-path="url(#QvvNXgXSsRqf)"/><path fill="none" stroke="none"/><path fill="rgb(255,127,14)" stroke="rgb(0,0,0)" paint-order="fill" d="M 166.9949493408203 109.5 A 5 5 0 1 1 166.99494684082052 109.49500000083333" fill-opacity="1" clip-path="url(#csOwJPwTosMT)" stroke-opacity="1" stroke-linejoin="bevel" stroke-miterlimit="10" stroke-dasharray=""/><path fill="none" stroke="none"/><path fill="none" stroke="rgb(0,0,0)" paint-order="fill" d="M 161.9949493408203 116.52857971191406 L 161.9949493408203 102.47142791748047" stroke-opacity="1" stroke-linejoin="bevel" stroke-miterlimit="10" stroke-width="3" stroke-dasharray="" clip-path="url(#dwmTexPsvOXI)"/><path fill="none" stroke="none"/><path fill="rgb(255,187,120)" stroke="rgb(0,0,0)" paint-order="fill" d="M 298.38580322265625 132.92857360839844 A 5 5 0 1 1 298.3858007226565 132.92357360923177" fill-opacity="1" clip-path="url(#veplTOVQqDfc)" stroke-opacity="1" stroke-linejoin="bevel" stroke-miterlimit="10" stroke-dasharray=""/><path fill="rgb(255,187,120)" stroke="rgb(0,0,0)" paint-order="fill" d="M 200.7371368408203 132.92857360839844 A 5 5 0 1 1 200.73713434082052 132.92357360923177" fill-opacity="1" clip-path="url(#veplTOVQqDfc)" stroke-opacity="1" stroke-linejoin="bevel" stroke-miterlimit="10" stroke-dasharray=""/><path fill="none" stroke="none"/><path fill="none" stroke="rgb(0,0,0)" paint-order="fill" d="M 244.56146240234375 139.9571533203125 L 244.56146240234375 125.89999389648438" stroke-opacity="1" stroke-linejoin="bevel" stroke-miterlimit="10" stroke-width="3" stroke-dasharray="" clip-path="url(#CWIlzTSWtDPC)"/><path fill="none" stroke="none"/><path fill="rgb(255,187,120)" stroke="rgb(0,0,0)" paint-order="fill" d="M 559.3009643554688 156.35714721679688 A 5 5 0 1 1 559.3009618554689 156.3521472176302" fill-opacity="1" clip-path="url(#GwbSXuvyWsGo)" stroke-opacity="1" stroke-linejoin="bevel" stroke-miterlimit="10" stroke-dasharray=""/><path fill="rgb(255,187,120)" stroke="rgb(0,0,0)" paint-order="fill" d="M 438.36248779296875 156.35714721679688 A 5 5 0 1 1 438.362485292969 156.3521472176302" fill-opacity="1" clip-path="url(#GwbSXuvyWsGo)" stroke-opacity="1" stroke-linejoin="bevel" stroke-miterlimit="10" stroke-dasharray=""/><path fill="none" stroke="none"/><path fill="none" stroke="rgb(0,0,0)" paint-order="fill" d="M 493.83172607421875 163.38571166992188 L 493.83172607421875 149.3285675048828" stroke-opacity="1" stroke-linejoin="bevel" stroke-miterlimit="10" stroke-width="3" stroke-dasharray="" clip-path="url(#tMJflZTnFthT)"/><path fill="none" stroke="none"/><path fill="rgb(44,160,44)" stroke="rgb(0,0,0)" paint-order="fill" d="M 346.7087097167969 179.7857208251953 A 5 5 0 1 1 346.7087072167971 179.78072082602864" fill-opacity="1" clip-path="url(#LoHtGbHZyWaT)" stroke-opacity="1" stroke-linejoin="bevel" stroke-miterlimit="10" stroke-dasharray=""/><path fill="rgb(44,160,44)" stroke="rgb(0,0,0)" paint-order="fill" d="M 222.9811248779297 179.7857208251953 A 5 5 0 1 1 222.9811223779299 179.78072082602864" fill-opacity="1" clip-path="url(#LoHtGbHZyWaT)" stroke-opacity="1" stroke-linejoin="bevel" stroke-miterlimit="10" stroke-dasharray=""/><path fill="none" stroke="none"/><path fill="none" stroke="rgb(0,0,0)" paint-order="fill" d="M 279.84490966796875 186.8142852783203 L 279.84490966796875 172.75714111328125" stroke-opacity="1" stroke-linejoin="bevel" stroke-miterlimit="10" stroke-width="3" stroke-dasharray="" clip-path="url(#MZmfBCTkchIc)"/><path fill="none" stroke="none"/><path fill="rgb(44,160,44)" stroke="rgb(0,0,0)" paint-order="fill" d="M 409.4803466796875 203.2142791748047 A 5 5 0 1 1 409.48034417968773 203.20927917563802" fill-opacity="1" clip-path="url(#WtUMxFnTRcmb)" stroke-opacity="1" stroke-linejoin="bevel" stroke-miterlimit="10" stroke-dasharray=""/><path fill="rgb(44,160,44)" stroke="rgb(0,0,0)" paint-order="fill" d="M 395.5146789550781 203.2142791748047 A 5 5 0 1 1 395.51467645507836 203.20927917563802" fill-opacity="1" clip-path="url(#WtUMxFnTRcmb)" stroke-opacity="1" stroke-linejoin="bevel" stroke-miterlimit="10" stroke-dasharray=""/><path fill="none" stroke="none"/><path fill="none" stroke="rgb(0,0,0)" paint-order="fill" d="M 397.49749755859375 210.24285888671875 L 397.49749755859375 196.1857147216797" stroke-opacity="1" stroke-linejoin="bevel" stroke-miterlimit="10" stroke-width="3" stroke-dasharray="" clip-path="url(#BMSIsHMeMeGQ)"/><path fill="none" stroke="none"/><path fill="rgb(152,223,138)" stroke="rgb(0,0,0)" paint-order="fill" d="M 287.179443359375 226.64285278320312 A 5 5 0 1 1 287.17944085937523 226.63785278403645" fill-opacity="1" clip-path="url(#lzOXgiviEywL)" stroke-opacity="1" stroke-linejoin="bevel" stroke-miterlimit="10" stroke-dasharray=""/><path fill="rgb(152,223,138)" stroke="rgb(0,0,0)" paint-order="fill" d="M 179.13050842285156 226.64285278320312 A 5 5 0 1 1 179.13050592285177 226.63785278403645" fill-opacity="1" clip-path="url(#lzOXgiviEywL)" stroke-opacity="1" stroke-linejoin="bevel" stroke-miterlimit="10" stroke-dasharray=""/><path fill="none" stroke="none"/><path fill="none" stroke="rgb(0,0,0)" paint-order="fill" d="M 228.15496826171875 233.6714324951172 L 228.15496826171875 219.61428833007812" stroke-opacity="1" stroke-linejoin="bevel" stroke-miterlimit="10" stroke-width="3" stroke-dasharray="" clip-path="url(#RFMbDEvBwolu)"/><path fill="none" stroke="none"/><path fill="rgb(152,223,138)" stroke="rgb(0,0,0)" paint-order="fill" d="M 313.46954345703125 250.07142639160156 A 5 5 0 1 1 313.4695409570315 250.0664263924349" fill-opacity="1" clip-path="url(#ihJmWDMcWHzJ)" stroke-opacity="1" stroke-linejoin="bevel" stroke-miterlimit="10" stroke-dasharray=""/><path fill="rgb(152,223,138)" stroke="rgb(0,0,0)" paint-order="fill" d="M 283.3108825683594 250.07142639160156 A 5 5 0 1 1 283.3108800683596 250.0664263924349" fill-opacity="1" clip-path="url(#ihJmWDMcWHzJ)" stroke-opacity="1" stroke-linejoin="bevel" stroke-miterlimit="10" stroke-dasharray=""/><path fill="none" stroke="none"/><path fill="none" stroke="rgb(0,0,0)" paint-order="fill" d="M 293.3902282714844 257.1000061035156 L 293.3902282714844 243.0428466796875" stroke-opacity="1" stroke-linejoin="bevel" stroke-miterlimit="10" stroke-width="3" stroke-dasharray="" clip-path="url(#tawKHMwoDtKv)"/><path fill="none" stroke="none"/><path fill="rgb(214,39,40)" stroke="rgb(0,0,0)" paint-order="fill" d="M 174.79481506347656 273.5 A 5 5 0 1 1 174.79481256347677 273.49500000083333" fill-opacity="1" clip-path="url(#UBqBxJbAAQRC)" stroke-opacity="1" stroke-linejoin="bevel" stroke-miterlimit="10" stroke-dasharray=""/><path fill="rgb(214,39,40)" stroke="rgb(0,0,0)" paint-order="fill" d="M 166.6005859375 273.5 A 5 5 0 1 1 166.6005834375002 273.49500000083333" fill-opacity="1" clip-path="url(#UBqBxJbAAQRC)" stroke-opacity="1" stroke-linejoin="bevel" stroke-miterlimit="10" stroke-dasharray=""/><path fill="none" stroke="none"/><path fill="none" stroke="rgb(0,0,0)" paint-order="fill" d="M 165.6977081298828 280.528564453125 L 165.6977081298828 266.471435546875" stroke-opacity="1" stroke-linejoin="bevel" stroke-miterlimit="10" stroke-width="3" stroke-dasharray="" clip-path="url(#FObqQvyntcys)"/><path fill="none" stroke="none"/><path fill="rgb(214,39,40)" stroke="rgb(0,0,0)" paint-order="fill" d="M 275.7592468261719 296.9285583496094 A 5 5 0 1 1 275.7592443261721 296.9235583504427" fill-opacity="1" clip-path="url(#CFBkTOLtTdDE)" stroke-opacity="1" stroke-linejoin="bevel" stroke-miterlimit="10" stroke-dasharray=""/><path fill="rgb(214,39,40)" stroke="rgb(0,0,0)" paint-order="fill" d="M 260.5358123779297 296.9285583496094 A 5 5 0 1 1 260.5358098779299 296.9235583504427" fill-opacity="1" clip-path="url(#CFBkTOLtTdDE)" stroke-opacity="1" stroke-linejoin="bevel" stroke-miterlimit="10" stroke-dasharray=""/><path fill="none" stroke="none"/><path fill="none" stroke="rgb(0,0,0)" paint-order="fill" d="M 263.14752197265625 303.9571533203125 L 263.14752197265625 289.8999938964844" stroke-opacity="1" stroke-linejoin="bevel" stroke-miterlimit="10" stroke-width="3" stroke-dasharray="" clip-path="url(#hENvUZSaFklV)"/><path fill="none" stroke="none"/><path fill="rgb(255,152,150)" stroke="rgb(0,0,0)" paint-order="fill" d="M 178.20223999023438 320.3571472167969 A 5 5 0 1 1 178.20223749023458 320.3521472176302" fill-opacity="1" clip-path="url(#bzRdZgSUlDsB)" stroke-opacity="1" stroke-linejoin="bevel" stroke-miterlimit="10" stroke-dasharray=""/><path fill="rgb(255,152,150)" stroke="rgb(0,0,0)" paint-order="fill" d="M 171.64544677734375 320.3571472167969 A 5 5 0 1 1 171.64544427734396 320.3521472176302" fill-opacity="1" clip-path="url(#bzRdZgSUlDsB)" stroke-opacity="1" stroke-linejoin="bevel" stroke-miterlimit="10" stroke-dasharray=""/><path fill="none" stroke="none"/><path fill="none" stroke="rgb(0,0,0)" paint-order="fill" d="M 169.92384338378906 327.3857116699219 L 169.92384338378906 313.3285827636719" stroke-opacity="1" stroke-linejoin="bevel" stroke-miterlimit="10" stroke-width="3" stroke-dasharray="" clip-path="url(#DwHHNmGKzceB)"/><path fill="none" stroke="none"/><path fill="rgb(255,152,150)" stroke="rgb(0,0,0)" paint-order="fill" d="M 322.29595947265625 343.78570556640625 A 5 5 0 1 1 322.2959569726565 343.7807055672396" fill-opacity="1" clip-path="url(#KnwhoiqEhOTf)" stroke-opacity="1" stroke-linejoin="bevel" stroke-miterlimit="10" stroke-dasharray=""/><path fill="rgb(255,152,150)" stroke="rgb(0,0,0)" paint-order="fill" d="M 325.5047912597656 343.78570556640625 A 5 5 0 1 1 325.50478875976586 343.7807055672396" fill-opacity="1" clip-path="url(#KnwhoiqEhOTf)" stroke-opacity="1" stroke-linejoin="bevel" stroke-miterlimit="10" stroke-dasharray=""/><path fill="none" stroke="none"/><path fill="none" stroke="rgb(0,0,0)" paint-order="fill" d="M 318.9003601074219 350.8143005371094 L 318.9003601074219 336.75714111328125" stroke-opacity="1" stroke-linejoin="bevel" stroke-miterlimit="10" stroke-width="3" stroke-dasharray="" clip-path="url(#JtozipEPctFS)"/><path fill="none" stroke="none"/><path fill="none" stroke="rgb(0,0,0)" paint-order="fill" d="M 165.375 355.5 L 165.375 27.5" stroke-opacity="1" stroke-linejoin="bevel" stroke-miterlimit="10" stroke-dasharray="2,4" clip-path="url(#amVEcptFtCTJ)"/><path fill="none" stroke="rgb(0,0,0)" paint-order="fill" d="M 107.5 355.5 L 570.5 355.5" stroke-opacity="1" stroke-linejoin="bevel" stroke-miterlimit="10" stroke-dasharray=""/><path fill="none" stroke="rgb(0,0,0)" paint-order="fill" d="M 107.5 361.5 L 107.5 353.5 M 165.5 361.5 L 165.5 353.5 M 223.5 361.5 L 223.5 353.5 M 281.5 361.5 L 281.5 353.5 M 339.5 361.5 L 339.5 353.5 M 396.5 361.5 L 396.5 353.5 M 454.5 361.5 L 454.5 353.5 M 512.5 361.5 L 512.5 353.5 M 570.5 361.5 L 570.5 353.5" stroke-opacity="1" stroke-linejoin="bevel" stroke-miterlimit="10" stroke-dasharray=""/><path fill="none" stroke="rgb(0,0,0)" paint-order="fill" d="M 107.5 359.5 L 107.5 355.5 M 119.5 359.5 L 119.5 355.5 M 130.5 359.5 L 130.5 355.5 M 142.5 359.5 L 142.5 355.5 M 153.5 359.5 L 153.5 355.5 M 165.5 359.5 L 165.5 355.5 M 176.5 359.5 L 176.5 355.5 M 188.5 359.5 L 188.5 355.5 M 200.5 359.5 L 200.5 355.5 M 211.5 359.5 L 211.5 355.5 M 223.5 359.5 L 223.5 355.5 M 234.5 359.5 L 234.5 355.5 M 246.5 359.5 L 246.5 355.5 M 257.5 359.5 L 257.5 355.5 M 269.5 359.5 L 269.5 355.5 M 281.5 359.5 L 281.5 355.5 M 292.5 359.5 L 292.5 355.5 M 304.5 359.5 L 304.5 355.5 M 315.5 359.5 L 315.5 355.5 M 327.5 359.5 L 327.5 355.5 M 339.5 359.5 L 339.5 355.5 M 350.5 359.5 L 350.5 355.5 M 362.5 359.5 L 362.5 355.5 M 373.5 359.5 L 373.5 355.5 M 385.5 359.5 L 385.5 355.5 M 396.5 359.5 L 396.5 355.5 M 408.5 359.5 L 408.5 355.5 M 420.5 359.5 L 420.5 355.5 M 431.5 359.5 L 431.5 355.5 M 443.5 359.5 L 443.5 355.5 M 454.5 359.5 L 454.5 355.5 M 466.5 359.5 L 466.5 355.5 M 477.5 359.5 L 477.5 355.5 M 489.5 359.5 L 489.5 355.5 M 501.5 359.5 L 501.5 355.5 M 512.5 359.5 L 512.5 355.5 M 524.5 359.5 L 524.5 355.5 M 535.5 359.5 L 535.5 355.5 M 547.5 359.5 L 547.5 355.5 M 558.5 359.5 L 558.5 355.5 M 570.5 359.5 L 570.5 355.5" stroke-opacity="1" stroke-linejoin="bevel" stroke-miterlimit="10" stroke-dasharray=""/><text fill="rgb(68,68,68)" stroke="none" font-family="helvetica" font-size="11px" font-style="normal" font-weight="normal" text-decoration="normal" x="103.941162109375" y="374" text-anchor="start" dominant-baseline="alphabetic" transform="matrix(1, 0, 0, 1, 0.5, 0.5)" fill-opacity="1">0</text><text fill="rgb(68,68,68)" stroke="none" font-family="helvetica" font-size="11px" font-style="normal" font-weight="normal" text-decoration="normal" x="161.816162109375" y="374" text-anchor="start" dominant-baseline="alphabetic" transform="matrix(1, 0, 0, 1, 0.5, 0.5)" fill-opacity="1">1</text><text fill="rgb(68,68,68)" stroke="none" font-family="helvetica" font-size="11px" font-style="normal" font-weight="normal" text-decoration="normal" x="219.691162109375" y="374" text-anchor="start" dominant-baseline="alphabetic" transform="matrix(1, 0, 0, 1, 0.5, 0.5)" fill-opacity="1">2</text><text fill="rgb(68,68,68)" stroke="none" font-family="helvetica" font-size="11px" font-style="normal" font-weight="normal" text-decoration="normal" x="277.566162109375" y="374" text-anchor="start" dominant-baseline="alphabetic" transform="matrix(1, 0, 0, 1, 0.5, 0.5)" fill-opacity="1">3</text><text fill="rgb(68,68,68)" stroke="none" font-family="helvetica" font-size="11px" font-style="normal" font-weight="normal" text-decoration="normal" x="335.441162109375" y="374" text-anchor="start" dominant-baseline="alphabetic" transform="matrix(1, 0, 0, 1, 0.5, 0.5)" fill-opacity="1">4</text><text fill="rgb(68,68,68)" stroke="none" font-family="helvetica" font-size="11px" font-style="normal" font-weight="normal" text-decoration="normal" x="393.316162109375" y="374" text-anchor="start" dominant-baseline="alphabetic" transform="matrix(1, 0, 0, 1, 0.5, 0.5)" fill-opacity="1">5</text><text fill="rgb(68,68,68)" stroke="none" font-family="helvetica" font-size="11px" font-style="normal" font-weight="normal" text-decoration="normal" x="451.191162109375" y="374" text-anchor="start" dominant-baseline="alphabetic" transform="matrix(1, 0, 0, 1, 0.5, 0.5)" fill-opacity="1">6</text><text fill="rgb(68,68,68)" stroke="none" font-family="helvetica" font-size="11px" font-style="normal" font-weight="normal" text-decoration="normal" x="509.066162109375" y="374" text-anchor="start" dominant-baseline="alphabetic" transform="matrix(1, 0, 0, 1, 0.5, 0.5)" fill-opacity="1">7</text><text fill="rgb(68,68,68)" stroke="none" font-family="helvetica" font-size="11px" font-style="normal" font-weight="normal" text-decoration="normal" x="566.941162109375" y="374" text-anchor="start" dominant-baseline="alphabetic" transform="matrix(1, 0, 0, 1, 0.5, 0.5)" fill-opacity="1">8</text><text fill="rgb(68,68,68)" stroke="none" font-family="helvetica" font-size="13px" font-style="italic" font-weight="normal" text-decoration="normal" x="281.41552734375" y="394" text-anchor="start" dominant-baseline="alphabetic" transform="matrix(1, 0, 0, 1, 0.5, 0.5)" fill-opacity="1">Relative PaQa level</text><path fill="none" stroke="rgb(0,0,0)" paint-order="fill" d="M 107.5 355.5 L 107.5 27.5" stroke-opacity="1" stroke-linejoin="bevel" stroke-miterlimit="10" stroke-dasharray=""/><path fill="none" stroke="rgb(0,0,0)" paint-order="fill" d="M 101.5 343.5 L 109.5 343.5 M 101.5 320.5 L 109.5 320.5 M 101.5 296.5 L 109.5 296.5 M 101.5 273.5 L 109.5 273.5 M 101.5 250.5 L 109.5 250.5 M 101.5 226.5 L 109.5 226.5 M 101.5 203.5 L 109.5 203.5 M 101.5 179.5 L 109.5 179.5 M 101.5 156.5 L 109.5 156.5 M 101.5 132.5 L 109.5 132.5 M 101.5 109.5 L 109.5 109.5 M 101.5 86.5 L 109.5 86.5 M 101.5 62.5 L 109.5 62.5 M 101.5 39.5 L 109.5 39.5" stroke-opacity="1" stroke-linejoin="bevel" stroke-miterlimit="10" stroke-dasharray=""/><text fill="rgb(68,68,68)" stroke="none" font-family="helvetica" font-size="9pt" font-style="normal" font-weight="normal" text-decoration="normal" x="8.619140625" y="347.28570556640625" text-anchor="start" dominant-baseline="alphabetic" transform="matrix(1, 0, 0, 1, 0.5, 0.5)" fill-opacity="1">pilA_R36N Solid</text><text fill="rgb(68,68,68)" stroke="none" font-family="helvetica" font-size="9pt" font-style="normal" font-weight="normal" text-decoration="normal" x="3.275390625" y="323.8571472167969" text-anchor="start" dominant-baseline="alphabetic" transform="matrix(1, 0, 0, 1, 0.5, 0.5)" fill-opacity="1">pilA_R36N Liquid</text><text fill="rgb(68,68,68)" stroke="none" font-family="helvetica" font-size="9pt" font-style="normal" font-weight="normal" text-decoration="normal" x="9.28125" y="300.4285583496094" text-anchor="start" dominant-baseline="alphabetic" transform="matrix(1, 0, 0, 1, 0.5, 0.5)" fill-opacity="1">pilA_R36E Solid</text><text fill="rgb(68,68,68)" stroke="none" font-family="helvetica" font-size="9pt" font-style="normal" font-weight="normal" text-decoration="normal" x="3.9375" y="277" text-anchor="start" dominant-baseline="alphabetic" transform="matrix(1, 0, 0, 1, 0.5, 0.5)" fill-opacity="1">pilA_R36E Liquid</text><text fill="rgb(68,68,68)" stroke="none" font-family="helvetica" font-size="9pt" font-style="normal" font-weight="normal" text-decoration="normal" x="17.96484375" y="253.57142639160156" text-anchor="start" dominant-baseline="alphabetic" transform="matrix(1, 0, 0, 1, 0.5, 0.5)" fill-opacity="1">pilA_T8F Solid</text><text fill="rgb(68,68,68)" stroke="none" font-family="helvetica" font-size="9pt" font-style="normal" font-weight="normal" text-decoration="normal" x="12.62109375" y="230.14285278320312" text-anchor="start" dominant-baseline="alphabetic" transform="matrix(1, 0, 0, 1, 0.5, 0.5)" fill-opacity="1">pilA_T8F Liquid</text><text fill="rgb(68,68,68)" stroke="none" font-family="helvetica" font-size="9pt" font-style="normal" font-weight="normal" text-decoration="normal" x="21.9609375" y="206.7142791748047" text-anchor="start" dominant-baseline="alphabetic" transform="matrix(1, 0, 0, 1, 0.5, 0.5)" fill-opacity="1">pilA_T8I Solid</text><text fill="rgb(68,68,68)" stroke="none" font-family="helvetica" font-size="9pt" font-style="normal" font-weight="normal" text-decoration="normal" x="16.6171875" y="183.2857208251953" text-anchor="start" dominant-baseline="alphabetic" transform="matrix(1, 0, 0, 1, 0.5, 0.5)" fill-opacity="1">pilA_T8I Liquid</text><text fill="rgb(68,68,68)" stroke="none" font-family="helvetica" font-size="9pt" font-style="normal" font-weight="normal" text-decoration="normal" x="17.291015625" y="159.85714721679688" text-anchor="start" dominant-baseline="alphabetic" transform="matrix(1, 0, 0, 1, 0.5, 0.5)" fill-opacity="1">pilA_T8V Solid</text><text fill="rgb(68,68,68)" stroke="none" font-family="helvetica" font-size="9pt" font-style="normal" font-weight="normal" text-decoration="normal" x="11.947265625" y="136.42857360839844" text-anchor="start" dominant-baseline="alphabetic" transform="matrix(1, 0, 0, 1, 0.5, 0.5)" fill-opacity="1">pilA_T8V Liquid</text><text fill="rgb(68,68,68)" stroke="none" font-family="helvetica" font-size="9pt" font-style="normal" font-weight="normal" text-decoration="normal" x="37.95703125" y="113" text-anchor="start" dominant-baseline="alphabetic" transform="matrix(1, 0, 0, 1, 0.5, 0.5)" fill-opacity="1">ΔpilA Solid</text><text fill="rgb(68,68,68)" stroke="none" font-family="helvetica" font-size="9pt" font-style="normal" font-weight="normal" text-decoration="normal" x="32.61328125" y="89.57142639160156" text-anchor="start" dominant-baseline="alphabetic" transform="matrix(1, 0, 0, 1, 0.5, 0.5)" fill-opacity="1">ΔpilA Liquid</text><text fill="rgb(68,68,68)" stroke="none" font-family="helvetica" font-size="9pt" font-style="normal" font-weight="normal" text-decoration="normal" x="47.326171875" y="66.14285659790039" text-anchor="start" dominant-baseline="alphabetic" transform="matrix(1, 0, 0, 1, 0.5, 0.5)" fill-opacity="1">WT Solid</text><text fill="rgb(68,68,68)" stroke="none" font-family="helvetica" font-size="9pt" font-style="normal" font-weight="normal" text-decoration="normal" x="41.982421875" y="42.71428680419922" text-anchor="start" dominant-baseline="alphabetic" transform="matrix(1, 0, 0, 1, 0.5, 0.5)" fill-opacity="1">WT Liquid</text><path fill="rgb(255,255,255)" stroke="rgb(229,229,229)" paint-order="fill" d="M 402.7783203125 37.5 L 560.5 37.5 L 560.5 123.5 L 402.7783203125 123.5 L 402.7783203125 37.5" fill-opacity="0.9490196078431372" clip-path="url(#zeSrSFCwMqqO)" stroke-opacity="0.5019607843137255" stroke-linejoin="bevel" stroke-miterlimit="10" stroke-dasharray=""/><text fill="rgb(68,68,68)" stroke="none" font-family="helvetica" font-size="13px" font-style="normal" font-weight="normal" text-decoration="normal" x="437.2783203125" y="57" text-anchor="start" dominant-baseline="central" transform="matrix(1, 0, 0, 1, 0.5, 0.5)" fill-opacity="1">mean</text><path fill="none" stroke="rgb(0,0,0)" paint-order="fill" d="M 412.7783203125 57.5 L 432.7783203125 57.5" stroke-opacity="1" stroke-linejoin="bevel" stroke-miterlimit="10" stroke-width="3" stroke-dasharray="" clip-path="url(#zeSrSFCwMqqO)"/><text fill="rgb(68,68,68)" stroke="none" font-family="helvetica" font-size="13px" font-style="normal" font-weight="normal" text-decoration="normal" x="437.2783203125" y="80" text-anchor="start" dominant-baseline="central" transform="matrix(1, 0, 0, 1, 0.5, 0.5)" fill-opacity="1">means of replicates</text><path fill="rgb(255,127,14)" stroke="rgb(0,0,0)" paint-order="fill" d="M 426.7783203125 80.5 A 4 4 0 1 1 426.7783183125002 80.49600000066667" fill-opacity="1" clip-path="url(#zeSrSFCwMqqO)" stroke-opacity="1" stroke-linejoin="bevel" stroke-miterlimit="10" stroke-dasharray=""/><path fill="rgb(255,127,14)" stroke="rgb(0,0,0)" paint-order="fill" d="M 426.7783203125 80.5 A 4 4 0 1 1 426.7783183125002 80.49600000066667" fill-opacity="1" clip-path="url(#zeSrSFCwMqqO)" stroke-opacity="1" stroke-linejoin="bevel" stroke-miterlimit="10" stroke-dasharray=""/><path fill="rgb(255,187,120)" stroke="rgb(0,0,0)" paint-order="fill" d="M 426.7783203125 80.5 A 4 4 0 1 1 426.7783183125002 80.49600000066667" fill-opacity="1" clip-path="url(#zeSrSFCwMqqO)" stroke-opacity="1" stroke-linejoin="bevel" stroke-miterlimit="10" stroke-dasharray=""/><path fill="rgb(255,187,120)" stroke="rgb(0,0,0)" paint-order="fill" d="M 426.7783203125 80.5 A 4 4 0 1 1 426.7783183125002 80.49600000066667" fill-opacity="1" clip-path="url(#zeSrSFCwMqqO)" stroke-opacity="1" stroke-linejoin="bevel" stroke-miterlimit="10" stroke-dasharray=""/><path fill="rgb(44,160,44)" stroke="rgb(0,0,0)" paint-order="fill" d="M 426.7783203125 80.5 A 4 4 0 1 1 426.7783183125002 80.49600000066667" fill-opacity="1" clip-path="url(#zeSrSFCwMqqO)" stroke-opacity="1" stroke-linejoin="bevel" stroke-miterlimit="10" stroke-dasharray=""/><path fill="rgb(44,160,44)" stroke="rgb(0,0,0)" paint-order="fill" d="M 426.7783203125 80.5 A 4 4 0 1 1 426.7783183125002 80.49600000066667" fill-opacity="1" clip-path="url(#zeSrSFCwMqqO)" stroke-opacity="1" stroke-linejoin="bevel" stroke-miterlimit="10" stroke-dasharray=""/><path fill="rgb(152,223,138)" stroke="rgb(0,0,0)" paint-order="fill" d="M 426.7783203125 80.5 A 4 4 0 1 1 426.7783183125002 80.49600000066667" fill-opacity="1" clip-path="url(#zeSrSFCwMqqO)" stroke-opacity="1" stroke-linejoin="bevel" stroke-miterlimit="10" stroke-dasharray=""/><path fill="rgb(152,223,138)" stroke="rgb(0,0,0)" paint-order="fill" d="M 426.7783203125 80.5 A 4 4 0 1 1 426.7783183125002 80.49600000066667" fill-opacity="1" clip-path="url(#zeSrSFCwMqqO)" stroke-opacity="1" stroke-linejoin="bevel" stroke-miterlimit="10" stroke-dasharray=""/><path fill="rgb(214,39,40)" stroke="rgb(0,0,0)" paint-order="fill" d="M 426.7783203125 80.5 A 4 4 0 1 1 426.7783183125002 80.49600000066667" fill-opacity="1" clip-path="url(#zeSrSFCwMqqO)" stroke-opacity="1" stroke-linejoin="bevel" stroke-miterlimit="10" stroke-dasharray=""/><path fill="rgb(214,39,40)" stroke="rgb(0,0,0)" paint-order="fill" d="M 426.7783203125 80.5 A 4 4 0 1 1 426.7783183125002 80.49600000066667" fill-opacity="1" clip-path="url(#zeSrSFCwMqqO)" stroke-opacity="1" stroke-linejoin="bevel" stroke-miterlimit="10" stroke-dasharray=""/><path fill="rgb(255,152,150)" stroke="rgb(0,0,0)" paint-order="fill" d="M 426.7783203125 80.5 A 4 4 0 1 1 426.7783183125002 80.49600000066667" fill-opacity="1" clip-path="url(#zeSrSFCwMqqO)" stroke-opacity="1" stroke-linejoin="bevel" stroke-miterlimit="10" stroke-dasharray=""/><path fill="rgb(255,152,150)" stroke="rgb(0,0,0)" paint-order="fill" d="M 426.7783203125 80.5 A 4 4 0 1 1 426.7783183125002 80.49600000066667" fill-opacity="1" clip-path="url(#zeSrSFCwMqqO)" stroke-opacity="1" stroke-linejoin="bevel" stroke-miterlimit="10" stroke-dasharray=""/><text fill="rgb(68,68,68)" stroke="none" font-family="helvetica" font-size="13px" font-style="normal" font-weight="normal" text-decoration="normal" x="437.2783203125" y="103" text-anchor="start" dominant-baseline="central" transform="matrix(1, 0, 0, 1, 0.5, 0.5)" fill-opacity="1">Reference</text><path fill="none" stroke="rgb(0,0,0)" paint-order="fill" d="M 412.7783203125 103.5 L 432.7783203125 103.5" stroke-opacity="1" stroke-linejoin="bevel" stroke-miterlimit="10" stroke-dasharray="2,4" clip-path="url(#zeSrSFCwMqqO)"/><path fill="none" stroke="none"/><text fill="rgb(68,68,68)" stroke="none" font-family="helvetica" font-size="13px" font-style="normal" font-weight="bold" text-decoration="normal" x="0" y="0" text-anchor="start" dominant-baseline="text-after-edge" transform="matrix(1, 0, 0, 1, 107.5, 22.5)" fill-opacity="1"> PaQa_ratio on Liquid vs. Solid in linear scale</text></svg>