<svg version="1.1" xmlns="http://www.w3.org/2000/svg" width="600" height="400"><defs><clipPath id="mUTwOwbMCETK"><path fill="none" stroke="none" d="M 71.5 27.5 L 570.5 27.5 L 570.5 355.5 L 71.5 355.5 L 71.5 27.5"/></clipPath><clipPath id="oUKFZmmElOyB"><path fill="none" stroke="none" d="M 71.5 27.5 L 570.5 27.5 L 570.5 355.5 L 71.5 355.5 L 71.5 27.5"/></clipPath><clipPath id="SaFvDxcVReEG"><path fill="none" stroke="none" d="M 71.5 27.5 L 570.5 27.5 L 570.5 355.5 L 71.5 355.5 L 71.5 27.5"/></clipPath><clipPath id="APaEkiogJaCN"><path fill="none" stroke="none" d="M 71.5 27.5 L 570.5 27.5 L 570.5 355.5 L 71.5 355.5 L 71.5 27.5"/></clipPath><clipPath id="XwPqounxIrwU"><path fill="none" stroke="none" d="M 71.5 27.5 L 570.5 27.5 L 570.5 355.5 L 71.5 355.5 L 71.5 27.5"/></clipPath><clipPath id="TvpLQkFnZAmf"><path fill="none" stroke="none" d="M 71.5 27.5 L 570.5 27.5 L 570.5 355.5 L 71.5 355.5 L 71.5 27.5"/></clipPath><clipPath id="XSQZkGcfUtZX"><path fill="none" stroke="none" d="M 71.5 27.5 L 570.5 27.5 L 570.5 355.5 L 71.5 355.5 L 71.5 27.5"/></clipPath><clipPath id="iETqBBmcLwLf"><path fill="none" stroke="none" d="M 71.5 27.5 L 570.5 27.5 L 570.5 355.5 L 71.5 355.5 L 71.5 27.5"/></clipPath><clipPath id="TBKsWrwBKZRh"><path fill="none" stroke="none" d="M 71.5 27.5 L 570.5 27.5 L 570.5 355.5 L 71.5 355.5 L 71.5 27.5"/></clipPath><clipPath id="RExFGRnchfbn"><path fill="none" stroke="none" d="M 71.5 27.5 L 570.5 27.5 L 570.5 355.5 L 71.5 355.5 L 71.5 27.5"/></clipPath><clipPath id="ZbDdPbFlKenP"><path fill="none" stroke="none" d="M 71.5 27.5 L 570.5 27.5 L 570.5 355.5 L 71.5 355.5 L 71.5 27.5"/></clipPath><clipPath id="ircnkWBhRdHO"><path fill="none" stroke="none" d="M 71.5 27.5 L 570.5 27.5 L 570.5 355.5 L 71.5 355.5 L 71.5 27.5"/></clipPath><clipPath id="rwfwdwPdSBKF"><path fill="none" stroke="none" d="M 71.5 27.5 L 570.5 27.5 L 570.5 355.5 L 71.5 355.5 L 71.5 27.5"/></clipPath><clipPath id="vqFhLZIcobFq"><path fill="none" stroke="none" d="M 71.5 27.5 L 570.5 27.5 L 570.5 355.5 L 71.5 355.5 L 71.5 27.5"/></clipPath><clipPath id="kwopIemCSPOX"><path fill="none" stroke="none" d="M 71.5 27.5 L 570.5 27.5 L 570.5 355.5 L 71.5 355.5 L 71.5 27.5"/></clipPath><clipPath id="kLEeUZFvnqqf"><path fill="none" stroke="none" d="M 71.5 27.5 L 570.5 27.5 L 570.5 355.5 L 71.5 355.5 L 71.5 27.5"/></clipPath><clipPath id="dmqDKltQDOVd"><path fill="none" stroke="none" d="M 71.5 27.5 L 570.5 27.5 L 570.5 355.5 L 71.5 355.5 L 71.5 27.5"/></clipPath><clipPath id="GdlRLWxrkvBS"><path fill="none" stroke="none" d="M 71.5 27.5 L 570.5 27.5 L 570.5 355.5 L 71.5 355.5 L 71.5 27.5"/></clipPath><clipPath id="RcUUNLGtqGrG"><path fill="none" stroke="none" d="M 71.5 27.5 L 570.5 27.5 L 570.5 355.5 L 71.5 355.5 L 71.5 27.5"/></clipPath><clipPath id="AyCIkEEHZmEM"><path fill="none" stroke="none" d="M 71.5 27.5 L 570.5 27.5 L 570.5 355.5 L 71.5 355.5 L 71.5 27.5"/></clipPath><clipPath id="PoBqmloHiVvr"><path fill="none" stroke="none" d="M 71.5 27.5 L 570.5 27.5 L 570.5 355.5 L 71.5 355.5 L 71.5 27.5"/></clipPath></defs><path fill="rgb(255,255,255)" stroke="none" paint-order="stroke" d="M 0.5 0.5 L 600.5 0.5 L 600.5 400.5 L 0.5 400.5 L 0.5 0.5" fill-opacity="1"/><rect fill="#FFFFFF" stroke="none" x="71" y="27" width="499" height="328" transform="matrix(1, 0, 0, 1, 0.5, 0.5)"/><path fill="rgb(255,255,255)" stroke="none" paint-order="stroke" d="M 71.5 27.5 L 570.5 27.5 L 570.5 355.5 L 71.5 355.5 L 71.5 27.5" fill-opacity="1"/><path fill="none" stroke="rgb(229,229,229)" paint-order="fill" d="M 71.5 27.5 L 570.5 27.5 L 570.5 355.5 L 71.5 355.5 L 71.5 27.5" stroke-opacity="1" stroke-linejoin="bevel" stroke-miterlimit="10" stroke-dasharray=""/><path fill="rgb(211,211,211)" stroke="rgb(0,0,0)" paint-order="fill" d="M 153.6605682373047 48 A 5 5 0 1 1 153.6605657373049 47.99500000083333" fill-opacity="1" clip-path="url(#SaFvDxcVReEG)" stroke-opacity="1" stroke-linejoin="bevel" stroke-miterlimit="10" stroke-dasharray=""/><path fill="rgb(211,211,211)" stroke="rgb(0,0,0)" paint-order="fill" d="M 126.56155395507812 48 A 5 5 0 1 1 126.56155145507833 47.99500000083333" fill-opacity="1" clip-path="url(#SaFvDxcVReEG)" stroke-opacity="1" stroke-linejoin="bevel" stroke-miterlimit="10" stroke-dasharray=""/><path fill="rgb(211,211,211)" stroke="rgb(0,0,0)" paint-order="fill" d="M 136.4028778076172 48 A 5 5 0 1 1 136.4028753076174 47.99500000083333" fill-opacity="1" clip-path="url(#SaFvDxcVReEG)" stroke-opacity="1" stroke-linejoin="bevel" stroke-miterlimit="10" stroke-dasharray=""/><path fill="rgb(0,0,0)" stroke="rgb(0,0,0)" paint-order="fill" d="M 307.864013671875 89 A 5 5 0 1 1 307.86401117187523 88.99500000083333" fill-opacity="1" clip-path="url(#APaEkiogJaCN)" stroke-opacity="1" stroke-linejoin="bevel" stroke-miterlimit="10" stroke-dasharray=""/><path fill="rgb(0,0,0)" stroke="rgb(0,0,0)" paint-order="fill" d="M 239.87957763671875 89 A 5 5 0 1 1 239.87957513671896 88.99500000083333" fill-opacity="1" clip-path="url(#APaEkiogJaCN)" stroke-opacity="1" stroke-linejoin="bevel" stroke-miterlimit="10" stroke-dasharray=""/><path fill="rgb(0,0,0)" stroke="rgb(0,0,0)" paint-order="fill" d="M 251.3451385498047 89 A 5 5 0 1 1 251.3451360498049 88.99500000083333" fill-opacity="1" clip-path="url(#APaEkiogJaCN)" stroke-opacity="1" stroke-linejoin="bevel" stroke-miterlimit="10" stroke-dasharray=""/><path fill="none" stroke="rgb(0,0,0)" paint-order="fill" d="M 133.875 60.30000686645508 L 133.875 35.69999313354492" stroke-opacity="1" stroke-linejoin="bevel" stroke-miterlimit="10" stroke-width="3" stroke-dasharray="" clip-path="url(#XwPqounxIrwU)"/><path fill="none" stroke="rgb(0,0,0)" paint-order="fill" d="M 261.3629150390625 101.30001068115234 L 261.3629150390625 76.69998931884766" stroke-opacity="1" stroke-linejoin="bevel" stroke-miterlimit="10" stroke-width="3" stroke-dasharray="" clip-path="url(#TvpLQkFnZAmf)"/><path fill="rgb(211,211,211)" stroke="rgb(0,0,0)" paint-order="fill" d="M 123.9577407836914 130 A 5 5 0 1 1 123.95773828369161 129.99500000083333" fill-opacity="1" clip-path="url(#XSQZkGcfUtZX)" stroke-opacity="1" stroke-linejoin="bevel" stroke-miterlimit="10" stroke-dasharray=""/><path fill="rgb(211,211,211)" stroke="rgb(0,0,0)" paint-order="fill" d="M 128.79034423828125 130 A 5 5 0 1 1 128.79034173828146 129.99500000083333" fill-opacity="1" clip-path="url(#XSQZkGcfUtZX)" stroke-opacity="1" stroke-linejoin="bevel" stroke-miterlimit="10" stroke-dasharray=""/><path fill="none" stroke="rgb(0,0,0)" paint-order="fill" d="M 121.3740463256836 142.3000030517578 L 121.3740463256836 117.69998931884766" stroke-opacity="1" stroke-linejoin="bevel" stroke-miterlimit="10" stroke-width="3" stroke-dasharray="" clip-path="url(#iETqBBmcLwLf)"/><path fill="rgb(0,0,255)" stroke="rgb(0,0,0)" paint-order="fill" d="M 280.8091735839844 171 A 5 5 0 1 1 280.8091710839846 170.99500000083333" fill-opacity="1" clip-path="url(#TBKsWrwBKZRh)" stroke-opacity="1" stroke-linejoin="bevel" stroke-miterlimit="10" stroke-dasharray=""/><path fill="rgb(0,0,255)" stroke="rgb(0,0,0)" paint-order="fill" d="M 173.48243713378906 171 A 5 5 0 1 1 173.48243463378927 170.99500000083333" fill-opacity="1" clip-path="url(#TBKsWrwBKZRh)" stroke-opacity="1" stroke-linejoin="bevel" stroke-miterlimit="10" stroke-dasharray=""/><path fill="rgb(0,0,255)" stroke="rgb(0,0,0)" paint-order="fill" d="M 195.706298828125 171 A 5 5 0 1 1 195.7062963281252 170.99500000083333" fill-opacity="1" clip-path="url(#TBKsWrwBKZRh)" stroke-opacity="1" stroke-linejoin="bevel" stroke-miterlimit="10" stroke-dasharray=""/><path fill="none" stroke="rgb(0,0,0)" paint-order="fill" d="M 211.6659698486328 183.3000030517578 L 211.6659698486328 158.6999969482422" stroke-opacity="1" stroke-linejoin="bevel" stroke-miterlimit="10" stroke-width="3" stroke-dasharray="" clip-path="url(#RExFGRnchfbn)"/><path fill="rgb(0,255,255)" stroke="rgb(0,0,0)" paint-order="fill" d="M 333.9214172363281 212 A 5 5 0 1 1 333.92141473632836 211.99500000083333" fill-opacity="1" clip-path="url(#ZbDdPbFlKenP)" stroke-opacity="1" stroke-linejoin="bevel" stroke-miterlimit="10" stroke-dasharray=""/><path fill="rgb(0,255,255)" stroke="rgb(0,0,0)" paint-order="fill" d="M 197.93104553222656 212 A 5 5 0 1 1 197.93104303222677 211.99500000083333" fill-opacity="1" clip-path="url(#ZbDdPbFlKenP)" stroke-opacity="1" stroke-linejoin="bevel" stroke-miterlimit="10" stroke-dasharray=""/><path fill="rgb(0,255,255)" stroke="rgb(0,0,0)" paint-order="fill" d="M 192.20729064941406 212 A 5 5 0 1 1 192.20728814941427 211.99500000083333" fill-opacity="1" clip-path="url(#ZbDdPbFlKenP)" stroke-opacity="1" stroke-linejoin="bevel" stroke-miterlimit="10" stroke-dasharray=""/><path fill="none" stroke="rgb(0,0,0)" paint-order="fill" d="M 236.35324096679688 224.3000030517578 L 236.35324096679688 199.6999969482422" stroke-opacity="1" stroke-linejoin="bevel" stroke-miterlimit="10" stroke-width="3" stroke-dasharray="" clip-path="url(#ircnkWBhRdHO)"/><path fill="rgb(0,255,127)" stroke="rgb(0,0,0)" paint-order="fill" d="M 268.49212646484375 253 A 5 5 0 1 1 268.492123964844 252.99500000083333" fill-opacity="1" clip-path="url(#rwfwdwPdSBKF)" stroke-opacity="1" stroke-linejoin="bevel" stroke-miterlimit="10" stroke-dasharray=""/><path fill="rgb(0,255,127)" stroke="rgb(0,0,0)" paint-order="fill" d="M 149.7343292236328 253 A 5 5 0 1 1 149.73432672363302 252.99500000083333" fill-opacity="1" clip-path="url(#rwfwdwPdSBKF)" stroke-opacity="1" stroke-linejoin="bevel" stroke-miterlimit="10" stroke-dasharray=""/><path fill="rgb(0,255,127)" stroke="rgb(0,0,0)" paint-order="fill" d="M 167.88577270507812 253 A 5 5 0 1 1 167.88577020507833 252.99500000083333" fill-opacity="1" clip-path="url(#rwfwdwPdSBKF)" stroke-opacity="1" stroke-linejoin="bevel" stroke-miterlimit="10" stroke-dasharray=""/><path fill="none" stroke="rgb(0,0,0)" paint-order="fill" d="M 190.37074279785156 265.29998779296875 L 190.37074279785156 240.6999969482422" stroke-opacity="1" stroke-linejoin="bevel" stroke-miterlimit="10" stroke-width="3" stroke-dasharray="" clip-path="url(#vqFhLZIcobFq)"/><path fill="rgb(255,0,0)" stroke="rgb(0,0,0)" paint-order="fill" d="M 144.96893310546875 294 A 5 5 0 1 1 144.96893060546896 293.99500000083333" fill-opacity="1" clip-path="url(#kwopIemCSPOX)" stroke-opacity="1" stroke-linejoin="bevel" stroke-miterlimit="10" stroke-dasharray=""/><path fill="rgb(255,0,0)" stroke="rgb(0,0,0)" paint-order="fill" d="M 135.9625701904297 294 A 5 5 0 1 1 135.9625676904299 293.99500000083333" fill-opacity="1" clip-path="url(#kwopIemCSPOX)" stroke-opacity="1" stroke-linejoin="bevel" stroke-miterlimit="10" stroke-dasharray=""/><path fill="rgb(255,0,0)" stroke="rgb(0,0,0)" paint-order="fill" d="M 139.271728515625 294 A 5 5 0 1 1 139.2717260156252 293.99500000083333" fill-opacity="1" clip-path="url(#kwopIemCSPOX)" stroke-opacity="1" stroke-linejoin="bevel" stroke-miterlimit="10" stroke-dasharray=""/><path fill="none" stroke="rgb(0,0,0)" paint-order="fill" d="M 135.0677490234375 306.29998779296875 L 135.0677490234375 281.70001220703125" stroke-opacity="1" stroke-linejoin="bevel" stroke-miterlimit="10" stroke-width="3" stroke-dasharray="" clip-path="url(#kLEeUZFvnqqf)"/><path fill="rgb(255,0,255)" stroke="rgb(0,0,0)" paint-order="fill" d="M 148.7140655517578 335 A 5 5 0 1 1 148.71406305175802 334.99500000083333" fill-opacity="1" clip-path="url(#dmqDKltQDOVd)" stroke-opacity="1" stroke-linejoin="bevel" stroke-miterlimit="10" stroke-dasharray=""/><path fill="rgb(255,0,255)" stroke="rgb(0,0,0)" paint-order="fill" d="M 141.50741577148438 335 A 5 5 0 1 1 141.50741327148458 334.99500000083333" fill-opacity="1" clip-path="url(#dmqDKltQDOVd)" stroke-opacity="1" stroke-linejoin="bevel" stroke-miterlimit="10" stroke-dasharray=""/><path fill="rgb(255,0,255)" stroke="rgb(0,0,0)" paint-order="fill" d="M 154.64198303222656 335 A 5 5 0 1 1 154.64198053222677 334.99500000083333" fill-opacity="1" clip-path="url(#dmqDKltQDOVd)" stroke-opacity="1" stroke-linejoin="bevel" stroke-miterlimit="10" stroke-dasharray=""/><path fill="none" stroke="rgb(0,0,0)" paint-order="fill" d="M 143.28782653808594 347.29998779296875 L 143.28782653808594 322.70001220703125" stroke-opacity="1" stroke-linejoin="bevel" stroke-miterlimit="10" stroke-width="3" stroke-dasharray="" clip-path="url(#GdlRLWxrkvBS)"/><path fill="none" stroke="rgb(0,0,0)" paint-order="fill" d="M 133.875 355.5 L 133.875 27.5" stroke-opacity="1" stroke-linejoin="bevel" stroke-miterlimit="10" stroke-dasharray="2,4" clip-path="url(#RcUUNLGtqGrG)"/><path fill="none" stroke="rgb(0,0,0)" paint-order="fill" d="M 71.5 355.5 L 570.5 355.5" stroke-opacity="1" stroke-linejoin="bevel" stroke-miterlimit="10" stroke-dasharray=""/><path fill="none" stroke="rgb(0,0,0)" paint-order="fill" d="M 71.5 361.5 L 71.5 353.5 M 133.5 361.5 L 133.5 353.5 M 196.5 361.5 L 196.5 353.5 M 258.5 361.5 L 258.5 353.5 M 321.5 361.5 L 321.5 353.5 M 383.5 361.5 L 383.5 353.5 M 445.5 361.5 L 445.5 353.5 M 508.5 361.5 L 508.5 353.5 M 570.5 361.5 L 570.5 353.5" stroke-opacity="1" stroke-linejoin="bevel" stroke-miterlimit="10" stroke-dasharray=""/><path fill="none" stroke="rgb(0,0,0)" paint-order="fill" d="M 71.5 359.5 L 71.5 355.5 M 83.5 359.5 L 83.5 355.5 M 96.5 359.5 L 96.5 355.5 M 108.5 359.5 L 108.5 355.5 M 121.5 359.5 L 121.5 355.5 M 133.5 359.5 L 133.5 355.5 M 146.5 359.5 L 146.5 355.5 M 158.5 359.5 L 158.5 355.5 M 171.5 359.5 L 171.5 355.5 M 183.5 359.5 L 183.5 355.5 M 196.5 359.5 L 196.5 355.5 M 208.5 359.5 L 208.5 355.5 M 221.5 359.5 L 221.5 355.5 M 233.5 359.5 L 233.5 355.5 M 246.5 359.5 L 246.5 355.5 M 258.5 359.5 L 258.5 355.5 M 271.5 359.5 L 271.5 355.5 M 283.5 359.5 L 283.5 355.5 M 296.5 359.5 L 296.5 355.5 M 308.5 359.5 L 308.5 355.5 M 321.5 359.5 L 321.5 355.5 M 333.5 359.5 L 333.5 355.5 M 345.5 359.5 L 345.5 355.5 M 358.5 359.5 L 358.5 355.5 M 370.5 359.5 L 370.5 355.5 M 383.5 359.5 L 383.5 355.5 M 395.5 359.5 L 395.5 355.5 M 408.5 359.5 L 408.5 355.5 M 420.5 359.5 L 420.5 355.5 M 433.5 359.5 L 433.5 355.5 M 445.5 359.5 L 445.5 355.5 M 458.5 359.5 L 458.5 355.5 M 470.5 359.5 L 470.5 355.5 M 483.5 359.5 L 483.5 355.5 M 495.5 359.5 L 495.5 355.5 M 508.5 359.5 L 508.5 355.5 M 520.5 359.5 L 520.5 355.5 M 533.5 359.5 L 533.5 355.5 M 545.5 359.5 L 545.5 355.5 M 558.5 359.5 L 558.5 355.5 M 570.5 359.5 L 570.5 355.5" stroke-opacity="1" stroke-linejoin="bevel" stroke-miterlimit="10" stroke-dasharray=""/><text fill="rgb(68,68,68)" stroke="none" font-family="helvetica" font-size="11px" font-style="normal" font-weight="normal" text-decoration="normal" x="67.941162109375" y="374" text-anchor="start" dominant-baseline="alphabetic" transform="matrix(1, 0, 0, 1, 0.5, 0.5)" fill-opacity="1">0</text><text fill="rgb(68,68,68)" stroke="none" font-family="helvetica" font-size="11px" font-style="normal" font-weight="normal" text-decoration="normal" x="130.316162109375" y="374" text-anchor="start" dominant-baseline="alphabetic" transform="matrix(1, 0, 0, 1, 0.5, 0.5)" fill-opacity="1">1</text><text fill="rgb(68,68,68)" stroke="none" font-family="helvetica" font-size="11px" font-style="normal" font-weight="normal" text-decoration="normal" x="192.691162109375" y="374" text-anchor="start" dominant-baseline="alphabetic" transform="matrix(1, 0, 0, 1, 0.5, 0.5)" fill-opacity="1">2</text><text fill="rgb(68,68,68)" stroke="none" font-family="helvetica" font-size="11px" font-style="normal" font-weight="normal" text-decoration="normal" x="255.066162109375" y="374" text-anchor="start" dominant-baseline="alphabetic" transform="matrix(1, 0, 0, 1, 0.5, 0.5)" fill-opacity="1">3</text><text fill="rgb(68,68,68)" stroke="none" font-family="helvetica" font-size="11px" font-style="normal" font-weight="normal" text-decoration="normal" x="317.441162109375" y="374" text-anchor="start" dominant-baseline="alphabetic" transform="matrix(1, 0, 0, 1, 0.5, 0.5)" fill-opacity="1">4</text><text fill="rgb(68,68,68)" stroke="none" font-family="helvetica" font-size="11px" font-style="normal" font-weight="normal" text-decoration="normal" x="379.816162109375" y="374" text-anchor="start" dominant-baseline="alphabetic" transform="matrix(1, 0, 0, 1, 0.5, 0.5)" fill-opacity="1">5</text><text fill="rgb(68,68,68)" stroke="none" font-family="helvetica" font-size="11px" font-style="normal" font-weight="normal" text-decoration="normal" x="442.191162109375" y="374" text-anchor="start" dominant-baseline="alphabetic" transform="matrix(1, 0, 0, 1, 0.5, 0.5)" fill-opacity="1">6</text><text fill="rgb(68,68,68)" stroke="none" font-family="helvetica" font-size="11px" font-style="normal" font-weight="normal" text-decoration="normal" x="504.566162109375" y="374" text-anchor="start" dominant-baseline="alphabetic" transform="matrix(1, 0, 0, 1, 0.5, 0.5)" fill-opacity="1">7</text><text fill="rgb(68,68,68)" stroke="none" font-family="helvetica" font-size="11px" font-style="normal" font-weight="normal" text-decoration="normal" x="566.941162109375" y="374" text-anchor="start" dominant-baseline="alphabetic" transform="matrix(1, 0, 0, 1, 0.5, 0.5)" fill-opacity="1">8</text><text fill="rgb(68,68,68)" stroke="none" font-family="helvetica" font-size="13px" font-style="italic" font-weight="normal" text-decoration="normal" x="263.41552734375" y="394" text-anchor="start" dominant-baseline="alphabetic" transform="matrix(1, 0, 0, 1, 0.5, 0.5)" fill-opacity="1">Relative PaQa level</text><path fill="none" stroke="rgb(0,0,0)" paint-order="fill" d="M 71.5 355.5 L 71.5 27.5" stroke-opacity="1" stroke-linejoin="bevel" stroke-miterlimit="10" stroke-dasharray=""/><path fill="none" stroke="rgb(0,0,0)" paint-order="fill" d="M 65.5 335.5 L 73.5 335.5 M 65.5 294.5 L 73.5 294.5 M 65.5 253.5 L 73.5 253.5 M 65.5 212.5 L 73.5 212.5 M 65.5 171.5 L 73.5 171.5 M 65.5 130.5 L 73.5 130.5 M 65.5 89.5 L 73.5 89.5 M 65.5 48.5 L 73.5 48.5" stroke-opacity="1" stroke-linejoin="bevel" stroke-miterlimit="10" stroke-dasharray=""/><text fill="rgb(68,68,68)" stroke="none" font-family="helvetica" font-size="9pt" font-style="normal" font-weight="normal" text-decoration="normal" x="2.63671875" y="338.5" text-anchor="start" dominant-baseline="alphabetic" transform="matrix(1, 0, 0, 1, 0.5, 0.5)" fill-opacity="1">pilA_R36N</text><text fill="rgb(68,68,68)" stroke="none" font-family="helvetica" font-size="9pt" font-style="normal" font-weight="normal" text-decoration="normal" x="3.298828125" y="297.5" text-anchor="start" dominant-baseline="alphabetic" transform="matrix(1, 0, 0, 1, 0.5, 0.5)" fill-opacity="1">pilA_R36E</text><text fill="rgb(68,68,68)" stroke="none" font-family="helvetica" font-size="9pt" font-style="normal" font-weight="normal" text-decoration="normal" x="11.982421875" y="256.5" text-anchor="start" dominant-baseline="alphabetic" transform="matrix(1, 0, 0, 1, 0.5, 0.5)" fill-opacity="1">pilA_T8F</text><text fill="rgb(68,68,68)" stroke="none" font-family="helvetica" font-size="9pt" font-style="normal" font-weight="normal" text-decoration="normal" x="15.978515625" y="215.5" text-anchor="start" dominant-baseline="alphabetic" transform="matrix(1, 0, 0, 1, 0.5, 0.5)" fill-opacity="1">pilA_T8I</text><text fill="rgb(68,68,68)" stroke="none" font-family="helvetica" font-size="9pt" font-style="normal" font-weight="normal" text-decoration="normal" x="11.30859375" y="174.5" text-anchor="start" dominant-baseline="alphabetic" transform="matrix(1, 0, 0, 1, 0.5, 0.5)" fill-opacity="1">pilA_T8V</text><text fill="rgb(68,68,68)" stroke="none" font-family="helvetica" font-size="9pt" font-style="normal" font-weight="normal" text-decoration="normal" x="31.974609375" y="133.5" text-anchor="start" dominant-baseline="alphabetic" transform="matrix(1, 0, 0, 1, 0.5, 0.5)" fill-opacity="1">ΔpilA</text><text fill="rgb(68,68,68)" stroke="none" font-family="helvetica" font-size="9pt" font-style="normal" font-weight="normal" text-decoration="normal" x="11.326171875" y="92.5" text-anchor="start" dominant-baseline="alphabetic" transform="matrix(1, 0, 0, 1, 0.5, 0.5)" fill-opacity="1">WT Solid</text><text fill="rgb(68,68,68)" stroke="none" font-family="helvetica" font-size="9pt" font-style="normal" font-weight="normal" text-decoration="normal" x="5.982421875" y="51.5" text-anchor="start" dominant-baseline="alphabetic" transform="matrix(1, 0, 0, 1, 0.5, 0.5)" fill-opacity="1">WT Liquid</text><path fill="rgb(255,255,255)" stroke="rgb(229,229,229)" paint-order="fill" d="M 402.7783203125 37.5 L 560.5 37.5 L 560.5 100.5 L 402.7783203125 100.5 L 402.7783203125 37.5" fill-opacity="0.9490196078431372" clip-path="url(#AyCIkEEHZmEM)" stroke-opacity="0.5019607843137255" stroke-linejoin="bevel" stroke-miterlimit="10" stroke-dasharray=""/><g clip-path="url(#AyCIkEEHZmEM)"><text fill="rgb(68,68,68)" stroke="none" font-family="helvetica" font-size="13px" font-style="normal" font-weight="normal" text-decoration="normal" x="437.2783203125" y="57" text-anchor="start" dominant-baseline="central" transform="matrix(1, 0, 0, 1, 0.5, 0.5)" fill-opacity="1">means of replicates</text></g><path fill="rgb(211,211,211)" stroke="rgb(0,0,0)" paint-order="fill" d="M 426.7783203125 57.5 A 4 4 0 1 1 426.7783183125002 57.49600000066666" fill-opacity="1" clip-path="url(#AyCIkEEHZmEM)" stroke-opacity="1" stroke-linejoin="bevel" stroke-miterlimit="10" stroke-dasharray=""/><path fill="rgb(0,0,255)" stroke="rgb(0,0,0)" paint-order="fill" d="M 426.7783203125 57.5 A 4 4 0 1 1 426.7783183125002 57.49600000066666" fill-opacity="1" clip-path="url(#AyCIkEEHZmEM)" stroke-opacity="1" stroke-linejoin="bevel" stroke-miterlimit="10" stroke-dasharray=""/><path fill="rgb(0,255,255)" stroke="rgb(0,0,0)" paint-order="fill" d="M 426.7783203125 57.5 A 4 4 0 1 1 426.7783183125002 57.49600000066666" fill-opacity="1" clip-path="url(#AyCIkEEHZmEM)" stroke-opacity="1" stroke-linejoin="bevel" stroke-miterlimit="10" stroke-dasharray=""/><path fill="rgb(0,255,127)" stroke="rgb(0,0,0)" paint-order="fill" d="M 426.7783203125 57.5 A 4 4 0 1 1 426.7783183125002 57.49600000066666" fill-opacity="1" clip-path="url(#AyCIkEEHZmEM)" stroke-opacity="1" stroke-linejoin="bevel" stroke-miterlimit="10" stroke-dasharray=""/><path fill="rgb(255,0,0)" stroke="rgb(0,0,0)" paint-order="fill" d="M 426.7783203125 57.5 A 4 4 0 1 1 426.7783183125002 57.49600000066666" fill-opacity="1" clip-path="url(#AyCIkEEHZmEM)" stroke-opacity="1" stroke-linejoin="bevel" stroke-miterlimit="10" stroke-dasharray=""/><path fill="rgb(255,0,255)" stroke="rgb(0,0,0)" paint-order="fill" d="M 426.7783203125 57.5 A 4 4 0 1 1 426.7783183125002 57.49600000066666" fill-opacity="1" clip-path="url(#AyCIkEEHZmEM)" stroke-opacity="1" stroke-linejoin="bevel" stroke-miterlimit="10" stroke-dasharray=""/><g clip-path="url(#AyCIkEEHZmEM)"><text fill="rgb(68,68,68)" stroke="none" font-family="helvetica" font-size="13px" font-style="normal" font-weight="normal" text-decoration="normal" x="437.2783203125" y="80" text-anchor="start" dominant-baseline="central" transform="matrix(1, 0, 0, 1, 0.5, 0.5)" fill-opacity="1">Reference</text></g><path fill="none" stroke="rgb(0,0,0)" paint-order="fill" d="M 412.7783203125 80.5 L 432.7783203125 80.5" stroke-opacity="1" stroke-linejoin="bevel" stroke-miterlimit="10" stroke-dasharray="2,4" clip-path="url(#AyCIkEEHZmEM)"/><text fill="rgb(68,68,68)" stroke="none" font-family="helvetica" font-size="13px" font-style="normal" font-weight="bold" text-decoration="normal" x="71" y="19" text-anchor="start" dominant-baseline="alphabetic" transform="matrix(1, 0, 0, 1, 0.5, 0.5)" fill-opacity="1"> PaQa_ratio on Liquid</text></svg>