<svg version="1.1" xmlns="http://www.w3.org/2000/svg" xmlns:xlink="http://www.w3.org/1999/xlink" width="600" height="400"><defs><clipPath id="wJSABoovsUDy"><path fill="none" stroke="none" d="M 107.5 27.5 L 570.5 27.5 L 570.5 355.5 L 107.5 355.5 L 107.5 27.5"/></clipPath><clipPath id="nkFeBJFoMVVm"><path fill="none" stroke="none" d="M 107.5 27.5 L 570.5 27.5 L 570.5 355.5 L 107.5 355.5 L 107.5 27.5"/></clipPath><clipPath id="uzqFsuKLuVrP"><path fill="none" stroke="none" d="M 107.5 27.5 L 570.5 27.5 L 570.5 355.5 L 107.5 355.5 L 107.5 27.5"/></clipPath><clipPath id="radVuUVAUVeG"><path fill="none" stroke="none" d="M 107.5 27.5 L 570.5 27.5 L 570.5 355.5 L 107.5 355.5 L 107.5 27.5"/></clipPath><clipPath id="TgqAaWBtwUWK"><path fill="none" stroke="none" d="M 107.5 27.5 L 570.5 27.5 L 570.5 355.5 L 107.5 355.5 L 107.5 27.5"/></clipPath><clipPath id="iHUGFOuSOObp"><path fill="none" stroke="none" d="M 107.5 27.5 L 570.5 27.5 L 570.5 355.5 L 107.5 355.5 L 107.5 27.5"/></clipPath><clipPath id="PObXHhwdTMAw"><path fill="none" stroke="none" d="M 107.5 27.5 L 570.5 27.5 L 570.5 355.5 L 107.5 355.5 L 107.5 27.5"/></clipPath><clipPath id="uyTvWSbVoGXl"><path fill="none" stroke="none" d="M 107.5 27.5 L 570.5 27.5 L 570.5 355.5 L 107.5 355.5 L 107.5 27.5"/></clipPath><clipPath id="vGpTmolTNhXC"><path fill="none" stroke="none" d="M 107.5 27.5 L 570.5 27.5 L 570.5 355.5 L 107.5 355.5 L 107.5 27.5"/></clipPath><clipPath id="uRFLENdpVqrh"><path fill="none" stroke="none" d="M 107.5 27.5 L 570.5 27.5 L 570.5 355.5 L 107.5 355.5 L 107.5 27.5"/></clipPath><clipPath id="uSQDpbRrudTV"><path fill="none" stroke="none" d="M 107.5 27.5 L 570.5 27.5 L 570.5 355.5 L 107.5 355.5 L 107.5 27.5"/></clipPath><clipPath id="ymTWiPETvhlw"><path fill="none" stroke="none" d="M 107.5 27.5 L 570.5 27.5 L 570.5 355.5 L 107.5 355.5 L 107.5 27.5"/></clipPath><clipPath id="uDJtBkWBzpcA"><path fill="none" stroke="none" d="M 107.5 27.5 L 570.5 27.5 L 570.5 355.5 L 107.5 355.5 L 107.5 27.5"/></clipPath><clipPath id="RzzEUspgcFwl"><path fill="none" stroke="none" d="M 107.5 27.5 L 570.5 27.5 L 570.5 355.5 L 107.5 355.5 L 107.5 27.5"/></clipPath><clipPath id="ReJdQpzdXWOi"><path fill="none" stroke="none" d="M 107.5 27.5 L 570.5 27.5 L 570.5 355.5 L 107.5 355.5 L 107.5 27.5"/></clipPath><clipPath id="KSxvwCUisBqE"><path fill="none" stroke="none" d="M 107.5 27.5 L 570.5 27.5 L 570.5 355.5 L 107.5 355.5 L 107.5 27.5"/></clipPath><clipPath id="NzrTieiNkQlK"><path fill="none" stroke="none" d="M 107.5 27.5 L 570.5 27.5 L 570.5 355.5 L 107.5 355.5 L 107.5 27.5"/></clipPath><clipPath id="TVfLDCJbaEvx"><path fill="none" stroke="none" d="M 107.5 27.5 L 570.5 27.5 L 570.5 355.5 L 107.5 355.5 L 107.5 27.5"/></clipPath><clipPath id="mfiQgNdlGHsN"><path fill="none" stroke="none" d="M 107.5 27.5 L 570.5 27.5 L 570.5 355.5 L 107.5 355.5 L 107.5 27.5"/></clipPath><clipPath id="aaXgLGJqViCq"><path fill="none" stroke="none" d="M 107.5 27.5 L 570.5 27.5 L 570.5 355.5 L 107.5 355.5 L 107.5 27.5"/></clipPath><clipPath id="MzPgkwharckl"><path fill="none" stroke="none" d="M 107.5 27.5 L 570.5 27.5 L 570.5 355.5 L 107.5 355.5 L 107.5 27.5"/></clipPath><clipPath id="qtbUmepEorol"><path fill="none" stroke="none" d="M 107.5 27.5 L 570.5 27.5 L 570.5 355.5 L 107.5 355.5 L 107.5 27.5"/></clipPath><clipPath id="fWWKsGehMpXv"><path fill="none" stroke="none" d="M 107.5 27.5 L 570.5 27.5 L 570.5 355.5 L 107.5 355.5 L 107.5 27.5"/></clipPath><clipPath id="NzpCdXvnibIk"><path fill="none" stroke="none" d="M 107.5 27.5 L 570.5 27.5 L 570.5 355.5 L 107.5 355.5 L 107.5 27.5"/></clipPath><clipPath id="wBcIDTBAXaar"><path fill="none" stroke="none" d="M 107.5 27.5 L 570.5 27.5 L 570.5 355.5 L 107.5 355.5 L 107.5 27.5"/></clipPath><clipPath id="yZIeUJZPTDOH"><path fill="none" stroke="none" d="M 107.5 27.5 L 570.5 27.5 L 570.5 355.5 L 107.5 355.5 L 107.5 27.5"/></clipPath><clipPath id="cagrrZEVTtvE"><path fill="none" stroke="none" d="M 107.5 27.5 L 570.5 27.5 L 570.5 355.5 L 107.5 355.5 L 107.5 27.5"/></clipPath><clipPath id="wfyvMuQaeOTX"><path fill="none" stroke="none" d="M 107.5 27.5 L 570.5 27.5 L 570.5 355.5 L 107.5 355.5 L 107.5 27.5"/></clipPath><clipPath id="cyVTfDMbTrgH"><path fill="none" stroke="none" d="M 107.5 27.5 L 570.5 27.5 L 570.5 355.5 L 107.5 355.5 L 107.5 27.5"/></clipPath><clipPath id="ZaVIaefAUAJZ"><path fill="none" stroke="none" d="M 107.5 27.5 L 570.5 27.5 L 570.5 355.5 L 107.5 355.5 L 107.5 27.5"/></clipPath><clipPath id="JcDbPvepgBWo"><path fill="none" stroke="none" d="M 107.5 27.5 L 570.5 27.5 L 570.5 355.5 L 107.5 355.5 L 107.5 27.5"/></clipPath><clipPath id="hCkTGTmOlPLf"><path fill="none" stroke="none" d="M 107.5 27.5 L 570.5 27.5 L 570.5 355.5 L 107.5 355.5 L 107.5 27.5"/></clipPath><clipPath id="AaogNgzQdvEv"><path fill="none" stroke="none" d="M 107.5 27.5 L 570.5 27.5 L 570.5 355.5 L 107.5 355.5 L 107.5 27.5"/></clipPath></defs><path fill="rgb(255,255,255)" stroke="none" paint-order="stroke" d="M 0.5 0.5 L 600.5 0.5 L 600.5 400.5 L 0.5 400.5 L 0.5 0.5" fill-opacity="1"/><rect fill="#FFFFFF" stroke="none" x="107" y="27" width="463" height="328" transform="matrix(1, 0, 0, 1, 0.5, 0.5)"/><path fill="rgb(255,255,255)" stroke="none" paint-order="stroke" d="M 107.5 27.5 L 570.5 27.5 L 570.5 355.5 L 107.5 355.5 L 107.5 27.5" fill-opacity="1"/><path fill="none" stroke="rgb(229,229,229)" paint-order="fill" d="M 107.5 27.5 L 570.5 27.5 L 570.5 355.5 L 107.5 355.5 L 107.5 27.5" stroke-opacity="1" stroke-linejoin="bevel" stroke-miterlimit="10" stroke-dasharray=""/><path fill="none" stroke="none"/><path fill="rgb(31,119,180)" stroke="rgb(0,0,0)" paint-order="fill" d="M 184.0938720703125 39.21428680419922 A 5 5 0 1 1 184.0938695703127 39.20928680503255" fill-opacity="1" clip-path="url(#uzqFsuKLuVrP)" stroke-opacity="1" stroke-linejoin="bevel" stroke-miterlimit="10" stroke-dasharray=""/><path fill="rgb(31,119,180)" stroke="rgb(0,0,0)" paint-order="fill" d="M 158.9499053955078 39.21428680419922 A 5 5 0 1 1 158.94990289550802 39.20928680503255" fill-opacity="1" clip-path="url(#uzqFsuKLuVrP)" stroke-opacity="1" stroke-linejoin="bevel" stroke-miterlimit="10" stroke-dasharray=""/><path fill="rgb(31,119,180)" stroke="rgb(0,0,0)" paint-order="fill" d="M 168.0812225341797 39.21428680419922 A 5 5 0 1 1 168.0812200341799 39.20928680503255" fill-opacity="1" clip-path="url(#uzqFsuKLuVrP)" stroke-opacity="1" stroke-linejoin="bevel" stroke-miterlimit="10" stroke-dasharray=""/><path fill="none" stroke="none"/><path fill="none" stroke="rgb(0,0,0)" paint-order="fill" d="M 165.375 43.899993896484375 L 165.375 34.5285758972168" stroke-opacity="1" stroke-linejoin="bevel" stroke-miterlimit="10" stroke-width="3" stroke-dasharray="" clip-path="url(#radVuUVAUVeG)"/><path fill="none" stroke="none"/><path fill="rgb(174,199,232)" stroke="rgb(0,0,0)" paint-order="fill" d="M 327.1723937988281 62.64285659790039 A 5 5 0 1 1 327.17239129882836 62.63785659873372" fill-opacity="1" clip-path="url(#TgqAaWBtwUWK)" stroke-opacity="1" stroke-linejoin="bevel" stroke-miterlimit="10" stroke-dasharray=""/><path fill="rgb(174,199,232)" stroke="rgb(0,0,0)" paint-order="fill" d="M 264.0926818847656 62.64285659790039 A 5 5 0 1 1 264.09267938476586 62.63785659873372" fill-opacity="1" clip-path="url(#TgqAaWBtwUWK)" stroke-opacity="1" stroke-linejoin="bevel" stroke-miterlimit="10" stroke-dasharray=""/><path fill="rgb(174,199,232)" stroke="rgb(0,0,0)" paint-order="fill" d="M 274.7310485839844 62.64285659790039 A 5 5 0 1 1 274.7310460839846 62.63785659873372" fill-opacity="1" clip-path="url(#TgqAaWBtwUWK)" stroke-opacity="1" stroke-linejoin="bevel" stroke-miterlimit="10" stroke-dasharray=""/><path fill="none" stroke="none"/><path fill="none" stroke="rgb(0,0,0)" paint-order="fill" d="M 283.6653747558594 67.32856750488281 L 283.6653747558594 57.95714569091797" stroke-opacity="1" stroke-linejoin="bevel" stroke-miterlimit="10" stroke-width="3" stroke-dasharray="" clip-path="url(#iHUGFOuSOObp)"/><path fill="none" stroke="none"/><path fill="rgb(255,127,14)" stroke="rgb(0,0,0)" paint-order="fill" d="M 156.533935546875 86.07142639160156 A 5 5 0 1 1 156.5339330468752 86.06642639243489" fill-opacity="1" clip-path="url(#PObXHhwdTMAw)" stroke-opacity="1" stroke-linejoin="bevel" stroke-miterlimit="10" stroke-dasharray=""/><path fill="rgb(255,127,14)" stroke="rgb(0,0,0)" paint-order="fill" d="M 161.0178985595703 86.07142639160156 A 5 5 0 1 1 161.01789605957052 86.06642639243489" fill-opacity="1" clip-path="url(#PObXHhwdTMAw)" stroke-opacity="1" stroke-linejoin="bevel" stroke-miterlimit="10" stroke-dasharray=""/><path fill="none" stroke="none"/><path fill="none" stroke="rgb(0,0,0)" paint-order="fill" d="M 153.77590942382812 93.10000610351562 L 153.77590942382812 79.04285430908203" stroke-opacity="1" stroke-linejoin="bevel" stroke-miterlimit="10" stroke-width="3" stroke-dasharray="" clip-path="url(#uyTvWSbVoGXl)"/><path fill="none" stroke="none"/><path fill="rgb(255,127,14)" stroke="rgb(0,0,0)" paint-order="fill" d="M 168.07485961914062 109.5 A 5 5 0 1 1 168.07485711914083 109.49500000083333" fill-opacity="1" clip-path="url(#vGpTmolTNhXC)" stroke-opacity="1" stroke-linejoin="bevel" stroke-miterlimit="10" stroke-dasharray=""/><path fill="rgb(255,127,14)" stroke="rgb(0,0,0)" paint-order="fill" d="M 191.80348205566406 109.5 A 5 5 0 1 1 191.80347955566427 109.49500000083333" fill-opacity="1" clip-path="url(#vGpTmolTNhXC)" stroke-opacity="1" stroke-linejoin="bevel" stroke-miterlimit="10" stroke-dasharray=""/><path fill="none" stroke="none"/><path fill="none" stroke="rgb(0,0,0)" paint-order="fill" d="M 174.9391632080078 116.52857971191406 L 174.9391632080078 102.47142791748047" stroke-opacity="1" stroke-linejoin="bevel" stroke-miterlimit="10" stroke-width="3" stroke-dasharray="" clip-path="url(#uRFLENdpVqrh)"/><path fill="none" stroke="none"/><path fill="rgb(255,187,120)" stroke="rgb(0,0,0)" paint-order="fill" d="M 302.0694274902344 132.92857360839844 A 5 5 0 1 1 302.0694249902346 132.92357360923177" fill-opacity="1" clip-path="url(#uSQDpbRrudTV)" stroke-opacity="1" stroke-linejoin="bevel" stroke-miterlimit="10" stroke-dasharray=""/><path fill="rgb(255,187,120)" stroke="rgb(0,0,0)" paint-order="fill" d="M 202.48570251464844 132.92857360839844 A 5 5 0 1 1 202.48570001464864 132.92357360923177" fill-opacity="1" clip-path="url(#uSQDpbRrudTV)" stroke-opacity="1" stroke-linejoin="bevel" stroke-miterlimit="10" stroke-dasharray=""/><path fill="rgb(255,187,120)" stroke="rgb(0,0,0)" paint-order="fill" d="M 223.1062469482422 132.92857360839844 A 5 5 0 1 1 223.1062444482424 132.92357360923177" fill-opacity="1" clip-path="url(#uSQDpbRrudTV)" stroke-opacity="1" stroke-linejoin="bevel" stroke-miterlimit="10" stroke-dasharray=""/><path fill="none" stroke="none"/><path fill="none" stroke="rgb(0,0,0)" paint-order="fill" d="M 237.5537872314453 139.9571533203125 L 237.5537872314453 125.89999389648438" stroke-opacity="1" stroke-linejoin="bevel" stroke-miterlimit="10" stroke-width="3" stroke-dasharray="" clip-path="url(#ymTWiPETvhlw)"/><path fill="none" stroke="none"/><path fill="rgb(255,187,120)" stroke="rgb(0,0,0)" paint-order="fill" d="M 568.1550903320312 156.35714721679688 A 5 5 0 1 1 568.1550878320314 156.3521472176302" fill-opacity="1" clip-path="url(#uDJtBkWBzpcA)" stroke-opacity="1" stroke-linejoin="bevel" stroke-miterlimit="10" stroke-dasharray=""/><path fill="rgb(255,187,120)" stroke="rgb(0,0,0)" paint-order="fill" d="M 444.8199768066406 156.35714721679688 A 5 5 0 1 1 444.81997430664086 156.3521472176302" fill-opacity="1" clip-path="url(#uDJtBkWBzpcA)" stroke-opacity="1" stroke-linejoin="bevel" stroke-miterlimit="10" stroke-dasharray=""/><path fill="rgb(255,187,120)" stroke="rgb(0,0,0)" paint-order="fill" d="M 445.3548583984375 156.35714721679688 A 5 5 0 1 1 445.35485589843773 156.3521472176302" fill-opacity="1" clip-path="url(#uDJtBkWBzpcA)" stroke-opacity="1" stroke-linejoin="bevel" stroke-miterlimit="10" stroke-dasharray=""/><path fill="none" stroke="none"/><path fill="none" stroke="rgb(0,0,0)" paint-order="fill" d="M 481.1099548339844 163.38571166992188 L 481.1099548339844 149.3285675048828" stroke-opacity="1" stroke-linejoin="bevel" stroke-miterlimit="10" stroke-width="3" stroke-dasharray="" clip-path="url(#RzzEUspgcFwl)"/><path fill="none" stroke="none"/><path fill="rgb(44,160,44)" stroke="rgb(0,0,0)" paint-order="fill" d="M 351.34991455078125 179.7857208251953 A 5 5 0 1 1 351.3499120507815 179.78072082602864" fill-opacity="1" clip-path="url(#ReJdQpzdXWOi)" stroke-opacity="1" stroke-linejoin="bevel" stroke-miterlimit="10" stroke-dasharray=""/><path fill="rgb(44,160,44)" stroke="rgb(0,0,0)" paint-order="fill" d="M 225.1704864501953 179.7857208251953 A 5 5 0 1 1 225.17048395019552 179.78072082602864" fill-opacity="1" clip-path="url(#ReJdQpzdXWOi)" stroke-opacity="1" stroke-linejoin="bevel" stroke-miterlimit="10" stroke-dasharray=""/><path fill="rgb(44,160,44)" stroke="rgb(0,0,0)" paint-order="fill" d="M 219.8596649169922 179.7857208251953 A 5 5 0 1 1 219.8596624169924 179.78072082602864" fill-opacity="1" clip-path="url(#ReJdQpzdXWOi)" stroke-opacity="1" stroke-linejoin="bevel" stroke-miterlimit="10" stroke-dasharray=""/><path fill="none" stroke="none"/><path fill="none" stroke="rgb(0,0,0)" paint-order="fill" d="M 260.46002197265625 186.8142852783203 L 260.46002197265625 172.75714111328125" stroke-opacity="1" stroke-linejoin="bevel" stroke-miterlimit="10" stroke-width="3" stroke-dasharray="" clip-path="url(#KSxvwCUisBqE)"/><path fill="none" stroke="none"/><path fill="rgb(44,160,44)" stroke="rgb(0,0,0)" paint-order="fill" d="M 415.365478515625 203.2142791748047 A 5 5 0 1 1 415.36547601562523 203.20927917563802" fill-opacity="1" clip-path="url(#NzrTieiNkQlK)" stroke-opacity="1" stroke-linejoin="bevel" stroke-miterlimit="10" stroke-dasharray=""/><path fill="rgb(44,160,44)" stroke="rgb(0,0,0)" paint-order="fill" d="M 401.123046875 203.2142791748047 A 5 5 0 1 1 401.12304437500023 203.20927917563802" fill-opacity="1" clip-path="url(#NzrTieiNkQlK)" stroke-opacity="1" stroke-linejoin="bevel" stroke-miterlimit="10" stroke-dasharray=""/><path fill="rgb(44,160,44)" stroke="rgb(0,0,0)" paint-order="fill" d="M 369.1903076171875 203.2142791748047 A 5 5 0 1 1 369.19030511718773 203.20927917563802" fill-opacity="1" clip-path="url(#NzrTieiNkQlK)" stroke-opacity="1" stroke-linejoin="bevel" stroke-miterlimit="10" stroke-dasharray=""/><path fill="none" stroke="none"/><path fill="none" stroke="rgb(0,0,0)" paint-order="fill" d="M 390.2262878417969 210.24285888671875 L 390.2262878417969 196.1857147216797" stroke-opacity="1" stroke-linejoin="bevel" stroke-miterlimit="10" stroke-width="3" stroke-dasharray="" clip-path="url(#TVfLDCJbaEvx)"/><path fill="none" stroke="none"/><path fill="rgb(152,223,138)" stroke="rgb(0,0,0)" paint-order="fill" d="M 290.6409912109375 226.64285278320312 A 5 5 0 1 1 290.64098871093773 226.63785278403645" fill-opacity="1" clip-path="url(#mfiQgNdlGHsN)" stroke-opacity="1" stroke-linejoin="bevel" stroke-miterlimit="10" stroke-dasharray=""/><path fill="rgb(152,223,138)" stroke="rgb(0,0,0)" paint-order="fill" d="M 180.45089721679688 226.64285278320312 A 5 5 0 1 1 180.45089471679708 226.63785278403645" fill-opacity="1" clip-path="url(#mfiQgNdlGHsN)" stroke-opacity="1" stroke-linejoin="bevel" stroke-miterlimit="10" stroke-dasharray=""/><path fill="rgb(152,223,138)" stroke="rgb(0,0,0)" paint-order="fill" d="M 197.29281616210938 226.64285278320312 A 5 5 0 1 1 197.29281366210958 226.63785278403645" fill-opacity="1" clip-path="url(#mfiQgNdlGHsN)" stroke-opacity="1" stroke-linejoin="bevel" stroke-miterlimit="10" stroke-dasharray=""/><path fill="none" stroke="none"/><path fill="none" stroke="rgb(0,0,0)" paint-order="fill" d="M 217.79489135742188 233.6714324951172 L 217.79489135742188 219.61428833007812" stroke-opacity="1" stroke-linejoin="bevel" stroke-miterlimit="10" stroke-width="3" stroke-dasharray="" clip-path="url(#aaXgLGJqViCq)"/><path fill="none" stroke="none"/><path fill="rgb(152,223,138)" stroke="rgb(0,0,0)" paint-order="fill" d="M 317.45208740234375 250.07142639160156 A 5 5 0 1 1 317.452084902344 250.0664263924349" fill-opacity="1" clip-path="url(#MzPgkwharckl)" stroke-opacity="1" stroke-linejoin="bevel" stroke-miterlimit="10" stroke-dasharray=""/><path fill="rgb(152,223,138)" stroke="rgb(0,0,0)" paint-order="fill" d="M 286.69580078125 250.07142639160156 A 5 5 0 1 1 286.69579828125023 250.0664263924349" fill-opacity="1" clip-path="url(#MzPgkwharckl)" stroke-opacity="1" stroke-linejoin="bevel" stroke-miterlimit="10" stroke-dasharray=""/><path fill="rgb(152,223,138)" stroke="rgb(0,0,0)" paint-order="fill" d="M 278.7127380371094 250.07142639160156 A 5 5 0 1 1 278.7127355371096 250.0664263924349" fill-opacity="1" clip-path="url(#MzPgkwharckl)" stroke-opacity="1" stroke-linejoin="bevel" stroke-miterlimit="10" stroke-dasharray=""/><path fill="none" stroke="none"/><path fill="none" stroke="rgb(0,0,0)" paint-order="fill" d="M 289.286865234375 257.1000061035156 L 289.286865234375 243.0428466796875" stroke-opacity="1" stroke-linejoin="bevel" stroke-miterlimit="10" stroke-width="3" stroke-dasharray="" clip-path="url(#qtbUmepEorol)"/><path fill="none" stroke="none"/><path fill="rgb(214,39,40)" stroke="rgb(0,0,0)" paint-order="fill" d="M 176.029296875 273.5 A 5 5 0 1 1 176.0292943750002 273.49500000083333" fill-opacity="1" clip-path="url(#fWWKsGehMpXv)" stroke-opacity="1" stroke-linejoin="bevel" stroke-miterlimit="10" stroke-dasharray=""/><path fill="rgb(214,39,40)" stroke="rgb(0,0,0)" paint-order="fill" d="M 167.6726837158203 273.5 A 5 5 0 1 1 167.67268121582052 273.49500000083333" fill-opacity="1" clip-path="url(#fWWKsGehMpXv)" stroke-opacity="1" stroke-linejoin="bevel" stroke-miterlimit="10" stroke-dasharray=""/><path fill="rgb(214,39,40)" stroke="rgb(0,0,0)" paint-order="fill" d="M 170.74310302734375 273.5 A 5 5 0 1 1 170.74310052734396 273.49500000083333" fill-opacity="1" clip-path="url(#fWWKsGehMpXv)" stroke-opacity="1" stroke-linejoin="bevel" stroke-miterlimit="10" stroke-dasharray=""/><path fill="none" stroke="none"/><path fill="none" stroke="rgb(0,0,0)" paint-order="fill" d="M 166.481689453125 280.528564453125 L 166.481689453125 266.471435546875" stroke-opacity="1" stroke-linejoin="bevel" stroke-miterlimit="10" stroke-width="3" stroke-dasharray="" clip-path="url(#NzpCdXvnibIk)"/><path fill="none" stroke="none"/><path fill="rgb(214,39,40)" stroke="rgb(0,0,0)" paint-order="fill" d="M 278.9945068359375 296.9285583496094 A 5 5 0 1 1 278.99450433593773 296.9235583504427" fill-opacity="1" clip-path="url(#wBcIDTBAXaar)" stroke-opacity="1" stroke-linejoin="bevel" stroke-miterlimit="10" stroke-dasharray=""/><path fill="rgb(214,39,40)" stroke="rgb(0,0,0)" paint-order="fill" d="M 263.4693603515625 296.9285583496094 A 5 5 0 1 1 263.46935785156273 296.9235583504427" fill-opacity="1" clip-path="url(#wBcIDTBAXaar)" stroke-opacity="1" stroke-linejoin="bevel" stroke-miterlimit="10" stroke-dasharray=""/><path fill="rgb(214,39,40)" stroke="rgb(0,0,0)" paint-order="fill" d="M 270.36212158203125 296.9285583496094 A 5 5 0 1 1 270.3621190820315 296.9235583504427" fill-opacity="1" clip-path="url(#wBcIDTBAXaar)" stroke-opacity="1" stroke-linejoin="bevel" stroke-miterlimit="10" stroke-dasharray=""/><path fill="none" stroke="none"/><path fill="none" stroke="rgb(0,0,0)" paint-order="fill" d="M 265.9419860839844 303.9571533203125 L 265.9419860839844 289.8999938964844" stroke-opacity="1" stroke-linejoin="bevel" stroke-miterlimit="10" stroke-width="3" stroke-dasharray="" clip-path="url(#yZIeUJZPTDOH)"/><path fill="none" stroke="none"/><path fill="rgb(255,152,150)" stroke="rgb(0,0,0)" paint-order="fill" d="M 179.5042266845703 320.3571472167969 A 5 5 0 1 1 179.50422418457052 320.3521472176302" fill-opacity="1" clip-path="url(#cagrrZEVTtvE)" stroke-opacity="1" stroke-linejoin="bevel" stroke-miterlimit="10" stroke-dasharray=""/><path fill="rgb(255,152,150)" stroke="rgb(0,0,0)" paint-order="fill" d="M 172.8175048828125 320.3571472167969 A 5 5 0 1 1 172.8175023828127 320.3521472176302" fill-opacity="1" clip-path="url(#cagrrZEVTtvE)" stroke-opacity="1" stroke-linejoin="bevel" stroke-miterlimit="10" stroke-dasharray=""/><path fill="rgb(255,152,150)" stroke="rgb(0,0,0)" paint-order="fill" d="M 185.00448608398438 320.3571472167969 A 5 5 0 1 1 185.00448358398458 320.3521472176302" fill-opacity="1" clip-path="url(#cagrrZEVTtvE)" stroke-opacity="1" stroke-linejoin="bevel" stroke-miterlimit="10" stroke-dasharray=""/><path fill="none" stroke="none"/><path fill="none" stroke="rgb(0,0,0)" paint-order="fill" d="M 174.10873413085938 327.3857116699219 L 174.10873413085938 313.3285827636719" stroke-opacity="1" stroke-linejoin="bevel" stroke-miterlimit="10" stroke-width="3" stroke-dasharray="" clip-path="url(#wfyvMuQaeOTX)"/><path fill="none" stroke="none"/><path fill="rgb(255,152,150)" stroke="rgb(0,0,0)" paint-order="fill" d="M 326.4533996582031 343.78570556640625 A 5 5 0 1 1 326.45339715820336 343.7807055672396" fill-opacity="1" clip-path="url(#cyVTfDMbTrgH)" stroke-opacity="1" stroke-linejoin="bevel" stroke-miterlimit="10" stroke-dasharray=""/><path fill="rgb(255,152,150)" stroke="rgb(0,0,0)" paint-order="fill" d="M 329.7257995605469 343.78570556640625 A 5 5 0 1 1 329.7257970605471 343.7807055672396" fill-opacity="1" clip-path="url(#cyVTfDMbTrgH)" stroke-opacity="1" stroke-linejoin="bevel" stroke-miterlimit="10" stroke-dasharray=""/><path fill="rgb(255,152,150)" stroke="rgb(0,0,0)" paint-order="fill" d="M 275.97955322265625 343.78570556640625 A 5 5 0 1 1 275.9795507226565 343.7807055672396" fill-opacity="1" clip-path="url(#cyVTfDMbTrgH)" stroke-opacity="1" stroke-linejoin="bevel" stroke-miterlimit="10" stroke-dasharray=""/><path fill="none" stroke="none"/><path fill="none" stroke="rgb(0,0,0)" paint-order="fill" d="M 305.7195739746094 350.8143005371094 L 305.7195739746094 336.75714111328125" stroke-opacity="1" stroke-linejoin="bevel" stroke-miterlimit="10" stroke-width="3" stroke-dasharray="" clip-path="url(#ZaVIaefAUAJZ)"/><path fill="none" stroke="none"/><path fill="none" stroke="rgb(0,0,0)" paint-order="fill" d="M 165.375 355.5 L 165.375 27.5" stroke-opacity="1" stroke-linejoin="bevel" stroke-miterlimit="10" stroke-dasharray="2,4" clip-path="url(#JcDbPvepgBWo)"/><path fill="none" stroke="rgb(0,0,0)" paint-order="fill" d="M 107.5 355.5 L 570.5 355.5" stroke-opacity="1" stroke-linejoin="bevel" stroke-miterlimit="10" stroke-dasharray=""/><path fill="none" stroke="rgb(0,0,0)" paint-order="fill" d="M 107.5 361.5 L 107.5 353.5 M 165.5 361.5 L 165.5 353.5 M 223.5 361.5 L 223.5 353.5 M 281.5 361.5 L 281.5 353.5 M 339.5 361.5 L 339.5 353.5 M 396.5 361.5 L 396.5 353.5 M 454.5 361.5 L 454.5 353.5 M 512.5 361.5 L 512.5 353.5 M 570.5 361.5 L 570.5 353.5" stroke-opacity="1" stroke-linejoin="bevel" stroke-miterlimit="10" stroke-dasharray=""/><path fill="none" stroke="rgb(0,0,0)" paint-order="fill" d="M 107.5 359.5 L 107.5 355.5 M 119.5 359.5 L 119.5 355.5 M 130.5 359.5 L 130.5 355.5 M 142.5 359.5 L 142.5 355.5 M 153.5 359.5 L 153.5 355.5 M 165.5 359.5 L 165.5 355.5 M 176.5 359.5 L 176.5 355.5 M 188.5 359.5 L 188.5 355.5 M 200.5 359.5 L 200.5 355.5 M 211.5 359.5 L 211.5 355.5 M 223.5 359.5 L 223.5 355.5 M 234.5 359.5 L 234.5 355.5 M 246.5 359.5 L 246.5 355.5 M 257.5 359.5 L 257.5 355.5 M 269.5 359.5 L 269.5 355.5 M 281.5 359.5 L 281.5 355.5 M 292.5 359.5 L 292.5 355.5 M 304.5 359.5 L 304.5 355.5 M 315.5 359.5 L 315.5 355.5 M 327.5 359.5 L 327.5 355.5 M 339.5 359.5 L 339.5 355.5 M 350.5 359.5 L 350.5 355.5 M 362.5 359.5 L 362.5 355.5 M 373.5 359.5 L 373.5 355.5 M 385.5 359.5 L 385.5 355.5 M 396.5 359.5 L 396.5 355.5 M 408.5 359.5 L 408.5 355.5 M 420.5 359.5 L 420.5 355.5 M 431.5 359.5 L 431.5 355.5 M 443.5 359.5 L 443.5 355.5 M 454.5 359.5 L 454.5 355.5 M 466.5 359.5 L 466.5 355.5 M 477.5 359.5 L 477.5 355.5 M 489.5 359.5 L 489.5 355.5 M 501.5 359.5 L 501.5 355.5 M 512.5 359.5 L 512.5 355.5 M 524.5 359.5 L 524.5 355.5 M 535.5 359.5 L 535.5 355.5 M 547.5 359.5 L 547.5 355.5 M 558.5 359.5 L 558.5 355.5 M 570.5 359.5 L 570.5 355.5" stroke-opacity="1" stroke-linejoin="bevel" stroke-miterlimit="10" stroke-dasharray=""/><text fill="rgb(68,68,68)" stroke="none" font-family="helvetica" font-size="11px" font-style="normal" font-weight="normal" text-decoration="normal" x="103.941162109375" y="374" text-anchor="start" dominant-baseline="alphabetic" transform="matrix(1, 0, 0, 1, 0.5, 0.5)" fill-opacity="1">0</text><text fill="rgb(68,68,68)" stroke="none" font-family="helvetica" font-size="11px" font-style="normal" font-weight="normal" text-decoration="normal" x="161.816162109375" y="374" text-anchor="start" dominant-baseline="alphabetic" transform="matrix(1, 0, 0, 1, 0.5, 0.5)" fill-opacity="1">1</text><text fill="rgb(68,68,68)" stroke="none" font-family="helvetica" font-size="11px" font-style="normal" font-weight="normal" text-decoration="normal" x="219.691162109375" y="374" text-anchor="start" dominant-baseline="alphabetic" transform="matrix(1, 0, 0, 1, 0.5, 0.5)" fill-opacity="1">2</text><text fill="rgb(68,68,68)" stroke="none" font-family="helvetica" font-size="11px" font-style="normal" font-weight="normal" text-decoration="normal" x="277.566162109375" y="374" text-anchor="start" dominant-baseline="alphabetic" transform="matrix(1, 0, 0, 1, 0.5, 0.5)" fill-opacity="1">3</text><text fill="rgb(68,68,68)" stroke="none" font-family="helvetica" font-size="11px" font-style="normal" font-weight="normal" text-decoration="normal" x="335.441162109375" y="374" text-anchor="start" dominant-baseline="alphabetic" transform="matrix(1, 0, 0, 1, 0.5, 0.5)" fill-opacity="1">4</text><text fill="rgb(68,68,68)" stroke="none" font-family="helvetica" font-size="11px" font-style="normal" font-weight="normal" text-decoration="normal" x="393.316162109375" y="374" text-anchor="start" dominant-baseline="alphabetic" transform="matrix(1, 0, 0, 1, 0.5, 0.5)" fill-opacity="1">5</text><text fill="rgb(68,68,68)" stroke="none" font-family="helvetica" font-size="11px" font-style="normal" font-weight="normal" text-decoration="normal" x="451.191162109375" y="374" text-anchor="start" dominant-baseline="alphabetic" transform="matrix(1, 0, 0, 1, 0.5, 0.5)" fill-opacity="1">6</text><text fill="rgb(68,68,68)" stroke="none" font-family="helvetica" font-size="11px" font-style="normal" font-weight="normal" text-decoration="normal" x="509.066162109375" y="374" text-anchor="start" dominant-baseline="alphabetic" transform="matrix(1, 0, 0, 1, 0.5, 0.5)" fill-opacity="1">7</text><text fill="rgb(68,68,68)" stroke="none" font-family="helvetica" font-size="11px" font-style="normal" font-weight="normal" text-decoration="normal" x="566.941162109375" y="374" text-anchor="start" dominant-baseline="alphabetic" transform="matrix(1, 0, 0, 1, 0.5, 0.5)" fill-opacity="1">8</text><text fill="rgb(68,68,68)" stroke="none" font-family="helvetica" font-size="13px" font-style="italic" font-weight="normal" text-decoration="normal" x="281.41552734375" y="394" text-anchor="start" dominant-baseline="alphabetic" transform="matrix(1, 0, 0, 1, 0.5, 0.5)" fill-opacity="1">Relative PaQa level</text><path fill="none" stroke="rgb(0,0,0)" paint-order="fill" d="M 107.5 355.5 L 107.5 27.5" stroke-opacity="1" stroke-linejoin="bevel" stroke-miterlimit="10" stroke-dasharray=""/><path fill="none" stroke="rgb(0,0,0)" paint-order="fill" d="M 101.5 343.5 L 109.5 343.5 M 101.5 320.5 L 109.5 320.5 M 101.5 296.5 L 109.5 296.5 M 101.5 273.5 L 109.5 273.5 M 101.5 250.5 L 109.5 250.5 M 101.5 226.5 L 109.5 226.5 M 101.5 203.5 L 109.5 203.5 M 101.5 179.5 L 109.5 179.5 M 101.5 156.5 L 109.5 156.5 M 101.5 132.5 L 109.5 132.5 M 101.5 109.5 L 109.5 109.5 M 101.5 86.5 L 109.5 86.5 M 101.5 62.5 L 109.5 62.5 M 101.5 39.5 L 109.5 39.5" stroke-opacity="1" stroke-linejoin="bevel" stroke-miterlimit="10" stroke-dasharray=""/><text fill="rgb(68,68,68)" stroke="none" font-family="helvetica" font-size="9pt" font-style="normal" font-weight="normal" text-decoration="normal" x="8.619140625" y="347.28570556640625" text-anchor="start" dominant-baseline="alphabetic" transform="matrix(1, 0, 0, 1, 0.5, 0.5)" fill-opacity="1">pilA_R36N Solid</text><text fill="rgb(68,68,68)" stroke="none" font-family="helvetica" font-size="9pt" font-style="normal" font-weight="normal" text-decoration="normal" x="3.275390625" y="323.8571472167969" text-anchor="start" dominant-baseline="alphabetic" transform="matrix(1, 0, 0, 1, 0.5, 0.5)" fill-opacity="1">pilA_R36N Liquid</text><text fill="rgb(68,68,68)" stroke="none" font-family="helvetica" font-size="9pt" font-style="normal" font-weight="normal" text-decoration="normal" x="9.28125" y="300.4285583496094" text-anchor="start" dominant-baseline="alphabetic" transform="matrix(1, 0, 0, 1, 0.5, 0.5)" fill-opacity="1">pilA_R36E Solid</text><text fill="rgb(68,68,68)" stroke="none" font-family="helvetica" font-size="9pt" font-style="normal" font-weight="normal" text-decoration="normal" x="3.9375" y="277" text-anchor="start" dominant-baseline="alphabetic" transform="matrix(1, 0, 0, 1, 0.5, 0.5)" fill-opacity="1">pilA_R36E Liquid</text><text fill="rgb(68,68,68)" stroke="none" font-family="helvetica" font-size="9pt" font-style="normal" font-weight="normal" text-decoration="normal" x="17.96484375" y="253.57142639160156" text-anchor="start" dominant-baseline="alphabetic" transform="matrix(1, 0, 0, 1, 0.5, 0.5)" fill-opacity="1">pilA_T8F Solid</text><text fill="rgb(68,68,68)" stroke="none" font-family="helvetica" font-size="9pt" font-style="normal" font-weight="normal" text-decoration="normal" x="12.62109375" y="230.14285278320312" text-anchor="start" dominant-baseline="alphabetic" transform="matrix(1, 0, 0, 1, 0.5, 0.5)" fill-opacity="1">pilA_T8F Liquid</text><text fill="rgb(68,68,68)" stroke="none" font-family="helvetica" font-size="9pt" font-style="normal" font-weight="normal" text-decoration="normal" x="21.9609375" y="206.7142791748047" text-anchor="start" dominant-baseline="alphabetic" transform="matrix(1, 0, 0, 1, 0.5, 0.5)" fill-opacity="1">pilA_T8I Solid</text><text fill="rgb(68,68,68)" stroke="none" font-family="helvetica" font-size="9pt" font-style="normal" font-weight="normal" text-decoration="normal" x="16.6171875" y="183.2857208251953" text-anchor="start" dominant-baseline="alphabetic" transform="matrix(1, 0, 0, 1, 0.5, 0.5)" fill-opacity="1">pilA_T8I Liquid</text><text fill="rgb(68,68,68)" stroke="none" font-family="helvetica" font-size="9pt" font-style="normal" font-weight="normal" text-decoration="normal" x="17.291015625" y="159.85714721679688" text-anchor="start" dominant-baseline="alphabetic" transform="matrix(1, 0, 0, 1, 0.5, 0.5)" fill-opacity="1">pilA_T8V Solid</text><text fill="rgb(68,68,68)" stroke="none" font-family="helvetica" font-size="9pt" font-style="normal" font-weight="normal" text-decoration="normal" x="11.947265625" y="136.42857360839844" text-anchor="start" dominant-baseline="alphabetic" transform="matrix(1, 0, 0, 1, 0.5, 0.5)" fill-opacity="1">pilA_T8V Liquid</text><text fill="rgb(68,68,68)" stroke="none" font-family="helvetica" font-size="9pt" font-style="normal" font-weight="normal" text-decoration="normal" x="37.95703125" y="113" text-anchor="start" dominant-baseline="alphabetic" transform="matrix(1, 0, 0, 1, 0.5, 0.5)" fill-opacity="1">ΔpilA Solid</text><text fill="rgb(68,68,68)" stroke="none" font-family="helvetica" font-size="9pt" font-style="normal" font-weight="normal" text-decoration="normal" x="32.61328125" y="89.57142639160156" text-anchor="start" dominant-baseline="alphabetic" transform="matrix(1, 0, 0, 1, 0.5, 0.5)" fill-opacity="1">ΔpilA Liquid</text><text fill="rgb(68,68,68)" stroke="none" font-family="helvetica" font-size="9pt" font-style="normal" font-weight="normal" text-decoration="normal" x="47.326171875" y="66.14285659790039" text-anchor="start" dominant-baseline="alphabetic" transform="matrix(1, 0, 0, 1, 0.5, 0.5)" fill-opacity="1">WT Solid</text><text fill="rgb(68,68,68)" stroke="none" font-family="helvetica" font-size="9pt" font-style="normal" font-weight="normal" text-decoration="normal" x="41.982421875" y="42.71428680419922" text-anchor="start" dominant-baseline="alphabetic" transform="matrix(1, 0, 0, 1, 0.5, 0.5)" fill-opacity="1">WT Liquid</text><path fill="rgb(255,255,255)" stroke="rgb(229,229,229)" paint-order="fill" d="M 402.7783203125 37.5 L 560.5 37.5 L 560.5 123.5 L 402.7783203125 123.5 L 402.7783203125 37.5" fill-opacity="0.9490196078431372" clip-path="url(#hCkTGTmOlPLf)" stroke-opacity="0.5019607843137255" stroke-linejoin="bevel" stroke-miterlimit="10" stroke-dasharray=""/><text fill="rgb(68,68,68)" stroke="none" font-family="helvetica" font-size="13px" font-style="normal" font-weight="normal" text-decoration="normal" x="437.2783203125" y="57" text-anchor="start" dominant-baseline="central" transform="matrix(1, 0, 0, 1, 0.5, 0.5)" fill-opacity="1">mean</text><path fill="none" stroke="rgb(0,0,0)" paint-order="fill" d="M 412.7783203125 57.5 L 432.7783203125 57.5" stroke-opacity="1" stroke-linejoin="bevel" stroke-miterlimit="10" stroke-width="3" stroke-dasharray="" clip-path="url(#hCkTGTmOlPLf)"/><text fill="rgb(68,68,68)" stroke="none" font-family="helvetica" font-size="13px" font-style="normal" font-weight="normal" text-decoration="normal" x="437.2783203125" y="80" text-anchor="start" dominant-baseline="central" transform="matrix(1, 0, 0, 1, 0.5, 0.5)" fill-opacity="1">means of replicates</text><path fill="rgb(255,127,14)" stroke="rgb(0,0,0)" paint-order="fill" d="M 426.7783203125 80.5 A 4 4 0 1 1 426.7783183125002 80.49600000066667" fill-opacity="1" clip-path="url(#hCkTGTmOlPLf)" stroke-opacity="1" stroke-linejoin="bevel" stroke-miterlimit="10" stroke-dasharray=""/><path fill="rgb(255,127,14)" stroke="rgb(0,0,0)" paint-order="fill" d="M 426.7783203125 80.5 A 4 4 0 1 1 426.7783183125002 80.49600000066667" fill-opacity="1" clip-path="url(#hCkTGTmOlPLf)" stroke-opacity="1" stroke-linejoin="bevel" stroke-miterlimit="10" stroke-dasharray=""/><path fill="rgb(255,187,120)" stroke="rgb(0,0,0)" paint-order="fill" d="M 426.7783203125 80.5 A 4 4 0 1 1 426.7783183125002 80.49600000066667" fill-opacity="1" clip-path="url(#hCkTGTmOlPLf)" stroke-opacity="1" stroke-linejoin="bevel" stroke-miterlimit="10" stroke-dasharray=""/><path fill="rgb(255,187,120)" stroke="rgb(0,0,0)" paint-order="fill" d="M 426.7783203125 80.5 A 4 4 0 1 1 426.7783183125002 80.49600000066667" fill-opacity="1" clip-path="url(#hCkTGTmOlPLf)" stroke-opacity="1" stroke-linejoin="bevel" stroke-miterlimit="10" stroke-dasharray=""/><path fill="rgb(44,160,44)" stroke="rgb(0,0,0)" paint-order="fill" d="M 426.7783203125 80.5 A 4 4 0 1 1 426.7783183125002 80.49600000066667" fill-opacity="1" clip-path="url(#hCkTGTmOlPLf)" stroke-opacity="1" stroke-linejoin="bevel" stroke-miterlimit="10" stroke-dasharray=""/><path fill="rgb(44,160,44)" stroke="rgb(0,0,0)" paint-order="fill" d="M 426.7783203125 80.5 A 4 4 0 1 1 426.7783183125002 80.49600000066667" fill-opacity="1" clip-path="url(#hCkTGTmOlPLf)" stroke-opacity="1" stroke-linejoin="bevel" stroke-miterlimit="10" stroke-dasharray=""/><path fill="rgb(152,223,138)" stroke="rgb(0,0,0)" paint-order="fill" d="M 426.7783203125 80.5 A 4 4 0 1 1 426.7783183125002 80.49600000066667" fill-opacity="1" clip-path="url(#hCkTGTmOlPLf)" stroke-opacity="1" stroke-linejoin="bevel" stroke-miterlimit="10" stroke-dasharray=""/><path fill="rgb(152,223,138)" stroke="rgb(0,0,0)" paint-order="fill" d="M 426.7783203125 80.5 A 4 4 0 1 1 426.7783183125002 80.49600000066667" fill-opacity="1" clip-path="url(#hCkTGTmOlPLf)" stroke-opacity="1" stroke-linejoin="bevel" stroke-miterlimit="10" stroke-dasharray=""/><path fill="rgb(214,39,40)" stroke="rgb(0,0,0)" paint-order="fill" d="M 426.7783203125 80.5 A 4 4 0 1 1 426.7783183125002 80.49600000066667" fill-opacity="1" clip-path="url(#hCkTGTmOlPLf)" stroke-opacity="1" stroke-linejoin="bevel" stroke-miterlimit="10" stroke-dasharray=""/><path fill="rgb(214,39,40)" stroke="rgb(0,0,0)" paint-order="fill" d="M 426.7783203125 80.5 A 4 4 0 1 1 426.7783183125002 80.49600000066667" fill-opacity="1" clip-path="url(#hCkTGTmOlPLf)" stroke-opacity="1" stroke-linejoin="bevel" stroke-miterlimit="10" stroke-dasharray=""/><path fill="rgb(255,152,150)" stroke="rgb(0,0,0)" paint-order="fill" d="M 426.7783203125 80.5 A 4 4 0 1 1 426.7783183125002 80.49600000066667" fill-opacity="1" clip-path="url(#hCkTGTmOlPLf)" stroke-opacity="1" stroke-linejoin="bevel" stroke-miterlimit="10" stroke-dasharray=""/><path fill="rgb(255,152,150)" stroke="rgb(0,0,0)" paint-order="fill" d="M 426.7783203125 80.5 A 4 4 0 1 1 426.7783183125002 80.49600000066667" fill-opacity="1" clip-path="url(#hCkTGTmOlPLf)" stroke-opacity="1" stroke-linejoin="bevel" stroke-miterlimit="10" stroke-dasharray=""/><text fill="rgb(68,68,68)" stroke="none" font-family="helvetica" font-size="13px" font-style="normal" font-weight="normal" text-decoration="normal" x="437.2783203125" y="103" text-anchor="start" dominant-baseline="central" transform="matrix(1, 0, 0, 1, 0.5, 0.5)" fill-opacity="1">Reference</text><path fill="none" stroke="rgb(0,0,0)" paint-order="fill" d="M 412.7783203125 103.5 L 432.7783203125 103.5" stroke-opacity="1" stroke-linejoin="bevel" stroke-miterlimit="10" stroke-dasharray="2,4" clip-path="url(#hCkTGTmOlPLf)"/><path fill="none" stroke="none"/><text fill="rgb(68,68,68)" stroke="none" font-family="helvetica" font-size="13px" font-style="normal" font-weight="bold" text-decoration="normal" x="0" y="0" text-anchor="start" dominant-baseline="text-after-edge" transform="matrix(1, 0, 0, 1, 107.5, 22.5)" fill-opacity="1"> PaQa_ratio on Liquid vs. Solid in linear scale</text></svg>