<svg version="1.1" xmlns="http://www.w3.org/2000/svg" xmlns:xlink="http://www.w3.org/1999/xlink" width="600" height="400"><defs><clipPath id="rQTJrtMRUBRo"><path fill="none" stroke="none" d="M 142.5 28.5 L 570.5 28.5 L 570.5 355.5 L 142.5 355.5 L 142.5 28.5"/></clipPath><clipPath id="phJZWTNkcaTu"><path fill="none" stroke="none" d="M 142.5 28.5 L 570.5 28.5 L 570.5 355.5 L 142.5 355.5 L 142.5 28.5"/></clipPath><clipPath id="iFrNcwkmDGDR"><path fill="none" stroke="none" d="M 142.5 28.5 L 570.5 28.5 L 570.5 355.5 L 142.5 355.5 L 142.5 28.5"/></clipPath><clipPath id="eQsztNuOGSKq"><path fill="none" stroke="none" d="M 142.5 28.5 L 570.5 28.5 L 570.5 355.5 L 142.5 355.5 L 142.5 28.5"/></clipPath><clipPath id="JRpQFerdaMtn"><path fill="none" stroke="none" d="M 142.5 28.5 L 570.5 28.5 L 570.5 355.5 L 142.5 355.5 L 142.5 28.5"/></clipPath><clipPath id="HzAbRNrVoEsd"><path fill="none" stroke="none" d="M 142.5 28.5 L 570.5 28.5 L 570.5 355.5 L 142.5 355.5 L 142.5 28.5"/></clipPath><clipPath id="zkuanRtncooT"><path fill="none" stroke="none" d="M 142.5 28.5 L 570.5 28.5 L 570.5 355.5 L 142.5 355.5 L 142.5 28.5"/></clipPath><clipPath id="LsBudehSuZAr"><path fill="none" stroke="none" d="M 142.5 28.5 L 570.5 28.5 L 570.5 355.5 L 142.5 355.5 L 142.5 28.5"/></clipPath><clipPath id="sUAKyotxsvlJ"><path fill="none" stroke="none" d="M 142.5 28.5 L 570.5 28.5 L 570.5 355.5 L 142.5 355.5 L 142.5 28.5"/></clipPath><clipPath id="nrpiZukVudCt"><path fill="none" stroke="none" d="M 142.5 28.5 L 570.5 28.5 L 570.5 355.5 L 142.5 355.5 L 142.5 28.5"/></clipPath><clipPath id="LzVmXGKxsLJh"><path fill="none" stroke="none" d="M 142.5 28.5 L 570.5 28.5 L 570.5 355.5 L 142.5 355.5 L 142.5 28.5"/></clipPath><clipPath id="NfUSJcSdkraG"><path fill="none" stroke="none" d="M 142.5 28.5 L 570.5 28.5 L 570.5 355.5 L 142.5 355.5 L 142.5 28.5"/></clipPath><clipPath id="pvyBxUcqltOT"><path fill="none" stroke="none" d="M 142.5 28.5 L 570.5 28.5 L 570.5 355.5 L 142.5 355.5 L 142.5 28.5"/></clipPath><clipPath id="GfVatFfHwykT"><path fill="none" stroke="none" d="M 142.5 28.5 L 570.5 28.5 L 570.5 355.5 L 142.5 355.5 L 142.5 28.5"/></clipPath><clipPath id="ZshRhyOUnXKi"><path fill="none" stroke="none" d="M 142.5 28.5 L 570.5 28.5 L 570.5 355.5 L 142.5 355.5 L 142.5 28.5"/></clipPath><clipPath id="vCpSlzULIJTU"><path fill="none" stroke="none" d="M 142.5 28.5 L 570.5 28.5 L 570.5 355.5 L 142.5 355.5 L 142.5 28.5"/></clipPath><clipPath id="PRJiLatebwTH"><path fill="none" stroke="none" d="M 142.5 28.5 L 570.5 28.5 L 570.5 355.5 L 142.5 355.5 L 142.5 28.5"/></clipPath><clipPath id="mOxdfyHiLWLk"><path fill="none" stroke="none" d="M 142.5 28.5 L 570.5 28.5 L 570.5 355.5 L 142.5 355.5 L 142.5 28.5"/></clipPath><clipPath id="DRwJnkVzCXzm"><path fill="none" stroke="none" d="M 142.5 28.5 L 570.5 28.5 L 570.5 355.5 L 142.5 355.5 L 142.5 28.5"/></clipPath><clipPath id="fpAectInhial"><path fill="none" stroke="none" d="M 142.5 28.5 L 570.5 28.5 L 570.5 355.5 L 142.5 355.5 L 142.5 28.5"/></clipPath><clipPath id="EXinsSJrdUHS"><path fill="none" stroke="none" d="M 142.5 28.5 L 570.5 28.5 L 570.5 355.5 L 142.5 355.5 L 142.5 28.5"/></clipPath><clipPath id="VlWWoeblzTOu"><path fill="none" stroke="none" d="M 142.5 28.5 L 570.5 28.5 L 570.5 355.5 L 142.5 355.5 L 142.5 28.5"/></clipPath><clipPath id="VhtTeMNfEgtF"><path fill="none" stroke="none" d="M 142.5 28.5 L 570.5 28.5 L 570.5 355.5 L 142.5 355.5 L 142.5 28.5"/></clipPath><clipPath id="dHrOsBagQBlB"><path fill="none" stroke="none" d="M 142.5 28.5 L 570.5 28.5 L 570.5 355.5 L 142.5 355.5 L 142.5 28.5"/></clipPath><clipPath id="IPIWTLDldycu"><path fill="none" stroke="none" d="M 142.5 28.5 L 570.5 28.5 L 570.5 355.5 L 142.5 355.5 L 142.5 28.5"/></clipPath></defs><path fill="rgb(255,255,255)" stroke="none" paint-order="stroke" d="M 0.5 0.5 L 600.5 0.5 L 600.5 400.5 L 0.5 400.5 L 0.5 0.5" fill-opacity="1"/><rect fill="#FFFFFF" stroke="none" x="142" y="28" width="428" height="327" transform="matrix(1, 0, 0, 1, 0.5, 0.5)"/><path fill="rgb(255,255,255)" stroke="none" paint-order="stroke" d="M 142.5 28.5 L 570.5 28.5 L 570.5 355.5 L 142.5 355.5 L 142.5 28.5" fill-opacity="1"/><path fill="none" stroke="rgb(229,229,229)" paint-order="fill" d="M 142.5 28.5 L 570.5 28.5 L 570.5 355.5 L 142.5 355.5 L 142.5 28.5" stroke-opacity="1" stroke-linejoin="bevel" stroke-miterlimit="10" stroke-dasharray=""/><path fill="none" stroke="none"/><path fill="rgb(31,119,180)" stroke="rgb(0,0,0)" paint-order="fill" d="M 204.0334014892578 44.849998474121094 A 5 5 0 1 1 204.03339898925802 44.84499847495442" fill-opacity="1" clip-path="url(#iFrNcwkmDGDR)" stroke-opacity="1" stroke-linejoin="bevel" stroke-miterlimit="10" stroke-dasharray=""/><path fill="rgb(31,119,180)" stroke="rgb(0,0,0)" paint-order="fill" d="M 185.1400146484375 44.849998474121094 A 5 5 0 1 1 185.1400121484377 44.84499847495442" fill-opacity="1" clip-path="url(#iFrNcwkmDGDR)" stroke-opacity="1" stroke-linejoin="bevel" stroke-miterlimit="10" stroke-dasharray=""/><path fill="rgb(31,119,180)" stroke="rgb(0,0,0)" paint-order="fill" d="M 208.2716827392578 44.849998474121094 A 5 5 0 1 1 208.27168023925802 44.84499847495442" fill-opacity="1" clip-path="url(#iFrNcwkmDGDR)" stroke-opacity="1" stroke-linejoin="bevel" stroke-miterlimit="10" stroke-dasharray=""/><path fill="rgb(31,119,180)" stroke="rgb(0,0,0)" paint-order="fill" d="M 214.7162322998047 44.849998474121094 A 5 5 0 1 1 214.7162297998049 44.84499847495442" fill-opacity="1" clip-path="url(#iFrNcwkmDGDR)" stroke-opacity="1" stroke-linejoin="bevel" stroke-miterlimit="10" stroke-dasharray=""/><path fill="rgb(31,119,180)" stroke="rgb(0,0,0)" paint-order="fill" d="M 223.63534545898438 44.849998474121094 A 5 5 0 1 1 223.63534295898458 44.84499847495442" fill-opacity="1" clip-path="url(#iFrNcwkmDGDR)" stroke-opacity="1" stroke-linejoin="bevel" stroke-miterlimit="10" stroke-dasharray=""/><path fill="rgb(31,119,180)" stroke="rgb(0,0,0)" paint-order="fill" d="M 197.13287353515625 44.849998474121094 A 5 5 0 1 1 197.13287103515646 44.84499847495442" fill-opacity="1" clip-path="url(#iFrNcwkmDGDR)" stroke-opacity="1" stroke-linejoin="bevel" stroke-miterlimit="10" stroke-dasharray=""/><path fill="rgb(31,119,180)" stroke="rgb(0,0,0)" paint-order="fill" d="M 197.65664672851562 44.849998474121094 A 5 5 0 1 1 197.65664422851583 44.84499847495442" fill-opacity="1" clip-path="url(#iFrNcwkmDGDR)" stroke-opacity="1" stroke-linejoin="bevel" stroke-miterlimit="10" stroke-dasharray=""/><path fill="rgb(31,119,180)" stroke="rgb(0,0,0)" paint-order="fill" d="M 189.5150604248047 44.849998474121094 A 5 5 0 1 1 189.5150579248049 44.84499847495442" fill-opacity="1" clip-path="url(#iFrNcwkmDGDR)" stroke-opacity="1" stroke-linejoin="bevel" stroke-miterlimit="10" stroke-dasharray=""/><path fill="rgb(31,119,180)" stroke="rgb(0,0,0)" paint-order="fill" d="M 188.8987579345703 44.849998474121094 A 5 5 0 1 1 188.89875543457052 44.84499847495442" fill-opacity="1" clip-path="url(#iFrNcwkmDGDR)" stroke-opacity="1" stroke-linejoin="bevel" stroke-miterlimit="10" stroke-dasharray=""/><path fill="none" stroke="none"/><path fill="none" stroke="rgb(0,0,0)" paint-order="fill" d="M 196 51.38999557495117 L 196 38.31000518798828" stroke-opacity="1" stroke-linejoin="bevel" stroke-miterlimit="10" stroke-width="3" stroke-dasharray="" clip-path="url(#eQsztNuOGSKq)"/><path fill="none" stroke="none"/><path fill="rgb(174,199,232)" stroke="rgb(0,0,0)" paint-order="fill" d="M 410.06304931640625 77.55000305175781 A 5 5 0 1 1 410.0630468164065 77.54500305259114" fill-opacity="1" clip-path="url(#JRpQFerdaMtn)" stroke-opacity="1" stroke-linejoin="bevel" stroke-miterlimit="10" stroke-dasharray=""/><path fill="rgb(174,199,232)" stroke="rgb(0,0,0)" paint-order="fill" d="M 387.8293151855469 77.55000305175781 A 5 5 0 1 1 387.8293126855471 77.54500305259114" fill-opacity="1" clip-path="url(#JRpQFerdaMtn)" stroke-opacity="1" stroke-linejoin="bevel" stroke-miterlimit="10" stroke-dasharray=""/><path fill="rgb(174,199,232)" stroke="rgb(0,0,0)" paint-order="fill" d="M 398.3629455566406 77.55000305175781 A 5 5 0 1 1 398.36294305664086 77.54500305259114" fill-opacity="1" clip-path="url(#JRpQFerdaMtn)" stroke-opacity="1" stroke-linejoin="bevel" stroke-miterlimit="10" stroke-dasharray=""/><path fill="rgb(174,199,232)" stroke="rgb(0,0,0)" paint-order="fill" d="M 420.35931396484375 77.55000305175781 A 5 5 0 1 1 420.359311464844 77.54500305259114" fill-opacity="1" clip-path="url(#JRpQFerdaMtn)" stroke-opacity="1" stroke-linejoin="bevel" stroke-miterlimit="10" stroke-dasharray=""/><path fill="rgb(174,199,232)" stroke="rgb(0,0,0)" paint-order="fill" d="M 405.1071472167969 77.55000305175781 A 5 5 0 1 1 405.1071447167971 77.54500305259114" fill-opacity="1" clip-path="url(#JRpQFerdaMtn)" stroke-opacity="1" stroke-linejoin="bevel" stroke-miterlimit="10" stroke-dasharray=""/><path fill="rgb(174,199,232)" stroke="rgb(0,0,0)" paint-order="fill" d="M 354.3363952636719 77.55000305175781 A 5 5 0 1 1 354.3363927636721 77.54500305259114" fill-opacity="1" clip-path="url(#JRpQFerdaMtn)" stroke-opacity="1" stroke-linejoin="bevel" stroke-miterlimit="10" stroke-dasharray=""/><path fill="rgb(174,199,232)" stroke="rgb(0,0,0)" paint-order="fill" d="M 350.6004333496094 77.55000305175781 A 5 5 0 1 1 350.6004308496096 77.54500305259114" fill-opacity="1" clip-path="url(#JRpQFerdaMtn)" stroke-opacity="1" stroke-linejoin="bevel" stroke-miterlimit="10" stroke-dasharray=""/><path fill="rgb(174,199,232)" stroke="rgb(0,0,0)" paint-order="fill" d="M 365.737060546875 77.55000305175781 A 5 5 0 1 1 365.73705804687523 77.54500305259114" fill-opacity="1" clip-path="url(#JRpQFerdaMtn)" stroke-opacity="1" stroke-linejoin="bevel" stroke-miterlimit="10" stroke-dasharray=""/><path fill="rgb(174,199,232)" stroke="rgb(0,0,0)" paint-order="fill" d="M 348.25811767578125 77.55000305175781 A 5 5 0 1 1 348.2581151757815 77.54500305259114" fill-opacity="1" clip-path="url(#JRpQFerdaMtn)" stroke-opacity="1" stroke-linejoin="bevel" stroke-miterlimit="10" stroke-dasharray=""/><path fill="none" stroke="none"/><path fill="none" stroke="rgb(0,0,0)" paint-order="fill" d="M 377.29486083984375 84.08999633789062 L 377.29486083984375 71.010009765625" stroke-opacity="1" stroke-linejoin="bevel" stroke-miterlimit="10" stroke-width="3" stroke-dasharray="" clip-path="url(#HzAbRNrVoEsd)"/><path fill="none" stroke="none"/><path fill="rgb(255,127,14)" stroke="rgb(0,0,0)" paint-order="fill" d="M 182.29185485839844 110.25 A 5 5 0 1 1 182.29185235839864 110.24500000083333" fill-opacity="1" clip-path="url(#zkuanRtncooT)" stroke-opacity="1" stroke-linejoin="bevel" stroke-miterlimit="10" stroke-dasharray=""/><path fill="rgb(255,127,14)" stroke="rgb(0,0,0)" paint-order="fill" d="M 181.56309509277344 110.25 A 5 5 0 1 1 181.56309259277364 110.24500000083333" fill-opacity="1" clip-path="url(#zkuanRtncooT)" stroke-opacity="1" stroke-linejoin="bevel" stroke-miterlimit="10" stroke-dasharray=""/><path fill="rgb(255,127,14)" stroke="rgb(0,0,0)" paint-order="fill" d="M 186.62672424316406 110.25 A 5 5 0 1 1 186.62672174316427 110.24500000083333" fill-opacity="1" clip-path="url(#zkuanRtncooT)" stroke-opacity="1" stroke-linejoin="bevel" stroke-miterlimit="10" stroke-dasharray=""/><path fill="none" stroke="none"/><path fill="none" stroke="rgb(0,0,0)" paint-order="fill" d="M 178.493896484375 116.78999328613281 L 178.493896484375 103.71000671386719" stroke-opacity="1" stroke-linejoin="bevel" stroke-miterlimit="10" stroke-width="3" stroke-dasharray="" clip-path="url(#LsBudehSuZAr)"/><path fill="none" stroke="none"/><path fill="rgb(255,187,120)" stroke="rgb(0,0,0)" paint-order="fill" d="M 281.4349670410156 142.9499969482422 A 5 5 0 1 1 281.43496454101586 142.94499694907552" fill-opacity="1" clip-path="url(#sUAKyotxsvlJ)" stroke-opacity="1" stroke-linejoin="bevel" stroke-miterlimit="10" stroke-dasharray=""/><path fill="rgb(255,187,120)" stroke="rgb(0,0,0)" paint-order="fill" d="M 233.3842010498047 142.9499969482422 A 5 5 0 1 1 233.3841985498049 142.94499694907552" fill-opacity="1" clip-path="url(#sUAKyotxsvlJ)" stroke-opacity="1" stroke-linejoin="bevel" stroke-miterlimit="10" stroke-dasharray=""/><path fill="rgb(255,187,120)" stroke="rgb(0,0,0)" paint-order="fill" d="M 265.6426086425781 142.9499969482422 A 5 5 0 1 1 265.64260614257836 142.94499694907552" fill-opacity="1" clip-path="url(#sUAKyotxsvlJ)" stroke-opacity="1" stroke-linejoin="bevel" stroke-miterlimit="10" stroke-dasharray=""/><path fill="none" stroke="none"/><path fill="none" stroke="rgb(0,0,0)" paint-order="fill" d="M 255.1539306640625 149.489990234375 L 255.1539306640625 136.41000366210938" stroke-opacity="1" stroke-linejoin="bevel" stroke-miterlimit="10" stroke-width="3" stroke-dasharray="" clip-path="url(#nrpiZukVudCt)"/><path fill="none" stroke="none"/><path fill="rgb(44,160,44)" stroke="rgb(0,0,0)" paint-order="fill" d="M 193.2241668701172 175.64999389648438 A 5 5 0 1 1 193.2241643701174 175.6449938973177" fill-opacity="1" clip-path="url(#LzVmXGKxsLJh)" stroke-opacity="1" stroke-linejoin="bevel" stroke-miterlimit="10" stroke-dasharray=""/><path fill="rgb(44,160,44)" stroke="rgb(0,0,0)" paint-order="fill" d="M 181.13133239746094 175.64999389648438 A 5 5 0 1 1 181.13132989746114 175.6449938973177" fill-opacity="1" clip-path="url(#LzVmXGKxsLJh)" stroke-opacity="1" stroke-linejoin="bevel" stroke-miterlimit="10" stroke-dasharray=""/><path fill="rgb(44,160,44)" stroke="rgb(0,0,0)" paint-order="fill" d="M 189.2904815673828 175.64999389648438 A 5 5 0 1 1 189.29047906738302 175.6449938973177" fill-opacity="1" clip-path="url(#LzVmXGKxsLJh)" stroke-opacity="1" stroke-linejoin="bevel" stroke-miterlimit="10" stroke-dasharray=""/><path fill="none" stroke="none"/><path fill="none" stroke="rgb(0,0,0)" paint-order="fill" d="M 182.88198852539062 182.1899871826172 L 182.88198852539062 169.11000061035156" stroke-opacity="1" stroke-linejoin="bevel" stroke-miterlimit="10" stroke-width="3" stroke-dasharray="" clip-path="url(#NfUSJcSdkraG)"/><path fill="none" stroke="none"/><path fill="rgb(152,223,138)" stroke="rgb(0,0,0)" paint-order="fill" d="M 208.81576538085938 208.35000610351562 A 5 5 0 1 1 208.81576288085958 208.34500610434895" fill-opacity="1" clip-path="url(#pvyBxUcqltOT)" stroke-opacity="1" stroke-linejoin="bevel" stroke-miterlimit="10" stroke-dasharray=""/><path fill="rgb(152,223,138)" stroke="rgb(0,0,0)" paint-order="fill" d="M 190.9649658203125 208.35000610351562 A 5 5 0 1 1 190.9649633203127 208.34500610434895" fill-opacity="1" clip-path="url(#pvyBxUcqltOT)" stroke-opacity="1" stroke-linejoin="bevel" stroke-miterlimit="10" stroke-dasharray=""/><path fill="rgb(152,223,138)" stroke="rgb(0,0,0)" paint-order="fill" d="M 210.7552490234375 208.35000610351562 A 5 5 0 1 1 210.7552465234377 208.34500610434895" fill-opacity="1" clip-path="url(#pvyBxUcqltOT)" stroke-opacity="1" stroke-linejoin="bevel" stroke-miterlimit="10" stroke-dasharray=""/><path fill="none" stroke="none"/><path fill="none" stroke="rgb(0,0,0)" paint-order="fill" d="M 198.51199340820312 214.88999938964844 L 198.51199340820312 201.8100128173828" stroke-opacity="1" stroke-linejoin="bevel" stroke-miterlimit="10" stroke-width="3" stroke-dasharray="" clip-path="url(#GfVatFfHwykT)"/><path fill="none" stroke="none"/><path fill="rgb(214,39,40)" stroke="rgb(0,0,0)" paint-order="fill" d="M 217.4673309326172 241.0500030517578 A 5 5 0 1 1 217.4673284326174 241.04500305259114" fill-opacity="1" clip-path="url(#ZshRhyOUnXKi)" stroke-opacity="1" stroke-linejoin="bevel" stroke-miterlimit="10" stroke-dasharray=""/><path fill="rgb(214,39,40)" stroke="rgb(0,0,0)" paint-order="fill" d="M 183.20993041992188 241.0500030517578 A 5 5 0 1 1 183.20992791992208 241.04500305259114" fill-opacity="1" clip-path="url(#ZshRhyOUnXKi)" stroke-opacity="1" stroke-linejoin="bevel" stroke-miterlimit="10" stroke-dasharray=""/><path fill="rgb(214,39,40)" stroke="rgb(0,0,0)" paint-order="fill" d="M 214.70034790039062 241.0500030517578 A 5 5 0 1 1 214.70034540039083 241.04500305259114" fill-opacity="1" clip-path="url(#ZshRhyOUnXKi)" stroke-opacity="1" stroke-linejoin="bevel" stroke-miterlimit="10" stroke-dasharray=""/><path fill="none" stroke="none"/><path fill="none" stroke="rgb(0,0,0)" paint-order="fill" d="M 200.12586975097656 247.58999633789062 L 200.12586975097656 234.50999450683594" stroke-opacity="1" stroke-linejoin="bevel" stroke-miterlimit="10" stroke-width="3" stroke-dasharray="" clip-path="url(#vCpSlzULIJTU)"/><path fill="none" stroke="none"/><path fill="rgb(255,152,150)" stroke="rgb(0,0,0)" paint-order="fill" d="M 223.54241943359375 273.75 A 5 5 0 1 1 223.54241693359396 273.74500000083333" fill-opacity="1" clip-path="url(#PRJiLatebwTH)" stroke-opacity="1" stroke-linejoin="bevel" stroke-miterlimit="10" stroke-dasharray=""/><path fill="rgb(255,152,150)" stroke="rgb(0,0,0)" paint-order="fill" d="M 216.9193878173828 273.75 A 5 5 0 1 1 216.91938531738302 273.74500000083333" fill-opacity="1" clip-path="url(#PRJiLatebwTH)" stroke-opacity="1" stroke-linejoin="bevel" stroke-miterlimit="10" stroke-dasharray=""/><path fill="rgb(255,152,150)" stroke="rgb(0,0,0)" paint-order="fill" d="M 237.81211853027344 273.75 A 5 5 0 1 1 237.81211603027364 273.74500000083333" fill-opacity="1" clip-path="url(#PRJiLatebwTH)" stroke-opacity="1" stroke-linejoin="bevel" stroke-miterlimit="10" stroke-dasharray=""/><path fill="none" stroke="none"/><path fill="none" stroke="rgb(0,0,0)" paint-order="fill" d="M 221.09130859375 280.2900085449219 L 221.09130859375 267.2099914550781" stroke-opacity="1" stroke-linejoin="bevel" stroke-miterlimit="10" stroke-width="3" stroke-dasharray="" clip-path="url(#mOxdfyHiLWLk)"/><path fill="none" stroke="none"/><path fill="rgb(148,103,189)" stroke="rgb(0,0,0)" paint-order="fill" d="M 176.0367889404297 306.45001220703125 A 5 5 0 1 1 176.0367864404299 306.4450122078646" fill-opacity="1" clip-path="url(#DRwJnkVzCXzm)" stroke-opacity="1" stroke-linejoin="bevel" stroke-miterlimit="10" stroke-dasharray=""/><path fill="rgb(148,103,189)" stroke="rgb(0,0,0)" paint-order="fill" d="M 176.1610870361328 306.45001220703125 A 5 5 0 1 1 176.16108453613302 306.4450122078646" fill-opacity="1" clip-path="url(#DRwJnkVzCXzm)" stroke-opacity="1" stroke-linejoin="bevel" stroke-miterlimit="10" stroke-dasharray=""/><path fill="rgb(148,103,189)" stroke="rgb(0,0,0)" paint-order="fill" d="M 176.37103271484375 306.45001220703125 A 5 5 0 1 1 176.37103021484396 306.4450122078646" fill-opacity="1" clip-path="url(#DRwJnkVzCXzm)" stroke-opacity="1" stroke-linejoin="bevel" stroke-miterlimit="10" stroke-dasharray=""/><path fill="none" stroke="none"/><path fill="none" stroke="rgb(0,0,0)" paint-order="fill" d="M 171.18963623046875 312.989990234375 L 171.18963623046875 299.9100036621094" stroke-opacity="1" stroke-linejoin="bevel" stroke-miterlimit="10" stroke-width="3" stroke-dasharray="" clip-path="url(#fpAectInhial)"/><path fill="none" stroke="none"/><path fill="rgb(197,176,213)" stroke="rgb(0,0,0)" paint-order="fill" d="M 175.94747924804688 339.1499938964844 A 5 5 0 1 1 175.94747674804708 339.1449938973177" fill-opacity="1" clip-path="url(#EXinsSJrdUHS)" stroke-opacity="1" stroke-linejoin="bevel" stroke-miterlimit="10" stroke-dasharray=""/><path fill="rgb(197,176,213)" stroke="rgb(0,0,0)" paint-order="fill" d="M 175.972412109375 339.1499938964844 A 5 5 0 1 1 175.9724096093752 339.1449938973177" fill-opacity="1" clip-path="url(#EXinsSJrdUHS)" stroke-opacity="1" stroke-linejoin="bevel" stroke-miterlimit="10" stroke-dasharray=""/><path fill="rgb(197,176,213)" stroke="rgb(0,0,0)" paint-order="fill" d="M 175.21218872070312 339.1499938964844 A 5 5 0 1 1 175.21218622070333 339.1449938973177" fill-opacity="1" clip-path="url(#EXinsSJrdUHS)" stroke-opacity="1" stroke-linejoin="bevel" stroke-miterlimit="10" stroke-dasharray=""/><path fill="none" stroke="none"/><path fill="none" stroke="rgb(0,0,0)" paint-order="fill" d="M 170.710693359375 345.69000244140625 L 170.710693359375 332.6099853515625" stroke-opacity="1" stroke-linejoin="bevel" stroke-miterlimit="10" stroke-width="3" stroke-dasharray="" clip-path="url(#VlWWoeblzTOu)"/><path fill="none" stroke="none"/><path fill="none" stroke="rgb(0,0,0)" paint-order="fill" d="M 196 355.5 L 196 28.5" stroke-opacity="1" stroke-linejoin="bevel" stroke-miterlimit="10" stroke-dasharray="2,4" clip-path="url(#VhtTeMNfEgtF)"/><path fill="none" stroke="rgb(0,0,0)" paint-order="fill" d="M 142.5 355.5 L 570.5 355.5" stroke-opacity="1" stroke-linejoin="bevel" stroke-miterlimit="10" stroke-dasharray=""/><path fill="none" stroke="rgb(0,0,0)" paint-order="fill" d="M 142.5 361.5 L 142.5 353.5 M 196.5 361.5 L 196.5 353.5 M 249.5 361.5 L 249.5 353.5 M 303.5 361.5 L 303.5 353.5 M 356.5 361.5 L 356.5 353.5 M 410.5 361.5 L 410.5 353.5 M 463.5 361.5 L 463.5 353.5 M 517.5 361.5 L 517.5 353.5 M 570.5 361.5 L 570.5 353.5" stroke-opacity="1" stroke-linejoin="bevel" stroke-miterlimit="10" stroke-dasharray=""/><path fill="none" stroke="rgb(0,0,0)" paint-order="fill" d="M 142.5 359.5 L 142.5 355.5 M 153.5 359.5 L 153.5 355.5 M 163.5 359.5 L 163.5 355.5 M 174.5 359.5 L 174.5 355.5 M 185.5 359.5 L 185.5 355.5 M 196.5 359.5 L 196.5 355.5 M 206.5 359.5 L 206.5 355.5 M 217.5 359.5 L 217.5 355.5 M 228.5 359.5 L 228.5 355.5 M 238.5 359.5 L 238.5 355.5 M 249.5 359.5 L 249.5 355.5 M 260.5 359.5 L 260.5 355.5 M 270.5 359.5 L 270.5 355.5 M 281.5 359.5 L 281.5 355.5 M 292.5 359.5 L 292.5 355.5 M 303.5 359.5 L 303.5 355.5 M 313.5 359.5 L 313.5 355.5 M 324.5 359.5 L 324.5 355.5 M 335.5 359.5 L 335.5 355.5 M 345.5 359.5 L 345.5 355.5 M 356.5 359.5 L 356.5 355.5 M 367.5 359.5 L 367.5 355.5 M 377.5 359.5 L 377.5 355.5 M 388.5 359.5 L 388.5 355.5 M 399.5 359.5 L 399.5 355.5 M 410.5 359.5 L 410.5 355.5 M 420.5 359.5 L 420.5 355.5 M 431.5 359.5 L 431.5 355.5 M 442.5 359.5 L 442.5 355.5 M 452.5 359.5 L 452.5 355.5 M 463.5 359.5 L 463.5 355.5 M 474.5 359.5 L 474.5 355.5 M 484.5 359.5 L 484.5 355.5 M 495.5 359.5 L 495.5 355.5 M 506.5 359.5 L 506.5 355.5 M 517.5 359.5 L 517.5 355.5 M 527.5 359.5 L 527.5 355.5 M 538.5 359.5 L 538.5 355.5 M 549.5 359.5 L 549.5 355.5 M 559.5 359.5 L 559.5 355.5 M 570.5 359.5 L 570.5 355.5" stroke-opacity="1" stroke-linejoin="bevel" stroke-miterlimit="10" stroke-dasharray=""/><text fill="rgb(68,68,68)" stroke="none" font-family="helvetica" font-size="11px" font-style="normal" font-weight="normal" text-decoration="normal" x="0" y="0" text-anchor="middle" dominant-baseline="hanging" transform="matrix(1, 0, 0, 1, 142.5, 366.5)" fill-opacity="1">0</text><text fill="rgb(68,68,68)" stroke="none" font-family="helvetica" font-size="11px" font-style="normal" font-weight="normal" text-decoration="normal" x="0" y="0" text-anchor="middle" dominant-baseline="hanging" transform="matrix(1, 0, 0, 1, 196.5, 366.5)" fill-opacity="1">1</text><text fill="rgb(68,68,68)" stroke="none" font-family="helvetica" font-size="11px" font-style="normal" font-weight="normal" text-decoration="normal" x="0" y="0" text-anchor="middle" dominant-baseline="hanging" transform="matrix(1, 0, 0, 1, 249.5, 366.5)" fill-opacity="1">2</text><text fill="rgb(68,68,68)" stroke="none" font-family="helvetica" font-size="11px" font-style="normal" font-weight="normal" text-decoration="normal" x="0" y="0" text-anchor="middle" dominant-baseline="hanging" transform="matrix(1, 0, 0, 1, 303.5, 366.5)" fill-opacity="1">3</text><text fill="rgb(68,68,68)" stroke="none" font-family="helvetica" font-size="11px" font-style="normal" font-weight="normal" text-decoration="normal" x="0" y="0" text-anchor="middle" dominant-baseline="hanging" transform="matrix(1, 0, 0, 1, 356.5, 366.5)" fill-opacity="1">4</text><text fill="rgb(68,68,68)" stroke="none" font-family="helvetica" font-size="11px" font-style="normal" font-weight="normal" text-decoration="normal" x="0" y="0" text-anchor="middle" dominant-baseline="hanging" transform="matrix(1, 0, 0, 1, 410.5, 366.5)" fill-opacity="1">5</text><text fill="rgb(68,68,68)" stroke="none" font-family="helvetica" font-size="11px" font-style="normal" font-weight="normal" text-decoration="normal" x="0" y="0" text-anchor="middle" dominant-baseline="hanging" transform="matrix(1, 0, 0, 1, 463.5, 366.5)" fill-opacity="1">6</text><text fill="rgb(68,68,68)" stroke="none" font-family="helvetica" font-size="11px" font-style="normal" font-weight="normal" text-decoration="normal" x="0" y="0" text-anchor="middle" dominant-baseline="hanging" transform="matrix(1, 0, 0, 1, 517.5, 366.5)" fill-opacity="1">7</text><text fill="rgb(68,68,68)" stroke="none" font-family="helvetica" font-size="11px" font-style="normal" font-weight="normal" text-decoration="normal" x="0" y="0" text-anchor="middle" dominant-baseline="hanging" transform="matrix(1, 0, 0, 1, 570.5, 366.5)" fill-opacity="1">8</text><text fill="rgb(68,68,68)" stroke="none" font-family="helvetica" font-size="13px" font-style="italic" font-weight="normal" text-decoration="normal" x="0" y="0" text-anchor="middle" dominant-baseline="hanging" transform="matrix(1, 0, 0, 1, 356.5, 384.5)" fill-opacity="1">Relative PaQa level</text><path fill="none" stroke="rgb(0,0,0)" paint-order="fill" d="M 142.5 355.5 L 142.5 28.5" stroke-opacity="1" stroke-linejoin="bevel" stroke-miterlimit="10" stroke-dasharray=""/><path fill="none" stroke="rgb(0,0,0)" paint-order="fill" d="M 136.5 339.5 L 144.5 339.5 M 136.5 306.5 L 144.5 306.5 M 136.5 273.5 L 144.5 273.5 M 136.5 241.5 L 144.5 241.5 M 136.5 208.5 L 144.5 208.5 M 136.5 175.5 L 144.5 175.5 M 136.5 142.5 L 144.5 142.5 M 136.5 110.5 L 144.5 110.5 M 136.5 77.5 L 144.5 77.5 M 136.5 44.5 L 144.5 44.5" stroke-opacity="1" stroke-linejoin="bevel" stroke-miterlimit="10" stroke-dasharray=""/><text fill="rgb(68,68,68)" stroke="none" font-family="helvetica" font-size="9pt" font-style="normal" font-weight="normal" text-decoration="normal" x="0" y="0" text-anchor="end" dominant-baseline="central" transform="matrix(1, 0, 0, 1, 131.5, 339.5)" fill-opacity="1">ΔpilJ_pilA_T8V Liquid</text><text fill="rgb(68,68,68)" stroke="none" font-family="helvetica" font-size="9pt" font-style="normal" font-weight="normal" text-decoration="normal" x="0" y="0" text-anchor="end" dominant-baseline="central" transform="matrix(1, 0, 0, 1, 131.5, 306.5)" fill-opacity="1">ΔpilJ Liquid</text><text fill="rgb(68,68,68)" stroke="none" font-family="helvetica" font-size="9pt" font-style="normal" font-weight="normal" text-decoration="normal" x="0" y="0" text-anchor="end" dominant-baseline="central" transform="matrix(1, 0, 0, 1, 131.5, 273.5)" fill-opacity="1">ΔpilT_pilA_T8V Liquid</text><text fill="rgb(68,68,68)" stroke="none" font-family="helvetica" font-size="9pt" font-style="normal" font-weight="normal" text-decoration="normal" x="0" y="0" text-anchor="end" dominant-baseline="central" transform="matrix(1, 0, 0, 1, 131.5, 241.5)" fill-opacity="1">ΔpilT Liquid</text><text fill="rgb(68,68,68)" stroke="none" font-family="helvetica" font-size="9pt" font-style="normal" font-weight="normal" text-decoration="normal" x="0" y="0" text-anchor="end" dominant-baseline="central" transform="matrix(1, 0, 0, 1, 131.5, 208.5)" fill-opacity="1">ΔpilB_pilA_T8V Liquid</text><text fill="rgb(68,68,68)" stroke="none" font-family="helvetica" font-size="9pt" font-style="normal" font-weight="normal" text-decoration="normal" x="0" y="0" text-anchor="end" dominant-baseline="central" transform="matrix(1, 0, 0, 1, 131.5, 175.5)" fill-opacity="1">ΔpilB Liquid</text><text fill="rgb(68,68,68)" stroke="none" font-family="helvetica" font-size="9pt" font-style="normal" font-weight="normal" text-decoration="normal" x="0" y="0" text-anchor="end" dominant-baseline="central" transform="matrix(1, 0, 0, 1, 131.5, 142.5)" fill-opacity="1">pilA_T8V Liquid</text><text fill="rgb(68,68,68)" stroke="none" font-family="helvetica" font-size="9pt" font-style="normal" font-weight="normal" text-decoration="normal" x="0" y="0" text-anchor="end" dominant-baseline="central" transform="matrix(1, 0, 0, 1, 131.5, 110.5)" fill-opacity="1">ΔpilA Liquid</text><text fill="rgb(68,68,68)" stroke="none" font-family="helvetica" font-size="9pt" font-style="normal" font-weight="normal" text-decoration="normal" x="0" y="0" text-anchor="end" dominant-baseline="central" transform="matrix(1, 0, 0, 1, 131.5, 77.5)" fill-opacity="1">WT Solid</text><text fill="rgb(68,68,68)" stroke="none" font-family="helvetica" font-size="9pt" font-style="normal" font-weight="normal" text-decoration="normal" x="0" y="0" text-anchor="end" dominant-baseline="central" transform="matrix(1, 0, 0, 1, 131.5, 44.5)" fill-opacity="1">WT Liquid</text><path fill="rgb(255,255,255)" stroke="rgb(229,229,229)" paint-order="fill" d="M 402.7783203125 38.5 L 560.5 38.5 L 560.5 124.5 L 402.7783203125 124.5 L 402.7783203125 38.5" fill-opacity="0.95" clip-path="url(#dHrOsBagQBlB)" stroke-opacity="0.5" stroke-linejoin="bevel" stroke-miterlimit="10" stroke-dasharray=""/><text fill="rgb(68,68,68)" stroke="none" font-family="helvetica" font-size="13px" font-style="normal" font-weight="normal" text-decoration="normal" x="437.2783203125" y="58" text-anchor="start" dominant-baseline="central" transform="matrix(1, 0, 0, 1, 0.5, 0.5)" fill-opacity="1">mean</text><path fill="none" stroke="rgb(0,0,0)" paint-order="fill" d="M 412.7783203125 58.5 L 432.7783203125 58.5" stroke-opacity="1" stroke-linejoin="bevel" stroke-miterlimit="10" stroke-width="3" stroke-dasharray="" clip-path="url(#dHrOsBagQBlB)"/><text fill="rgb(68,68,68)" stroke="none" font-family="helvetica" font-size="13px" font-style="normal" font-weight="normal" text-decoration="normal" x="437.2783203125" y="81" text-anchor="start" dominant-baseline="central" transform="matrix(1, 0, 0, 1, 0.5, 0.5)" fill-opacity="1">means of replicates</text><path fill="rgb(255,127,14)" stroke="rgb(0,0,0)" paint-order="fill" d="M 426.7783203125 81.5 A 4 4 0 1 1 426.7783183125002 81.49600000066667" fill-opacity="1" clip-path="url(#dHrOsBagQBlB)" stroke-opacity="1" stroke-linejoin="bevel" stroke-miterlimit="10" stroke-dasharray=""/><path fill="rgb(255,187,120)" stroke="rgb(0,0,0)" paint-order="fill" d="M 426.7783203125 81.5 A 4 4 0 1 1 426.7783183125002 81.49600000066667" fill-opacity="1" clip-path="url(#dHrOsBagQBlB)" stroke-opacity="1" stroke-linejoin="bevel" stroke-miterlimit="10" stroke-dasharray=""/><path fill="rgb(44,160,44)" stroke="rgb(0,0,0)" paint-order="fill" d="M 426.7783203125 81.5 A 4 4 0 1 1 426.7783183125002 81.49600000066667" fill-opacity="1" clip-path="url(#dHrOsBagQBlB)" stroke-opacity="1" stroke-linejoin="bevel" stroke-miterlimit="10" stroke-dasharray=""/><path fill="rgb(152,223,138)" stroke="rgb(0,0,0)" paint-order="fill" d="M 426.7783203125 81.5 A 4 4 0 1 1 426.7783183125002 81.49600000066667" fill-opacity="1" clip-path="url(#dHrOsBagQBlB)" stroke-opacity="1" stroke-linejoin="bevel" stroke-miterlimit="10" stroke-dasharray=""/><path fill="rgb(214,39,40)" stroke="rgb(0,0,0)" paint-order="fill" d="M 426.7783203125 81.5 A 4 4 0 1 1 426.7783183125002 81.49600000066667" fill-opacity="1" clip-path="url(#dHrOsBagQBlB)" stroke-opacity="1" stroke-linejoin="bevel" stroke-miterlimit="10" stroke-dasharray=""/><path fill="rgb(255,152,150)" stroke="rgb(0,0,0)" paint-order="fill" d="M 426.7783203125 81.5 A 4 4 0 1 1 426.7783183125002 81.49600000066667" fill-opacity="1" clip-path="url(#dHrOsBagQBlB)" stroke-opacity="1" stroke-linejoin="bevel" stroke-miterlimit="10" stroke-dasharray=""/><path fill="rgb(148,103,189)" stroke="rgb(0,0,0)" paint-order="fill" d="M 426.7783203125 81.5 A 4 4 0 1 1 426.7783183125002 81.49600000066667" fill-opacity="1" clip-path="url(#dHrOsBagQBlB)" stroke-opacity="1" stroke-linejoin="bevel" stroke-miterlimit="10" stroke-dasharray=""/><path fill="rgb(197,176,213)" stroke="rgb(0,0,0)" paint-order="fill" d="M 426.7783203125 81.5 A 4 4 0 1 1 426.7783183125002 81.49600000066667" fill-opacity="1" clip-path="url(#dHrOsBagQBlB)" stroke-opacity="1" stroke-linejoin="bevel" stroke-miterlimit="10" stroke-dasharray=""/><text fill="rgb(68,68,68)" stroke="none" font-family="helvetica" font-size="13px" font-style="normal" font-weight="normal" text-decoration="normal" x="437.2783203125" y="104" text-anchor="start" dominant-baseline="central" transform="matrix(1, 0, 0, 1, 0.5, 0.5)" fill-opacity="1">Reference</text><path fill="none" stroke="rgb(0,0,0)" paint-order="fill" d="M 412.7783203125 104.5 L 432.7783203125 104.5" stroke-opacity="1" stroke-linejoin="bevel" stroke-miterlimit="10" stroke-dasharray="2,4" clip-path="url(#dHrOsBagQBlB)"/><path fill="none" stroke="none"/><text fill="rgb(68,68,68)" stroke="none" font-family="helvetica" font-size="13px" font-style="normal" font-weight="bold" text-decoration="normal" x="0" y="0" text-anchor="start" dominant-baseline="text-after-edge" transform="matrix(1, 0, 0, 1, 142.5, 23.5)" fill-opacity="1"> PaQa_ratio on Liquid vs. Solid in linear scale</text></svg>