<svg version="1.1" xmlns="http://www.w3.org/2000/svg" width="600" height="250"><defs><clipPath id="DZJlzPXhnsuL"><path fill="none" stroke="none" d="M 131.5 27.5 L 570.5 27.5 L 570.5 205.5 L 131.5 205.5 L 131.5 27.5"/></clipPath><clipPath id="uoZJCwCSxWvP"><path fill="none" stroke="none" d="M 131.5 27.5 L 570.5 27.5 L 570.5 205.5 L 131.5 205.5 L 131.5 27.5"/></clipPath><clipPath id="BJeAwhwCpHxB"><path fill="none" stroke="none" d="M 131.5 27.5 L 570.5 27.5 L 570.5 205.5 L 131.5 205.5 L 131.5 27.5"/></clipPath><clipPath id="NXSNIOxVsAZt"><path fill="none" stroke="none" d="M 131.5 27.5 L 570.5 27.5 L 570.5 205.5 L 131.5 205.5 L 131.5 27.5"/></clipPath><clipPath id="IMOETiEqVbzp"><path fill="none" stroke="none" d="M 131.5 27.5 L 570.5 27.5 L 570.5 205.5 L 131.5 205.5 L 131.5 27.5"/></clipPath><clipPath id="WbMmIQlToJtl"><path fill="none" stroke="none" d="M 131.5 27.5 L 570.5 27.5 L 570.5 205.5 L 131.5 205.5 L 131.5 27.5"/></clipPath><clipPath id="TOWaHoGOKDSM"><path fill="none" stroke="none" d="M 131.5 27.5 L 570.5 27.5 L 570.5 205.5 L 131.5 205.5 L 131.5 27.5"/></clipPath><clipPath id="NiVBxfvaSBmx"><path fill="none" stroke="none" d="M 131.5 27.5 L 570.5 27.5 L 570.5 205.5 L 131.5 205.5 L 131.5 27.5"/></clipPath><clipPath id="BkIiSspzHNGT"><path fill="none" stroke="none" d="M 131.5 27.5 L 570.5 27.5 L 570.5 205.5 L 131.5 205.5 L 131.5 27.5"/></clipPath><clipPath id="kKsKOexCaRUO"><path fill="none" stroke="none" d="M 131.5 27.5 L 570.5 27.5 L 570.5 205.5 L 131.5 205.5 L 131.5 27.5"/></clipPath><clipPath id="mziruduWWQOc"><path fill="none" stroke="none" d="M 131.5 27.5 L 570.5 27.5 L 570.5 205.5 L 131.5 205.5 L 131.5 27.5"/></clipPath><clipPath id="sllkMynwSZaw"><path fill="none" stroke="none" d="M 131.5 27.5 L 570.5 27.5 L 570.5 205.5 L 131.5 205.5 L 131.5 27.5"/></clipPath><clipPath id="bebBgRDnhtDp"><path fill="none" stroke="none" d="M 131.5 27.5 L 570.5 27.5 L 570.5 205.5 L 131.5 205.5 L 131.5 27.5"/></clipPath><clipPath id="FcgirhfTfKwd"><path fill="none" stroke="none" d="M 131.5 27.5 L 570.5 27.5 L 570.5 205.5 L 131.5 205.5 L 131.5 27.5"/></clipPath><clipPath id="zIlqpkTAZMnb"><path fill="none" stroke="none" d="M 131.5 27.5 L 570.5 27.5 L 570.5 205.5 L 131.5 205.5 L 131.5 27.5"/></clipPath><clipPath id="IVxTeeWTtxIy"><path fill="none" stroke="none" d="M 131.5 27.5 L 570.5 27.5 L 570.5 205.5 L 131.5 205.5 L 131.5 27.5"/></clipPath><clipPath id="sdeFdtzxKSiC"><path fill="none" stroke="none" d="M 131.5 27.5 L 570.5 27.5 L 570.5 205.5 L 131.5 205.5 L 131.5 27.5"/></clipPath><clipPath id="BJzbRctcgCgN"><path fill="none" stroke="none" d="M 131.5 27.5 L 570.5 27.5 L 570.5 205.5 L 131.5 205.5 L 131.5 27.5"/></clipPath><clipPath id="uvqCPxwniXdv"><path fill="none" stroke="none" d="M 131.5 27.5 L 570.5 27.5 L 570.5 205.5 L 131.5 205.5 L 131.5 27.5"/></clipPath><clipPath id="afQRPTAuemud"><path fill="none" stroke="none" d="M 131.5 27.5 L 570.5 27.5 L 570.5 205.5 L 131.5 205.5 L 131.5 27.5"/></clipPath><clipPath id="qedgKJQkxmnM"><path fill="none" stroke="none" d="M 131.5 27.5 L 570.5 27.5 L 570.5 205.5 L 131.5 205.5 L 131.5 27.5"/></clipPath></defs><path fill="rgb(255,255,255)" stroke="none" paint-order="stroke" d="M 0.5 0.5 L 600.5 0.5 L 600.5 250.5 L 0.5 250.5 L 0.5 0.5" fill-opacity="1"/><rect fill="#FFFFFF" stroke="none" x="131" y="27" width="439" height="178" transform="matrix(1, 0, 0, 1, 0.5, 0.5)"/><path fill="rgb(255,255,255)" stroke="none" paint-order="stroke" d="M 131.5 27.5 L 570.5 27.5 L 570.5 205.5 L 131.5 205.5 L 131.5 27.5" fill-opacity="1"/><path fill="none" stroke="rgb(229,229,229)" paint-order="fill" d="M 131.5 27.5 L 570.5 27.5 L 570.5 205.5 L 131.5 205.5 L 131.5 27.5" stroke-opacity="1" stroke-linejoin="bevel" stroke-miterlimit="10" stroke-dasharray=""/><path fill="rgb(0,0,0)" stroke="rgb(0,0,0)" paint-order="fill" d="M 213.8151397705078 45.29999923706055 A 5 5 0 1 1 213.81513727050802 45.294999237893876" fill-opacity="1" clip-path="url(#BJeAwhwCpHxB)" stroke-opacity="1" stroke-linejoin="bevel" stroke-miterlimit="10" stroke-dasharray=""/><path fill="rgb(0,0,0)" stroke="rgb(0,0,0)" paint-order="fill" d="M 187.97654724121094 45.29999923706055 A 5 5 0 1 1 187.97654474121114 45.294999237893876" fill-opacity="1" clip-path="url(#BJeAwhwCpHxB)" stroke-opacity="1" stroke-linejoin="bevel" stroke-miterlimit="10" stroke-dasharray=""/><path fill="rgb(0,0,0)" stroke="rgb(0,0,0)" paint-order="fill" d="M 219.61143493652344 45.29999923706055 A 5 5 0 1 1 219.61143243652364 45.294999237893876" fill-opacity="1" clip-path="url(#BJeAwhwCpHxB)" stroke-opacity="1" stroke-linejoin="bevel" stroke-miterlimit="10" stroke-dasharray=""/><path fill="rgb(0,0,0)" stroke="rgb(0,0,0)" paint-order="fill" d="M 228.4250030517578 45.29999923706055 A 5 5 0 1 1 228.42500055175802 45.294999237893876" fill-opacity="1" clip-path="url(#BJeAwhwCpHxB)" stroke-opacity="1" stroke-linejoin="bevel" stroke-miterlimit="10" stroke-dasharray=""/><path fill="rgb(0,0,0)" stroke="rgb(0,0,0)" paint-order="fill" d="M 240.62278747558594 45.29999923706055 A 5 5 0 1 1 240.62278497558614 45.294999237893876" fill-opacity="1" clip-path="url(#BJeAwhwCpHxB)" stroke-opacity="1" stroke-linejoin="bevel" stroke-miterlimit="10" stroke-dasharray=""/><path fill="rgb(0,0,0)" stroke="rgb(0,0,0)" paint-order="fill" d="M 204.3779754638672 45.29999923706055 A 5 5 0 1 1 204.3779729638674 45.294999237893876" fill-opacity="1" clip-path="url(#BJeAwhwCpHxB)" stroke-opacity="1" stroke-linejoin="bevel" stroke-miterlimit="10" stroke-dasharray=""/><path fill="rgb(0,0,0)" stroke="rgb(0,0,0)" paint-order="fill" d="M 205.0942840576172 45.29999923706055 A 5 5 0 1 1 205.0942815576174 45.294999237893876" fill-opacity="1" clip-path="url(#BJeAwhwCpHxB)" stroke-opacity="1" stroke-linejoin="bevel" stroke-miterlimit="10" stroke-dasharray=""/><path fill="rgb(0,0,0)" stroke="rgb(0,0,0)" paint-order="fill" d="M 193.9598388671875 45.29999923706055 A 5 5 0 1 1 193.9598363671877 45.294999237893876" fill-opacity="1" clip-path="url(#BJeAwhwCpHxB)" stroke-opacity="1" stroke-linejoin="bevel" stroke-miterlimit="10" stroke-dasharray=""/><path fill="rgb(0,0,0)" stroke="rgb(0,0,0)" paint-order="fill" d="M 193.1169891357422 45.29999923706055 A 5 5 0 1 1 193.1169866357424 45.294999237893876" fill-opacity="1" clip-path="url(#BJeAwhwCpHxB)" stroke-opacity="1" stroke-linejoin="bevel" stroke-miterlimit="10" stroke-dasharray=""/><path fill="none" stroke="rgb(0,0,0)" paint-order="fill" d="M 204.6666717529297 52.41999435424805 L 204.6666717529297 38.18000793457031" stroke-opacity="1" stroke-linejoin="bevel" stroke-miterlimit="10" stroke-width="3" stroke-dasharray="" clip-path="url(#NXSNIOxVsAZt)"/><path fill="rgb(47,79,79)" stroke="rgb(0,0,0)" paint-order="fill" d="M 495.58154296875 80.9000015258789 A 5 5 0 1 1 495.58154046875023 80.89500152671224" fill-opacity="1" clip-path="url(#IMOETiEqVbzp)" stroke-opacity="1" stroke-linejoin="bevel" stroke-miterlimit="10" stroke-dasharray=""/><path fill="rgb(47,79,79)" stroke="rgb(0,0,0)" paint-order="fill" d="M 465.1746826171875 80.9000015258789 A 5 5 0 1 1 465.17468011718773 80.89500152671224" fill-opacity="1" clip-path="url(#IMOETiEqVbzp)" stroke-opacity="1" stroke-linejoin="bevel" stroke-miterlimit="10" stroke-dasharray=""/><path fill="rgb(47,79,79)" stroke="rgb(0,0,0)" paint-order="fill" d="M 479.5804748535156 80.9000015258789 A 5 5 0 1 1 479.58047235351586 80.89500152671224" fill-opacity="1" clip-path="url(#IMOETiEqVbzp)" stroke-opacity="1" stroke-linejoin="bevel" stroke-miterlimit="10" stroke-dasharray=""/><path fill="rgb(47,79,79)" stroke="rgb(0,0,0)" paint-order="fill" d="M 509.6627502441406 80.9000015258789 A 5 5 0 1 1 509.66274774414086 80.89500152671224" fill-opacity="1" clip-path="url(#IMOETiEqVbzp)" stroke-opacity="1" stroke-linejoin="bevel" stroke-miterlimit="10" stroke-dasharray=""/><path fill="rgb(47,79,79)" stroke="rgb(0,0,0)" paint-order="fill" d="M 488.8038635253906 80.9000015258789 A 5 5 0 1 1 488.80386102539086 80.89500152671224" fill-opacity="1" clip-path="url(#IMOETiEqVbzp)" stroke-opacity="1" stroke-linejoin="bevel" stroke-miterlimit="10" stroke-dasharray=""/><path fill="rgb(47,79,79)" stroke="rgb(0,0,0)" paint-order="fill" d="M 419.3697204589844 80.9000015258789 A 5 5 0 1 1 419.3697179589846 80.89500152671224" fill-opacity="1" clip-path="url(#IMOETiEqVbzp)" stroke-opacity="1" stroke-linejoin="bevel" stroke-miterlimit="10" stroke-dasharray=""/><path fill="rgb(47,79,79)" stroke="rgb(0,0,0)" paint-order="fill" d="M 414.26043701171875 80.9000015258789 A 5 5 0 1 1 414.260434511719 80.89500152671224" fill-opacity="1" clip-path="url(#IMOETiEqVbzp)" stroke-opacity="1" stroke-linejoin="bevel" stroke-miterlimit="10" stroke-dasharray=""/><path fill="rgb(47,79,79)" stroke="rgb(0,0,0)" paint-order="fill" d="M 434.9612731933594 80.9000015258789 A 5 5 0 1 1 434.9612706933596 80.89500152671224" fill-opacity="1" clip-path="url(#IMOETiEqVbzp)" stroke-opacity="1" stroke-linejoin="bevel" stroke-miterlimit="10" stroke-dasharray=""/><path fill="rgb(47,79,79)" stroke="rgb(0,0,0)" paint-order="fill" d="M 411.0570373535156 80.9000015258789 A 5 5 0 1 1 411.05703485351586 80.89500152671224" fill-opacity="1" clip-path="url(#IMOETiEqVbzp)" stroke-opacity="1" stroke-linejoin="bevel" stroke-miterlimit="10" stroke-dasharray=""/><path fill="none" stroke="rgb(0,0,0)" paint-order="fill" d="M 452.6057434082031 88.02000427246094 L 452.6057434082031 73.77999877929688" stroke-opacity="1" stroke-linejoin="bevel" stroke-miterlimit="10" stroke-width="3" stroke-dasharray="" clip-path="url(#WbMmIQlToJtl)"/><path fill="rgb(211,211,211)" stroke="rgb(0,0,0)" paint-order="fill" d="M 184.08139038085938 116.5 A 5 5 0 1 1 184.08138788085958 116.49500000083333" fill-opacity="1" clip-path="url(#TOWaHoGOKDSM)" stroke-opacity="1" stroke-linejoin="bevel" stroke-miterlimit="10" stroke-dasharray=""/><path fill="rgb(211,211,211)" stroke="rgb(0,0,0)" paint-order="fill" d="M 183.08473205566406 116.5 A 5 5 0 1 1 183.08472955566427 116.49500000083333" fill-opacity="1" clip-path="url(#TOWaHoGOKDSM)" stroke-opacity="1" stroke-linejoin="bevel" stroke-miterlimit="10" stroke-dasharray=""/><path fill="rgb(211,211,211)" stroke="rgb(0,0,0)" paint-order="fill" d="M 190.00975036621094 116.5 A 5 5 0 1 1 190.00974786621114 116.49500000083333" fill-opacity="1" clip-path="url(#TOWaHoGOKDSM)" stroke-opacity="1" stroke-linejoin="bevel" stroke-miterlimit="10" stroke-dasharray=""/><path fill="none" stroke="rgb(0,0,0)" paint-order="fill" d="M 180.7252960205078 127.18000030517578 L 180.7252960205078 105.81999969482422" stroke-opacity="1" stroke-linejoin="bevel" stroke-miterlimit="10" stroke-width="3" stroke-dasharray="" clip-path="url(#NiVBxfvaSBmx)"/><path fill="none" stroke="rgb(0,0,0)" paint-order="fill" d="" stroke-opacity="1" stroke-linejoin="bevel" stroke-miterlimit="10" stroke-width="3" stroke-dasharray="" clip-path="url(#kKsKOexCaRUO)"/><path fill="rgb(0,0,255)" stroke="rgb(0,0,0)" paint-order="fill" d="M 319.66961669921875 152.10000610351562 A 5 5 0 1 1 319.669614199219 152.09500610434895" fill-opacity="1" clip-path="url(#mziruduWWQOc)" stroke-opacity="1" stroke-linejoin="bevel" stroke-miterlimit="10" stroke-dasharray=""/><path fill="rgb(0,0,255)" stroke="rgb(0,0,0)" paint-order="fill" d="M 253.95533752441406 152.10000610351562 A 5 5 0 1 1 253.95533502441427 152.09500610434895" fill-opacity="1" clip-path="url(#mziruduWWQOc)" stroke-opacity="1" stroke-linejoin="bevel" stroke-miterlimit="10" stroke-dasharray=""/><path fill="rgb(0,0,255)" stroke="rgb(0,0,0)" paint-order="fill" d="M 298.0719909667969 152.10000610351562 A 5 5 0 1 1 298.0719884667971 152.09500610434895" fill-opacity="1" clip-path="url(#mziruduWWQOc)" stroke-opacity="1" stroke-linejoin="bevel" stroke-miterlimit="10" stroke-dasharray=""/><path fill="none" stroke="rgb(0,0,0)" paint-order="fill" d="M 285.5656433105469 162.77999877929688 L 285.5656433105469 141.4199981689453" stroke-opacity="1" stroke-linejoin="bevel" stroke-miterlimit="10" stroke-width="3" stroke-dasharray="" clip-path="url(#sllkMynwSZaw)"/><path fill="none" stroke="rgb(0,0,0)" paint-order="fill" d="" stroke-opacity="1" stroke-linejoin="bevel" stroke-miterlimit="10" stroke-width="3" stroke-dasharray="" clip-path="url(#FcgirhfTfKwd)"/><path fill="rgb(230,230,250)" stroke="rgb(0,0,0)" paint-order="fill" d="M 175.40480041503906 187.6999969482422 A 5 5 0 1 1 175.40479791503927 187.69499694907552" fill-opacity="1" clip-path="url(#zIlqpkTAZMnb)" stroke-opacity="1" stroke-linejoin="bevel" stroke-miterlimit="10" stroke-dasharray=""/><path fill="rgb(230,230,250)" stroke="rgb(0,0,0)" paint-order="fill" d="M 175.43890380859375 187.6999969482422 A 5 5 0 1 1 175.43890130859396 187.69499694907552" fill-opacity="1" clip-path="url(#zIlqpkTAZMnb)" stroke-opacity="1" stroke-linejoin="bevel" stroke-miterlimit="10" stroke-dasharray=""/><path fill="rgb(230,230,250)" stroke="rgb(0,0,0)" paint-order="fill" d="M 174.39923095703125 187.6999969482422 A 5 5 0 1 1 174.39922845703146 187.69499694907552" fill-opacity="1" clip-path="url(#zIlqpkTAZMnb)" stroke-opacity="1" stroke-linejoin="bevel" stroke-miterlimit="10" stroke-dasharray=""/><path fill="none" stroke="rgb(0,0,0)" paint-order="fill" d="M 170.0809783935547 198.3800048828125 L 170.0809783935547 177.02000427246094" stroke-opacity="1" stroke-linejoin="bevel" stroke-miterlimit="10" stroke-width="3" stroke-dasharray="" clip-path="url(#IVxTeeWTtxIy)"/><path fill="none" stroke="rgb(0,0,0)" paint-order="fill" d="" stroke-opacity="1" stroke-linejoin="bevel" stroke-miterlimit="10" stroke-width="3" stroke-dasharray="" clip-path="url(#BJzbRctcgCgN)"/><path fill="none" stroke="rgb(0,0,0)" paint-order="fill" d="M 204.6666717529297 205.5 L 204.6666717529297 27.5" stroke-opacity="1" stroke-linejoin="bevel" stroke-miterlimit="10" stroke-dasharray="2,4" clip-path="url(#uvqCPxwniXdv)"/><path fill="none" stroke="rgb(0,0,0)" paint-order="fill" d="M 131.5 205.5 L 570.5 205.5" stroke-opacity="1" stroke-linejoin="bevel" stroke-miterlimit="10" stroke-dasharray=""/><path fill="none" stroke="rgb(0,0,0)" paint-order="fill" d="M 131.5 211.5 L 131.5 203.5 M 204.5 211.5 L 204.5 203.5 M 277.5 211.5 L 277.5 203.5 M 351.5 211.5 L 351.5 203.5 M 424.5 211.5 L 424.5 203.5 M 497.5 211.5 L 497.5 203.5 M 570.5 211.5 L 570.5 203.5" stroke-opacity="1" stroke-linejoin="bevel" stroke-miterlimit="10" stroke-dasharray=""/><path fill="none" stroke="rgb(0,0,0)" paint-order="fill" d="M 131.5 209.5 L 131.5 205.5 M 146.5 209.5 L 146.5 205.5 M 160.5 209.5 L 160.5 205.5 M 175.5 209.5 L 175.5 205.5 M 190.5 209.5 L 190.5 205.5 M 204.5 209.5 L 204.5 205.5 M 219.5 209.5 L 219.5 205.5 M 233.5 209.5 L 233.5 205.5 M 248.5 209.5 L 248.5 205.5 M 263.5 209.5 L 263.5 205.5 M 277.5 209.5 L 277.5 205.5 M 292.5 209.5 L 292.5 205.5 M 307.5 209.5 L 307.5 205.5 M 321.5 209.5 L 321.5 205.5 M 336.5 209.5 L 336.5 205.5 M 351.5 209.5 L 351.5 205.5 M 365.5 209.5 L 365.5 205.5 M 380.5 209.5 L 380.5 205.5 M 394.5 209.5 L 394.5 205.5 M 409.5 209.5 L 409.5 205.5 M 424.5 209.5 L 424.5 205.5 M 438.5 209.5 L 438.5 205.5 M 453.5 209.5 L 453.5 205.5 M 468.5 209.5 L 468.5 205.5 M 482.5 209.5 L 482.5 205.5 M 497.5 209.5 L 497.5 205.5 M 511.5 209.5 L 511.5 205.5 M 526.5 209.5 L 526.5 205.5 M 541.5 209.5 L 541.5 205.5 M 555.5 209.5 L 555.5 205.5 M 570.5 209.5 L 570.5 205.5" stroke-opacity="1" stroke-linejoin="bevel" stroke-miterlimit="10" stroke-dasharray=""/><text fill="rgb(68,68,68)" stroke="none" font-family="helvetica" font-size="11px" font-style="normal" font-weight="normal" text-decoration="normal" x="127.941162109375" y="224" text-anchor="start" dominant-baseline="alphabetic" transform="matrix(1, 0, 0, 1, 0.5, 0.5)" fill-opacity="1">0</text><text fill="rgb(68,68,68)" stroke="none" font-family="helvetica" font-size="11px" font-style="normal" font-weight="normal" text-decoration="normal" x="201.1078338623047" y="224" text-anchor="start" dominant-baseline="alphabetic" transform="matrix(1, 0, 0, 1, 0.5, 0.5)" fill-opacity="1">1</text><text fill="rgb(68,68,68)" stroke="none" font-family="helvetica" font-size="11px" font-style="normal" font-weight="normal" text-decoration="normal" x="274.2745056152344" y="224" text-anchor="start" dominant-baseline="alphabetic" transform="matrix(1, 0, 0, 1, 0.5, 0.5)" fill-opacity="1">2</text><text fill="rgb(68,68,68)" stroke="none" font-family="helvetica" font-size="11px" font-style="normal" font-weight="normal" text-decoration="normal" x="347.441162109375" y="224" text-anchor="start" dominant-baseline="alphabetic" transform="matrix(1, 0, 0, 1, 0.5, 0.5)" fill-opacity="1">3</text><text fill="rgb(68,68,68)" stroke="none" font-family="helvetica" font-size="11px" font-style="normal" font-weight="normal" text-decoration="normal" x="420.6078186035156" y="224" text-anchor="start" dominant-baseline="alphabetic" transform="matrix(1, 0, 0, 1, 0.5, 0.5)" fill-opacity="1">4</text><text fill="rgb(68,68,68)" stroke="none" font-family="helvetica" font-size="11px" font-style="normal" font-weight="normal" text-decoration="normal" x="493.7745056152344" y="224" text-anchor="start" dominant-baseline="alphabetic" transform="matrix(1, 0, 0, 1, 0.5, 0.5)" fill-opacity="1">5</text><text fill="rgb(68,68,68)" stroke="none" font-family="helvetica" font-size="11px" font-style="normal" font-weight="normal" text-decoration="normal" x="566.941162109375" y="224" text-anchor="start" dominant-baseline="alphabetic" transform="matrix(1, 0, 0, 1, 0.5, 0.5)" fill-opacity="1">6</text><text fill="rgb(68,68,68)" stroke="none" font-family="helvetica" font-size="13px" font-style="italic" font-weight="normal" text-decoration="normal" x="293.41552734375" y="244" text-anchor="start" dominant-baseline="alphabetic" transform="matrix(1, 0, 0, 1, 0.5, 0.5)" fill-opacity="1">Relative PaQa level</text><path fill="none" stroke="rgb(0,0,0)" paint-order="fill" d="M 131.5 205.5 L 131.5 27.5" stroke-opacity="1" stroke-linejoin="bevel" stroke-miterlimit="10" stroke-dasharray=""/><path fill="none" stroke="rgb(0,0,0)" paint-order="fill" d="M 125.5 187.5 L 133.5 187.5 M 125.5 152.5 L 133.5 152.5 M 125.5 116.5 L 133.5 116.5 M 125.5 80.5 L 133.5 80.5 M 125.5 45.5 L 133.5 45.5" stroke-opacity="1" stroke-linejoin="bevel" stroke-miterlimit="10" stroke-dasharray=""/><text fill="rgb(68,68,68)" stroke="none" font-family="helvetica" font-size="9pt" font-style="normal" font-weight="normal" text-decoration="normal" x="3.251953125" y="191.1999969482422" text-anchor="start" dominant-baseline="alphabetic" transform="matrix(1, 0, 0, 1, 0.5, 0.5)" fill-opacity="1">ΔpilJ_pilA_T8V Liquid</text><text fill="rgb(68,68,68)" stroke="none" font-family="helvetica" font-size="9pt" font-style="normal" font-weight="normal" text-decoration="normal" x="35.947265625" y="155.60000610351562" text-anchor="start" dominant-baseline="alphabetic" transform="matrix(1, 0, 0, 1, 0.5, 0.5)" fill-opacity="1">pilA_T8V Liquid</text><text fill="rgb(68,68,68)" stroke="none" font-family="helvetica" font-size="9pt" font-style="normal" font-weight="normal" text-decoration="normal" x="56.61328125" y="120" text-anchor="start" dominant-baseline="alphabetic" transform="matrix(1, 0, 0, 1, 0.5, 0.5)" fill-opacity="1">ΔpilA Liquid</text><text fill="rgb(68,68,68)" stroke="none" font-family="helvetica" font-size="9pt" font-style="normal" font-weight="normal" text-decoration="normal" x="71.326171875" y="84.4000015258789" text-anchor="start" dominant-baseline="alphabetic" transform="matrix(1, 0, 0, 1, 0.5, 0.5)" fill-opacity="1">WT Solid</text><text fill="rgb(68,68,68)" stroke="none" font-family="helvetica" font-size="9pt" font-style="normal" font-weight="normal" text-decoration="normal" x="65.982421875" y="48.79999923706055" text-anchor="start" dominant-baseline="alphabetic" transform="matrix(1, 0, 0, 1, 0.5, 0.5)" fill-opacity="1">WT Liquid</text><path fill="rgb(255,255,255)" stroke="rgb(229,229,229)" paint-order="fill" d="M 402.7783203125 37.5 L 560.5 37.5 L 560.5 123.5 L 402.7783203125 123.5 L 402.7783203125 37.5" fill-opacity="0.9490196078431372" clip-path="url(#afQRPTAuemud)" stroke-opacity="0.5019607843137255" stroke-linejoin="bevel" stroke-miterlimit="10" stroke-dasharray=""/><g clip-path="url(#afQRPTAuemud)"><text fill="rgb(68,68,68)" stroke="none" font-family="helvetica" font-size="13px" font-style="normal" font-weight="normal" text-decoration="normal" x="437.2783203125" y="57" text-anchor="start" dominant-baseline="central" transform="matrix(1, 0, 0, 1, 0.5, 0.5)" fill-opacity="1">mean</text></g><path fill="none" stroke="rgb(0,0,0)" paint-order="fill" d="M 412.7783203125 57.5 L 432.7783203125 57.5" stroke-opacity="1" stroke-linejoin="bevel" stroke-miterlimit="10" stroke-width="3" stroke-dasharray="" clip-path="url(#afQRPTAuemud)"/><g clip-path="url(#afQRPTAuemud)"><text fill="rgb(68,68,68)" stroke="none" font-family="helvetica" font-size="13px" font-style="normal" font-weight="normal" text-decoration="normal" x="437.2783203125" y="80" text-anchor="start" dominant-baseline="central" transform="matrix(1, 0, 0, 1, 0.5, 0.5)" fill-opacity="1">means of replicates</text></g><path fill="rgb(211,211,211)" stroke="rgb(0,0,0)" paint-order="fill" d="M 426.7783203125 80.5 A 4 4 0 1 1 426.7783183125002 80.49600000066667" fill-opacity="1" clip-path="url(#afQRPTAuemud)" stroke-opacity="1" stroke-linejoin="bevel" stroke-miterlimit="10" stroke-dasharray=""/><path fill="rgb(0,0,255)" stroke="rgb(0,0,0)" paint-order="fill" d="M 426.7783203125 80.5 A 4 4 0 1 1 426.7783183125002 80.49600000066667" fill-opacity="1" clip-path="url(#afQRPTAuemud)" stroke-opacity="1" stroke-linejoin="bevel" stroke-miterlimit="10" stroke-dasharray=""/><path fill="rgb(230,230,250)" stroke="rgb(0,0,0)" paint-order="fill" d="M 426.7783203125 80.5 A 4 4 0 1 1 426.7783183125002 80.49600000066667" fill-opacity="1" clip-path="url(#afQRPTAuemud)" stroke-opacity="1" stroke-linejoin="bevel" stroke-miterlimit="10" stroke-dasharray=""/><g clip-path="url(#afQRPTAuemud)"><text fill="rgb(68,68,68)" stroke="none" font-family="helvetica" font-size="13px" font-style="normal" font-weight="normal" text-decoration="normal" x="437.2783203125" y="103" text-anchor="start" dominant-baseline="central" transform="matrix(1, 0, 0, 1, 0.5, 0.5)" fill-opacity="1">Reference</text></g><path fill="none" stroke="rgb(0,0,0)" paint-order="fill" d="M 412.7783203125 103.5 L 432.7783203125 103.5" stroke-opacity="1" stroke-linejoin="bevel" stroke-miterlimit="10" stroke-dasharray="2,4" clip-path="url(#afQRPTAuemud)"/><text fill="rgb(68,68,68)" stroke="none" font-family="helvetica" font-size="13px" font-style="normal" font-weight="bold" text-decoration="normal" x="131" y="19" text-anchor="start" dominant-baseline="alphabetic" transform="matrix(1, 0, 0, 1, 0.5, 0.5)" fill-opacity="1"> PaQa_ratio on Liquid vs. Solid in linear scale</text></svg>