<svg version="1.1" xmlns="http://www.w3.org/2000/svg" xmlns:xlink="http://www.w3.org/1999/xlink" width="1200" height="800"><defs><clipPath id="WtrGlosKiXVF"><path fill="none" stroke="none" d="M 203.5 28.5 L 1170.5 28.5 L 1170.5 755.5 L 203.5 755.5 L 203.5 28.5"/></clipPath><clipPath id="GyervypyNfkJ"><path fill="none" stroke="none" d="M 203.5 28.5 L 1170.5 28.5 L 1170.5 755.5 L 203.5 755.5 L 203.5 28.5"/></clipPath><clipPath id="EqSHJLSQQgHa"><path fill="none" stroke="none" d="M 203.5 28.5 L 1170.5 28.5 L 1170.5 755.5 L 203.5 755.5 L 203.5 28.5"/></clipPath><clipPath id="aHuDFSiqRECW"><path fill="none" stroke="none" d="M 203.5 28.5 L 1170.5 28.5 L 1170.5 755.5 L 203.5 755.5 L 203.5 28.5"/></clipPath><clipPath id="eCZixPBSdBur"><path fill="none" stroke="none" d="M 203.5 28.5 L 1170.5 28.5 L 1170.5 755.5 L 203.5 755.5 L 203.5 28.5"/></clipPath><clipPath id="AlGalEzTIepJ"><path fill="none" stroke="none" d="M 203.5 28.5 L 1170.5 28.5 L 1170.5 755.5 L 203.5 755.5 L 203.5 28.5"/></clipPath><clipPath id="CqeFgqVEukoh"><path fill="none" stroke="none" d="M 203.5 28.5 L 1170.5 28.5 L 1170.5 755.5 L 203.5 755.5 L 203.5 28.5"/></clipPath><clipPath id="ksqfZEgwZKlC"><path fill="none" stroke="none" d="M 203.5 28.5 L 1170.5 28.5 L 1170.5 755.5 L 203.5 755.5 L 203.5 28.5"/></clipPath><clipPath id="zZtFHacUnhxB"><path fill="none" stroke="none" d="M 203.5 28.5 L 1170.5 28.5 L 1170.5 755.5 L 203.5 755.5 L 203.5 28.5"/></clipPath><clipPath id="KofhKLmUyyHG"><path fill="none" stroke="none" d="M 203.5 28.5 L 1170.5 28.5 L 1170.5 755.5 L 203.5 755.5 L 203.5 28.5"/></clipPath><clipPath id="yFeTBLeoKHCz"><path fill="none" stroke="none" d="M 203.5 28.5 L 1170.5 28.5 L 1170.5 755.5 L 203.5 755.5 L 203.5 28.5"/></clipPath><clipPath id="uPLCFXbegVFd"><path fill="none" stroke="none" d="M 203.5 28.5 L 1170.5 28.5 L 1170.5 755.5 L 203.5 755.5 L 203.5 28.5"/></clipPath><clipPath id="VTZTCALxfTPR"><path fill="none" stroke="none" d="M 203.5 28.5 L 1170.5 28.5 L 1170.5 755.5 L 203.5 755.5 L 203.5 28.5"/></clipPath><clipPath id="QVLbSGbsIiFb"><path fill="none" stroke="none" d="M 203.5 28.5 L 1170.5 28.5 L 1170.5 755.5 L 203.5 755.5 L 203.5 28.5"/></clipPath><clipPath id="iTcCnOXBUkJz"><path fill="none" stroke="none" d="M 203.5 28.5 L 1170.5 28.5 L 1170.5 755.5 L 203.5 755.5 L 203.5 28.5"/></clipPath><clipPath id="SftbfZXaVMgM"><path fill="none" stroke="none" d="M 203.5 28.5 L 1170.5 28.5 L 1170.5 755.5 L 203.5 755.5 L 203.5 28.5"/></clipPath><clipPath id="lbSrMVQyVBev"><path fill="none" stroke="none" d="M 203.5 28.5 L 1170.5 28.5 L 1170.5 755.5 L 203.5 755.5 L 203.5 28.5"/></clipPath><clipPath id="TlLtIZZJQQSA"><path fill="none" stroke="none" d="M 203.5 28.5 L 1170.5 28.5 L 1170.5 755.5 L 203.5 755.5 L 203.5 28.5"/></clipPath><clipPath id="tsGplQVSXLJR"><path fill="none" stroke="none" d="M 203.5 28.5 L 1170.5 28.5 L 1170.5 755.5 L 203.5 755.5 L 203.5 28.5"/></clipPath><clipPath id="akZrwFIzVhgu"><path fill="none" stroke="none" d="M 203.5 28.5 L 1170.5 28.5 L 1170.5 755.5 L 203.5 755.5 L 203.5 28.5"/></clipPath><clipPath id="yqwKXPhZKhry"><path fill="none" stroke="none" d="M 203.5 28.5 L 1170.5 28.5 L 1170.5 755.5 L 203.5 755.5 L 203.5 28.5"/></clipPath><clipPath id="zqqalalBiwLL"><path fill="none" stroke="none" d="M 203.5 28.5 L 1170.5 28.5 L 1170.5 755.5 L 203.5 755.5 L 203.5 28.5"/></clipPath><clipPath id="enqowLQcxkFd"><path fill="none" stroke="none" d="M 203.5 28.5 L 1170.5 28.5 L 1170.5 755.5 L 203.5 755.5 L 203.5 28.5"/></clipPath><clipPath id="feRyZCnCsaIn"><path fill="none" stroke="none" d="M 203.5 28.5 L 1170.5 28.5 L 1170.5 755.5 L 203.5 755.5 L 203.5 28.5"/></clipPath><clipPath id="TlbbsXCJQCUT"><path fill="none" stroke="none" d="M 203.5 28.5 L 1170.5 28.5 L 1170.5 755.5 L 203.5 755.5 L 203.5 28.5"/></clipPath><clipPath id="ELVVlJivbvWN"><path fill="none" stroke="none" d="M 203.5 28.5 L 1170.5 28.5 L 1170.5 755.5 L 203.5 755.5 L 203.5 28.5"/></clipPath><clipPath id="acVQZgELrdRD"><path fill="none" stroke="none" d="M 203.5 28.5 L 1170.5 28.5 L 1170.5 755.5 L 203.5 755.5 L 203.5 28.5"/></clipPath><clipPath id="MapdATEnlZpr"><path fill="none" stroke="none" d="M 203.5 28.5 L 1170.5 28.5 L 1170.5 755.5 L 203.5 755.5 L 203.5 28.5"/></clipPath><clipPath id="VCJMFKLKMDQi"><path fill="none" stroke="none" d="M 203.5 28.5 L 1170.5 28.5 L 1170.5 755.5 L 203.5 755.5 L 203.5 28.5"/></clipPath><clipPath id="umNMrKzIMLeP"><path fill="none" stroke="none" d="M 203.5 28.5 L 1170.5 28.5 L 1170.5 755.5 L 203.5 755.5 L 203.5 28.5"/></clipPath><clipPath id="iZidCMTIGKRV"><path fill="none" stroke="none" d="M 203.5 28.5 L 1170.5 28.5 L 1170.5 755.5 L 203.5 755.5 L 203.5 28.5"/></clipPath><clipPath id="sOIkmegPwWwe"><path fill="none" stroke="none" d="M 203.5 28.5 L 1170.5 28.5 L 1170.5 755.5 L 203.5 755.5 L 203.5 28.5"/></clipPath><clipPath id="eMfKSTzWmvkg"><path fill="none" stroke="none" d="M 203.5 28.5 L 1170.5 28.5 L 1170.5 755.5 L 203.5 755.5 L 203.5 28.5"/></clipPath><clipPath id="GZFZxTKRqxsm"><path fill="none" stroke="none" d="M 203.5 28.5 L 1170.5 28.5 L 1170.5 755.5 L 203.5 755.5 L 203.5 28.5"/></clipPath><clipPath id="fUfnyZcGvfJw"><path fill="none" stroke="none" d="M 203.5 28.5 L 1170.5 28.5 L 1170.5 755.5 L 203.5 755.5 L 203.5 28.5"/></clipPath><clipPath id="ihCLhWsxTpbB"><path fill="none" stroke="none" d="M 203.5 28.5 L 1170.5 28.5 L 1170.5 755.5 L 203.5 755.5 L 203.5 28.5"/></clipPath><clipPath id="uIUDGVOBDgKA"><path fill="none" stroke="none" d="M 203.5 28.5 L 1170.5 28.5 L 1170.5 755.5 L 203.5 755.5 L 203.5 28.5"/></clipPath><clipPath id="pMGbAlFKVvpL"><path fill="none" stroke="none" d="M 203.5 28.5 L 1170.5 28.5 L 1170.5 755.5 L 203.5 755.5 L 203.5 28.5"/></clipPath><clipPath id="gZTexPEmqzbf"><path fill="none" stroke="none" d="M 203.5 28.5 L 1170.5 28.5 L 1170.5 755.5 L 203.5 755.5 L 203.5 28.5"/></clipPath></defs><path fill="rgb(255,255,255)" stroke="none" paint-order="stroke" d="M 0.5 0.5 L 1200.5 0.5 L 1200.5 800.5 L 0.5 800.5 L 0.5 0.5" fill-opacity="1"/><rect fill="#FFFFFF" stroke="none" x="203" y="28" width="967" height="727" transform="matrix(1, 0, 0, 1, 0.5, 0.5)"/><path fill="rgb(255,255,255)" stroke="none" paint-order="stroke" d="M 203.5 28.5 L 1170.5 28.5 L 1170.5 755.5 L 203.5 755.5 L 203.5 28.5" fill-opacity="1"/><path fill="none" stroke="rgb(229,229,229)" paint-order="fill" d="M 203.5 28.5 L 1170.5 28.5 L 1170.5 755.5 L 203.5 755.5 L 203.5 28.5" stroke-opacity="1" stroke-linejoin="bevel" stroke-miterlimit="10" stroke-dasharray=""/><path fill="none" stroke="none"/><path fill="rgb(31,119,180)" stroke="rgb(0,0,0)" paint-order="fill" d="M 275.2226867675781 51.21875 A 5 5 0 1 1 275.22268426757836 51.21375000083333" fill-opacity="1" clip-path="url(#EqSHJLSQQgHa)" stroke-opacity="1" stroke-linejoin="bevel" stroke-miterlimit="10" stroke-dasharray=""/><path fill="rgb(31,119,180)" stroke="rgb(0,0,0)" paint-order="fill" d="M 267.0875244140625 51.21875 A 5 5 0 1 1 267.08752191406273 51.21375000083333" fill-opacity="1" clip-path="url(#EqSHJLSQQgHa)" stroke-opacity="1" stroke-linejoin="bevel" stroke-miterlimit="10" stroke-dasharray=""/><path fill="rgb(31,119,180)" stroke="rgb(0,0,0)" paint-order="fill" d="M 276.58978271484375 51.21875 A 5 5 0 1 1 276.589780214844 51.21375000083333" fill-opacity="1" clip-path="url(#EqSHJLSQQgHa)" stroke-opacity="1" stroke-linejoin="bevel" stroke-miterlimit="10" stroke-dasharray=""/><path fill="none" stroke="none"/><path fill="none" stroke="rgb(0,0,0)" paint-order="fill" d="M 267.9666748046875 60.30624008178711 L 267.9666748046875 42.13125991821289" stroke-opacity="1" stroke-linejoin="bevel" stroke-miterlimit="10" stroke-width="3" stroke-dasharray="" clip-path="url(#aHuDFSiqRECW)"/><path fill="none" stroke="none"/><path fill="none" stroke="none"/><path fill="none" stroke="rgb(0,0,0)" paint-order="fill" d="" stroke-opacity="1" stroke-linejoin="bevel" stroke-miterlimit="10" stroke-width="3" stroke-dasharray="" clip-path="url(#AlGalEzTIepJ)"/><path fill="none" stroke="none"/><path fill="none" stroke="none"/><path fill="rgb(255,127,14)" stroke="rgb(0,0,0)" paint-order="fill" d="M 259.74671936035156 96.65625 A 5 5 0 1 1 259.7467168603518 96.65125000083333" fill-opacity="1" clip-path="url(#CqeFgqVEukoh)" stroke-opacity="1" stroke-linejoin="bevel" stroke-miterlimit="10" stroke-dasharray=""/><path fill="rgb(255,127,14)" stroke="rgb(0,0,0)" paint-order="fill" d="M 251.79293823242188 96.65625 A 5 5 0 1 1 251.79293573242208 96.65125000083333" fill-opacity="1" clip-path="url(#CqeFgqVEukoh)" stroke-opacity="1" stroke-linejoin="bevel" stroke-miterlimit="10" stroke-dasharray=""/><path fill="rgb(255,127,14)" stroke="rgb(0,0,0)" paint-order="fill" d="M 262.3717956542969 96.65625 A 5 5 0 1 1 262.3717931542971 96.65125000083333" fill-opacity="1" clip-path="url(#CqeFgqVEukoh)" stroke-opacity="1" stroke-linejoin="bevel" stroke-miterlimit="10" stroke-dasharray=""/><path fill="none" stroke="none"/><path fill="none" stroke="rgb(0,0,0)" paint-order="fill" d="M 252.97048950195312 105.74374389648438 L 252.97048950195312 87.56875610351562" stroke-opacity="1" stroke-linejoin="bevel" stroke-miterlimit="10" stroke-width="3" stroke-dasharray="" clip-path="url(#ksqfZEgwZKlC)"/><path fill="none" stroke="none"/><path fill="rgb(255,187,120)" stroke="rgb(0,0,0)" paint-order="fill" d="M 273.40625 142.09375 A 5 5 0 1 1 273.40624750000023 142.08875000083333" fill-opacity="1" clip-path="url(#zZtFHacUnhxB)" stroke-opacity="1" stroke-linejoin="bevel" stroke-miterlimit="10" stroke-dasharray=""/><path fill="rgb(255,187,120)" stroke="rgb(0,0,0)" paint-order="fill" d="M 239.65704345703125 142.09375 A 5 5 0 1 1 239.65704095703146 142.08875000083333" fill-opacity="1" clip-path="url(#zZtFHacUnhxB)" stroke-opacity="1" stroke-linejoin="bevel" stroke-miterlimit="10" stroke-dasharray=""/><path fill="rgb(255,187,120)" stroke="rgb(0,0,0)" paint-order="fill" d="M 260.2592010498047 142.09375 A 5 5 0 1 1 260.2591985498049 142.08875000083333" fill-opacity="1" clip-path="url(#zZtFHacUnhxB)" stroke-opacity="1" stroke-linejoin="bevel" stroke-miterlimit="10" stroke-dasharray=""/><path fill="none" stroke="none"/><path fill="none" stroke="rgb(0,0,0)" paint-order="fill" d="M 252.774169921875 151.18124389648438 L 252.774169921875 133.00625610351562" stroke-opacity="1" stroke-linejoin="bevel" stroke-miterlimit="10" stroke-width="3" stroke-dasharray="" clip-path="url(#KofhKLmUyyHG)"/><path fill="none" stroke="none"/><path fill="rgb(44,160,44)" stroke="rgb(0,0,0)" paint-order="fill" d="M 246.91273498535156 187.53125 A 5 5 0 1 1 246.91273248535177 187.52625000083333" fill-opacity="1" clip-path="url(#yFeTBLeoKHCz)" stroke-opacity="1" stroke-linejoin="bevel" stroke-miterlimit="10" stroke-dasharray=""/><path fill="rgb(44,160,44)" stroke="rgb(0,0,0)" paint-order="fill" d="M 242.57350158691406 187.53125 A 5 5 0 1 1 242.57349908691427 187.52625000083333" fill-opacity="1" clip-path="url(#yFeTBLeoKHCz)" stroke-opacity="1" stroke-linejoin="bevel" stroke-miterlimit="10" stroke-dasharray=""/><path fill="rgb(44,160,44)" stroke="rgb(0,0,0)" paint-order="fill" d="M 255.45938110351562 187.53125 A 5 5 0 1 1 255.45937860351583 187.52625000083333" fill-opacity="1" clip-path="url(#yFeTBLeoKHCz)" stroke-opacity="1" stroke-linejoin="bevel" stroke-miterlimit="10" stroke-dasharray=""/><path fill="none" stroke="none"/><path fill="none" stroke="rgb(0,0,0)" paint-order="fill" d="M 243.31520080566406 196.61874389648438 L 243.31520080566406 178.44375610351562" stroke-opacity="1" stroke-linejoin="bevel" stroke-miterlimit="10" stroke-width="3" stroke-dasharray="" clip-path="url(#uPLCFXbegVFd)"/><path fill="none" stroke="none"/><path fill="rgb(152,223,138)" stroke="rgb(0,0,0)" paint-order="fill" d="M 238.73886108398438 232.96875 A 5 5 0 1 1 238.73885858398458 232.96375000083333" fill-opacity="1" clip-path="url(#VTZTCALxfTPR)" stroke-opacity="1" stroke-linejoin="bevel" stroke-miterlimit="10" stroke-dasharray=""/><path fill="rgb(152,223,138)" stroke="rgb(0,0,0)" paint-order="fill" d="M 239.88870239257812 232.96875 A 5 5 0 1 1 239.88869989257833 232.96375000083333" fill-opacity="1" clip-path="url(#VTZTCALxfTPR)" stroke-opacity="1" stroke-linejoin="bevel" stroke-miterlimit="10" stroke-dasharray=""/><path fill="rgb(152,223,138)" stroke="rgb(0,0,0)" paint-order="fill" d="M 267.9554138183594 232.96875 A 5 5 0 1 1 267.9554113183596 232.96375000083333" fill-opacity="1" clip-path="url(#VTZTCALxfTPR)" stroke-opacity="1" stroke-linejoin="bevel" stroke-miterlimit="10" stroke-dasharray=""/><path fill="none" stroke="none"/><path fill="none" stroke="rgb(0,0,0)" paint-order="fill" d="M 243.86099243164062 242.05624389648438 L 243.86099243164062 223.88125610351562" stroke-opacity="1" stroke-linejoin="bevel" stroke-miterlimit="10" stroke-width="3" stroke-dasharray="" clip-path="url(#QVLbSGbsIiFb)"/><path fill="none" stroke="none"/><path fill="rgb(214,39,40)" stroke="rgb(0,0,0)" paint-order="fill" d="M 241.8415069580078 278.40625 A 5 5 0 1 1 241.84150445800802 278.40125000083333" fill-opacity="1" clip-path="url(#iTcCnOXBUkJz)" stroke-opacity="1" stroke-linejoin="bevel" stroke-miterlimit="10" stroke-dasharray=""/><path fill="rgb(214,39,40)" stroke="rgb(0,0,0)" paint-order="fill" d="M 252.5288543701172 278.40625 A 5 5 0 1 1 252.5288518701174 278.40125000083333" fill-opacity="1" clip-path="url(#iTcCnOXBUkJz)" stroke-opacity="1" stroke-linejoin="bevel" stroke-miterlimit="10" stroke-dasharray=""/><path fill="rgb(214,39,40)" stroke="rgb(0,0,0)" paint-order="fill" d="M 241.01870727539062 278.40625 A 5 5 0 1 1 241.01870477539083 278.40125000083333" fill-opacity="1" clip-path="url(#iTcCnOXBUkJz)" stroke-opacity="1" stroke-linejoin="bevel" stroke-miterlimit="10" stroke-dasharray=""/><path fill="none" stroke="none"/><path fill="none" stroke="rgb(0,0,0)" paint-order="fill" d="M 240.1296844482422 287.4937438964844 L 240.1296844482422 269.3187561035156" stroke-opacity="1" stroke-linejoin="bevel" stroke-miterlimit="10" stroke-width="3" stroke-dasharray="" clip-path="url(#SftbfZXaVMgM)"/><path fill="none" stroke="none"/><path fill="rgb(255,152,150)" stroke="rgb(0,0,0)" paint-order="fill" d="M 355.7238464355469 323.84375 A 5 5 0 1 1 355.7238439355471 323.83875000083333" fill-opacity="1" clip-path="url(#lbSrMVQyVBev)" stroke-opacity="1" stroke-linejoin="bevel" stroke-miterlimit="10" stroke-dasharray=""/><path fill="rgb(255,152,150)" stroke="rgb(0,0,0)" paint-order="fill" d="M 336.3052673339844 323.84375 A 5 5 0 1 1 336.3052648339846 323.83875000083333" fill-opacity="1" clip-path="url(#lbSrMVQyVBev)" stroke-opacity="1" stroke-linejoin="bevel" stroke-miterlimit="10" stroke-dasharray=""/><path fill="rgb(255,152,150)" stroke="rgb(0,0,0)" paint-order="fill" d="M 332.8458557128906 323.84375 A 5 5 0 1 1 332.84585321289086 323.83875000083333" fill-opacity="1" clip-path="url(#lbSrMVQyVBev)" stroke-opacity="1" stroke-linejoin="bevel" stroke-miterlimit="10" stroke-dasharray=""/><path fill="none" stroke="none"/><path fill="none" stroke="rgb(0,0,0)" paint-order="fill" d="M 336.625 332.9312438964844 L 336.625 314.7562561035156" stroke-opacity="1" stroke-linejoin="bevel" stroke-miterlimit="10" stroke-width="3" stroke-dasharray="" clip-path="url(#TlLtIZZJQQSA)"/><path fill="none" stroke="none"/><path fill="rgb(148,103,189)" stroke="rgb(0,0,0)" paint-order="fill" d="M 278.07611083984375 369.28125 A 5 5 0 1 1 278.076108339844 369.27625000083333" fill-opacity="1" clip-path="url(#tsGplQVSXLJR)" stroke-opacity="1" stroke-linejoin="bevel" stroke-miterlimit="10" stroke-dasharray=""/><path fill="rgb(148,103,189)" stroke="rgb(0,0,0)" paint-order="fill" d="M 318.027587890625 369.28125 A 5 5 0 1 1 318.02758539062523 369.27625000083333" fill-opacity="1" clip-path="url(#tsGplQVSXLJR)" stroke-opacity="1" stroke-linejoin="bevel" stroke-miterlimit="10" stroke-dasharray=""/><path fill="rgb(148,103,189)" stroke="rgb(0,0,0)" paint-order="fill" d="M 333.3913879394531 369.28125 A 5 5 0 1 1 333.39138543945336 369.27625000083333" fill-opacity="1" clip-path="url(#tsGplQVSXLJR)" stroke-opacity="1" stroke-linejoin="bevel" stroke-miterlimit="10" stroke-dasharray=""/><path fill="none" stroke="none"/><path fill="none" stroke="rgb(0,0,0)" paint-order="fill" d="M 304.8316955566406 378.3687438964844 L 304.8316955566406 360.1937561035156" stroke-opacity="1" stroke-linejoin="bevel" stroke-miterlimit="10" stroke-width="3" stroke-dasharray="" clip-path="url(#akZrwFIzVhgu)"/><path fill="none" stroke="none"/><path fill="rgb(197,176,213)" stroke="rgb(0,0,0)" paint-order="fill" d="M 231.56112670898438 414.71875 A 5 5 0 1 1 231.56112420898458 414.71375000083333" fill-opacity="1" clip-path="url(#yqwKXPhZKhry)" stroke-opacity="1" stroke-linejoin="bevel" stroke-miterlimit="10" stroke-dasharray=""/><path fill="rgb(197,176,213)" stroke="rgb(0,0,0)" paint-order="fill" d="M 234.39418029785156 414.71875 A 5 5 0 1 1 234.39417779785177 414.71375000083333" fill-opacity="1" clip-path="url(#yqwKXPhZKhry)" stroke-opacity="1" stroke-linejoin="bevel" stroke-miterlimit="10" stroke-dasharray=""/><path fill="rgb(197,176,213)" stroke="rgb(0,0,0)" paint-order="fill" d="M 232.8280792236328 414.71875 A 5 5 0 1 1 232.82807672363302 414.71375000083333" fill-opacity="1" clip-path="url(#yqwKXPhZKhry)" stroke-opacity="1" stroke-linejoin="bevel" stroke-miterlimit="10" stroke-dasharray=""/><path fill="none" stroke="none"/><path fill="none" stroke="rgb(0,0,0)" paint-order="fill" d="M 227.92779541015625 423.8062438964844 L 227.92779541015625 405.6312561035156" stroke-opacity="1" stroke-linejoin="bevel" stroke-miterlimit="10" stroke-width="3" stroke-dasharray="" clip-path="url(#zqqalalBiwLL)"/><path fill="none" stroke="none"/><path fill="rgb(140,86,75)" stroke="rgb(0,0,0)" paint-order="fill" d="M 227.89344787597656 460.15625 A 5 5 0 1 1 227.89344537597677 460.15125000083333" fill-opacity="1" clip-path="url(#enqowLQcxkFd)" stroke-opacity="1" stroke-linejoin="bevel" stroke-miterlimit="10" stroke-dasharray=""/><path fill="rgb(140,86,75)" stroke="rgb(0,0,0)" paint-order="fill" d="M 227.58004760742188 460.15625 A 5 5 0 1 1 227.58004510742208 460.15125000083333" fill-opacity="1" clip-path="url(#enqowLQcxkFd)" stroke-opacity="1" stroke-linejoin="bevel" stroke-miterlimit="10" stroke-dasharray=""/><path fill="rgb(140,86,75)" stroke="rgb(0,0,0)" paint-order="fill" d="M 231.35694885253906 460.15625 A 5 5 0 1 1 231.35694635253927 460.15125000083333" fill-opacity="1" clip-path="url(#enqowLQcxkFd)" stroke-opacity="1" stroke-linejoin="bevel" stroke-miterlimit="10" stroke-dasharray=""/><path fill="none" stroke="none"/><path fill="none" stroke="rgb(0,0,0)" paint-order="fill" d="M 223.9434814453125 469.2437438964844 L 223.9434814453125 451.0687561035156" stroke-opacity="1" stroke-linejoin="bevel" stroke-miterlimit="10" stroke-width="3" stroke-dasharray="" clip-path="url(#feRyZCnCsaIn)"/><path fill="none" stroke="none"/><path fill="rgb(196,156,148)" stroke="rgb(0,0,0)" paint-order="fill" d="M 629.054931640625 505.59375 A 5 5 0 1 1 629.0549291406252 505.58875000083333" fill-opacity="1" clip-path="url(#TlbbsXCJQCUT)" stroke-opacity="1" stroke-linejoin="bevel" stroke-miterlimit="10" stroke-dasharray=""/><path fill="rgb(196,156,148)" stroke="rgb(0,0,0)" paint-order="fill" d="M 710.1915893554688 505.59375 A 5 5 0 1 1 710.1915868554689 505.58875000083333" fill-opacity="1" clip-path="url(#TlbbsXCJQCUT)" stroke-opacity="1" stroke-linejoin="bevel" stroke-miterlimit="10" stroke-dasharray=""/><path fill="rgb(196,156,148)" stroke="rgb(0,0,0)" paint-order="fill" d="M 743.3357543945312 505.59375 A 5 5 0 1 1 743.3357518945314 505.58875000083333" fill-opacity="1" clip-path="url(#TlbbsXCJQCUT)" stroke-opacity="1" stroke-linejoin="bevel" stroke-miterlimit="10" stroke-dasharray=""/><path fill="none" stroke="none"/><path fill="none" stroke="rgb(0,0,0)" paint-order="fill" d="M 689.194091796875 514.6812133789062 L 689.194091796875 496.5062561035156" stroke-opacity="1" stroke-linejoin="bevel" stroke-miterlimit="10" stroke-width="3" stroke-dasharray="" clip-path="url(#ELVVlJivbvWN)"/><path fill="none" stroke="none"/><path fill="rgb(227,119,194)" stroke="rgb(0,0,0)" paint-order="fill" d="M 605.4863891601562 551.03125 A 5 5 0 1 1 605.4863866601564 551.0262500008333" fill-opacity="1" clip-path="url(#acVQZgELrdRD)" stroke-opacity="1" stroke-linejoin="bevel" stroke-miterlimit="10" stroke-dasharray=""/><path fill="rgb(227,119,194)" stroke="rgb(0,0,0)" paint-order="fill" d="M 578.8566284179688 551.03125 A 5 5 0 1 1 578.8566259179689 551.0262500008333" fill-opacity="1" clip-path="url(#acVQZgELrdRD)" stroke-opacity="1" stroke-linejoin="bevel" stroke-miterlimit="10" stroke-dasharray=""/><path fill="rgb(227,119,194)" stroke="rgb(0,0,0)" paint-order="fill" d="M 592.1171875 551.03125 A 5 5 0 1 1 592.1171850000002 551.0262500008333" fill-opacity="1" clip-path="url(#acVQZgELrdRD)" stroke-opacity="1" stroke-linejoin="bevel" stroke-miterlimit="10" stroke-dasharray=""/><path fill="none" stroke="none"/><path fill="none" stroke="rgb(0,0,0)" paint-order="fill" d="M 587.1533813476562 560.1187133789062 L 587.1533813476562 541.9437866210938" stroke-opacity="1" stroke-linejoin="bevel" stroke-miterlimit="10" stroke-width="3" stroke-dasharray="" clip-path="url(#MapdATEnlZpr)"/><path fill="none" stroke="none"/><path fill="rgb(247,182,210)" stroke="rgb(0,0,0)" paint-order="fill" d="M 247.1131134033203 596.46875 A 5 5 0 1 1 247.11311090332052 596.4637500008333" fill-opacity="1" clip-path="url(#VCJMFKLKMDQi)" stroke-opacity="1" stroke-linejoin="bevel" stroke-miterlimit="10" stroke-dasharray=""/><path fill="rgb(247,182,210)" stroke="rgb(0,0,0)" paint-order="fill" d="M 242.41708374023438 596.46875 A 5 5 0 1 1 242.41708124023458 596.4637500008333" fill-opacity="1" clip-path="url(#VCJMFKLKMDQi)" stroke-opacity="1" stroke-linejoin="bevel" stroke-miterlimit="10" stroke-dasharray=""/><path fill="rgb(247,182,210)" stroke="rgb(0,0,0)" paint-order="fill" d="M 242.6077423095703 596.46875 A 5 5 0 1 1 242.60773980957052 596.4637500008333" fill-opacity="1" clip-path="url(#VCJMFKLKMDQi)" stroke-opacity="1" stroke-linejoin="bevel" stroke-miterlimit="10" stroke-dasharray=""/><path fill="none" stroke="none"/><path fill="none" stroke="rgb(0,0,0)" paint-order="fill" d="M 239.0459747314453 605.5562744140625 L 239.0459747314453 587.3812255859375" stroke-opacity="1" stroke-linejoin="bevel" stroke-miterlimit="10" stroke-width="3" stroke-dasharray="" clip-path="url(#umNMrKzIMLeP)"/><path fill="none" stroke="none"/><path fill="rgb(127,127,127)" stroke="rgb(0,0,0)" paint-order="fill" d="M 253.89752197265625 641.90625 A 5 5 0 1 1 253.89751947265646 641.9012500008333" fill-opacity="1" clip-path="url(#iZidCMTIGKRV)" stroke-opacity="1" stroke-linejoin="bevel" stroke-miterlimit="10" stroke-dasharray=""/><path fill="rgb(127,127,127)" stroke="rgb(0,0,0)" paint-order="fill" d="M 241.31185913085938 641.90625 A 5 5 0 1 1 241.31185663085958 641.9012500008333" fill-opacity="1" clip-path="url(#iZidCMTIGKRV)" stroke-opacity="1" stroke-linejoin="bevel" stroke-miterlimit="10" stroke-dasharray=""/><path fill="rgb(127,127,127)" stroke="rgb(0,0,0)" paint-order="fill" d="M 260.5702362060547 641.90625 A 5 5 0 1 1 260.5702337060549 641.9012500008333" fill-opacity="1" clip-path="url(#iZidCMTIGKRV)" stroke-opacity="1" stroke-linejoin="bevel" stroke-miterlimit="10" stroke-dasharray=""/><path fill="none" stroke="none"/><path fill="none" stroke="rgb(0,0,0)" paint-order="fill" d="M 246.92654418945312 650.9937744140625 L 246.92654418945312 632.8187255859375" stroke-opacity="1" stroke-linejoin="bevel" stroke-miterlimit="10" stroke-width="3" stroke-dasharray="" clip-path="url(#sOIkmegPwWwe)"/><path fill="none" stroke="none"/><path fill="rgb(199,199,199)" stroke="rgb(0,0,0)" paint-order="fill" d="M 241.42311096191406 687.34375 A 5 5 0 1 1 241.42310846191427 687.3387500008333" fill-opacity="1" clip-path="url(#eMfKSTzWmvkg)" stroke-opacity="1" stroke-linejoin="bevel" stroke-miterlimit="10" stroke-dasharray=""/><path fill="rgb(199,199,199)" stroke="rgb(0,0,0)" paint-order="fill" d="M 247.19900512695312 687.34375 A 5 5 0 1 1 247.19900262695333 687.3387500008333" fill-opacity="1" clip-path="url(#eMfKSTzWmvkg)" stroke-opacity="1" stroke-linejoin="bevel" stroke-miterlimit="10" stroke-dasharray=""/><path fill="rgb(199,199,199)" stroke="rgb(0,0,0)" paint-order="fill" d="M 259.12744140625 687.34375 A 5 5 0 1 1 259.12743890625023 687.3387500008333" fill-opacity="1" clip-path="url(#eMfKSTzWmvkg)" stroke-opacity="1" stroke-linejoin="bevel" stroke-miterlimit="10" stroke-dasharray=""/><path fill="none" stroke="none"/><path fill="none" stroke="rgb(0,0,0)" paint-order="fill" d="M 244.24984741210938 696.4312744140625 L 244.24984741210938 678.2562255859375" stroke-opacity="1" stroke-linejoin="bevel" stroke-miterlimit="10" stroke-width="3" stroke-dasharray="" clip-path="url(#GZFZxTKRqxsm)"/><path fill="none" stroke="none"/><path fill="rgb(188,189,34)" stroke="rgb(0,0,0)" paint-order="fill" d="M 231.80392456054688 732.78125 A 5 5 0 1 1 231.80392206054708 732.7762500008333" fill-opacity="1" clip-path="url(#fUfnyZcGvfJw)" stroke-opacity="1" stroke-linejoin="bevel" stroke-miterlimit="10" stroke-dasharray=""/><path fill="rgb(188,189,34)" stroke="rgb(0,0,0)" paint-order="fill" d="M 227.50050354003906 732.78125 A 5 5 0 1 1 227.50050104003927 732.7762500008333" fill-opacity="1" clip-path="url(#fUfnyZcGvfJw)" stroke-opacity="1" stroke-linejoin="bevel" stroke-miterlimit="10" stroke-dasharray=""/><path fill="rgb(188,189,34)" stroke="rgb(0,0,0)" paint-order="fill" d="M 242.7830810546875 732.78125 A 5 5 0 1 1 242.7830785546877 732.7762500008333" fill-opacity="1" clip-path="url(#fUfnyZcGvfJw)" stroke-opacity="1" stroke-linejoin="bevel" stroke-miterlimit="10" stroke-dasharray=""/><path fill="none" stroke="none"/><path fill="none" stroke="rgb(0,0,0)" paint-order="fill" d="M 229.0291748046875 741.8687744140625 L 229.0291748046875 723.6937255859375" stroke-opacity="1" stroke-linejoin="bevel" stroke-miterlimit="10" stroke-width="3" stroke-dasharray="" clip-path="url(#ihCLhWsxTpbB)"/><path fill="none" stroke="none"/><path fill="none" stroke="rgb(0,0,0)" paint-order="fill" d="M 267.9666748046875 755.5 L 267.9666748046875 28.5" stroke-opacity="1" stroke-linejoin="bevel" stroke-miterlimit="10" stroke-dasharray="2,4" clip-path="url(#uIUDGVOBDgKA)"/><path fill="none" stroke="rgb(0,0,0)" paint-order="fill" d="M 203.5 755.5 L 1170.5 755.5" stroke-opacity="1" stroke-linejoin="bevel" stroke-miterlimit="10" stroke-dasharray=""/><path fill="none" stroke="rgb(0,0,0)" paint-order="fill" d="M 203.5 761.5 L 203.5 753.5 M 332.5 761.5 L 332.5 753.5 M 461.5 761.5 L 461.5 753.5 M 590.5 761.5 L 590.5 753.5 M 719.5 761.5 L 719.5 753.5 M 848.5 761.5 L 848.5 753.5 M 977.5 761.5 L 977.5 753.5 M 1106.5 761.5 L 1106.5 753.5" stroke-opacity="1" stroke-linejoin="bevel" stroke-miterlimit="10" stroke-dasharray=""/><path fill="none" stroke="rgb(0,0,0)" paint-order="fill" d="M 203.5 759.5 L 203.5 755.5 M 229.5 759.5 L 229.5 755.5 M 255.5 759.5 L 255.5 755.5 M 280.5 759.5 L 280.5 755.5 M 306.5 759.5 L 306.5 755.5 M 332.5 759.5 L 332.5 755.5 M 358.5 759.5 L 358.5 755.5 M 384.5 759.5 L 384.5 755.5 M 409.5 759.5 L 409.5 755.5 M 435.5 759.5 L 435.5 755.5 M 461.5 759.5 L 461.5 755.5 M 487.5 759.5 L 487.5 755.5 M 512.5 759.5 L 512.5 755.5 M 538.5 759.5 L 538.5 755.5 M 564.5 759.5 L 564.5 755.5 M 590.5 759.5 L 590.5 755.5 M 616.5 759.5 L 616.5 755.5 M 641.5 759.5 L 641.5 755.5 M 667.5 759.5 L 667.5 755.5 M 693.5 759.5 L 693.5 755.5 M 719.5 759.5 L 719.5 755.5 M 745.5 759.5 L 745.5 755.5 M 770.5 759.5 L 770.5 755.5 M 796.5 759.5 L 796.5 755.5 M 822.5 759.5 L 822.5 755.5 M 848.5 759.5 L 848.5 755.5 M 873.5 759.5 L 873.5 755.5 M 899.5 759.5 L 899.5 755.5 M 925.5 759.5 L 925.5 755.5 M 951.5 759.5 L 951.5 755.5 M 977.5 759.5 L 977.5 755.5 M 1002.5 759.5 L 1002.5 755.5 M 1028.5 759.5 L 1028.5 755.5 M 1054.5 759.5 L 1054.5 755.5 M 1080.5 759.5 L 1080.5 755.5 M 1106.5 759.5 L 1106.5 755.5 M 1131.5 759.5 L 1131.5 755.5 M 1157.5 759.5 L 1157.5 755.5" stroke-opacity="1" stroke-linejoin="bevel" stroke-miterlimit="10" stroke-dasharray=""/><text fill="rgb(68,68,68)" stroke="none" font-family="helvetica" font-size="11px" font-style="normal" font-weight="normal" text-decoration="normal" x="0" y="0" text-anchor="middle" dominant-baseline="hanging" transform="matrix(1, 0, 0, 1, 203.5, 766.5)" fill-opacity="1">0</text><text fill="rgb(68,68,68)" stroke="none" font-family="helvetica" font-size="11px" font-style="normal" font-weight="normal" text-decoration="normal" x="0" y="0" text-anchor="middle" dominant-baseline="hanging" transform="matrix(1, 0, 0, 1, 332.5, 766.5)" fill-opacity="1">2</text><text fill="rgb(68,68,68)" stroke="none" font-family="helvetica" font-size="11px" font-style="normal" font-weight="normal" text-decoration="normal" x="0" y="0" text-anchor="middle" dominant-baseline="hanging" transform="matrix(1, 0, 0, 1, 461.5, 766.5)" fill-opacity="1">4</text><text fill="rgb(68,68,68)" stroke="none" font-family="helvetica" font-size="11px" font-style="normal" font-weight="normal" text-decoration="normal" x="0" y="0" text-anchor="middle" dominant-baseline="hanging" transform="matrix(1, 0, 0, 1, 590.5, 766.5)" fill-opacity="1">6</text><text fill="rgb(68,68,68)" stroke="none" font-family="helvetica" font-size="11px" font-style="normal" font-weight="normal" text-decoration="normal" x="0" y="0" text-anchor="middle" dominant-baseline="hanging" transform="matrix(1, 0, 0, 1, 719.5, 766.5)" fill-opacity="1">8</text><text fill="rgb(68,68,68)" stroke="none" font-family="helvetica" font-size="11px" font-style="normal" font-weight="normal" text-decoration="normal" x="0" y="0" text-anchor="middle" dominant-baseline="hanging" transform="matrix(1, 0, 0, 1, 848.5, 766.5)" fill-opacity="1">10</text><text fill="rgb(68,68,68)" stroke="none" font-family="helvetica" font-size="11px" font-style="normal" font-weight="normal" text-decoration="normal" x="0" y="0" text-anchor="middle" dominant-baseline="hanging" transform="matrix(1, 0, 0, 1, 977.5, 766.5)" fill-opacity="1">12</text><text fill="rgb(68,68,68)" stroke="none" font-family="helvetica" font-size="11px" font-style="normal" font-weight="normal" text-decoration="normal" x="0" y="0" text-anchor="middle" dominant-baseline="hanging" transform="matrix(1, 0, 0, 1, 1106.5, 766.5)" fill-opacity="1">14</text><text fill="rgb(68,68,68)" stroke="none" font-family="helvetica" font-size="13px" font-style="italic" font-weight="normal" text-decoration="normal" x="0" y="0" text-anchor="middle" dominant-baseline="hanging" transform="matrix(1, 0, 0, 1, 687.5, 784.5)" fill-opacity="1">Relative PaQa level</text><path fill="none" stroke="rgb(0,0,0)" paint-order="fill" d="M 203.5 755.5 L 203.5 28.5" stroke-opacity="1" stroke-linejoin="bevel" stroke-miterlimit="10" stroke-dasharray=""/><path fill="none" stroke="rgb(0,0,0)" paint-order="fill" d="M 197.5 732.5 L 205.5 732.5 M 197.5 687.5 L 205.5 687.5 M 197.5 641.5 L 205.5 641.5 M 197.5 596.5 L 205.5 596.5 M 197.5 551.5 L 205.5 551.5 M 197.5 505.5 L 205.5 505.5 M 197.5 460.5 L 205.5 460.5 M 197.5 414.5 L 205.5 414.5 M 197.5 369.5 L 205.5 369.5 M 197.5 323.5 L 205.5 323.5 M 197.5 278.5 L 205.5 278.5 M 197.5 232.5 L 205.5 232.5 M 197.5 187.5 L 205.5 187.5 M 197.5 142.5 L 205.5 142.5 M 197.5 96.5 L 205.5 96.5 M 197.5 51.5 L 205.5 51.5" stroke-opacity="1" stroke-linejoin="bevel" stroke-miterlimit="10" stroke-dasharray=""/><text fill="rgb(68,68,68)" stroke="none" font-family="helvetica" font-size="9pt" font-style="normal" font-weight="normal" text-decoration="normal" x="0" y="0" text-anchor="end" dominant-baseline="central" transform="matrix(1, 0, 0, 1, 192.5, 732.5)" fill-opacity="1">ΔpilTfliC_vortex Liquid</text><text fill="rgb(68,68,68)" stroke="none" font-family="helvetica" font-size="9pt" font-style="normal" font-weight="normal" text-decoration="normal" x="0" y="0" text-anchor="end" dominant-baseline="central" transform="matrix(1, 0, 0, 1, 192.5, 687.5)" fill-opacity="1">ΔpilTfliC_pilA_T8V_vortex Liquid</text><text fill="rgb(68,68,68)" stroke="none" font-family="helvetica" font-size="9pt" font-style="normal" font-weight="normal" text-decoration="normal" x="0" y="0" text-anchor="end" dominant-baseline="central" transform="matrix(1, 0, 0, 1, 192.5, 641.5)" fill-opacity="1">ΔpilTfliC_pilA_T8V_incu Liquid</text><text fill="rgb(68,68,68)" stroke="none" font-family="helvetica" font-size="9pt" font-style="normal" font-weight="normal" text-decoration="normal" x="0" y="0" text-anchor="end" dominant-baseline="central" transform="matrix(1, 0, 0, 1, 192.5, 596.5)" fill-opacity="1">ΔpilTfliC_incu Liquid</text><text fill="rgb(68,68,68)" stroke="none" font-family="helvetica" font-size="9pt" font-style="normal" font-weight="normal" text-decoration="normal" x="0" y="0" text-anchor="end" dominant-baseline="central" transform="matrix(1, 0, 0, 1, 192.5, 551.5)" fill-opacity="1">ΔpilJcpdAfliC_vortex Liquid</text><text fill="rgb(68,68,68)" stroke="none" font-family="helvetica" font-size="9pt" font-style="normal" font-weight="normal" text-decoration="normal" x="0" y="0" text-anchor="end" dominant-baseline="central" transform="matrix(1, 0, 0, 1, 192.5, 505.5)" fill-opacity="1">ΔpilJcpdAfliC_incu Liquid</text><text fill="rgb(68,68,68)" stroke="none" font-family="helvetica" font-size="9pt" font-style="normal" font-weight="normal" text-decoration="normal" x="0" y="0" text-anchor="end" dominant-baseline="central" transform="matrix(1, 0, 0, 1, 192.5, 460.5)" fill-opacity="1">ΔpilAfliC_vortex Liquid</text><text fill="rgb(68,68,68)" stroke="none" font-family="helvetica" font-size="9pt" font-style="normal" font-weight="normal" text-decoration="normal" x="0" y="0" text-anchor="end" dominant-baseline="central" transform="matrix(1, 0, 0, 1, 192.5, 414.5)" fill-opacity="1">ΔpilAfliC_incu Liquid</text><text fill="rgb(68,68,68)" stroke="none" font-family="helvetica" font-size="9pt" font-style="normal" font-weight="normal" text-decoration="normal" x="0" y="0" text-anchor="end" dominant-baseline="central" transform="matrix(1, 0, 0, 1, 192.5, 369.5)" fill-opacity="1">ΔfliC_pilA_T8V_vortex Liquid</text><text fill="rgb(68,68,68)" stroke="none" font-family="helvetica" font-size="9pt" font-style="normal" font-weight="normal" text-decoration="normal" x="0" y="0" text-anchor="end" dominant-baseline="central" transform="matrix(1, 0, 0, 1, 192.5, 323.5)" fill-opacity="1">ΔfliC_pilA_T8V_incu Liquid</text><text fill="rgb(68,68,68)" stroke="none" font-family="helvetica" font-size="9pt" font-style="normal" font-weight="normal" text-decoration="normal" x="0" y="0" text-anchor="end" dominant-baseline="central" transform="matrix(1, 0, 0, 1, 192.5, 278.5)" fill-opacity="1">ΔfliC3_vortex Liquid</text><text fill="rgb(68,68,68)" stroke="none" font-family="helvetica" font-size="9pt" font-style="normal" font-weight="normal" text-decoration="normal" x="0" y="0" text-anchor="end" dominant-baseline="central" transform="matrix(1, 0, 0, 1, 192.5, 232.5)" fill-opacity="1">ΔfliC2_vortex Liquid</text><text fill="rgb(68,68,68)" stroke="none" font-family="helvetica" font-size="9pt" font-style="normal" font-weight="normal" text-decoration="normal" x="0" y="0" text-anchor="end" dominant-baseline="central" transform="matrix(1, 0, 0, 1, 192.5, 187.5)" fill-opacity="1">ΔfliC_vortex Liquid</text><text fill="rgb(68,68,68)" stroke="none" font-family="helvetica" font-size="9pt" font-style="normal" font-weight="normal" text-decoration="normal" x="0" y="0" text-anchor="end" dominant-baseline="central" transform="matrix(1, 0, 0, 1, 192.5, 142.5)" fill-opacity="1">ΔfliC3_incu Liquid</text><text fill="rgb(68,68,68)" stroke="none" font-family="helvetica" font-size="9pt" font-style="normal" font-weight="normal" text-decoration="normal" x="0" y="0" text-anchor="end" dominant-baseline="central" transform="matrix(1, 0, 0, 1, 192.5, 96.5)" fill-opacity="1">ΔfliC2_incu Liquid</text><text fill="rgb(68,68,68)" stroke="none" font-family="helvetica" font-size="9pt" font-style="normal" font-weight="normal" text-decoration="normal" x="0" y="0" text-anchor="end" dominant-baseline="central" transform="matrix(1, 0, 0, 1, 192.5, 51.5)" fill-opacity="1">ΔfliC_incu Liquid</text><path fill="rgb(255,255,255)" stroke="rgb(229,229,229)" paint-order="fill" d="M 1002.7783203125 38.5 L 1160.5 38.5 L 1160.5 124.5 L 1002.7783203125 124.5 L 1002.7783203125 38.5" fill-opacity="0.95" clip-path="url(#pMGbAlFKVvpL)" stroke-opacity="0.5" stroke-linejoin="bevel" stroke-miterlimit="10" stroke-dasharray=""/><text fill="rgb(68,68,68)" stroke="none" font-family="helvetica" font-size="13px" font-style="normal" font-weight="normal" text-decoration="normal" x="1037.2783203125" y="58" text-anchor="start" dominant-baseline="central" transform="matrix(1, 0, 0, 1, 0.5, 0.5)" fill-opacity="1">mean</text><path fill="none" stroke="rgb(0,0,0)" paint-order="fill" d="M 1012.7783203125 58.5 L 1032.7783203125 58.5" stroke-opacity="1" stroke-linejoin="bevel" stroke-miterlimit="10" stroke-width="3" stroke-dasharray="" clip-path="url(#pMGbAlFKVvpL)"/><text fill="rgb(68,68,68)" stroke="none" font-family="helvetica" font-size="13px" font-style="normal" font-weight="normal" text-decoration="normal" x="1037.2783203125" y="81" text-anchor="start" dominant-baseline="central" transform="matrix(1, 0, 0, 1, 0.5, 0.5)" fill-opacity="1">means of replicates</text><path fill="rgb(255,127,14)" stroke="rgb(0,0,0)" paint-order="fill" d="M 1026.7783203125 81.5 A 4 4 0 1 1 1026.7783183125002 81.49600000066667" fill-opacity="1" clip-path="url(#pMGbAlFKVvpL)" stroke-opacity="1" stroke-linejoin="bevel" stroke-miterlimit="10" stroke-dasharray=""/><path fill="rgb(255,187,120)" stroke="rgb(0,0,0)" paint-order="fill" d="M 1026.7783203125 81.5 A 4 4 0 1 1 1026.7783183125002 81.49600000066667" fill-opacity="1" clip-path="url(#pMGbAlFKVvpL)" stroke-opacity="1" stroke-linejoin="bevel" stroke-miterlimit="10" stroke-dasharray=""/><path fill="rgb(44,160,44)" stroke="rgb(0,0,0)" paint-order="fill" d="M 1026.7783203125 81.5 A 4 4 0 1 1 1026.7783183125002 81.49600000066667" fill-opacity="1" clip-path="url(#pMGbAlFKVvpL)" stroke-opacity="1" stroke-linejoin="bevel" stroke-miterlimit="10" stroke-dasharray=""/><path fill="rgb(152,223,138)" stroke="rgb(0,0,0)" paint-order="fill" d="M 1026.7783203125 81.5 A 4 4 0 1 1 1026.7783183125002 81.49600000066667" fill-opacity="1" clip-path="url(#pMGbAlFKVvpL)" stroke-opacity="1" stroke-linejoin="bevel" stroke-miterlimit="10" stroke-dasharray=""/><path fill="rgb(214,39,40)" stroke="rgb(0,0,0)" paint-order="fill" d="M 1026.7783203125 81.5 A 4 4 0 1 1 1026.7783183125002 81.49600000066667" fill-opacity="1" clip-path="url(#pMGbAlFKVvpL)" stroke-opacity="1" stroke-linejoin="bevel" stroke-miterlimit="10" stroke-dasharray=""/><path fill="rgb(255,152,150)" stroke="rgb(0,0,0)" paint-order="fill" d="M 1026.7783203125 81.5 A 4 4 0 1 1 1026.7783183125002 81.49600000066667" fill-opacity="1" clip-path="url(#pMGbAlFKVvpL)" stroke-opacity="1" stroke-linejoin="bevel" stroke-miterlimit="10" stroke-dasharray=""/><path fill="rgb(148,103,189)" stroke="rgb(0,0,0)" paint-order="fill" d="M 1026.7783203125 81.5 A 4 4 0 1 1 1026.7783183125002 81.49600000066667" fill-opacity="1" clip-path="url(#pMGbAlFKVvpL)" stroke-opacity="1" stroke-linejoin="bevel" stroke-miterlimit="10" stroke-dasharray=""/><path fill="rgb(197,176,213)" stroke="rgb(0,0,0)" paint-order="fill" d="M 1026.7783203125 81.5 A 4 4 0 1 1 1026.7783183125002 81.49600000066667" fill-opacity="1" clip-path="url(#pMGbAlFKVvpL)" stroke-opacity="1" stroke-linejoin="bevel" stroke-miterlimit="10" stroke-dasharray=""/><path fill="rgb(140,86,75)" stroke="rgb(0,0,0)" paint-order="fill" d="M 1026.7783203125 81.5 A 4 4 0 1 1 1026.7783183125002 81.49600000066667" fill-opacity="1" clip-path="url(#pMGbAlFKVvpL)" stroke-opacity="1" stroke-linejoin="bevel" stroke-miterlimit="10" stroke-dasharray=""/><path fill="rgb(196,156,148)" stroke="rgb(0,0,0)" paint-order="fill" d="M 1026.7783203125 81.5 A 4 4 0 1 1 1026.7783183125002 81.49600000066667" fill-opacity="1" clip-path="url(#pMGbAlFKVvpL)" stroke-opacity="1" stroke-linejoin="bevel" stroke-miterlimit="10" stroke-dasharray=""/><path fill="rgb(227,119,194)" stroke="rgb(0,0,0)" paint-order="fill" d="M 1026.7783203125 81.5 A 4 4 0 1 1 1026.7783183125002 81.49600000066667" fill-opacity="1" clip-path="url(#pMGbAlFKVvpL)" stroke-opacity="1" stroke-linejoin="bevel" stroke-miterlimit="10" stroke-dasharray=""/><path fill="rgb(247,182,210)" stroke="rgb(0,0,0)" paint-order="fill" d="M 1026.7783203125 81.5 A 4 4 0 1 1 1026.7783183125002 81.49600000066667" fill-opacity="1" clip-path="url(#pMGbAlFKVvpL)" stroke-opacity="1" stroke-linejoin="bevel" stroke-miterlimit="10" stroke-dasharray=""/><path fill="rgb(127,127,127)" stroke="rgb(0,0,0)" paint-order="fill" d="M 1026.7783203125 81.5 A 4 4 0 1 1 1026.7783183125002 81.49600000066667" fill-opacity="1" clip-path="url(#pMGbAlFKVvpL)" stroke-opacity="1" stroke-linejoin="bevel" stroke-miterlimit="10" stroke-dasharray=""/><path fill="rgb(199,199,199)" stroke="rgb(0,0,0)" paint-order="fill" d="M 1026.7783203125 81.5 A 4 4 0 1 1 1026.7783183125002 81.49600000066667" fill-opacity="1" clip-path="url(#pMGbAlFKVvpL)" stroke-opacity="1" stroke-linejoin="bevel" stroke-miterlimit="10" stroke-dasharray=""/><path fill="rgb(188,189,34)" stroke="rgb(0,0,0)" paint-order="fill" d="M 1026.7783203125 81.5 A 4 4 0 1 1 1026.7783183125002 81.49600000066667" fill-opacity="1" clip-path="url(#pMGbAlFKVvpL)" stroke-opacity="1" stroke-linejoin="bevel" stroke-miterlimit="10" stroke-dasharray=""/><text fill="rgb(68,68,68)" stroke="none" font-family="helvetica" font-size="13px" font-style="normal" font-weight="normal" text-decoration="normal" x="1037.2783203125" y="104" text-anchor="start" dominant-baseline="central" transform="matrix(1, 0, 0, 1, 0.5, 0.5)" fill-opacity="1">Reference</text><path fill="none" stroke="rgb(0,0,0)" paint-order="fill" d="M 1012.7783203125 104.5 L 1032.7783203125 104.5" stroke-opacity="1" stroke-linejoin="bevel" stroke-miterlimit="10" stroke-dasharray="2,4" clip-path="url(#pMGbAlFKVvpL)"/><path fill="none" stroke="none"/><text fill="rgb(68,68,68)" stroke="none" font-family="helvetica" font-size="13px" font-style="normal" font-weight="bold" text-decoration="normal" x="0" y="0" text-anchor="start" dominant-baseline="text-after-edge" transform="matrix(1, 0, 0, 1, 203.5, 23.5)" fill-opacity="1"> PaQa_ratio on Liquid vs. Solid in linear scale</text></svg>