<svg version="1.1" xmlns="http://www.w3.org/2000/svg" xmlns:xlink="http://www.w3.org/1999/xlink" width="1200" height="800"><defs><clipPath id="AgrDqtTdGmqe"><path fill="none" stroke="none" d="M 203.5 28.5 L 1170.5 28.5 L 1170.5 755.5 L 203.5 755.5 L 203.5 28.5"/></clipPath><clipPath id="zcqZLpuTSszJ"><path fill="none" stroke="none" d="M 203.5 28.5 L 1170.5 28.5 L 1170.5 755.5 L 203.5 755.5 L 203.5 28.5"/></clipPath><clipPath id="sCZeEfwcsdQg"><path fill="none" stroke="none" d="M 203.5 28.5 L 1170.5 28.5 L 1170.5 755.5 L 203.5 755.5 L 203.5 28.5"/></clipPath><clipPath id="JRZPJAArVAgT"><path fill="none" stroke="none" d="M 203.5 28.5 L 1170.5 28.5 L 1170.5 755.5 L 203.5 755.5 L 203.5 28.5"/></clipPath><clipPath id="EVIgnGiiXrQn"><path fill="none" stroke="none" d="M 203.5 28.5 L 1170.5 28.5 L 1170.5 755.5 L 203.5 755.5 L 203.5 28.5"/></clipPath><clipPath id="fbpaIqxgVrPR"><path fill="none" stroke="none" d="M 203.5 28.5 L 1170.5 28.5 L 1170.5 755.5 L 203.5 755.5 L 203.5 28.5"/></clipPath><clipPath id="MKyNpseSTBaH"><path fill="none" stroke="none" d="M 203.5 28.5 L 1170.5 28.5 L 1170.5 755.5 L 203.5 755.5 L 203.5 28.5"/></clipPath><clipPath id="EBITLReecLnm"><path fill="none" stroke="none" d="M 203.5 28.5 L 1170.5 28.5 L 1170.5 755.5 L 203.5 755.5 L 203.5 28.5"/></clipPath><clipPath id="MouvgaIrNKPb"><path fill="none" stroke="none" d="M 203.5 28.5 L 1170.5 28.5 L 1170.5 755.5 L 203.5 755.5 L 203.5 28.5"/></clipPath><clipPath id="KhPIaabaXumQ"><path fill="none" stroke="none" d="M 203.5 28.5 L 1170.5 28.5 L 1170.5 755.5 L 203.5 755.5 L 203.5 28.5"/></clipPath><clipPath id="rOqNCimGViic"><path fill="none" stroke="none" d="M 203.5 28.5 L 1170.5 28.5 L 1170.5 755.5 L 203.5 755.5 L 203.5 28.5"/></clipPath><clipPath id="yTVLlaELNIIU"><path fill="none" stroke="none" d="M 203.5 28.5 L 1170.5 28.5 L 1170.5 755.5 L 203.5 755.5 L 203.5 28.5"/></clipPath><clipPath id="kJUEWaHyhbIh"><path fill="none" stroke="none" d="M 203.5 28.5 L 1170.5 28.5 L 1170.5 755.5 L 203.5 755.5 L 203.5 28.5"/></clipPath><clipPath id="QHUeQvHJmuAO"><path fill="none" stroke="none" d="M 203.5 28.5 L 1170.5 28.5 L 1170.5 755.5 L 203.5 755.5 L 203.5 28.5"/></clipPath><clipPath id="ItKPKtVHupuJ"><path fill="none" stroke="none" d="M 203.5 28.5 L 1170.5 28.5 L 1170.5 755.5 L 203.5 755.5 L 203.5 28.5"/></clipPath><clipPath id="rwDoUqcGbsGu"><path fill="none" stroke="none" d="M 203.5 28.5 L 1170.5 28.5 L 1170.5 755.5 L 203.5 755.5 L 203.5 28.5"/></clipPath><clipPath id="CtASaihgRnkC"><path fill="none" stroke="none" d="M 203.5 28.5 L 1170.5 28.5 L 1170.5 755.5 L 203.5 755.5 L 203.5 28.5"/></clipPath><clipPath id="qmdfgBKUfubI"><path fill="none" stroke="none" d="M 203.5 28.5 L 1170.5 28.5 L 1170.5 755.5 L 203.5 755.5 L 203.5 28.5"/></clipPath><clipPath id="QwaLPqKLkBTM"><path fill="none" stroke="none" d="M 203.5 28.5 L 1170.5 28.5 L 1170.5 755.5 L 203.5 755.5 L 203.5 28.5"/></clipPath><clipPath id="efHftTPlDXet"><path fill="none" stroke="none" d="M 203.5 28.5 L 1170.5 28.5 L 1170.5 755.5 L 203.5 755.5 L 203.5 28.5"/></clipPath><clipPath id="TGZFwIekbqex"><path fill="none" stroke="none" d="M 203.5 28.5 L 1170.5 28.5 L 1170.5 755.5 L 203.5 755.5 L 203.5 28.5"/></clipPath><clipPath id="GxETsLdCuwdW"><path fill="none" stroke="none" d="M 203.5 28.5 L 1170.5 28.5 L 1170.5 755.5 L 203.5 755.5 L 203.5 28.5"/></clipPath><clipPath id="VrnVqomswnic"><path fill="none" stroke="none" d="M 203.5 28.5 L 1170.5 28.5 L 1170.5 755.5 L 203.5 755.5 L 203.5 28.5"/></clipPath><clipPath id="uTlhloMUTBXo"><path fill="none" stroke="none" d="M 203.5 28.5 L 1170.5 28.5 L 1170.5 755.5 L 203.5 755.5 L 203.5 28.5"/></clipPath><clipPath id="WGKrgzuSpFVk"><path fill="none" stroke="none" d="M 203.5 28.5 L 1170.5 28.5 L 1170.5 755.5 L 203.5 755.5 L 203.5 28.5"/></clipPath><clipPath id="gEKxgHWwvVBe"><path fill="none" stroke="none" d="M 203.5 28.5 L 1170.5 28.5 L 1170.5 755.5 L 203.5 755.5 L 203.5 28.5"/></clipPath><clipPath id="HJazMdcMtVLM"><path fill="none" stroke="none" d="M 203.5 28.5 L 1170.5 28.5 L 1170.5 755.5 L 203.5 755.5 L 203.5 28.5"/></clipPath><clipPath id="rpvupXJnJCKv"><path fill="none" stroke="none" d="M 203.5 28.5 L 1170.5 28.5 L 1170.5 755.5 L 203.5 755.5 L 203.5 28.5"/></clipPath><clipPath id="nitRgvLrQBLr"><path fill="none" stroke="none" d="M 203.5 28.5 L 1170.5 28.5 L 1170.5 755.5 L 203.5 755.5 L 203.5 28.5"/></clipPath><clipPath id="zsQKpEKKmrRZ"><path fill="none" stroke="none" d="M 203.5 28.5 L 1170.5 28.5 L 1170.5 755.5 L 203.5 755.5 L 203.5 28.5"/></clipPath><clipPath id="oNkyfKLTAyTX"><path fill="none" stroke="none" d="M 203.5 28.5 L 1170.5 28.5 L 1170.5 755.5 L 203.5 755.5 L 203.5 28.5"/></clipPath><clipPath id="vlrGVWAwvMpa"><path fill="none" stroke="none" d="M 203.5 28.5 L 1170.5 28.5 L 1170.5 755.5 L 203.5 755.5 L 203.5 28.5"/></clipPath><clipPath id="SsdouIuGERdS"><path fill="none" stroke="none" d="M 203.5 28.5 L 1170.5 28.5 L 1170.5 755.5 L 203.5 755.5 L 203.5 28.5"/></clipPath><clipPath id="gtcrQTOGeUwK"><path fill="none" stroke="none" d="M 203.5 28.5 L 1170.5 28.5 L 1170.5 755.5 L 203.5 755.5 L 203.5 28.5"/></clipPath><clipPath id="nfnPnQiMbWiq"><path fill="none" stroke="none" d="M 203.5 28.5 L 1170.5 28.5 L 1170.5 755.5 L 203.5 755.5 L 203.5 28.5"/></clipPath><clipPath id="BCClrtrKktvU"><path fill="none" stroke="none" d="M 203.5 28.5 L 1170.5 28.5 L 1170.5 755.5 L 203.5 755.5 L 203.5 28.5"/></clipPath><clipPath id="JTqkZkVMGdlq"><path fill="none" stroke="none" d="M 203.5 28.5 L 1170.5 28.5 L 1170.5 755.5 L 203.5 755.5 L 203.5 28.5"/></clipPath><clipPath id="uvBxwRCMeJIA"><path fill="none" stroke="none" d="M 203.5 28.5 L 1170.5 28.5 L 1170.5 755.5 L 203.5 755.5 L 203.5 28.5"/></clipPath><clipPath id="AFLCmXWxgTfT"><path fill="none" stroke="none" d="M 203.5 28.5 L 1170.5 28.5 L 1170.5 755.5 L 203.5 755.5 L 203.5 28.5"/></clipPath></defs><path fill="rgb(255,255,255)" stroke="none" paint-order="stroke" d="M 0.5 0.5 L 1200.5 0.5 L 1200.5 800.5 L 0.5 800.5 L 0.5 0.5" fill-opacity="1"/><rect fill="#FFFFFF" stroke="none" x="203" y="28" width="967" height="727" transform="matrix(1, 0, 0, 1, 0.5, 0.5)"/><path fill="rgb(255,255,255)" stroke="none" paint-order="stroke" d="M 203.5 28.5 L 1170.5 28.5 L 1170.5 755.5 L 203.5 755.5 L 203.5 28.5" fill-opacity="1"/><path fill="none" stroke="rgb(229,229,229)" paint-order="fill" d="M 203.5 28.5 L 1170.5 28.5 L 1170.5 755.5 L 203.5 755.5 L 203.5 28.5" stroke-opacity="1" stroke-linejoin="bevel" stroke-miterlimit="10" stroke-dasharray=""/><path fill="none" stroke="none"/><path fill="rgb(31,119,180)" stroke="rgb(0,0,0)" paint-order="fill" d="M 287.5641784667969 58.79166793823242 A 5 5 0 1 1 287.5641759667971 58.78666793906575" fill-opacity="1" clip-path="url(#sCZeEfwcsdQg)" stroke-opacity="1" stroke-linejoin="bevel" stroke-miterlimit="10" stroke-dasharray=""/><path fill="rgb(31,119,180)" stroke="rgb(0,0,0)" paint-order="fill" d="M 277.9242858886719 58.79166793823242 A 5 5 0 1 1 277.9242833886721 58.78666793906575" fill-opacity="1" clip-path="url(#sCZeEfwcsdQg)" stroke-opacity="1" stroke-linejoin="bevel" stroke-miterlimit="10" stroke-dasharray=""/><path fill="rgb(31,119,180)" stroke="rgb(0,0,0)" paint-order="fill" d="M 289.18414306640625 58.79166793823242 A 5 5 0 1 1 289.1841405664065 58.78666793906575" fill-opacity="1" clip-path="url(#sCZeEfwcsdQg)" stroke-opacity="1" stroke-linejoin="bevel" stroke-miterlimit="10" stroke-dasharray=""/><path fill="rgb(31,119,180)" stroke="rgb(0,0,0)" paint-order="fill" d="M 269.2256774902344 58.79166793823242 A 5 5 0 1 1 269.2256749902346 58.78666793906575" fill-opacity="1" clip-path="url(#sCZeEfwcsdQg)" stroke-opacity="1" stroke-linejoin="bevel" stroke-miterlimit="10" stroke-dasharray=""/><path fill="rgb(31,119,180)" stroke="rgb(0,0,0)" paint-order="fill" d="M 259.8006896972656 58.79166793823242 A 5 5 0 1 1 259.80068719726586 58.78666793906575" fill-opacity="1" clip-path="url(#sCZeEfwcsdQg)" stroke-opacity="1" stroke-linejoin="bevel" stroke-miterlimit="10" stroke-dasharray=""/><path fill="rgb(31,119,180)" stroke="rgb(0,0,0)" paint-order="fill" d="M 272.3363037109375 58.79166793823242 A 5 5 0 1 1 272.33630121093773 58.78666793906575" fill-opacity="1" clip-path="url(#sCZeEfwcsdQg)" stroke-opacity="1" stroke-linejoin="bevel" stroke-miterlimit="10" stroke-dasharray=""/><path fill="rgb(31,119,180)" stroke="rgb(0,0,0)" paint-order="fill" d="M 285.4117736816406 58.79166793823242 A 5 5 0 1 1 285.41177118164086 58.78666793906575" fill-opacity="1" clip-path="url(#sCZeEfwcsdQg)" stroke-opacity="1" stroke-linejoin="bevel" stroke-miterlimit="10" stroke-dasharray=""/><path fill="rgb(31,119,180)" stroke="rgb(0,0,0)" paint-order="fill" d="M 245.42005920410156 58.79166793823242 A 5 5 0 1 1 245.42005670410177 58.78666793906575" fill-opacity="1" clip-path="url(#sCZeEfwcsdQg)" stroke-opacity="1" stroke-linejoin="bevel" stroke-miterlimit="10" stroke-dasharray=""/><path fill="rgb(31,119,180)" stroke="rgb(0,0,0)" paint-order="fill" d="M 269.8329162597656 58.79166793823242 A 5 5 0 1 1 269.83291375976586 58.78666793906575" fill-opacity="1" clip-path="url(#sCZeEfwcsdQg)" stroke-opacity="1" stroke-linejoin="bevel" stroke-miterlimit="10" stroke-dasharray=""/><path fill="none" stroke="none"/><path fill="none" stroke="rgb(0,0,0)" paint-order="fill" d="M 267.9666748046875 70.9083251953125 L 267.9666748046875 46.675010681152344" stroke-opacity="1" stroke-linejoin="bevel" stroke-miterlimit="10" stroke-width="3" stroke-dasharray="" clip-path="url(#JRZPJAArVAgT)"/><path fill="none" stroke="none"/><path fill="none" stroke="none"/><path fill="none" stroke="rgb(0,0,0)" paint-order="fill" d="" stroke-opacity="1" stroke-linejoin="bevel" stroke-miterlimit="10" stroke-width="3" stroke-dasharray="" clip-path="url(#fbpaIqxgVrPR)"/><path fill="none" stroke="none"/><path fill="none" stroke="none"/><path fill="none" stroke="none"/><path fill="none" stroke="rgb(0,0,0)" paint-order="fill" d="" stroke-opacity="1" stroke-linejoin="bevel" stroke-miterlimit="10" stroke-width="3" stroke-dasharray="" clip-path="url(#EBITLReecLnm)"/><path fill="none" stroke="none"/><path fill="none" stroke="none"/><path fill="none" stroke="none"/><path fill="none" stroke="rgb(0,0,0)" paint-order="fill" d="" stroke-opacity="1" stroke-linejoin="bevel" stroke-miterlimit="10" stroke-width="3" stroke-dasharray="" clip-path="url(#KhPIaabaXumQ)"/><path fill="none" stroke="none"/><path fill="none" stroke="none"/><path fill="rgb(44,160,44)" stroke="rgb(0,0,0)" paint-order="fill" d="M 254.01780700683594 119.375 A 5 5 0 1 1 254.01780450683614 119.37000000083333" fill-opacity="1" clip-path="url(#rOqNCimGViic)" stroke-opacity="1" stroke-linejoin="bevel" stroke-miterlimit="10" stroke-dasharray=""/><path fill="rgb(44,160,44)" stroke="rgb(0,0,0)" paint-order="fill" d="M 248.8759765625 119.375 A 5 5 0 1 1 248.8759740625002 119.37000000083333" fill-opacity="1" clip-path="url(#rOqNCimGViic)" stroke-opacity="1" stroke-linejoin="bevel" stroke-miterlimit="10" stroke-dasharray=""/><path fill="rgb(44,160,44)" stroke="rgb(0,0,0)" paint-order="fill" d="M 264.1452941894531 119.375 A 5 5 0 1 1 264.14529168945336 119.37000000083333" fill-opacity="1" clip-path="url(#rOqNCimGViic)" stroke-opacity="1" stroke-linejoin="bevel" stroke-miterlimit="10" stroke-dasharray=""/><path fill="rgb(44,160,44)" stroke="rgb(0,0,0)" paint-order="fill" d="M 244.33204650878906 119.375 A 5 5 0 1 1 244.33204400878927 119.37000000083333" fill-opacity="1" clip-path="url(#rOqNCimGViic)" stroke-opacity="1" stroke-linejoin="bevel" stroke-miterlimit="10" stroke-dasharray=""/><path fill="rgb(44,160,44)" stroke="rgb(0,0,0)" paint-order="fill" d="M 245.694580078125 119.375 A 5 5 0 1 1 245.6945775781252 119.37000000083333" fill-opacity="1" clip-path="url(#rOqNCimGViic)" stroke-opacity="1" stroke-linejoin="bevel" stroke-miterlimit="10" stroke-dasharray=""/><path fill="rgb(44,160,44)" stroke="rgb(0,0,0)" paint-order="fill" d="M 278.95269775390625 119.375 A 5 5 0 1 1 278.9526952539065 119.37000000083333" fill-opacity="1" clip-path="url(#rOqNCimGViic)" stroke-opacity="1" stroke-linejoin="bevel" stroke-miterlimit="10" stroke-dasharray=""/><path fill="rgb(44,160,44)" stroke="rgb(0,0,0)" paint-order="fill" d="M 248.0085906982422 119.375 A 5 5 0 1 1 248.0085881982424 119.37000000083333" fill-opacity="1" clip-path="url(#rOqNCimGViic)" stroke-opacity="1" stroke-linejoin="bevel" stroke-miterlimit="10" stroke-dasharray=""/><path fill="rgb(44,160,44)" stroke="rgb(0,0,0)" paint-order="fill" d="M 260.6727294921875 119.375 A 5 5 0 1 1 260.67272699218773 119.37000000083333" fill-opacity="1" clip-path="url(#rOqNCimGViic)" stroke-opacity="1" stroke-linejoin="bevel" stroke-miterlimit="10" stroke-dasharray=""/><path fill="rgb(44,160,44)" stroke="rgb(0,0,0)" paint-order="fill" d="M 247.03358459472656 119.375 A 5 5 0 1 1 247.03358209472677 119.37000000083333" fill-opacity="1" clip-path="url(#rOqNCimGViic)" stroke-opacity="1" stroke-linejoin="bevel" stroke-miterlimit="10" stroke-dasharray=""/><path fill="none" stroke="none"/><path fill="none" stroke="rgb(0,0,0)" paint-order="fill" d="M 249.6370391845703 131.4916534423828 L 249.6370391845703 107.25834655761719" stroke-opacity="1" stroke-linejoin="bevel" stroke-miterlimit="10" stroke-width="3" stroke-dasharray="" clip-path="url(#yTVLlaELNIIU)"/><path fill="none" stroke="none"/><path fill="none" stroke="none"/><path fill="none" stroke="rgb(0,0,0)" paint-order="fill" d="" stroke-opacity="1" stroke-linejoin="bevel" stroke-miterlimit="10" stroke-width="3" stroke-dasharray="" clip-path="url(#QHUeQvHJmuAO)"/><path fill="none" stroke="none"/><path fill="none" stroke="none"/><path fill="none" stroke="none"/><path fill="none" stroke="rgb(0,0,0)" paint-order="fill" d="" stroke-opacity="1" stroke-linejoin="bevel" stroke-miterlimit="10" stroke-width="3" stroke-dasharray="" clip-path="url(#rwDoUqcGbsGu)"/><path fill="none" stroke="none"/><path fill="none" stroke="none"/><path fill="rgb(255,152,150)" stroke="rgb(0,0,0)" paint-order="fill" d="M 382.95538330078125 179.9583282470703 A 5 5 0 1 1 382.9553808007815 179.95332824790364" fill-opacity="1" clip-path="url(#CtASaihgRnkC)" stroke-opacity="1" stroke-linejoin="bevel" stroke-miterlimit="10" stroke-dasharray=""/><path fill="rgb(255,152,150)" stroke="rgb(0,0,0)" paint-order="fill" d="M 359.94500732421875 179.9583282470703 A 5 5 0 1 1 359.945004824219 179.95332824790364" fill-opacity="1" clip-path="url(#CtASaihgRnkC)" stroke-opacity="1" stroke-linejoin="bevel" stroke-miterlimit="10" stroke-dasharray=""/><path fill="rgb(255,152,150)" stroke="rgb(0,0,0)" paint-order="fill" d="M 355.8457336425781 179.9583282470703 A 5 5 0 1 1 355.84573114257836 179.95332824790364" fill-opacity="1" clip-path="url(#CtASaihgRnkC)" stroke-opacity="1" stroke-linejoin="bevel" stroke-miterlimit="10" stroke-dasharray=""/><path fill="none" stroke="none"/><path fill="none" stroke="rgb(0,0,0)" paint-order="fill" d="M 361.24871826171875 192.07498168945312 L 361.24871826171875 167.8416748046875" stroke-opacity="1" stroke-linejoin="bevel" stroke-miterlimit="10" stroke-width="3" stroke-dasharray="" clip-path="url(#qmdfgBKUfubI)"/><path fill="none" stroke="none"/><path fill="rgb(148,103,189)" stroke="rgb(0,0,0)" paint-order="fill" d="M 290.94537353515625 240.5416717529297 A 5 5 0 1 1 290.9453710351565 240.53667175376302" fill-opacity="1" clip-path="url(#QwaLPqKLkBTM)" stroke-opacity="1" stroke-linejoin="bevel" stroke-miterlimit="10" stroke-dasharray=""/><path fill="rgb(148,103,189)" stroke="rgb(0,0,0)" paint-order="fill" d="M 338.28656005859375 240.5416717529297 A 5 5 0 1 1 338.286557558594 240.53667175376302" fill-opacity="1" clip-path="url(#QwaLPqKLkBTM)" stroke-opacity="1" stroke-linejoin="bevel" stroke-miterlimit="10" stroke-dasharray=""/><path fill="rgb(148,103,189)" stroke="rgb(0,0,0)" paint-order="fill" d="M 356.4921569824219 240.5416717529297 A 5 5 0 1 1 356.4921544824221 240.53667175376302" fill-opacity="1" clip-path="url(#QwaLPqKLkBTM)" stroke-opacity="1" stroke-linejoin="bevel" stroke-miterlimit="10" stroke-dasharray=""/><path fill="none" stroke="none"/><path fill="none" stroke="rgb(0,0,0)" paint-order="fill" d="M 323.57470703125 252.6583251953125 L 323.57470703125 228.42501831054688" stroke-opacity="1" stroke-linejoin="bevel" stroke-miterlimit="10" stroke-width="3" stroke-dasharray="" clip-path="url(#efHftTPlDXet)"/><path fill="none" stroke="none"/><path fill="rgb(197,176,213)" stroke="rgb(0,0,0)" paint-order="fill" d="M 235.82666015625 301.125 A 5 5 0 1 1 235.8266576562502 301.12000000083333" fill-opacity="1" clip-path="url(#TGZFwIekbqex)" stroke-opacity="1" stroke-linejoin="bevel" stroke-miterlimit="10" stroke-dasharray=""/><path fill="rgb(197,176,213)" stroke="rgb(0,0,0)" paint-order="fill" d="M 239.18374633789062 301.125 A 5 5 0 1 1 239.18374383789083 301.12000000083333" fill-opacity="1" clip-path="url(#TGZFwIekbqex)" stroke-opacity="1" stroke-linejoin="bevel" stroke-miterlimit="10" stroke-dasharray=""/><path fill="rgb(197,176,213)" stroke="rgb(0,0,0)" paint-order="fill" d="M 237.32797241210938 301.125 A 5 5 0 1 1 237.32796991210958 301.12000000083333" fill-opacity="1" clip-path="url(#TGZFwIekbqex)" stroke-opacity="1" stroke-linejoin="bevel" stroke-miterlimit="10" stroke-dasharray=""/><path fill="none" stroke="none"/><path fill="none" stroke="rgb(0,0,0)" paint-order="fill" d="M 232.4461212158203 313.2416687011719 L 232.4461212158203 289.0083312988281" stroke-opacity="1" stroke-linejoin="bevel" stroke-miterlimit="10" stroke-width="3" stroke-dasharray="" clip-path="url(#GxETsLdCuwdW)"/><path fill="none" stroke="none"/><path fill="rgb(140,86,75)" stroke="rgb(0,0,0)" paint-order="fill" d="M 231.4805908203125 361.7083435058594 A 5 5 0 1 1 231.4805883203127 361.7033435066927" fill-opacity="1" clip-path="url(#VrnVqomswnic)" stroke-opacity="1" stroke-linejoin="bevel" stroke-miterlimit="10" stroke-dasharray=""/><path fill="rgb(140,86,75)" stroke="rgb(0,0,0)" paint-order="fill" d="M 231.10922241210938 361.7083435058594 A 5 5 0 1 1 231.10921991210958 361.7033435066927" fill-opacity="1" clip-path="url(#VrnVqomswnic)" stroke-opacity="1" stroke-linejoin="bevel" stroke-miterlimit="10" stroke-dasharray=""/><path fill="rgb(140,86,75)" stroke="rgb(0,0,0)" paint-order="fill" d="M 235.58473205566406 361.7083435058594 A 5 5 0 1 1 235.58472955566427 361.7033435066927" fill-opacity="1" clip-path="url(#VrnVqomswnic)" stroke-opacity="1" stroke-linejoin="bevel" stroke-miterlimit="10" stroke-dasharray=""/><path fill="none" stroke="none"/><path fill="none" stroke="rgb(0,0,0)" paint-order="fill" d="M 227.724853515625 373.8249816894531 L 227.724853515625 349.5916748046875" stroke-opacity="1" stroke-linejoin="bevel" stroke-miterlimit="10" stroke-width="3" stroke-dasharray="" clip-path="url(#uTlhloMUTBXo)"/><path fill="none" stroke="none"/><path fill="rgb(196,156,148)" stroke="rgb(0,0,0)" paint-order="fill" d="M 706.8436889648438 422.2916564941406 A 5 5 0 1 1 706.8436864648439 422.28665649497395" fill-opacity="1" clip-path="url(#WGKrgzuSpFVk)" stroke-opacity="1" stroke-linejoin="bevel" stroke-miterlimit="10" stroke-dasharray=""/><path fill="rgb(196,156,148)" stroke="rgb(0,0,0)" paint-order="fill" d="M 802.9879150390625 422.2916564941406 A 5 5 0 1 1 802.9879125390627 422.28665649497395" fill-opacity="1" clip-path="url(#WGKrgzuSpFVk)" stroke-opacity="1" stroke-linejoin="bevel" stroke-miterlimit="10" stroke-dasharray=""/><path fill="rgb(196,156,148)" stroke="rgb(0,0,0)" paint-order="fill" d="M 842.2626953125 422.2916564941406 A 5 5 0 1 1 842.2626928125002 422.28665649497395" fill-opacity="1" clip-path="url(#WGKrgzuSpFVk)" stroke-opacity="1" stroke-linejoin="bevel" stroke-miterlimit="10" stroke-dasharray=""/><path fill="none" stroke="none"/><path fill="none" stroke="rgb(0,0,0)" paint-order="fill" d="M 779.0314331054688 434.4083251953125 L 779.0314331054688 410.1750183105469" stroke-opacity="1" stroke-linejoin="bevel" stroke-miterlimit="10" stroke-width="3" stroke-dasharray="" clip-path="url(#gEKxgHWwvVBe)"/><path fill="none" stroke="none"/><path fill="rgb(227,119,194)" stroke="rgb(0,0,0)" paint-order="fill" d="M 678.9157104492188 482.875 A 5 5 0 1 1 678.9157079492189 482.87000000083333" fill-opacity="1" clip-path="url(#HJazMdcMtVLM)" stroke-opacity="1" stroke-linejoin="bevel" stroke-miterlimit="10" stroke-dasharray=""/><path fill="rgb(227,119,194)" stroke="rgb(0,0,0)" paint-order="fill" d="M 647.3603515625 482.875 A 5 5 0 1 1 647.3603490625002 482.87000000083333" fill-opacity="1" clip-path="url(#HJazMdcMtVLM)" stroke-opacity="1" stroke-linejoin="bevel" stroke-miterlimit="10" stroke-dasharray=""/><path fill="rgb(227,119,194)" stroke="rgb(0,0,0)" paint-order="fill" d="M 663.0736694335938 482.875 A 5 5 0 1 1 663.0736669335939 482.87000000083333" fill-opacity="1" clip-path="url(#HJazMdcMtVLM)" stroke-opacity="1" stroke-linejoin="bevel" stroke-miterlimit="10" stroke-dasharray=""/><path fill="none" stroke="none"/><path fill="none" stroke="rgb(0,0,0)" paint-order="fill" d="M 658.1165771484375 494.9916687011719 L 658.1165771484375 470.7583312988281" stroke-opacity="1" stroke-linejoin="bevel" stroke-miterlimit="10" stroke-width="3" stroke-dasharray="" clip-path="url(#rpvupXJnJCKv)"/><path fill="none" stroke="none"/><path fill="rgb(247,182,210)" stroke="rgb(0,0,0)" paint-order="fill" d="M 254.25526428222656 543.4583129882812 A 5 5 0 1 1 254.25526178222677 543.4533129891146" fill-opacity="1" clip-path="url(#nitRgvLrQBLr)" stroke-opacity="1" stroke-linejoin="bevel" stroke-miterlimit="10" stroke-dasharray=""/><path fill="rgb(247,182,210)" stroke="rgb(0,0,0)" paint-order="fill" d="M 248.69061279296875 543.4583129882812 A 5 5 0 1 1 248.69061029296896 543.4533129891146" fill-opacity="1" clip-path="url(#nitRgvLrQBLr)" stroke-opacity="1" stroke-linejoin="bevel" stroke-miterlimit="10" stroke-dasharray=""/><path fill="rgb(247,182,210)" stroke="rgb(0,0,0)" paint-order="fill" d="M 248.9165496826172 543.4583129882812 A 5 5 0 1 1 248.9165471826174 543.4533129891146" fill-opacity="1" clip-path="url(#nitRgvLrQBLr)" stroke-opacity="1" stroke-linejoin="bevel" stroke-miterlimit="10" stroke-dasharray=""/><path fill="none" stroke="none"/><path fill="none" stroke="rgb(0,0,0)" paint-order="fill" d="M 245.6208038330078 555.5750122070312 L 245.6208038330078 531.3416748046875" stroke-opacity="1" stroke-linejoin="bevel" stroke-miterlimit="10" stroke-width="3" stroke-dasharray="" clip-path="url(#zsQKpEKKmrRZ)"/><path fill="none" stroke="none"/><path fill="rgb(127,127,127)" stroke="rgb(0,0,0)" paint-order="fill" d="M 262.2945556640625 604.0416870117188 A 5 5 0 1 1 262.29455316406273 604.0366870125521" fill-opacity="1" clip-path="url(#oNkyfKLTAyTX)" stroke-opacity="1" stroke-linejoin="bevel" stroke-miterlimit="10" stroke-dasharray=""/><path fill="rgb(127,127,127)" stroke="rgb(0,0,0)" paint-order="fill" d="M 247.38095092773438 604.0416870117188 A 5 5 0 1 1 247.38094842773458 604.0366870125521" fill-opacity="1" clip-path="url(#oNkyfKLTAyTX)" stroke-opacity="1" stroke-linejoin="bevel" stroke-miterlimit="10" stroke-dasharray=""/><path fill="rgb(127,127,127)" stroke="rgb(0,0,0)" paint-order="fill" d="M 270.2015075683594 604.0416870117188 A 5 5 0 1 1 270.2015050683596 604.0366870125521" fill-opacity="1" clip-path="url(#oNkyfKLTAyTX)" stroke-opacity="1" stroke-linejoin="bevel" stroke-miterlimit="10" stroke-dasharray=""/><path fill="none" stroke="none"/><path fill="none" stroke="rgb(0,0,0)" paint-order="fill" d="M 254.95899963378906 616.1583251953125 L 254.95899963378906 591.9249877929688" stroke-opacity="1" stroke-linejoin="bevel" stroke-miterlimit="10" stroke-width="3" stroke-dasharray="" clip-path="url(#vlrGVWAwvMpa)"/><path fill="none" stroke="none"/><path fill="rgb(199,199,199)" stroke="rgb(0,0,0)" paint-order="fill" d="M 247.51280212402344 664.625 A 5 5 0 1 1 247.51279962402364 664.6200000008333" fill-opacity="1" clip-path="url(#SsdouIuGERdS)" stroke-opacity="1" stroke-linejoin="bevel" stroke-miterlimit="10" stroke-dasharray=""/><path fill="rgb(199,199,199)" stroke="rgb(0,0,0)" paint-order="fill" d="M 254.35702514648438 664.625 A 5 5 0 1 1 254.35702264648458 664.6200000008333" fill-opacity="1" clip-path="url(#SsdouIuGERdS)" stroke-opacity="1" stroke-linejoin="bevel" stroke-miterlimit="10" stroke-dasharray=""/><path fill="rgb(199,199,199)" stroke="rgb(0,0,0)" paint-order="fill" d="M 268.4918212890625 664.625 A 5 5 0 1 1 268.49181878906273 664.6200000008333" fill-opacity="1" clip-path="url(#SsdouIuGERdS)" stroke-opacity="1" stroke-linejoin="bevel" stroke-miterlimit="10" stroke-dasharray=""/><path fill="none" stroke="none"/><path fill="none" stroke="rgb(0,0,0)" paint-order="fill" d="M 251.78721618652344 676.74169921875 L 251.78721618652344 652.50830078125" stroke-opacity="1" stroke-linejoin="bevel" stroke-miterlimit="10" stroke-width="3" stroke-dasharray="" clip-path="url(#gtcrQTOGeUwK)"/><path fill="none" stroke="none"/><path fill="rgb(188,189,34)" stroke="rgb(0,0,0)" paint-order="fill" d="M 236.1143798828125 725.2083129882812 A 5 5 0 1 1 236.1143773828127 725.2033129891146" fill-opacity="1" clip-path="url(#nfnPnQiMbWiq)" stroke-opacity="1" stroke-linejoin="bevel" stroke-miterlimit="10" stroke-dasharray=""/><path fill="rgb(188,189,34)" stroke="rgb(0,0,0)" paint-order="fill" d="M 231.0149688720703 725.2083129882812 A 5 5 0 1 1 231.01496637207052 725.2033129891146" fill-opacity="1" clip-path="url(#nfnPnQiMbWiq)" stroke-opacity="1" stroke-linejoin="bevel" stroke-miterlimit="10" stroke-dasharray=""/><path fill="rgb(188,189,34)" stroke="rgb(0,0,0)" paint-order="fill" d="M 249.1243133544922 725.2083129882812 A 5 5 0 1 1 249.1243108544924 725.2033129891146" fill-opacity="1" clip-path="url(#nfnPnQiMbWiq)" stroke-opacity="1" stroke-linejoin="bevel" stroke-miterlimit="10" stroke-dasharray=""/><path fill="none" stroke="none"/><path fill="none" stroke="rgb(0,0,0)" paint-order="fill" d="M 233.751220703125 737.3250122070312 L 233.751220703125 713.0916748046875" stroke-opacity="1" stroke-linejoin="bevel" stroke-miterlimit="10" stroke-width="3" stroke-dasharray="" clip-path="url(#BCClrtrKktvU)"/><path fill="none" stroke="none"/><path fill="none" stroke="rgb(0,0,0)" paint-order="fill" d="M 267.9666748046875 755.5 L 267.9666748046875 28.5" stroke-opacity="1" stroke-linejoin="bevel" stroke-miterlimit="10" stroke-dasharray="2,4" clip-path="url(#JTqkZkVMGdlq)"/><path fill="none" stroke="rgb(0,0,0)" paint-order="fill" d="M 203.5 755.5 L 1170.5 755.5" stroke-opacity="1" stroke-linejoin="bevel" stroke-miterlimit="10" stroke-dasharray=""/><path fill="none" stroke="rgb(0,0,0)" paint-order="fill" d="M 203.5 761.5 L 203.5 753.5 M 332.5 761.5 L 332.5 753.5 M 461.5 761.5 L 461.5 753.5 M 590.5 761.5 L 590.5 753.5 M 719.5 761.5 L 719.5 753.5 M 848.5 761.5 L 848.5 753.5 M 977.5 761.5 L 977.5 753.5 M 1106.5 761.5 L 1106.5 753.5" stroke-opacity="1" stroke-linejoin="bevel" stroke-miterlimit="10" stroke-dasharray=""/><path fill="none" stroke="rgb(0,0,0)" paint-order="fill" d="M 203.5 759.5 L 203.5 755.5 M 229.5 759.5 L 229.5 755.5 M 255.5 759.5 L 255.5 755.5 M 280.5 759.5 L 280.5 755.5 M 306.5 759.5 L 306.5 755.5 M 332.5 759.5 L 332.5 755.5 M 358.5 759.5 L 358.5 755.5 M 384.5 759.5 L 384.5 755.5 M 409.5 759.5 L 409.5 755.5 M 435.5 759.5 L 435.5 755.5 M 461.5 759.5 L 461.5 755.5 M 487.5 759.5 L 487.5 755.5 M 512.5 759.5 L 512.5 755.5 M 538.5 759.5 L 538.5 755.5 M 564.5 759.5 L 564.5 755.5 M 590.5 759.5 L 590.5 755.5 M 616.5 759.5 L 616.5 755.5 M 641.5 759.5 L 641.5 755.5 M 667.5 759.5 L 667.5 755.5 M 693.5 759.5 L 693.5 755.5 M 719.5 759.5 L 719.5 755.5 M 745.5 759.5 L 745.5 755.5 M 770.5 759.5 L 770.5 755.5 M 796.5 759.5 L 796.5 755.5 M 822.5 759.5 L 822.5 755.5 M 848.5 759.5 L 848.5 755.5 M 873.5 759.5 L 873.5 755.5 M 899.5 759.5 L 899.5 755.5 M 925.5 759.5 L 925.5 755.5 M 951.5 759.5 L 951.5 755.5 M 977.5 759.5 L 977.5 755.5 M 1002.5 759.5 L 1002.5 755.5 M 1028.5 759.5 L 1028.5 755.5 M 1054.5 759.5 L 1054.5 755.5 M 1080.5 759.5 L 1080.5 755.5 M 1106.5 759.5 L 1106.5 755.5 M 1131.5 759.5 L 1131.5 755.5 M 1157.5 759.5 L 1157.5 755.5" stroke-opacity="1" stroke-linejoin="bevel" stroke-miterlimit="10" stroke-dasharray=""/><text fill="rgb(68,68,68)" stroke="none" font-family="helvetica" font-size="11px" font-style="normal" font-weight="normal" text-decoration="normal" x="0" y="0" text-anchor="middle" dominant-baseline="hanging" transform="matrix(1, 0, 0, 1, 203.5, 766.5)" fill-opacity="1">0</text><text fill="rgb(68,68,68)" stroke="none" font-family="helvetica" font-size="11px" font-style="normal" font-weight="normal" text-decoration="normal" x="0" y="0" text-anchor="middle" dominant-baseline="hanging" transform="matrix(1, 0, 0, 1, 332.5, 766.5)" fill-opacity="1">2</text><text fill="rgb(68,68,68)" stroke="none" font-family="helvetica" font-size="11px" font-style="normal" font-weight="normal" text-decoration="normal" x="0" y="0" text-anchor="middle" dominant-baseline="hanging" transform="matrix(1, 0, 0, 1, 461.5, 766.5)" fill-opacity="1">4</text><text fill="rgb(68,68,68)" stroke="none" font-family="helvetica" font-size="11px" font-style="normal" font-weight="normal" text-decoration="normal" x="0" y="0" text-anchor="middle" dominant-baseline="hanging" transform="matrix(1, 0, 0, 1, 590.5, 766.5)" fill-opacity="1">6</text><text fill="rgb(68,68,68)" stroke="none" font-family="helvetica" font-size="11px" font-style="normal" font-weight="normal" text-decoration="normal" x="0" y="0" text-anchor="middle" dominant-baseline="hanging" transform="matrix(1, 0, 0, 1, 719.5, 766.5)" fill-opacity="1">8</text><text fill="rgb(68,68,68)" stroke="none" font-family="helvetica" font-size="11px" font-style="normal" font-weight="normal" text-decoration="normal" x="0" y="0" text-anchor="middle" dominant-baseline="hanging" transform="matrix(1, 0, 0, 1, 848.5, 766.5)" fill-opacity="1">10</text><text fill="rgb(68,68,68)" stroke="none" font-family="helvetica" font-size="11px" font-style="normal" font-weight="normal" text-decoration="normal" x="0" y="0" text-anchor="middle" dominant-baseline="hanging" transform="matrix(1, 0, 0, 1, 977.5, 766.5)" fill-opacity="1">12</text><text fill="rgb(68,68,68)" stroke="none" font-family="helvetica" font-size="11px" font-style="normal" font-weight="normal" text-decoration="normal" x="0" y="0" text-anchor="middle" dominant-baseline="hanging" transform="matrix(1, 0, 0, 1, 1106.5, 766.5)" fill-opacity="1">14</text><text fill="rgb(68,68,68)" stroke="none" font-family="helvetica" font-size="13px" font-style="italic" font-weight="normal" text-decoration="normal" x="0" y="0" text-anchor="middle" dominant-baseline="hanging" transform="matrix(1, 0, 0, 1, 687.5, 784.5)" fill-opacity="1">Relative PaQa level</text><path fill="none" stroke="rgb(0,0,0)" paint-order="fill" d="M 203.5 755.5 L 203.5 28.5" stroke-opacity="1" stroke-linejoin="bevel" stroke-miterlimit="10" stroke-dasharray=""/><path fill="none" stroke="rgb(0,0,0)" paint-order="fill" d="M 197.5 725.5 L 205.5 725.5 M 197.5 664.5 L 205.5 664.5 M 197.5 604.5 L 205.5 604.5 M 197.5 543.5 L 205.5 543.5 M 197.5 482.5 L 205.5 482.5 M 197.5 422.5 L 205.5 422.5 M 197.5 361.5 L 205.5 361.5 M 197.5 301.5 L 205.5 301.5 M 197.5 240.5 L 205.5 240.5 M 197.5 179.5 L 205.5 179.5 M 197.5 119.5 L 205.5 119.5 M 197.5 58.5 L 205.5 58.5" stroke-opacity="1" stroke-linejoin="bevel" stroke-miterlimit="10" stroke-dasharray=""/><text fill="rgb(68,68,68)" stroke="none" font-family="helvetica" font-size="9pt" font-style="normal" font-weight="normal" text-decoration="normal" x="0" y="0" text-anchor="end" dominant-baseline="central" transform="matrix(1, 0, 0, 1, 192.5, 725.5)" fill-opacity="1">ΔpilTfliC_vortex Liquid</text><text fill="rgb(68,68,68)" stroke="none" font-family="helvetica" font-size="9pt" font-style="normal" font-weight="normal" text-decoration="normal" x="0" y="0" text-anchor="end" dominant-baseline="central" transform="matrix(1, 0, 0, 1, 192.5, 664.5)" fill-opacity="1">ΔpilTfliC_pilA_T8V_vortex Liquid</text><text fill="rgb(68,68,68)" stroke="none" font-family="helvetica" font-size="9pt" font-style="normal" font-weight="normal" text-decoration="normal" x="0" y="0" text-anchor="end" dominant-baseline="central" transform="matrix(1, 0, 0, 1, 192.5, 604.5)" fill-opacity="1">ΔpilTfliC_pilA_T8V_incu Liquid</text><text fill="rgb(68,68,68)" stroke="none" font-family="helvetica" font-size="9pt" font-style="normal" font-weight="normal" text-decoration="normal" x="0" y="0" text-anchor="end" dominant-baseline="central" transform="matrix(1, 0, 0, 1, 192.5, 543.5)" fill-opacity="1">ΔpilTfliC_incu Liquid</text><text fill="rgb(68,68,68)" stroke="none" font-family="helvetica" font-size="9pt" font-style="normal" font-weight="normal" text-decoration="normal" x="0" y="0" text-anchor="end" dominant-baseline="central" transform="matrix(1, 0, 0, 1, 192.5, 482.5)" fill-opacity="1">ΔpilJcpdAfliC_vortex Liquid</text><text fill="rgb(68,68,68)" stroke="none" font-family="helvetica" font-size="9pt" font-style="normal" font-weight="normal" text-decoration="normal" x="0" y="0" text-anchor="end" dominant-baseline="central" transform="matrix(1, 0, 0, 1, 192.5, 422.5)" fill-opacity="1">ΔpilJcpdAfliC_incu Liquid</text><text fill="rgb(68,68,68)" stroke="none" font-family="helvetica" font-size="9pt" font-style="normal" font-weight="normal" text-decoration="normal" x="0" y="0" text-anchor="end" dominant-baseline="central" transform="matrix(1, 0, 0, 1, 192.5, 361.5)" fill-opacity="1">ΔpilAfliC_vortex Liquid</text><text fill="rgb(68,68,68)" stroke="none" font-family="helvetica" font-size="9pt" font-style="normal" font-weight="normal" text-decoration="normal" x="0" y="0" text-anchor="end" dominant-baseline="central" transform="matrix(1, 0, 0, 1, 192.5, 301.5)" fill-opacity="1">ΔpilAfliC_incu Liquid</text><text fill="rgb(68,68,68)" stroke="none" font-family="helvetica" font-size="9pt" font-style="normal" font-weight="normal" text-decoration="normal" x="0" y="0" text-anchor="end" dominant-baseline="central" transform="matrix(1, 0, 0, 1, 192.5, 240.5)" fill-opacity="1">ΔfliC_pilA_T8V_vortex Liquid</text><text fill="rgb(68,68,68)" stroke="none" font-family="helvetica" font-size="9pt" font-style="normal" font-weight="normal" text-decoration="normal" x="0" y="0" text-anchor="end" dominant-baseline="central" transform="matrix(1, 0, 0, 1, 192.5, 179.5)" fill-opacity="1">ΔfliC_pilA_T8V_incu Liquid</text><text fill="rgb(68,68,68)" stroke="none" font-family="helvetica" font-size="9pt" font-style="normal" font-weight="normal" text-decoration="normal" x="0" y="0" text-anchor="end" dominant-baseline="central" transform="matrix(1, 0, 0, 1, 192.5, 119.5)" fill-opacity="1">ΔfliC_vortex Liquid</text><text fill="rgb(68,68,68)" stroke="none" font-family="helvetica" font-size="9pt" font-style="normal" font-weight="normal" text-decoration="normal" x="0" y="0" text-anchor="end" dominant-baseline="central" transform="matrix(1, 0, 0, 1, 192.5, 58.5)" fill-opacity="1">ΔfliC_incu Liquid</text><path fill="rgb(255,255,255)" stroke="rgb(229,229,229)" paint-order="fill" d="M 1002.7783203125 38.5 L 1160.5 38.5 L 1160.5 124.5 L 1002.7783203125 124.5 L 1002.7783203125 38.5" fill-opacity="0.95" clip-path="url(#uvBxwRCMeJIA)" stroke-opacity="0.5" stroke-linejoin="bevel" stroke-miterlimit="10" stroke-dasharray=""/><text fill="rgb(68,68,68)" stroke="none" font-family="helvetica" font-size="13px" font-style="normal" font-weight="normal" text-decoration="normal" x="1037.2783203125" y="58" text-anchor="start" dominant-baseline="central" transform="matrix(1, 0, 0, 1, 0.5, 0.5)" fill-opacity="1">mean</text><path fill="none" stroke="rgb(0,0,0)" paint-order="fill" d="M 1012.7783203125 58.5 L 1032.7783203125 58.5" stroke-opacity="1" stroke-linejoin="bevel" stroke-miterlimit="10" stroke-width="3" stroke-dasharray="" clip-path="url(#uvBxwRCMeJIA)"/><text fill="rgb(68,68,68)" stroke="none" font-family="helvetica" font-size="13px" font-style="normal" font-weight="normal" text-decoration="normal" x="1037.2783203125" y="81" text-anchor="start" dominant-baseline="central" transform="matrix(1, 0, 0, 1, 0.5, 0.5)" fill-opacity="1">means of replicates</text><path fill="rgb(255,127,14)" stroke="rgb(0,0,0)" paint-order="fill" d="M 1026.7783203125 81.5 A 4 4 0 1 1 1026.7783183125002 81.49600000066667" fill-opacity="1" clip-path="url(#uvBxwRCMeJIA)" stroke-opacity="1" stroke-linejoin="bevel" stroke-miterlimit="10" stroke-dasharray=""/><path fill="rgb(255,187,120)" stroke="rgb(0,0,0)" paint-order="fill" d="M 1026.7783203125 81.5 A 4 4 0 1 1 1026.7783183125002 81.49600000066667" fill-opacity="1" clip-path="url(#uvBxwRCMeJIA)" stroke-opacity="1" stroke-linejoin="bevel" stroke-miterlimit="10" stroke-dasharray=""/><path fill="rgb(44,160,44)" stroke="rgb(0,0,0)" paint-order="fill" d="M 1026.7783203125 81.5 A 4 4 0 1 1 1026.7783183125002 81.49600000066667" fill-opacity="1" clip-path="url(#uvBxwRCMeJIA)" stroke-opacity="1" stroke-linejoin="bevel" stroke-miterlimit="10" stroke-dasharray=""/><path fill="rgb(152,223,138)" stroke="rgb(0,0,0)" paint-order="fill" d="M 1026.7783203125 81.5 A 4 4 0 1 1 1026.7783183125002 81.49600000066667" fill-opacity="1" clip-path="url(#uvBxwRCMeJIA)" stroke-opacity="1" stroke-linejoin="bevel" stroke-miterlimit="10" stroke-dasharray=""/><path fill="rgb(214,39,40)" stroke="rgb(0,0,0)" paint-order="fill" d="M 1026.7783203125 81.5 A 4 4 0 1 1 1026.7783183125002 81.49600000066667" fill-opacity="1" clip-path="url(#uvBxwRCMeJIA)" stroke-opacity="1" stroke-linejoin="bevel" stroke-miterlimit="10" stroke-dasharray=""/><path fill="rgb(255,152,150)" stroke="rgb(0,0,0)" paint-order="fill" d="M 1026.7783203125 81.5 A 4 4 0 1 1 1026.7783183125002 81.49600000066667" fill-opacity="1" clip-path="url(#uvBxwRCMeJIA)" stroke-opacity="1" stroke-linejoin="bevel" stroke-miterlimit="10" stroke-dasharray=""/><path fill="rgb(148,103,189)" stroke="rgb(0,0,0)" paint-order="fill" d="M 1026.7783203125 81.5 A 4 4 0 1 1 1026.7783183125002 81.49600000066667" fill-opacity="1" clip-path="url(#uvBxwRCMeJIA)" stroke-opacity="1" stroke-linejoin="bevel" stroke-miterlimit="10" stroke-dasharray=""/><path fill="rgb(197,176,213)" stroke="rgb(0,0,0)" paint-order="fill" d="M 1026.7783203125 81.5 A 4 4 0 1 1 1026.7783183125002 81.49600000066667" fill-opacity="1" clip-path="url(#uvBxwRCMeJIA)" stroke-opacity="1" stroke-linejoin="bevel" stroke-miterlimit="10" stroke-dasharray=""/><path fill="rgb(140,86,75)" stroke="rgb(0,0,0)" paint-order="fill" d="M 1026.7783203125 81.5 A 4 4 0 1 1 1026.7783183125002 81.49600000066667" fill-opacity="1" clip-path="url(#uvBxwRCMeJIA)" stroke-opacity="1" stroke-linejoin="bevel" stroke-miterlimit="10" stroke-dasharray=""/><path fill="rgb(196,156,148)" stroke="rgb(0,0,0)" paint-order="fill" d="M 1026.7783203125 81.5 A 4 4 0 1 1 1026.7783183125002 81.49600000066667" fill-opacity="1" clip-path="url(#uvBxwRCMeJIA)" stroke-opacity="1" stroke-linejoin="bevel" stroke-miterlimit="10" stroke-dasharray=""/><path fill="rgb(227,119,194)" stroke="rgb(0,0,0)" paint-order="fill" d="M 1026.7783203125 81.5 A 4 4 0 1 1 1026.7783183125002 81.49600000066667" fill-opacity="1" clip-path="url(#uvBxwRCMeJIA)" stroke-opacity="1" stroke-linejoin="bevel" stroke-miterlimit="10" stroke-dasharray=""/><path fill="rgb(247,182,210)" stroke="rgb(0,0,0)" paint-order="fill" d="M 1026.7783203125 81.5 A 4 4 0 1 1 1026.7783183125002 81.49600000066667" fill-opacity="1" clip-path="url(#uvBxwRCMeJIA)" stroke-opacity="1" stroke-linejoin="bevel" stroke-miterlimit="10" stroke-dasharray=""/><path fill="rgb(127,127,127)" stroke="rgb(0,0,0)" paint-order="fill" d="M 1026.7783203125 81.5 A 4 4 0 1 1 1026.7783183125002 81.49600000066667" fill-opacity="1" clip-path="url(#uvBxwRCMeJIA)" stroke-opacity="1" stroke-linejoin="bevel" stroke-miterlimit="10" stroke-dasharray=""/><path fill="rgb(199,199,199)" stroke="rgb(0,0,0)" paint-order="fill" d="M 1026.7783203125 81.5 A 4 4 0 1 1 1026.7783183125002 81.49600000066667" fill-opacity="1" clip-path="url(#uvBxwRCMeJIA)" stroke-opacity="1" stroke-linejoin="bevel" stroke-miterlimit="10" stroke-dasharray=""/><path fill="rgb(188,189,34)" stroke="rgb(0,0,0)" paint-order="fill" d="M 1026.7783203125 81.5 A 4 4 0 1 1 1026.7783183125002 81.49600000066667" fill-opacity="1" clip-path="url(#uvBxwRCMeJIA)" stroke-opacity="1" stroke-linejoin="bevel" stroke-miterlimit="10" stroke-dasharray=""/><text fill="rgb(68,68,68)" stroke="none" font-family="helvetica" font-size="13px" font-style="normal" font-weight="normal" text-decoration="normal" x="1037.2783203125" y="104" text-anchor="start" dominant-baseline="central" transform="matrix(1, 0, 0, 1, 0.5, 0.5)" fill-opacity="1">Reference</text><path fill="none" stroke="rgb(0,0,0)" paint-order="fill" d="M 1012.7783203125 104.5 L 1032.7783203125 104.5" stroke-opacity="1" stroke-linejoin="bevel" stroke-miterlimit="10" stroke-dasharray="2,4" clip-path="url(#uvBxwRCMeJIA)"/><path fill="none" stroke="none"/><text fill="rgb(68,68,68)" stroke="none" font-family="helvetica" font-size="13px" font-style="normal" font-weight="bold" text-decoration="normal" x="0" y="0" text-anchor="start" dominant-baseline="text-after-edge" transform="matrix(1, 0, 0, 1, 203.5, 23.5)" fill-opacity="1"> PaQa_ratio on Liquid vs. Solid in linear scale</text></svg>