<svg version="1.1" xmlns="http://www.w3.org/2000/svg" xmlns:xlink="http://www.w3.org/1999/xlink" width="600" height="400" style="width: 600px; height: 400px;"><defs><clipPath id="egKXbKTkUWOC"><path fill="none" stroke="none" d=" M 142 29 L 570 29 L 570 355 L 142 355 L 142 29 Z"/></clipPath><clipPath id="brSaHsSbTGoS"><path fill="none" stroke="none" d=" M 142 29 L 570 29 L 570 355 L 142 355 L 142 29 Z"/></clipPath><clipPath id="TigggyHtQLGn"><path fill="none" stroke="none" d=" M 142 29 L 570 29 L 570 355 L 142 355 L 142 29 Z"/></clipPath><clipPath id="IuZIayOxpmVm"><path fill="none" stroke="none" d=" M 142 29 L 570 29 L 570 355 L 142 355 L 142 29 Z"/></clipPath><clipPath id="JPLtLAUylphF"><path fill="none" stroke="none" d=" M 142 29 L 570 29 L 570 355 L 142 355 L 142 29 Z"/></clipPath><clipPath id="XLMAemSmQDCk"><path fill="none" stroke="none" d=" M 142 29 L 570 29 L 570 355 L 142 355 L 142 29 Z"/></clipPath><clipPath id="WGqxnUpBHhSg"><path fill="none" stroke="none" d=" M 142 29 L 570 29 L 570 355 L 142 355 L 142 29 Z"/></clipPath><clipPath id="qAePSfcppXOC"><path fill="none" stroke="none" d=" M 142 29 L 570 29 L 570 355 L 142 355 L 142 29 Z"/></clipPath><clipPath id="ZBrwHTgdzNVO"><path fill="none" stroke="none" d=" M 142 29 L 570 29 L 570 355 L 142 355 L 142 29 Z"/></clipPath><clipPath id="AeowQwlZRMre"><path fill="none" stroke="none" d=" M 142 29 L 570 29 L 570 355 L 142 355 L 142 29 Z"/></clipPath><clipPath id="CaLJhIzhkqrz"><path fill="none" stroke="none" d=" M 142 29 L 570 29 L 570 355 L 142 355 L 142 29 Z"/></clipPath><clipPath id="RbCPcXePbQuR"><path fill="none" stroke="none" d=" M 142 29 L 570 29 L 570 355 L 142 355 L 142 29 Z"/></clipPath><clipPath id="zhHedtiHUzFb"><path fill="none" stroke="none" d=" M 142 29 L 570 29 L 570 355 L 142 355 L 142 29 Z"/></clipPath><clipPath id="hWUtWZJrkTPJ"><path fill="none" stroke="none" d=" M 142 29 L 570 29 L 570 355 L 142 355 L 142 29 Z"/></clipPath><clipPath id="aODvEaegJEwZ"><path fill="none" stroke="none" d=" M 142 29 L 570 29 L 570 355 L 142 355 L 142 29 Z"/></clipPath><clipPath id="lgoETishTsTy"><path fill="none" stroke="none" d=" M 142 29 L 570 29 L 570 355 L 142 355 L 142 29 Z"/></clipPath><clipPath id="cnPgGKgdvvaX"><path fill="none" stroke="none" d=" M 142 29 L 570 29 L 570 355 L 142 355 L 142 29 Z"/></clipPath><clipPath id="VBLRTwaPrRLm"><path fill="none" stroke="none" d=" M 142 29 L 570 29 L 570 355 L 142 355 L 142 29 Z"/></clipPath><clipPath id="lgRtoQcxyWFe"><path fill="none" stroke="none" d=" M 142 29 L 570 29 L 570 355 L 142 355 L 142 29 Z"/></clipPath><clipPath id="KLMNQEieSuVq"><path fill="none" stroke="none" d=" M 142 29 L 570 29 L 570 355 L 142 355 L 142 29 Z"/></clipPath><clipPath id="UTUBHNSivFNE"><path fill="none" stroke="none" d=" M 142 29 L 570 29 L 570 355 L 142 355 L 142 29 Z"/></clipPath><clipPath id="UTuZTMLTwfon"><path fill="none" stroke="none" d=" M 142 29 L 570 29 L 570 355 L 142 355 L 142 29 Z"/></clipPath><clipPath id="zvBESbosQLJA"><path fill="none" stroke="none" d=" M 142 29 L 570 29 L 570 355 L 142 355 L 142 29 Z"/></clipPath><clipPath id="bEMbDQxuoPfQ"><path fill="none" stroke="none" d=" M 142 29 L 570 29 L 570 355 L 142 355 L 142 29 Z"/></clipPath><clipPath id="FmdGgEbqNQwB"><path fill="none" stroke="none" d=" M 142 29 L 570 29 L 570 355 L 142 355 L 142 29 Z"/></clipPath></defs><g><g transform="scale(1,1) translate(0.5,0.5)"><rect fill="#FFFFFF" stroke="none" x="0" y="0" width="600" height="400"/><rect fill="#ffffff" stroke="none" x="0" y="0" width="600" height="400"/><rect fill="#FFFFFF" stroke="none" x="142" y="29" width="428" height="326"/><rect fill="#ffffff" stroke="none" x="142" y="29" width="428" height="326"/><g><rect fill="none" stroke="#e5e5e5" x="142" y="29" width="428" height="326" stroke-linejoin="bevel" stroke-miterlimit="10"/></g><g clip-path="url(#egKXbKTkUWOC)"><g><g/></g></g><g clip-path="url(#brSaHsSbTGoS)"><g><g/></g></g><g clip-path="url(#TigggyHtQLGn)"><g><g><path fill="none" stroke="none"/><path fill="#1f77b4" stroke="black" paint-order="fill stroke markers" d=" M 203.5333945691443 45.30000000000001 A 5 5 0 1 1 203.5333920691445 45.29500000083334" stroke-linejoin="bevel" stroke-miterlimit="10"/><path fill="#1f77b4" stroke="black" paint-order="fill stroke markers" d=" M 184.64002219763026 45.30000000000001 A 5 5 0 1 1 184.64001969763046 45.29500000083334" stroke-linejoin="bevel" stroke-miterlimit="10"/><path fill="#1f77b4" stroke="black" paint-order="fill stroke markers" d=" M 207.77168912876954 45.30000000000001 A 5 5 0 1 1 207.77168662876974 45.29500000083334" stroke-linejoin="bevel" stroke-miterlimit="10"/><path fill="#1f77b4" stroke="black" paint-order="fill stroke markers" d=" M 214.21623093843448 45.30000000000001 A 5 5 0 1 1 214.21622843843468 45.29500000083334" stroke-linejoin="bevel" stroke-miterlimit="10"/><path fill="#1f77b4" stroke="black" paint-order="fill stroke markers" d=" M 223.13533911320403 45.30000000000001 A 5 5 0 1 1 223.13533661320423 45.29500000083334" stroke-linejoin="bevel" stroke-miterlimit="10"/><path fill="#1f77b4" stroke="black" paint-order="fill stroke markers" d=" M 196.6328741748275 45.30000000000001 A 5 5 0 1 1 196.6328716748277 45.29500000083334" stroke-linejoin="bevel" stroke-miterlimit="10"/><path fill="#1f77b4" stroke="black" paint-order="fill stroke markers" d=" M 197.15664338657834 45.30000000000001 A 5 5 0 1 1 197.15664088657854 45.29500000083334" stroke-linejoin="bevel" stroke-miterlimit="10"/><path fill="#1f77b4" stroke="black" paint-order="fill stroke markers" d=" M 189.01505529273444 45.30000000000001 A 5 5 0 1 1 189.01505279273465 45.29500000083334" stroke-linejoin="bevel" stroke-miterlimit="10"/><path fill="#1f77b4" stroke="black" paint-order="fill stroke markers" d=" M 188.39875119867713 45.30000000000001 A 5 5 0 1 1 188.39874869867734 45.29500000083334" stroke-linejoin="bevel" stroke-miterlimit="10"/></g></g></g><g clip-path="url(#IuZIayOxpmVm)"><g><g><path fill="none" stroke="none"/><path fill="none" stroke="black" paint-order="fill stroke markers" d=" M 195.5 51.819999999999936 L 195.5 38.78000000000003" stroke-linejoin="bevel" stroke-miterlimit="10" stroke-width="3"/></g></g></g><g clip-path="url(#JPLtLAUylphF)"><g><g><path fill="none" stroke="none"/><path fill="#aec7e8" stroke="black" paint-order="fill stroke markers" d=" M 409.56304533315165 77.89999999999998 A 5 5 0 1 1 409.5630428331519 77.8950000008333" stroke-linejoin="bevel" stroke-miterlimit="10"/><path fill="#aec7e8" stroke="black" paint-order="fill stroke markers" d=" M 387.3293175075394 77.89999999999998 A 5 5 0 1 1 387.3293150075396 77.8950000008333" stroke-linejoin="bevel" stroke-miterlimit="10"/><path fill="#aec7e8" stroke="black" paint-order="fill stroke markers" d=" M 397.8629544684612 77.89999999999998 A 5 5 0 1 1 397.86295196846146 77.8950000008333" stroke-linejoin="bevel" stroke-miterlimit="10"/><path fill="#aec7e8" stroke="black" paint-order="fill stroke markers" d=" M 419.85932386405716 77.89999999999998 A 5 5 0 1 1 419.8593213640574 77.8950000008333" stroke-linejoin="bevel" stroke-miterlimit="10"/><path fill="#aec7e8" stroke="black" paint-order="fill stroke markers" d=" M 404.6071563155657 77.89999999999998 A 5 5 0 1 1 404.60715381556594 77.8950000008333" stroke-linejoin="bevel" stroke-miterlimit="10"/><path fill="#aec7e8" stroke="black" paint-order="fill stroke markers" d=" M 353.83640642674334 77.89999999999998 A 5 5 0 1 1 353.83640392674357 77.8950000008333" stroke-linejoin="bevel" stroke-miterlimit="10"/><path fill="#aec7e8" stroke="black" paint-order="fill stroke markers" d=" M 350.1004471842718 77.89999999999998 A 5 5 0 1 1 350.100444684272 77.8950000008333" stroke-linejoin="bevel" stroke-miterlimit="10"/><path fill="#aec7e8" stroke="black" paint-order="fill stroke markers" d=" M 365.23705617568976 77.89999999999998 A 5 5 0 1 1 365.23705367569 77.8950000008333" stroke-linejoin="bevel" stroke-miterlimit="10"/><path fill="#aec7e8" stroke="black" paint-order="fill stroke markers" d=" M 347.75811645353673 77.89999999999998 A 5 5 0 1 1 347.75811395353696 77.8950000008333" stroke-linejoin="bevel" stroke-miterlimit="10"/></g></g></g><g clip-path="url(#XLMAemSmQDCk)"><g><g><path fill="none" stroke="none"/><path fill="none" stroke="black" paint-order="fill stroke markers" d=" M 376.794869303224 84.41999999999996 L 376.794869303224 71.38" stroke-linejoin="bevel" stroke-miterlimit="10" stroke-width="3"/></g></g></g><g clip-path="url(#WGqxnUpBHhSg)"><g><g><path fill="none" stroke="none"/><path fill="#ff7f0e" stroke="black" paint-order="fill stroke markers" d=" M 280.9349641458334 110.5 A 5 5 0 1 1 280.93496164583365 110.49500000083333" stroke-linejoin="bevel" stroke-miterlimit="10"/><path fill="#ff7f0e" stroke="black" paint-order="fill stroke markers" d=" M 232.88420320921415 110.5 A 5 5 0 1 1 232.88420070921435 110.49500000083333" stroke-linejoin="bevel" stroke-miterlimit="10"/><path fill="#ff7f0e" stroke="black" paint-order="fill stroke markers" d=" M 265.1426164417122 110.5 A 5 5 0 1 1 265.14261394171245 110.49500000083333" stroke-linejoin="bevel" stroke-miterlimit="10"/></g></g></g><g clip-path="url(#qAePSfcppXOC)"><g><g><path fill="none" stroke="none"/><path fill="none" stroke="black" paint-order="fill stroke markers" d=" M 254.65392793225328 117.01999999999998 L 254.65392793225328 103.97999999999999" stroke-linejoin="bevel" stroke-miterlimit="10" stroke-width="3"/></g></g></g><g clip-path="url(#ZBrwHTgdzNVO)"><g><g><path fill="none" stroke="none"/><path fill="#ffbb78" stroke="black" paint-order="fill stroke markers" d=" M 181.79186090300968 143.1 A 5 5 0 1 1 181.79185840300988 143.09500000083332" stroke-linejoin="bevel" stroke-miterlimit="10"/><path fill="#ffbb78" stroke="black" paint-order="fill stroke markers" d=" M 181.06309559303233 143.1 A 5 5 0 1 1 181.06309309303253 143.09500000083332" stroke-linejoin="bevel" stroke-miterlimit="10"/><path fill="#ffbb78" stroke="black" paint-order="fill stroke markers" d=" M 186.12672390039018 143.1 A 5 5 0 1 1 186.12672140039038 143.09500000083332" stroke-linejoin="bevel" stroke-miterlimit="10"/></g></g></g><g clip-path="url(#AeowQwlZRMre)"><g><g><path fill="none" stroke="none"/><path fill="none" stroke="black" paint-order="fill stroke markers" d=" M 177.9938934654774 149.62 L 177.9938934654774 136.57999999999998" stroke-linejoin="bevel" stroke-miterlimit="10" stroke-width="3"/></g></g></g><g clip-path="url(#CaLJhIzhkqrz)"><g><g><path fill="none" stroke="none"/><path fill="#2ca02c" stroke="black" paint-order="fill stroke markers" d=" M 192.72417197547267 175.7 A 5 5 0 1 1 192.72416947547288 175.69500000083332" stroke-linejoin="bevel" stroke-miterlimit="10"/><path fill="#2ca02c" stroke="black" paint-order="fill stroke markers" d=" M 180.63133072027563 175.7 A 5 5 0 1 1 180.63132822027583 175.69500000083332" stroke-linejoin="bevel" stroke-miterlimit="10"/><path fill="#2ca02c" stroke="black" paint-order="fill stroke markers" d=" M 188.79047656671412 175.7 A 5 5 0 1 1 188.79047406671432 175.69500000083332" stroke-linejoin="bevel" stroke-miterlimit="10"/></g></g></g><g clip-path="url(#RbCPcXePbQuR)"><g><g><path fill="none" stroke="none"/><path fill="none" stroke="black" paint-order="fill stroke markers" d=" M 182.38199308748747 182.22 L 182.38199308748747 169.17999999999998" stroke-linejoin="bevel" stroke-miterlimit="10" stroke-width="3"/></g></g></g><g clip-path="url(#zhHedtiHUzFb)"><g><g><path fill="none" stroke="none"/><path fill="#98df8a" stroke="black" paint-order="fill stroke markers" d=" M 208.3157647848945 208.29999999999998 A 5 5 0 1 1 208.3157622848947 208.2950000008333" stroke-linejoin="bevel" stroke-miterlimit="10"/><path fill="#98df8a" stroke="black" paint-order="fill stroke markers" d=" M 190.46495980486137 208.29999999999998 A 5 5 0 1 1 190.46495730486157 208.2950000008333" stroke-linejoin="bevel" stroke-miterlimit="10"/><path fill="#98df8a" stroke="black" paint-order="fill stroke markers" d=" M 210.2552427676813 208.29999999999998 A 5 5 0 1 1 210.2552402676815 208.2950000008333" stroke-linejoin="bevel" stroke-miterlimit="10"/></g></g></g><g clip-path="url(#hWUtWZJrkTPJ)"><g><g><path fill="none" stroke="none"/><path fill="none" stroke="black" paint-order="fill stroke markers" d=" M 198.0119891191457 214.82 L 198.0119891191457 201.78" stroke-linejoin="bevel" stroke-miterlimit="10" stroke-width="3"/></g></g></g><g clip-path="url(#aODvEaegJEwZ)"><g><g><path fill="none" stroke="none"/><path fill="#d62728" stroke="black" paint-order="fill stroke markers" d=" M 216.9673286977173 240.89999999999998 A 5 5 0 1 1 216.9673261977175 240.8950000008333" stroke-linejoin="bevel" stroke-miterlimit="10"/><path fill="#d62728" stroke="black" paint-order="fill stroke markers" d=" M 182.7099294352964 240.89999999999998 A 5 5 0 1 1 182.7099269352966 240.8950000008333" stroke-linejoin="bevel" stroke-miterlimit="10"/><path fill="#d62728" stroke="black" paint-order="fill stroke markers" d=" M 214.2003459257976 240.89999999999998 A 5 5 0 1 1 214.2003434257978 240.8950000008333" stroke-linejoin="bevel" stroke-miterlimit="10"/></g></g></g><g clip-path="url(#lgoETishTsTy)"><g><g><path fill="none" stroke="none"/><path fill="none" stroke="black" paint-order="fill stroke markers" d=" M 199.62586801960376 247.42000000000002 L 199.62586801960376 234.38" stroke-linejoin="bevel" stroke-miterlimit="10" stroke-width="3"/></g></g></g><g clip-path="url(#cnPgGKgdvvaX)"><g><g><path fill="none" stroke="none"/><path fill="#ff9896" stroke="black" paint-order="fill stroke markers" d=" M 223.04242653960623 273.5 A 5 5 0 1 1 223.04242403960643 273.49500000083333" stroke-linejoin="bevel" stroke-miterlimit="10"/><path fill="#ff9896" stroke="black" paint-order="fill stroke markers" d=" M 216.41938238005253 273.5 A 5 5 0 1 1 216.41937988005273 273.49500000083333" stroke-linejoin="bevel" stroke-miterlimit="10"/><path fill="#ff9896" stroke="black" paint-order="fill stroke markers" d=" M 237.31211996818286 273.5 A 5 5 0 1 1 237.31211746818306 273.49500000083333" stroke-linejoin="bevel" stroke-miterlimit="10"/></g></g></g><g clip-path="url(#VBLRTwaPrRLm)"><g><g><path fill="none" stroke="none"/><path fill="none" stroke="black" paint-order="fill stroke markers" d=" M 220.59130962928054 280.02 L 220.59130962928054 266.98" stroke-linejoin="bevel" stroke-miterlimit="10" stroke-width="3"/></g></g></g><g clip-path="url(#lgRtoQcxyWFe)"><g><g><path fill="none" stroke="none"/><path fill="#9467bd" stroke="black" paint-order="fill stroke markers" d=" M 175.5367813788174 306.1 A 5 5 0 1 1 175.53677887881761 306.09500000083335" stroke-linejoin="bevel" stroke-miterlimit="10"/><path fill="#9467bd" stroke="black" paint-order="fill stroke markers" d=" M 175.66109019142132 306.1 A 5 5 0 1 1 175.66108769142153 306.09500000083335" stroke-linejoin="bevel" stroke-miterlimit="10"/><path fill="#9467bd" stroke="black" paint-order="fill stroke markers" d=" M 175.87103631354137 306.1 A 5 5 0 1 1 175.87103381354157 306.09500000083335" stroke-linejoin="bevel" stroke-miterlimit="10"/></g></g></g><g clip-path="url(#KLMNQEieSuVq)"><g><g><path fill="none" stroke="none"/><path fill="none" stroke="black" paint-order="fill stroke markers" d=" M 170.68963596126002 312.62 L 170.68963596126002 299.58" stroke-linejoin="bevel" stroke-miterlimit="10" stroke-width="3"/></g></g></g><g clip-path="url(#UTUBHNSivFNE)"><g><g><path fill="none" stroke="none"/><path fill="#c5b0d5" stroke="black" paint-order="fill stroke markers" d=" M 175.44747412521784 338.7 A 5 5 0 1 1 175.44747162521804 338.6950000008333" stroke-linejoin="bevel" stroke-miterlimit="10"/><path fill="#c5b0d5" stroke="black" paint-order="fill stroke markers" d=" M 175.4724105741391 338.7 A 5 5 0 1 1 175.4724080741393 338.6950000008333" stroke-linejoin="bevel" stroke-miterlimit="10"/><path fill="#c5b0d5" stroke="black" paint-order="fill stroke markers" d=" M 174.71219154814503 338.7 A 5 5 0 1 1 174.71218904814523 338.6950000008333" stroke-linejoin="bevel" stroke-miterlimit="10"/></g></g></g><g clip-path="url(#UTuZTMLTwfon)"><g><g><path fill="none" stroke="none"/><path fill="none" stroke="black" paint-order="fill stroke markers" d=" M 170.21069208250066 345.22 L 170.21069208250066 332.18" stroke-linejoin="bevel" stroke-miterlimit="10" stroke-width="3"/></g></g></g><g clip-path="url(#zvBESbosQLJA)"><g><g><path fill="none" stroke="none"/><path fill="none" stroke="black" paint-order="fill stroke markers" d=" M 195.5 355 L 195.5 29" stroke-linejoin="bevel" stroke-miterlimit="10" stroke-dasharray="2,4"/></g></g></g><g clip-path="url(#bEMbDQxuoPfQ)"><g><g/><g><path fill="#ffffff" stroke="#e5e5e5" paint-order="fill stroke markers" d=" M 399.41712951660156 39 L 560 39 L 560 125 L 399.41712951660156 125 L 399.41712951660156 39 Z" fill-opacity="0.95" stroke-linejoin="bevel" stroke-miterlimit="10" stroke-opacity="0.5"/><text fill="#444444" stroke="none" font-family="helvetica" font-size="10pt" font-style="normal" font-weight="normal" text-decoration="normal" x="434.41712951660156" y="59" text-anchor="start" dominant-baseline="central">mean</text><g><path fill="none" stroke="black" paint-order="fill stroke markers" d=" M 409.41712951660156 59 L 429.41712951660156 59" stroke-linejoin="bevel" stroke-miterlimit="10" stroke-width="3"/></g><text fill="#444444" stroke="none" font-family="helvetica" font-size="10pt" font-style="normal" font-weight="normal" text-decoration="normal" x="434.41712951660156" y="82" text-anchor="start" dominant-baseline="central">means of replicates</text><path fill="#ff7f0e" stroke="black" paint-order="fill stroke markers" d=" M 423.41712951660156 82 A 4 4 0 1 1 423.41712751660174 81.99600000066667" stroke-linejoin="bevel" stroke-miterlimit="10"/><path fill="#ffbb78" stroke="black" paint-order="fill stroke markers" d=" M 423.41712951660156 82 A 4 4 0 1 1 423.41712751660174 81.99600000066667" stroke-linejoin="bevel" stroke-miterlimit="10"/><path fill="#2ca02c" stroke="black" paint-order="fill stroke markers" d=" M 423.41712951660156 82 A 4 4 0 1 1 423.41712751660174 81.99600000066667" stroke-linejoin="bevel" stroke-miterlimit="10"/><path fill="#98df8a" stroke="black" paint-order="fill stroke markers" d=" M 423.41712951660156 82 A 4 4 0 1 1 423.41712751660174 81.99600000066667" stroke-linejoin="bevel" stroke-miterlimit="10"/><path fill="#d62728" stroke="black" paint-order="fill stroke markers" d=" M 423.41712951660156 82 A 4 4 0 1 1 423.41712751660174 81.99600000066667" stroke-linejoin="bevel" stroke-miterlimit="10"/><path fill="#ff9896" stroke="black" paint-order="fill stroke markers" d=" M 423.41712951660156 82 A 4 4 0 1 1 423.41712751660174 81.99600000066667" stroke-linejoin="bevel" stroke-miterlimit="10"/><path fill="#9467bd" stroke="black" paint-order="fill stroke markers" d=" M 423.41712951660156 82 A 4 4 0 1 1 423.41712751660174 81.99600000066667" stroke-linejoin="bevel" stroke-miterlimit="10"/><path fill="#c5b0d5" stroke="black" paint-order="fill stroke markers" d=" M 423.41712951660156 82 A 4 4 0 1 1 423.41712751660174 81.99600000066667" stroke-linejoin="bevel" stroke-miterlimit="10"/><text fill="#444444" stroke="none" font-family="helvetica" font-size="10pt" font-style="normal" font-weight="normal" text-decoration="normal" x="434.41712951660156" y="105" text-anchor="start" dominant-baseline="central">Reference</text><g><path fill="none" stroke="black" paint-order="fill stroke markers" d=" M 409.41712951660156 105 L 429.41712951660156 105" stroke-linejoin="bevel" stroke-miterlimit="10" stroke-dasharray="2,4"/></g></g></g></g><g><g fill="#444444"><path fill="" stroke="none" d=""/><g transform="translate(142,24)"><path fill="none" stroke="none"/><text fill="" stroke="none" font-family="helvetica" font-size="10pt" font-style="normal" font-weight="bold" text-decoration="normal" x="0" y="0" text-anchor="start" dominant-baseline="text-after-edge"> PaQa_ratio on Liquid vs. Solid in linear scale</text></g></g></g><g/><g><g fill="#444444"><path fill="none" stroke="black" paint-order="fill stroke markers" d=" M 142 355 L 570 355" stroke-linejoin="bevel" stroke-miterlimit="10"/><path fill="none" stroke="black" paint-order="fill stroke markers" d=" M 142 361 L 142 353" stroke-linejoin="bevel" stroke-miterlimit="10"/><path fill="none" stroke="black" paint-order="fill stroke markers" d=" M 196 361 L 196 353" stroke-linejoin="bevel" stroke-miterlimit="10"/><path fill="none" stroke="black" paint-order="fill stroke markers" d=" M 249 361 L 249 353" stroke-linejoin="bevel" stroke-miterlimit="10"/><path fill="none" stroke="black" paint-order="fill stroke markers" d=" M 303 361 L 303 353" stroke-linejoin="bevel" stroke-miterlimit="10"/><path fill="none" stroke="black" paint-order="fill stroke markers" d=" M 356 361 L 356 353" stroke-linejoin="bevel" stroke-miterlimit="10"/><path fill="none" stroke="black" paint-order="fill stroke markers" d=" M 410 361 L 410 353" stroke-linejoin="bevel" stroke-miterlimit="10"/><path fill="none" stroke="black" paint-order="fill stroke markers" d=" M 463 361 L 463 353" stroke-linejoin="bevel" stroke-miterlimit="10"/><path fill="none" stroke="black" paint-order="fill stroke markers" d=" M 517 361 L 517 353" stroke-linejoin="bevel" stroke-miterlimit="10"/><path fill="none" stroke="black" paint-order="fill stroke markers" d=" M 570 361 L 570 353" stroke-linejoin="bevel" stroke-miterlimit="10"/><path fill="none" stroke="black" paint-order="fill stroke markers" d=" M 142 359 L 142 355" stroke-linejoin="bevel" stroke-miterlimit="10"/><path fill="none" stroke="black" paint-order="fill stroke markers" d=" M 153 359 L 153 355" stroke-linejoin="bevel" stroke-miterlimit="10"/><path fill="none" stroke="black" paint-order="fill stroke markers" d=" M 163 359 L 163 355" stroke-linejoin="bevel" stroke-miterlimit="10"/><path fill="none" stroke="black" paint-order="fill stroke markers" d=" M 174 359 L 174 355" stroke-linejoin="bevel" stroke-miterlimit="10"/><path fill="none" stroke="black" paint-order="fill stroke markers" d=" M 185 359 L 185 355" stroke-linejoin="bevel" stroke-miterlimit="10"/><path fill="none" stroke="black" paint-order="fill stroke markers" d=" M 196 359 L 196 355" stroke-linejoin="bevel" stroke-miterlimit="10"/><path fill="none" stroke="black" paint-order="fill stroke markers" d=" M 206 359 L 206 355" stroke-linejoin="bevel" stroke-miterlimit="10"/><path fill="none" stroke="black" paint-order="fill stroke markers" d=" M 217 359 L 217 355" stroke-linejoin="bevel" stroke-miterlimit="10"/><path fill="none" stroke="black" paint-order="fill stroke markers" d=" M 228 359 L 228 355" stroke-linejoin="bevel" stroke-miterlimit="10"/><path fill="none" stroke="black" paint-order="fill stroke markers" d=" M 238 359 L 238 355" stroke-linejoin="bevel" stroke-miterlimit="10"/><path fill="none" stroke="black" paint-order="fill stroke markers" d=" M 249 359 L 249 355" stroke-linejoin="bevel" stroke-miterlimit="10"/><path fill="none" stroke="black" paint-order="fill stroke markers" d=" M 260 359 L 260 355" stroke-linejoin="bevel" stroke-miterlimit="10"/><path fill="none" stroke="black" paint-order="fill stroke markers" d=" M 270 359 L 270 355" stroke-linejoin="bevel" stroke-miterlimit="10"/><path fill="none" stroke="black" paint-order="fill stroke markers" d=" M 281 359 L 281 355" stroke-linejoin="bevel" stroke-miterlimit="10"/><path fill="none" stroke="black" paint-order="fill stroke markers" d=" M 292 359 L 292 355" stroke-linejoin="bevel" stroke-miterlimit="10"/><path fill="none" stroke="black" paint-order="fill stroke markers" d=" M 303 359 L 303 355" stroke-linejoin="bevel" stroke-miterlimit="10"/><path fill="none" stroke="black" paint-order="fill stroke markers" d=" M 313 359 L 313 355" stroke-linejoin="bevel" stroke-miterlimit="10"/><path fill="none" stroke="black" paint-order="fill stroke markers" d=" M 324 359 L 324 355" stroke-linejoin="bevel" stroke-miterlimit="10"/><path fill="none" stroke="black" paint-order="fill stroke markers" d=" M 335 359 L 335 355" stroke-linejoin="bevel" stroke-miterlimit="10"/><path fill="none" stroke="black" paint-order="fill stroke markers" d=" M 345 359 L 345 355" stroke-linejoin="bevel" stroke-miterlimit="10"/><path fill="none" stroke="black" paint-order="fill stroke markers" d=" M 356 359 L 356 355" stroke-linejoin="bevel" stroke-miterlimit="10"/><path fill="none" stroke="black" paint-order="fill stroke markers" d=" M 367 359 L 367 355" stroke-linejoin="bevel" stroke-miterlimit="10"/><path fill="none" stroke="black" paint-order="fill stroke markers" d=" M 377 359 L 377 355" stroke-linejoin="bevel" stroke-miterlimit="10"/><path fill="none" stroke="black" paint-order="fill stroke markers" d=" M 388 359 L 388 355" stroke-linejoin="bevel" stroke-miterlimit="10"/><path fill="none" stroke="black" paint-order="fill stroke markers" d=" M 399 359 L 399 355" stroke-linejoin="bevel" stroke-miterlimit="10"/><path fill="none" stroke="black" paint-order="fill stroke markers" d=" M 410 359 L 410 355" stroke-linejoin="bevel" stroke-miterlimit="10"/><path fill="none" stroke="black" paint-order="fill stroke markers" d=" M 420 359 L 420 355" stroke-linejoin="bevel" stroke-miterlimit="10"/><path fill="none" stroke="black" paint-order="fill stroke markers" d=" M 431 359 L 431 355" stroke-linejoin="bevel" stroke-miterlimit="10"/><path fill="none" stroke="black" paint-order="fill stroke markers" d=" M 442 359 L 442 355" stroke-linejoin="bevel" stroke-miterlimit="10"/><path fill="none" stroke="black" paint-order="fill stroke markers" d=" M 452 359 L 452 355" stroke-linejoin="bevel" stroke-miterlimit="10"/><path fill="none" stroke="black" paint-order="fill stroke markers" d=" M 463 359 L 463 355" stroke-linejoin="bevel" stroke-miterlimit="10"/><path fill="none" stroke="black" paint-order="fill stroke markers" d=" M 474 359 L 474 355" stroke-linejoin="bevel" stroke-miterlimit="10"/><path fill="none" stroke="black" paint-order="fill stroke markers" d=" M 484 359 L 484 355" stroke-linejoin="bevel" stroke-miterlimit="10"/><path fill="none" stroke="black" paint-order="fill stroke markers" d=" M 495 359 L 495 355" stroke-linejoin="bevel" stroke-miterlimit="10"/><path fill="none" stroke="black" paint-order="fill stroke markers" d=" M 506 359 L 506 355" stroke-linejoin="bevel" stroke-miterlimit="10"/><path fill="none" stroke="black" paint-order="fill stroke markers" d=" M 517 359 L 517 355" stroke-linejoin="bevel" stroke-miterlimit="10"/><path fill="none" stroke="black" paint-order="fill stroke markers" d=" M 527 359 L 527 355" stroke-linejoin="bevel" stroke-miterlimit="10"/><path fill="none" stroke="black" paint-order="fill stroke markers" d=" M 538 359 L 538 355" stroke-linejoin="bevel" stroke-miterlimit="10"/><path fill="none" stroke="black" paint-order="fill stroke markers" d=" M 549 359 L 549 355" stroke-linejoin="bevel" stroke-miterlimit="10"/><path fill="none" stroke="black" paint-order="fill stroke markers" d=" M 559 359 L 559 355" stroke-linejoin="bevel" stroke-miterlimit="10"/><path fill="" stroke="black" paint-order="fill stroke markers" d=" M 570 359 L 570 355" stroke-linejoin="bevel" stroke-miterlimit="10"/><g transform="translate(142,366) rotate(0,0,0)"><text fill="" stroke="none" font-family="helvetica" font-size="8pt" font-style="normal" font-weight="normal" text-decoration="normal" x="0" y="0" text-anchor="middle" dominant-baseline="hanging">0</text><g transform="rotate(0,0,0) translate(-142,-366) translate(196,366) rotate(0,0,0)"><text fill="" stroke="none" font-family="helvetica" font-size="8pt" font-style="normal" font-weight="normal" text-decoration="normal" x="0" y="0" text-anchor="middle" dominant-baseline="hanging">1</text><g transform="rotate(0,0,0) translate(-196,-366) translate(249,366) rotate(0,0,0)"><text fill="" stroke="none" font-family="helvetica" font-size="8pt" font-style="normal" font-weight="normal" text-decoration="normal" x="0" y="0" text-anchor="middle" dominant-baseline="hanging">2</text><g transform="rotate(0,0,0) translate(-249,-366) translate(303,366) rotate(0,0,0)"><text fill="" stroke="none" font-family="helvetica" font-size="8pt" font-style="normal" font-weight="normal" text-decoration="normal" x="0" y="0" text-anchor="middle" dominant-baseline="hanging">3</text><g transform="rotate(0,0,0) translate(-303,-366) translate(356,366) rotate(0,0,0)"><text fill="" stroke="none" font-family="helvetica" font-size="8pt" font-style="normal" font-weight="normal" text-decoration="normal" x="0" y="0" text-anchor="middle" dominant-baseline="hanging">4</text><g transform="rotate(0,0,0) translate(-356,-366) translate(410,366) rotate(0,0,0)"><text fill="" stroke="none" font-family="helvetica" font-size="8pt" font-style="normal" font-weight="normal" text-decoration="normal" x="0" y="0" text-anchor="middle" dominant-baseline="hanging">5</text><g transform="rotate(0,0,0) translate(-410,-366) translate(463,366) rotate(0,0,0)"><text fill="" stroke="none" font-family="helvetica" font-size="8pt" font-style="normal" font-weight="normal" text-decoration="normal" x="0" y="0" text-anchor="middle" dominant-baseline="hanging">6</text><g transform="rotate(0,0,0) translate(-463,-366) translate(517,366) rotate(0,0,0)"><text fill="" stroke="none" font-family="helvetica" font-size="8pt" font-style="normal" font-weight="normal" text-decoration="normal" x="0" y="0" text-anchor="middle" dominant-baseline="hanging">7</text><g transform="rotate(0,0,0) translate(-517,-366) translate(570,366) rotate(0,0,0)"><text fill="" stroke="none" font-family="helvetica" font-size="8pt" font-style="normal" font-weight="normal" text-decoration="normal" x="0" y="0" text-anchor="middle" dominant-baseline="hanging">8</text><g transform="rotate(0,0,0) translate(-570,-366) translate(356,384) rotate(0,0,0)"><text fill="" stroke="none" font-family="helvetica" font-size="10pt" font-style="italic" font-weight="normal" text-decoration="normal" x="0" y="0" text-anchor="middle" dominant-baseline="hanging">Relative PaQa level</text><g transform="rotate(0,0,0) translate(-356,-384)"/></g></g></g></g></g></g></g></g></g></g></g></g><g><g fill="#444444"><path fill="none" stroke="black" paint-order="fill stroke markers" d=" M 142 355 L 142 29" stroke-linejoin="bevel" stroke-miterlimit="10"/><path fill="none" stroke="black" paint-order="fill stroke markers" d=" M 136 339 L 144 339" stroke-linejoin="bevel" stroke-miterlimit="10"/><path fill="none" stroke="black" paint-order="fill stroke markers" d=" M 136 306 L 144 306" stroke-linejoin="bevel" stroke-miterlimit="10"/><path fill="none" stroke="black" paint-order="fill stroke markers" d=" M 136 274 L 144 274" stroke-linejoin="bevel" stroke-miterlimit="10"/><path fill="none" stroke="black" paint-order="fill stroke markers" d=" M 136 241 L 144 241" stroke-linejoin="bevel" stroke-miterlimit="10"/><path fill="none" stroke="black" paint-order="fill stroke markers" d=" M 136 208 L 144 208" stroke-linejoin="bevel" stroke-miterlimit="10"/><path fill="none" stroke="black" paint-order="fill stroke markers" d=" M 136 176 L 144 176" stroke-linejoin="bevel" stroke-miterlimit="10"/><path fill="none" stroke="black" paint-order="fill stroke markers" d=" M 136 143 L 144 143" stroke-linejoin="bevel" stroke-miterlimit="10"/><path fill="none" stroke="black" paint-order="fill stroke markers" d=" M 136 111 L 144 111" stroke-linejoin="bevel" stroke-miterlimit="10"/><path fill="none" stroke="black" paint-order="fill stroke markers" d=" M 136 78 L 144 78" stroke-linejoin="bevel" stroke-miterlimit="10"/><path fill="" stroke="black" paint-order="fill stroke markers" d=" M 136 45 L 144 45" stroke-linejoin="bevel" stroke-miterlimit="10"/><g transform="translate(131,339) rotate(0,0,0)"><text fill="" stroke="none" font-family="helvetica" font-size="9pt" font-style="normal" font-weight="normal" text-decoration="normal" x="0" y="0" text-anchor="end" dominant-baseline="central">ΔpilJ_pilA_T8V Liquid</text><g transform="rotate(0,0,0) translate(-131,-339) translate(131,306) rotate(0,0,0)"><text fill="" stroke="none" font-family="helvetica" font-size="9pt" font-style="normal" font-weight="normal" text-decoration="normal" x="0" y="0" text-anchor="end" dominant-baseline="central">ΔpilJ Liquid</text><g transform="rotate(0,0,0) translate(-131,-306) translate(131,274) rotate(0,0,0)"><text fill="" stroke="none" font-family="helvetica" font-size="9pt" font-style="normal" font-weight="normal" text-decoration="normal" x="0" y="0" text-anchor="end" dominant-baseline="central">ΔpilT_pilA_T8V Liquid</text><g transform="rotate(0,0,0) translate(-131,-274) translate(131,241) rotate(0,0,0)"><text fill="" stroke="none" font-family="helvetica" font-size="9pt" font-style="normal" font-weight="normal" text-decoration="normal" x="0" y="0" text-anchor="end" dominant-baseline="central">ΔpilT Liquid</text><g transform="rotate(0,0,0) translate(-131,-241) translate(131,208) rotate(0,0,0)"><text fill="" stroke="none" font-family="helvetica" font-size="9pt" font-style="normal" font-weight="normal" text-decoration="normal" x="0" y="0" text-anchor="end" dominant-baseline="central">ΔpilB_pilA_T8V Liquid</text><g transform="rotate(0,0,0) translate(-131,-208) translate(131,176) rotate(0,0,0)"><text fill="" stroke="none" font-family="helvetica" font-size="9pt" font-style="normal" font-weight="normal" text-decoration="normal" x="0" y="0" text-anchor="end" dominant-baseline="central">ΔpilB Liquid</text><g transform="rotate(0,0,0) translate(-131,-176) translate(131,143) rotate(0,0,0)"><text fill="" stroke="none" font-family="helvetica" font-size="9pt" font-style="normal" font-weight="normal" text-decoration="normal" x="0" y="0" text-anchor="end" dominant-baseline="central">ΔpilA Liquid</text><g transform="rotate(0,0,0) translate(-131,-143) translate(131,111) rotate(0,0,0)"><text fill="" stroke="none" font-family="helvetica" font-size="9pt" font-style="normal" font-weight="normal" text-decoration="normal" x="0" y="0" text-anchor="end" dominant-baseline="central">pilA_T8V Liquid</text><g transform="rotate(0,0,0) translate(-131,-111) translate(131,78) rotate(0,0,0)"><text fill="" stroke="none" font-family="helvetica" font-size="9pt" font-style="normal" font-weight="normal" text-decoration="normal" x="0" y="0" text-anchor="end" dominant-baseline="central">WT Solid</text><g transform="rotate(0,0,0) translate(-131,-78) translate(131,45) rotate(0,0,0)"><text fill="" stroke="none" font-family="helvetica" font-size="9pt" font-style="normal" font-weight="normal" text-decoration="normal" x="0" y="0" text-anchor="end" dominant-baseline="central">WT Liquid</text><g transform="rotate(0,0,0) translate(-131,-45)"/></g></g></g></g></g></g></g></g></g></g></g></g><g clip-path="url(#FmdGgEbqNQwB)"><g/></g></g><g/><g/><g/><g/><g/><g/><g/><g/><g/><g/><g/><g/><g/><g/><g/><g/><g/><g/><g/><g/><g/><g/><g/><g/><g/><g/><g/><g/><g/><g/><g/><g/><g/><g/><g/><g/><g/><g/><g/><g/><g/><g/><g/><g/><g/></g></svg>