<svg version="1.1" xmlns="http://www.w3.org/2000/svg" width="600" height="250"><defs><clipPath id="oTQTHpSJxXWQ"><path fill="none" stroke="none" d="M 77.5 27.5 L 570.5 27.5 L 570.5 205.5 L 77.5 205.5 L 77.5 27.5"/></clipPath><clipPath id="FkxNcNmlqalh"><path fill="none" stroke="none" d="M 77.5 27.5 L 570.5 27.5 L 570.5 205.5 L 77.5 205.5 L 77.5 27.5"/></clipPath><clipPath id="SyluquuLEsSI"><path fill="none" stroke="none" d="M 77.5 27.5 L 570.5 27.5 L 570.5 205.5 L 77.5 205.5 L 77.5 27.5"/></clipPath><clipPath id="TCxnoCcIcETJ"><path fill="none" stroke="none" d="M 77.5 27.5 L 570.5 27.5 L 570.5 205.5 L 77.5 205.5 L 77.5 27.5"/></clipPath><clipPath id="BEFXnmPcoTLi"><path fill="none" stroke="none" d="M 77.5 27.5 L 570.5 27.5 L 570.5 205.5 L 77.5 205.5 L 77.5 27.5"/></clipPath><clipPath id="EruTWOasHayI"><path fill="none" stroke="none" d="M 77.5 27.5 L 570.5 27.5 L 570.5 205.5 L 77.5 205.5 L 77.5 27.5"/></clipPath><clipPath id="eDWooMBrxhii"><path fill="none" stroke="none" d="M 77.5 27.5 L 570.5 27.5 L 570.5 205.5 L 77.5 205.5 L 77.5 27.5"/></clipPath><clipPath id="rGkTTFayRTWn"><path fill="none" stroke="none" d="M 77.5 27.5 L 570.5 27.5 L 570.5 205.5 L 77.5 205.5 L 77.5 27.5"/></clipPath><clipPath id="AMKgQKISXtzK"><path fill="none" stroke="none" d="M 77.5 27.5 L 570.5 27.5 L 570.5 205.5 L 77.5 205.5 L 77.5 27.5"/></clipPath><clipPath id="hahkCfEOFoRD"><path fill="none" stroke="none" d="M 77.5 27.5 L 570.5 27.5 L 570.5 205.5 L 77.5 205.5 L 77.5 27.5"/></clipPath><clipPath id="hzwtFnhaAfmI"><path fill="none" stroke="none" d="M 77.5 27.5 L 570.5 27.5 L 570.5 205.5 L 77.5 205.5 L 77.5 27.5"/></clipPath><clipPath id="zyKSAvkpcgDu"><path fill="none" stroke="none" d="M 77.5 27.5 L 570.5 27.5 L 570.5 205.5 L 77.5 205.5 L 77.5 27.5"/></clipPath><clipPath id="VxKqRIQyMGav"><path fill="none" stroke="none" d="M 77.5 27.5 L 570.5 27.5 L 570.5 205.5 L 77.5 205.5 L 77.5 27.5"/></clipPath><clipPath id="thxOcDWCqrMT"><path fill="none" stroke="none" d="M 77.5 27.5 L 570.5 27.5 L 570.5 205.5 L 77.5 205.5 L 77.5 27.5"/></clipPath><clipPath id="QIRTyOrIoLHC"><path fill="none" stroke="none" d="M 77.5 27.5 L 570.5 27.5 L 570.5 205.5 L 77.5 205.5 L 77.5 27.5"/></clipPath><clipPath id="RrDeoAqABfXO"><path fill="none" stroke="none" d="M 77.5 27.5 L 570.5 27.5 L 570.5 205.5 L 77.5 205.5 L 77.5 27.5"/></clipPath><clipPath id="PdizmKucnZig"><path fill="none" stroke="none" d="M 77.5 27.5 L 570.5 27.5 L 570.5 205.5 L 77.5 205.5 L 77.5 27.5"/></clipPath></defs><path fill="rgb(255,255,255)" stroke="none" paint-order="stroke" d="M 0.5 0.5 L 600.5 0.5 L 600.5 250.5 L 0.5 250.5 L 0.5 0.5" fill-opacity="1"/><rect fill="#FFFFFF" stroke="none" x="77" y="27" width="493" height="178" transform="matrix(1, 0, 0, 1, 0.5, 0.5)"/><path fill="rgb(255,255,255)" stroke="none" paint-order="stroke" d="M 77.5 27.5 L 570.5 27.5 L 570.5 205.5 L 77.5 205.5 L 77.5 27.5" fill-opacity="1"/><path fill="none" stroke="rgb(229,229,229)" paint-order="fill" d="M 77.5 27.5 L 570.5 27.5 L 570.5 205.5 L 77.5 205.5 L 77.5 27.5" stroke-opacity="1" stroke-linejoin="bevel" stroke-miterlimit="10" stroke-dasharray=""/><path fill="rgb(0,0,0)" stroke="rgb(0,0,0)" paint-order="fill" d="M 169.32542419433594 49.75 A 5 5 0 1 1 169.32542169433614 49.74500000083333" fill-opacity="1" clip-path="url(#SyluquuLEsSI)" stroke-opacity="1" stroke-linejoin="bevel" stroke-miterlimit="10" stroke-dasharray=""/><path fill="rgb(0,0,0)" stroke="rgb(0,0,0)" paint-order="fill" d="M 140.30850219726562 49.75 A 5 5 0 1 1 140.30849969726583 49.74500000083333" fill-opacity="1" clip-path="url(#SyluquuLEsSI)" stroke-opacity="1" stroke-linejoin="bevel" stroke-miterlimit="10" stroke-dasharray=""/><path fill="rgb(0,0,0)" stroke="rgb(0,0,0)" paint-order="fill" d="M 175.834716796875 49.75 A 5 5 0 1 1 175.8347142968752 49.74500000083333" fill-opacity="1" clip-path="url(#SyluquuLEsSI)" stroke-opacity="1" stroke-linejoin="bevel" stroke-miterlimit="10" stroke-dasharray=""/><path fill="rgb(0,0,0)" stroke="rgb(0,0,0)" paint-order="fill" d="M 185.73240661621094 49.75 A 5 5 0 1 1 185.73240411621114 49.74500000083333" fill-opacity="1" clip-path="url(#SyluquuLEsSI)" stroke-opacity="1" stroke-linejoin="bevel" stroke-miterlimit="10" stroke-dasharray=""/><path fill="rgb(0,0,0)" stroke="rgb(0,0,0)" paint-order="fill" d="M 199.43060302734375 49.75 A 5 5 0 1 1 199.43060052734396 49.74500000083333" fill-opacity="1" clip-path="url(#SyluquuLEsSI)" stroke-opacity="1" stroke-linejoin="bevel" stroke-miterlimit="10" stroke-dasharray=""/><path fill="rgb(0,0,0)" stroke="rgb(0,0,0)" paint-order="fill" d="M 158.72743225097656 49.75 A 5 5 0 1 1 158.72742975097677 49.74500000083333" fill-opacity="1" clip-path="url(#SyluquuLEsSI)" stroke-opacity="1" stroke-linejoin="bevel" stroke-miterlimit="10" stroke-dasharray=""/><path fill="rgb(0,0,0)" stroke="rgb(0,0,0)" paint-order="fill" d="M 159.5318603515625 49.75 A 5 5 0 1 1 159.5318578515627 49.74500000083333" fill-opacity="1" clip-path="url(#SyluquuLEsSI)" stroke-opacity="1" stroke-linejoin="bevel" stroke-miterlimit="10" stroke-dasharray=""/><path fill="rgb(0,0,0)" stroke="rgb(0,0,0)" paint-order="fill" d="M 147.02780151367188 49.75 A 5 5 0 1 1 147.02779901367208 49.74500000083333" fill-opacity="1" clip-path="url(#SyluquuLEsSI)" stroke-opacity="1" stroke-linejoin="bevel" stroke-miterlimit="10" stroke-dasharray=""/><path fill="rgb(0,0,0)" stroke="rgb(0,0,0)" paint-order="fill" d="M 146.0812530517578 49.75 A 5 5 0 1 1 146.08125055175802 49.74500000083333" fill-opacity="1" clip-path="url(#SyluquuLEsSI)" stroke-opacity="1" stroke-linejoin="bevel" stroke-miterlimit="10" stroke-dasharray=""/><path fill="none" stroke="rgb(0,0,0)" paint-order="fill" d="M 159.6666717529297 58.650001525878906 L 159.6666717529297 40.849998474121094" stroke-opacity="1" stroke-linejoin="bevel" stroke-miterlimit="10" stroke-width="3" stroke-dasharray="" clip-path="url(#TCxnoCcIcETJ)"/><path fill="rgb(47,79,79)" stroke="rgb(0,0,0)" paint-order="fill" d="M 485.75103759765625 94.25 A 5 5 0 1 1 485.7510350976565 94.24500000083333" fill-opacity="1" clip-path="url(#BEFXnmPcoTLi)" stroke-opacity="1" stroke-linejoin="bevel" stroke-miterlimit="10" stroke-dasharray=""/><path fill="rgb(47,79,79)" stroke="rgb(0,0,0)" paint-order="fill" d="M 451.6039123535156 94.25 A 5 5 0 1 1 451.60390985351586 94.24500000083333" fill-opacity="1" clip-path="url(#BEFXnmPcoTLi)" stroke-opacity="1" stroke-linejoin="bevel" stroke-miterlimit="10" stroke-dasharray=""/><path fill="rgb(47,79,79)" stroke="rgb(0,0,0)" paint-order="fill" d="M 467.78173828125 94.25 A 5 5 0 1 1 467.78173578125023 94.24500000083333" fill-opacity="1" clip-path="url(#BEFXnmPcoTLi)" stroke-opacity="1" stroke-linejoin="bevel" stroke-miterlimit="10" stroke-dasharray=""/><path fill="rgb(47,79,79)" stroke="rgb(0,0,0)" paint-order="fill" d="M 501.5643310546875 94.25 A 5 5 0 1 1 501.56432855468773 94.24500000083333" fill-opacity="1" clip-path="url(#BEFXnmPcoTLi)" stroke-opacity="1" stroke-linejoin="bevel" stroke-miterlimit="10" stroke-dasharray=""/><path fill="rgb(47,79,79)" stroke="rgb(0,0,0)" paint-order="fill" d="M 478.1396484375 94.25 A 5 5 0 1 1 478.13964593750023 94.24500000083333" fill-opacity="1" clip-path="url(#BEFXnmPcoTLi)" stroke-opacity="1" stroke-linejoin="bevel" stroke-miterlimit="10" stroke-dasharray=""/><path fill="rgb(47,79,79)" stroke="rgb(0,0,0)" paint-order="fill" d="M 400.1646423339844 94.25 A 5 5 0 1 1 400.1646398339846 94.24500000083333" fill-opacity="1" clip-path="url(#BEFXnmPcoTLi)" stroke-opacity="1" stroke-linejoin="bevel" stroke-miterlimit="10" stroke-dasharray=""/><path fill="rgb(47,79,79)" stroke="rgb(0,0,0)" paint-order="fill" d="M 394.4268493652344 94.25 A 5 5 0 1 1 394.4268468652346 94.24500000083333" fill-opacity="1" clip-path="url(#BEFXnmPcoTLi)" stroke-opacity="1" stroke-linejoin="bevel" stroke-miterlimit="10" stroke-dasharray=""/><path fill="rgb(47,79,79)" stroke="rgb(0,0,0)" paint-order="fill" d="M 417.6740417480469 94.25 A 5 5 0 1 1 417.6740392480471 94.24500000083333" fill-opacity="1" clip-path="url(#BEFXnmPcoTLi)" stroke-opacity="1" stroke-linejoin="bevel" stroke-miterlimit="10" stroke-dasharray=""/><path fill="rgb(47,79,79)" stroke="rgb(0,0,0)" paint-order="fill" d="M 390.8294372558594 94.25 A 5 5 0 1 1 390.8294347558596 94.24500000083333" fill-opacity="1" clip-path="url(#BEFXnmPcoTLi)" stroke-opacity="1" stroke-linejoin="bevel" stroke-miterlimit="10" stroke-dasharray=""/><path fill="none" stroke="rgb(0,0,0)" paint-order="fill" d="M 438.1039733886719 103.1500015258789 L 438.1039733886719 85.3499984741211" stroke-opacity="1" stroke-linejoin="bevel" stroke-miterlimit="10" stroke-width="3" stroke-dasharray="" clip-path="url(#EruTWOasHayI)"/><path fill="rgb(211,211,211)" stroke="rgb(0,0,0)" paint-order="fill" d="M 135.93423461914062 138.75 A 5 5 0 1 1 135.93423211914083 138.74500000083333" fill-opacity="1" clip-path="url(#eDWooMBrxhii)" stroke-opacity="1" stroke-linejoin="bevel" stroke-miterlimit="10" stroke-dasharray=""/><path fill="rgb(211,211,211)" stroke="rgb(0,0,0)" paint-order="fill" d="M 134.81497192382812 138.75 A 5 5 0 1 1 134.81496942382833 138.74500000083333" fill-opacity="1" clip-path="url(#eDWooMBrxhii)" stroke-opacity="1" stroke-linejoin="bevel" stroke-miterlimit="10" stroke-dasharray=""/><path fill="rgb(211,211,211)" stroke="rgb(0,0,0)" paint-order="fill" d="M 142.59182739257812 138.75 A 5 5 0 1 1 142.59182489257833 138.74500000083333" fill-opacity="1" clip-path="url(#eDWooMBrxhii)" stroke-opacity="1" stroke-linejoin="bevel" stroke-miterlimit="10" stroke-dasharray=""/><path fill="none" stroke="rgb(0,0,0)" paint-order="fill" d="M 132.78033447265625 152.09999084472656 L 132.78033447265625 125.4000015258789" stroke-opacity="1" stroke-linejoin="bevel" stroke-miterlimit="10" stroke-width="3" stroke-dasharray="" clip-path="url(#rGkTTFayRTWn)"/><path fill="none" stroke="rgb(0,0,0)" paint-order="fill" d="" stroke-opacity="1" stroke-linejoin="bevel" stroke-miterlimit="10" stroke-width="3" stroke-dasharray="" clip-path="url(#hahkCfEOFoRD)"/><path fill="rgb(128,0,128)" stroke="rgb(0,0,0)" paint-order="fill" d="M 126.3275146484375 183.25 A 5 5 0 1 1 126.3275121484377 183.24500000083333" fill-opacity="1" clip-path="url(#hzwtFnhaAfmI)" stroke-opacity="1" stroke-linejoin="bevel" stroke-miterlimit="10" stroke-dasharray=""/><path fill="rgb(128,0,128)" stroke="rgb(0,0,0)" paint-order="fill" d="M 126.5184326171875 183.25 A 5 5 0 1 1 126.5184301171877 183.24500000083333" fill-opacity="1" clip-path="url(#hzwtFnhaAfmI)" stroke-opacity="1" stroke-linejoin="bevel" stroke-miterlimit="10" stroke-dasharray=""/><path fill="rgb(128,0,128)" stroke="rgb(0,0,0)" paint-order="fill" d="M 126.84087371826172 183.25 A 5 5 0 1 1 126.84087121826192 183.24500000083333" fill-opacity="1" clip-path="url(#hzwtFnhaAfmI)" stroke-opacity="1" stroke-linejoin="bevel" stroke-miterlimit="10" stroke-dasharray=""/><path fill="none" stroke="rgb(0,0,0)" paint-order="fill" d="M 121.5622787475586 196.60000610351562 L 121.5622787475586 169.89999389648438" stroke-opacity="1" stroke-linejoin="bevel" stroke-miterlimit="10" stroke-width="3" stroke-dasharray="" clip-path="url(#zyKSAvkpcgDu)"/><path fill="none" stroke="rgb(0,0,0)" paint-order="fill" d="" stroke-opacity="1" stroke-linejoin="bevel" stroke-miterlimit="10" stroke-width="3" stroke-dasharray="" clip-path="url(#thxOcDWCqrMT)"/><path fill="none" stroke="rgb(0,0,0)" paint-order="fill" d="M 159.6666717529297 205.5 L 159.6666717529297 27.5" stroke-opacity="1" stroke-linejoin="bevel" stroke-miterlimit="10" stroke-dasharray="2,4" clip-path="url(#QIRTyOrIoLHC)"/><path fill="none" stroke="rgb(0,0,0)" paint-order="fill" d="M 77.5 205.5 L 570.5 205.5" stroke-opacity="1" stroke-linejoin="bevel" stroke-miterlimit="10" stroke-dasharray=""/><path fill="none" stroke="rgb(0,0,0)" paint-order="fill" d="M 77.5 211.5 L 77.5 203.5 M 159.5 211.5 L 159.5 203.5 M 241.5 211.5 L 241.5 203.5 M 324.5 211.5 L 324.5 203.5 M 406.5 211.5 L 406.5 203.5 M 488.5 211.5 L 488.5 203.5 M 570.5 211.5 L 570.5 203.5" stroke-opacity="1" stroke-linejoin="bevel" stroke-miterlimit="10" stroke-dasharray=""/><path fill="none" stroke="rgb(0,0,0)" paint-order="fill" d="M 77.5 209.5 L 77.5 205.5 M 93.5 209.5 L 93.5 205.5 M 110.5 209.5 L 110.5 205.5 M 126.5 209.5 L 126.5 205.5 M 143.5 209.5 L 143.5 205.5 M 159.5 209.5 L 159.5 205.5 M 176.5 209.5 L 176.5 205.5 M 192.5 209.5 L 192.5 205.5 M 208.5 209.5 L 208.5 205.5 M 225.5 209.5 L 225.5 205.5 M 241.5 209.5 L 241.5 205.5 M 258.5 209.5 L 258.5 205.5 M 274.5 209.5 L 274.5 205.5 M 291.5 209.5 L 291.5 205.5 M 307.5 209.5 L 307.5 205.5 M 324.5 209.5 L 324.5 205.5 M 340.5 209.5 L 340.5 205.5 M 356.5 209.5 L 356.5 205.5 M 373.5 209.5 L 373.5 205.5 M 389.5 209.5 L 389.5 205.5 M 406.5 209.5 L 406.5 205.5 M 422.5 209.5 L 422.5 205.5 M 439.5 209.5 L 439.5 205.5 M 455.5 209.5 L 455.5 205.5 M 471.5 209.5 L 471.5 205.5 M 488.5 209.5 L 488.5 205.5 M 504.5 209.5 L 504.5 205.5 M 521.5 209.5 L 521.5 205.5 M 537.5 209.5 L 537.5 205.5 M 554.5 209.5 L 554.5 205.5 M 570.5 209.5 L 570.5 205.5" stroke-opacity="1" stroke-linejoin="bevel" stroke-miterlimit="10" stroke-dasharray=""/><text fill="rgb(68,68,68)" stroke="none" font-family="helvetica" font-size="11px" font-style="normal" font-weight="normal" text-decoration="normal" x="73.941162109375" y="224" text-anchor="start" dominant-baseline="alphabetic" transform="matrix(1, 0, 0, 1, 0.5, 0.5)" fill-opacity="1">0</text><text fill="rgb(68,68,68)" stroke="none" font-family="helvetica" font-size="11px" font-style="normal" font-weight="normal" text-decoration="normal" x="156.1078338623047" y="224" text-anchor="start" dominant-baseline="alphabetic" transform="matrix(1, 0, 0, 1, 0.5, 0.5)" fill-opacity="1">1</text><text fill="rgb(68,68,68)" stroke="none" font-family="helvetica" font-size="11px" font-style="normal" font-weight="normal" text-decoration="normal" x="238.2744903564453" y="224" text-anchor="start" dominant-baseline="alphabetic" transform="matrix(1, 0, 0, 1, 0.5, 0.5)" fill-opacity="1">2</text><text fill="rgb(68,68,68)" stroke="none" font-family="helvetica" font-size="11px" font-style="normal" font-weight="normal" text-decoration="normal" x="320.441162109375" y="224" text-anchor="start" dominant-baseline="alphabetic" transform="matrix(1, 0, 0, 1, 0.5, 0.5)" fill-opacity="1">3</text><text fill="rgb(68,68,68)" stroke="none" font-family="helvetica" font-size="11px" font-style="normal" font-weight="normal" text-decoration="normal" x="402.6078186035156" y="224" text-anchor="start" dominant-baseline="alphabetic" transform="matrix(1, 0, 0, 1, 0.5, 0.5)" fill-opacity="1">4</text><text fill="rgb(68,68,68)" stroke="none" font-family="helvetica" font-size="11px" font-style="normal" font-weight="normal" text-decoration="normal" x="484.7745056152344" y="224" text-anchor="start" dominant-baseline="alphabetic" transform="matrix(1, 0, 0, 1, 0.5, 0.5)" fill-opacity="1">5</text><text fill="rgb(68,68,68)" stroke="none" font-family="helvetica" font-size="11px" font-style="normal" font-weight="normal" text-decoration="normal" x="566.941162109375" y="224" text-anchor="start" dominant-baseline="alphabetic" transform="matrix(1, 0, 0, 1, 0.5, 0.5)" fill-opacity="1">6</text><text fill="rgb(68,68,68)" stroke="none" font-family="helvetica" font-size="13px" font-style="italic" font-weight="normal" text-decoration="normal" x="266.41552734375" y="244" text-anchor="start" dominant-baseline="alphabetic" transform="matrix(1, 0, 0, 1, 0.5, 0.5)" fill-opacity="1">Relative PaQa level</text><path fill="none" stroke="rgb(0,0,0)" paint-order="fill" d="M 77.5 205.5 L 77.5 27.5" stroke-opacity="1" stroke-linejoin="bevel" stroke-miterlimit="10" stroke-dasharray=""/><path fill="none" stroke="rgb(0,0,0)" paint-order="fill" d="M 71.5 183.5 L 79.5 183.5 M 71.5 138.5 L 79.5 138.5 M 71.5 94.5 L 79.5 94.5 M 71.5 49.5 L 79.5 49.5" stroke-opacity="1" stroke-linejoin="bevel" stroke-miterlimit="10" stroke-dasharray=""/><text fill="rgb(68,68,68)" stroke="none" font-family="helvetica" font-size="9pt" font-style="normal" font-weight="normal" text-decoration="normal" x="4.6171875" y="186.75" text-anchor="start" dominant-baseline="alphabetic" transform="matrix(1, 0, 0, 1, 0.5, 0.5)" fill-opacity="1">ΔpilJ Liquid</text><text fill="rgb(68,68,68)" stroke="none" font-family="helvetica" font-size="9pt" font-style="normal" font-weight="normal" text-decoration="normal" x="2.61328125" y="142.25" text-anchor="start" dominant-baseline="alphabetic" transform="matrix(1, 0, 0, 1, 0.5, 0.5)" fill-opacity="1">ΔpilA Liquid</text><text fill="rgb(68,68,68)" stroke="none" font-family="helvetica" font-size="9pt" font-style="normal" font-weight="normal" text-decoration="normal" x="17.326171875" y="97.75" text-anchor="start" dominant-baseline="alphabetic" transform="matrix(1, 0, 0, 1, 0.5, 0.5)" fill-opacity="1">WT Solid</text><text fill="rgb(68,68,68)" stroke="none" font-family="helvetica" font-size="9pt" font-style="normal" font-weight="normal" text-decoration="normal" x="11.982421875" y="53.25" text-anchor="start" dominant-baseline="alphabetic" transform="matrix(1, 0, 0, 1, 0.5, 0.5)" fill-opacity="1">WT Liquid</text><path fill="rgb(255,255,255)" stroke="rgb(229,229,229)" paint-order="fill" d="M 402.7783203125 37.5 L 560.5 37.5 L 560.5 123.5 L 402.7783203125 123.5 L 402.7783203125 37.5" fill-opacity="0.9490196078431372" clip-path="url(#RrDeoAqABfXO)" stroke-opacity="0.5019607843137255" stroke-linejoin="bevel" stroke-miterlimit="10" stroke-dasharray=""/><g clip-path="url(#RrDeoAqABfXO)"><text fill="rgb(68,68,68)" stroke="none" font-family="helvetica" font-size="13px" font-style="normal" font-weight="normal" text-decoration="normal" x="437.2783203125" y="57" text-anchor="start" dominant-baseline="central" transform="matrix(1, 0, 0, 1, 0.5, 0.5)" fill-opacity="1">mean</text></g><path fill="none" stroke="rgb(0,0,0)" paint-order="fill" d="M 412.7783203125 57.5 L 432.7783203125 57.5" stroke-opacity="1" stroke-linejoin="bevel" stroke-miterlimit="10" stroke-width="3" stroke-dasharray="" clip-path="url(#RrDeoAqABfXO)"/><g clip-path="url(#RrDeoAqABfXO)"><text fill="rgb(68,68,68)" stroke="none" font-family="helvetica" font-size="13px" font-style="normal" font-weight="normal" text-decoration="normal" x="437.2783203125" y="80" text-anchor="start" dominant-baseline="central" transform="matrix(1, 0, 0, 1, 0.5, 0.5)" fill-opacity="1">means of replicates</text></g><path fill="rgb(211,211,211)" stroke="rgb(0,0,0)" paint-order="fill" d="M 426.7783203125 80.5 A 4 4 0 1 1 426.7783183125002 80.49600000066667" fill-opacity="1" clip-path="url(#RrDeoAqABfXO)" stroke-opacity="1" stroke-linejoin="bevel" stroke-miterlimit="10" stroke-dasharray=""/><path fill="rgb(128,0,128)" stroke="rgb(0,0,0)" paint-order="fill" d="M 426.7783203125 80.5 A 4 4 0 1 1 426.7783183125002 80.49600000066667" fill-opacity="1" clip-path="url(#RrDeoAqABfXO)" stroke-opacity="1" stroke-linejoin="bevel" stroke-miterlimit="10" stroke-dasharray=""/><g clip-path="url(#RrDeoAqABfXO)"><text fill="rgb(68,68,68)" stroke="none" font-family="helvetica" font-size="13px" font-style="normal" font-weight="normal" text-decoration="normal" x="437.2783203125" y="103" text-anchor="start" dominant-baseline="central" transform="matrix(1, 0, 0, 1, 0.5, 0.5)" fill-opacity="1">Reference</text></g><path fill="none" stroke="rgb(0,0,0)" paint-order="fill" d="M 412.7783203125 103.5 L 432.7783203125 103.5" stroke-opacity="1" stroke-linejoin="bevel" stroke-miterlimit="10" stroke-dasharray="2,4" clip-path="url(#RrDeoAqABfXO)"/><text fill="rgb(68,68,68)" stroke="none" font-family="helvetica" font-size="13px" font-style="normal" font-weight="bold" text-decoration="normal" x="77" y="19" text-anchor="start" dominant-baseline="alphabetic" transform="matrix(1, 0, 0, 1, 0.5, 0.5)" fill-opacity="1"> PaQa_ratio on Liquid vs. Solid in linear scale</text></svg>