<svg version="1.1" xmlns="http://www.w3.org/2000/svg" xmlns:xlink="http://www.w3.org/1999/xlink" width="450" height="400" style="width: 450px; height: 400px;"><defs><clipPath id="iOhlHBgqorou"><path fill="none" stroke="none" d=" M 27 29 L 420 29 L 420 376 L 27 376 L 27 29 Z"/></clipPath><clipPath id="RFARhtPZCpgT"><path fill="none" stroke="none" d=" M 27 29 L 420 29 L 420 376 L 27 376 L 27 29 Z"/></clipPath><clipPath id="kMExxGcTwwob"><path fill="none" stroke="none" d=" M 27 29 L 420 29 L 420 376 L 27 376 L 27 29 Z"/></clipPath><clipPath id="eMAfPXOpCLdG"><path fill="none" stroke="none" d=" M 27 29 L 420 29 L 420 376 L 27 376 L 27 29 Z"/></clipPath><clipPath id="kSZUilvCtNCa"><path fill="none" stroke="none" d=" M 27 29 L 420 29 L 420 376 L 27 376 L 27 29 Z"/></clipPath><clipPath id="OdlanMeTzTqy"><path fill="none" stroke="none" d=" M 27 29 L 420 29 L 420 376 L 27 376 L 27 29 Z"/></clipPath><clipPath id="PxpCTycXkkJx"><path fill="none" stroke="none" d=" M 27 29 L 420 29 L 420 376 L 27 376 L 27 29 Z"/></clipPath></defs><g><g transform="scale(1,1) translate(0.5,0.5)"><rect fill="#FFFFFF" stroke="none" x="0" y="0" width="450" height="400"/><rect fill="#ffffff" stroke="none" x="0" y="0" width="450" height="400"/><rect fill="#FFFFFF" stroke="none" x="27" y="29" width="393" height="347"/><rect fill="#ffffff" stroke="none" x="27" y="29" width="393" height="347"/><g><rect fill="none" stroke="#e5e5e5" x="27" y="29" width="393" height="347" stroke-linejoin="bevel" stroke-miterlimit="10"/></g><g clip-path="url(#iOhlHBgqorou)"><g><g/></g></g><g clip-path="url(#RFARhtPZCpgT)"><g><g><path fill="none" stroke="#e5e5e5" paint-order="fill stroke markers" d=" M 27 313 L 420 313" stroke-linejoin="bevel" stroke-miterlimit="10"/><path fill="none" stroke="#e5e5e5" paint-order="fill stroke markers" d=" M 27 250 L 420 250" stroke-linejoin="bevel" stroke-miterlimit="10"/><path fill="none" stroke="#e5e5e5" paint-order="fill stroke markers" d=" M 27 187 L 420 187" stroke-linejoin="bevel" stroke-miterlimit="10"/><path fill="none" stroke="#e5e5e5" paint-order="fill stroke markers" d=" M 27 124 L 420 124" stroke-linejoin="bevel" stroke-miterlimit="10"/><path fill="none" stroke="#e5e5e5" paint-order="fill stroke markers" d=" M 27 61 L 420 61" stroke-linejoin="bevel" stroke-miterlimit="10"/></g></g></g><g clip-path="url(#kMExxGcTwwob)"><g><g><path fill="none" stroke="none"/><path fill="gainsboro" stroke="none" paint-order="stroke fill markers" d=" M 58.261363636363626 180.91626794258374 L 76.125 180.91626794258374 L 76.125 376 L 58.261363636363626 376 L 58.261363636363626 180.91626794258374 Z"/><path fill="none" stroke="gainsboro" paint-order="fill stroke markers" d=" M 58.261363636363626 180.91626794258374 L 76.125 180.91626794258374 L 76.125 376 L 58.261363636363626 376 L 58.261363636363626 180.91626794258374 Z" stroke-linejoin="bevel" stroke-miterlimit="10"/><path fill="gainsboro" stroke="none" paint-order="stroke fill markers" d=" M 147.57954545454544 171.15938606847698 L 165.4431818181818 171.15938606847698 L 165.4431818181818 376 L 147.57954545454544 376 L 147.57954545454544 171.15938606847698 Z"/><path fill="none" stroke="gainsboro" paint-order="fill stroke markers" d=" M 147.57954545454544 171.15938606847698 L 165.4431818181818 171.15938606847698 L 165.4431818181818 376 L 147.57954545454544 376 L 147.57954545454544 171.15938606847698 Z" stroke-linejoin="bevel" stroke-miterlimit="10"/><path fill="gainsboro" stroke="none" paint-order="stroke fill markers" d=" M 236.89772727272725 231.5750273822563 L 254.76136363636363 231.5750273822563 L 254.76136363636363 376 L 236.89772727272725 376 L 236.89772727272725 231.5750273822563 Z"/><path fill="none" stroke="gainsboro" paint-order="fill stroke markers" d=" M 236.89772727272725 231.5750273822563 L 254.76136363636363 231.5750273822563 L 254.76136363636363 376 L 236.89772727272725 376 L 236.89772727272725 231.5750273822563 Z" stroke-linejoin="bevel" stroke-miterlimit="10"/><path fill="gainsboro" stroke="none" paint-order="stroke fill markers" d=" M 326.21590909090907 220.04494382022474 L 344.07954545454544 220.04494382022474 L 344.07954545454544 376 L 326.21590909090907 376 L 326.21590909090907 220.04494382022474 Z"/><path fill="none" stroke="gainsboro" paint-order="fill stroke markers" d=" M 326.21590909090907 220.04494382022474 L 344.07954545454544 220.04494382022474 L 344.07954545454544 376 L 326.21590909090907 376 L 326.21590909090907 220.04494382022474 Z" stroke-linejoin="bevel" stroke-miterlimit="10"/></g></g></g><g clip-path="url(#eMAfPXOpCLdG)"><g><g><path fill="none" stroke="none"/><path fill="darkgrey" stroke="none" paint-order="stroke fill markers" d=" M 80.5909090909091 276.38277511961724 L 98.45454545454544 276.38277511961724 L 98.45454545454544 376 L 80.5909090909091 376 L 80.5909090909091 276.38277511961724 Z"/><path fill="none" stroke="darkgrey" paint-order="fill stroke markers" d=" M 80.5909090909091 276.38277511961724 L 98.45454545454544 276.38277511961724 L 98.45454545454544 376 L 80.5909090909091 376 L 80.5909090909091 276.38277511961724 Z" stroke-linejoin="bevel" stroke-miterlimit="10"/><path fill="darkgrey" stroke="none" paint-order="stroke fill markers" d=" M 169.90909090909088 277.6765053128689 L 187.77272727272725 277.6765053128689 L 187.77272727272725 376 L 169.90909090909088 376 L 169.90909090909088 277.6765053128689 Z"/><path fill="none" stroke="darkgrey" paint-order="fill stroke markers" d=" M 169.90909090909088 277.6765053128689 L 187.77272727272725 277.6765053128689 L 187.77272727272725 376 L 169.90909090909088 376 L 169.90909090909088 277.6765053128689 Z" stroke-linejoin="bevel" stroke-miterlimit="10"/><path fill="darkgrey" stroke="none" paint-order="stroke fill markers" d=" M 259.2272727272727 235.37568455640746 L 277.09090909090907 235.37568455640746 L 277.09090909090907 376 L 259.2272727272727 376 L 259.2272727272727 235.37568455640746 Z"/><path fill="none" stroke="darkgrey" paint-order="fill stroke markers" d=" M 259.2272727272727 235.37568455640746 L 277.09090909090907 235.37568455640746 L 277.09090909090907 376 L 259.2272727272727 376 L 259.2272727272727 235.37568455640746 Z" stroke-linejoin="bevel" stroke-miterlimit="10"/><path fill="darkgrey" stroke="none" paint-order="stroke fill markers" d=" M 348.5454545454545 251.94484167517874 L 366.409090909091 251.94484167517874 L 366.409090909091 376 L 348.5454545454545 376 L 348.5454545454545 251.94484167517874 Z"/><path fill="none" stroke="darkgrey" paint-order="fill stroke markers" d=" M 348.5454545454545 251.94484167517874 L 366.409090909091 251.94484167517874 L 366.409090909091 376 L 348.5454545454545 376 L 348.5454545454545 251.94484167517874 Z" stroke-linejoin="bevel" stroke-miterlimit="10"/></g></g></g><g clip-path="url(#kSZUilvCtNCa)"><g><g><path fill="none" stroke="none"/><path fill="black" stroke="none" paint-order="stroke fill markers" d=" M 102.92045454545453 355.2464114832536 L 120.7840909090909 355.2464114832536 L 120.7840909090909 376 L 102.92045454545453 376 L 102.92045454545453 355.2464114832536 Z"/><path fill="none" stroke="black" paint-order="fill stroke markers" d=" M 102.92045454545453 355.2464114832536 L 120.7840909090909 355.2464114832536 L 120.7840909090909 376 L 102.92045454545453 376 L 102.92045454545453 355.2464114832536 Z" stroke-linejoin="bevel" stroke-miterlimit="10"/><path fill="black" stroke="none" paint-order="stroke fill markers" d=" M 192.23863636363635 363.7095631641086 L 210.10227272727278 363.7095631641086 L 210.10227272727278 376 L 192.23863636363635 376 L 192.23863636363635 363.7095631641086 Z"/><path fill="none" stroke="black" paint-order="fill stroke markers" d=" M 192.23863636363635 363.7095631641086 L 210.10227272727278 363.7095631641086 L 210.10227272727278 376 L 192.23863636363635 376 L 192.23863636363635 363.7095631641086 Z" stroke-linejoin="bevel" stroke-miterlimit="10"/><path fill="black" stroke="none" paint-order="stroke fill markers" d=" M 281.55681818181813 345.5947426067908 L 299.4204545454546 345.5947426067908 L 299.4204545454546 376 L 281.55681818181813 376 L 281.55681818181813 345.5947426067908 Z"/><path fill="none" stroke="black" paint-order="fill stroke markers" d=" M 281.55681818181813 345.5947426067908 L 299.4204545454546 345.5947426067908 L 299.4204545454546 376 L 281.55681818181813 376 L 281.55681818181813 345.5947426067908 Z" stroke-linejoin="bevel" stroke-miterlimit="10"/><path fill="black" stroke="none" paint-order="stroke fill markers" d=" M 370.875 340.55566905005105 L 388.7386363636364 340.55566905005105 L 388.7386363636364 376 L 370.875 376 L 370.875 340.55566905005105 Z"/><path fill="none" stroke="black" paint-order="fill stroke markers" d=" M 370.875 340.55566905005105 L 388.7386363636364 340.55566905005105 L 388.7386363636364 376 L 370.875 376 L 370.875 340.55566905005105 Z" stroke-linejoin="bevel" stroke-miterlimit="10"/></g></g></g><g clip-path="url(#OdlanMeTzTqy)"><g><g/><g><path fill="#ffffff" stroke="#e5e5e5" paint-order="fill stroke markers" d=" M 37 39 L 231.3358917236328 39 L 231.3358917236328 79 L 37 79 L 37 39 Z" fill-opacity="0.95" stroke-linejoin="bevel" stroke-miterlimit="10" stroke-opacity="0.5"/><text fill="#444444" stroke="none" font-family="helvetica" font-size="10pt" font-style="normal" font-weight="normal" text-decoration="normal" x="72" y="59" text-anchor="start" dominant-baseline="central">Bright</text><rect fill="gainsboro" stroke="none" x="49" y="51" width="16" height="16"/><path fill="none" stroke="gainsboro" paint-order="fill stroke markers" d=" M 49 51 L 65 51 L 65 67 L 49 67 L 49 51 Z" stroke-linejoin="bevel" stroke-miterlimit="10"/><text fill="#444444" stroke="none" font-family="helvetica" font-size="10pt" font-style="normal" font-weight="normal" text-decoration="normal" x="134.8219451904297" y="59" text-anchor="start" dominant-baseline="central">Dim</text><rect fill="darkgrey" stroke="none" x="111.82194519042969" y="51" width="16" height="16"/><path fill="none" stroke="darkgrey" paint-order="fill stroke markers" d=" M 111.82194519042969 51 L 127.82194519042969 51 L 127.82194519042969 67 L 111.82194519042969 67 L 111.82194519042969 51 Z" stroke-linejoin="bevel" stroke-miterlimit="10"/><text fill="#444444" stroke="none" font-family="helvetica" font-size="10pt" font-style="normal" font-weight="normal" text-decoration="normal" x="186.513916015625" y="59" text-anchor="start" dominant-baseline="central">Same</text><rect fill="black" stroke="none" x="163.513916015625" y="51" width="16" height="16"/><path fill="none" stroke="black" paint-order="fill stroke markers" d=" M 163.513916015625 51 L 179.513916015625 51 L 179.513916015625 67 L 163.513916015625 67 L 163.513916015625 51 Z" stroke-linejoin="bevel" stroke-miterlimit="10"/></g></g></g><g><g fill="#444444"><path fill="" stroke="none" d=""/><g transform="translate(27,24)"><path fill="none" stroke="none"/><text fill="" stroke="none" font-family="helvetica" font-size="10pt" font-style="normal" font-weight="bold" text-decoration="normal" x="0" y="0" text-anchor="start" dominant-baseline="text-after-edge">Fraction of cells with highest pili number location</text></g></g></g><g/><g><g fill="#444444"><path fill="none" stroke="black" paint-order="fill stroke markers" d=" M 27 376 L 420 376" stroke-linejoin="bevel" stroke-miterlimit="10"/><path fill="none" stroke="black" paint-order="fill stroke markers" d=" M 90 382 L 90 374" stroke-linejoin="bevel" stroke-miterlimit="10"/><path fill="none" stroke="black" paint-order="fill stroke markers" d=" M 179 382 L 179 374" stroke-linejoin="bevel" stroke-miterlimit="10"/><path fill="none" stroke="black" paint-order="fill stroke markers" d=" M 268 382 L 268 374" stroke-linejoin="bevel" stroke-miterlimit="10"/><path fill="" stroke="black" paint-order="fill stroke markers" d=" M 357 382 L 357 374" stroke-linejoin="bevel" stroke-miterlimit="10"/><g transform="translate(90,387) rotate(0,0,0)"><text fill="" stroke="none" font-family="helvetica" font-size="8pt" font-style="normal" font-weight="normal" text-decoration="normal" x="0" y="0" text-anchor="middle" dominant-baseline="hanging">mNG_pilH</text><g transform="rotate(0,0,0) translate(-90,-387) translate(179,387) rotate(0,0,0)"><text fill="" stroke="none" font-family="helvetica" font-size="8pt" font-style="normal" font-weight="normal" text-decoration="normal" x="0" y="0" text-anchor="middle" dominant-baseline="hanging">pilB_mNG</text><g transform="rotate(0,0,0) translate(-179,-387) translate(268,387) rotate(0,0,0)"><text fill="" stroke="none" font-family="helvetica" font-size="8pt" font-style="normal" font-weight="normal" text-decoration="normal" x="0" y="0" text-anchor="middle" dominant-baseline="hanging">mNG_pilT</text><g transform="rotate(0,0,0) translate(-268,-387) translate(357,387) rotate(0,0,0)"><text fill="" stroke="none" font-family="helvetica" font-size="8pt" font-style="normal" font-weight="normal" text-decoration="normal" x="0" y="0" text-anchor="middle" dominant-baseline="hanging">mNG_pilU</text><g transform="rotate(0,0,0) translate(-357,-387)"/></g></g></g></g></g></g><g><g fill="#444444"><path fill="none" stroke="black" paint-order="fill stroke markers" d=" M 27 376 L 27 29" stroke-linejoin="bevel" stroke-miterlimit="10"/><path fill="none" stroke="black" paint-order="fill stroke markers" d=" M 21 376 L 29 376" stroke-linejoin="bevel" stroke-miterlimit="10"/><path fill="none" stroke="black" paint-order="fill stroke markers" d=" M 21 313 L 29 313" stroke-linejoin="bevel" stroke-miterlimit="10"/><path fill="none" stroke="black" paint-order="fill stroke markers" d=" M 21 250 L 29 250" stroke-linejoin="bevel" stroke-miterlimit="10"/><path fill="none" stroke="black" paint-order="fill stroke markers" d=" M 21 187 L 29 187" stroke-linejoin="bevel" stroke-miterlimit="10"/><path fill="none" stroke="black" paint-order="fill stroke markers" d=" M 21 124 L 29 124" stroke-linejoin="bevel" stroke-miterlimit="10"/><path fill="none" stroke="black" paint-order="fill stroke markers" d=" M 21 61 L 29 61" stroke-linejoin="bevel" stroke-miterlimit="10"/><path fill="none" stroke="black" paint-order="fill stroke markers" d=" M 23 376 L 27 376" stroke-linejoin="bevel" stroke-miterlimit="10"/><path fill="none" stroke="black" paint-order="fill stroke markers" d=" M 23 363 L 27 363" stroke-linejoin="bevel" stroke-miterlimit="10"/><path fill="none" stroke="black" paint-order="fill stroke markers" d=" M 23 351 L 27 351" stroke-linejoin="bevel" stroke-miterlimit="10"/><path fill="none" stroke="black" paint-order="fill stroke markers" d=" M 23 338 L 27 338" stroke-linejoin="bevel" stroke-miterlimit="10"/><path fill="none" stroke="black" paint-order="fill stroke markers" d=" M 23 326 L 27 326" stroke-linejoin="bevel" stroke-miterlimit="10"/><path fill="none" stroke="black" paint-order="fill stroke markers" d=" M 23 313 L 27 313" stroke-linejoin="bevel" stroke-miterlimit="10"/><path fill="none" stroke="black" paint-order="fill stroke markers" d=" M 23 300 L 27 300" stroke-linejoin="bevel" stroke-miterlimit="10"/><path fill="none" stroke="black" paint-order="fill stroke markers" d=" M 23 288 L 27 288" stroke-linejoin="bevel" stroke-miterlimit="10"/><path fill="none" stroke="black" paint-order="fill stroke markers" d=" M 23 275 L 27 275" stroke-linejoin="bevel" stroke-miterlimit="10"/><path fill="none" stroke="black" paint-order="fill stroke markers" d=" M 23 262 L 27 262" stroke-linejoin="bevel" stroke-miterlimit="10"/><path fill="none" stroke="black" paint-order="fill stroke markers" d=" M 23 250 L 27 250" stroke-linejoin="bevel" stroke-miterlimit="10"/><path fill="none" stroke="black" paint-order="fill stroke markers" d=" M 23 237 L 27 237" stroke-linejoin="bevel" stroke-miterlimit="10"/><path fill="none" stroke="black" paint-order="fill stroke markers" d=" M 23 225 L 27 225" stroke-linejoin="bevel" stroke-miterlimit="10"/><path fill="none" stroke="black" paint-order="fill stroke markers" d=" M 23 212 L 27 212" stroke-linejoin="bevel" stroke-miterlimit="10"/><path fill="none" stroke="black" paint-order="fill stroke markers" d=" M 23 199 L 27 199" stroke-linejoin="bevel" stroke-miterlimit="10"/><path fill="none" stroke="black" paint-order="fill stroke markers" d=" M 23 187 L 27 187" stroke-linejoin="bevel" stroke-miterlimit="10"/><path fill="none" stroke="black" paint-order="fill stroke markers" d=" M 23 174 L 27 174" stroke-linejoin="bevel" stroke-miterlimit="10"/><path fill="none" stroke="black" paint-order="fill stroke markers" d=" M 23 161 L 27 161" stroke-linejoin="bevel" stroke-miterlimit="10"/><path fill="none" stroke="black" paint-order="fill stroke markers" d=" M 23 149 L 27 149" stroke-linejoin="bevel" stroke-miterlimit="10"/><path fill="none" stroke="black" paint-order="fill stroke markers" d=" M 23 136 L 27 136" stroke-linejoin="bevel" stroke-miterlimit="10"/><path fill="none" stroke="black" paint-order="fill stroke markers" d=" M 23 124 L 27 124" stroke-linejoin="bevel" stroke-miterlimit="10"/><path fill="none" stroke="black" paint-order="fill stroke markers" d=" M 23 111 L 27 111" stroke-linejoin="bevel" stroke-miterlimit="10"/><path fill="none" stroke="black" paint-order="fill stroke markers" d=" M 23 98 L 27 98" stroke-linejoin="bevel" stroke-miterlimit="10"/><path fill="none" stroke="black" paint-order="fill stroke markers" d=" M 23 86 L 27 86" stroke-linejoin="bevel" stroke-miterlimit="10"/><path fill="none" stroke="black" paint-order="fill stroke markers" d=" M 23 73 L 27 73" stroke-linejoin="bevel" stroke-miterlimit="10"/><path fill="none" stroke="black" paint-order="fill stroke markers" d=" M 23 61 L 27 61" stroke-linejoin="bevel" stroke-miterlimit="10"/><path fill="none" stroke="black" paint-order="fill stroke markers" d=" M 23 48 L 27 48" stroke-linejoin="bevel" stroke-miterlimit="10"/><path fill="" stroke="black" paint-order="fill stroke markers" d=" M 23 35 L 27 35" stroke-linejoin="bevel" stroke-miterlimit="10"/><g transform="translate(16,376) rotate(0,0,0)"><text fill="" stroke="none" font-family="helvetica" font-size="8pt" font-style="normal" font-weight="normal" text-decoration="normal" x="0" y="0" text-anchor="end" dominant-baseline="central">0</text><g transform="rotate(0,0,0) translate(-16,-376) translate(16,313) rotate(0,0,0)"><text fill="" stroke="none" font-family="helvetica" font-size="8pt" font-style="normal" font-weight="normal" text-decoration="normal" x="0" y="0" text-anchor="end" dominant-baseline="central">0.2</text><g transform="rotate(0,0,0) translate(-16,-313) translate(16,250) rotate(0,0,0)"><text fill="" stroke="none" font-family="helvetica" font-size="8pt" font-style="normal" font-weight="normal" text-decoration="normal" x="0" y="0" text-anchor="end" dominant-baseline="central">0.4</text><g transform="rotate(0,0,0) translate(-16,-250) translate(16,187) rotate(0,0,0)"><text fill="" stroke="none" font-family="helvetica" font-size="8pt" font-style="normal" font-weight="normal" text-decoration="normal" x="0" y="0" text-anchor="end" dominant-baseline="central">0.6</text><g transform="rotate(0,0,0) translate(-16,-187) translate(16,124) rotate(0,0,0)"><text fill="" stroke="none" font-family="helvetica" font-size="8pt" font-style="normal" font-weight="normal" text-decoration="normal" x="0" y="0" text-anchor="end" dominant-baseline="central">0.8</text><g transform="rotate(0,0,0) translate(-16,-124) translate(16,61) rotate(0,0,0)"><text fill="" stroke="none" font-family="helvetica" font-size="8pt" font-style="normal" font-weight="normal" text-decoration="normal" x="0" y="0" text-anchor="end" dominant-baseline="central">1</text><g transform="rotate(0,0,0) translate(-16,-61)"/></g></g></g></g></g></g></g></g><g clip-path="url(#PxpCTycXkkJx)"><g/></g></g><g/><g/><g/><g/><g/><g/><g/><g/><g/><g/><g/><g/><g/><g/><g/><g/><g/><g/><g/><g/><g/><g/><g/><g/><g/><g/><g/><g/><g/><g/><g/><g/></g></svg>